<svg xmlns="http://www.w3.org/2000/svg" xmlns:xlink="http://www.w3.org/1999/xlink" contentStyleType="text/css" height="626px" preserveAspectRatio="none" style="width:1553px;height:626px;background:#FFFFFF;" version="1.1" viewBox="0 0 1553 626" width="1553px" zoomAndPan="magnify"><title>US042 &#8212; Import Bulk Weather Data</title><defs/><g><text fill="#000000" font-family="Arial" font-size="14" font-weight="bold" lengthAdjust="spacing" textLength="235.7236" x="660.6162" y="27.6738">US042 &#8212; Import Bulk Weather Data</text><rect fill="#FFFFFF" height="385.6875" style="stroke:#181818;stroke-width:1.0;" width="10" x="239.9365" y="144.4531"/><rect fill="#FFFFFF" height="276.0625" style="stroke:#181818;stroke-width:1.0;" width="10" x="468.6475" y="226.6719"/><rect fill="#FFFFFF" height="27.4063" style="stroke:#181818;stroke-width:1.0;" width="10" x="823.7666" y="254.0781"/><rect fill="#FFFFFF" height="27.4063" style="stroke:#181818;stroke-width:1.0;" width="10" x="1023.8213" y="308.8906"/><rect fill="#FFFFFF" height="27.4063" style="stroke:#181818;stroke-width:1.0;" width="10" x="1238.873" y="363.7031"/><rect fill="#FFFFFF" height="27.4063" style="stroke:#181818;stroke-width:1.0;" width="10" x="1440.2607" y="440.9219"/><rect fill="none" height="70.2188" style="stroke:#000000;stroke-width:1.5;" width="1191.3389" x="356.6172" y="406.1094"/><line style="stroke:#181818;stroke-width:0.5;stroke-dasharray:5.0,5.0;" x1="49" x2="49" y1="115.0469" y2="548.1406"/><line style="stroke:#181818;stroke-width:0.5;stroke-dasharray:5.0,5.0;" x1="244.916" x2="244.916" y1="115.0469" y2="548.1406"/><line style="stroke:#181818;stroke-width:0.5;stroke-dasharray:5.0,5.0;" x1="473.6172" x2="473.6172" y1="115.0469" y2="548.1406"/><line style="stroke:#181818;stroke-width:0.5;stroke-dasharray:5.0,5.0;" x1="828.0713" x2="828.0713" y1="115.0469" y2="548.1406"/><line style="stroke:#181818;stroke-width:0.5;stroke-dasharray:5.0,5.0;" x1="1028.4619" x2="1028.4619" y1="115.0469" y2="548.1406"/><line style="stroke:#181818;stroke-width:0.5;stroke-dasharray:5.0,5.0;" x1="1243.1807" x2="1243.1807" y1="115.0469" y2="548.1406"/><line style="stroke:#181818;stroke-width:0.5;stroke-dasharray:5.0,5.0;" x1="1444.5654" x2="1444.5654" y1="115.0469" y2="548.1406"/><text fill="#000000" font-family="Arial" font-size="12" lengthAdjust="spacing" textLength="83.373" x="5" y="112.5039">WeatherPerson</text><ellipse cx="49.6865" cy="50.1406" fill="#E2E2F0" rx="8" ry="8" style="stroke:#181818;stroke-width:0.5;"/><path d="M49.6865,58.1406 L49.6865,85.1406 M36.6865,66.1406 L62.6865,66.1406 M49.6865,85.1406 L36.6865,100.1406 M49.6865,85.1406 L62.6865,100.1406 " fill="none" style="stroke:#181818;stroke-width:0.5;"/><text fill="#000000" font-family="Arial" font-size="12" lengthAdjust="spacing" textLength="83.373" x="5" y="558.0039">WeatherPerson</text><ellipse cx="49.6865" cy="569.0469" fill="#E2E2F0" rx="8" ry="8" style="stroke:#181818;stroke-width:0.5;"/><path d="M49.6865,577.0469 L49.6865,604.0469 M36.6865,585.0469 L62.6865,585.0469 M49.6865,604.0469 L36.6865,619.0469 M49.6865,604.0469 L62.6865,619.0469 " fill="none" style="stroke:#181818;stroke-width:0.5;"/><rect fill="#E2E2F0" height="40.8125" rx="2.5" ry="2.5" style="stroke:#181818;stroke-width:0.5;" width="134.041" x="177.916" y="73.2344"/><text fill="#000000" font-family="Arial" font-size="12" font-style="italic" lengthAdjust="spacing" textLength="79.3945" x="205.2393" y="91.0977">&#171;presentation&#187;</text><text fill="#000000" font-family="Arial" font-size="12" lengthAdjust="spacing" textLength="120.041" x="184.916" y="104.5039">:ImportWeatherDataUI</text><rect fill="#E2E2F0" height="40.8125" rx="2.5" ry="2.5" style="stroke:#181818;stroke-width:0.5;" width="134.041" x="177.916" y="547.1406"/><text fill="#000000" font-family="Arial" font-size="12" font-style="italic" lengthAdjust="spacing" textLength="79.3945" x="205.2393" y="565.0039">&#171;presentation&#187;</text><text fill="#000000" font-family="Arial" font-size="12" lengthAdjust="spacing" textLength="120.041" x="184.916" y="578.4102">:ImportWeatherDataUI</text><rect fill="#E2E2F0" height="40.8125" rx="2.5" ry="2.5" style="stroke:#181818;stroke-width:0.5;" width="174.0605" x="386.6172" y="73.2344"/><text fill="#000000" font-family="Arial" font-size="12" font-style="italic" lengthAdjust="spacing" textLength="70.7227" x="438.2861" y="91.0977">&#171;application&#187;</text><text fill="#000000" font-family="Arial" font-size="12" lengthAdjust="spacing" textLength="160.0605" x="393.6172" y="104.5039">:ImportWeatherDataController</text><rect fill="#E2E2F0" height="40.8125" rx="2.5" ry="2.5" style="stroke:#181818;stroke-width:0.5;" width="174.0605" x="386.6172" y="547.1406"/><text fill="#000000" font-family="Arial" font-size="12" font-style="italic" lengthAdjust="spacing" textLength="70.7227" x="438.2861" y="565.0039">&#171;application&#187;</text><text fill="#000000" font-family="Arial" font-size="12" lengthAdjust="spacing" textLength="160.0605" x="393.6172" y="578.4102">:ImportWeatherDataController</text><rect fill="#E2E2F0" height="40.8125" rx="2.5" ry="2.5" style="stroke:#181818;stroke-width:0.5;" width="127.3906" x="765.0713" y="73.2344"/><text fill="#000000" font-family="Arial" font-size="12" font-style="italic" lengthAdjust="spacing" textLength="69.3574" x="794.0879" y="91.0977">&#171;framework&#187;</text><text fill="#000000" font-family="Arial" font-size="12" lengthAdjust="spacing" textLength="113.3906" x="772.0713" y="104.5039">:AuthorizationService</text><rect fill="#E2E2F0" height="40.8125" rx="2.5" ry="2.5" style="stroke:#181818;stroke-width:0.5;" width="127.3906" x="765.0713" y="547.1406"/><text fill="#000000" font-family="Arial" font-size="12" font-style="italic" lengthAdjust="spacing" textLength="69.3574" x="794.0879" y="565.0039">&#171;framework&#187;</text><text fill="#000000" font-family="Arial" font-size="12" lengthAdjust="spacing" textLength="113.3906" x="772.0713" y="578.4102">:AuthorizationService</text><rect fill="#E2E2F0" height="40.8125" rx="2.5" ry="2.5" style="stroke:#181818;stroke-width:0.5;" width="172.7188" x="942.4619" y="73.2344"/><text fill="#000000" font-family="Arial" font-size="12" font-style="italic" lengthAdjust="spacing" textLength="70.7227" x="993.46" y="91.0977">&#171;application&#187;</text><text fill="#000000" font-family="Arial" font-size="12" lengthAdjust="spacing" textLength="158.7188" x="949.4619" y="104.5039">:WeatherDataImporterFactory</text><rect fill="#E2E2F0" height="40.8125" rx="2.5" ry="2.5" style="stroke:#181818;stroke-width:0.5;" width="172.7188" x="942.4619" y="547.1406"/><text fill="#000000" font-family="Arial" font-size="12" font-style="italic" lengthAdjust="spacing" textLength="70.7227" x="993.46" y="565.0039">&#171;application&#187;</text><text fill="#000000" font-family="Arial" font-size="12" lengthAdjust="spacing" textLength="158.7188" x="949.4619" y="578.4102">:WeatherDataImporterFactory</text><rect fill="#E2E2F0" height="40.8125" rx="2.5" ry="2.5" style="stroke:#181818;stroke-width:0.5;" width="157.3848" x="1165.1807" y="73.2344"/><text fill="#000000" font-family="Arial" font-size="12" font-style="italic" lengthAdjust="spacing" textLength="70.7227" x="1208.5117" y="91.0977">&#171;application&#187;</text><text fill="#000000" font-family="Arial" font-size="12" lengthAdjust="spacing" textLength="143.3848" x="1172.1807" y="104.5039">:CSVWeatherDataImporter</text><rect fill="#E2E2F0" height="40.8125" rx="2.5" ry="2.5" style="stroke:#181818;stroke-width:0.5;" width="157.3848" x="1165.1807" y="547.1406"/><text fill="#000000" font-family="Arial" font-size="12" font-style="italic" lengthAdjust="spacing" textLength="70.7227" x="1208.5117" y="565.0039">&#171;application&#187;</text><text fill="#000000" font-family="Arial" font-size="12" lengthAdjust="spacing" textLength="143.3848" x="1172.1807" y="578.4102">:CSVWeatherDataImporter</text><rect fill="#E2E2F0" height="40.8125" rx="2.5" ry="2.5" style="stroke:#181818;stroke-width:0.5;" width="145.3906" x="1372.5654" y="73.2344"/><text fill="#000000" font-family="Arial" font-size="12" font-style="italic" lengthAdjust="spacing" textLength="74.7129" x="1407.9043" y="91.0977">&#171;persistence&#187;</text><text fill="#000000" font-family="Arial" font-size="12" lengthAdjust="spacing" textLength="131.3906" x="1379.5654" y="104.5039">:WeatherDataRepository</text><rect fill="#E2E2F0" height="40.8125" rx="2.5" ry="2.5" style="stroke:#181818;stroke-width:0.5;" width="145.3906" x="1372.5654" y="547.1406"/><text fill="#000000" font-family="Arial" font-size="12" font-style="italic" lengthAdjust="spacing" textLength="74.7129" x="1407.9043" y="565.0039">&#171;persistence&#187;</text><text fill="#000000" font-family="Arial" font-size="12" lengthAdjust="spacing" textLength="131.3906" x="1379.5654" y="578.4102">:WeatherDataRepository</text><rect fill="#FFFFFF" height="385.6875" style="stroke:#181818;stroke-width:1.0;" width="10" x="239.9365" y="144.4531"/><rect fill="#FFFFFF" height="276.0625" style="stroke:#181818;stroke-width:1.0;" width="10" x="468.6475" y="226.6719"/><rect fill="#FFFFFF" height="27.4063" style="stroke:#181818;stroke-width:1.0;" width="10" x="823.7666" y="254.0781"/><rect fill="#FFFFFF" height="27.4063" style="stroke:#181818;stroke-width:1.0;" width="10" x="1023.8213" y="308.8906"/><rect fill="#FFFFFF" height="27.4063" style="stroke:#181818;stroke-width:1.0;" width="10" x="1238.873" y="363.7031"/><rect fill="#FFFFFF" height="27.4063" style="stroke:#181818;stroke-width:1.0;" width="10" x="1440.2607" y="440.9219"/><polygon fill="#181818" points="227.9365,140.4531,237.9365,144.4531,227.9365,148.4531,231.9365,144.4531" style="stroke:#181818;stroke-width:1.0;"/><line style="stroke:#181818;stroke-width:1.0;" x1="49.6865" x2="233.9365" y1="144.4531" y2="144.4531"/><text fill="#000000" font-family="Arial" font-size="12" font-weight="bold" lengthAdjust="spacing" textLength="6.6738" x="59.1865" y="139.9102">1</text><text fill="#000000" font-family="Arial" font-size="12" lengthAdjust="spacing" textLength="160.5762" x="69.8604" y="139.9102">selects "Import Weather Data"</text><polygon fill="#181818" points="60.6865,167.8594,50.6865,171.8594,60.6865,175.8594,56.6865,171.8594" style="stroke:#181818;stroke-width:1.0;"/><line style="stroke:#181818;stroke-width:1.0;" x1="54.6865" x2="238.9365" y1="171.8594" y2="171.8594"/><text fill="#000000" font-family="Arial" font-size="12" font-weight="bold" lengthAdjust="spacing" textLength="6.6738" x="93.7803" y="167.3164">2</text><text fill="#000000" font-family="Arial" font-size="12" lengthAdjust="spacing" textLength="91.3887" x="104.4541" y="167.3164">requests file path</text><polygon fill="#181818" points="227.9365,195.2656,237.9365,199.2656,227.9365,203.2656,231.9365,199.2656" style="stroke:#181818;stroke-width:1.0;"/><line style="stroke:#181818;stroke-width:1.0;" x1="49.6865" x2="233.9365" y1="199.2656" y2="199.2656"/><text fill="#000000" font-family="Arial" font-size="12" font-weight="bold" lengthAdjust="spacing" textLength="6.6738" x="94.1143" y="194.7227">3</text><text fill="#000000" font-family="Arial" font-size="12" lengthAdjust="spacing" textLength="90.7207" x="104.7881" y="194.7227">provides file path</text><polygon fill="#181818" points="456.6475,222.6719,466.6475,226.6719,456.6475,230.6719,460.6475,226.6719" style="stroke:#181818;stroke-width:1.0;"/><line style="stroke:#181818;stroke-width:1.0;" x1="249.9365" x2="462.6475" y1="226.6719" y2="226.6719"/><text fill="#000000" font-family="Arial" font-size="12" font-weight="bold" lengthAdjust="spacing" textLength="6.6738" x="277.9268" y="222.1289">4</text><text fill="#000000" font-family="Arial" font-size="12" lengthAdjust="spacing" textLength="152.0566" x="288.6006" y="222.1289">importWeatherData(filePath)</text><polygon fill="#181818" points="811.7666,250.0781,821.7666,254.0781,811.7666,258.0781,815.7666,254.0781" style="stroke:#181818;stroke-width:1.0;"/><line style="stroke:#181818;stroke-width:1.0;" x1="478.6475" x2="817.7666" y1="254.0781" y2="254.0781"/><text fill="#000000" font-family="Arial" font-size="12" font-weight="bold" lengthAdjust="spacing" textLength="6.6738" x="488.1475" y="249.5352">5</text><text fill="#000000" font-family="Arial" font-size="12" lengthAdjust="spacing" textLength="315.4453" x="498.8213" y="249.5352">ensureAuthenticatedUserHasAnyOf(WEATHER_PERSON)</text><polygon fill="#181818" points="489.6475,277.4844,479.6475,281.4844,489.6475,285.4844,485.6475,281.4844" style="stroke:#181818;stroke-width:1.0;"/><line style="stroke:#181818;stroke-width:1.0;stroke-dasharray:2.0,2.0;" x1="483.6475" x2="827.7666" y1="281.4844" y2="281.4844"/><text fill="#000000" font-family="Arial" font-size="12" font-weight="bold" lengthAdjust="spacing" textLength="6.6738" x="646.7031" y="276.9414">6</text><text fill="#000000" font-family="Arial" font-size="12" lengthAdjust="spacing" textLength="3.334" x="657.377" y="276.9414">&#160;</text><polygon fill="#181818" points="1011.8213,304.8906,1021.8213,308.8906,1011.8213,312.8906,1015.8213,308.8906" style="stroke:#181818;stroke-width:1.0;"/><line style="stroke:#181818;stroke-width:1.0;" x1="478.6475" x2="1017.8213" y1="308.8906" y2="308.8906"/><text fill="#000000" font-family="Arial" font-size="12" font-weight="bold" lengthAdjust="spacing" textLength="6.6738" x="691.209" y="304.3477">7</text><text fill="#000000" font-family="Arial" font-size="12" lengthAdjust="spacing" textLength="109.377" x="701.8828" y="304.3477">getImporter(filePath)</text><polygon fill="#181818" points="489.6475,332.2969,479.6475,336.2969,489.6475,340.2969,485.6475,336.2969" style="stroke:#181818;stroke-width:1.0;"/><line style="stroke:#181818;stroke-width:1.0;stroke-dasharray:2.0,2.0;" x1="483.6475" x2="1027.8213" y1="336.2969" y2="336.2969"/><text fill="#000000" font-family="Arial" font-size="12" font-weight="bold" lengthAdjust="spacing" textLength="6.6738" x="726.3926" y="331.7539">8</text><text fill="#000000" font-family="Arial" font-size="12" lengthAdjust="spacing" textLength="44.0098" x="737.0664" y="331.7539">importer</text><polygon fill="#181818" points="1226.873,359.7031,1236.873,363.7031,1226.873,367.7031,1230.873,363.7031" style="stroke:#181818;stroke-width:1.0;"/><line style="stroke:#181818;stroke-width:1.0;" x1="478.6475" x2="1232.873" y1="363.7031" y2="363.7031"/><text fill="#000000" font-family="Arial" font-size="12" font-weight="bold" lengthAdjust="spacing" textLength="6.6738" x="814.4058" y="359.1602">9</text><text fill="#000000" font-family="Arial" font-size="12" lengthAdjust="spacing" textLength="78.0352" x="825.0796" y="359.1602">parse(filePath)</text><polygon fill="#181818" points="489.6475,387.1094,479.6475,391.1094,489.6475,395.1094,485.6475,391.1094" style="stroke:#181818;stroke-width:1.0;"/><line style="stroke:#181818;stroke-width:1.0;stroke-dasharray:2.0,2.0;" x1="483.6475" x2="1242.873" y1="391.1094" y2="391.1094"/><text fill="#000000" font-family="Arial" font-size="12" font-weight="bold" lengthAdjust="spacing" textLength="13.3477" x="783.8911" y="386.5664">10</text><text fill="#000000" font-family="Arial" font-size="12" lengthAdjust="spacing" textLength="137.3906" x="801.2388" y="386.5664">weatherDataList, errorList</text><path d="M356.6172,406.1094 L426.9414,406.1094 L426.9414,411.5156 L416.9414,421.5156 L356.6172,421.5156 L356.6172,406.1094 " fill="#EEEEEE" style="stroke:#000000;stroke-width:1.5;"/><rect fill="none" height="70.2188" style="stroke:#000000;stroke-width:1.5;" width="1191.3389" x="356.6172" y="406.1094"/><text fill="#000000" font-family="Arial" font-size="12" font-weight="bold" lengthAdjust="spacing" textLength="25.3242" x="371.6172" y="417.9727">loop</text><text fill="#000000" font-family="Arial" font-size="12" font-weight="bold" lengthAdjust="spacing" textLength="162.041" x="441.9414" y="418.9727">[for each valid WeatherData]</text><polygon fill="#181818" points="1428.2607,436.9219,1438.2607,440.9219,1428.2607,444.9219,1432.2607,440.9219" style="stroke:#181818;stroke-width:1.0;"/><line style="stroke:#181818;stroke-width:1.0;" x1="478.6475" x2="1434.2607" y1="440.9219" y2="440.9219"/><text fill="#000000" font-family="Arial" font-size="12" font-weight="bold" lengthAdjust="spacing" textLength="13.3477" x="900.0908" y="436.3789">11</text><text fill="#000000" font-family="Arial" font-size="12" lengthAdjust="spacing" textLength="101.3789" x="917.4385" y="436.3789">save(weatherData)</text><polygon fill="#181818" points="489.6475,464.3281,479.6475,468.3281,489.6475,472.3281,485.6475,468.3281" style="stroke:#181818;stroke-width:1.0;"/><line style="stroke:#181818;stroke-width:1.0;stroke-dasharray:2.0,2.0;" x1="483.6475" x2="1444.2607" y1="468.3281" y2="468.3281"/><text fill="#000000" font-family="Arial" font-size="12" font-weight="bold" lengthAdjust="spacing" textLength="13.3477" x="951.6133" y="463.7852">12</text><text fill="#000000" font-family="Arial" font-size="12" lengthAdjust="spacing" textLength="3.334" x="968.9609" y="463.7852">&#160;</text><polygon fill="#181818" points="260.9365,498.7344,250.9365,502.7344,260.9365,506.7344,256.9365,502.7344" style="stroke:#181818;stroke-width:1.0;"/><line style="stroke:#181818;stroke-width:1.0;stroke-dasharray:2.0,2.0;" x1="254.9365" x2="472.6475" y1="502.7344" y2="502.7344"/><text fill="#000000" font-family="Arial" font-size="12" font-weight="bold" lengthAdjust="spacing" textLength="13.3477" x="264.4365" y="498.1914">13</text><text fill="#000000" font-family="Arial" font-size="12" lengthAdjust="spacing" textLength="177.3633" x="281.7842" y="498.1914">importSummary(imported, errors)</text><polygon fill="#181818" points="60.6865,526.1406,50.6865,530.1406,60.6865,534.1406,56.6865,530.1406" style="stroke:#181818;stroke-width:1.0;"/><line style="stroke:#181818;stroke-width:1.0;stroke-dasharray:2.0,2.0;" x1="54.6865" x2="243.9365" y1="530.1406" y2="530.1406"/><text fill="#000000" font-family="Arial" font-size="12" font-weight="bold" lengthAdjust="spacing" textLength="13.3477" x="72.2891" y="525.5977">14</text><text fill="#000000" font-family="Arial" font-size="12" lengthAdjust="spacing" textLength="132.6973" x="89.6367" y="525.5977">displays import summary</text><!--SRC=[XLD1Rjim4Bpp5OHEDb03gT6J4HXmKmS9q2Q6LIV7WfLMDc6AL9UK0-VKH_I5VKcN52KJhW7h975dPsQv8oUT0hx9RpvD-T_VV_XZtHXq_7EhzlmLXDi1yY_22SRiNkf6eAYvXLyjw0A-WRLY2mibjveNe1rWWYgX4grozqQx9r43Nw0Kwd8zb-_0FqwJuagWauLiX7OhKPPIR_dqXZ7HEgFR-YS9CL4uWpoB9bU0rkYC2yj3WJKd1fxDkh4Yri-pUSnu_r1FA-FxxMs3O6aMuQJHy_ardZkoZqOfmA1TE5IHHpIDaiLbcaNhTWRbUwZcW0TPG9ROeJbtxnrDHTS1RmRt_v4aBZfRWFTXzcCMIAhkuvgNk_pb0bCsU97nv0fDmh66nbWPZVGqI8Vz3TEkf7K-GaGJ5pcP-oNCA5mA2cTv5fEOXZ3pM7aG3WZB6E6fgskVaG2bqb9d9IdH3NMTCJTe3hA4510fmjPcST9aa957hkXpV1BsMCP2XnSFYvfnqBP5y6kbwFWhWd9Z0H-4NUZZSpLwNIw-FopNFrRBTVxybD050jRHJA8LLi9PVT3hTphZMt3zhYxPZ43MDqpEnwHVA97fuOFGi7MwDu4MBcaCH0CuKNaxNUDNMlO73eW6_MkgEr0mPKp3AreN5NVy89GiUR8AvgFJcmjPegY80umIdN403TmU5Ku2VBXSVv8u22ZGPJzwdvREMTxMjS3ZAFeiunXsd0xHHS97AObZAMsZnB7_VxZjcD8-ol0_]--></g></svg>