<svg xmlns="http://www.w3.org/2000/svg" xmlns:xlink="http://www.w3.org/1999/xlink" contentStyleType="text/css" height="714px" preserveAspectRatio="none" style="width:1606px;height:714px;background:#FFFFFF;" version="1.1" viewBox="0 0 1606 714" width="1606px" zoomAndPan="magnify"><title>US042 &#8212; Import Bulk Weather Data</title><defs/><g><text fill="#000000" font-family="Arial" font-size="14" font-weight="bold" lengthAdjust="spacing" textLength="235.7236" x="687.0743" y="27.6738">US042 &#8212; Import Bulk Weather Data</text><rect fill="#FFFFFF" height="477.9141" style="stroke:#181818;stroke-width:1.0;" width="10" x="246.9797" y="142.2188"/><rect fill="#FFFFFF" height="372.7578" style="stroke:#181818;stroke-width:1.0;" width="10" x="579.6594" y="221.0859"/><rect fill="#FFFFFF" height="57.5781" style="stroke:#181818;stroke-width:1.0;" width="10" x="584.6594" y="350.5313"/><rect fill="#FFFFFF" height="26.2891" style="stroke:#181818;stroke-width:1.0;" width="10" x="991.2405" y="247.375"/><rect fill="#FFFFFF" height="26.2891" style="stroke:#181818;stroke-width:1.0;" width="10" x="1171.0977" y="381.8203"/><rect fill="#FFFFFF" height="26.2891" style="stroke:#181818;stroke-width:1.0;" width="10" x="1359.2048" y="487.9766"/><rect fill="none" height="279.8906" style="stroke:#000000;stroke-width:1.5;" width="1147.2732" x="453.5991" y="288.6641"/><rect fill="none" height="251.6016" style="stroke:#000000;stroke-width:1.5;" width="997.8264" x="463.5991" y="309.9531"/><line style="stroke:#181818;stroke-width:0.5;stroke-dasharray:5.0,5.0;" x1="46" x2="46" y1="113.9297" y2="638.1328"/><line style="stroke:#181818;stroke-width:0.5;stroke-dasharray:5.0,5.0;" x1="251.2617" x2="251.2617" y1="113.9297" y2="638.1328"/><line style="stroke:#181818;stroke-width:0.5;stroke-dasharray:5.0,5.0;" x1="584.5991" x2="584.5991" y1="113.9297" y2="638.1328"/><line style="stroke:#181818;stroke-width:0.5;stroke-dasharray:5.0,5.0;" x1="995.2698" x2="995.2698" y1="113.9297" y2="638.1328"/><line style="stroke:#181818;stroke-width:0.5;stroke-dasharray:5.0,5.0;" x1="1175.2112" x2="1175.2112" y1="113.9297" y2="638.1328"/><line style="stroke:#181818;stroke-width:0.5;stroke-dasharray:5.0,5.0;" x1="1363.9841" x2="1363.9841" y1="113.9297" y2="638.1328"/><text fill="#000000" font-family="Arial" font-size="11" lengthAdjust="spacing" textLength="76.4253" x="5" y="111.5986">WeatherPerson</text><ellipse cx="46.2126" cy="50.1406" fill="#E2E2F0" rx="8" ry="8" style="stroke:#181818;stroke-width:0.5;"/><path d="M46.2126,58.1406 L46.2126,85.1406 M33.2126,66.1406 L59.2126,66.1406 M46.2126,85.1406 L33.2126,100.1406 M46.2126,85.1406 L59.2126,100.1406 " fill="none" style="stroke:#181818;stroke-width:0.5;"/><text fill="#000000" font-family="Arial" font-size="11" lengthAdjust="spacing" textLength="76.4253" x="5" y="647.0908">WeatherPerson</text><ellipse cx="46.2126" cy="657.9219" fill="#E2E2F0" rx="8" ry="8" style="stroke:#181818;stroke-width:0.5;"/><path d="M46.2126,665.9219 L46.2126,692.9219 M33.2126,673.9219 L59.2126,673.9219 M46.2126,692.9219 L33.2126,707.9219 M46.2126,692.9219 L59.2126,707.9219 " fill="none" style="stroke:#181818;stroke-width:0.5;"/><rect fill="#E2E2F0" height="38.5781" rx="2.5" ry="2.5" style="stroke:#181818;stroke-width:0.5;" width="145.436" x="179.2617" y="74.3516"/><text fill="#000000" font-family="Arial" font-size="11" font-style="italic" lengthAdjust="spacing" textLength="72.7783" x="215.5906" y="91.3096">&#171;presentation&#187;</text><text fill="#000000" font-family="Arial" font-size="11" lengthAdjust="spacing" textLength="131.436" x="186.2617" y="103.5986">:ImportBulkWeatherDataUI</text><rect fill="#E2E2F0" height="38.5781" rx="2.5" ry="2.5" style="stroke:#181818;stroke-width:0.5;" width="145.436" x="179.2617" y="637.1328"/><text fill="#000000" font-family="Arial" font-size="11" font-style="italic" lengthAdjust="spacing" textLength="72.7783" x="215.5906" y="654.0908">&#171;presentation&#187;</text><text fill="#000000" font-family="Arial" font-size="11" lengthAdjust="spacing" textLength="131.436" x="186.2617" y="666.3799">:ImportBulkWeatherDataUI</text><rect fill="#E2E2F0" height="38.5781" rx="2.5" ry="2.5" style="stroke:#181818;stroke-width:0.5;" width="182.1206" x="493.5991" y="74.3516"/><text fill="#000000" font-family="Arial" font-size="11" font-style="italic" lengthAdjust="spacing" textLength="64.8291" x="552.2449" y="91.3096">&#171;application&#187;</text><text fill="#000000" font-family="Arial" font-size="11" lengthAdjust="spacing" textLength="168.1206" x="500.5991" y="103.5986">:ImportBulkWeatherDataController</text><rect fill="#E2E2F0" height="38.5781" rx="2.5" ry="2.5" style="stroke:#181818;stroke-width:0.5;" width="182.1206" x="493.5991" y="637.1328"/><text fill="#000000" font-family="Arial" font-size="11" font-style="italic" lengthAdjust="spacing" textLength="64.8291" x="552.2449" y="654.0908">&#171;application&#187;</text><text fill="#000000" font-family="Arial" font-size="11" lengthAdjust="spacing" textLength="168.1206" x="500.5991" y="666.3799">:ImportBulkWeatherDataController</text><rect fill="#E2E2F0" height="38.5781" rx="2.5" ry="2.5" style="stroke:#181818;stroke-width:0.5;" width="117.9414" x="937.2698" y="74.3516"/><text fill="#000000" font-family="Arial" font-size="11" font-style="italic" lengthAdjust="spacing" textLength="63.5776" x="964.4517" y="91.3096">&#171;framework&#187;</text><text fill="#000000" font-family="Arial" font-size="11" lengthAdjust="spacing" textLength="103.9414" x="944.2698" y="103.5986">:AuthorizationService</text><rect fill="#E2E2F0" height="38.5781" rx="2.5" ry="2.5" style="stroke:#181818;stroke-width:0.5;" width="117.9414" x="937.2698" y="637.1328"/><text fill="#000000" font-family="Arial" font-size="11" font-style="italic" lengthAdjust="spacing" textLength="63.5776" x="964.4517" y="654.0908">&#171;framework&#187;</text><text fill="#000000" font-family="Arial" font-size="11" lengthAdjust="spacing" textLength="103.9414" x="944.2698" y="666.3799">:AuthorizationService</text><rect fill="#E2E2F0" height="38.5781" rx="2.5" ry="2.5" style="stroke:#181818;stroke-width:0.5;" width="141.7729" x="1105.2112" y="74.3516"/><text fill="#000000" font-family="Arial" font-size="11" font-style="italic" lengthAdjust="spacing" textLength="68.4868" x="1141.8542" y="91.3096">&#171;persistence&#187;</text><text fill="#000000" font-family="Arial" font-size="11" lengthAdjust="spacing" textLength="127.7729" x="1112.2112" y="103.5986">:AirControlAreaRepository</text><rect fill="#E2E2F0" height="38.5781" rx="2.5" ry="2.5" style="stroke:#181818;stroke-width:0.5;" width="141.7729" x="1105.2112" y="637.1328"/><text fill="#000000" font-family="Arial" font-size="11" font-style="italic" lengthAdjust="spacing" textLength="68.4868" x="1141.8542" y="654.0908">&#171;persistence&#187;</text><text fill="#000000" font-family="Arial" font-size="11" lengthAdjust="spacing" textLength="127.7729" x="1112.2112" y="666.3799">:AirControlAreaRepository</text><rect fill="#E2E2F0" height="38.5781" rx="2.5" ry="2.5" style="stroke:#181818;stroke-width:0.5;" width="134.4414" x="1296.9841" y="74.3516"/><text fill="#000000" font-family="Arial" font-size="11" font-style="italic" lengthAdjust="spacing" textLength="68.4868" x="1329.9614" y="91.3096">&#171;persistence&#187;</text><text fill="#000000" font-family="Arial" font-size="11" lengthAdjust="spacing" textLength="120.4414" x="1303.9841" y="103.5986">:WeatherDataRepository</text><rect fill="#E2E2F0" height="38.5781" rx="2.5" ry="2.5" style="stroke:#181818;stroke-width:0.5;" width="134.4414" x="1296.9841" y="637.1328"/><text fill="#000000" font-family="Arial" font-size="11" font-style="italic" lengthAdjust="spacing" textLength="68.4868" x="1329.9614" y="654.0908">&#171;persistence&#187;</text><text fill="#000000" font-family="Arial" font-size="11" lengthAdjust="spacing" textLength="120.4414" x="1303.9841" y="666.3799">:WeatherDataRepository</text><rect fill="#FFFFFF" height="477.9141" style="stroke:#181818;stroke-width:1.0;" width="10" x="246.9797" y="142.2188"/><rect fill="#FFFFFF" height="372.7578" style="stroke:#181818;stroke-width:1.0;" width="10" x="579.6594" y="221.0859"/><rect fill="#FFFFFF" height="57.5781" style="stroke:#181818;stroke-width:1.0;" width="10" x="584.6594" y="350.5313"/><rect fill="#FFFFFF" height="26.2891" style="stroke:#181818;stroke-width:1.0;" width="10" x="991.2405" y="247.375"/><rect fill="#FFFFFF" height="26.2891" style="stroke:#181818;stroke-width:1.0;" width="10" x="1171.0977" y="381.8203"/><rect fill="#FFFFFF" height="26.2891" style="stroke:#181818;stroke-width:1.0;" width="10" x="1359.2048" y="487.9766"/><polygon fill="#181818" points="234.9797,138.2188,244.9797,142.2188,234.9797,146.2188,238.9797,142.2188" style="stroke:#181818;stroke-width:1.0;"/><line style="stroke:#181818;stroke-width:1.0;" x1="46.2126" x2="240.9797" y1="142.2188" y2="142.2188"/><text fill="#000000" font-family="Arial" font-size="11" font-weight="bold" lengthAdjust="spacing" textLength="6.1177" x="55.7126" y="137.8877">1</text><text fill="#000000" font-family="Arial" font-size="11" lengthAdjust="spacing" textLength="171.6494" x="65.8303" y="137.8877">selects "Import Bulk Weather Data"</text><polygon fill="#181818" points="57.2126,164.5078,47.2126,168.5078,57.2126,172.5078,53.2126,168.5078" style="stroke:#181818;stroke-width:1.0;"/><line style="stroke:#181818;stroke-width:1.0;" x1="51.2126" x2="245.9797" y1="168.5078" y2="168.5078"/><text fill="#000000" font-family="Arial" font-size="11" font-weight="bold" lengthAdjust="spacing" textLength="6.1177" x="99.6509" y="164.1768">2</text><text fill="#000000" font-family="Arial" font-size="11" lengthAdjust="spacing" textLength="83.7729" x="109.7686" y="164.1768">requests file path</text><polygon fill="#181818" points="234.9797,190.7969,244.9797,194.7969,234.9797,198.7969,238.9797,194.7969" style="stroke:#181818;stroke-width:1.0;"/><line style="stroke:#181818;stroke-width:1.0;" x1="46.2126" x2="240.9797" y1="194.7969" y2="194.7969"/><text fill="#000000" font-family="Arial" font-size="11" font-weight="bold" lengthAdjust="spacing" textLength="6.1177" x="99.957" y="190.4658">3</text><text fill="#000000" font-family="Arial" font-size="11" lengthAdjust="spacing" textLength="83.1606" x="110.0747" y="190.4658">provides file path</text><polygon fill="#181818" points="567.6594,217.0859,577.6594,221.0859,567.6594,225.0859,571.6594,221.0859" style="stroke:#181818;stroke-width:1.0;"/><line style="stroke:#181818;stroke-width:1.0;" x1="256.9797" x2="573.6594" y1="221.0859" y2="221.0859"/><text fill="#000000" font-family="Arial" font-size="11" font-weight="bold" lengthAdjust="spacing" textLength="6.1177" x="303.8462" y="216.7549">4</text><text fill="#000000" font-family="Arial" font-size="11" lengthAdjust="spacing" textLength="218.8291" x="313.9639" y="216.7549">importFromCsv(Path csvPath) : ImportResult</text><polygon fill="#181818" points="979.2405,243.375,989.2405,247.375,979.2405,251.375,983.2405,247.375" style="stroke:#181818;stroke-width:1.0;"/><line style="stroke:#181818;stroke-width:1.0;" x1="589.6594" x2="985.2405" y1="247.375" y2="247.375"/><text fill="#000000" font-family="Arial" font-size="11" font-weight="bold" lengthAdjust="spacing" textLength="6.1177" x="626.1382" y="243.0439">5</text><text fill="#000000" font-family="Arial" font-size="11" lengthAdjust="spacing" textLength="318.5059" x="636.2559" y="243.0439">ensureAuthenticatedUserHasAnyOf(WEATHER_PERSON) : void</text><polygon fill="#181818" points="600.6594,269.6641,590.6594,273.6641,600.6594,277.6641,596.6594,273.6641" style="stroke:#181818;stroke-width:1.0;"/><line style="stroke:#181818;stroke-width:1.0;stroke-dasharray:2.0,2.0;" x1="594.6594" x2="995.2405" y1="273.6641" y2="273.6641"/><text fill="#000000" font-family="Arial" font-size="11" font-weight="bold" lengthAdjust="spacing" textLength="6.1177" x="786.363" y="269.333">6</text><text fill="#000000" font-family="Arial" font-size="11" lengthAdjust="spacing" textLength="3.0562" x="796.4807" y="269.333">&#160;</text><path d="M453.5991,288.6641 L521.813,288.6641 L521.813,292.9531 L511.813,302.9531 L453.5991,302.9531 L453.5991,288.6641 " fill="#EEEEEE" style="stroke:#000000;stroke-width:1.5;"/><rect fill="none" height="279.8906" style="stroke:#000000;stroke-width:1.5;" width="1147.2732" x="453.5991" y="288.6641"/><text fill="#000000" font-family="Arial" font-size="11" font-weight="bold" lengthAdjust="spacing" textLength="23.2139" x="468.5991" y="299.6221">loop</text><text fill="#000000" font-family="Arial" font-size="11" font-weight="bold" lengthAdjust="spacing" textLength="110.6284" x="536.813" y="300.6221">[for each line in CSV]</text><path d="M463.5991,309.9531 L521.436,309.9531 L521.436,314.2422 L511.436,324.2422 L463.5991,324.2422 L463.5991,309.9531 " fill="#EEEEEE" style="stroke:#000000;stroke-width:1.5;"/><rect fill="none" height="251.6016" style="stroke:#000000;stroke-width:1.5;" width="997.8264" x="463.5991" y="309.9531"/><text fill="#000000" font-family="Arial" font-size="11" font-weight="bold" lengthAdjust="spacing" textLength="12.8369" x="478.5991" y="320.9111">alt</text><text fill="#000000" font-family="Arial" font-size="11" font-weight="bold" lengthAdjust="spacing" textLength="98.7476" x="536.436" y="321.9111">[line starts with '#']</text><path d="M1466.4255,314.9531 L1466.4255,348.9531 L1585.4255,348.9531 L1585.4255,324.9531 L1575.4255,314.9531 L1466.4255,314.9531 " fill="#FEFFDD" style="stroke:#181818;stroke-width:0.5;"/><path d="M1575.4255,314.9531 L1575.4255,324.9531 L1585.4255,324.9531 L1575.4255,314.9531 " fill="#FEFFDD" style="stroke:#181818;stroke-width:0.5;"/><text fill="#000000" font-family="Arial" font-size="11" lengthAdjust="spacing" textLength="98.4468" x="1472.4255" y="329.9111">on error: skipped++,</text><text fill="#000000" font-family="Arial" font-size="11" lengthAdjust="spacing" textLength="85.5991" x="1472.4255" y="342.2002">error added to list</text><line style="stroke:#181818;stroke-width:1.0;" x1="589.6594" x2="636.6594" y1="337.5313" y2="337.5313"/><line style="stroke:#181818;stroke-width:1.0;" x1="636.6594" x2="636.6594" y1="337.5313" y2="350.5313"/><line style="stroke:#181818;stroke-width:1.0;" x1="595.6594" x2="636.6594" y1="350.5313" y2="350.5313"/><polygon fill="#181818" points="605.6594,346.5313,595.6594,350.5313,605.6594,354.5313,601.6594,350.5313" style="stroke:#181818;stroke-width:1.0;"/><text fill="#000000" font-family="Arial" font-size="11" font-weight="bold" lengthAdjust="spacing" textLength="6.1177" x="601.6594" y="333.2002">7</text><text fill="#000000" font-family="Arial" font-size="11" lengthAdjust="spacing" textLength="270.8643" x="611.7771" y="333.2002">parseHeader(String line, Map&lt;String,AreaCode&gt;) : void</text><polygon fill="#181818" points="1159.0977,377.8203,1169.0977,381.8203,1159.0977,385.8203,1163.0977,381.8203" style="stroke:#181818;stroke-width:1.0;"/><line style="stroke:#181818;stroke-width:1.0;" x1="594.6594" x2="1165.0977" y1="381.8203" y2="381.8203"/><text fill="#000000" font-family="Arial" font-size="11" font-weight="bold" lengthAdjust="spacing" textLength="6.1177" x="759.5079" y="377.4893">8</text><text fill="#000000" font-family="Arial" font-size="11" lengthAdjust="spacing" textLength="236.6235" x="769.6256" y="377.4893">ofIdentity(AreaCode) : Optional&lt;AirControlArea&gt;</text><polygon fill="#181818" points="600.6594,404.1094,590.6594,408.1094,600.6594,412.1094,596.6594,408.1094" style="stroke:#181818;stroke-width:1.0;"/><line style="stroke:#181818;stroke-width:1.0;stroke-dasharray:2.0,2.0;" x1="594.6594" x2="1175.0977" y1="408.1094" y2="408.1094"/><text fill="#000000" font-family="Arial" font-size="11" font-weight="bold" lengthAdjust="spacing" textLength="6.1177" x="813.9413" y="403.7783">9</text><text fill="#000000" font-family="Arial" font-size="11" lengthAdjust="spacing" textLength="127.7568" x="824.059" y="403.7783">AirControlArea (or throws)</text><line style="stroke:#000000;stroke-width:1.0;stroke-dasharray:2.0,2.0;" x1="463.5991" x2="1461.4255" y1="417.1094" y2="417.1094"/><text fill="#000000" font-family="Arial" font-size="11" font-weight="bold" lengthAdjust="spacing" textLength="51.9492" x="468.5991" y="427.0674">[data line]</text><line style="stroke:#181818;stroke-width:1.0;" x1="589.6594" x2="631.6594" y1="448.6875" y2="448.6875"/><line style="stroke:#181818;stroke-width:1.0;" x1="631.6594" x2="631.6594" y1="448.6875" y2="461.6875"/><line style="stroke:#181818;stroke-width:1.0;" x1="590.6594" x2="631.6594" y1="461.6875" y2="461.6875"/><polygon fill="#181818" points="600.6594,457.6875,590.6594,461.6875,600.6594,465.6875,596.6594,461.6875" style="stroke:#181818;stroke-width:1.0;"/><text fill="#000000" font-family="Arial" font-size="11" font-weight="bold" lengthAdjust="spacing" textLength="12.2354" x="596.6594" y="444.3564">10</text><text fill="#000000" font-family="Arial" font-size="11" lengthAdjust="spacing" textLength="361.3457" x="612.8948" y="444.3564">parseLine(String line, int lineNum, Map&lt;String,AreaCode&gt;) : WeatherData</text><polygon fill="#181818" points="1347.2048,483.9766,1357.2048,487.9766,1347.2048,491.9766,1351.2048,487.9766" style="stroke:#181818;stroke-width:1.0;"/><line style="stroke:#181818;stroke-width:1.0;" x1="589.6594" x2="1353.2048" y1="487.9766" y2="487.9766"/><text fill="#000000" font-family="Arial" font-size="11" font-weight="bold" lengthAdjust="spacing" textLength="12.2354" x="903.9561" y="483.6455">11</text><text fill="#000000" font-family="Arial" font-size="11" lengthAdjust="spacing" textLength="124.7168" x="920.1914" y="483.6455">save(WeatherData) : void</text><polygon fill="#181818" points="600.6594,510.2656,590.6594,514.2656,600.6594,518.2656,596.6594,514.2656" style="stroke:#181818;stroke-width:1.0;"/><line style="stroke:#181818;stroke-width:1.0;stroke-dasharray:2.0,2.0;" x1="594.6594" x2="1363.2048" y1="514.2656" y2="514.2656"/><text fill="#000000" font-family="Arial" font-size="11" font-weight="bold" lengthAdjust="spacing" textLength="12.2354" x="967.2864" y="509.9346">12</text><text fill="#000000" font-family="Arial" font-size="11" lengthAdjust="spacing" textLength="3.0562" x="983.5217" y="509.9346">&#160;</text><line style="stroke:#181818;stroke-width:1.0;" x1="589.6594" x2="631.6594" y1="540.5547" y2="540.5547"/><line style="stroke:#181818;stroke-width:1.0;" x1="631.6594" x2="631.6594" y1="540.5547" y2="553.5547"/><line style="stroke:#181818;stroke-width:1.0;" x1="590.6594" x2="631.6594" y1="553.5547" y2="553.5547"/><polygon fill="#181818" points="600.6594,549.5547,590.6594,553.5547,600.6594,557.5547,596.6594,553.5547" style="stroke:#181818;stroke-width:1.0;"/><text fill="#000000" font-family="Arial" font-size="11" font-weight="bold" lengthAdjust="spacing" textLength="12.2354" x="596.6594" y="536.2236">13</text><text fill="#000000" font-family="Arial" font-size="11" lengthAdjust="spacing" textLength="55.6445" x="612.8948" y="536.2236">imported++</text><polygon fill="#181818" points="267.9797,589.8438,257.9797,593.8438,267.9797,597.8438,263.9797,593.8438" style="stroke:#181818;stroke-width:1.0;"/><line style="stroke:#181818;stroke-width:1.0;stroke-dasharray:2.0,2.0;" x1="261.9797" x2="583.6594" y1="593.8438" y2="593.8438"/><text fill="#000000" font-family="Arial" font-size="11" font-weight="bold" lengthAdjust="spacing" textLength="12.2354" x="271.4797" y="589.5127">14</text><text fill="#000000" font-family="Arial" font-size="11" lengthAdjust="spacing" textLength="282.4443" x="287.7151" y="589.5127">ImportResult(imported:int, skipped:int, errors:List&lt;String&gt;)</text><polygon fill="#181818" points="57.2126,616.1328,47.2126,620.1328,57.2126,624.1328,53.2126,620.1328" style="stroke:#181818;stroke-width:1.0;"/><line style="stroke:#181818;stroke-width:1.0;stroke-dasharray:2.0,2.0;" x1="51.2126" x2="250.9797" y1="620.1328" y2="620.1328"/><text fill="#000000" font-family="Arial" font-size="11" font-weight="bold" lengthAdjust="spacing" textLength="12.2354" x="80.1589" y="615.8018">15</text><text fill="#000000" font-family="Arial" font-size="11" lengthAdjust="spacing" textLength="121.6392" x="96.3943" y="615.8018">displays import summary</text><!--SRC=[ZPJFRXen4CRlVehHzX2Y42c9UbeX94eJ9LB-86YQIwNAtHt0mckxjfU8dFeGVS8-ISVs0Wk4gdj1x7X-Czytu_N2IuJdoSN7A_ZpwpVSLKPR3vzgkO0Nv7wE5Zvppnbp2w4Cjxm2XpzhL0K-e7DyXWCfPWeAL1vjwrI9KrvBVwELV-GLmi0ABj-FJyGRmkLbApZYrej26AxyY9UbK3Eukc2Crrwhklf1XHWllBQGDKsEq3gjCk0EOe2PBG6oFCaAgfhpGTFpNGRqK4ej83szdh7eI0htGgj-_tymGr9WjPHeO_d2MqaSRemKnVkOGUtdsegt69sWNOe2iwQ38832RwcRAPc1hzek3Xd2DeK75laOZNQ2TA-oXb74Tr4HMIES3nCxeBHax28InKO4758Qzy_xmRgSDa9YuHranzOd2mbYoJrI0cEKHAc9aLCLsYT7wLD1ksWeQmzlh5wA4ji76aGqEmSHozvONGtTiZEY0r2uPVWzfMXgQeoErctRHqXbB092Bz7p752vsc8O42r1c1-MpmxjBNS3jNgQTbwk1rzkhyVVHzVZoTDZe2-rABVKo669Tjuqo4hSYpEfjO4fIQJ87AHG24B1SFALHUUbJ- -SfsavU1KawEJ32Mjs1DPTD_9ffWvlaPTeEnDlmsq9wLruuAQNNdJ3bWnrYVrDpslOhYFx9TQBb8EUtfN15B_gh661zMJ25dFPszt8_Y6_GRK22Ns-LRBBW0uvvETMlxhJJLRRp3rWAxJHWj8XbBI2qP9_EdXF1tRz4oeDuh6kZflPkaCR_44TcpnqV8cTLiBnOTYsCDkswJsvEwUFYKot1Ckpi-ICIcML3W0nc_imP0LehRRKwa8O4mvtlwdu2kX3Z2LuJPOupq9wSttMzxHzqJhhQZcPs5tJqf-8S_azOHf7-wTiVtZnXhU-4gLmHlALQsI0gwkAsrKxZpujVm40]--></g></svg>