<?xml version="1.0" encoding="UTF-8" standalone="no"?><svg xmlns="http://www.w3.org/2000/svg" xmlns:xlink="http://www.w3.org/1999/xlink" contentScriptType="application/ecmascript" contentStyleType="text/css" height="436px" preserveAspectRatio="none" style="width:1139px;height:436px;" version="1.1" viewBox="0 0 1139 436" width="1139px" zoomAndPan="magnify"><defs><filter height="300%" id="f1i1234jrlmsro" width="300%" x="-1" y="-1"><feGaussianBlur result="blurOut" stdDeviation="2.0"/><feColorMatrix in="blurOut" result="blurOut2" type="matrix" values="0 0 0 0 0 0 0 0 0 0 0 0 0 0 0 0 0 0 .4 0"/><feOffset dx="4.0" dy="4.0" in="blurOut2" result="blurOut3"/><feBlend in="SourceGraphic" in2="blurOut3" mode="normal"/></filter></defs><g><!--MD5=[04148fcea1eaedd3120ec94b908891f7]
cluster eapli.exemplo.utentemanagement.application--><polygon fill="#FFFFFF" filter="url(#f1i1234jrlmsro)" points="16,6,346,6,353,28.4883,1117,28.4883,1117,407.33,16,407.33,16,6" style="stroke: #000000; stroke-width: 1.5;"/><line style="stroke: #000000; stroke-width: 1.5;" x1="16" x2="353" y1="28.4883" y2="28.4883"/><text fill="#000000" font-family="sans-serif" font-size="14" font-weight="bold" lengthAdjust="spacingAndGlyphs" textLength="324" x="20" y="21.5352">eapli.exemplo.utentemanagement.application</text><!--MD5=[750985377e3490da5d6a8e593a0bc167]
class eapli.exemplo.utentemanagement.application.ListExemploUtenteController--><a href="ListExemploUtenteController.html" target="_top" title="ListExemploUtenteController.html" xlink:actuate="onRequest" xlink:href="ListExemploUtenteController.html" xlink:show="new" xlink:title="ListExemploUtenteController.html" xlink:type="simple"><rect codeLine="3" fill="#FEFECE" filter="url(#f1i1234jrlmsro)" height="86.8652" id="eapli.exemplo.utentemanagement.application.ListExemploUtenteController" style="stroke: #A80036; stroke-width: 1.5;" width="245" x="46.5" y="47.48"/><ellipse cx="84.45" cy="63.48" fill="#ADD1B2" rx="11" ry="11" style="stroke: #A80036; stroke-width: 1.0;"/><path d="M86.9231,69.6231 Q86.3421,69.9219 85.7029,70.0713 Q85.0638,70.2207 84.3582,70.2207 Q81.8514,70.2207 80.5315,68.5689 Q79.2117,66.917 79.2117,63.7959 Q79.2117,60.6665 80.5315,59.0147 Q81.8514,57.3628 84.3582,57.3628 Q85.0638,57.3628 85.7112,57.5122 Q86.3587,57.6616 86.9231,57.9605 L86.9231,60.6831 Q86.2923,60.1021 85.6988,59.8323 Q85.1053,59.5625 84.4744,59.5625 Q83.1297,59.5625 82.4449,60.6292 Q81.7601,61.6958 81.7601,63.7959 Q81.7601,65.8877 82.4449,66.9544 Q83.1297,68.021 84.4744,68.021 Q85.1053,68.021 85.6988,67.7512 Q86.2923,67.4815 86.9231,66.9004 Z "/><text fill="#000000" font-family="sans-serif" font-size="12" lengthAdjust="spacingAndGlyphs" textLength="162" x="103.55" y="68.0152">ListExemploUtenteController</text><line style="stroke: #A80036; stroke-width: 1.5;" x1="47.5" x2="290.5" y1="79.48" y2="79.48"/><rect fill="none" height="6" style="stroke: #C82930; stroke-width: 1.0;" width="6" x="54.5" y="87.48"/><text fill="#000000" font-family="sans-serif" font-size="11" lengthAdjust="spacingAndGlyphs" textLength="148" x="66.5" y="94.1148">authz: AuthorizationService</text><rect fill="none" height="6" style="stroke: #C82930; stroke-width: 1.0;" width="6" x="54.5" y="100.4351"/><text fill="#000000" font-family="sans-serif" font-size="11" lengthAdjust="spacingAndGlyphs" textLength="124" x="66.5" y="107.0698">repo: UtenteRepository</text><line style="stroke: #A80036; stroke-width: 1.5;" x1="47.5" x2="290.5" y1="113.3902" y2="113.3902"/><ellipse cx="57.5" cy="124.3902" fill="#84BE84" rx="3" ry="3" style="stroke: #038048; stroke-width: 1.0;"/><text fill="#000000" font-family="sans-serif" font-size="11" lengthAdjust="spacingAndGlyphs" textLength="219" x="66.5" y="128.0249">activeExemploUtente(): Iterable&lt;Utente&gt;</text></a><!--MD5=[5324bba10ba7573e0d71eacbbe19f603]
class eapli.exemplo.utentemanagement.application.AcceptRefuseSignupRequestControllerEventfullImpl--><a href="AcceptRefuseSignupRequestControllerEventfullImpl.html" target="_top" title="AcceptRefuseSignupRequestControllerEventfullImpl.html" xlink:actuate="onRequest" xlink:href="AcceptRefuseSignupRequestControllerEventfullImpl.html" xlink:show="new" xlink:title="AcceptRefuseSignupRequestControllerEventfullImpl.html" xlink:type="simple"><rect codeLine="9" fill="#FEFECE" filter="url(#f1i1234jrlmsro)" height="138.6855" id="eapli.exemplo.utentemanagement.application.AcceptRefuseSignupRequestControllerEventfullImpl" style="stroke: #A80036; stroke-width: 1.5;" width="371" x="341.5" y="226.73"/><ellipse cx="377.65" cy="242.73" fill="#ADD1B2" rx="11" ry="11" style="stroke: #A80036; stroke-width: 1.0;"/><path d="M380.1231,248.8731 Q379.5421,249.1719 378.9029,249.3213 Q378.2638,249.4707 377.5582,249.4707 Q375.0514,249.4707 373.7315,247.8189 Q372.4117,246.167 372.4117,243.0459 Q372.4117,239.9165 373.7315,238.2647 Q375.0514,236.6128 377.5582,236.6128 Q378.2638,236.6128 378.9112,236.7622 Q379.5587,236.9116 380.1231,237.2105 L380.1231,239.9331 Q379.4923,239.3521 378.8988,239.0823 Q378.3053,238.8125 377.6744,238.8125 Q376.3297,238.8125 375.6449,239.8792 Q374.9601,240.9458 374.9601,243.0459 Q374.9601,245.1377 375.6449,246.2044 Q376.3297,247.271 377.6744,247.271 Q378.3053,247.271 378.8988,247.0012 Q379.4923,246.7315 380.1231,246.1504 Z "/><text fill="#000000" font-family="sans-serif" font-size="12" lengthAdjust="spacingAndGlyphs" textLength="292" x="396.35" y="247.2652">AcceptRefuseSignupRequestControllerEventfullImpl</text><line style="stroke: #A80036; stroke-width: 1.5;" x1="342.5" x2="711.5" y1="258.73" y2="258.73"/><rect fill="none" height="6" style="stroke: #C82930; stroke-width: 1.0;" width="6" x="349.5" y="266.73"/><text fill="#000000" font-family="sans-serif" font-size="11" lengthAdjust="spacingAndGlyphs" textLength="288" x="361.5" y="273.3648">signupRequestsRepository: SignupRequestRepository</text><rect fill="none" height="6" style="stroke: #C82930; stroke-width: 1.0;" width="6" x="349.5" y="279.6851"/><text fill="#000000" font-family="sans-serif" font-size="11" lengthAdjust="spacingAndGlyphs" textLength="228" x="361.5" y="286.3198">authorizationService: AuthorizationService</text><rect fill="none" height="6" style="stroke: #C82930; stroke-width: 1.0;" width="6" x="349.5" y="292.6402"/><text fill="#000000" font-family="sans-serif" font-size="11" lengthAdjust="spacingAndGlyphs" textLength="142" x="361.5" y="299.2749">dispatcher: EventPublisher</text><line style="stroke: #A80036; stroke-width: 1.5;" x1="342.5" x2="711.5" y1="305.5952" y2="305.5952"/><ellipse cx="352.5" cy="316.5952" fill="#84BE84" rx="3" ry="3" style="stroke: #038048; stroke-width: 1.0;"/><text fill="#000000" font-family="sans-serif" font-size="11" lengthAdjust="spacingAndGlyphs" textLength="289" x="361.5" y="320.23">acceptSignupRequest(SignupRequest): SignupRequest</text><rect fill="#F24D5C" height="6" style="stroke: #C82930; stroke-width: 1.0;" width="6" x="349.5" y="326.5503"/><text fill="#000000" font-family="sans-serif" font-size="11" lengthAdjust="spacingAndGlyphs" textLength="345" x="361.5" y="333.1851">markSignupRequestAsAccepted(SignupRequest): SignupRequest</text><ellipse cx="352.5" cy="342.5054" fill="#84BE84" rx="3" ry="3" style="stroke: #038048; stroke-width: 1.0;"/><text fill="#000000" font-family="sans-serif" font-size="11" lengthAdjust="spacingAndGlyphs" textLength="288" x="361.5" y="346.1402">refuseSignupRequest(SignupRequest): SignupRequest</text><ellipse cx="352.5" cy="355.4605" fill="#84BE84" rx="3" ry="3" style="stroke: #038048; stroke-width: 1.0;"/><text fill="#000000" font-family="sans-serif" font-size="11" lengthAdjust="spacingAndGlyphs" textLength="297" x="361.5" y="359.0952">listPendingSignupRequests(): Iterable&lt;SignupRequest&gt;</text></a><!--MD5=[4e6e7f9922eba9f0c7c687bfe4f2827f]
class eapli.exemplo.utentemanagement.application.AcceptRefuseSignupRequestController--><a href="AcceptRefuseSignupRequestController.html" target="_top" title="AcceptRefuseSignupRequestController.html" xlink:actuate="onRequest" xlink:href="AcceptRefuseSignupRequestController.html" xlink:show="new" xlink:title="AcceptRefuseSignupRequestController.html" xlink:type="simple"><rect codeLine="19" fill="#FEFECE" filter="url(#f1i1234jrlmsro)" height="86.8652" id="eapli.exemplo.utentemanagement.application.AcceptRefuseSignupRequestController" style="stroke: #A80036; stroke-width: 1.5;" width="323" x="742.5" y="47.48"/><ellipse cx="790.25" cy="63.48" fill="#B4A7E5" rx="11" ry="11" style="stroke: #A80036; stroke-width: 1.0;"/><path d="M786.6777,59.7451 L786.6777,57.5869 L794.0571,57.5869 L794.0571,59.7451 L791.5918,59.7451 L791.5918,67.8218 L794.0571,67.8218 L794.0571,69.98 L786.6777,69.98 L786.6777,67.8218 L789.1431,67.8218 L789.1431,59.7451 Z "/><text fill="#000000" font-family="sans-serif" font-size="12" font-style="italic" lengthAdjust="spacingAndGlyphs" textLength="219" x="810.75" y="68.0152">AcceptRefuseSignupRequestController</text><line style="stroke: #A80036; stroke-width: 1.5;" x1="743.5" x2="1064.5" y1="79.48" y2="79.48"/><line style="stroke: #A80036; stroke-width: 1.5;" x1="743.5" x2="1064.5" y1="87.48" y2="87.48"/><ellipse cx="753.5" cy="98.48" fill="#84BE84" rx="3" ry="3" style="stroke: #038048; stroke-width: 1.0;"/><text fill="#000000" font-family="sans-serif" font-size="11" font-style="italic" lengthAdjust="spacingAndGlyphs" textLength="289" x="762.5" y="102.1148">acceptSignupRequest(SignupRequest): SignupRequest</text><ellipse cx="753.5" cy="111.4351" fill="#84BE84" rx="3" ry="3" style="stroke: #038048; stroke-width: 1.0;"/><text fill="#000000" font-family="sans-serif" font-size="11" font-style="italic" lengthAdjust="spacingAndGlyphs" textLength="288" x="762.5" y="115.0698">refuseSignupRequest(SignupRequest): SignupRequest</text><ellipse cx="753.5" cy="124.3902" fill="#84BE84" rx="3" ry="3" style="stroke: #038048; stroke-width: 1.0;"/><text fill="#000000" font-family="sans-serif" font-size="11" font-style="italic" lengthAdjust="spacingAndGlyphs" textLength="297" x="762.5" y="128.0249">listPendingSignupRequests(): Iterable&lt;SignupRequest&gt;</text></a><!--MD5=[bdf4f6283faa6a541ecef32d7c27fe40]
class eapli.exemplo.utentemanagement.application.UtenteService--><a href="UtenteService.html" target="_top" title="UtenteService.html" xlink:actuate="onRequest" xlink:href="UtenteService.html" xlink:show="new" xlink:title="UtenteService.html" xlink:type="simple"><rect codeLine="25" fill="#FEFECE" filter="url(#f1i1234jrlmsro)" height="99.8203" id="eapli.exemplo.utentemanagement.application.UtenteService" style="stroke: #A80036; stroke-width: 1.5;" width="361" x="326.5" y="41"/><ellipse cx="464.25" cy="57" fill="#ADD1B2" rx="11" ry="11" style="stroke: #A80036; stroke-width: 1.0;"/><path d="M466.7231,63.1431 Q466.1421,63.4419 465.5029,63.5913 Q464.8638,63.7407 464.1582,63.7407 Q461.6514,63.7407 460.3315,62.0889 Q459.0117,60.437 459.0117,57.3159 Q459.0117,54.1865 460.3315,52.5347 Q461.6514,50.8828 464.1582,50.8828 Q464.8638,50.8828 465.5112,51.0322 Q466.1587,51.1816 466.7231,51.4805 L466.7231,54.2031 Q466.0923,53.6221 465.4988,53.3523 Q464.9053,53.0825 464.2744,53.0825 Q462.9297,53.0825 462.2449,54.1492 Q461.5601,55.2158 461.5601,57.3159 Q461.5601,59.4077 462.2449,60.4744 Q462.9297,61.541 464.2744,61.541 Q464.9053,61.541 465.4988,61.2712 Q466.0923,61.0015 466.7231,60.4204 Z "/><text fill="#000000" font-family="sans-serif" font-size="12" lengthAdjust="spacingAndGlyphs" textLength="77" x="484.75" y="61.5352">UtenteService</text><line style="stroke: #A80036; stroke-width: 1.5;" x1="327.5" x2="686.5" y1="73" y2="73"/><rect fill="none" height="6" style="stroke: #C82930; stroke-width: 1.0;" width="6" x="334.5" y="81"/><text fill="#000000" font-family="sans-serif" font-size="11" lengthAdjust="spacingAndGlyphs" textLength="148" x="346.5" y="87.6348">authz: AuthorizationService</text><rect fill="none" height="6" style="stroke: #C82930; stroke-width: 1.0;" width="6" x="334.5" y="93.9551"/><text fill="#000000" font-family="sans-serif" font-size="11" lengthAdjust="spacingAndGlyphs" textLength="124" x="346.5" y="100.5898">repo: UtenteRepository</text><line style="stroke: #A80036; stroke-width: 1.5;" x1="327.5" x2="686.5" y1="106.9102" y2="106.9102"/><ellipse cx="337.5" cy="117.9102" fill="#84BE84" rx="3" ry="3" style="stroke: #038048; stroke-width: 1.0;"/><text fill="#000000" font-family="sans-serif" font-size="11" lengthAdjust="spacingAndGlyphs" textLength="323" x="346.5" y="121.5449">findExemploUtenteByMecNumber(String): Optional&lt;Utente&gt;</text><ellipse cx="337.5" cy="130.8652" fill="#84BE84" rx="3" ry="3" style="stroke: #038048; stroke-width: 1.0;"/><text fill="#000000" font-family="sans-serif" font-size="11" lengthAdjust="spacingAndGlyphs" textLength="335" x="346.5" y="134.5">findExemploUtenteByUsername(Username): Optional&lt;Utente&gt;</text></a><!--MD5=[7c1bb6f9e082c3954f70c16b37321253]
class eapli.exemplo.utentemanagement.application.AcceptRefuseSignupFactory--><a href="AcceptRefuseSignupFactory.html" target="_top" title="AcceptRefuseSignupFactory.html" xlink:actuate="onRequest" xlink:href="AcceptRefuseSignupFactory.html" xlink:show="new" xlink:title="AcceptRefuseSignupFactory.html" xlink:type="simple"><rect codeLine="32" fill="#FEFECE" filter="url(#f1i1234jrlmsro)" height="60.9551" id="eapli.exemplo.utentemanagement.application.AcceptRefuseSignupFactory" style="stroke: #A80036; stroke-width: 1.5;" width="275" x="31.5" y="265.6"/><ellipse cx="86.25" cy="281.6" fill="#ADD1B2" rx="11" ry="11" style="stroke: #A80036; stroke-width: 1.0;"/><path d="M88.7231,287.7431 Q88.1421,288.0419 87.5029,288.1913 Q86.8638,288.3407 86.1582,288.3407 Q83.6514,288.3407 82.3315,286.6889 Q81.0117,285.037 81.0117,281.9159 Q81.0117,278.7865 82.3315,277.1347 Q83.6514,275.4828 86.1582,275.4828 Q86.8638,275.4828 87.5112,275.6322 Q88.1587,275.7816 88.7231,276.0805 L88.7231,278.8031 Q88.0923,278.2221 87.4988,277.9523 Q86.9053,277.6825 86.2744,277.6825 Q84.9297,277.6825 84.2449,278.7492 Q83.5601,279.8158 83.5601,281.9159 Q83.5601,284.0077 84.2449,285.0744 Q84.9297,286.141 86.2744,286.141 Q86.9053,286.141 87.4988,285.8712 Q88.0923,285.6015 88.7231,285.0204 Z "/><text fill="#000000" font-family="sans-serif" font-size="12" lengthAdjust="spacingAndGlyphs" textLength="157" x="106.75" y="286.1352">AcceptRefuseSignupFactory</text><line style="stroke: #A80036; stroke-width: 1.5;" x1="32.5" x2="305.5" y1="297.6" y2="297.6"/><line style="stroke: #A80036; stroke-width: 1.5;" x1="32.5" x2="305.5" y1="305.6" y2="305.6"/><ellipse cx="42.5" cy="316.6" fill="#84BE84" rx="3" ry="3" style="stroke: #038048; stroke-width: 1.0;"/><text fill="#000000" font-family="sans-serif" font-size="11" lengthAdjust="spacingAndGlyphs" text-decoration="underline" textLength="249" x="51.5" y="320.2348">build(): AcceptRefuseSignupRequestController</text></a><!--MD5=[054edd9c159ae586d7a1f758f6a33a9c]
class eapli.exemplo.utentemanagement.application.AcceptRefuseSignupRequestControllerTxImpl--><a href="AcceptRefuseSignupRequestControllerTxImpl.html" target="_top" title="AcceptRefuseSignupRequestControllerTxImpl.html" xlink:actuate="onRequest" xlink:href="AcceptRefuseSignupRequestControllerTxImpl.html" xlink:show="new" xlink:title="AcceptRefuseSignupRequestControllerTxImpl.html" xlink:type="simple"><rect codeLine="36" fill="#FEFECE" filter="url(#f1i1234jrlmsro)" height="190.5059" id="eapli.exemplo.utentemanagement.application.AcceptRefuseSignupRequestControllerTxImpl" style="stroke: #A80036; stroke-width: 1.5;" width="353" x="747.5" y="200.82"/><ellipse cx="790.4" cy="216.82" fill="#ADD1B2" rx="11" ry="11" style="stroke: #A80036; stroke-width: 1.0;"/><path d="M792.8731,222.9631 Q792.2921,223.2619 791.6529,223.4113 Q791.0138,223.5607 790.3082,223.5607 Q787.8014,223.5607 786.4815,221.9089 Q785.1617,220.257 785.1617,217.1359 Q785.1617,214.0065 786.4815,212.3547 Q787.8014,210.7028 790.3082,210.7028 Q791.0138,210.7028 791.6612,210.8522 Q792.3087,211.0016 792.8731,211.3005 L792.8731,214.0231 Q792.2423,213.4421 791.6488,213.1723 Q791.0553,212.9025 790.4244,212.9025 Q789.0797,212.9025 788.3949,213.9692 Q787.7101,215.0358 787.7101,217.1359 Q787.7101,219.2277 788.3949,220.2944 Q789.0797,221.361 790.4244,221.361 Q791.0553,221.361 791.6488,221.0912 Q792.2423,220.8215 792.8731,220.2404 Z "/><text fill="#000000" font-family="sans-serif" font-size="12" lengthAdjust="spacingAndGlyphs" textLength="259" x="810.6" y="221.3552">AcceptRefuseSignupRequestControllerTxImpl</text><line style="stroke: #A80036; stroke-width: 1.5;" x1="748.5" x2="1099.5" y1="232.82" y2="232.82"/><rect fill="none" height="6" style="stroke: #C82930; stroke-width: 1.0;" width="6" x="755.5" y="240.82"/><text fill="#000000" font-family="sans-serif" font-size="11" lengthAdjust="spacingAndGlyphs" textLength="148" x="767.5" y="247.4548">authz: AuthorizationService</text><rect fill="none" height="6" style="stroke: #C82930; stroke-width: 1.0;" width="6" x="755.5" y="253.7751"/><text fill="#000000" font-family="sans-serif" font-size="11" lengthAdjust="spacingAndGlyphs" textLength="199" x="767.5" y="260.4098">userService: UserManagementService</text><rect fill="none" height="6" style="stroke: #C82930; stroke-width: 1.0;" width="6" x="755.5" y="266.7302"/><text fill="#000000" font-family="sans-serif" font-size="11" lengthAdjust="spacingAndGlyphs" textLength="152" x="767.5" y="273.3649">txCtx: TransactionalContext</text><rect fill="none" height="6" style="stroke: #C82930; stroke-width: 1.0;" width="6" x="755.5" y="279.6852"/><text fill="#000000" font-family="sans-serif" font-size="11" lengthAdjust="spacingAndGlyphs" textLength="211" x="767.5" y="286.32">clientUserRepository: UtenteRepository</text><rect fill="none" height="6" style="stroke: #C82930; stroke-width: 1.0;" width="6" x="755.5" y="292.6403"/><text fill="#000000" font-family="sans-serif" font-size="11" lengthAdjust="spacingAndGlyphs" textLength="288" x="767.5" y="299.2751">signupRequestsRepository: SignupRequestRepository</text><line style="stroke: #A80036; stroke-width: 1.5;" x1="748.5" x2="1099.5" y1="305.5954" y2="305.5954"/><ellipse cx="758.5" cy="316.5954" fill="#84BE84" rx="3" ry="3" style="stroke: #038048; stroke-width: 1.0;"/><text fill="#000000" font-family="sans-serif" font-size="11" lengthAdjust="spacingAndGlyphs" textLength="289" x="767.5" y="320.2302">acceptSignupRequest(SignupRequest): SignupRequest</text><rect fill="#F24D5C" height="6" style="stroke: #C82930; stroke-width: 1.0;" width="6" x="755.5" y="326.5505"/><text fill="#000000" font-family="sans-serif" font-size="11" lengthAdjust="spacingAndGlyphs" textLength="309" x="767.5" y="333.1852">acceptTheSignupRequest(SignupRequest): SignupRequest</text><rect fill="#F24D5C" height="6" style="stroke: #C82930; stroke-width: 1.0;" width="6" x="755.5" y="339.5055"/><text fill="#000000" font-family="sans-serif" font-size="11" lengthAdjust="spacingAndGlyphs" textLength="254" x="767.5" y="346.1403">createUtente(SignupRequest, SystemUser): void</text><rect fill="#F24D5C" height="6" style="stroke: #C82930; stroke-width: 1.0;" width="6" x="755.5" y="352.4606"/><text fill="#000000" font-family="sans-serif" font-size="11" lengthAdjust="spacingAndGlyphs" textLength="327" x="767.5" y="359.0954">createSystemUserForClientUser(SignupRequest): SystemUser</text><ellipse cx="758.5" cy="368.4157" fill="#84BE84" rx="3" ry="3" style="stroke: #038048; stroke-width: 1.0;"/><text fill="#000000" font-family="sans-serif" font-size="11" lengthAdjust="spacingAndGlyphs" textLength="288" x="767.5" y="372.0505">refuseSignupRequest(SignupRequest): SignupRequest</text><ellipse cx="758.5" cy="381.3708" fill="#84BE84" rx="3" ry="3" style="stroke: #038048; stroke-width: 1.0;"/><text fill="#000000" font-family="sans-serif" font-size="11" lengthAdjust="spacingAndGlyphs" textLength="297" x="767.5" y="385.0055">listPendingSignupRequests(): Iterable&lt;SignupRequest&gt;</text></a><!--MD5=[8517c53d36b37ba2f6aef6b136a431a1]
reverse link eapli.exemplo.utentemanagement.application.AcceptRefuseSignupRequestController to eapli.exemplo.utentemanagement.application.AcceptRefuseSignupRequestControllerEventfullImpl--><path codeLine="50" d="M805.68,144.9 C759.53,169.77 703.95,199.72 654.6,226.32 " fill="none" id="eapli.exemplo.utentemanagement.application.AcceptRefuseSignupRequestController-backto-eapli.exemplo.utentemanagement.application.AcceptRefuseSignupRequestControllerEventfullImpl" style="stroke: #A80036; stroke-width: 1.0; stroke-dasharray: 7.0,7.0;"/><polygon fill="none" points="802.25,138.8,823.18,135.47,808.89,151.12,802.25,138.8" style="stroke: #A80036; stroke-width: 1.0;"/><!--MD5=[7f4485b5e9d47baf261e9e62e9d4df75]
reverse link eapli.exemplo.utentemanagement.application.AcceptRefuseSignupRequestController to eapli.exemplo.utentemanagement.application.AcceptRefuseSignupRequestControllerTxImpl--><path codeLine="51" d="M910.29,155.77 C911.69,170.03 913.21,185.45 914.71,200.66 " fill="none" id="eapli.exemplo.utentemanagement.application.AcceptRefuseSignupRequestController-backto-eapli.exemplo.utentemanagement.application.AcceptRefuseSignupRequestControllerTxImpl" style="stroke: #A80036; stroke-width: 1.0; stroke-dasharray: 7.0,7.0;"/><polygon fill="none" points="903.33,156.6,908.34,136.01,917.27,155.23,903.33,156.6" style="stroke: #A80036; stroke-width: 1.0;"/><!--MD5=[91d35664e307b94ae09e2ff504d6b33a]
link eapli.exemplo.utentemanagement.application.ListExemploUtenteController to eapli.exemplo.utentemanagement.application.UtenteService--><!--MD5=[59a042e575ed89c022d809e1b63aa49a]
link eapli.exemplo.utentemanagement.application.ListExemploUtenteController to eapli.exemplo.utentemanagement.application.AcceptRefuseSignupFactory--><text fill="#888888" font-family="sans-serif" font-size="10" lengthAdjust="spacingAndGlyphs" textLength="188" x="466.5" y="422.998">UMLDoclet 2.0.12, PlantUML 1.2020.16</text><!--MD5=[0ed6c7dda3381f6298140a2ada0fd539]
@startuml
    namespace eapli.exemplo.utentemanagement.application {

        class ListExemploUtenteController [[ListExemploUtenteController.html]] {
            -authz: AuthorizationService
            -repo: UtenteRepository
            +activeExemploUtente(): Iterable<Utente>
        }

        class AcceptRefuseSignupRequestControllerEventfullImpl [[AcceptRefuseSignupRequestControllerEventfullImpl.html]] {
            -signupRequestsRepository: SignupRequestRepository
            -authorizationService: AuthorizationService
            -dispatcher: EventPublisher
            +acceptSignupRequest(SignupRequest): SignupRequest
            -markSignupRequestAsAccepted(SignupRequest): SignupRequest
            +refuseSignupRequest(SignupRequest): SignupRequest
            +listPendingSignupRequests(): Iterable<SignupRequest>
        }

        interface AcceptRefuseSignupRequestController [[AcceptRefuseSignupRequestController.html]] {
            {abstract} +acceptSignupRequest(SignupRequest): SignupRequest
            {abstract} +refuseSignupRequest(SignupRequest): SignupRequest
            {abstract} +listPendingSignupRequests(): Iterable<SignupRequest>
        }

        class UtenteService [[UtenteService.html]] {
            -authz: AuthorizationService
            -repo: UtenteRepository
            +findExemploUtenteByMecNumber(String): Optional<Utente>
            +findExemploUtenteByUsername(Username): Optional<Utente>
        }

        class AcceptRefuseSignupFactory [[AcceptRefuseSignupFactory.html]] {
            {static} +build(): AcceptRefuseSignupRequestController
        }

        class AcceptRefuseSignupRequestControllerTxImpl [[AcceptRefuseSignupRequestControllerTxImpl.html]] {
            -authz: AuthorizationService
            -userService: UserManagementService
            -txCtx: TransactionalContext
            -clientUserRepository: UtenteRepository
            -signupRequestsRepository: SignupRequestRepository
            +acceptSignupRequest(SignupRequest): SignupRequest
            -acceptTheSignupRequest(SignupRequest): SignupRequest
            -createUtente(SignupRequest, SystemUser): void
            -createSystemUserForClientUser(SignupRequest): SystemUser
            +refuseSignupRequest(SignupRequest): SignupRequest
            +listPendingSignupRequests(): Iterable<SignupRequest>
        }

        AcceptRefuseSignupRequestController <|.. AcceptRefuseSignupRequestControllerEventfullImpl
        AcceptRefuseSignupRequestController <|.. AcceptRefuseSignupRequestControllerTxImpl
    }

    center footer UMLDoclet 2.0.12, PlantUML 1.2020.16
@enduml

PlantUML version 1.2020.16(Sun Aug 23 21:20:43 WEST 2020)
(APACHE source distribution)
Java Runtime: OpenJDK Runtime Environment
JVM: OpenJDK 64-Bit Server VM
Default Encoding: UTF-8
Language: en
Country: US
--></g></svg>