<?xml version="1.0" encoding="UTF-8" standalone="no"?><svg xmlns="http://www.w3.org/2000/svg" xmlns:xlink="http://www.w3.org/1999/xlink" contentScriptType="application/ecmascript" contentStyleType="text/css" height="143px" preserveAspectRatio="none" style="width:387px;height:143px;" version="1.1" viewBox="0 0 387 143" width="387px" zoomAndPan="magnify"><defs><filter height="300%" id="fg68owvsyd447" width="300%" x="-1" y="-1"><feGaussianBlur result="blurOut" stdDeviation="2.0"/><feColorMatrix in="blurOut" result="blurOut2" type="matrix" values="0 0 0 0 0 0 0 0 0 0 0 0 0 0 0 0 0 0 .4 0"/><feOffset dx="4.0" dy="4.0" in="blurOut2" result="blurOut3"/><feBlend in="SourceGraphic" in2="blurOut3" mode="normal"/></filter></defs><g><!--MD5=[bdf4f6283faa6a541ecef32d7c27fe40]
class eapli.exemplo.utentemanagement.application.UtenteService--><a href="UtenteService.html" target="_top" title="UtenteService.html" xlink:actuate="onRequest" xlink:href="UtenteService.html" xlink:show="new" xlink:title="UtenteService.html" xlink:type="simple"><rect codeLine="5" fill="#FEFECE" filter="url(#fg68owvsyd447)" height="106.0859" id="eapli.exemplo.utentemanagement.application.UtenteService" style="stroke: #A80036; stroke-width: 1.5;" width="361" x="7" y="7"/><ellipse cx="70.75" cy="26.1328" fill="#ADD1B2" rx="11" ry="11" style="stroke: #A80036; stroke-width: 1.0;"/><path d="M73.2231,32.2759 Q72.6421,32.5747 72.0029,32.7241 Q71.3638,32.8735 70.6582,32.8735 Q68.1514,32.8735 66.8315,31.2217 Q65.5117,29.5698 65.5117,26.4487 Q65.5117,23.3193 66.8315,21.6675 Q68.1514,20.0156 70.6582,20.0156 Q71.3638,20.0156 72.0112,20.165 Q72.6587,20.3145 73.2231,20.6133 L73.2231,23.3359 Q72.5923,22.7549 71.9988,22.4851 Q71.4053,22.2153 70.7744,22.2153 Q69.4297,22.2153 68.7449,23.282 Q68.0601,24.3486 68.0601,26.4487 Q68.0601,28.5405 68.7449,29.6072 Q69.4297,30.6738 70.7744,30.6738 Q71.4053,30.6738 71.9988,30.4041 Q72.5923,30.1343 73.2231,29.5532 Z "/><text fill="#000000" font-family="sans-serif" font-size="14" lengthAdjust="spacingAndGlyphs" textLength="93" x="157.25" y="25.5352">UtenteService</text><text fill="#000000" font-family="sans-serif" font-size="10" lengthAdjust="spacingAndGlyphs" textLength="225" x="91.25" y="38.1563">eapli.exemplo.utentemanagement.application</text><line style="stroke: #A80036; stroke-width: 1.5;" x1="8" x2="367" y1="45.2656" y2="45.2656"/><rect fill="none" height="6" style="stroke: #C82930; stroke-width: 1.0;" width="6" x="15" y="53.2656"/><text fill="#000000" font-family="sans-serif" font-size="11" lengthAdjust="spacingAndGlyphs" textLength="148" x="27" y="59.9004">authz: AuthorizationService</text><rect fill="none" height="6" style="stroke: #C82930; stroke-width: 1.0;" width="6" x="15" y="66.2207"/><text fill="#000000" font-family="sans-serif" font-size="11" lengthAdjust="spacingAndGlyphs" textLength="124" x="27" y="72.8555">repo: UtenteRepository</text><line style="stroke: #A80036; stroke-width: 1.5;" x1="8" x2="367" y1="79.1758" y2="79.1758"/><ellipse cx="18" cy="90.1758" fill="#84BE84" rx="3" ry="3" style="stroke: #038048; stroke-width: 1.0;"/><text fill="#000000" font-family="sans-serif" font-size="11" lengthAdjust="spacingAndGlyphs" textLength="323" x="27" y="93.8105">findExemploUtenteByMecNumber(String): Optional&lt;Utente&gt;</text><ellipse cx="18" cy="103.1309" fill="#84BE84" rx="3" ry="3" style="stroke: #038048; stroke-width: 1.0;"/><text fill="#000000" font-family="sans-serif" font-size="11" lengthAdjust="spacingAndGlyphs" textLength="335" x="27" y="106.7656">findExemploUtenteByUsername(Username): Optional&lt;Utente&gt;</text></a><text fill="#888888" font-family="sans-serif" font-size="10" lengthAdjust="spacingAndGlyphs" textLength="188" x="93.5" y="129.7539">UMLDoclet 2.0.12, PlantUML 1.2020.16</text><!--MD5=[438a7cf6d3b8035dd304788540f4a350]
@startuml
    set namespaceSeparator none
    hide empty fields
    hide empty methods

    class "<size:14>UtenteService\n<size:10>eapli.exemplo.utentemanagement.application" as eapli.exemplo.utentemanagement.application.UtenteService [[UtenteService.html]] {
        -authz: AuthorizationService
        -repo: UtenteRepository
        +findExemploUtenteByMecNumber(String): Optional<Utente>
        +findExemploUtenteByUsername(Username): Optional<Utente>
    }

    center footer UMLDoclet 2.0.12, PlantUML 1.2020.16
@enduml

PlantUML version 1.2020.16(Sun Aug 23 21:20:43 WEST 2020)
(APACHE source distribution)
Java Runtime: OpenJDK Runtime Environment
JVM: OpenJDK 64-Bit Server VM
Default Encoding: UTF-8
Language: en
Country: US
--></g></svg>