<?plantuml 1.2026.2?><svg xmlns="http://www.w3.org/2000/svg" xmlns:xlink="http://www.w3.org/1999/xlink" contentStyleType="text/css" data-diagram-type="DESCRIPTION" height="956px" preserveAspectRatio="none" style="width:743px;height:956px;background:#FFFFFF;" version="1.1" viewBox="0 0 743 956" width="743px" zoomAndPan="magnify"><title>US086 &#8212; Client-Server Architecture</title><defs/><g><g class="title" data-source-line="1"><text fill="#000000" font-family="Arial" font-size="14" font-weight="bold" lengthAdjust="spacing" textLength="238.0889" x="245.7065" y="23.1318">US086 &#8212; Client-Server Architecture</text></g><!--cluster Server--><g class="cluster" data-qualified-name="Server" data-source-line="8" id="ent0003"><rect fill="none" height="787" rx="2.5" ry="2.5" style="stroke:#181818;stroke-width:1;" width="533" x="7" y="163.0986"/><rect fill="none" height="10" style="stroke:#181818;stroke-width:1;" width="15" x="520" y="168.0986"/><rect fill="none" height="2" style="stroke:#181818;stroke-width:1;" width="4" x="518" y="170.0986"/><rect fill="none" height="2" style="stroke:#181818;stroke-width:1;" width="4" x="518" y="174.0986"/><text fill="#000000" font-family="Arial" font-size="12" font-style="italic" lengthAdjust="spacing" textLength="46.6875" x="250.1563" y="187.3545">&#171;server&#187;</text><text fill="#000000" font-family="Arial" font-size="12" font-weight="bold" lengthAdjust="spacing" textLength="136.6992" x="205.1504" y="201.1533">Main Application Server</text></g><!--cluster Controllers--><g class="cluster" data-qualified-name="Server.Controllers" data-source-line="12" id="ent0007"><rect fill="none" height="227" rx="2.5" ry="2.5" style="stroke:#181818;stroke-width:1;" width="369" x="39" y="691.0986"/><rect fill="none" height="10" style="stroke:#181818;stroke-width:1;" width="15" x="388" y="696.0986"/><rect fill="none" height="2" style="stroke:#181818;stroke-width:1;" width="4" x="386" y="698.0986"/><rect fill="none" height="2" style="stroke:#181818;stroke-width:1;" width="4" x="386" y="702.0986"/><text fill="#000000" font-family="Arial" font-size="12" font-weight="bold" lengthAdjust="spacing" textLength="92.6719" x="177.1641" y="715.3545">FCO Controllers</text></g><!--entity ServerDaemon--><g class="entity" data-qualified-name="Server.ServerDaemon" data-source-line="9" id="ent0004"><rect fill="#F1F1F1" height="57.5977" rx="2.5" ry="2.5" style="stroke:#181818;stroke-width:0.5;" width="102.6777" x="402.5" y="209.0986"/><rect fill="#F1F1F1" height="10" style="stroke:#181818;stroke-width:0.5;" width="15" x="485.1777" y="214.0986"/><rect fill="#F1F1F1" height="2" style="stroke:#181818;stroke-width:0.5;" width="4" x="483.1777" y="216.0986"/><rect fill="#F1F1F1" height="2" style="stroke:#181818;stroke-width:0.5;" width="4" x="483.1777" y="220.0986"/><text fill="#000000" font-family="Arial" font-size="12" lengthAdjust="spacing" textLength="62.6777" x="417.5" y="240.3545">TCP Server</text><text fill="#000000" font-family="Arial" font-size="12" lengthAdjust="spacing" textLength="45.3574" x="417.5" y="254.1533">Daemon</text></g><!--entity Handler--><g class="entity" data-qualified-name="Server.Handler" data-source-line="10" id="ent0005"><rect fill="#F1F1F1" height="43.7988" rx="2.5" ry="2.5" style="stroke:#181818;stroke-width:0.5;" width="136.0469" x="386" y="394.0986"/><rect fill="#F1F1F1" height="10" style="stroke:#181818;stroke-width:0.5;" width="15" x="502.0469" y="399.0986"/><rect fill="#F1F1F1" height="2" style="stroke:#181818;stroke-width:0.5;" width="4" x="500.0469" y="401.0986"/><rect fill="#F1F1F1" height="2" style="stroke:#181818;stroke-width:0.5;" width="4" x="500.0469" y="405.0986"/><text fill="#000000" font-family="Arial" font-size="12" lengthAdjust="spacing" textLength="96.0469" x="401" y="425.3545">PilotClientHandler</text></g><!--entity Service--><g class="entity" data-qualified-name="Server.Service" data-source-line="11" id="ent0006"><rect fill="#F1F1F1" height="43.7988" rx="2.5" ry="2.5" style="stroke:#181818;stroke-width:0.5;" width="145.375" x="352.5" y="564.5986"/><rect fill="#F1F1F1" height="10" style="stroke:#181818;stroke-width:0.5;" width="15" x="477.875" y="569.5986"/><rect fill="#F1F1F1" height="2" style="stroke:#181818;stroke-width:0.5;" width="4" x="475.875" y="571.5986"/><rect fill="#F1F1F1" height="2" style="stroke:#181818;stroke-width:0.5;" width="4" x="475.875" y="575.5986"/><text fill="#000000" font-family="Arial" font-size="12" lengthAdjust="spacing" textLength="105.375" x="367.5" y="595.8545">RemotePilotService</text></g><!--entity DB--><g class="entity" data-qualified-name="Server.DB" data-source-line="20" id="ent0014"><rect fill="#F1F1F1" height="43.7988" rx="2.5" ry="2.5" style="stroke:#181818;stroke-width:0.5;" width="91.3691" x="432.5" y="850.0986"/><rect fill="#F1F1F1" height="10" style="stroke:#181818;stroke-width:0.5;" width="15" x="503.8691" y="855.0986"/><rect fill="#F1F1F1" height="2" style="stroke:#181818;stroke-width:0.5;" width="4" x="501.8691" y="857.0986"/><rect fill="#F1F1F1" height="2" style="stroke:#181818;stroke-width:0.5;" width="4" x="501.8691" y="861.0986"/><text fill="#000000" font-family="Arial" font-size="12" lengthAdjust="spacing" textLength="51.3691" x="447.5" y="881.3545">Database</text></g><!--entity US072--><g class="entity" data-qualified-name="Server.Controllers.US072" data-source-line="13" id="ent0008"><rect fill="#F1F1F1" height="43.7988" rx="2.5" ry="2.5" style="stroke:#181818;stroke-width:0.5;" width="76.6914" x="63.5" y="731.0986"/><rect fill="#F1F1F1" height="10" style="stroke:#181818;stroke-width:0.5;" width="15" x="120.1914" y="736.0986"/><rect fill="#F1F1F1" height="2" style="stroke:#181818;stroke-width:0.5;" width="4" x="118.1914" y="738.0986"/><rect fill="#F1F1F1" height="2" style="stroke:#181818;stroke-width:0.5;" width="4" x="118.1914" y="742.0986"/><text fill="#000000" font-family="Arial" font-size="12" lengthAdjust="spacing" textLength="36.6914" x="78.5" y="762.3545">US072</text></g><!--entity US080--><g class="entity" data-qualified-name="Server.Controllers.US080" data-source-line="14" id="ent0009"><rect fill="#F1F1F1" height="43.7988" rx="2.5" ry="2.5" style="stroke:#181818;stroke-width:0.5;" width="76.6914" x="175.5" y="731.0986"/><rect fill="#F1F1F1" height="10" style="stroke:#181818;stroke-width:0.5;" width="15" x="232.1914" y="736.0986"/><rect fill="#F1F1F1" height="2" style="stroke:#181818;stroke-width:0.5;" width="4" x="230.1914" y="738.0986"/><rect fill="#F1F1F1" height="2" style="stroke:#181818;stroke-width:0.5;" width="4" x="230.1914" y="742.0986"/><text fill="#000000" font-family="Arial" font-size="12" lengthAdjust="spacing" textLength="36.6914" x="190.5" y="762.3545">US080</text></g><!--entity US085--><g class="entity" data-qualified-name="Server.Controllers.US085" data-source-line="15" id="ent0010"><rect fill="#F1F1F1" height="43.7988" rx="2.5" ry="2.5" style="stroke:#181818;stroke-width:0.5;" width="76.6914" x="287.5" y="731.0986"/><rect fill="#F1F1F1" height="10" style="stroke:#181818;stroke-width:0.5;" width="15" x="344.1914" y="736.0986"/><rect fill="#F1F1F1" height="2" style="stroke:#181818;stroke-width:0.5;" width="4" x="342.1914" y="738.0986"/><rect fill="#F1F1F1" height="2" style="stroke:#181818;stroke-width:0.5;" width="4" x="342.1914" y="742.0986"/><text fill="#000000" font-family="Arial" font-size="12" lengthAdjust="spacing" textLength="36.6914" x="302.5" y="762.3545">US085</text></g><!--entity US111--><g class="entity" data-qualified-name="Server.Controllers.US111" data-source-line="16" id="ent0011"><rect fill="#F1F1F1" height="43.7988" rx="2.5" ry="2.5" style="stroke:#181818;stroke-width:0.5;" width="76.6914" x="63.5" y="850.0986"/><rect fill="#F1F1F1" height="10" style="stroke:#181818;stroke-width:0.5;" width="15" x="120.1914" y="855.0986"/><rect fill="#F1F1F1" height="2" style="stroke:#181818;stroke-width:0.5;" width="4" x="118.1914" y="857.0986"/><rect fill="#F1F1F1" height="2" style="stroke:#181818;stroke-width:0.5;" width="4" x="118.1914" y="861.0986"/><text fill="#000000" font-family="Arial" font-size="12" lengthAdjust="spacing" textLength="36.6914" x="78.5" y="881.3545">US111</text></g><!--entity US112--><g class="entity" data-qualified-name="Server.Controllers.US112" data-source-line="17" id="ent0012"><rect fill="#F1F1F1" height="43.7988" rx="2.5" ry="2.5" style="stroke:#181818;stroke-width:0.5;" width="76.6914" x="175.5" y="850.0986"/><rect fill="#F1F1F1" height="10" style="stroke:#181818;stroke-width:0.5;" width="15" x="232.1914" y="855.0986"/><rect fill="#F1F1F1" height="2" style="stroke:#181818;stroke-width:0.5;" width="4" x="230.1914" y="857.0986"/><rect fill="#F1F1F1" height="2" style="stroke:#181818;stroke-width:0.5;" width="4" x="230.1914" y="861.0986"/><text fill="#000000" font-family="Arial" font-size="12" lengthAdjust="spacing" textLength="36.6914" x="190.5" y="881.3545">US112</text></g><!--entity US121--><g class="entity" data-qualified-name="Server.Controllers.US121" data-source-line="18" id="ent0013"><rect fill="#F1F1F1" height="43.7988" rx="2.5" ry="2.5" style="stroke:#181818;stroke-width:0.5;" width="76.6914" x="287.5" y="850.0986"/><rect fill="#F1F1F1" height="10" style="stroke:#181818;stroke-width:0.5;" width="15" x="344.1914" y="855.0986"/><rect fill="#F1F1F1" height="2" style="stroke:#181818;stroke-width:0.5;" width="4" x="342.1914" y="857.0986"/><rect fill="#F1F1F1" height="2" style="stroke:#181818;stroke-width:0.5;" width="4" x="342.1914" y="861.0986"/><text fill="#000000" font-family="Arial" font-size="12" lengthAdjust="spacing" textLength="36.6914" x="302.5" y="881.3545">US121</text></g><!--entity Client--><g class="entity" data-qualified-name="Client" data-source-line="6" id="ent0002"><rect fill="#F1F1F1" height="57.5977" rx="2.5" ry="2.5" style="stroke:#181818;stroke-width:0.5;" width="122.043" x="393" y="44.0986"/><rect fill="#F1F1F1" height="10" style="stroke:#181818;stroke-width:0.5;" width="15" x="495.043" y="49.0986"/><rect fill="#F1F1F1" height="2" style="stroke:#181818;stroke-width:0.5;" width="4" x="493.043" y="51.0986"/><rect fill="#F1F1F1" height="2" style="stroke:#181818;stroke-width:0.5;" width="4" x="493.043" y="55.0986"/><text fill="#000000" font-family="Arial" font-size="12" font-style="italic" lengthAdjust="spacing" textLength="41.3613" x="428.3408" y="75.3545">&#171;client&#187;</text><text fill="#000000" font-family="Arial" font-size="12" lengthAdjust="spacing" textLength="82.043" x="408" y="89.1533">Pilot Client App</text></g><!--entity Logger--><g class="entity" data-qualified-name="Logger" data-source-line="23" id="ent0015"><rect fill="#F1F1F1" height="71.3965" rx="2.5" ry="2.5" style="stroke:#181818;stroke-width:0.5;" width="136.7031" x="556.5" y="551.0986"/><rect fill="#F1F1F1" height="10" style="stroke:#181818;stroke-width:0.5;" width="15" x="673.2031" y="556.0986"/><rect fill="#F1F1F1" height="2" style="stroke:#181818;stroke-width:0.5;" width="4" x="671.2031" y="558.0986"/><rect fill="#F1F1F1" height="2" style="stroke:#181818;stroke-width:0.5;" width="4" x="671.2031" y="562.0986"/><text fill="#000000" font-family="Arial" font-size="12" font-style="italic" lengthAdjust="spacing" textLength="73.3828" x="583.1602" y="582.3545">&#171;udp_server&#187;</text><text fill="#000000" font-family="Arial" font-size="12" lengthAdjust="spacing" textLength="96.7031" x="571.5" y="596.1533">Remote Accesses</text><text fill="#000000" font-family="Arial" font-size="12" lengthAdjust="spacing" textLength="81.3867" x="571.5" y="609.9521">Logging Server</text></g><g class="entity" data-qualified-name="GMN22" data-source-line="33" id="ent0023"><path d="M557,356.0986 L557,412.0986 L522.23,416.0986 L557,420.0986 L557,476.4893 A0,0 0 0 0 557,476.4893 L736.502,476.4893 A0,0 0 0 0 736.502,476.4893 L736.502,366.0986 L726.502,356.0986 L557,356.0986 A0,0 0 0 0 557,356.0986" fill="#FEFFDD" style="stroke:#181818;stroke-width:0.5;"/><path d="M726.502,356.0986 L726.502,366.0986 L736.502,366.0986 L726.502,356.0986" fill="#FEFFDD" style="stroke:#181818;stroke-width:0.5;"/><text fill="#000000" font-family="Arial" font-size="12" lengthAdjust="spacing" textLength="106.7227" x="563" y="372.3545">Protocol: text-based</text><text fill="#000000" font-family="Arial" font-size="12" lengthAdjust="spacing" textLength="87.5918" x="563" y="386.1533">AUTH|user|pass</text><text fill="#000000" font-family="Arial" font-size="12" lengthAdjust="spacing" textLength="149.1563" x="563" y="399.9521">CREATE_FLIGHT_PLAN|...</text><text fill="#000000" font-family="Arial" font-size="12" lengthAdjust="spacing" textLength="69.3574" x="563" y="413.751">LIST_FLEET</text><text fill="#000000" font-family="Arial" font-size="12" lengthAdjust="spacing" textLength="158.502" x="563" y="427.5498">VALIDATE_FLIGHT_PLAN|...</text><text fill="#000000" font-family="Arial" font-size="12" lengthAdjust="spacing" textLength="135.8086" x="563" y="441.3486">GENERATE_REPORT|...</text><text fill="#000000" font-family="Arial" font-size="12" lengthAdjust="spacing" textLength="128.4668" x="563" y="455.1475">MONTHLY_REPORT|...</text><text fill="#000000" font-family="Arial" font-size="12" lengthAdjust="spacing" textLength="28.6641" x="563" y="468.9463">QUIT</text></g><g class="entity" data-qualified-name="GMN25" data-source-line="44" id="ent0026"><path d="M180,47.5986 L180,98.9951 A0,0 0 0 0 180,98.9951 L358.4531,98.9951 A0,0 0 0 0 358.4531,98.9951 L358.4531,77.0986 L392.66,73.0986 L358.4531,69.0986 L358.4531,57.5986 L348.4531,47.5986 L180,47.5986 A0,0 0 0 0 180,47.5986" fill="#FEFFDD" style="stroke:#181818;stroke-width:0.5;"/><path d="M348.4531,47.5986 L348.4531,57.5986 L358.4531,57.5986 L348.4531,47.5986" fill="#FEFFDD" style="stroke:#181818;stroke-width:0.5;"/><text fill="#000000" font-family="Arial" font-size="12" lengthAdjust="spacing" textLength="157.4531" x="186" y="63.8545">Standalone Java console app</text><text fill="#000000" font-family="Arial" font-size="12" lengthAdjust="spacing" textLength="108.7031" x="186" y="77.6533">No direct DB access</text><text fill="#000000" font-family="Arial" font-size="12" lengthAdjust="spacing" textLength="49.3477" x="186" y="91.4521">TCP only</text></g><!--link Client to ServerDaemon--><g class="link" data-entity-1="ent0002" data-entity-2="ent0004" data-link-type="dependency" data-source-line="25" id="lnk16"><path d="M454,102.1186 C454,131.9786 454,172.9786 454,202.8986" fill="none" id="Client-to-ServerDaemon" style="stroke:#181818;stroke-width:1;"/><polygon fill="#181818" points="454,208.8986,458,199.8986,454,203.8986,450,199.8986,454,208.8986" style="stroke:#181818;stroke-width:1;"/><text fill="#000000" font-family="Arial" font-size="12" lengthAdjust="spacing" textLength="128.0449" x="455" y="144.3545">TCP connect (Pilot port)</text></g><!--link ServerDaemon to Handler--><g class="link" data-entity-1="ent0004" data-entity-2="ent0005" data-link-type="dependency" data-source-line="26" id="lnk17"><path d="M454,267.3786 C454,302.7486 454,356.4886 454,388.0686" fill="none" id="ServerDaemon-to-Handler" style="stroke:#181818;stroke-width:1;"/><polygon fill="#181818" points="454,394.0686,458,385.0686,454,389.0686,450,385.0686,454,394.0686" style="stroke:#181818;stroke-width:1;"/><text fill="#000000" font-family="Arial" font-size="12" lengthAdjust="spacing" textLength="55.3652" x="456.3389" y="309.3545">spawn per</text><text fill="#000000" font-family="Arial" font-size="12" lengthAdjust="spacing" textLength="58.043" x="455" y="323.1533">connection</text></g><!--link Handler to Service--><g class="link" data-entity-1="ent0005" data-entity-2="ent0006" data-link-type="dependency" data-source-line="27" id="lnk18"><path d="M450.33,438.4386 C444.75,470.8486 435.2175,526.2055 429.6575,558.5155" fill="none" id="Handler-to-Service" style="stroke:#181818;stroke-width:1;"/><polygon fill="#181818" points="428.64,564.4286,434.1084,556.2374,429.488,559.5011,426.2243,554.8806,428.64,564.4286" style="stroke:#181818;stroke-width:1;"/><text fill="#000000" font-family="Arial" font-size="12" lengthAdjust="spacing" textLength="24.0059" x="439" y="518.3545">calls</text></g><!--link Service to Controllers--><g class="link" data-entity-1="ent0006" data-entity-2="ent0007" data-link-type="dependency" data-source-line="28" id="lnk19"><path d="M421.78,608.7686 C418.46,630.6336 413.1325,665.6961 408.5775,695.6686 C408.4352,696.6053 408.2936,697.5369 408.1528,698.4631 C408.1176,698.6946 408.984,692.9939 408.9489,693.2248" fill="none" id="Service-to-Controllers" style="stroke:#181818;stroke-width:1;"/><polygon fill="#181818" points="408.0474,699.1566,413.3543,690.8598,408.7987,694.2134,405.4451,689.6578,408.0474,699.1566" style="stroke:#181818;stroke-width:1;"/><text fill="#000000" font-family="Arial" font-size="12" lengthAdjust="spacing" textLength="52.043" x="415" y="664.3545">delegates</text></g><!--link Controllers to DB--><g class="link" data-entity-1="ent0007" data-entity-2="ent0014" data-link-type="dependency" data-source-line="29" id="lnk20"><path d="M408.0777,766.2105 C408.2165,766.4188 408.3568,766.6293 408.4985,766.8419 C408.7819,767.2671 409.071,767.7009 409.3656,768.143 C409.9548,769.0271 410.5661,769.9442 411.1975,770.8917 C412.4605,772.7866 413.8046,774.8032 415.2159,776.9207 C418.0384,781.1556 421.13,785.7939 424.38,790.6699 C437.38,810.1736 449.5864,828.4866 460.5814,844.9766" fill="none" id="Controllers-to-DB" style="stroke:#181818;stroke-width:1;"/><polygon fill="#181818" points="463.91,849.9686,462.2452,840.2615,461.1362,845.8086,455.5891,844.6996,463.91,849.9686" style="stroke:#181818;stroke-width:1;"/><text fill="#000000" font-family="Arial" font-size="12" lengthAdjust="spacing" textLength="22.0078" x="444" y="817.3545">JPA</text></g><!--link Handler to Logger--><g class="link" data-entity-1="ent0005" data-entity-2="ent0015" data-link-type="dependency" data-source-line="30" id="lnk21"><path d="M475.66,438.4386 C504.42,466.7786 551.2857,512.9679 585.6057,546.7779" fill="none" id="Handler-to-Logger" style="stroke:#181818;stroke-width:1;"/><polygon fill="#181818" points="589.88,550.9886,586.2758,541.823,586.3181,547.4797,580.6614,547.522,589.88,550.9886" style="stroke:#181818;stroke-width:1;"/><text fill="#000000" font-family="Arial" font-size="12" lengthAdjust="spacing" textLength="79.3652" x="555" y="518.3545">UDP datagram</text></g><?plantuml-src RLJTRjem5BxtKnnnjLs02jAs2bL8AGc5AeMCX4cJAY7FCQarOqUnwVwej8VO4-v9TfoOBX7SnT_FyV7v3bXX9OTDUdNz7lx-_WDJARYo_PHNpxo2e69Fmd9c3nKdn7mLggGLtKFET_GWxKmhkwHxZZf1vMK-5Jyv34U4CBqljSBYq4k4rDPV1K5Pzk3cXjMdoGIeyKp7ya25Sb8f6BL2AsWwT4vJVpLEt_Sl0j0oPzF4Cuygf7olLU-_k06wXhh1feivLRbq5w71VtUrQxHRNZjSGS7uQt7yxcfdqnLCSIYLbbZ7rCBMkUwxRS1SFepEiUkh2zYxCsmu75x0pkiDHqxtqcqrf9P-eQPvJ7XBNZfnD8-6W35k33UFAjP58LJHYkMGbzjsD4w1ioC-zdv_qWa0nk1YObeft3Tuq-n8gIlxbdHqpkY3G8yfwJS5fKlMMt4vo8a_NO91e9PHAGqvdHtNdlqOjrRoWbfkI1jtkl0MwViaw1Hk7eJ49amWnt4LkFg4A3UOIXHF5lIkjJ99fQrcMex1yk-sxsQR8nniildnW8CwbjGO1ARhACYYxInUtCspRH87o-DWC40YNgGPmb6KuU5J42_2oxgxQ1cj7RMEajKwy-Z3QfdDuyzTyEDcaH6kSd1D-zObtzMT-nyXG6hn3LHYyd1FdwcBo6Zyqw1bYUnIGoug5naEYTRxWAYBKYlvuxNuFm00?></g></svg>