<svg xmlns="http://www.w3.org/2000/svg" xmlns:xlink="http://www.w3.org/1999/xlink" contentStyleType="text/css" height="588px" preserveAspectRatio="none" style="width:1401px;height:588px;background:#FFFFFF;" version="1.1" viewBox="0 0 1401 588" width="1401px" zoomAndPan="magnify"><title>US112 &#8212; Monthly Report Generation</title><defs/><g><text fill="#000000" font-family="Arial" font-size="14" font-weight="bold" lengthAdjust="spacing" textLength="245.0342" x="587.2271" y="27.6738">US112 &#8212; Monthly Report Generation</text><rect fill="#FFFFFF" height="347.6875" style="stroke:#181818;stroke-width:1.0;" width="10" x="287.8066" y="144.4531"/><rect fill="#FFFFFF" height="238.0625" style="stroke:#181818;stroke-width:1.0;" width="10" x="524.2441" y="226.6719"/><rect fill="#FFFFFF" height="27.4063" style="stroke:#181818;stroke-width:1.0;" width="10" x="944.0391" y="254.0781"/><rect fill="#FFFFFF" height="50.5156" style="stroke:#181818;stroke-width:1.0;" width="10" x="1156.4395" y="332"/><rect fill="#FFFFFF" height="27.4063" style="stroke:#181818;stroke-width:1.0;" width="10" x="1347.8164" y="409.9219"/><line style="stroke:#181818;stroke-width:0.5;stroke-dasharray:5.0,5.0;" x1="65" x2="65" y1="115.0469" y2="510.1406"/><line style="stroke:#181818;stroke-width:0.5;stroke-dasharray:5.0,5.0;" x1="292.1055" x2="292.1055" y1="115.0469" y2="510.1406"/><line style="stroke:#181818;stroke-width:0.5;stroke-dasharray:5.0,5.0;" x1="528.5332" x2="528.5332" y1="115.0469" y2="510.1406"/><line style="stroke:#181818;stroke-width:0.5;stroke-dasharray:5.0,5.0;" x1="948.3438" x2="948.3438" y1="115.0469" y2="510.1406"/><line style="stroke:#181818;stroke-width:0.5;stroke-dasharray:5.0,5.0;" x1="1160.7344" x2="1160.7344" y1="115.0469" y2="510.1406"/><line style="stroke:#181818;stroke-width:0.5;stroke-dasharray:5.0,5.0;" x1="1352.1445" x2="1352.1445" y1="115.0469" y2="510.1406"/><text fill="#000000" font-family="Arial" font-size="12" lengthAdjust="spacing" textLength="115.3828" x="5" y="112.5039">FlightControlOperator</text><ellipse cx="65.6914" cy="50.1406" fill="#E2E2F0" rx="8" ry="8" style="stroke:#181818;stroke-width:0.5;"/><path d="M65.6914,58.1406 L65.6914,85.1406 M52.6914,66.1406 L78.6914,66.1406 M65.6914,85.1406 L52.6914,100.1406 M65.6914,85.1406 L78.6914,100.1406 " fill="none" style="stroke:#181818;stroke-width:0.5;"/><text fill="#000000" font-family="Arial" font-size="12" lengthAdjust="spacing" textLength="115.3828" x="5" y="520.0039">FlightControlOperator</text><ellipse cx="65.6914" cy="531.0469" fill="#E2E2F0" rx="8" ry="8" style="stroke:#181818;stroke-width:0.5;"/><path d="M65.6914,539.0469 L65.6914,566.0469 M52.6914,547.0469 L78.6914,547.0469 M65.6914,566.0469 L52.6914,581.0469 M65.6914,566.0469 L78.6914,581.0469 " fill="none" style="stroke:#181818;stroke-width:0.5;"/><rect fill="#E2E2F0" height="40.8125" rx="2.5" ry="2.5" style="stroke:#181818;stroke-width:0.5;" width="157.4023" x="214.1055" y="73.2344"/><text fill="#000000" font-family="Arial" font-size="12" font-style="italic" lengthAdjust="spacing" textLength="79.3945" x="253.1094" y="91.0977">&#171;presentation&#187;</text><text fill="#000000" font-family="Arial" font-size="12" lengthAdjust="spacing" textLength="143.4023" x="221.1055" y="104.5039">:GenerateMonthlyReportUI</text><rect fill="#E2E2F0" height="40.8125" rx="2.5" ry="2.5" style="stroke:#181818;stroke-width:0.5;" width="157.4023" x="214.1055" y="509.1406"/><text fill="#000000" font-family="Arial" font-size="12" font-style="italic" lengthAdjust="spacing" textLength="79.3945" x="253.1094" y="527.0039">&#171;presentation&#187;</text><text fill="#000000" font-family="Arial" font-size="12" lengthAdjust="spacing" textLength="143.4023" x="221.1055" y="540.4102">:GenerateMonthlyReportUI</text><rect fill="#E2E2F0" height="40.8125" rx="2.5" ry="2.5" style="stroke:#181818;stroke-width:0.5;" width="197.4219" x="430.5332" y="73.2344"/><text fill="#000000" font-family="Arial" font-size="12" font-style="italic" lengthAdjust="spacing" textLength="70.7227" x="493.8828" y="91.0977">&#171;application&#187;</text><text fill="#000000" font-family="Arial" font-size="12" lengthAdjust="spacing" textLength="183.4219" x="437.5332" y="104.5039">:GenerateMonthlyReportController</text><rect fill="#E2E2F0" height="40.8125" rx="2.5" ry="2.5" style="stroke:#181818;stroke-width:0.5;" width="197.4219" x="430.5332" y="509.1406"/><text fill="#000000" font-family="Arial" font-size="12" font-style="italic" lengthAdjust="spacing" textLength="70.7227" x="493.8828" y="527.0039">&#171;application&#187;</text><text fill="#000000" font-family="Arial" font-size="12" lengthAdjust="spacing" textLength="183.4219" x="437.5332" y="540.4102">:GenerateMonthlyReportController</text><rect fill="#E2E2F0" height="40.8125" rx="2.5" ry="2.5" style="stroke:#181818;stroke-width:0.5;" width="127.3906" x="885.3438" y="73.2344"/><text fill="#000000" font-family="Arial" font-size="12" font-style="italic" lengthAdjust="spacing" textLength="69.3574" x="914.3604" y="91.0977">&#171;framework&#187;</text><text fill="#000000" font-family="Arial" font-size="12" lengthAdjust="spacing" textLength="113.3906" x="892.3438" y="104.5039">:AuthorizationService</text><rect fill="#E2E2F0" height="40.8125" rx="2.5" ry="2.5" style="stroke:#181818;stroke-width:0.5;" width="127.3906" x="885.3438" y="509.1406"/><text fill="#000000" font-family="Arial" font-size="12" font-style="italic" lengthAdjust="spacing" textLength="69.3574" x="914.3604" y="527.0039">&#171;framework&#187;</text><text fill="#000000" font-family="Arial" font-size="12" lengthAdjust="spacing" textLength="113.3906" x="892.3438" y="540.4102">:AuthorizationService</text><rect fill="#E2E2F0" height="40.8125" rx="2.5" ry="2.5" style="stroke:#181818;stroke-width:0.5;" width="197.4102" x="1062.7344" y="73.2344"/><text fill="#000000" font-family="Arial" font-size="12" font-style="italic" lengthAdjust="spacing" textLength="70.7227" x="1126.0781" y="91.0977">&#171;application&#187;</text><text fill="#000000" font-family="Arial" font-size="12" lengthAdjust="spacing" textLength="183.4102" x="1069.7344" y="104.5039">:MonthlyStatisticsReportGenerator</text><rect fill="#E2E2F0" height="40.8125" rx="2.5" ry="2.5" style="stroke:#181818;stroke-width:0.5;" width="197.4102" x="1062.7344" y="509.1406"/><text fill="#000000" font-family="Arial" font-size="12" font-style="italic" lengthAdjust="spacing" textLength="70.7227" x="1126.0781" y="527.0039">&#171;application&#187;</text><text fill="#000000" font-family="Arial" font-size="12" lengthAdjust="spacing" textLength="183.4102" x="1069.7344" y="540.4102">:MonthlyStatisticsReportGenerator</text><rect fill="#E2E2F0" height="40.8125" rx="2.5" ry="2.5" style="stroke:#181818;stroke-width:0.5;" width="85.3438" x="1310.1445" y="73.2344"/><text fill="#000000" font-family="Arial" font-size="12" font-style="italic" lengthAdjust="spacing" textLength="70.7227" x="1317.4551" y="91.0977">&#171;application&#187;</text><text fill="#000000" font-family="Arial" font-size="12" lengthAdjust="spacing" textLength="71.3438" x="1317.1445" y="104.5039">:ReportWriter</text><rect fill="#E2E2F0" height="40.8125" rx="2.5" ry="2.5" style="stroke:#181818;stroke-width:0.5;" width="85.3438" x="1310.1445" y="509.1406"/><text fill="#000000" font-family="Arial" font-size="12" font-style="italic" lengthAdjust="spacing" textLength="70.7227" x="1317.4551" y="527.0039">&#171;application&#187;</text><text fill="#000000" font-family="Arial" font-size="12" lengthAdjust="spacing" textLength="71.3438" x="1317.1445" y="540.4102">:ReportWriter</text><rect fill="#FFFFFF" height="347.6875" style="stroke:#181818;stroke-width:1.0;" width="10" x="287.8066" y="144.4531"/><rect fill="#FFFFFF" height="238.0625" style="stroke:#181818;stroke-width:1.0;" width="10" x="524.2441" y="226.6719"/><rect fill="#FFFFFF" height="27.4063" style="stroke:#181818;stroke-width:1.0;" width="10" x="944.0391" y="254.0781"/><rect fill="#FFFFFF" height="50.5156" style="stroke:#181818;stroke-width:1.0;" width="10" x="1156.4395" y="332"/><rect fill="#FFFFFF" height="27.4063" style="stroke:#181818;stroke-width:1.0;" width="10" x="1347.8164" y="409.9219"/><polygon fill="#181818" points="275.8066,140.4531,285.8066,144.4531,275.8066,148.4531,279.8066,144.4531" style="stroke:#181818;stroke-width:1.0;"/><line style="stroke:#181818;stroke-width:1.0;" x1="65.6914" x2="281.8066" y1="144.4531" y2="144.4531"/><text fill="#000000" font-family="Arial" font-size="12" font-weight="bold" lengthAdjust="spacing" textLength="6.6738" x="79.4434" y="139.9102">1</text><text fill="#000000" font-family="Arial" font-size="12" lengthAdjust="spacing" textLength="183.9375" x="90.1172" y="139.9102">selects "Generate Monthly Report"</text><polygon fill="#181818" points="76.6914,167.8594,66.6914,171.8594,76.6914,175.8594,72.6914,171.8594" style="stroke:#181818;stroke-width:1.0;"/><line style="stroke:#181818;stroke-width:1.0;" x1="70.6914" x2="286.8066" y1="171.8594" y2="171.8594"/><text fill="#000000" font-family="Arial" font-size="12" font-weight="bold" lengthAdjust="spacing" textLength="6.6738" x="105.04" y="167.3164">2</text><text fill="#000000" font-family="Arial" font-size="12" lengthAdjust="spacing" textLength="132.7441" x="115.7139" y="167.3164">requests month and year</text><polygon fill="#181818" points="275.8066,195.2656,285.8066,199.2656,275.8066,203.2656,279.8066,199.2656" style="stroke:#181818;stroke-width:1.0;"/><line style="stroke:#181818;stroke-width:1.0;" x1="65.6914" x2="281.8066" y1="199.2656" y2="199.2656"/><text fill="#000000" font-family="Arial" font-size="12" font-weight="bold" lengthAdjust="spacing" textLength="6.6738" x="105.374" y="194.7227">3</text><text fill="#000000" font-family="Arial" font-size="12" lengthAdjust="spacing" textLength="132.0762" x="116.0479" y="194.7227">provides month and year</text><polygon fill="#181818" points="512.2441,222.6719,522.2441,226.6719,512.2441,230.6719,516.2441,226.6719" style="stroke:#181818;stroke-width:1.0;"/><line style="stroke:#181818;stroke-width:1.0;" x1="297.8066" x2="518.2441" y1="226.6719" y2="226.6719"/><text fill="#000000" font-family="Arial" font-size="12" font-weight="bold" lengthAdjust="spacing" textLength="6.6738" x="307.3066" y="222.1289">4</text><text fill="#000000" font-family="Arial" font-size="12" lengthAdjust="spacing" textLength="196.7637" x="317.9805" y="222.1289">generateMonthlyReport(month, year)</text><polygon fill="#181818" points="932.0391,250.0781,942.0391,254.0781,932.0391,258.0781,936.0391,254.0781" style="stroke:#181818;stroke-width:1.0;"/><line style="stroke:#181818;stroke-width:1.0;" x1="534.2441" x2="938.0391" y1="254.0781" y2="254.0781"/><text fill="#000000" font-family="Arial" font-size="12" font-weight="bold" lengthAdjust="spacing" textLength="6.6738" x="543.7441" y="249.5352">5</text><text fill="#000000" font-family="Arial" font-size="12" lengthAdjust="spacing" textLength="380.1211" x="554.418" y="249.5352">ensureAuthenticatedUserHasAnyOf(FLIGHT_CONTROL_OPERATOR)</text><polygon fill="#181818" points="545.2441,277.4844,535.2441,281.4844,545.2441,285.4844,541.2441,281.4844" style="stroke:#181818;stroke-width:1.0;"/><line style="stroke:#181818;stroke-width:1.0;stroke-dasharray:2.0,2.0;" x1="539.2441" x2="948.0391" y1="281.4844" y2="281.4844"/><text fill="#000000" font-family="Arial" font-size="12" font-weight="bold" lengthAdjust="spacing" textLength="6.6738" x="734.6377" y="276.9414">6</text><text fill="#000000" font-family="Arial" font-size="12" lengthAdjust="spacing" textLength="3.334" x="745.3115" y="276.9414">&#160;</text><polygon fill="#181818" points="1144.4395,328,1154.4395,332,1144.4395,336,1148.4395,332" style="stroke:#181818;stroke-width:1.0;"/><line style="stroke:#181818;stroke-width:1.0;" x1="534.2441" x2="1150.4395" y1="332" y2="332"/><text fill="#000000" font-family="Arial" font-size="12" font-weight="bold" lengthAdjust="spacing" textLength="6.6738" x="780.6406" y="327.457">7</text><text fill="#000000" font-family="Arial" font-size="12" lengthAdjust="spacing" textLength="118.7285" x="791.3145" y="327.457">generate(month, year)</text><path d="M1171,294.4844 L1171,357.4844 L1290,357.4844 L1290,304.4844 L1280,294.4844 L1171,294.4844 " fill="#FEFFDD" style="stroke:#181818;stroke-width:0.5;"/><path d="M1280,294.4844 L1280,304.4844 L1290,304.4844 L1280,294.4844 " fill="#FEFFDD" style="stroke:#181818;stroke-width:0.5;"/><text fill="#000000" font-family="Arial" font-size="12" lengthAdjust="spacing" textLength="96.7148" x="1177" y="310.3477">Template Method:</text><text fill="#000000" font-family="Arial" font-size="12" lengthAdjust="spacing" textLength="80.6953" x="1177" y="323.7539">1. collectData()</text><text fill="#000000" font-family="Arial" font-size="12" lengthAdjust="spacing" textLength="92.7129" x="1177" y="337.1602">2. buildSections()</text><text fill="#000000" font-family="Arial" font-size="12" lengthAdjust="spacing" textLength="98.0566" x="1177" y="350.5664">3. applyBranding()</text><polygon fill="#181818" points="545.2441,378.5156,535.2441,382.5156,545.2441,386.5156,541.2441,382.5156" style="stroke:#181818;stroke-width:1.0;"/><line style="stroke:#181818;stroke-width:1.0;stroke-dasharray:2.0,2.0;" x1="539.2441" x2="1160.4395" y1="382.5156" y2="382.5156"/><text fill="#000000" font-family="Arial" font-size="12" font-weight="bold" lengthAdjust="spacing" textLength="6.6738" x="826.8311" y="377.9727">8</text><text fill="#000000" font-family="Arial" font-size="12" lengthAdjust="spacing" textLength="31.3477" x="837.5049" y="377.9727">report</text><polygon fill="#181818" points="1335.8164,405.9219,1345.8164,409.9219,1335.8164,413.9219,1339.8164,409.9219" style="stroke:#181818;stroke-width:1.0;"/><line style="stroke:#181818;stroke-width:1.0;" x1="534.2441" x2="1341.8164" y1="409.9219" y2="409.9219"/><text fill="#000000" font-family="Arial" font-size="12" font-weight="bold" lengthAdjust="spacing" textLength="6.6738" x="903.3555" y="405.3789">9</text><text fill="#000000" font-family="Arial" font-size="12" lengthAdjust="spacing" textLength="64.6758" x="914.0293" y="405.3789">write(report)</text><polygon fill="#181818" points="545.2441,433.3281,535.2441,437.3281,545.2441,441.3281,541.2441,437.3281" style="stroke:#181818;stroke-width:1.0;"/><line style="stroke:#181818;stroke-width:1.0;stroke-dasharray:2.0,2.0;" x1="539.2441" x2="1351.8164" y1="437.3281" y2="437.3281"/><text fill="#000000" font-family="Arial" font-size="12" font-weight="bold" lengthAdjust="spacing" textLength="13.3477" x="914.8438" y="432.7852">10</text><text fill="#000000" font-family="Arial" font-size="12" lengthAdjust="spacing" textLength="40.0254" x="932.1914" y="432.7852">filePath</text><polygon fill="#181818" points="308.8066,460.7344,298.8066,464.7344,308.8066,468.7344,304.8066,464.7344" style="stroke:#181818;stroke-width:1.0;"/><line style="stroke:#181818;stroke-width:1.0;stroke-dasharray:2.0,2.0;" x1="302.8066" x2="528.2441" y1="464.7344" y2="464.7344"/><text fill="#000000" font-family="Arial" font-size="12" font-weight="bold" lengthAdjust="spacing" textLength="13.3477" x="384.8389" y="460.1914">11</text><text fill="#000000" font-family="Arial" font-size="12" lengthAdjust="spacing" textLength="40.0254" x="402.1865" y="460.1914">filePath</text><polygon fill="#181818" points="76.6914,488.1406,66.6914,492.1406,76.6914,496.1406,72.6914,492.1406" style="stroke:#181818;stroke-width:1.0;"/><line style="stroke:#181818;stroke-width:1.0;stroke-dasharray:2.0,2.0;" x1="70.6914" x2="291.8066" y1="492.1406" y2="492.1406"/><text fill="#000000" font-family="Arial" font-size="12" font-weight="bold" lengthAdjust="spacing" textLength="13.3477" x="80.1914" y="487.5977">12</text><text fill="#000000" font-family="Arial" font-size="12" lengthAdjust="spacing" textLength="180.7676" x="97.5391" y="487.5977">displays confirmation and file path</text><!--SRC=[ZLFBRjim4BppAnO-sK1ZrEvD20ouQPq4I2B33_GI862ajKs48bMISc2V-X7zmdv9bnHjgRQBLYU9kpESsHqvuIJ2SZuO3E7NZv_mg9NRo1tCiDJ6mIqgDDm9hHYpRqALtF02B7wlK6NuYDRoDOwbM2l8K3aqhQuSLxoIRaACJxn061l1vUNwNEmH1iDMSSgD4vaekN9JdkT2hM7uaJ5UEQsgufKkOZnpsa1dGhTlt0sn62tJqilLfWFSGcXWPSC4dIGQmkYpjhcyxq1y25Q9myVrTMdGagymWT7eVxYY48crXimP6RbuMKgHNQOQLswZZTY7wXpDLcHur5JB8kkRVQHQqOZmNPktCwAePUubMpgtjQeeDGvcVVZwXweQ-yq8vzsSFqJr7egN3CRzN8tyG1FAZCJCMUWSfdOIjOxl5rjVg0HZX25aJP60yO6pX2uy1hZAOOVSd5nH6hqLEPvrHRAmYkHW_i-jTGFaG-ZlDKeyXB40z6h21X90PIk3VcKK3MyOywL5SyVjMEtILNVoS7zxjtYvIPyMi_JX9Pr-dOqNwQp56vXOpNSLfR4SJ-h7YvjzDVB_elZOofIcJ-F_3K8ji2Xb63fIqFBaMGtwaFcOPkuBTxpRUrR3FhnMGkPpEgCLMd_sgGz-gxlFXgP9Fs6tnnenLyrGJPXYsq8Zv6WZPYMfNxerfgMzhhFOrc9V2ObJxZPj_jWSoGyHkDHPBz5de9MeN5WQo8v-KArMmXGXjI4odWBA4mwAv6y0]--></g></svg>