<svg xmlns="http://www.w3.org/2000/svg" xmlns:xlink="http://www.w3.org/1999/xlink" contentStyleType="text/css" height="1065px" preserveAspectRatio="none" style="width:2403px;height:1065px;background:#FFFFFF;" version="1.1" viewBox="0 0 2403 1065" width="2403px" zoomAndPan="magnify"><title>US112 &#8212; Monthly Report Generation</title><defs/><g><text fill="#000000" font-family="Arial" font-size="14" font-weight="bold" lengthAdjust="spacing" textLength="245.0342" x="1088.1202" y="27.6738">US112 &#8212; Monthly Report Generation</text><rect fill="#FFFFFF" height="828.3828" style="stroke:#181818;stroke-width:1.0;" width="10" x="266.8228" y="142.2188"/><rect fill="#FFFFFF" height="644.6484" style="stroke:#181818;stroke-width:1.0;" width="10" x="571.9063" y="221.0859"/><rect fill="#FFFFFF" height="26.2891" style="stroke:#181818;stroke-width:1.0;" width="10" x="988.8159" y="247.375"/><rect fill="#FFFFFF" height="26.2891" style="stroke:#181818;stroke-width:1.0;" width="10" x="1162.5635" y="299.9531"/><rect fill="#FFFFFF" height="447.625" style="stroke:#181818;stroke-width:1.0;" width="10" x="1353.7322" y="391.8203"/><rect fill="#FFFFFF" height="26.2891" style="stroke:#181818;stroke-width:1.0;" width="10" x="1725.4758" y="418.1094"/><rect fill="#FFFFFF" height="26.2891" style="stroke:#181818;stroke-width:1.0;" width="10" x="1890.9626" y="605.8438"/><rect fill="#FFFFFF" height="26.2891" style="stroke:#181818;stroke-width:1.0;" width="10" x="2053.6995" y="658.4219"/><rect fill="#FFFFFF" height="26.2891" style="stroke:#181818;stroke-width:1.0;" width="10" x="2201.4509" y="711"/><rect fill="#FFFFFF" height="39.5781" style="stroke:#181818;stroke-width:1.0;" width="10" x="2347.9805" y="773.5781"/><rect fill="none" height="121.1563" style="stroke:#000000;stroke-width:1.5;" width="498.1355" x="1242.3403" y="459.3984"/><rect fill="none" height="53.5781" style="stroke:#000000;stroke-width:1.5;" width="478.1355" x="1252.3403" y="519.9766"/><line style="stroke:#181818;stroke-width:0.5;stroke-dasharray:5.0,5.0;" x1="60" x2="60" y1="113.9297" y2="988.6016"/><line style="stroke:#181818;stroke-width:0.5;stroke-dasharray:5.0,5.0;" x1="271.0967" x2="271.0967" y1="113.9297" y2="988.6016"/><line style="stroke:#181818;stroke-width:0.5;stroke-dasharray:5.0,5.0;" x1="576.8379" x2="576.8379" y1="113.9297" y2="988.6016"/><line style="stroke:#181818;stroke-width:0.5;stroke-dasharray:5.0,5.0;" x1="992.8452" x2="992.8452" y1="113.9297" y2="988.6016"/><line style="stroke:#181818;stroke-width:0.5;stroke-dasharray:5.0,5.0;" x1="1166.7866" x2="1166.7866" y1="113.9297" y2="988.6016"/><line style="stroke:#181818;stroke-width:0.5;stroke-dasharray:5.0,5.0;" x1="1358.3403" x2="1358.3403" y1="113.9297" y2="988.6016"/><line style="stroke:#181818;stroke-width:0.5;stroke-dasharray:5.0,5.0;" x1="1730.2097" x2="1730.2097" y1="113.9297" y2="988.6016"/><line style="stroke:#181818;stroke-width:0.5;stroke-dasharray:5.0,5.0;" x1="1895.7419" x2="1895.7419" y1="113.9297" y2="988.6016"/><line style="stroke:#181818;stroke-width:0.5;stroke-dasharray:5.0,5.0;" x1="2058.1833" x2="2058.1833" y1="113.9297" y2="988.6016"/><line style="stroke:#181818;stroke-width:0.5;stroke-dasharray:5.0,5.0;" x1="2206.2156" x2="2206.2156" y1="113.9297" y2="988.6016"/><line style="stroke:#181818;stroke-width:0.5;stroke-dasharray:5.0,5.0;" x1="2352.6863" x2="2352.6863" y1="780.0781" y2="988.6016"/><text fill="#000000" font-family="Arial" font-size="11" lengthAdjust="spacing" textLength="105.7676" x="5" y="111.5986">FlightControlOperator</text><ellipse cx="60.8838" cy="50.1406" fill="#E2E2F0" rx="8" ry="8" style="stroke:#181818;stroke-width:0.5;"/><path d="M60.8838,58.1406 L60.8838,85.1406 M47.8838,66.1406 L73.8838,66.1406 M60.8838,85.1406 L47.8838,100.1406 M60.8838,85.1406 L73.8838,100.1406 " fill="none" style="stroke:#181818;stroke-width:0.5;"/><text fill="#000000" font-family="Arial" font-size="11" lengthAdjust="spacing" textLength="105.7676" x="5" y="997.5596">FlightControlOperator</text><ellipse cx="60.8838" cy="1008.3906" fill="#E2E2F0" rx="8" ry="8" style="stroke:#181818;stroke-width:0.5;"/><path d="M60.8838,1016.3906 L60.8838,1043.3906 M47.8838,1024.3906 L73.8838,1024.3906 M60.8838,1043.3906 L47.8838,1058.3906 M60.8838,1043.3906 L73.8838,1058.3906 " fill="none" style="stroke:#181818;stroke-width:0.5;"/><rect fill="#E2E2F0" height="38.5781" rx="2.5" ry="2.5" style="stroke:#181818;stroke-width:0.5;" width="145.4521" x="199.0967" y="74.3516"/><text fill="#000000" font-family="Arial" font-size="11" font-style="italic" lengthAdjust="spacing" textLength="72.7783" x="235.4336" y="91.3096">&#171;presentation&#187;</text><text fill="#000000" font-family="Arial" font-size="11" lengthAdjust="spacing" textLength="131.4521" x="206.0967" y="103.5986">:GenerateMonthlyReportUI</text><rect fill="#E2E2F0" height="38.5781" rx="2.5" ry="2.5" style="stroke:#181818;stroke-width:0.5;" width="145.4521" x="199.0967" y="987.6016"/><text fill="#000000" font-family="Arial" font-size="11" font-style="italic" lengthAdjust="spacing" textLength="72.7783" x="235.4336" y="1004.5596">&#171;presentation&#187;</text><text fill="#000000" font-family="Arial" font-size="11" lengthAdjust="spacing" textLength="131.4521" x="206.0967" y="1016.8486">:GenerateMonthlyReportUI</text><rect fill="#E2E2F0" height="38.5781" rx="2.5" ry="2.5" style="stroke:#181818;stroke-width:0.5;" width="182.1367" x="485.8379" y="74.3516"/><text fill="#000000" font-family="Arial" font-size="11" font-style="italic" lengthAdjust="spacing" textLength="64.8291" x="544.4917" y="91.3096">&#171;application&#187;</text><text fill="#000000" font-family="Arial" font-size="11" lengthAdjust="spacing" textLength="168.1367" x="492.8379" y="103.5986">:GenerateMonthlyReportController</text><rect fill="#E2E2F0" height="38.5781" rx="2.5" ry="2.5" style="stroke:#181818;stroke-width:0.5;" width="182.1367" x="485.8379" y="987.6016"/><text fill="#000000" font-family="Arial" font-size="11" font-style="italic" lengthAdjust="spacing" textLength="64.8291" x="544.4917" y="1004.5596">&#171;application&#187;</text><text fill="#000000" font-family="Arial" font-size="11" lengthAdjust="spacing" textLength="168.1367" x="492.8379" y="1016.8486">:GenerateMonthlyReportController</text><rect fill="#E2E2F0" height="38.5781" rx="2.5" ry="2.5" style="stroke:#181818;stroke-width:0.5;" width="117.9414" x="934.8452" y="74.3516"/><text fill="#000000" font-family="Arial" font-size="11" font-style="italic" lengthAdjust="spacing" textLength="63.5776" x="962.0271" y="91.3096">&#171;framework&#187;</text><text fill="#000000" font-family="Arial" font-size="11" lengthAdjust="spacing" textLength="103.9414" x="941.8452" y="103.5986">:AuthorizationService</text><rect fill="#E2E2F0" height="38.5781" rx="2.5" ry="2.5" style="stroke:#181818;stroke-width:0.5;" width="117.9414" x="934.8452" y="987.6016"/><text fill="#000000" font-family="Arial" font-size="11" font-style="italic" lengthAdjust="spacing" textLength="63.5776" x="962.0271" y="1004.5596">&#171;framework&#187;</text><text fill="#000000" font-family="Arial" font-size="11" lengthAdjust="spacing" textLength="103.9414" x="941.8452" y="1016.8486">:AuthorizationService</text><rect fill="#E2E2F0" height="38.5781" rx="2.5" ry="2.5" style="stroke:#181818;stroke-width:0.5;" width="129.5537" x="1102.7866" y="74.3516"/><text fill="#000000" font-family="Arial" font-size="11" font-style="italic" lengthAdjust="spacing" textLength="68.4868" x="1133.3201" y="91.3096">&#171;persistence&#187;</text><text fill="#000000" font-family="Arial" font-size="11" lengthAdjust="spacing" textLength="115.5537" x="1109.7866" y="103.5986">:CollaboratorRepository</text><rect fill="#E2E2F0" height="38.5781" rx="2.5" ry="2.5" style="stroke:#181818;stroke-width:0.5;" width="129.5537" x="1102.7866" y="987.6016"/><text fill="#000000" font-family="Arial" font-size="11" font-style="italic" lengthAdjust="spacing" textLength="68.4868" x="1133.3201" y="1004.5596">&#171;persistence&#187;</text><text fill="#000000" font-family="Arial" font-size="11" lengthAdjust="spacing" textLength="115.5537" x="1109.7866" y="1016.8486">:CollaboratorRepository</text><rect fill="#E2E2F0" height="50.8672" rx="2.5" ry="2.5" style="stroke:#181818;stroke-width:0.5;" width="152.7837" x="1282.3403" y="62.0625"/><text fill="#000000" font-family="Arial" font-size="11" font-style="italic" lengthAdjust="spacing" textLength="64.8291" x="1326.3176" y="79.0205">&#171;application&#187;</text><text fill="#000000" font-family="Arial" font-size="11" lengthAdjust="spacing" textLength="39.7407" x="1338.8618" y="91.3096">provider</text><text fill="#000000" font-family="Arial" font-size="11" lengthAdjust="spacing" textLength="138.7837" x="1289.3403" y="103.5986">:MonthlyReportDataProvider</text><rect fill="#E2E2F0" height="50.8672" rx="2.5" ry="2.5" style="stroke:#181818;stroke-width:0.5;" width="152.7837" x="1282.3403" y="987.6016"/><text fill="#000000" font-family="Arial" font-size="11" font-style="italic" lengthAdjust="spacing" textLength="64.8291" x="1326.3176" y="1004.5596">&#171;application&#187;</text><text fill="#000000" font-family="Arial" font-size="11" lengthAdjust="spacing" textLength="39.7407" x="1338.8618" y="1016.8486">provider</text><text fill="#000000" font-family="Arial" font-size="11" lengthAdjust="spacing" textLength="138.7837" x="1289.3403" y="1029.1377">:MonthlyReportDataProvider</text><rect fill="#E2E2F0" height="38.5781" rx="2.5" ry="2.5" style="stroke:#181818;stroke-width:0.5;" width="96.5322" x="1682.2097" y="74.3516"/><text fill="#000000" font-family="Arial" font-size="11" font-style="italic" lengthAdjust="spacing" textLength="68.4868" x="1696.2324" y="91.3096">&#171;persistence&#187;</text><text fill="#000000" font-family="Arial" font-size="11" lengthAdjust="spacing" textLength="82.5322" x="1689.2097" y="103.5986">:FlightRepository</text><rect fill="#E2E2F0" height="38.5781" rx="2.5" ry="2.5" style="stroke:#181818;stroke-width:0.5;" width="96.5322" x="1682.2097" y="987.6016"/><text fill="#000000" font-family="Arial" font-size="11" font-style="italic" lengthAdjust="spacing" textLength="68.4868" x="1696.2324" y="1004.5596">&#171;persistence&#187;</text><text fill="#000000" font-family="Arial" font-size="11" lengthAdjust="spacing" textLength="82.5322" x="1689.2097" y="1016.8486">:FlightRepository</text><rect fill="#E2E2F0" height="38.5781" rx="2.5" ry="2.5" style="stroke:#181818;stroke-width:0.5;" width="134.4414" x="1828.7419" y="74.3516"/><text fill="#000000" font-family="Arial" font-size="11" font-style="italic" lengthAdjust="spacing" textLength="68.4868" x="1861.7192" y="91.3096">&#171;persistence&#187;</text><text fill="#000000" font-family="Arial" font-size="11" lengthAdjust="spacing" textLength="120.4414" x="1835.7419" y="103.5986">:WeatherDataRepository</text><rect fill="#E2E2F0" height="38.5781" rx="2.5" ry="2.5" style="stroke:#181818;stroke-width:0.5;" width="134.4414" x="1828.7419" y="987.6016"/><text fill="#000000" font-family="Arial" font-size="11" font-style="italic" lengthAdjust="spacing" textLength="68.4868" x="1861.7192" y="1004.5596">&#171;persistence&#187;</text><text fill="#000000" font-family="Arial" font-size="11" lengthAdjust="spacing" textLength="120.4414" x="1835.7419" y="1016.8486">:WeatherDataRepository</text><rect fill="#E2E2F0" height="38.5781" rx="2.5" ry="2.5" style="stroke:#181818;stroke-width:0.5;" width="91.0322" x="2013.1833" y="74.3516"/><text fill="#000000" font-family="Arial" font-size="11" font-style="italic" lengthAdjust="spacing" textLength="68.4868" x="2024.4561" y="91.3096">&#171;persistence&#187;</text><text fill="#000000" font-family="Arial" font-size="11" lengthAdjust="spacing" textLength="77.0322" x="2020.1833" y="103.5986">:PilotRepository</text><rect fill="#E2E2F0" height="38.5781" rx="2.5" ry="2.5" style="stroke:#181818;stroke-width:0.5;" width="91.0322" x="2013.1833" y="987.6016"/><text fill="#000000" font-family="Arial" font-size="11" font-style="italic" lengthAdjust="spacing" textLength="68.4868" x="2024.4561" y="1004.5596">&#171;persistence&#187;</text><text fill="#000000" font-family="Arial" font-size="11" lengthAdjust="spacing" textLength="77.0322" x="2020.1833" y="1016.8486">:PilotRepository</text><rect fill="#E2E2F0" height="38.5781" rx="2.5" ry="2.5" style="stroke:#181818;stroke-width:0.5;" width="104.4707" x="2154.2156" y="74.3516"/><text fill="#000000" font-family="Arial" font-size="11" font-style="italic" lengthAdjust="spacing" textLength="68.4868" x="2172.2075" y="91.3096">&#171;persistence&#187;</text><text fill="#000000" font-family="Arial" font-size="11" lengthAdjust="spacing" textLength="90.4707" x="2161.2156" y="103.5986">:AircraftRepository</text><rect fill="#E2E2F0" height="38.5781" rx="2.5" ry="2.5" style="stroke:#181818;stroke-width:0.5;" width="104.4707" x="2154.2156" y="987.6016"/><text fill="#000000" font-family="Arial" font-size="11" font-style="italic" lengthAdjust="spacing" textLength="68.4868" x="2172.2075" y="1004.5596">&#171;persistence&#187;</text><text fill="#000000" font-family="Arial" font-size="11" lengthAdjust="spacing" textLength="90.4707" x="2161.2156" y="1016.8486">:AircraftRepository</text><rect fill="#E2E2F0" height="38.5781" rx="2.5" ry="2.5" style="stroke:#181818;stroke-width:0.5;" width="88.5884" x="2308.6863" y="987.6016"/><text fill="#000000" font-family="Arial" font-size="11" font-style="italic" lengthAdjust="spacing" textLength="48.313" x="2328.824" y="1004.5596">&#171;domain&#187;</text><text fill="#000000" font-family="Arial" font-size="11" lengthAdjust="spacing" textLength="74.5884" x="2315.6863" y="1016.8486">:MonthlyReport</text><rect fill="#FFFFFF" height="828.3828" style="stroke:#181818;stroke-width:1.0;" width="10" x="266.8228" y="142.2188"/><rect fill="#FFFFFF" height="644.6484" style="stroke:#181818;stroke-width:1.0;" width="10" x="571.9063" y="221.0859"/><rect fill="#FFFFFF" height="26.2891" style="stroke:#181818;stroke-width:1.0;" width="10" x="988.8159" y="247.375"/><rect fill="#FFFFFF" height="26.2891" style="stroke:#181818;stroke-width:1.0;" width="10" x="1162.5635" y="299.9531"/><rect fill="#FFFFFF" height="447.625" style="stroke:#181818;stroke-width:1.0;" width="10" x="1353.7322" y="391.8203"/><rect fill="#FFFFFF" height="26.2891" style="stroke:#181818;stroke-width:1.0;" width="10" x="1725.4758" y="418.1094"/><rect fill="#FFFFFF" height="26.2891" style="stroke:#181818;stroke-width:1.0;" width="10" x="1890.9626" y="605.8438"/><rect fill="#FFFFFF" height="26.2891" style="stroke:#181818;stroke-width:1.0;" width="10" x="2053.6995" y="658.4219"/><rect fill="#FFFFFF" height="26.2891" style="stroke:#181818;stroke-width:1.0;" width="10" x="2201.4509" y="711"/><rect fill="#FFFFFF" height="39.5781" style="stroke:#181818;stroke-width:1.0;" width="10" x="2347.9805" y="773.5781"/><polygon fill="#181818" points="254.8228,138.2188,264.8228,142.2188,254.8228,146.2188,258.8228,142.2188" style="stroke:#181818;stroke-width:1.0;"/><line style="stroke:#181818;stroke-width:1.0;" x1="60.8838" x2="260.8228" y1="142.2188" y2="142.2188"/><text fill="#000000" font-family="Arial" font-size="11" font-weight="bold" lengthAdjust="spacing" textLength="6.1177" x="74.4897" y="137.8877">1</text><text fill="#000000" font-family="Arial" font-size="11" lengthAdjust="spacing" textLength="168.6094" x="84.6074" y="137.8877">selects "Generate Monthly Report"</text><polygon fill="#181818" points="71.8838,164.5078,61.8838,168.5078,71.8838,172.5078,67.8838,168.5078" style="stroke:#181818;stroke-width:1.0;"/><line style="stroke:#181818;stroke-width:1.0;" x1="65.8838" x2="265.8228" y1="168.5078" y2="168.5078"/><text fill="#000000" font-family="Arial" font-size="11" font-weight="bold" lengthAdjust="spacing" textLength="6.1177" x="97.9534" y="164.1768">2</text><text fill="#000000" font-family="Arial" font-size="11" lengthAdjust="spacing" textLength="121.6821" x="108.071" y="164.1768">requests month and year</text><polygon fill="#181818" points="254.8228,190.7969,264.8228,194.7969,254.8228,198.7969,258.8228,194.7969" style="stroke:#181818;stroke-width:1.0;"/><line style="stroke:#181818;stroke-width:1.0;" x1="60.8838" x2="260.8228" y1="194.7969" y2="194.7969"/><text fill="#000000" font-family="Arial" font-size="11" font-weight="bold" lengthAdjust="spacing" textLength="6.1177" x="98.2595" y="190.4658">3</text><text fill="#000000" font-family="Arial" font-size="11" lengthAdjust="spacing" textLength="121.0698" x="108.3772" y="190.4658">provides month and year</text><polygon fill="#181818" points="559.9063,217.0859,569.9063,221.0859,559.9063,225.0859,563.9063,221.0859" style="stroke:#181818;stroke-width:1.0;"/><line style="stroke:#181818;stroke-width:1.0;" x1="276.8228" x2="565.9063" y1="221.0859" y2="221.0859"/><text fill="#000000" font-family="Arial" font-size="11" font-weight="bold" lengthAdjust="spacing" textLength="6.1177" x="286.3228" y="216.7549">4</text><text fill="#000000" font-family="Arial" font-size="11" lengthAdjust="spacing" textLength="265.9658" x="296.4404" y="216.7549">generateForMonth(YearMonth period) : MonthlyReport</text><polygon fill="#181818" points="976.8159,243.375,986.8159,247.375,976.8159,251.375,980.8159,247.375" style="stroke:#181818;stroke-width:1.0;"/><line style="stroke:#181818;stroke-width:1.0;" x1="581.9063" x2="982.8159" y1="247.375" y2="247.375"/><text fill="#000000" font-family="Arial" font-size="11" font-weight="bold" lengthAdjust="spacing" textLength="6.1177" x="591.4063" y="243.0439">5</text><text fill="#000000" font-family="Arial" font-size="11" lengthAdjust="spacing" textLength="377.792" x="601.5239" y="243.0439">ensureAuthenticatedUserHasAnyOf(FLIGHT_CONTROL_OPERATOR) : void</text><polygon fill="#181818" points="592.9063,269.6641,582.9063,273.6641,592.9063,277.6641,588.9063,273.6641" style="stroke:#181818;stroke-width:1.0;"/><line style="stroke:#181818;stroke-width:1.0;stroke-dasharray:2.0,2.0;" x1="586.9063" x2="992.8159" y1="273.6641" y2="273.6641"/><text fill="#000000" font-family="Arial" font-size="11" font-weight="bold" lengthAdjust="spacing" textLength="6.1177" x="781.2742" y="269.333">6</text><text fill="#000000" font-family="Arial" font-size="11" lengthAdjust="spacing" textLength="3.0562" x="791.3918" y="269.333">&#160;</text><polygon fill="#181818" points="1150.5635,295.9531,1160.5635,299.9531,1150.5635,303.9531,1154.5635,299.9531" style="stroke:#181818;stroke-width:1.0;"/><line style="stroke:#181818;stroke-width:1.0;" x1="581.9063" x2="1156.5635" y1="299.9531" y2="299.9531"/><text fill="#000000" font-family="Arial" font-size="11" font-weight="bold" lengthAdjust="spacing" textLength="6.1177" x="726.875" y="295.6221">7</text><text fill="#000000" font-family="Arial" font-size="11" lengthAdjust="spacing" textLength="280.6021" x="736.9927" y="295.6221">findBySystemUser(SystemUser) : Optional&lt;Collaborator&gt;</text><polygon fill="#181818" points="592.9063,322.2422,582.9063,326.2422,592.9063,330.2422,588.9063,326.2422" style="stroke:#181818;stroke-width:1.0;"/><line style="stroke:#181818;stroke-width:1.0;stroke-dasharray:2.0,2.0;" x1="586.9063" x2="1166.5635" y1="326.2422" y2="326.2422"/><text fill="#000000" font-family="Arial" font-size="11" font-weight="bold" lengthAdjust="spacing" textLength="6.1177" x="840.938" y="321.9111">8</text><text fill="#000000" font-family="Arial" font-size="11" lengthAdjust="spacing" textLength="57.4761" x="851.0557" y="321.9111">collaborator</text><line style="stroke:#181818;stroke-width:1.0;" x1="581.9063" x2="623.9063" y1="352.5313" y2="352.5313"/><line style="stroke:#181818;stroke-width:1.0;" x1="623.9063" x2="623.9063" y1="352.5313" y2="365.5313"/><line style="stroke:#181818;stroke-width:1.0;" x1="582.9063" x2="623.9063" y1="365.5313" y2="365.5313"/><polygon fill="#181818" points="592.9063,361.5313,582.9063,365.5313,592.9063,369.5313,588.9063,365.5313" style="stroke:#181818;stroke-width:1.0;"/><text fill="#000000" font-family="Arial" font-size="11" font-weight="bold" lengthAdjust="spacing" textLength="6.1177" x="588.9063" y="348.2002">9</text><text fill="#000000" font-family="Arial" font-size="11" lengthAdjust="spacing" textLength="185.856" x="599.0239" y="348.2002">areaCodeOfCurrentUser() : AreaCode</text><polygon fill="#181818" points="1341.7322,387.8203,1351.7322,391.8203,1341.7322,395.8203,1345.7322,391.8203" style="stroke:#181818;stroke-width:1.0;"/><line style="stroke:#181818;stroke-width:1.0;" x1="581.9063" x2="1347.7322" y1="391.8203" y2="391.8203"/><text fill="#000000" font-family="Arial" font-size="11" font-weight="bold" lengthAdjust="spacing" textLength="12.2354" x="773.2118" y="387.4893">10</text><text fill="#000000" font-family="Arial" font-size="11" lengthAdjust="spacing" textLength="372.9795" x="789.4471" y="387.4893">generateForMonth(YearMonth period, AreaCode areaCode) : MonthlyReport</text><polygon fill="#181818" points="1713.4758,414.1094,1723.4758,418.1094,1713.4758,422.1094,1717.4758,418.1094" style="stroke:#181818;stroke-width:1.0;"/><line style="stroke:#181818;stroke-width:1.0;" x1="1363.7322" x2="1719.4758" y1="418.1094" y2="418.1094"/><text fill="#000000" font-family="Arial" font-size="11" font-weight="bold" lengthAdjust="spacing" textLength="12.2354" x="1475.041" y="413.7783">11</text><text fill="#000000" font-family="Arial" font-size="11" lengthAdjust="spacing" textLength="122.8906" x="1491.2764" y="413.7783">findAll() : Iterable&lt;Flight&gt;</text><polygon fill="#181818" points="1374.7322,440.3984,1364.7322,444.3984,1374.7322,448.3984,1370.7322,444.3984" style="stroke:#181818;stroke-width:1.0;"/><line style="stroke:#181818;stroke-width:1.0;stroke-dasharray:2.0,2.0;" x1="1368.7322" x2="1729.4758" y1="444.3984" y2="444.3984"/><text fill="#000000" font-family="Arial" font-size="11" font-weight="bold" lengthAdjust="spacing" textLength="12.2354" x="1517.5879" y="440.0674">12</text><text fill="#000000" font-family="Arial" font-size="11" lengthAdjust="spacing" textLength="42.7969" x="1533.8232" y="440.0674">all flights</text><path d="M1242.3403,459.3984 L1310.5542,459.3984 L1310.5542,463.6875 L1300.5542,473.6875 L1242.3403,473.6875 L1242.3403,459.3984 " fill="#EEEEEE" style="stroke:#000000;stroke-width:1.5;"/><rect fill="none" height="121.1563" style="stroke:#000000;stroke-width:1.5;" width="498.1355" x="1242.3403" y="459.3984"/><text fill="#000000" font-family="Arial" font-size="11" font-weight="bold" lengthAdjust="spacing" textLength="23.2139" x="1257.3403" y="470.3564">loop</text><text fill="#000000" font-family="Arial" font-size="11" font-weight="bold" lengthAdjust="spacing" textLength="129.5508" x="1325.5542" y="471.3564">[for each flight in period]</text><line style="stroke:#181818;stroke-width:1.0;" x1="1363.7322" x2="1405.7322" y1="491.9766" y2="491.9766"/><line style="stroke:#181818;stroke-width:1.0;" x1="1405.7322" x2="1405.7322" y1="491.9766" y2="504.9766"/><line style="stroke:#181818;stroke-width:1.0;" x1="1364.7322" x2="1405.7322" y1="504.9766" y2="504.9766"/><polygon fill="#181818" points="1374.7322,500.9766,1364.7322,504.9766,1374.7322,508.9766,1370.7322,504.9766" style="stroke:#181818;stroke-width:1.0;"/><text fill="#000000" font-family="Arial" font-size="11" font-weight="bold" lengthAdjust="spacing" textLength="12.2354" x="1370.7322" y="487.6455">13</text><text fill="#000000" font-family="Arial" font-size="11" lengthAdjust="spacing" textLength="133.2837" x="1386.9675" y="487.6455">count flight, flightsPerWeek</text><path d="M1252.3403,519.9766 L1320.5542,519.9766 L1320.5542,524.2656 L1310.5542,534.2656 L1252.3403,534.2656 L1252.3403,519.9766 " fill="#EEEEEE" style="stroke:#000000;stroke-width:1.5;"/><rect fill="none" height="53.5781" style="stroke:#000000;stroke-width:1.5;" width="478.1355" x="1252.3403" y="519.9766"/><text fill="#000000" font-family="Arial" font-size="11" font-weight="bold" lengthAdjust="spacing" textLength="23.2139" x="1267.3403" y="530.9346">loop</text><text fill="#000000" font-family="Arial" font-size="11" font-weight="bold" lengthAdjust="spacing" textLength="103.2808" x="1335.5542" y="531.9346">[for each flightPlan]</text><line style="stroke:#181818;stroke-width:1.0;" x1="1363.7322" x2="1405.7322" y1="552.5547" y2="552.5547"/><line style="stroke:#181818;stroke-width:1.0;" x1="1405.7322" x2="1405.7322" y1="552.5547" y2="565.5547"/><line style="stroke:#181818;stroke-width:1.0;" x1="1364.7322" x2="1405.7322" y1="565.5547" y2="565.5547"/><polygon fill="#181818" points="1374.7322,561.5547,1364.7322,565.5547,1374.7322,569.5547,1370.7322,565.5547" style="stroke:#181818;stroke-width:1.0;"/><text fill="#000000" font-family="Arial" font-size="11" font-weight="bold" lengthAdjust="spacing" textLength="12.2354" x="1370.7322" y="548.2236">14</text><text fill="#000000" font-family="Arial" font-size="11" lengthAdjust="spacing" textLength="321.5083" x="1386.9675" y="548.2236">classify status (DRAFT/IN_TEST/TEST_PASSED/TEST_FAILED)</text><polygon fill="#181818" points="1878.9626,601.8438,1888.9626,605.8438,1878.9626,609.8438,1882.9626,605.8438" style="stroke:#181818;stroke-width:1.0;"/><line style="stroke:#181818;stroke-width:1.0;" x1="1363.7322" x2="1884.9626" y1="605.8438" y2="605.8438"/><text fill="#000000" font-family="Arial" font-size="11" font-weight="bold" lengthAdjust="spacing" textLength="12.2354" x="1488.9915" y="601.5127">15</text><text fill="#000000" font-family="Arial" font-size="11" lengthAdjust="spacing" textLength="260.4766" x="1505.2268" y="601.5127">findByAreaCode(AreaCode) : Iterable&lt;WeatherData&gt;</text><polygon fill="#181818" points="1374.7322,628.1328,1364.7322,632.1328,1374.7322,636.1328,1370.7322,632.1328" style="stroke:#181818;stroke-width:1.0;"/><line style="stroke:#181818;stroke-width:1.0;stroke-dasharray:2.0,2.0;" x1="1368.7322" x2="1894.9626" y1="632.1328" y2="632.1328"/><text fill="#000000" font-family="Arial" font-size="11" font-weight="bold" lengthAdjust="spacing" textLength="12.2354" x="1569.4475" y="627.8018">16</text><text fill="#000000" font-family="Arial" font-size="11" lengthAdjust="spacing" textLength="104.5645" x="1585.6829" y="627.8018">weather data for area</text><polygon fill="#181818" points="2041.6995,654.4219,2051.6995,658.4219,2041.6995,662.4219,2045.6995,658.4219" style="stroke:#181818;stroke-width:1.0;"/><line style="stroke:#181818;stroke-width:1.0;" x1="1363.7322" x2="2047.6995" y1="658.4219" y2="658.4219"/><text fill="#000000" font-family="Arial" font-size="11" font-weight="bold" lengthAdjust="spacing" textLength="12.2354" x="1641.9028" y="654.0908">17</text><text fill="#000000" font-family="Arial" font-size="11" lengthAdjust="spacing" textLength="117.3906" x="1658.1382" y="654.0908">findAll() : Iterable&lt;Pilot&gt;</text><polygon fill="#181818" points="1374.7322,680.7109,1364.7322,684.7109,1374.7322,688.7109,1370.7322,684.7109" style="stroke:#181818;stroke-width:1.0;"/><line style="stroke:#181818;stroke-width:1.0;stroke-dasharray:2.0,2.0;" x1="1368.7322" x2="2057.6995" y1="684.7109" y2="684.7109"/><text fill="#000000" font-family="Arial" font-size="11" font-weight="bold" lengthAdjust="spacing" textLength="12.2354" x="1683.2278" y="680.3799">18</text><text fill="#000000" font-family="Arial" font-size="11" lengthAdjust="spacing" textLength="39.7407" x="1699.4631" y="680.3799">all pilots</text><polygon fill="#181818" points="2189.4509,707,2199.4509,711,2189.4509,715,2193.4509,711" style="stroke:#181818;stroke-width:1.0;"/><line style="stroke:#181818;stroke-width:1.0;" x1="1363.7322" x2="2195.4509" y1="711" y2="711"/><text fill="#000000" font-family="Arial" font-size="11" font-weight="bold" lengthAdjust="spacing" textLength="12.2354" x="1709.0593" y="706.6689">19</text><text fill="#000000" font-family="Arial" font-size="11" lengthAdjust="spacing" textLength="130.8291" x="1725.2947" y="706.6689">findAll() : Iterable&lt;Aircraft&gt;</text><polygon fill="#181818" points="1374.7322,733.2891,1364.7322,737.2891,1374.7322,741.2891,1370.7322,737.2891" style="stroke:#181818;stroke-width:1.0;"/><line style="stroke:#181818;stroke-width:1.0;stroke-dasharray:2.0,2.0;" x1="1368.7322" x2="2205.4509" y1="737.2891" y2="737.2891"/><text fill="#000000" font-family="Arial" font-size="11" font-weight="bold" lengthAdjust="spacing" textLength="12.2354" x="1753.1343" y="732.958">20</text><text fill="#000000" font-family="Arial" font-size="11" lengthAdjust="spacing" textLength="47.6792" x="1769.3696" y="732.958">all aircraft</text><polygon fill="#181818" points="2296.6863,759.5781,2306.6863,763.5781,2296.6863,767.5781,2300.6863,763.5781" style="stroke:#181818;stroke-width:1.0;"/><line style="stroke:#181818;stroke-width:1.0;" x1="1363.7322" x2="2302.6863" y1="763.5781" y2="763.5781"/><text fill="#000000" font-family="Arial" font-size="11" font-weight="bold" lengthAdjust="spacing" textLength="12.2354" x="1697.8748" y="759.2471">21</text><text fill="#000000" font-family="Arial" font-size="11" lengthAdjust="spacing" textLength="260.4336" x="1714.1101" y="759.2471">MonthlyReport(YearMonth, totals, flightsPerWeek, ...)</text><rect fill="#E2E2F0" height="38.5781" rx="2.5" ry="2.5" style="stroke:#181818;stroke-width:0.5;" width="88.5884" x="2308.6863" y="745.2891"/><text fill="#000000" font-family="Arial" font-size="11" font-style="italic" lengthAdjust="spacing" textLength="48.313" x="2328.824" y="762.2471">&#171;domain&#187;</text><text fill="#000000" font-family="Arial" font-size="11" lengthAdjust="spacing" textLength="74.5884" x="2315.6863" y="774.5361">:MonthlyReport</text><polygon fill="#181818" points="1374.7322,809.1563,1364.7322,813.1563,1374.7322,817.1563,1370.7322,813.1563" style="stroke:#181818;stroke-width:1.0;"/><line style="stroke:#181818;stroke-width:1.0;stroke-dasharray:2.0,2.0;" x1="1368.7322" x2="2351.9805" y1="813.1563" y2="813.1563"/><text fill="#000000" font-family="Arial" font-size="11" font-weight="bold" lengthAdjust="spacing" textLength="12.2354" x="1848.7106" y="808.8252">22</text><text fill="#000000" font-family="Arial" font-size="11" lengthAdjust="spacing" textLength="3.0562" x="1864.9459" y="808.8252">&#160;</text><polygon fill="#181818" points="592.9063,835.4453,582.9063,839.4453,592.9063,843.4453,588.9063,839.4453" style="stroke:#181818;stroke-width:1.0;"/><line style="stroke:#181818;stroke-width:1.0;stroke-dasharray:2.0,2.0;" x1="586.9063" x2="1357.7322" y1="839.4453" y2="839.4453"/><text fill="#000000" font-family="Arial" font-size="11" font-weight="bold" lengthAdjust="spacing" textLength="12.2354" x="926.4354" y="835.1143">23</text><text fill="#000000" font-family="Arial" font-size="11" lengthAdjust="spacing" textLength="71.5322" x="942.6708" y="835.1143">MonthlyReport</text><polygon fill="#181818" points="287.8228,861.7344,277.8228,865.7344,287.8228,869.7344,283.8228,865.7344" style="stroke:#181818;stroke-width:1.0;"/><line style="stroke:#181818;stroke-width:1.0;stroke-dasharray:2.0,2.0;" x1="281.8228" x2="575.9063" y1="865.7344" y2="865.7344"/><text fill="#000000" font-family="Arial" font-size="11" font-weight="bold" lengthAdjust="spacing" textLength="12.2354" x="382.9807" y="861.4033">24</text><text fill="#000000" font-family="Arial" font-size="11" lengthAdjust="spacing" textLength="71.5322" x="399.2161" y="861.4033">MonthlyReport</text><line style="stroke:#181818;stroke-width:1.0;" x1="276.8228" x2="318.8228" y1="892.0234" y2="892.0234"/><line style="stroke:#181818;stroke-width:1.0;" x1="318.8228" x2="318.8228" y1="892.0234" y2="905.0234"/><line style="stroke:#181818;stroke-width:1.0;" x1="277.8228" x2="318.8228" y1="905.0234" y2="905.0234"/><polygon fill="#181818" points="287.8228,901.0234,277.8228,905.0234,287.8228,909.0234,283.8228,905.0234" style="stroke:#181818;stroke-width:1.0;"/><text fill="#000000" font-family="Arial" font-size="11" font-weight="bold" lengthAdjust="spacing" textLength="12.2354" x="283.8228" y="887.6924">25</text><text fill="#000000" font-family="Arial" font-size="11" lengthAdjust="spacing" textLength="111.8906" x="300.0581" y="887.6924">prints report to console</text><line style="stroke:#181818;stroke-width:1.0;" x1="276.8228" x2="318.8228" y1="931.3125" y2="931.3125"/><line style="stroke:#181818;stroke-width:1.0;" x1="318.8228" x2="318.8228" y1="931.3125" y2="944.3125"/><line style="stroke:#181818;stroke-width:1.0;" x1="277.8228" x2="318.8228" y1="944.3125" y2="944.3125"/><polygon fill="#181818" points="287.8228,940.3125,277.8228,944.3125,287.8228,948.3125,283.8228,944.3125" style="stroke:#181818;stroke-width:1.0;"/><text fill="#000000" font-family="Arial" font-size="11" font-weight="bold" lengthAdjust="spacing" textLength="12.2354" x="283.8228" y="926.9814">26</text><text fill="#000000" font-family="Arial" font-size="11" lengthAdjust="spacing" textLength="253.6875" x="300.0581" y="926.9814">saves report to reports/monthly-report-YYYY-MM.txt</text><polygon fill="#181818" points="71.8838,966.6016,61.8838,970.6016,71.8838,974.6016,67.8838,970.6016" style="stroke:#181818;stroke-width:1.0;"/><line style="stroke:#181818;stroke-width:1.0;stroke-dasharray:2.0,2.0;" x1="65.8838" x2="270.8228" y1="970.6016" y2="970.6016"/><text fill="#000000" font-family="Arial" font-size="11" font-weight="bold" lengthAdjust="spacing" textLength="12.2354" x="75.3838" y="966.2705">27</text><text fill="#000000" font-family="Arial" font-size="11" lengthAdjust="spacing" textLength="165.7036" x="91.6191" y="966.2705">displays confirmation and file path</text><!--SRC=[ZLRTJkCw4BxtKrYzAXA5PIyhX9G3TBSIqAejMgrq96II2RLmxQpjb5EkpaFi4vudEUEV94ufB9L0YMQ-RxwPyOnZkHL0xvTdPr_fV__-fhTAshNOqGLKIblw3IHePhcIX9XdBYkcsOOQ-5M3pE4MZ65Fa0d-96aEqe9El0eeMIti11dls0PefZaJX-rB_Whqx2mnpfcsFESLatREYeBB9_hr2o6ijahMcqSCH5XkbQQ32KPVsqjaqKhCAYTNwG5bXde7KdLCT32E2K7CCwHvFntG-4DOpPkNy_DAWy6yV0KkBZx35OK821fogqNaObKbU7wOAgljMcd-wgrBq5kUGwifoCBKrw-HgiGImOlIps-8BZ4qUrI-24wGuVYm6wH4kNTnHfSWQCEDTTtSvwgqsl82zDzotClmYbasZpQVO-FuXnn3emw9QgMLhSl7qiO_WDarQ2Vb825olHIU9xJn0wev5-e3LJx1nkKFL1dNkMRbksp-J7vELQ_YRpHvAXr6r5CLQiEuAtcSYj65EyPZd5G1kJLqq9pLlG4VE7- -TOQQ4u8OH0QACGR0CJU8tZWCPRAWEs1wBqJi_XklIEO7O4oVOlo9qbx1y2Vw-2UAPU2gE4AdNjATCaT1Y2TowlmSZ2b8KsjmWuC3wiuS5FS6z7TcChcRbSF9pVJRzzN3vUnkjPZTFCpcrujiDLkuE5l5YuxU4v90EugAIG5xzZP-CZvZMd9P_BLRxh2B6nTzs3swGBFAJG8Jv-bONYIPjLmaeHrrPSiJNAef0NR20eHfO9UgW5bvMMkDjV6wd9eiMbf4ExYVwCzn2syZVD2oXfcGDWR6IyOxb2uJmYkRuit17WMSXnsHLAY3a0GzwejdGaH7anOfmHAXL4LBFBPeNaSBvJ8cHzmKfKeJybpLE941STo4cOF-0V3iSOUevu99qipgUyI26SFB7JLulzI63gyMsMHrEhrxM5qlLwVktyCyMowlhyBp99lUN5yTULgG1N5_lVB6ZTUSogPVmopfLrlfP8CcvGuK93BjbVabG6Y169-mEmXfmIEw9whRdU-qtE_VH48B81tqGB-ziTVk3jWJ43VkEz6RbPq8200ISGT2iuZfBOay3YEM15_3RkxfYEjwRsIwEJkcLbacpFuPEwOd9oT7dRn87UbIUQcUw9Kew3P4VsRJ2hPJ6pP4i-BV1OJD71Pzl0oujEtLP1LEZpHAGEfZs1PIb_1aJZSXoYYyZtxYRtHxUsB_iI54SZCLt5I2xTotZ2ovtlWF3d_rb1m_PoiyfwbClDh-1m00]--></g></svg>