<svg xmlns="http://www.w3.org/2000/svg" xmlns:xlink="http://www.w3.org/1999/xlink" contentStyleType="text/css" height="573px" preserveAspectRatio="none" style="width:484px;height:573px;background:#FFFFFF;" version="1.1" viewBox="0 0 484 573" width="484px" zoomAndPan="magnify"><title>US091 &#8212; Component Diagram (Deployment View)</title><defs/><g><text fill="#000000" font-family="Arial" font-size="14" font-weight="bold" lengthAdjust="spacing" textLength="331.3926" x="69.3037" y="23.1318">US091 &#8212; Component Diagram (Deployment View)</text><!--cluster logNode--><g id="cluster_logNode"><polygon fill="none" points="16,201.0986,26,191.0986,467,191.0986,467,546.0986,457,556.0986,16,556.0986,16,201.0986" style="stroke:#181818;stroke-width:1.0;"/><line style="stroke:#181818;stroke-width:1.0;" x1="457" x2="467" y1="201.0986" y2="191.0986"/><line style="stroke:#181818;stroke-width:1.0;" x1="16" x2="457" y1="201.0986" y2="201.0986"/><line style="stroke:#181818;stroke-width:1.0;" x1="457" x2="457" y1="201.0986" y2="556.0986"/><text fill="#000000" font-family="Arial" font-size="12" font-weight="bold" lengthAdjust="spacing" textLength="67.3242" x="203.8379" y="215.3545">Cloud Node</text><text fill="#000000" font-family="Arial" font-size="12" font-weight="bold" lengthAdjust="spacing" textLength="89.3789" x="192.8105" y="229.1533">Remote Access</text><text fill="#000000" font-family="Arial" font-size="12" font-weight="bold" lengthAdjust="spacing" textLength="88.0137" x="193.4932" y="242.9521">Logging Server</text></g><!--cluster udpSrv--><g id="cluster_udpSrv"><path d="M303.5,377.0986 L370.5352,377.0986 A3.75,3.75 0 0 1 373.0352,379.5986 L380.0352,396.8975 L440.5,396.8975 A2.5,2.5 0 0 1 443,399.3975 L443,456.5986 A2.5,2.5 0 0 1 440.5,459.0986 L303.5,459.0986 A2.5,2.5 0 0 1 301,456.5986 L301,379.5986 A2.5,2.5 0 0 1 303.5,377.0986 " fill="none" style="stroke:#000000;stroke-width:1.5;"/><line style="stroke:#000000;stroke-width:1.5;" x1="301" x2="380.0352" y1="396.8975" y2="396.8975"/><text fill="#000000" font-family="Arial" font-size="12" font-weight="bold" lengthAdjust="spacing" textLength="66.0352" x="305" y="390.3545">UDP Server</text></g><!--cluster httpSrv--><g id="cluster_httpSrv"><path d="M42.5,264.0986 L115.5293,264.0986 A3.75,3.75 0 0 1 118.0293,266.5986 L125.0293,283.8975 L274.5,283.8975 A2.5,2.5 0 0 1 277,286.3975 L277,456.5986 A2.5,2.5 0 0 1 274.5,459.0986 L42.5,459.0986 A2.5,2.5 0 0 1 40,456.5986 L40,266.5986 A2.5,2.5 0 0 1 42.5,264.0986 " fill="none" style="stroke:#000000;stroke-width:1.5;"/><line style="stroke:#000000;stroke-width:1.5;" x1="40" x2="125.0293" y1="283.8975" y2="283.8975"/><text fill="#000000" font-family="Arial" font-size="12" font-weight="bold" lengthAdjust="spacing" textLength="72.0293" x="44" y="277.3545">HTTP Server</text></g><!--cluster ws--><g id="cluster_ws"><polygon fill="none" points="38,53.0986,48,43.0986,198,43.0986,198,134.0986,188,144.0986,38,144.0986,38,53.0986" style="stroke:#181818;stroke-width:1.0;"/><line style="stroke:#181818;stroke-width:1.0;" x1="188" x2="198" y1="53.0986" y2="43.0986"/><line style="stroke:#181818;stroke-width:1.0;" x1="38" x2="188" y1="53.0986" y2="53.0986"/><line style="stroke:#181818;stroke-width:1.0;" x1="188" x2="188" y1="53.0986" y2="144.0986"/><text fill="#000000" font-family="Arial" font-size="12" font-weight="bold" lengthAdjust="spacing" textLength="69.334" x="79.333" y="67.3545">Workstation</text><text fill="#000000" font-family="Arial" font-size="12" font-weight="bold" lengthAdjust="spacing" textLength="84.6738" x="71.6631" y="81.1533">(Web Browser)</text></g><!--entity LogStore--><g id="elem_LogStore"><rect fill="#F1F1F1" height="33.7988" rx="2.5" ry="2.5" style="stroke:#181818;stroke-width:0.5;" width="68.7031" x="186.5" y="506.0986"/><text fill="#000000" font-family="Arial" font-size="12" lengthAdjust="spacing" textLength="48.7031" x="196.5" y="527.3545">LogStore</text></g><!--entity UdpLogReceiver--><g id="elem_UdpLogReceiver"><rect fill="#F1F1F1" height="33.7988" rx="2.5" ry="2.5" style="stroke:#181818;stroke-width:0.5;" width="109.3848" x="317.5" y="409.0986"/><text fill="#000000" font-family="Arial" font-size="12" lengthAdjust="spacing" textLength="89.3848" x="327.5" y="430.3545">UdpLogReceiver</text></g><!--entity HttpLogServer--><g id="elem_HttpLogServer"><rect fill="#F1F1F1" height="33.7988" rx="2.5" ry="2.5" style="stroke:#181818;stroke-width:0.5;" width="97.373" x="57.5" y="296.0986"/><text fill="#000000" font-family="Arial" font-size="12" lengthAdjust="spacing" textLength="77.373" x="67.5" y="317.3545">HttpLogServer</text></g><!--entity PageHandler--><g id="elem_PageHandler"><rect fill="#F1F1F1" height="33.7988" rx="2.5" ry="2.5" style="stroke:#181818;stroke-width:0.5;" width="90.0488" x="56" y="409.0986"/><text fill="#000000" font-family="Arial" font-size="12" lengthAdjust="spacing" textLength="70.0488" x="66" y="430.3545">PageHandler</text></g><!--entity ApiHandler--><g id="elem_ApiHandler"><rect fill="#F1F1F1" height="33.7988" rx="2.5" ry="2.5" style="stroke:#181818;stroke-width:0.5;" width="79.3672" x="181.5" y="409.0986"/><text fill="#000000" font-family="Arial" font-size="12" lengthAdjust="spacing" textLength="59.3672" x="191.5" y="430.3545">ApiHandler</text></g><!--entity Browser--><g id="elem_Browser"><rect fill="#F1F1F1" height="33.7988" rx="2.5" ry="2.5" style="stroke:#181818;stroke-width:0.5;" width="64.0098" x="74" y="94.0986"/><text fill="#000000" font-family="Arial" font-size="12" lengthAdjust="spacing" textLength="44.0098" x="84" y="115.3545">Browser</text></g><!--link UdpLogReceiver to LogStore--><g id="link_UdpLogReceiver_LogStore"><path d="M346.38,443.2186 C318.53,460.7386 279.3685,485.3735 251.5685,502.8635 " fill="none" id="UdpLogReceiver-to-LogStore" style="stroke:#181818;stroke-width:1.0;"/><polygon fill="#181818" points="246.49,506.0586,256.2378,504.6517,250.7221,503.3961,251.9777,497.8803,246.49,506.0586" style="stroke:#181818;stroke-width:1.0;"/></g><!--link HttpLogServer to PageHandler--><g id="link_HttpLogServer_PageHandler"><path d="M105.26,330.4786 C104.31,351.5886 102.9415,382.0548 101.9915,403.0248 " fill="none" id="HttpLogServer-to-PageHandler" style="stroke:#181818;stroke-width:1.0;"/><polygon fill="#181818" points="101.72,409.0186,106.1232,400.2089,101.9463,404.0238,98.1314,399.8468,101.72,409.0186" style="stroke:#181818;stroke-width:1.0;"/></g><!--link HttpLogServer to ApiHandler--><g id="link_HttpLogServer_ApiHandler"><path d="M123.08,330.1486 C134.67,341.0686 150.32,355.8986 164,369.0986 C177.77,382.3986 188.993,393.4105 200.343,404.6305 " fill="none" id="HttpLogServer-to-ApiHandler" style="stroke:#181818;stroke-width:1.0;"/><polygon fill="#181818" points="204.61,408.8486,201.0216,399.6768,201.0542,405.3335,195.3974,405.3661,204.61,408.8486" style="stroke:#181818;stroke-width:1.0;"/></g><!--link PageHandler to LogStore--><g id="link_PageHandler_LogStore"><path d="M121.36,443.2186 C143.42,460.6786 173.7362,484.6839 195.8362,502.1839 " fill="none" id="PageHandler-to-LogStore" style="stroke:#181818;stroke-width:1.0;"/><polygon fill="#181818" points="200.54,505.9086,195.9674,497.1856,196.6201,502.8047,191.0011,503.4574,200.54,505.9086" style="stroke:#181818;stroke-width:1.0;"/></g><!--link ApiHandler to LogStore--><g id="link_ApiHandler_LogStore"><path d="M221,443.2186 C221,460.6786 221,482.4086 221,499.9086 " fill="none" id="ApiHandler-to-LogStore" style="stroke:#181818;stroke-width:1.0;"/><polygon fill="#181818" points="221,505.9086,225,496.9086,221,500.9086,217,496.9086,221,505.9086" style="stroke:#181818;stroke-width:1.0;"/></g><!--link Browser to HttpLogServer--><g id="link_Browser_HttpLogServer"><path d="M106,128.1286 C106,165.5786 106,252.4686 106,289.9886 " fill="none" id="Browser-to-HttpLogServer" style="stroke:#181818;stroke-width:1.0;"/><polygon fill="#181818" points="106,295.9886,110,286.9886,106,290.9886,102,286.9886,106,295.9886" style="stroke:#181818;stroke-width:1.0;"/><text fill="#000000" font-family="Arial" font-size="12" lengthAdjust="spacing" textLength="93.3633" x="107" y="172.3545">HTTP (port 8080)</text></g><!--SRC=[RP11Ri8m44NtESM85IoGe2lQHIKAgbXK214e2yZ2JQQfXMDRzW2Y5L8FqHFs9BKD50UnYEJyz-V_iOcJG9YddVik_7x_m41LMacK14FEIiCgQ0vH2xMllFRASTTA4hlcKZCF2tnd6q7FIjAOLGXzmvcupLF-YT2zYs1-xaffxvOmc1EJfS388bM1rpJn8ZG6GcqA6BlpIawnKkJQynojNSaNLPPSbf2YsQ9f0BCWLEcjy9K0Q9QlMUaYviD9xDaKEZNRO05OpWljSgQO8tU6p8a7zosTbf8ocCL1ezciblH154UDtA-V2uRig4tSu8Z9GlmhVSqZmPVLLu1s-n7EzOxMKWECCc_oIuF3aVaw-UAhayFvxHVAh2qnuagkP7E1R_1arCwYQONhxsou-V8aPdxmT0w1zSqU83nVKoj3qElqEgq_]--></g></svg>