<svg xmlns="http://www.w3.org/2000/svg" xmlns:xlink="http://www.w3.org/1999/xlink" contentStyleType="text/css" height="644px" preserveAspectRatio="none" style="width:823px;height:644px;background:#FFFFFF;" version="1.1" viewBox="0 0 823 644" width="823px" zoomAndPan="magnify"><title>US91 &#8212; Active Users Page (Initial Load + AJAX Polling)</title><defs/><g><text fill="#000000" font-family="Arial" font-size="14" font-weight="bold" lengthAdjust="spacing" textLength="369.9336" x="228.3159" y="28.1318">US91 &#8212; Active Users Page (Initial Load + AJAX Polling)</text><rect fill="#FFFFFF" height="83.3965" style="stroke:#181818;stroke-width:1.0;" width="10" x="246.0566" y="159.4951"/><rect fill="#FFFFFF" height="138.9941" style="stroke:#181818;stroke-width:1.0;" width="10" x="246.0566" y="341.0869"/><rect fill="#FFFFFF" height="27.7988" style="stroke:#181818;stroke-width:1.0;" width="10" x="451.4414" y="187.2939"/><rect fill="#FFFFFF" height="83.3965" style="stroke:#181818;stroke-width:1.0;" width="10" x="580.1494" y="368.8857"/><rect fill="#FFFFFF" height="27.7988" style="stroke:#181818;stroke-width:1.0;" width="10" x="751.2139" y="396.6846"/><rect fill="none" height="230.1895" style="stroke:#000000;stroke-width:1.5;" width="808.5654" x="9" y="305.4893"/><line style="stroke:#181818;stroke-width:0.5;stroke-dasharray:5.0,5.0;" x1="113" x2="113" y1="129.6963" y2="552.6787"/><line style="stroke:#181818;stroke-width:0.5;stroke-dasharray:5.0,5.0;" x1="250.3701" x2="250.3701" y1="129.6963" y2="552.6787"/><line style="stroke:#181818;stroke-width:0.5;stroke-dasharray:5.0,5.0;" x1="456.417" x2="456.417" y1="129.6963" y2="552.6787"/><line style="stroke:#181818;stroke-width:0.5;stroke-dasharray:5.0,5.0;" x1="584.4658" x2="584.4658" y1="129.6963" y2="552.6787"/><line style="stroke:#181818;stroke-width:0.5;stroke-dasharray:5.0,5.0;" x1="755.8623" x2="755.8623" y1="129.6963" y2="552.6787"/><text fill="#000000" font-family="Arial" font-size="12" lengthAdjust="spacing" textLength="70.6875" x="75" y="113.3545">Administrator</text><text fill="#000000" font-family="Arial" font-size="12" lengthAdjust="spacing" textLength="52.002" x="84.3428" y="127.1533">(Browser)</text><ellipse cx="113.3438" cy="50.5986" fill="#E2E2F0" rx="8" ry="8" style="stroke:#181818;stroke-width:0.5;"/><path d="M113.3438,58.5986 L113.3438,85.5986 M100.3438,66.5986 L126.3438,66.5986 M113.3438,85.5986 L100.3438,100.5986 M113.3438,85.5986 L126.3438,100.5986 " fill="none" style="stroke:#181818;stroke-width:0.5;"/><text fill="#000000" font-family="Arial" font-size="12" lengthAdjust="spacing" textLength="70.6875" x="75" y="562.9346">Administrator</text><text fill="#000000" font-family="Arial" font-size="12" lengthAdjust="spacing" textLength="52.002" x="84.3428" y="576.7334">(Browser)</text><ellipse cx="113.3438" cy="587.7764" fill="#E2E2F0" rx="8" ry="8" style="stroke:#181818;stroke-width:0.5;"/><path d="M113.3438,595.7764 L113.3438,622.7764 M100.3438,603.7764 L126.3438,603.7764 M113.3438,622.7764 L100.3438,637.7764 M113.3438,622.7764 L126.3438,637.7764 " fill="none" style="stroke:#181818;stroke-width:0.5;"/><rect fill="#E2E2F0" height="27.7988" rx="2.5" ry="2.5" style="stroke:#181818;stroke-width:0.5;" width="91.373" x="205.3701" y="100.8975"/><text fill="#000000" font-family="Arial" font-size="12" lengthAdjust="spacing" textLength="77.373" x="212.3701" y="119.1533">HttpLogServer</text><rect fill="#E2E2F0" height="27.7988" rx="2.5" ry="2.5" style="stroke:#181818;stroke-width:0.5;" width="91.373" x="205.3701" y="551.6787"/><text fill="#000000" font-family="Arial" font-size="12" lengthAdjust="spacing" textLength="77.373" x="212.3701" y="569.9346">HttpLogServer</text><rect fill="#E2E2F0" height="27.7988" rx="2.5" ry="2.5" style="stroke:#181818;stroke-width:0.5;" width="84.0488" x="414.417" y="100.8975"/><text fill="#000000" font-family="Arial" font-size="12" lengthAdjust="spacing" textLength="70.0488" x="421.417" y="119.1533">PageHandler</text><rect fill="#E2E2F0" height="27.7988" rx="2.5" ry="2.5" style="stroke:#181818;stroke-width:0.5;" width="84.0488" x="414.417" y="551.6787"/><text fill="#000000" font-family="Arial" font-size="12" lengthAdjust="spacing" textLength="70.0488" x="421.417" y="569.9346">PageHandler</text><rect fill="#E2E2F0" height="27.7988" rx="2.5" ry="2.5" style="stroke:#181818;stroke-width:0.5;" width="73.3672" x="548.4658" y="100.8975"/><text fill="#000000" font-family="Arial" font-size="12" lengthAdjust="spacing" textLength="59.3672" x="555.4658" y="119.1533">ApiHandler</text><rect fill="#E2E2F0" height="27.7988" rx="2.5" ry="2.5" style="stroke:#181818;stroke-width:0.5;" width="73.3672" x="548.4658" y="551.6787"/><text fill="#000000" font-family="Arial" font-size="12" lengthAdjust="spacing" textLength="59.3672" x="555.4658" y="569.9346">ApiHandler</text><rect fill="#E2E2F0" height="27.7988" rx="2.5" ry="2.5" style="stroke:#181818;stroke-width:0.5;" width="62.7031" x="724.8623" y="100.8975"/><text fill="#000000" font-family="Arial" font-size="12" lengthAdjust="spacing" textLength="48.7031" x="731.8623" y="119.1533">LogStore</text><rect fill="#E2E2F0" height="27.7988" rx="2.5" ry="2.5" style="stroke:#181818;stroke-width:0.5;" width="62.7031" x="724.8623" y="551.6787"/><text fill="#000000" font-family="Arial" font-size="12" lengthAdjust="spacing" textLength="48.7031" x="731.8623" y="569.9346">LogStore</text><rect fill="#FFFFFF" height="83.3965" style="stroke:#181818;stroke-width:1.0;" width="10" x="246.0566" y="159.4951"/><rect fill="#FFFFFF" height="138.9941" style="stroke:#181818;stroke-width:1.0;" width="10" x="246.0566" y="341.0869"/><rect fill="#FFFFFF" height="27.7988" style="stroke:#181818;stroke-width:1.0;" width="10" x="451.4414" y="187.2939"/><rect fill="#FFFFFF" height="83.3965" style="stroke:#181818;stroke-width:1.0;" width="10" x="580.1494" y="368.8857"/><rect fill="#FFFFFF" height="27.7988" style="stroke:#181818;stroke-width:1.0;" width="10" x="751.2139" y="396.6846"/><polygon fill="#181818" points="234.0566,155.4951,244.0566,159.4951,234.0566,163.4951,238.0566,159.4951" style="stroke:#181818;stroke-width:1.0;"/><line style="stroke:#181818;stroke-width:1.0;" x1="113.3438" x2="240.0566" y1="159.4951" y2="159.4951"/><text fill="#000000" font-family="Arial" font-size="12" font-weight="bold" lengthAdjust="spacing" textLength="6.6738" x="143.0215" y="154.9521">1</text><text fill="#000000" font-family="Arial" font-size="12" lengthAdjust="spacing" textLength="62.6836" x="153.6953" y="154.9521">GET /active</text><polygon fill="#181818" points="439.4414,183.2939,449.4414,187.2939,439.4414,191.2939,443.4414,187.2939" style="stroke:#181818;stroke-width:1.0;"/><line style="stroke:#181818;stroke-width:1.0;" x1="256.0566" x2="445.4414" y1="187.2939" y2="187.2939"/><text fill="#000000" font-family="Arial" font-size="12" font-weight="bold" lengthAdjust="spacing" textLength="6.6738" x="306.3857" y="182.751">2</text><text fill="#000000" font-family="Arial" font-size="12" lengthAdjust="spacing" textLength="84.0527" x="317.0596" y="182.751">handle(request)</text><polygon fill="#181818" points="267.0566,211.0928,257.0566,215.0928,267.0566,219.0928,263.0566,215.0928" style="stroke:#181818;stroke-width:1.0;"/><line style="stroke:#181818;stroke-width:1.0;stroke-dasharray:2.0,2.0;" x1="261.0566" x2="455.4414" y1="215.0928" y2="215.0928"/><text fill="#000000" font-family="Arial" font-size="12" font-weight="bold" lengthAdjust="spacing" textLength="6.6738" x="270.5566" y="210.5498">3</text><text fill="#000000" font-family="Arial" font-size="12" lengthAdjust="spacing" textLength="160.7109" x="281.2305" y="210.5498">HTML page (with AJAX script)</text><polygon fill="#181818" points="124.3438,238.8916,114.3438,242.8916,124.3438,246.8916,120.3438,242.8916" style="stroke:#181818;stroke-width:1.0;"/><line style="stroke:#181818;stroke-width:1.0;stroke-dasharray:2.0,2.0;" x1="118.3438" x2="250.0566" y1="242.8916" y2="242.8916"/><text fill="#000000" font-family="Arial" font-size="12" font-weight="bold" lengthAdjust="spacing" textLength="6.6738" x="130.8496" y="238.3486">4</text><text fill="#000000" font-family="Arial" font-size="12" lengthAdjust="spacing" textLength="92.0273" x="141.5234" y="238.3486">200 OK &#8212; HTML</text><path d="M34,255.8916 L34,292.8916 L191,292.8916 L191,265.8916 L181,255.8916 L34,255.8916 " fill="#FEFFDD" style="stroke:#181818;stroke-width:0.5;"/><path d="M181,255.8916 L181,265.8916 L191,265.8916 L181,255.8916 " fill="#FEFFDD" style="stroke:#181818;stroke-width:0.5;"/><text fill="#000000" font-family="Arial" font-size="12" lengthAdjust="spacing" textLength="118.0605" x="40" y="272.1475">Browser renders page</text><text fill="#000000" font-family="Arial" font-size="12" lengthAdjust="spacing" textLength="136.7344" x="40" y="285.9463">and executes AJAX script</text><path d="M9,305.4893 L79.3242,305.4893 L79.3242,311.2881 L69.3242,321.2881 L9,321.2881 L9,305.4893 " fill="#EEEEEE" style="stroke:#000000;stroke-width:1.5;"/><rect fill="none" height="230.1895" style="stroke:#000000;stroke-width:1.5;" width="808.5654" x="9" y="305.4893"/><text fill="#000000" font-family="Arial" font-size="12" font-weight="bold" lengthAdjust="spacing" textLength="25.3242" x="24" y="317.7451">loop</text><text fill="#000000" font-family="Arial" font-size="12" font-weight="bold" lengthAdjust="spacing" textLength="284.0801" x="94.3242" y="318.7451">[every 5 seconds (and immediately on page load)]</text><polygon fill="#181818" points="234.0566,337.0869,244.0566,341.0869,234.0566,345.0869,238.0566,341.0869" style="stroke:#181818;stroke-width:1.0;"/><line style="stroke:#181818;stroke-width:1.0;" x1="113.3438" x2="240.0566" y1="341.0869" y2="341.0869"/><text fill="#000000" font-family="Arial" font-size="12" font-weight="bold" lengthAdjust="spacing" textLength="6.6738" x="133.3477" y="336.5439">5</text><text fill="#000000" font-family="Arial" font-size="12" lengthAdjust="spacing" textLength="82.0313" x="144.0215" y="336.5439">GET /api/active</text><polygon fill="#181818" points="568.1494,364.8857,578.1494,368.8857,568.1494,372.8857,572.1494,368.8857" style="stroke:#181818;stroke-width:1.0;"/><line style="stroke:#181818;stroke-width:1.0;" x1="256.0566" x2="574.1494" y1="368.8857" y2="368.8857"/><text fill="#000000" font-family="Arial" font-size="12" font-weight="bold" lengthAdjust="spacing" textLength="6.6738" x="370.7397" y="364.3428">6</text><text fill="#000000" font-family="Arial" font-size="12" lengthAdjust="spacing" textLength="84.0527" x="381.4136" y="364.3428">handle(request)</text><polygon fill="#181818" points="739.2139,392.6846,749.2139,396.6846,739.2139,400.6846,743.2139,396.6846" style="stroke:#181818;stroke-width:1.0;"/><line style="stroke:#181818;stroke-width:1.0;" x1="590.1494" x2="745.2139" y1="396.6846" y2="396.6846"/><text fill="#000000" font-family="Arial" font-size="12" font-weight="bold" lengthAdjust="spacing" textLength="6.6738" x="599.6494" y="392.1416">7</text><text fill="#000000" font-family="Arial" font-size="12" lengthAdjust="spacing" textLength="131.3906" x="610.3232" y="392.1416">getActiveSessionsJson()</text><polygon fill="#181818" points="601.1494,420.4834,591.1494,424.4834,601.1494,428.4834,597.1494,424.4834" style="stroke:#181818;stroke-width:1.0;"/><line style="stroke:#181818;stroke-width:1.0;stroke-dasharray:2.0,2.0;" x1="595.1494" x2="755.2139" y1="424.4834" y2="424.4834"/><text fill="#000000" font-family="Arial" font-size="12" font-weight="bold" lengthAdjust="spacing" textLength="6.6738" x="651.8428" y="419.9404">8</text><text fill="#000000" font-family="Arial" font-size="12" lengthAdjust="spacing" textLength="32.0039" x="662.5166" y="419.9404">JSON</text><polygon fill="#181818" points="267.0566,448.2822,257.0566,452.2822,267.0566,456.2822,263.0566,452.2822" style="stroke:#181818;stroke-width:1.0;"/><line style="stroke:#181818;stroke-width:1.0;stroke-dasharray:2.0,2.0;" x1="261.0566" x2="584.1494" y1="452.2822" y2="452.2822"/><text fill="#000000" font-family="Arial" font-size="12" font-weight="bold" lengthAdjust="spacing" textLength="6.6738" x="329.5728" y="447.7393">9</text><text fill="#000000" font-family="Arial" font-size="12" lengthAdjust="spacing" textLength="171.3867" x="340.2466" y="447.7393">JSON response (activeUserList)</text><polygon fill="#181818" points="124.3438,476.0811,114.3438,480.0811,124.3438,484.0811,120.3438,480.0811" style="stroke:#181818;stroke-width:1.0;"/><line style="stroke:#181818;stroke-width:1.0;stroke-dasharray:2.0,2.0;" x1="118.3438" x2="250.0566" y1="480.0811" y2="480.0811"/><text fill="#000000" font-family="Arial" font-size="12" font-weight="bold" lengthAdjust="spacing" textLength="13.3477" x="127.8438" y="475.5381">10</text><text fill="#000000" font-family="Arial" font-size="12" lengthAdjust="spacing" textLength="91.3652" x="145.1914" y="475.5381">200 OK &#8212; JSON</text><path d="M19,493.0811 L19,530.0811 L206,530.0811 L206,503.0811 L196,493.0811 L19,493.0811 " fill="#FEFFDD" style="stroke:#181818;stroke-width:0.5;"/><path d="M196,493.0811 L196,503.0811 L206,503.0811 L196,493.0811 " fill="#FEFFDD" style="stroke:#181818;stroke-width:0.5;"/><text fill="#000000" font-family="Arial" font-size="12" lengthAdjust="spacing" textLength="102.7383" x="25" y="509.3369">Replace table body</text><text fill="#000000" font-family="Arial" font-size="12" lengthAdjust="spacing" textLength="166.7578" x="25" y="523.1357">Update last-updated timestamp</text><!--SRC=[VLJ1ZjCm4BtxAqOzfK8LkojnO0z8GG9AwUvMT5VYqCiq7b8BnpQsiqivyH5y8L-oOwTj4gZefR7dlNdFRvn45JN1m_hr9VpvzHlAAgf7NWVo0LPO4nGVZOeADImjIdW1vQBy0YkhjJBrL8ZmJHc77Xi8zBqbKz4DXS34KglQG4KcaX-W97t5LiVtriHRR0XApxtFrzVg9y7brQ2uGXzLfHoQk48fsG5SNGY1RRIcRROi9B2AriEab8qoAaIFlDoOugstJtocwGGm0AQYS7qpcCnZT4jRhya_ai-W7U-CCIcEEHgf3mZ7wp6YT6e8GAV6zQJ0VYXNGtfYmyaCpDvaGRY63-_kuINcCOZyXv4wCnd0mAJBm5rMAdoAFSHf3pxuOj2iRpk_lrbspE99nLqtnb1vvPWgQKpkb9ZScRlcb2_WxbE-8QdHa92j2MFvqN9s9yeXSV1aPBfCgV76i6UW7rIraSBGWn3QMWV47VRmYkzIPOqCK2IyQXgIYhNq7gpf3g7vCau5yEzyVauTCyoOaTcqSyoIWMUY777I5FC6GvcHnyQSccBtigpvlYjhmY9OK_p5xMQSjZhQx2IvMD_Tvi8WoXwTjVep9J076HpBy02xawLtTAcETWTjZeR_DyLpygTm_XtcPt8QAuA8M_vQRAtSRyo3aucbCSHPcvybHDLmWDWumLD_1W00]--></g></svg>