<svg xmlns="http://www.w3.org/2000/svg" xmlns:xlink="http://www.w3.org/1999/xlink" contentStyleType="text/css" height="1181px" preserveAspectRatio="none" style="width:1400px;height:1181px;background:#FFFFFF;" version="1.1" viewBox="0 0 1400 1181" width="1400px" zoomAndPan="magnify"><title>US078 &#8212; Component Diagram (Deployment View)</title><defs/><g><text fill="#000000" font-family="Arial" font-size="14" font-weight="bold" lengthAdjust="spacing" textLength="331.3926" x="527.3037" y="23.1318">US078 &#8212; Component Diagram (Deployment View)</text><!--cluster ws1--><g id="cluster_ws1"><polygon fill="none" points="529,53.0986,539,43.0986,674,43.0986,674,229.0986,664,239.0986,529,239.0986,529,53.0986" style="stroke:#181818;stroke-width:1.0;"/><line style="stroke:#181818;stroke-width:1.0;" x1="664" x2="674" y1="53.0986" y2="43.0986"/><line style="stroke:#181818;stroke-width:1.0;" x1="529" x2="664" y1="53.0986" y2="53.0986"/><line style="stroke:#181818;stroke-width:1.0;" x1="664" x2="664" y1="53.0986" y2="239.0986"/><text fill="#000000" font-family="Arial" font-size="12" font-weight="bold" lengthAdjust="spacing" textLength="69.334" x="562.833" y="67.3545">Workstation</text><text fill="#000000" font-family="Arial" font-size="12" font-weight="bold" lengthAdjust="spacing" textLength="68.6602" x="563.1699" y="81.1533">(TCP Client)</text></g><!--cluster cloud1--><g id="cluster_cloud1"><polygon fill="none" points="16,296.0986,26,286.0986,791,286.0986,791,1001.0986,781,1011.0986,16,1011.0986,16,296.0986" style="stroke:#181818;stroke-width:1.0;"/><line style="stroke:#181818;stroke-width:1.0;" x1="781" x2="791" y1="296.0986" y2="286.0986"/><line style="stroke:#181818;stroke-width:1.0;" x1="16" x2="781" y1="296.0986" y2="296.0986"/><line style="stroke:#181818;stroke-width:1.0;" x1="781" x2="781" y1="296.0986" y2="1011.0986"/><text fill="#000000" font-family="Arial" font-size="12" font-weight="bold" lengthAdjust="spacing" textLength="67.3242" x="365.8379" y="310.3545">Cloud Node</text><text fill="#000000" font-family="Arial" font-size="12" font-weight="bold" lengthAdjust="spacing" textLength="96" x="351.5" y="324.1533">Main Application</text></g><!--cluster tcpSrv--><g id="cluster_tcpSrv"><path d="M528.5,345.0986 L594.1992,345.0986 A3.75,3.75 0 0 1 596.6992,347.5986 L603.6992,364.8975 L673.5,364.8975 A2.5,2.5 0 0 1 676,367.3975 L676,519.5986 A2.5,2.5 0 0 1 673.5,522.0986 L528.5,522.0986 A2.5,2.5 0 0 1 526,519.5986 L526,347.5986 A2.5,2.5 0 0 1 528.5,345.0986 " fill="none" style="stroke:#000000;stroke-width:1.5;"/><line style="stroke:#000000;stroke-width:1.5;" x1="526" x2="603.6992" y1="364.8975" y2="364.8975"/><text fill="#000000" font-family="Arial" font-size="12" font-weight="bold" lengthAdjust="spacing" textLength="64.6992" x="530" y="358.3545">TCP Server</text></g><!--cluster srvPkg--><g id="cluster_srvPkg"><path d="M436.5,569.0986 L480.2031,569.0986 A3.75,3.75 0 0 1 482.7031,571.5986 L489.7031,588.8975 L583.5,588.8975 A2.5,2.5 0 0 1 586,591.3975 L586,648.5986 A2.5,2.5 0 0 1 583.5,651.0986 L436.5,651.0986 A2.5,2.5 0 0 1 434,648.5986 L434,571.5986 A2.5,2.5 0 0 1 436.5,569.0986 " fill="none" style="stroke:#000000;stroke-width:1.5;"/><line style="stroke:#000000;stroke-width:1.5;" x1="434" x2="489.7031" y1="588.8975" y2="588.8975"/><text fill="#000000" font-family="Arial" font-size="12" font-weight="bold" lengthAdjust="spacing" textLength="42.7031" x="438" y="582.3545">Service</text></g><!--cluster ctrlPkg--><g id="cluster_ctrlPkg"><path d="M42.5,771.0986 L100.834,771.0986 A3.75,3.75 0 0 1 103.334,773.5986 L110.334,790.8975 L764.5,790.8975 A2.5,2.5 0 0 1 767,793.3975 L767,850.5986 A2.5,2.5 0 0 1 764.5,853.0986 L42.5,853.0986 A2.5,2.5 0 0 1 40,850.5986 L40,773.5986 A2.5,2.5 0 0 1 42.5,771.0986 " fill="none" style="stroke:#000000;stroke-width:1.5;"/><line style="stroke:#000000;stroke-width:1.5;" x1="40" x2="110.334" y1="790.8975" y2="790.8975"/><text fill="#000000" font-family="Arial" font-size="12" font-weight="bold" lengthAdjust="spacing" textLength="57.334" x="44" y="784.3545">Controller</text></g><!--cluster domPkg--><g id="cluster_domPkg"><path d="M345.5,905.0986 L390.5039,905.0986 A3.75,3.75 0 0 1 393.0039,907.5986 L400.0039,924.8975 L509.5,924.8975 A2.5,2.5 0 0 1 512,927.3975 L512,984.5986 A2.5,2.5 0 0 1 509.5,987.0986 L345.5,987.0986 A2.5,2.5 0 0 1 343,984.5986 L343,907.5986 A2.5,2.5 0 0 1 345.5,905.0986 " fill="none" style="stroke:#000000;stroke-width:1.5;"/><line style="stroke:#000000;stroke-width:1.5;" x1="343" x2="400.0039" y1="924.8975" y2="924.8975"/><text fill="#000000" font-family="Arial" font-size="12" font-weight="bold" lengthAdjust="spacing" textLength="44.0039" x="347" y="918.3545">Domain</text></g><!--cluster udpPkg--><g id="cluster_udpPkg"><path d="M624.5,569.0986 L687.5039,569.0986 A3.75,3.75 0 0 1 690.0039,571.5986 L697.0039,588.8975 L761.5,588.8975 A2.5,2.5 0 0 1 764,591.3975 L764,648.5986 A2.5,2.5 0 0 1 761.5,651.0986 L624.5,651.0986 A2.5,2.5 0 0 1 622,648.5986 L622,571.5986 A2.5,2.5 0 0 1 624.5,569.0986 " fill="none" style="stroke:#000000;stroke-width:1.5;"/><line style="stroke:#000000;stroke-width:1.5;" x1="622" x2="697.0039" y1="588.8975" y2="588.8975"/><text fill="#000000" font-family="Arial" font-size="12" font-weight="bold" lengthAdjust="spacing" textLength="62.0039" x="626" y="582.3545">UDP Client</text></g><!--cluster dbNode--><g id="cluster_dbNode"><polygon fill="none" points="815,762.0986,825,752.0986,985,752.0986,985,843.0986,975,853.0986,815,853.0986,815,762.0986" style="stroke:#181818;stroke-width:1.0;"/><line style="stroke:#181818;stroke-width:1.0;" x1="975" x2="985" y1="762.0986" y2="752.0986"/><line style="stroke:#181818;stroke-width:1.0;" x1="815" x2="975" y1="762.0986" y2="762.0986"/><line style="stroke:#181818;stroke-width:1.0;" x1="975" x2="975" y1="762.0986" y2="853.0986"/><text fill="#000000" font-family="Arial" font-size="12" font-weight="bold" lengthAdjust="spacing" textLength="67.3242" x="862.3379" y="776.3545">Cloud Node</text><text fill="#000000" font-family="Arial" font-size="12" font-weight="bold" lengthAdjust="spacing" textLength="94.0605" x="848.9697" y="790.1533">Database Server</text></g><!--cluster logNode--><g id="cluster_logNode"><polygon fill="none" points="1009,708.0986,1019,698.0986,1199,698.0986,1199,1154.0986,1189,1164.0986,1009,1164.0986,1009,708.0986" style="stroke:#181818;stroke-width:1.0;"/><line style="stroke:#181818;stroke-width:1.0;" x1="1189" x2="1199" y1="708.0986" y2="698.0986"/><line style="stroke:#181818;stroke-width:1.0;" x1="1009" x2="1189" y1="708.0986" y2="708.0986"/><line style="stroke:#181818;stroke-width:1.0;" x1="1189" x2="1189" y1="708.0986" y2="1164.0986"/><text fill="#000000" font-family="Arial" font-size="12" font-weight="bold" lengthAdjust="spacing" textLength="67.3242" x="1066.3379" y="722.3545">Cloud Node</text><text fill="#000000" font-family="Arial" font-size="12" font-weight="bold" lengthAdjust="spacing" textLength="89.3789" x="1055.3105" y="736.1533">Remote Access</text><text fill="#000000" font-family="Arial" font-size="12" font-weight="bold" lengthAdjust="spacing" textLength="88.0137" x="1055.9932" y="749.9521">Logging Server</text></g><!--cluster udpSrv--><g id="cluster_udpSrv"><path d="M1035.5,771.0986 L1102.5352,771.0986 A3.75,3.75 0 0 1 1105.0352,773.5986 L1112.0352,790.8975 L1172.5,790.8975 A2.5,2.5 0 0 1 1175,793.3975 L1175,850.5986 A2.5,2.5 0 0 1 1172.5,853.0986 L1035.5,853.0986 A2.5,2.5 0 0 1 1033,850.5986 L1033,773.5986 A2.5,2.5 0 0 1 1035.5,771.0986 " fill="none" style="stroke:#000000;stroke-width:1.5;"/><line style="stroke:#000000;stroke-width:1.5;" x1="1033" x2="1112.0352" y1="790.8975" y2="790.8975"/><text fill="#000000" font-family="Arial" font-size="12" font-weight="bold" lengthAdjust="spacing" textLength="66.0352" x="1037" y="784.3545">UDP Server</text></g><!--cluster httpSrv--><g id="cluster_httpSrv"><path d="M1046.5,1058.0986 L1119.5293,1058.0986 A3.75,3.75 0 0 1 1122.0293,1060.5986 L1129.0293,1077.8975 L1171.5,1077.8975 A2.5,2.5 0 0 1 1174,1080.3975 L1174,1137.5986 A2.5,2.5 0 0 1 1171.5,1140.0986 L1046.5,1140.0986 A2.5,2.5 0 0 1 1044,1137.5986 L1044,1060.5986 A2.5,2.5 0 0 1 1046.5,1058.0986 " fill="none" style="stroke:#000000;stroke-width:1.5;"/><line style="stroke:#000000;stroke-width:1.5;" x1="1044" x2="1129.0293" y1="1077.8975" y2="1077.8975"/><text fill="#000000" font-family="Arial" font-size="12" font-weight="bold" lengthAdjust="spacing" textLength="72.0293" x="1048" y="1071.3545">HTTP Server</text></g><!--cluster ws2--><g id="cluster_ws2"><polygon fill="none" points="1223,896.0986,1233,886.0986,1383,886.0986,1383,977.0986,1373,987.0986,1223,987.0986,1223,896.0986" style="stroke:#181818;stroke-width:1.0;"/><line style="stroke:#181818;stroke-width:1.0;" x1="1373" x2="1383" y1="896.0986" y2="886.0986"/><line style="stroke:#181818;stroke-width:1.0;" x1="1223" x2="1373" y1="896.0986" y2="896.0986"/><line style="stroke:#181818;stroke-width:1.0;" x1="1373" x2="1373" y1="896.0986" y2="987.0986"/><text fill="#000000" font-family="Arial" font-size="12" font-weight="bold" lengthAdjust="spacing" textLength="69.334" x="1264.333" y="910.3545">Workstation</text><text fill="#000000" font-family="Arial" font-size="12" font-weight="bold" lengthAdjust="spacing" textLength="84.6738" x="1256.6631" y="924.1533">(Web Browser)</text></g><!--entity AtcClientApp--><g id="elem_AtcClientApp"><rect fill="#F1F1F1" height="33.7988" rx="2.5" ry="2.5" style="stroke:#181818;stroke-width:0.5;" width="89.3691" x="556.5" y="94.0986"/><text fill="#000000" font-family="Arial" font-size="12" lengthAdjust="spacing" textLength="69.3691" x="566.5" y="115.3545">AtcClientApp</text></g><!--entity TcpClient--><g id="elem_TcpClient"><rect fill="#F1F1F1" height="33.7988" rx="2.5" ry="2.5" style="stroke:#181818;stroke-width:0.5;" width="70.6836" x="565.5" y="189.0986"/><text fill="#000000" font-family="Arial" font-size="12" lengthAdjust="spacing" textLength="50.6836" x="575.5" y="210.3545">TcpClient</text></g><!--entity AtcServerDaemon--><g id="elem_AtcServerDaemon"><rect fill="#F1F1F1" height="33.7988" rx="2.5" ry="2.5" style="stroke:#181818;stroke-width:0.5;" width="118.0391" x="542" y="377.0986"/><text fill="#000000" font-family="Arial" font-size="12" lengthAdjust="spacing" textLength="98.0391" x="552" y="398.3545">AtcServerDaemon</text></g><!--entity AtcClientHandler--><g id="elem_AtcClientHandler"><rect fill="#F1F1F1" height="33.7988" rx="2.5" ry="2.5" style="stroke:#181818;stroke-width:0.5;" width="110.041" x="546" y="472.0986"/><text fill="#000000" font-family="Arial" font-size="12" lengthAdjust="spacing" textLength="90.041" x="556" y="493.3545">AtcClientHandler</text></g><!--entity RemoteAtcService--><g id="elem_RemoteAtcService"><rect fill="#F1F1F1" height="33.7988" rx="2.5" ry="2.5" style="stroke:#181818;stroke-width:0.5;" width="119.3691" x="450.5" y="601.0986"/><text fill="#000000" font-family="Arial" font-size="12" lengthAdjust="spacing" textLength="99.3691" x="460.5" y="622.3545">RemoteAtcService</text></g><!--entity AddAircraftController--><g id="elem_AddAircraftController"><rect fill="#F1F1F1" height="33.7988" rx="2.5" ry="2.5" style="stroke:#181818;stroke-width:0.5;" width="131.375" x="56.5" y="803.0986"/><text fill="#000000" font-family="Arial" font-size="12" lengthAdjust="spacing" textLength="111.375" x="66.5" y="824.3545">AddAircraftController</text></g><!--entity ListCompanyFleetController--><g id="elem_ListCompanyFleetController"><rect fill="#F1F1F1" height="33.7988" rx="2.5" ry="2.5" style="stroke:#181818;stroke-width:0.5;" width="168.7285" x="222.5" y="803.0986"/><text fill="#000000" font-family="Arial" font-size="12" lengthAdjust="spacing" textLength="148.7285" x="232.5" y="824.3545">ListCompanyFleetController</text></g><!--entity ListPilotRosterController--><g id="elem_ListPilotRosterController"><rect fill="#F1F1F1" height="33.7988" rx="2.5" ry="2.5" style="stroke:#181818;stroke-width:0.5;" width="149.3809" x="426.5" y="803.0986"/><text fill="#000000" font-family="Arial" font-size="12" lengthAdjust="spacing" textLength="129.3809" x="436.5" y="824.3545">ListPilotRosterController</text></g><!--entity RemovePilotController--><g id="elem_RemovePilotController"><rect fill="#F1F1F1" height="33.7988" rx="2.5" ry="2.5" style="stroke:#181818;stroke-width:0.5;" width="140.0469" x="611" y="803.0986"/><text fill="#000000" font-family="Arial" font-size="12" lengthAdjust="spacing" textLength="120.0469" x="621" y="824.3545">RemovePilotController</text></g><!--entity Aircraft--><g id="elem_Aircraft"><rect fill="#F1F1F1" height="33.7988" rx="2.5" ry="2.5" style="stroke:#181818;stroke-width:0.5;" width="58.0039" x="359" y="937.0986"/><text fill="#000000" font-family="Arial" font-size="12" lengthAdjust="spacing" textLength="38.0039" x="369" y="958.3545">Aircraft</text></g><!--entity Pilot--><g id="elem_Pilot"><rect fill="#F1F1F1" height="33.7988" rx="2.5" ry="2.5" style="stroke:#181818;stroke-width:0.5;" width="43.3438" x="452.5" y="937.0986"/><text fill="#000000" font-family="Arial" font-size="12" lengthAdjust="spacing" textLength="23.3438" x="462.5" y="958.3545">Pilot</text></g><!--entity UdpLoggerClient--><g id="elem_UdpLoggerClient"><rect fill="#F1F1F1" height="33.7988" rx="2.5" ry="2.5" style="stroke:#181818;stroke-width:0.5;" width="110.0586" x="638" y="601.0986"/><text fill="#000000" font-family="Arial" font-size="12" lengthAdjust="spacing" textLength="90.0586" x="648" y="622.3545">UdpLoggerClient</text></g><!--entity Relational Database--><g id="elem_Relational Database"><rect fill="#F1F1F1" height="33.7988" rx="2.5" ry="2.5" style="stroke:#181818;stroke-width:0.5;" width="128.0703" x="831" y="803.0986"/><text fill="#000000" font-family="Arial" font-size="12" lengthAdjust="spacing" textLength="108.0703" x="841" y="824.3545">Relational Database</text></g><!--entity LogStore--><g id="elem_LogStore"><rect fill="#F1F1F1" height="33.7988" rx="2.5" ry="2.5" style="stroke:#181818;stroke-width:0.5;" width="68.7031" x="1073.5" y="937.0986"/><text fill="#000000" font-family="Arial" font-size="12" lengthAdjust="spacing" textLength="48.7031" x="1083.5" y="958.3545">LogStore</text></g><!--entity UdpLogReceiver--><g id="elem_UdpLogReceiver"><rect fill="#F1F1F1" height="33.7988" rx="2.5" ry="2.5" style="stroke:#181818;stroke-width:0.5;" width="109.3848" x="1049.5" y="803.0986"/><text fill="#000000" font-family="Arial" font-size="12" lengthAdjust="spacing" textLength="89.3848" x="1059.5" y="824.3545">UdpLogReceiver</text></g><!--entity HttpLogServer--><g id="elem_HttpLogServer"><rect fill="#F1F1F1" height="33.7988" rx="2.5" ry="2.5" style="stroke:#181818;stroke-width:0.5;" width="97.373" x="1060.5" y="1090.0986"/><text fill="#000000" font-family="Arial" font-size="12" lengthAdjust="spacing" textLength="77.373" x="1070.5" y="1111.3545">HttpLogServer</text></g><!--entity Browser--><g id="elem_Browser"><rect fill="#F1F1F1" height="33.7988" rx="2.5" ry="2.5" style="stroke:#181818;stroke-width:0.5;" width="64.0098" x="1239" y="937.0986"/><text fill="#000000" font-family="Arial" font-size="12" lengthAdjust="spacing" textLength="44.0098" x="1249" y="958.3545">Browser</text></g><!--link AtcClientApp to TcpClient--><g id="link_AtcClientApp_TcpClient"><path d="M601,128.2986 C601,145.3686 601,166.0886 601,183.0886 " fill="none" id="AtcClientApp-to-TcpClient" style="stroke:#181818;stroke-width:1.0;"/><polygon fill="#181818" points="601,189.0886,605,180.0886,601,184.0886,597,180.0886,601,189.0886" style="stroke:#181818;stroke-width:1.0;"/></g><!--link AtcServerDaemon to AtcClientHandler--><g id="link_AtcServerDaemon_AtcClientHandler"><path d="M601,411.2986 C601,428.3686 601,449.0886 601,466.0886 " fill="none" id="AtcServerDaemon-to-AtcClientHandler" style="stroke:#181818;stroke-width:1.0;"/><polygon fill="#181818" points="601,472.0886,605,463.0886,601,467.0886,597,463.0886,601,472.0886" style="stroke:#181818;stroke-width:1.0;"/></g><!--link AtcClientHandler to RemoteAtcService--><g id="link_AtcClientHandler_RemoteAtcService"><path d="M589.47,506.1786 C572.07,530.4786 542.7348,571.4115 525.2148,595.8615 " fill="none" id="AtcClientHandler-to-RemoteAtcService" style="stroke:#181818;stroke-width:1.0;"/><polygon fill="#181818" points="521.72,600.7386,530.2136,595.7528,524.6323,596.6744,523.7108,591.0931,521.72,600.7386" style="stroke:#181818;stroke-width:1.0;"/></g><!--link RemoteAtcService to AddAircraftController--><g id="link_RemoteAtcService_AddAircraftController"><path d="M450.47,619.9986 C384.79,623.7386 278.66,638.1886 205,690.0986 C164.08,718.9386 140.661,769.3913 129.951,797.1313 " fill="none" id="RemoteAtcService-to-AddAircraftController" style="stroke:#181818;stroke-width:1.0;"/><polygon fill="#181818" points="127.79,802.7286,134.7631,795.7734,129.5909,798.0642,127.3,792.892,127.79,802.7286" style="stroke:#181818;stroke-width:1.0;"/></g><!--link RemoteAtcService to ListCompanyFleetController--><g id="link_RemoteAtcService_ListCompanyFleetController"><path d="M482.68,635.2486 C461.39,648.5286 431.74,668.5986 409,690.0986 C370.82,726.1886 338.1653,772.0511 320.9453,797.8011 " fill="none" id="RemoteAtcService-to-ListCompanyFleetController" style="stroke:#181818;stroke-width:1.0;"/><polygon fill="#181818" points="317.61,802.7886,325.938,797.5309,320.3895,798.6324,319.288,793.0838,317.61,802.7886" style="stroke:#181818;stroke-width:1.0;"/></g><!--link RemoteAtcService to ListPilotRosterController--><g id="link_RemoteAtcService_ListPilotRosterController"><path d="M509.28,635.1286 C507.59,672.5786 503.68,759.4747 501.99,796.9947 " fill="none" id="RemoteAtcService-to-ListPilotRosterController" style="stroke:#181818;stroke-width:1.0;"/><polygon fill="#181818" points="501.72,802.9886,506.1209,794.1777,501.945,797.9937,498.129,793.8178,501.72,802.9886" style="stroke:#181818;stroke-width:1.0;"/></g><!--link RemoteAtcService to RemovePilotController--><g id="link_RemoteAtcService_RemovePilotController"><path d="M531.85,635.1886 C549.45,648.7386 574.27,669.1986 593,690.0986 C626.3,727.2386 654.1794,772.4386 668.9194,797.8486 " fill="none" id="RemoteAtcService-to-RemovePilotController" style="stroke:#181818;stroke-width:1.0;"/><polygon fill="#181818" points="671.93,803.0386,670.874,793.2465,669.4211,798.7136,663.954,797.2607,671.93,803.0386" style="stroke:#181818;stroke-width:1.0;"/></g><!--link AddAircraftController to Aircraft--><g id="link_AddAircraftController_Aircraft"><path d="M154.35,837.1486 C206.55,863.0586 303.1853,911.0117 353.3453,935.9017 " fill="none" id="AddAircraftController-to-Aircraft" style="stroke:#181818;stroke-width:1.0;"/><polygon fill="#181818" points="358.72,938.5686,352.436,930.985,354.2411,936.3461,348.88,938.1513,358.72,938.5686" style="stroke:#181818;stroke-width:1.0;"/></g><!--link ListCompanyFleetController to Aircraft--><g id="link_ListCompanyFleetController_Aircraft"><path d="M316.93,837.2886 C332.48,862.6186 359.2508,906.2554 374.8508,931.6654 " fill="none" id="ListCompanyFleetController-to-Aircraft" style="stroke:#181818;stroke-width:1.0;"/><polygon fill="#181818" points="377.99,936.7786,376.6901,927.0159,375.374,932.5176,369.8724,931.2015,377.99,936.7786" style="stroke:#181818;stroke-width:1.0;"/></g><!--link ListPilotRosterController to Pilot--><g id="link_ListPilotRosterController_Pilot"><path d="M497.69,837.2886 C492.51,862.6186 483.7429,905.4905 478.5429,930.9005 " fill="none" id="ListPilotRosterController-to-Pilot" style="stroke:#181818;stroke-width:1.0;"/><polygon fill="#181818" points="477.34,936.7786,483.0632,928.7633,478.3424,931.8802,475.2256,927.1594,477.34,936.7786" style="stroke:#181818;stroke-width:1.0;"/></g><!--link RemovePilotController to Pilot--><g id="link_RemovePilotController_Pilot"><path d="M655.62,837.2886 C614.49,863.5186 539.0586,911.6121 500.5686,936.1621 " fill="none" id="RemovePilotController-to-Pilot" style="stroke:#181818;stroke-width:1.0;"/><polygon fill="#181818" points="495.51,939.3886,505.2489,937.9213,499.7255,936.6999,500.9469,931.1764,495.51,939.3886" style="stroke:#181818;stroke-width:1.0;"/></g><!--link UdpLogReceiver to LogStore--><g id="link_UdpLogReceiver_LogStore"><path d="M1104.49,837.2886 C1105.26,862.6186 1106.5583,905.3714 1107.3283,930.7814 " fill="none" id="UdpLogReceiver-to-LogStore" style="stroke:#181818;stroke-width:1.0;"/><polygon fill="#181818" points="1107.51,936.7786,1111.2356,927.6616,1107.3586,931.7809,1103.2392,927.9039,1107.51,936.7786" style="stroke:#181818;stroke-width:1.0;"/></g><!--link LogStore to HttpLogServer--><g id="link_LogStore_HttpLogServer"><path d="M1108.11,971.2586 C1108.3,1000.3186 1108.6607,1055.0788 1108.8507,1084.0588 " fill="none" id="LogStore-to-HttpLogServer" style="stroke:#181818;stroke-width:1.0;"/><polygon fill="#181818" points="1108.89,1090.0586,1112.8309,1081.0326,1108.8572,1085.0587,1104.8311,1081.0851,1108.89,1090.0586" style="stroke:#181818;stroke-width:1.0;"/></g><!--link TcpClient to AtcServerDaemon--><g id="link_TcpClient_AtcServerDaemon"><path d="M601,223.2786 C601,258.5486 601,335.9786 601,371.0886 " fill="none" id="TcpClient-to-AtcServerDaemon" style="stroke:#181818;stroke-width:1.0;"/><polygon fill="#181818" points="601,377.0886,605,368.0886,601,372.0886,597,368.0886,601,377.0886" style="stroke:#181818;stroke-width:1.0;"/><text fill="#000000" font-family="Arial" font-size="12" lengthAdjust="spacing" textLength="62.0215" x="602" y="267.3545">TCP (1078)</text></g><!--link AtcClientHandler to UdpLoggerClient--><g id="link_AtcClientHandler_UdpLoggerClient"><path d="M612.65,506.1786 C630.25,530.4786 659.9203,571.4294 677.6303,595.8794 " fill="none" id="AtcClientHandler-to-UdpLoggerClient" style="stroke:#181818;stroke-width:1.0;"/><polygon fill="#181818" points="681.15,600.7386,679.1099,591.1034,678.2169,596.6893,672.631,595.7963,681.15,600.7386" style="stroke:#181818;stroke-width:1.0;"/><text fill="#000000" font-family="Arial" font-size="12" lengthAdjust="spacing" textLength="64.0254" x="646" y="550.3545">UDP events</text></g><!--link UdpLoggerClient to UdpLogReceiver--><g id="link_UdpLoggerClient_UdpLogReceiver"><path d="M748.18,624.1886 C807.51,631.5986 902.98,649.2486 975,690.0986 C1026.79,719.4786 1068.51,770.4563 1088.92,798.0263 " fill="none" id="UdpLoggerClient-to-UdpLogReceiver" style="stroke:#181818;stroke-width:1.0;"/><polygon fill="#181818" points="1092.49,802.8486,1090.3499,793.2351,1089.515,798.83,1083.9201,797.9951,1092.49,802.8486" style="stroke:#181818;stroke-width:1.0;"/><text fill="#000000" font-family="Arial" font-size="12" lengthAdjust="spacing" textLength="66.6797" x="956" y="679.3545">UDP (US90)</text></g><!--link RemoteAtcService to Relational Database--><g id="link_RemoteAtcService_Relational Database"><path d="M542.06,635.1886 C573.35,650.0886 622.71,671.4986 668,682.0986 C689.49,687.1286 746.98,680.7986 767,690.0986 C821.36,715.3586 862.2054,769.1906 881.3654,797.8506 " fill="none" id="RemoteAtcService-to-Relational Database" style="stroke:#181818;stroke-width:1.0;"/><polygon fill="#181818" points="884.7,802.8386,883.0234,793.1335,881.9211,798.682,876.3727,797.5797,884.7,802.8386" style="stroke:#181818;stroke-width:1.0;"/><text fill="#000000" font-family="Arial" font-size="12" lengthAdjust="spacing" textLength="57.3457" x="669" y="679.3545">SQL (JPA)</text></g><!--link Browser to HttpLogServer--><g id="link_Browser_HttpLogServer"><path d="M1253.66,971.2586 C1222.48,1000.3186 1161.689,1056.9875 1130.599,1085.9675 " fill="none" id="Browser-to-HttpLogServer" style="stroke:#181818;stroke-width:1.0;"/><polygon fill="#181818" points="1126.21,1090.0586,1135.5208,1086.848,1129.8675,1086.6494,1130.066,1080.996,1126.21,1090.0586" style="stroke:#181818;stroke-width:1.0;"/><text fill="#000000" font-family="Arial" font-size="12" lengthAdjust="spacing" textLength="72.6738" x="1191" y="1039.3545">HTTP (US91)</text></g><!--SRC=[VLNBZfim5Dtp5TQimcAaoMpwM5IYGQEeIaTfI3gBoImSSuTQCJOo3b5QZTIFw1VsI-e744ESxk3USuuFzs4KLGpG9hjxznxz_Vq7pKHP2GvSePJYGk8IJLAec3YL9lQTmZ6EedfFUOLDCeTNV63gGN3rY4j0YQIOXVCP_GbeUkybINTMfaxQX0IYC2yOU10kSXXd8nD4Dqz2xck55HLyooVhsHBD6DLYyGt2DJhMK_GhGkWvKSJ5awfwCO4rgLp0lFbPT7lx2VNPwAqxQCR48KUF-ddBlsBAaSOoIkp9zYnY0Ewu2fCzBZJ9-Cb0DY0jH94gaus5E4ykbs8e1N_fe-xeEUOv0sd2RxwcuL02Lh2MpN9VT88hBQEWbTMG2-fCDq0AnbexH4dcqPCyJwWa4h-gCx1rjQ2rCaE1-Uc10OG1Iyg4MebQWRp86syDMCGmDp2OYbANrfhBHUbxQusrQbRdWhr9k-vRXKDUUGgRl5g8ej3M-hQ_kTRxJR3T7xV0dv0sP77ZUclSEEJqGeMz1hvUwVynWgM_HWZsmdnaoATb3Ef_tM4O6_Jce7qVWvO6cE0YfbZX7Qx1Nx9yPt9kxLV0x89YXZhe5ILNA9GG0dMzvMPKA2zyNIQANdWmSXv6Zvotu6xaLa20De5Xdw_N0_8FfNpsNBzgkWDqv6SJKKBQtHxgkrbeqwRqxQED3yJE5HZUda-mGv-bEDOWk-lptjMnZThQzNTZjok3_Vc8p9qtcUe_IHm5jsQqY9fXYWYDVgwZSV9Cw3_JuIURxCDT70NdEzXspSk-BT3aopA9e_PxBakZKROjHduQ_mC0]--></g></svg>