<svg xmlns="http://www.w3.org/2000/svg" xmlns:xlink="http://www.w3.org/1999/xlink" contentStyleType="text/css" height="970px" preserveAspectRatio="none" style="width:1050px;height:970px;background:#FFFFFF;" version="1.1" viewBox="0 0 1050 970" width="1050px" zoomAndPan="magnify"><title>sd_us078_atcc_remote_access</title><defs/><g><text fill="#000000" font-family="Arial" font-size="14" font-weight="bold" lengthAdjust="spacing" textLength="208.5986" x="434.8784" y="28.1318">sd_us078_atcc_remote_access</text><rect fill="#FFFFFF" height="812.166" style="stroke:#181818;stroke-width:1.0;" width="10" x="71.6846" y="100.6963"/><rect fill="#FFFFFF" height="83.3965" style="stroke:#181818;stroke-width:1.0;" width="10" x="246.4268" y="100.6963"/><rect fill="#FFFFFF" height="33.7988" style="stroke:#181818;stroke-width:1.0;" width="10" x="246.4268" y="879.0635"/><rect fill="#FFFFFF" height="27.7988" style="stroke:#181818;stroke-width:1.0;" width="10" x="404.7881" y="128.4951"/><rect fill="#FFFFFF" height="772.5684" style="stroke:#181818;stroke-width:1.0;" width="10" x="602.5244" y="156.2939"/><rect fill="#FFFFFF" height="639.373" style="stroke:#181818;stroke-width:1.0;" width="10" x="607.5244" y="211.8916"/><rect fill="#FFFFFF" height="27.7988" style="stroke:#181818;stroke-width:1.0;" width="10" x="809.2861" y="239.6904"/><rect fill="#FFFFFF" height="27.7988" style="stroke:#181818;stroke-width:1.0;" width="10" x="809.2861" y="378.6846"/><rect fill="#FFFFFF" height="27.7988" style="stroke:#181818;stroke-width:1.0;" width="10" x="809.2861" y="489.8799"/><rect fill="#FFFFFF" height="27.7988" style="stroke:#181818;stroke-width:1.0;" width="10" x="809.2861" y="601.0752"/><rect fill="#FFFFFF" height="27.7988" style="stroke:#181818;stroke-width:1.0;" width="10" x="809.2861" y="712.2705"/><rect fill="#FFFFFF" height="528.1777" style="stroke:#181818;stroke-width:1.0;" width="10" x="987.6631" y="295.2881"/><line style="stroke:#181818;stroke-width:0.5;stroke-dasharray:5.0,5.0;" x1="76" x2="76" y1="70.8975" y2="937.8623"/><line style="stroke:#181818;stroke-width:0.5;stroke-dasharray:5.0,5.0;" x1="251.085" x2="251.085" y1="70.8975" y2="937.8623"/><line style="stroke:#181818;stroke-width:0.5;stroke-dasharray:5.0,5.0;" x1="409.7686" x2="409.7686" y1="70.8975" y2="937.8623"/><line style="stroke:#181818;stroke-width:0.5;stroke-dasharray:5.0,5.0;" x1="607.5039" x2="607.5039" y1="70.8975" y2="937.8623"/><line style="stroke:#181818;stroke-width:0.5;stroke-dasharray:5.0,5.0;" x1="813.6016" x2="813.6016" y1="70.8975" y2="937.8623"/><line style="stroke:#181818;stroke-width:0.5;stroke-dasharray:5.0,5.0;" x1="991.9707" x2="991.9707" y1="70.8975" y2="937.8623"/><rect fill="#E2E2F0" height="27.7988" rx="2.5" ry="2.5" style="stroke:#181818;stroke-width:0.5;" width="83.3691" x="35" y="42.0986"/><text fill="#000000" font-family="Arial" font-size="12" lengthAdjust="spacing" textLength="69.3691" x="42" y="60.3545">AtcClientApp</text><rect fill="#E2E2F0" height="27.7988" rx="2.5" ry="2.5" style="stroke:#181818;stroke-width:0.5;" width="83.3691" x="35" y="936.8623"/><text fill="#000000" font-family="Arial" font-size="12" lengthAdjust="spacing" textLength="69.3691" x="42" y="955.1182">AtcClientApp</text><rect fill="#E2E2F0" height="27.7988" rx="2.5" ry="2.5" style="stroke:#181818;stroke-width:0.5;" width="64.6836" x="219.085" y="42.0986"/><text fill="#000000" font-family="Arial" font-size="12" lengthAdjust="spacing" textLength="50.6836" x="226.085" y="60.3545">TcpClient</text><rect fill="#E2E2F0" height="27.7988" rx="2.5" ry="2.5" style="stroke:#181818;stroke-width:0.5;" width="64.6836" x="219.085" y="936.8623"/><text fill="#000000" font-family="Arial" font-size="12" lengthAdjust="spacing" textLength="50.6836" x="226.085" y="955.1182">TcpClient</text><rect fill="#E2E2F0" height="27.7988" rx="2.5" ry="2.5" style="stroke:#181818;stroke-width:0.5;" width="112.0391" x="353.7686" y="42.0986"/><text fill="#000000" font-family="Arial" font-size="12" lengthAdjust="spacing" textLength="98.0391" x="360.7686" y="60.3545">AtcServerDaemon</text><rect fill="#E2E2F0" height="27.7988" rx="2.5" ry="2.5" style="stroke:#181818;stroke-width:0.5;" width="112.0391" x="353.7686" y="936.8623"/><text fill="#000000" font-family="Arial" font-size="12" lengthAdjust="spacing" textLength="98.0391" x="360.7686" y="955.1182">AtcServerDaemon</text><rect fill="#E2E2F0" height="27.7988" rx="2.5" ry="2.5" style="stroke:#181818;stroke-width:0.5;" width="104.041" x="555.5039" y="42.0986"/><text fill="#000000" font-family="Arial" font-size="12" lengthAdjust="spacing" textLength="90.041" x="562.5039" y="60.3545">AtcClientHandler</text><rect fill="#E2E2F0" height="27.7988" rx="2.5" ry="2.5" style="stroke:#181818;stroke-width:0.5;" width="104.041" x="555.5039" y="936.8623"/><text fill="#000000" font-family="Arial" font-size="12" lengthAdjust="spacing" textLength="90.041" x="562.5039" y="955.1182">AtcClientHandler</text><rect fill="#E2E2F0" height="27.7988" rx="2.5" ry="2.5" style="stroke:#181818;stroke-width:0.5;" width="113.3691" x="757.6016" y="42.0986"/><text fill="#000000" font-family="Arial" font-size="12" lengthAdjust="spacing" textLength="99.3691" x="764.6016" y="60.3545">RemoteAtcService</text><rect fill="#E2E2F0" height="27.7988" rx="2.5" ry="2.5" style="stroke:#181818;stroke-width:0.5;" width="113.3691" x="757.6016" y="936.8623"/><text fill="#000000" font-family="Arial" font-size="12" lengthAdjust="spacing" textLength="99.3691" x="764.6016" y="955.1182">RemoteAtcService</text><rect fill="#E2E2F0" height="27.7988" rx="2.5" ry="2.5" style="stroke:#181818;stroke-width:0.5;" width="103.3848" x="940.9707" y="42.0986"/><text fill="#000000" font-family="Arial" font-size="12" lengthAdjust="spacing" textLength="89.3848" x="947.9707" y="60.3545">UdpLogReceiver</text><rect fill="#E2E2F0" height="27.7988" rx="2.5" ry="2.5" style="stroke:#181818;stroke-width:0.5;" width="103.3848" x="940.9707" y="936.8623"/><text fill="#000000" font-family="Arial" font-size="12" lengthAdjust="spacing" textLength="89.3848" x="947.9707" y="955.1182">UdpLogReceiver</text><rect fill="#FFFFFF" height="812.166" style="stroke:#181818;stroke-width:1.0;" width="10" x="71.6846" y="100.6963"/><rect fill="#FFFFFF" height="83.3965" style="stroke:#181818;stroke-width:1.0;" width="10" x="246.4268" y="100.6963"/><rect fill="#FFFFFF" height="33.7988" style="stroke:#181818;stroke-width:1.0;" width="10" x="246.4268" y="879.0635"/><rect fill="#FFFFFF" height="27.7988" style="stroke:#181818;stroke-width:1.0;" width="10" x="404.7881" y="128.4951"/><rect fill="#FFFFFF" height="772.5684" style="stroke:#181818;stroke-width:1.0;" width="10" x="602.5244" y="156.2939"/><rect fill="#FFFFFF" height="639.373" style="stroke:#181818;stroke-width:1.0;" width="10" x="607.5244" y="211.8916"/><rect fill="#FFFFFF" height="27.7988" style="stroke:#181818;stroke-width:1.0;" width="10" x="809.2861" y="239.6904"/><rect fill="#FFFFFF" height="27.7988" style="stroke:#181818;stroke-width:1.0;" width="10" x="809.2861" y="378.6846"/><rect fill="#FFFFFF" height="27.7988" style="stroke:#181818;stroke-width:1.0;" width="10" x="809.2861" y="489.8799"/><rect fill="#FFFFFF" height="27.7988" style="stroke:#181818;stroke-width:1.0;" width="10" x="809.2861" y="601.0752"/><rect fill="#FFFFFF" height="27.7988" style="stroke:#181818;stroke-width:1.0;" width="10" x="809.2861" y="712.2705"/><rect fill="#FFFFFF" height="528.1777" style="stroke:#181818;stroke-width:1.0;" width="10" x="987.6631" y="295.2881"/><polygon fill="#181818" points="234.4268,96.6963,244.4268,100.6963,234.4268,104.6963,238.4268,100.6963" style="stroke:#181818;stroke-width:1.0;"/><line style="stroke:#181818;stroke-width:1.0;" x1="81.6846" x2="240.4268" y1="100.6963" y2="100.6963"/><text fill="#000000" font-family="Arial" font-size="12" font-weight="bold" lengthAdjust="spacing" textLength="6.6738" x="88.6846" y="96.1533">1</text><text fill="#000000" font-family="Arial" font-size="12" lengthAdjust="spacing" textLength="140.0684" x="99.3584" y="96.1533">new TcpClient(host, 1078)</text><polygon fill="#181818" points="392.7881,124.4951,402.7881,128.4951,392.7881,132.4951,396.7881,128.4951" style="stroke:#181818;stroke-width:1.0;"/><line style="stroke:#181818;stroke-width:1.0;" x1="256.4268" x2="398.7881" y1="128.4951" y2="128.4951"/><text fill="#000000" font-family="Arial" font-size="12" font-weight="bold" lengthAdjust="spacing" textLength="6.6738" x="290.5889" y="123.9521">2</text><text fill="#000000" font-family="Arial" font-size="12" lengthAdjust="spacing" textLength="69.3633" x="301.2627" y="123.9521">TCP connect</text><polygon fill="#181818" points="590.5244,152.2939,600.5244,156.2939,590.5244,160.2939,594.5244,156.2939" style="stroke:#181818;stroke-width:1.0;"/><line style="stroke:#181818;stroke-width:1.0;" x1="409.7881" x2="596.5244" y1="156.2939" y2="156.2939"/><text fill="#000000" font-family="Arial" font-size="12" font-weight="bold" lengthAdjust="spacing" textLength="6.6738" x="421.7881" y="151.751">3</text><text fill="#000000" font-family="Arial" font-size="12" lengthAdjust="spacing" textLength="158.0625" x="432.4619" y="151.751">new AtcClientHandler(socket)</text><polygon fill="#181818" points="92.6846,180.0928,82.6846,184.0928,92.6846,188.0928,88.6846,184.0928" style="stroke:#181818;stroke-width:1.0;"/><line style="stroke:#181818;stroke-width:1.0;stroke-dasharray:2.0,2.0;" x1="86.6846" x2="250.4268" y1="184.0928" y2="184.0928"/><text fill="#000000" font-family="Arial" font-size="12" font-weight="bold" lengthAdjust="spacing" textLength="6.6738" x="133.5303" y="179.5498">4</text><text fill="#000000" font-family="Arial" font-size="12" lengthAdjust="spacing" textLength="55.377" x="144.2041" y="179.5498">connected</text><polygon fill="#181818" points="595.5244,207.8916,605.5244,211.8916,595.5244,215.8916,599.5244,211.8916" style="stroke:#181818;stroke-width:1.0;"/><line style="stroke:#181818;stroke-width:1.0;" x1="81.6846" x2="601.5244" y1="211.8916" y2="211.8916"/><text fill="#000000" font-family="Arial" font-size="12" font-weight="bold" lengthAdjust="spacing" textLength="6.6738" x="278.7959" y="207.3486">5</text><text fill="#000000" font-family="Arial" font-size="12" lengthAdjust="spacing" textLength="120.9434" x="289.4697" y="207.3486">AUTH|atc1|Password1</text><polygon fill="#181818" points="797.2861,235.6904,807.2861,239.6904,797.2861,243.6904,801.2861,239.6904" style="stroke:#181818;stroke-width:1.0;"/><line style="stroke:#181818;stroke-width:1.0;" x1="617.5244" x2="803.2861" y1="239.6904" y2="239.6904"/><text fill="#000000" font-family="Arial" font-size="12" font-weight="bold" lengthAdjust="spacing" textLength="6.6738" x="627.0244" y="235.1475">6</text><text fill="#000000" font-family="Arial" font-size="12" lengthAdjust="spacing" textLength="162.0879" x="637.6982" y="235.1475">authenticate(atc1, Password1)</text><polygon fill="#181818" points="628.5244,263.4893,618.5244,267.4893,628.5244,271.4893,624.5244,267.4893" style="stroke:#181818;stroke-width:1.0;"/><line style="stroke:#181818;stroke-width:1.0;stroke-dasharray:2.0,2.0;" x1="622.5244" x2="813.2861" y1="267.4893" y2="267.4893"/><text fill="#000000" font-family="Arial" font-size="12" font-weight="bold" lengthAdjust="spacing" textLength="6.6738" x="682.5518" y="262.9463">7</text><text fill="#000000" font-family="Arial" font-size="12" lengthAdjust="spacing" textLength="56.0332" x="693.2256" y="262.9463">auth result</text><polygon fill="#181818" points="975.6631,291.2881,985.6631,295.2881,975.6631,299.2881,979.6631,295.2881" style="stroke:#181818;stroke-width:1.0;"/><line style="stroke:#181818;stroke-width:1.0;" x1="617.5244" x2="981.6631" y1="295.2881" y2="295.2881"/><text fill="#000000" font-family="Arial" font-size="12" font-weight="bold" lengthAdjust="spacing" textLength="6.6738" x="752.2451" y="290.7451">8</text><text fill="#000000" font-family="Arial" font-size="12" lengthAdjust="spacing" textLength="90.0234" x="762.9189" y="290.7451">UDP LOGIN_OK</text><polygon fill="#181818" points="92.6846,319.0869,82.6846,323.0869,92.6846,327.0869,88.6846,323.0869" style="stroke:#181818;stroke-width:1.0;"/><line style="stroke:#181818;stroke-width:1.0;stroke-dasharray:2.0,2.0;" x1="86.6846" x2="606.5244" y1="323.0869" y2="323.0869"/><text fill="#000000" font-family="Arial" font-size="12" font-weight="bold" lengthAdjust="spacing" textLength="6.6738" x="310.9287" y="318.5439">9</text><text fill="#000000" font-family="Arial" font-size="12" lengthAdjust="spacing" textLength="56.6777" x="321.6025" y="318.5439">AUTH_OK</text><polygon fill="#181818" points="595.5244,346.8857,605.5244,350.8857,595.5244,354.8857,599.5244,350.8857" style="stroke:#181818;stroke-width:1.0;"/><line style="stroke:#181818;stroke-width:1.0;" x1="81.6846" x2="601.5244" y1="350.8857" y2="350.8857"/><text fill="#000000" font-family="Arial" font-size="12" font-weight="bold" lengthAdjust="spacing" textLength="13.3477" x="301.252" y="346.3428">10</text><text fill="#000000" font-family="Arial" font-size="12" lengthAdjust="spacing" textLength="69.3574" x="318.5996" y="346.3428">LIST_FLEET</text><polygon fill="#181818" points="797.2861,374.6846,807.2861,378.6846,797.2861,382.6846,801.2861,378.6846" style="stroke:#181818;stroke-width:1.0;"/><line style="stroke:#181818;stroke-width:1.0;" x1="617.5244" x2="803.2861" y1="378.6846" y2="378.6846"/><text fill="#000000" font-family="Arial" font-size="12" font-weight="bold" lengthAdjust="spacing" textLength="13.3477" x="680.0635" y="374.1416">11</text><text fill="#000000" font-family="Arial" font-size="12" lengthAdjust="spacing" textLength="49.3359" x="697.4111" y="374.1416">listFleet()</text><polygon fill="#181818" points="628.5244,402.4834,618.5244,406.4834,628.5244,410.4834,624.5244,406.4834" style="stroke:#181818;stroke-width:1.0;"/><line style="stroke:#181818;stroke-width:1.0;stroke-dasharray:2.0,2.0;" x1="622.5244" x2="813.2861" y1="406.4834" y2="406.4834"/><text fill="#000000" font-family="Arial" font-size="12" font-weight="bold" lengthAdjust="spacing" textLength="13.3477" x="668.0029" y="401.9404">12</text><text fill="#000000" font-family="Arial" font-size="12" lengthAdjust="spacing" textLength="78.457" x="685.3506" y="401.9404">OK|CS-TRA,...</text><polygon fill="#181818" points="92.6846,430.2822,82.6846,434.2822,92.6846,438.2822,88.6846,434.2822" style="stroke:#181818;stroke-width:1.0;"/><line style="stroke:#181818;stroke-width:1.0;stroke-dasharray:2.0,2.0;" x1="86.6846" x2="606.5244" y1="434.2822" y2="434.2822"/><text fill="#000000" font-family="Arial" font-size="12" font-weight="bold" lengthAdjust="spacing" textLength="13.3477" x="296.7021" y="429.7393">13</text><text fill="#000000" font-family="Arial" font-size="12" lengthAdjust="spacing" textLength="78.457" x="314.0498" y="429.7393">OK|CS-TRA,...</text><polygon fill="#181818" points="595.5244,458.0811,605.5244,462.0811,595.5244,466.0811,599.5244,462.0811" style="stroke:#181818;stroke-width:1.0;"/><line style="stroke:#181818;stroke-width:1.0;" x1="81.6846" x2="601.5244" y1="462.0811" y2="462.0811"/><text fill="#000000" font-family="Arial" font-size="12" font-weight="bold" lengthAdjust="spacing" textLength="13.3477" x="180.1855" y="457.5381">14</text><text fill="#000000" font-family="Arial" font-size="12" lengthAdjust="spacing" textLength="311.4902" x="197.5332" y="457.5381">ADD_AIRCRAFT|CS-TRA|Portugal|A320|TP|2|2024-01-15</text><polygon fill="#181818" points="797.2861,485.8799,807.2861,489.8799,797.2861,493.8799,801.2861,489.8799" style="stroke:#181818;stroke-width:1.0;"/><line style="stroke:#181818;stroke-width:1.0;" x1="617.5244" x2="803.2861" y1="489.8799" y2="489.8799"/><text fill="#000000" font-family="Arial" font-size="12" font-weight="bold" lengthAdjust="spacing" textLength="13.3477" x="641.0547" y="485.3369">15</text><text fill="#000000" font-family="Arial" font-size="12" lengthAdjust="spacing" textLength="127.3535" x="658.4023" y="485.3369">addAircraft(CS-TRA, ...)</text><polygon fill="#181818" points="628.5244,513.6787,618.5244,517.6787,628.5244,521.6787,624.5244,517.6787" style="stroke:#181818;stroke-width:1.0;"/><line style="stroke:#181818;stroke-width:1.0;stroke-dasharray:2.0,2.0;" x1="622.5244" x2="813.2861" y1="517.6787" y2="517.6787"/><text fill="#000000" font-family="Arial" font-size="12" font-weight="bold" lengthAdjust="spacing" textLength="13.3477" x="641.6182" y="513.1357">16</text><text fill="#000000" font-family="Arial" font-size="12" lengthAdjust="spacing" textLength="131.2266" x="658.9658" y="513.1357">"Aircraft CS-TRA added"</text><polygon fill="#181818" points="92.6846,541.4775,82.6846,545.4775,92.6846,549.4775,88.6846,545.4775" style="stroke:#181818;stroke-width:1.0;"/><line style="stroke:#181818;stroke-width:1.0;stroke-dasharray:2.0,2.0;" x1="86.6846" x2="606.5244" y1="545.4775" y2="545.4775"/><text fill="#000000" font-family="Arial" font-size="12" font-weight="bold" lengthAdjust="spacing" textLength="13.3477" x="264.3496" y="540.9346">17</text><text fill="#000000" font-family="Arial" font-size="12" lengthAdjust="spacing" textLength="143.1621" x="281.6973" y="540.9346">OK|Aircraft CS-TRA added</text><polygon fill="#181818" points="595.5244,569.2764,605.5244,573.2764,595.5244,577.2764,599.5244,573.2764" style="stroke:#181818;stroke-width:1.0;"/><line style="stroke:#181818;stroke-width:1.0;" x1="81.6846" x2="601.5244" y1="573.2764" y2="573.2764"/><text fill="#000000" font-family="Arial" font-size="12" font-weight="bold" lengthAdjust="spacing" textLength="13.3477" x="289.3574" y="568.7334">18</text><text fill="#000000" font-family="Arial" font-size="12" lengthAdjust="spacing" textLength="93.1465" x="306.7051" y="568.7334">LIST_PILOTS|TP</text><polygon fill="#181818" points="797.2861,597.0752,807.2861,601.0752,797.2861,605.0752,801.2861,601.0752" style="stroke:#181818;stroke-width:1.0;"/><line style="stroke:#181818;stroke-width:1.0;" x1="617.5244" x2="803.2861" y1="601.0752" y2="601.0752"/><text fill="#000000" font-family="Arial" font-size="12" font-weight="bold" lengthAdjust="spacing" textLength="13.3477" x="666.8037" y="596.5322">19</text><text fill="#000000" font-family="Arial" font-size="12" lengthAdjust="spacing" textLength="75.8555" x="684.1514" y="596.5322">listPilots("TP")</text><polygon fill="#181818" points="628.5244,624.874,618.5244,628.874,628.5244,632.874,624.5244,628.874" style="stroke:#181818;stroke-width:1.0;"/><line style="stroke:#181818;stroke-width:1.0;stroke-dasharray:2.0,2.0;" x1="622.5244" x2="813.2861" y1="628.874" y2="628.874"/><text fill="#000000" font-family="Arial" font-size="12" font-weight="bold" lengthAdjust="spacing" textLength="13.3477" x="666.5498" y="624.3311">20</text><text fill="#000000" font-family="Arial" font-size="12" lengthAdjust="spacing" textLength="81.3633" x="683.8975" y="624.3311">List&lt;PilotDTO&gt;</text><polygon fill="#181818" points="92.6846,652.6729,82.6846,656.6729,92.6846,660.6729,88.6846,656.6729" style="stroke:#181818;stroke-width:1.0;"/><line style="stroke:#181818;stroke-width:1.0;stroke-dasharray:2.0,2.0;" x1="86.6846" x2="606.5244" y1="656.6729" y2="656.6729"/><text fill="#000000" font-family="Arial" font-size="12" font-weight="bold" lengthAdjust="spacing" textLength="13.3477" x="289.3428" y="652.1299">21</text><text fill="#000000" font-family="Arial" font-size="12" lengthAdjust="spacing" textLength="93.1758" x="306.6904" y="652.1299">OK|P100,P101,...</text><polygon fill="#181818" points="595.5244,680.4717,605.5244,684.4717,595.5244,688.4717,599.5244,684.4717" style="stroke:#181818;stroke-width:1.0;"/><line style="stroke:#181818;stroke-width:1.0;" x1="81.6846" x2="601.5244" y1="684.4717" y2="684.4717"/><text fill="#000000" font-family="Arial" font-size="12" font-weight="bold" lengthAdjust="spacing" textLength="13.3477" x="273.6807" y="679.9287">22</text><text fill="#000000" font-family="Arial" font-size="12" lengthAdjust="spacing" textLength="124.5" x="291.0283" y="679.9287">REMOVE_PILOT|P100</text><polygon fill="#181818" points="797.2861,708.2705,807.2861,712.2705,797.2861,716.2705,801.2861,712.2705" style="stroke:#181818;stroke-width:1.0;"/><line style="stroke:#181818;stroke-width:1.0;" x1="617.5244" x2="803.2861" y1="712.2705" y2="712.2705"/><text fill="#000000" font-family="Arial" font-size="12" font-weight="bold" lengthAdjust="spacing" textLength="13.3477" x="650.7842" y="707.7275">23</text><text fill="#000000" font-family="Arial" font-size="12" lengthAdjust="spacing" textLength="107.8945" x="668.1318" y="707.7275">removePilot("P100")</text><polygon fill="#181818" points="628.5244,736.0693,618.5244,740.0693,628.5244,744.0693,624.5244,740.0693" style="stroke:#181818;stroke-width:1.0;"/><line style="stroke:#181818;stroke-width:1.0;stroke-dasharray:2.0,2.0;" x1="622.5244" x2="813.2861" y1="740.0693" y2="740.0693"/><text fill="#000000" font-family="Arial" font-size="12" font-weight="bold" lengthAdjust="spacing" textLength="13.3477" x="650.6094" y="735.5264">24</text><text fill="#000000" font-family="Arial" font-size="12" lengthAdjust="spacing" textLength="113.2441" x="667.957" y="735.5264">"Pilot P100 removed"</text><polygon fill="#181818" points="92.6846,763.8682,82.6846,767.8682,92.6846,771.8682,88.6846,767.8682" style="stroke:#181818;stroke-width:1.0;"/><line style="stroke:#181818;stroke-width:1.0;stroke-dasharray:2.0,2.0;" x1="86.6846" x2="606.5244" y1="767.8682" y2="767.8682"/><text fill="#000000" font-family="Arial" font-size="12" font-weight="bold" lengthAdjust="spacing" textLength="13.3477" x="273.3408" y="763.3252">25</text><text fill="#000000" font-family="Arial" font-size="12" lengthAdjust="spacing" textLength="125.1797" x="290.6885" y="763.3252">OK|Pilot P100 removed</text><polygon fill="#181818" points="595.5244,791.667,605.5244,795.667,595.5244,799.667,599.5244,795.667" style="stroke:#181818;stroke-width:1.0;"/><line style="stroke:#181818;stroke-width:1.0;" x1="81.6846" x2="601.5244" y1="795.667" y2="795.667"/><text fill="#000000" font-family="Arial" font-size="12" font-weight="bold" lengthAdjust="spacing" textLength="13.3477" x="321.5986" y="791.124">26</text><text fill="#000000" font-family="Arial" font-size="12" lengthAdjust="spacing" textLength="28.6641" x="338.9463" y="791.124">QUIT</text><polygon fill="#181818" points="980.6631,819.4658,990.6631,823.4658,980.6631,827.4658,984.6631,823.4658" style="stroke:#181818;stroke-width:1.0;"/><line style="stroke:#181818;stroke-width:1.0;" x1="617.5244" x2="986.6631" y1="823.4658" y2="823.4658"/><text fill="#000000" font-family="Arial" font-size="12" font-weight="bold" lengthAdjust="spacing" textLength="13.3477" x="756.749" y="818.9229">27</text><text fill="#000000" font-family="Arial" font-size="12" lengthAdjust="spacing" textLength="79.3418" x="774.0967" y="818.9229">UDP LOGOUT</text><polygon fill="#181818" points="92.6846,847.2646,82.6846,851.2646,92.6846,855.2646,88.6846,851.2646" style="stroke:#181818;stroke-width:1.0;"/><line style="stroke:#181818;stroke-width:1.0;stroke-dasharray:2.0,2.0;" x1="86.6846" x2="601.5244" y1="851.2646" y2="851.2646"/><text fill="#000000" font-family="Arial" font-size="12" font-weight="bold" lengthAdjust="spacing" textLength="13.3477" x="321.4248" y="846.7217">28</text><text fill="#000000" font-family="Arial" font-size="12" lengthAdjust="spacing" textLength="24.0117" x="338.7725" y="846.7217">BYE</text><polygon fill="#181818" points="234.4268,875.0635,244.4268,879.0635,234.4268,883.0635,238.4268,879.0635" style="stroke:#181818;stroke-width:1.0;"/><line style="stroke:#181818;stroke-width:1.0;" x1="81.6846" x2="240.4268" y1="879.0635" y2="879.0635"/><text fill="#000000" font-family="Arial" font-size="12" font-weight="bold" lengthAdjust="spacing" textLength="13.3477" x="137.3789" y="874.5205">29</text><text fill="#000000" font-family="Arial" font-size="12" lengthAdjust="spacing" textLength="36.0059" x="154.7266" y="874.5205">close()</text><line style="stroke:#181818;stroke-width:1.0;" x1="256.4268" x2="298.4268" y1="911.8623" y2="911.8623"/><line style="stroke:#181818;stroke-width:1.0;" x1="298.4268" x2="298.4268" y1="911.8623" y2="924.8623"/><line style="stroke:#181818;stroke-width:1.0;" x1="251.4268" x2="298.4268" y1="924.8623" y2="924.8623"/><polygon fill="#181818" points="261.4268,920.8623,251.4268,924.8623,261.4268,928.8623,257.4268,924.8623" style="stroke:#181818;stroke-width:1.0;"/><text fill="#000000" font-family="Arial" font-size="12" font-weight="bold" lengthAdjust="spacing" textLength="13.3477" x="263.4268" y="907.3193">30</text><text fill="#000000" font-family="Arial" font-size="12" lengthAdjust="spacing" textLength="74.0215" x="280.7744" y="907.3193">socket.close()</text><!--SRC=[bLLRRzem57xFhx3ob4g04hffKpLLohYigBJ9m4pQK-JPfy5gI3BRK6dAZvzpewO412_8JhxB-Sw9ZU8g0IHPj9NkbwyHKPH60ZQPWeXG2b9QbdpbQKu4sI09VxUGKdZIpqaCViBZ55585GW3nU25R1CrpLBrJ3Q0VC59qlr-oVy1yeR6ov08nIdFIQf2mXXFOtJhMbR-_XZPlgAZX6jRFyzjH2IYrUuGX6bUWog4elcHnXB43iIOwBHf1MBLyeJN0qbP0g82hklr8N9HTQtHvHGgfApNXyWLo-TPl00AVDSe9baSQq6BR5MMRZT_odMT2lNlo-hH7KhX3UrJEUjCgXxozD1kB48Ltn45RIFs-p9sITOQTJWjWqSXebcQ0ZM0JVG6fE5DnCRsOnSScT5NK3SMWuyI-ttRfCfVApPnxbfpO2QxhDH8_6xlh_13eJzBhmY9b6-PODwnHmlNpARZcgbxkTPod6gaKohqq5x2w5axefROFx0lHP00gJzOizoMP1ZN8zIKrJX4y-37x3aA7jzjcWdl2MP7oembkBC1yzaIHzFvP8AxOoPSgca2e9oBGmMFnMZPnmk_DnWCpiOogpnaTGzhF8xysMAqyAUu0HTX9jGs9adXtmxT0eV5i1Ywmqzzr-jxdqzCZZ6V2oh8Yt8QIwGzByvdjsnKiqj1OFOrIJiLpWmedCq3lDJnJWyfv4ccf6FZqBuuoLpplbN4CGxkhmaGUgxRqp_UwMaj9a_1hqbTUeNlhhtyEzX1LOHZbx3BoxSh5Yf9ZSnrKpYcToVvkPhXSsSnM67JzjnP_FvxOaBR6-ReDgP99i4ySiPTMoFgEtBG0ZzSTiQsbluF]--></g></svg>