<svg xmlns="http://www.w3.org/2000/svg" xmlns:xlink="http://www.w3.org/1999/xlink" contentStyleType="text/css" height="1181px" preserveAspectRatio="none" style="width:1111px;height:1181px;background:#FFFFFF;" version="1.1" viewBox="0 0 1111 1181" width="1111px" zoomAndPan="magnify"><title>US044 &#8212; Component Diagram (Deployment View)</title><defs/><g><text fill="#000000" font-family="Arial" font-size="14" font-weight="bold" lengthAdjust="spacing" textLength="331.3926" x="382.8037" y="23.1318">US044 &#8212; Component Diagram (Deployment View)</text><!--cluster ws1--><g id="cluster_ws1"><polygon fill="none" points="242,53.0986,252,43.0986,387,43.0986,387,229.0986,377,239.0986,242,239.0986,242,53.0986" style="stroke:#181818;stroke-width:1.0;"/><line style="stroke:#181818;stroke-width:1.0;" x1="377" x2="387" y1="53.0986" y2="43.0986"/><line style="stroke:#181818;stroke-width:1.0;" x1="242" x2="377" y1="53.0986" y2="53.0986"/><line style="stroke:#181818;stroke-width:1.0;" x1="377" x2="377" y1="53.0986" y2="239.0986"/><text fill="#000000" font-family="Arial" font-size="12" font-weight="bold" lengthAdjust="spacing" textLength="69.334" x="275.833" y="67.3545">Workstation</text><text fill="#000000" font-family="Arial" font-size="12" font-weight="bold" lengthAdjust="spacing" textLength="68.6602" x="276.1699" y="81.1533">(TCP Client)</text></g><!--cluster cloud1--><g id="cluster_cloud1"><polygon fill="none" points="16,296.0986,26,286.0986,502,286.0986,502,1001.0986,492,1011.0986,16,1011.0986,16,296.0986" style="stroke:#181818;stroke-width:1.0;"/><line style="stroke:#181818;stroke-width:1.0;" x1="492" x2="502" y1="296.0986" y2="286.0986"/><line style="stroke:#181818;stroke-width:1.0;" x1="16" x2="492" y1="296.0986" y2="296.0986"/><line style="stroke:#181818;stroke-width:1.0;" x1="492" x2="492" y1="296.0986" y2="1011.0986"/><text fill="#000000" font-family="Arial" font-size="12" font-weight="bold" lengthAdjust="spacing" textLength="67.3242" x="221.3379" y="310.3545">Cloud Node</text><text fill="#000000" font-family="Arial" font-size="12" font-weight="bold" lengthAdjust="spacing" textLength="96" x="207" y="324.1533">Main Application</text></g><!--cluster tcpSrv--><g id="cluster_tcpSrv"><path d="M227.5,345.0986 L293.1992,345.0986 A3.75,3.75 0 0 1 295.6992,347.5986 L302.6992,364.8975 L400.5,364.8975 A2.5,2.5 0 0 1 403,367.3975 L403,519.5986 A2.5,2.5 0 0 1 400.5,522.0986 L227.5,522.0986 A2.5,2.5 0 0 1 225,519.5986 L225,347.5986 A2.5,2.5 0 0 1 227.5,345.0986 " fill="none" style="stroke:#000000;stroke-width:1.5;"/><line style="stroke:#000000;stroke-width:1.5;" x1="225" x2="302.6992" y1="364.8975" y2="364.8975"/><text fill="#000000" font-family="Arial" font-size="12" font-weight="bold" lengthAdjust="spacing" textLength="64.6992" x="229" y="358.3545">TCP Server</text></g><!--cluster srvPkg--><g id="cluster_srvPkg"><path d="M134.5,569.0986 L178.2031,569.0986 A3.75,3.75 0 0 1 180.7031,571.5986 L187.7031,588.8975 L309.5,588.8975 A2.5,2.5 0 0 1 312,591.3975 L312,648.5986 A2.5,2.5 0 0 1 309.5,651.0986 L134.5,651.0986 A2.5,2.5 0 0 1 132,648.5986 L132,571.5986 A2.5,2.5 0 0 1 134.5,569.0986 " fill="none" style="stroke:#000000;stroke-width:1.5;"/><line style="stroke:#000000;stroke-width:1.5;" x1="132" x2="187.7031" y1="588.8975" y2="588.8975"/><text fill="#000000" font-family="Arial" font-size="12" font-weight="bold" lengthAdjust="spacing" textLength="42.7031" x="136" y="582.3545">Service</text></g><!--cluster ctrlPkg--><g id="cluster_ctrlPkg"><path d="M42.5,771.0986 L100.834,771.0986 A3.75,3.75 0 0 1 103.334,773.5986 L110.334,790.8975 L475.5,790.8975 A2.5,2.5 0 0 1 478,793.3975 L478,850.5986 A2.5,2.5 0 0 1 475.5,853.0986 L42.5,853.0986 A2.5,2.5 0 0 1 40,850.5986 L40,773.5986 A2.5,2.5 0 0 1 42.5,771.0986 " fill="none" style="stroke:#000000;stroke-width:1.5;"/><line style="stroke:#000000;stroke-width:1.5;" x1="40" x2="110.334" y1="790.8975" y2="790.8975"/><text fill="#000000" font-family="Arial" font-size="12" font-weight="bold" lengthAdjust="spacing" textLength="57.334" x="44" y="784.3545">Controller</text></g><!--cluster domPkg--><g id="cluster_domPkg"><path d="M86.5,905.0986 L131.5039,905.0986 A3.75,3.75 0 0 1 134.0039,907.5986 L141.0039,924.8975 L339.5,924.8975 A2.5,2.5 0 0 1 342,927.3975 L342,984.5986 A2.5,2.5 0 0 1 339.5,987.0986 L86.5,987.0986 A2.5,2.5 0 0 1 84,984.5986 L84,907.5986 A2.5,2.5 0 0 1 86.5,905.0986 " fill="none" style="stroke:#000000;stroke-width:1.5;"/><line style="stroke:#000000;stroke-width:1.5;" x1="84" x2="141.0039" y1="924.8975" y2="924.8975"/><text fill="#000000" font-family="Arial" font-size="12" font-weight="bold" lengthAdjust="spacing" textLength="44.0039" x="88" y="918.3545">Domain</text></g><!--cluster udpPkg--><g id="cluster_udpPkg"><path d="M338.5,569.0986 L401.5039,569.0986 A3.75,3.75 0 0 1 404.0039,571.5986 L411.0039,588.8975 L475.5,588.8975 A2.5,2.5 0 0 1 478,591.3975 L478,648.5986 A2.5,2.5 0 0 1 475.5,651.0986 L338.5,651.0986 A2.5,2.5 0 0 1 336,648.5986 L336,571.5986 A2.5,2.5 0 0 1 338.5,569.0986 " fill="none" style="stroke:#000000;stroke-width:1.5;"/><line style="stroke:#000000;stroke-width:1.5;" x1="336" x2="411.0039" y1="588.8975" y2="588.8975"/><text fill="#000000" font-family="Arial" font-size="12" font-weight="bold" lengthAdjust="spacing" textLength="62.0039" x="340" y="582.3545">UDP Client</text></g><!--cluster dbNode--><g id="cluster_dbNode"><polygon fill="none" points="526,762.0986,536,752.0986,696,752.0986,696,843.0986,686,853.0986,526,853.0986,526,762.0986" style="stroke:#181818;stroke-width:1.0;"/><line style="stroke:#181818;stroke-width:1.0;" x1="686" x2="696" y1="762.0986" y2="752.0986"/><line style="stroke:#181818;stroke-width:1.0;" x1="526" x2="686" y1="762.0986" y2="762.0986"/><line style="stroke:#181818;stroke-width:1.0;" x1="686" x2="686" y1="762.0986" y2="853.0986"/><text fill="#000000" font-family="Arial" font-size="12" font-weight="bold" lengthAdjust="spacing" textLength="67.3242" x="573.3379" y="776.3545">Cloud Node</text><text fill="#000000" font-family="Arial" font-size="12" font-weight="bold" lengthAdjust="spacing" textLength="94.0605" x="559.9697" y="790.1533">Database Server</text></g><!--cluster logNode--><g id="cluster_logNode"><polygon fill="none" points="720,708.0986,730,698.0986,910,698.0986,910,1154.0986,900,1164.0986,720,1164.0986,720,708.0986" style="stroke:#181818;stroke-width:1.0;"/><line style="stroke:#181818;stroke-width:1.0;" x1="900" x2="910" y1="708.0986" y2="698.0986"/><line style="stroke:#181818;stroke-width:1.0;" x1="720" x2="900" y1="708.0986" y2="708.0986"/><line style="stroke:#181818;stroke-width:1.0;" x1="900" x2="900" y1="708.0986" y2="1164.0986"/><text fill="#000000" font-family="Arial" font-size="12" font-weight="bold" lengthAdjust="spacing" textLength="67.3242" x="777.3379" y="722.3545">Cloud Node</text><text fill="#000000" font-family="Arial" font-size="12" font-weight="bold" lengthAdjust="spacing" textLength="89.3789" x="766.3105" y="736.1533">Remote Access</text><text fill="#000000" font-family="Arial" font-size="12" font-weight="bold" lengthAdjust="spacing" textLength="88.0137" x="766.9932" y="749.9521">Logging Server</text></g><!--cluster udpSrv--><g id="cluster_udpSrv"><path d="M746.5,771.0986 L813.5352,771.0986 A3.75,3.75 0 0 1 816.0352,773.5986 L823.0352,790.8975 L883.5,790.8975 A2.5,2.5 0 0 1 886,793.3975 L886,850.5986 A2.5,2.5 0 0 1 883.5,853.0986 L746.5,853.0986 A2.5,2.5 0 0 1 744,850.5986 L744,773.5986 A2.5,2.5 0 0 1 746.5,771.0986 " fill="none" style="stroke:#000000;stroke-width:1.5;"/><line style="stroke:#000000;stroke-width:1.5;" x1="744" x2="823.0352" y1="790.8975" y2="790.8975"/><text fill="#000000" font-family="Arial" font-size="12" font-weight="bold" lengthAdjust="spacing" textLength="66.0352" x="748" y="784.3545">UDP Server</text></g><!--cluster httpSrv--><g id="cluster_httpSrv"><path d="M757.5,1058.0986 L830.5293,1058.0986 A3.75,3.75 0 0 1 833.0293,1060.5986 L840.0293,1077.8975 L882.5,1077.8975 A2.5,2.5 0 0 1 885,1080.3975 L885,1137.5986 A2.5,2.5 0 0 1 882.5,1140.0986 L757.5,1140.0986 A2.5,2.5 0 0 1 755,1137.5986 L755,1060.5986 A2.5,2.5 0 0 1 757.5,1058.0986 " fill="none" style="stroke:#000000;stroke-width:1.5;"/><line style="stroke:#000000;stroke-width:1.5;" x1="755" x2="840.0293" y1="1077.8975" y2="1077.8975"/><text fill="#000000" font-family="Arial" font-size="12" font-weight="bold" lengthAdjust="spacing" textLength="72.0293" x="759" y="1071.3545">HTTP Server</text></g><!--cluster ws2--><g id="cluster_ws2"><polygon fill="none" points="934,896.0986,944,886.0986,1094,886.0986,1094,977.0986,1084,987.0986,934,987.0986,934,896.0986" style="stroke:#181818;stroke-width:1.0;"/><line style="stroke:#181818;stroke-width:1.0;" x1="1084" x2="1094" y1="896.0986" y2="886.0986"/><line style="stroke:#181818;stroke-width:1.0;" x1="934" x2="1084" y1="896.0986" y2="896.0986"/><line style="stroke:#181818;stroke-width:1.0;" x1="1084" x2="1084" y1="896.0986" y2="987.0986"/><text fill="#000000" font-family="Arial" font-size="12" font-weight="bold" lengthAdjust="spacing" textLength="69.334" x="975.333" y="910.3545">Workstation</text><text fill="#000000" font-family="Arial" font-size="12" font-weight="bold" lengthAdjust="spacing" textLength="84.6738" x="967.6631" y="924.1533">(Web Browser)</text></g><!--entity AISafeClientApp--><g id="elem_AISafeClientApp"><rect fill="#F1F1F1" height="33.7988" rx="2.5" ry="2.5" style="stroke:#181818;stroke-width:0.5;" width="108.0547" x="260" y="94.0986"/><text fill="#000000" font-family="Arial" font-size="12" lengthAdjust="spacing" textLength="88.0547" x="270" y="115.3545">AISafeClientApp</text></g><!--entity TcpClient--><g id="elem_TcpClient"><rect fill="#F1F1F1" height="33.7988" rx="2.5" ry="2.5" style="stroke:#181818;stroke-width:0.5;" width="70.6836" x="278.5" y="189.0986"/><text fill="#000000" font-family="Arial" font-size="12" lengthAdjust="spacing" textLength="50.6836" x="288.5" y="210.3545">TcpClient</text></g><!--entity WeatherServerDaemon--><g id="elem_WeatherServerDaemon"><rect fill="#F1F1F1" height="33.7988" rx="2.5" ry="2.5" style="stroke:#181818;stroke-width:0.5;" width="146.0527" x="241" y="377.0986"/><text fill="#000000" font-family="Arial" font-size="12" lengthAdjust="spacing" textLength="126.0527" x="251" y="398.3545">WeatherServerDaemon</text></g><!--entity WeatherClientHandler--><g id="elem_WeatherClientHandler"><rect fill="#F1F1F1" height="33.7988" rx="2.5" ry="2.5" style="stroke:#181818;stroke-width:0.5;" width="138.0547" x="245" y="472.0986"/><text fill="#000000" font-family="Arial" font-size="12" lengthAdjust="spacing" textLength="118.0547" x="255" y="493.3545">WeatherClientHandler</text></g><!--entity RemoteWeatherService--><g id="elem_RemoteWeatherService"><rect fill="#F1F1F1" height="33.7988" rx="2.5" ry="2.5" style="stroke:#181818;stroke-width:0.5;" width="147.3828" x="148.5" y="601.0986"/><text fill="#000000" font-family="Arial" font-size="12" lengthAdjust="spacing" textLength="127.3828" x="158.5" y="622.3545">RemoteWeatherService</text></g><!--entity RegisterWeatherDataController--><g id="elem_RegisterWeatherDataController"><rect fill="#F1F1F1" height="33.7988" rx="2.5" ry="2.5" style="stroke:#181818;stroke-width:0.5;" width="187.4023" x="56.5" y="803.0986"/><text fill="#000000" font-family="Arial" font-size="12" lengthAdjust="spacing" textLength="167.4023" x="66.5" y="824.3545">RegisterWeatherDataController</text></g><!--entity ConsultWeatherDataController--><g id="elem_ConsultWeatherDataController"><rect fill="#F1F1F1" height="33.7988" rx="2.5" ry="2.5" style="stroke:#181818;stroke-width:0.5;" width="183.4063" x="278.5" y="803.0986"/><text fill="#000000" font-family="Arial" font-size="12" lengthAdjust="spacing" textLength="163.4063" x="288.5" y="824.3545">ConsultWeatherDataController</text></g><!--entity WeatherData--><g id="elem_WeatherData"><rect fill="#F1F1F1" height="33.7988" rx="2.5" ry="2.5" style="stroke:#181818;stroke-width:0.5;" width="90.6992" x="234.5" y="937.0986"/><text fill="#000000" font-family="Arial" font-size="12" lengthAdjust="spacing" textLength="70.6992" x="244.5" y="958.3545">WeatherData</text></g><!--entity AirControlArea--><g id="elem_AirControlArea"><rect fill="#F1F1F1" height="33.7988" rx="2.5" ry="2.5" style="stroke:#181818;stroke-width:0.5;" width="98.6973" x="100.5" y="937.0986"/><text fill="#000000" font-family="Arial" font-size="12" lengthAdjust="spacing" textLength="78.6973" x="110.5" y="958.3545">AirControlArea</text></g><!--entity UdpLoggerClient--><g id="elem_UdpLoggerClient"><rect fill="#F1F1F1" height="33.7988" rx="2.5" ry="2.5" style="stroke:#181818;stroke-width:0.5;" width="110.0586" x="352" y="601.0986"/><text fill="#000000" font-family="Arial" font-size="12" lengthAdjust="spacing" textLength="90.0586" x="362" y="622.3545">UdpLoggerClient</text></g><!--entity Relational Database--><g id="elem_Relational Database"><rect fill="#F1F1F1" height="33.7988" rx="2.5" ry="2.5" style="stroke:#181818;stroke-width:0.5;" width="128.0703" x="542" y="803.0986"/><text fill="#000000" font-family="Arial" font-size="12" lengthAdjust="spacing" textLength="108.0703" x="552" y="824.3545">Relational Database</text></g><!--entity LogStore--><g id="elem_LogStore"><rect fill="#F1F1F1" height="33.7988" rx="2.5" ry="2.5" style="stroke:#181818;stroke-width:0.5;" width="68.7031" x="784.5" y="937.0986"/><text fill="#000000" font-family="Arial" font-size="12" lengthAdjust="spacing" textLength="48.7031" x="794.5" y="958.3545">LogStore</text></g><!--entity UdpLogReceiver--><g id="elem_UdpLogReceiver"><rect fill="#F1F1F1" height="33.7988" rx="2.5" ry="2.5" style="stroke:#181818;stroke-width:0.5;" width="109.3848" x="760.5" y="803.0986"/><text fill="#000000" font-family="Arial" font-size="12" lengthAdjust="spacing" textLength="89.3848" x="770.5" y="824.3545">UdpLogReceiver</text></g><!--entity HttpLogServer--><g id="elem_HttpLogServer"><rect fill="#F1F1F1" height="33.7988" rx="2.5" ry="2.5" style="stroke:#181818;stroke-width:0.5;" width="97.373" x="771.5" y="1090.0986"/><text fill="#000000" font-family="Arial" font-size="12" lengthAdjust="spacing" textLength="77.373" x="781.5" y="1111.3545">HttpLogServer</text></g><!--entity Browser--><g id="elem_Browser"><rect fill="#F1F1F1" height="33.7988" rx="2.5" ry="2.5" style="stroke:#181818;stroke-width:0.5;" width="64.0098" x="950" y="937.0986"/><text fill="#000000" font-family="Arial" font-size="12" lengthAdjust="spacing" textLength="44.0098" x="960" y="958.3545">Browser</text></g><!--link AISafeClientApp to TcpClient--><g id="link_AISafeClientApp_TcpClient"><path d="M314,128.2986 C314,145.3686 314,166.0886 314,183.0886 " fill="none" id="AISafeClientApp-to-TcpClient" style="stroke:#181818;stroke-width:1.0;"/><polygon fill="#181818" points="314,189.0886,318,180.0886,314,184.0886,310,180.0886,314,189.0886" style="stroke:#181818;stroke-width:1.0;"/></g><!--link WeatherServerDaemon to WeatherClientHandler--><g id="link_WeatherServerDaemon_WeatherClientHandler"><path d="M314,411.2986 C314,428.3686 314,449.0886 314,466.0886 " fill="none" id="WeatherServerDaemon-to-WeatherClientHandler" style="stroke:#181818;stroke-width:1.0;"/><polygon fill="#181818" points="314,472.0886,318,463.0886,314,467.0886,310,463.0886,314,472.0886" style="stroke:#181818;stroke-width:1.0;"/></g><!--link WeatherClientHandler to RemoteWeatherService--><g id="link_WeatherClientHandler_RemoteWeatherService"><path d="M302.35,506.1786 C284.75,530.4786 255.0797,571.4294 237.3697,595.8794 " fill="none" id="WeatherClientHandler-to-RemoteWeatherService" style="stroke:#181818;stroke-width:1.0;"/><polygon fill="#181818" points="233.85,600.7386,242.369,595.7963,236.7831,596.6893,235.8901,591.1034,233.85,600.7386" style="stroke:#181818;stroke-width:1.0;"/></g><!--link RemoteWeatherService to RegisterWeatherDataController--><g id="link_RemoteWeatherService_RegisterWeatherDataController"><path d="M216.23,635.1286 C202.75,672.5786 171.3427,759.8234 157.8327,797.3434 " fill="none" id="RemoteWeatherService-to-RegisterWeatherDataController" style="stroke:#181818;stroke-width:1.0;"/><polygon fill="#181818" points="155.8,802.9886,162.6125,795.876,157.4939,798.2843,155.0856,793.1657,155.8,802.9886" style="stroke:#181818;stroke-width:1.0;"/></g><!--link RemoteWeatherService to ConsultWeatherDataController--><g id="link_RemoteWeatherService_ConsultWeatherDataController"><path d="M233.86,635.1286 C261.57,672.5786 326.7405,760.6459 354.5105,798.1659 " fill="none" id="RemoteWeatherService-to-ConsultWeatherDataController" style="stroke:#181818;stroke-width:1.0;"/><polygon fill="#181818" points="358.08,802.9886,355.9409,793.3749,355.1054,798.9697,349.5106,798.1342,358.08,802.9886" style="stroke:#181818;stroke-width:1.0;"/></g><!--link RegisterWeatherDataController to WeatherData--><g id="link_RegisterWeatherDataController_WeatherData"><path d="M170.71,837.2186 C184.37,848.1986 202.36,863.3686 217,878.0986 C235.94,897.1586 251.8126,916.5255 264.0126,932.1855 " fill="none" id="RegisterWeatherDataController-to-WeatherData" style="stroke:#181818;stroke-width:1.0;"/><polygon fill="#181818" points="267.7,936.9186,265.3243,927.3606,264.6272,932.9743,259.0134,932.2771,267.7,936.9186" style="stroke:#181818;stroke-width:1.0;"/></g><!--link RegisterWeatherDataController to AirControlArea--><g id="link_RegisterWeatherDataController_AirControlArea"><path d="M150,837.2886 C150,862.6186 150,905.3686 150,930.7786 " fill="none" id="RegisterWeatherDataController-to-AirControlArea" style="stroke:#181818;stroke-width:1.0;"/><polygon fill="#181818" points="150,936.7786,154,927.7786,150,931.7786,146,927.7786,150,936.7786" style="stroke:#181818;stroke-width:1.0;"/></g><!--link ConsultWeatherDataController to WeatherData--><g id="link_ConsultWeatherDataController_WeatherData"><path d="M358.96,837.2886 C341.69,862.6186 311.8294,906.4108 294.5094,931.8208 " fill="none" id="ConsultWeatherDataController-to-WeatherData" style="stroke:#181818;stroke-width:1.0;"/><polygon fill="#181818" points="291.13,936.7786,299.5042,931.5948,293.9461,932.6471,292.8938,927.089,291.13,936.7786" style="stroke:#181818;stroke-width:1.0;"/></g><!--link UdpLogReceiver to LogStore--><g id="link_UdpLogReceiver_LogStore"><path d="M815.49,837.2886 C816.26,862.6186 817.5583,905.3714 818.3283,930.7814 " fill="none" id="UdpLogReceiver-to-LogStore" style="stroke:#181818;stroke-width:1.0;"/><polygon fill="#181818" points="818.51,936.7786,822.2356,927.6616,818.3586,931.7809,814.2392,927.9039,818.51,936.7786" style="stroke:#181818;stroke-width:1.0;"/></g><!--link LogStore to HttpLogServer--><g id="link_LogStore_HttpLogServer"><path d="M819.11,971.2586 C819.3,1000.3186 819.6607,1055.0788 819.8507,1084.0588 " fill="none" id="LogStore-to-HttpLogServer" style="stroke:#181818;stroke-width:1.0;"/><polygon fill="#181818" points="819.89,1090.0586,823.8309,1081.0326,819.8572,1085.0587,815.8311,1081.0851,819.89,1090.0586" style="stroke:#181818;stroke-width:1.0;"/></g><!--link TcpClient to WeatherServerDaemon--><g id="link_TcpClient_WeatherServerDaemon"><path d="M314,223.2786 C314,258.5486 314,335.9786 314,371.0886 " fill="none" id="TcpClient-to-WeatherServerDaemon" style="stroke:#181818;stroke-width:1.0;"/><polygon fill="#181818" points="314,377.0886,318,368.0886,314,372.0886,310,368.0886,314,377.0886" style="stroke:#181818;stroke-width:1.0;"/><text fill="#000000" font-family="Arial" font-size="12" lengthAdjust="spacing" textLength="62.0215" x="315" y="267.3545">TCP (1044)</text></g><!--link WeatherClientHandler to UdpLoggerClient--><g id="link_WeatherClientHandler_UdpLoggerClient"><path d="M325.78,506.1786 C343.57,530.4786 373.5757,571.4474 391.4757,595.8974 " fill="none" id="WeatherClientHandler-to-UdpLoggerClient" style="stroke:#181818;stroke-width:1.0;"/><polygon fill="#181818" points="395.02,600.7386,392.931,591.1139,392.0664,596.7042,386.476,595.8396,395.02,600.7386" style="stroke:#181818;stroke-width:1.0;"/><text fill="#000000" font-family="Arial" font-size="12" lengthAdjust="spacing" textLength="64.0254" x="359" y="550.3545">UDP events</text></g><!--link UdpLoggerClient to UdpLogReceiver--><g id="link_UdpLoggerClient_UdpLogReceiver"><path d="M462.13,624.3786 C520.87,631.9286 614.97,649.6886 686,690.0986 C737.75,719.5486 779.4872,770.4883 799.9072,798.0383 " fill="none" id="UdpLoggerClient-to-UdpLogReceiver" style="stroke:#181818;stroke-width:1.0;"/><polygon fill="#181818" points="803.48,802.8586,801.3343,793.2463,800.5027,798.8417,794.9073,798.0101,803.48,802.8586" style="stroke:#181818;stroke-width:1.0;"/><text fill="#000000" font-family="Arial" font-size="12" lengthAdjust="spacing" textLength="66.6797" x="667" y="679.3545">UDP (US90)</text></g><!--link RemoteWeatherService to Relational Database--><g id="link_RemoteWeatherService_Relational Database"><path d="M252.26,635.1186 C282.07,650.0786 329.36,671.6186 373,682.0986 C395.75,687.5586 456.76,680.2886 478,690.0986 C532.42,715.2286 573.239,769.1282 592.389,797.8182 " fill="none" id="RemoteWeatherService-to-Relational Database" style="stroke:#181818;stroke-width:1.0;"/><polygon fill="#181818" points="595.72,802.8086,594.0504,793.1023,592.9442,798.6499,587.3965,797.5437,595.72,802.8086" style="stroke:#181818;stroke-width:1.0;"/><text fill="#000000" font-family="Arial" font-size="12" lengthAdjust="spacing" textLength="57.3457" x="374" y="679.3545">SQL (JPA)</text></g><!--link Browser to HttpLogServer--><g id="link_Browser_HttpLogServer"><path d="M964.66,971.2586 C933.48,1000.3186 872.689,1056.9875 841.599,1085.9675 " fill="none" id="Browser-to-HttpLogServer" style="stroke:#181818;stroke-width:1.0;"/><polygon fill="#181818" points="837.21,1090.0586,846.5208,1086.848,840.8675,1086.6494,841.066,1080.996,837.21,1090.0586" style="stroke:#181818;stroke-width:1.0;"/><text fill="#000000" font-family="Arial" font-size="12" lengthAdjust="spacing" textLength="72.6738" x="902" y="1039.3545">HTTP (US91)</text></g><!--SRC=[ZLH1Rjim4Bph5OkSh4E0ECYbFHHGBHHkaGQkPTU7E0UQsYY4AL8WQHjf4Q2Fw0lxaf2KP5EsRFH6xSxCheQxDCnmX7bsStS7__xyXP4iAobG64WPAHGfOP1YnULhwM8_6UxYAD9h9YhYaZa-amqtNwGm3wH4I1GZl3-ViLy8mziWITjQcNcrJIYaXeY2Om0HCiVZREI2SBMGQgqDCKoAfHZCHXCOSMR5uYiW6dPw2ByZWCVaQqQUiKubLVNaOZDQrG7tTGI0w-jFi0T4Rssv4PUR71xiUIc-4oR0OZcZlhwlI1sWBbeHkYQ59RckCbHRL1vYQ9MfhOVOBXP8p0kgEfyIBALuwcJg5iP4v1oLIxs5sex7A7fXhRQJTT4AJwsKmK3Umaxe8tibIdBUj4QDuXs9Wcc3gX59YI47GjEb3MXxjsSXdNAfBArflbGkow1IG6zq4wOQeKGXEL6Qf-rDUxLDNWLgyxowbqNHUjUIUwpszzndz07U2NjydxCMtnTky1Til4IyvAtdNT3r0iU-_WVZrFTBNVHKwTqLbreHZU4Uv2kNg_TpYjpl4E7GGiyerMP1GYbglHJkdfaeGbqkYxrmPru2Z9sNO0VhUPaYHRRjcThnRDOXlnWJiiVsqz9hG4j-T14ZbL-vhhxth4tRR7lqyOxOmO7kCxV05NnMSgTHjU_SRUrZ4_NUxP-lSCWxm_yHtDCq6DfdFuxEZllHDbcMCnEtzgoZu-I1iF_T6Z-OPnzkukZihFUEWELcF-vXy6sIn57pRwSsMPI_8bTY6By3]--></g></svg>