<svg xmlns="http://www.w3.org/2000/svg" xmlns:xlink="http://www.w3.org/1999/xlink" contentStyleType="text/css" height="859px" preserveAspectRatio="none" style="width:1142px;height:859px;background:#FFFFFF;" version="1.1" viewBox="0 0 1142 859" width="1142px" zoomAndPan="magnify"><title>sd_us044_weather_remote_access</title><defs/><g><text fill="#000000" font-family="Arial" font-size="14" font-weight="bold" lengthAdjust="spacing" textLength="233.4883" x="468.4604" y="28.1318">sd_us044_weather_remote_access</text><rect fill="#FFFFFF" height="700.9707" style="stroke:#181818;stroke-width:1.0;" width="10" x="81.0273" y="100.6963"/><rect fill="#FFFFFF" height="83.3965" style="stroke:#181818;stroke-width:1.0;" width="10" x="255.7695" y="100.6963"/><rect fill="#FFFFFF" height="33.7988" style="stroke:#181818;stroke-width:1.0;" width="10" x="255.7695" y="767.8682"/><rect fill="#FFFFFF" height="27.7988" style="stroke:#181818;stroke-width:1.0;" width="10" x="428.1377" y="128.4951"/><rect fill="#FFFFFF" height="661.373" style="stroke:#181818;stroke-width:1.0;" width="10" x="653.8877" y="156.2939"/><rect fill="#FFFFFF" height="528.1777" style="stroke:#181818;stroke-width:1.0;" width="10" x="658.8877" y="211.8916"/><rect fill="#FFFFFF" height="27.7988" style="stroke:#181818;stroke-width:1.0;" width="10" x="887.333" y="239.6904"/><rect fill="#FFFFFF" height="27.7988" style="stroke:#181818;stroke-width:1.0;" width="10" x="887.333" y="378.6846"/><rect fill="#FFFFFF" height="27.7988" style="stroke:#181818;stroke-width:1.0;" width="10" x="887.333" y="489.8799"/><rect fill="#FFFFFF" height="27.7988" style="stroke:#181818;stroke-width:1.0;" width="10" x="887.333" y="601.0752"/><rect fill="#FFFFFF" height="416.9824" style="stroke:#181818;stroke-width:1.0;" width="10" x="1079.7168" y="295.2881"/><line style="stroke:#181818;stroke-width:0.5;stroke-dasharray:5.0,5.0;" x1="86" x2="86" y1="70.8975" y2="826.667"/><line style="stroke:#181818;stroke-width:0.5;stroke-dasharray:5.0,5.0;" x1="260.4277" x2="260.4277" y1="70.8975" y2="826.667"/><line style="stroke:#181818;stroke-width:0.5;stroke-dasharray:5.0,5.0;" x1="433.1113" x2="433.1113" y1="70.8975" y2="826.667"/><line style="stroke:#181818;stroke-width:0.5;stroke-dasharray:5.0,5.0;" x1="658.8604" x2="658.8604" y1="70.8975" y2="826.667"/><line style="stroke:#181818;stroke-width:0.5;stroke-dasharray:5.0,5.0;" x1="891.6416" x2="891.6416" y1="70.8975" y2="826.667"/><line style="stroke:#181818;stroke-width:0.5;stroke-dasharray:5.0,5.0;" x1="1084.0244" x2="1084.0244" y1="70.8975" y2="826.667"/><rect fill="#E2E2F0" height="27.7988" rx="2.5" ry="2.5" style="stroke:#181818;stroke-width:0.5;" width="102.0547" x="35" y="42.0986"/><text fill="#000000" font-family="Arial" font-size="12" lengthAdjust="spacing" textLength="88.0547" x="42" y="60.3545">AISafeClientApp</text><rect fill="#E2E2F0" height="27.7988" rx="2.5" ry="2.5" style="stroke:#181818;stroke-width:0.5;" width="102.0547" x="35" y="825.667"/><text fill="#000000" font-family="Arial" font-size="12" lengthAdjust="spacing" textLength="88.0547" x="42" y="843.9229">AISafeClientApp</text><rect fill="#E2E2F0" height="27.7988" rx="2.5" ry="2.5" style="stroke:#181818;stroke-width:0.5;" width="64.6836" x="228.4277" y="42.0986"/><text fill="#000000" font-family="Arial" font-size="12" lengthAdjust="spacing" textLength="50.6836" x="235.4277" y="60.3545">TcpClient</text><rect fill="#E2E2F0" height="27.7988" rx="2.5" ry="2.5" style="stroke:#181818;stroke-width:0.5;" width="64.6836" x="228.4277" y="825.667"/><text fill="#000000" font-family="Arial" font-size="12" lengthAdjust="spacing" textLength="50.6836" x="235.4277" y="843.9229">TcpClient</text><rect fill="#E2E2F0" height="27.7988" rx="2.5" ry="2.5" style="stroke:#181818;stroke-width:0.5;" width="140.0527" x="363.1113" y="42.0986"/><text fill="#000000" font-family="Arial" font-size="12" lengthAdjust="spacing" textLength="126.0527" x="370.1113" y="60.3545">WeatherServerDaemon</text><rect fill="#E2E2F0" height="27.7988" rx="2.5" ry="2.5" style="stroke:#181818;stroke-width:0.5;" width="140.0527" x="363.1113" y="825.667"/><text fill="#000000" font-family="Arial" font-size="12" lengthAdjust="spacing" textLength="126.0527" x="370.1113" y="843.9229">WeatherServerDaemon</text><rect fill="#E2E2F0" height="27.7988" rx="2.5" ry="2.5" style="stroke:#181818;stroke-width:0.5;" width="132.0547" x="592.8604" y="42.0986"/><text fill="#000000" font-family="Arial" font-size="12" lengthAdjust="spacing" textLength="118.0547" x="599.8604" y="60.3545">WeatherClientHandler</text><rect fill="#E2E2F0" height="27.7988" rx="2.5" ry="2.5" style="stroke:#181818;stroke-width:0.5;" width="132.0547" x="592.8604" y="825.667"/><text fill="#000000" font-family="Arial" font-size="12" lengthAdjust="spacing" textLength="118.0547" x="599.8604" y="843.9229">WeatherClientHandler</text><rect fill="#E2E2F0" height="27.7988" rx="2.5" ry="2.5" style="stroke:#181818;stroke-width:0.5;" width="141.3828" x="821.6416" y="42.0986"/><text fill="#000000" font-family="Arial" font-size="12" lengthAdjust="spacing" textLength="127.3828" x="828.6416" y="60.3545">RemoteWeatherService</text><rect fill="#E2E2F0" height="27.7988" rx="2.5" ry="2.5" style="stroke:#181818;stroke-width:0.5;" width="141.3828" x="821.6416" y="825.667"/><text fill="#000000" font-family="Arial" font-size="12" lengthAdjust="spacing" textLength="127.3828" x="828.6416" y="843.9229">RemoteWeatherService</text><rect fill="#E2E2F0" height="27.7988" rx="2.5" ry="2.5" style="stroke:#181818;stroke-width:0.5;" width="103.3848" x="1033.0244" y="42.0986"/><text fill="#000000" font-family="Arial" font-size="12" lengthAdjust="spacing" textLength="89.3848" x="1040.0244" y="60.3545">UdpLogReceiver</text><rect fill="#E2E2F0" height="27.7988" rx="2.5" ry="2.5" style="stroke:#181818;stroke-width:0.5;" width="103.3848" x="1033.0244" y="825.667"/><text fill="#000000" font-family="Arial" font-size="12" lengthAdjust="spacing" textLength="89.3848" x="1040.0244" y="843.9229">UdpLogReceiver</text><rect fill="#FFFFFF" height="700.9707" style="stroke:#181818;stroke-width:1.0;" width="10" x="81.0273" y="100.6963"/><rect fill="#FFFFFF" height="83.3965" style="stroke:#181818;stroke-width:1.0;" width="10" x="255.7695" y="100.6963"/><rect fill="#FFFFFF" height="33.7988" style="stroke:#181818;stroke-width:1.0;" width="10" x="255.7695" y="767.8682"/><rect fill="#FFFFFF" height="27.7988" style="stroke:#181818;stroke-width:1.0;" width="10" x="428.1377" y="128.4951"/><rect fill="#FFFFFF" height="661.373" style="stroke:#181818;stroke-width:1.0;" width="10" x="653.8877" y="156.2939"/><rect fill="#FFFFFF" height="528.1777" style="stroke:#181818;stroke-width:1.0;" width="10" x="658.8877" y="211.8916"/><rect fill="#FFFFFF" height="27.7988" style="stroke:#181818;stroke-width:1.0;" width="10" x="887.333" y="239.6904"/><rect fill="#FFFFFF" height="27.7988" style="stroke:#181818;stroke-width:1.0;" width="10" x="887.333" y="378.6846"/><rect fill="#FFFFFF" height="27.7988" style="stroke:#181818;stroke-width:1.0;" width="10" x="887.333" y="489.8799"/><rect fill="#FFFFFF" height="27.7988" style="stroke:#181818;stroke-width:1.0;" width="10" x="887.333" y="601.0752"/><rect fill="#FFFFFF" height="416.9824" style="stroke:#181818;stroke-width:1.0;" width="10" x="1079.7168" y="295.2881"/><polygon fill="#181818" points="243.7695,96.6963,253.7695,100.6963,243.7695,104.6963,247.7695,100.6963" style="stroke:#181818;stroke-width:1.0;"/><line style="stroke:#181818;stroke-width:1.0;" x1="91.0273" x2="249.7695" y1="100.6963" y2="100.6963"/><text fill="#000000" font-family="Arial" font-size="12" font-weight="bold" lengthAdjust="spacing" textLength="6.6738" x="98.0273" y="96.1533">1</text><text fill="#000000" font-family="Arial" font-size="12" lengthAdjust="spacing" textLength="140.0684" x="108.7012" y="96.1533">new TcpClient(host, 1044)</text><polygon fill="#181818" points="416.1377,124.4951,426.1377,128.4951,416.1377,132.4951,420.1377,128.4951" style="stroke:#181818;stroke-width:1.0;"/><line style="stroke:#181818;stroke-width:1.0;" x1="265.7695" x2="422.1377" y1="128.4951" y2="128.4951"/><text fill="#000000" font-family="Arial" font-size="12" font-weight="bold" lengthAdjust="spacing" textLength="6.6738" x="306.9351" y="123.9521">2</text><text fill="#000000" font-family="Arial" font-size="12" lengthAdjust="spacing" textLength="69.3633" x="317.6089" y="123.9521">TCP connect</text><polygon fill="#181818" points="641.8877,152.2939,651.8877,156.2939,641.8877,160.2939,645.8877,156.2939" style="stroke:#181818;stroke-width:1.0;"/><line style="stroke:#181818;stroke-width:1.0;" x1="433.1377" x2="647.8877" y1="156.2939" y2="156.2939"/><text fill="#000000" font-family="Arial" font-size="12" font-weight="bold" lengthAdjust="spacing" textLength="6.6738" x="445.1377" y="151.751">3</text><text fill="#000000" font-family="Arial" font-size="12" lengthAdjust="spacing" textLength="186.0762" x="455.8115" y="151.751">new WeatherClientHandler(socket)</text><polygon fill="#181818" points="102.0273,180.0928,92.0273,184.0928,102.0273,188.0928,98.0273,184.0928" style="stroke:#181818;stroke-width:1.0;"/><line style="stroke:#181818;stroke-width:1.0;stroke-dasharray:2.0,2.0;" x1="96.0273" x2="259.7695" y1="184.0928" y2="184.0928"/><text fill="#000000" font-family="Arial" font-size="12" font-weight="bold" lengthAdjust="spacing" textLength="6.6738" x="142.873" y="179.5498">4</text><text fill="#000000" font-family="Arial" font-size="12" lengthAdjust="spacing" textLength="55.377" x="153.5469" y="179.5498">connected</text><polygon fill="#181818" points="646.8877,207.8916,656.8877,211.8916,646.8877,215.8916,650.8877,211.8916" style="stroke:#181818;stroke-width:1.0;"/><line style="stroke:#181818;stroke-width:1.0;" x1="91.0273" x2="652.8877" y1="211.8916" y2="211.8916"/><text fill="#000000" font-family="Arial" font-size="12" font-weight="bold" lengthAdjust="spacing" textLength="6.6738" x="295.8071" y="207.3486">5</text><text fill="#000000" font-family="Arial" font-size="12" lengthAdjust="spacing" textLength="147.627" x="306.481" y="207.3486">AUTH|weather1|Password1</text><polygon fill="#181818" points="875.333,235.6904,885.333,239.6904,875.333,243.6904,879.333,239.6904" style="stroke:#181818;stroke-width:1.0;"/><line style="stroke:#181818;stroke-width:1.0;" x1="668.8877" x2="881.333" y1="239.6904" y2="239.6904"/><text fill="#000000" font-family="Arial" font-size="12" font-weight="bold" lengthAdjust="spacing" textLength="6.6738" x="678.3877" y="235.1475">6</text><text fill="#000000" font-family="Arial" font-size="12" lengthAdjust="spacing" textLength="188.7715" x="689.0615" y="235.1475">authenticate(weather1, Password1)</text><polygon fill="#181818" points="679.8877,263.4893,669.8877,267.4893,679.8877,271.4893,675.8877,267.4893" style="stroke:#181818;stroke-width:1.0;"/><line style="stroke:#181818;stroke-width:1.0;stroke-dasharray:2.0,2.0;" x1="673.8877" x2="891.333" y1="267.4893" y2="267.4893"/><text fill="#000000" font-family="Arial" font-size="12" font-weight="bold" lengthAdjust="spacing" textLength="6.6738" x="747.2568" y="262.9463">7</text><text fill="#000000" font-family="Arial" font-size="12" lengthAdjust="spacing" textLength="56.0332" x="757.9307" y="262.9463">auth result</text><polygon fill="#181818" points="1067.7168,291.2881,1077.7168,295.2881,1067.7168,299.2881,1071.7168,295.2881" style="stroke:#181818;stroke-width:1.0;"/><line style="stroke:#181818;stroke-width:1.0;" x1="668.8877" x2="1073.7168" y1="295.2881" y2="295.2881"/><text fill="#000000" font-family="Arial" font-size="12" font-weight="bold" lengthAdjust="spacing" textLength="6.6738" x="823.9536" y="290.7451">8</text><text fill="#000000" font-family="Arial" font-size="12" lengthAdjust="spacing" textLength="90.0234" x="834.6274" y="290.7451">UDP LOGIN_OK</text><polygon fill="#181818" points="102.0273,319.0869,92.0273,323.0869,102.0273,327.0869,98.0273,323.0869" style="stroke:#181818;stroke-width:1.0;"/><line style="stroke:#181818;stroke-width:1.0;stroke-dasharray:2.0,2.0;" x1="96.0273" x2="657.8877" y1="323.0869" y2="323.0869"/><text fill="#000000" font-family="Arial" font-size="12" font-weight="bold" lengthAdjust="spacing" textLength="6.6738" x="341.2817" y="318.5439">9</text><text fill="#000000" font-family="Arial" font-size="12" lengthAdjust="spacing" textLength="56.6777" x="351.9556" y="318.5439">AUTH_OK</text><polygon fill="#181818" points="646.8877,346.8857,656.8877,350.8857,646.8877,354.8857,650.8877,350.8857" style="stroke:#181818;stroke-width:1.0;"/><line style="stroke:#181818;stroke-width:1.0;" x1="91.0273" x2="652.8877" y1="350.8857" y2="350.8857"/><text fill="#000000" font-family="Arial" font-size="12" font-weight="bold" lengthAdjust="spacing" textLength="13.3477" x="329.9351" y="346.3428">10</text><text fill="#000000" font-family="Arial" font-size="12" lengthAdjust="spacing" textLength="72.6973" x="347.2827" y="346.3428">LIST_AREAS</text><polygon fill="#181818" points="875.333,374.6846,885.333,378.6846,875.333,382.6846,879.333,378.6846" style="stroke:#181818;stroke-width:1.0;"/><line style="stroke:#181818;stroke-width:1.0;" x1="668.8877" x2="881.333" y1="378.6846" y2="378.6846"/><text fill="#000000" font-family="Arial" font-size="12" font-weight="bold" lengthAdjust="spacing" textLength="13.3477" x="742.4336" y="374.1416">11</text><text fill="#000000" font-family="Arial" font-size="12" lengthAdjust="spacing" textLength="54.0059" x="759.7813" y="374.1416">listAreas()</text><polygon fill="#181818" points="679.8877,402.4834,669.8877,406.4834,679.8877,410.4834,675.8877,406.4834" style="stroke:#181818;stroke-width:1.0;"/><line style="stroke:#181818;stroke-width:1.0;stroke-dasharray:2.0,2.0;" x1="673.8877" x2="891.333" y1="406.4834" y2="406.4834"/><text fill="#000000" font-family="Arial" font-size="12" font-weight="bold" lengthAdjust="spacing" textLength="13.3477" x="703.5781" y="401.9404">12</text><text fill="#000000" font-family="Arial" font-size="12" lengthAdjust="spacing" textLength="136.7168" x="720.9258" y="401.9404">List&lt;AirControlAreaDTO&gt;</text><polygon fill="#181818" points="102.0273,430.2822,92.0273,434.2822,102.0273,438.2822,98.0273,434.2822" style="stroke:#181818;stroke-width:1.0;"/><line style="stroke:#181818;stroke-width:1.0;stroke-dasharray:2.0,2.0;" x1="96.0273" x2="657.8877" y1="434.2822" y2="434.2822"/><text fill="#000000" font-family="Arial" font-size="12" font-weight="bold" lengthAdjust="spacing" textLength="13.3477" x="321.0347" y="429.7393">13</text><text fill="#000000" font-family="Arial" font-size="12" lengthAdjust="spacing" textLength="90.498" x="338.3823" y="429.7393">OK|LIS:Lisbon;...</text><polygon fill="#181818" points="646.8877,458.0811,656.8877,462.0811,646.8877,466.0811,650.8877,462.0811" style="stroke:#181818;stroke-width:1.0;"/><line style="stroke:#181818;stroke-width:1.0;" x1="91.0273" x2="652.8877" y1="462.0811" y2="462.0811"/><text fill="#000000" font-family="Arial" font-size="12" font-weight="bold" lengthAdjust="spacing" textLength="13.3477" x="203.1909" y="457.5381">14</text><text fill="#000000" font-family="Arial" font-size="12" lengthAdjust="spacing" textLength="326.1855" x="220.5386" y="457.5381">REGISTER_WEATHER|LIS|38.7|-9.1|100|12|180|22|INMG|...</text><polygon fill="#181818" points="875.333,485.8799,885.333,489.8799,875.333,493.8799,879.333,489.8799" style="stroke:#181818;stroke-width:1.0;"/><line style="stroke:#181818;stroke-width:1.0;" x1="668.8877" x2="881.333" y1="489.8799" y2="489.8799"/><text fill="#000000" font-family="Arial" font-size="12" font-weight="bold" lengthAdjust="spacing" textLength="13.3477" x="692.7432" y="485.3369">15</text><text fill="#000000" font-family="Arial" font-size="12" lengthAdjust="spacing" textLength="153.3867" x="710.0908" y="485.3369">registerWeatherData(LIS, ...)</text><polygon fill="#181818" points="679.8877,513.6787,669.8877,517.6787,679.8877,521.6787,675.8877,517.6787" style="stroke:#181818;stroke-width:1.0;"/><line style="stroke:#181818;stroke-width:1.0;stroke-dasharray:2.0,2.0;" x1="673.8877" x2="891.333" y1="517.6787" y2="517.6787"/><text fill="#000000" font-family="Arial" font-size="12" font-weight="bold" lengthAdjust="spacing" textLength="13.3477" x="750.2627" y="513.1357">16</text><text fill="#000000" font-family="Arial" font-size="12" lengthAdjust="spacing" textLength="43.3477" x="767.6104" y="513.1357">success</text><polygon fill="#181818" points="102.0273,541.4775,92.0273,545.4775,102.0273,549.4775,98.0273,545.4775" style="stroke:#181818;stroke-width:1.0;"/><line style="stroke:#181818;stroke-width:1.0;stroke-dasharray:2.0,2.0;" x1="96.0273" x2="657.8877" y1="545.4775" y2="545.4775"/><text fill="#000000" font-family="Arial" font-size="12" font-weight="bold" lengthAdjust="spacing" textLength="13.3477" x="291.688" y="540.9346">17</text><text fill="#000000" font-family="Arial" font-size="12" lengthAdjust="spacing" textLength="149.1914" x="309.0356" y="540.9346">OK|Weather data registered</text><polygon fill="#181818" points="646.8877,569.2764,656.8877,573.2764,646.8877,577.2764,650.8877,573.2764" style="stroke:#181818;stroke-width:1.0;"/><line style="stroke:#181818;stroke-width:1.0;" x1="91.0273" x2="652.8877" y1="573.2764" y2="573.2764"/><text fill="#000000" font-family="Arial" font-size="12" font-weight="bold" lengthAdjust="spacing" textLength="13.3477" x="261.4624" y="568.7334">18</text><text fill="#000000" font-family="Arial" font-size="12" lengthAdjust="spacing" textLength="209.6426" x="278.8101" y="568.7334">CONSULT_WEATHER|LIS|2026-06-01</text><polygon fill="#181818" points="875.333,597.0752,885.333,601.0752,875.333,605.0752,879.333,601.0752" style="stroke:#181818;stroke-width:1.0;"/><line style="stroke:#181818;stroke-width:1.0;" x1="668.8877" x2="881.333" y1="601.0752" y2="601.0752"/><text fill="#000000" font-family="Arial" font-size="12" font-weight="bold" lengthAdjust="spacing" textLength="13.3477" x="696.4814" y="596.5322">19</text><text fill="#000000" font-family="Arial" font-size="12" lengthAdjust="spacing" textLength="145.9102" x="713.8291" y="596.5322">weatherDataForArea("LIS")</text><polygon fill="#181818" points="679.8877,624.874,669.8877,628.874,679.8877,632.874,675.8877,628.874" style="stroke:#181818;stroke-width:1.0;"/><line style="stroke:#181818;stroke-width:1.0;stroke-dasharray:2.0,2.0;" x1="673.8877" x2="891.333" y1="628.874" y2="628.874"/><text fill="#000000" font-family="Arial" font-size="12" font-weight="bold" lengthAdjust="spacing" textLength="13.3477" x="707.5771" y="624.3311">20</text><text fill="#000000" font-family="Arial" font-size="12" lengthAdjust="spacing" textLength="128.7188" x="724.9248" y="624.3311">List&lt;WeatherDataDTO&gt;</text><polygon fill="#181818" points="102.0273,652.6729,92.0273,656.6729,102.0273,660.6729,98.0273,656.6729" style="stroke:#181818;stroke-width:1.0;"/><line style="stroke:#181818;stroke-width:1.0;stroke-dasharray:2.0,2.0;" x1="96.0273" x2="657.8877" y1="656.6729" y2="656.6729"/><text fill="#000000" font-family="Arial" font-size="12" font-weight="bold" lengthAdjust="spacing" textLength="13.3477" x="320.7036" y="652.1299">21</text><text fill="#000000" font-family="Arial" font-size="12" lengthAdjust="spacing" textLength="91.1602" x="338.0513" y="652.1299">OK|record data...</text><polygon fill="#181818" points="646.8877,680.4717,656.8877,684.4717,646.8877,688.4717,650.8877,684.4717" style="stroke:#181818;stroke-width:1.0;"/><line style="stroke:#181818;stroke-width:1.0;" x1="91.0273" x2="652.8877" y1="684.4717" y2="684.4717"/><text fill="#000000" font-family="Arial" font-size="12" font-weight="bold" lengthAdjust="spacing" textLength="13.3477" x="351.9517" y="679.9287">22</text><text fill="#000000" font-family="Arial" font-size="12" lengthAdjust="spacing" textLength="28.6641" x="369.2993" y="679.9287">QUIT</text><polygon fill="#181818" points="1072.7168,708.2705,1082.7168,712.2705,1072.7168,716.2705,1076.7168,712.2705" style="stroke:#181818;stroke-width:1.0;"/><line style="stroke:#181818;stroke-width:1.0;" x1="668.8877" x2="1078.7168" y1="712.2705" y2="712.2705"/><text fill="#000000" font-family="Arial" font-size="12" font-weight="bold" lengthAdjust="spacing" textLength="13.3477" x="828.4575" y="707.7275">23</text><text fill="#000000" font-family="Arial" font-size="12" lengthAdjust="spacing" textLength="79.3418" x="845.8052" y="707.7275">UDP LOGOUT</text><polygon fill="#181818" points="102.0273,736.0693,92.0273,740.0693,102.0273,744.0693,98.0273,740.0693" style="stroke:#181818;stroke-width:1.0;"/><line style="stroke:#181818;stroke-width:1.0;stroke-dasharray:2.0,2.0;" x1="96.0273" x2="652.8877" y1="740.0693" y2="740.0693"/><text fill="#000000" font-family="Arial" font-size="12" font-weight="bold" lengthAdjust="spacing" textLength="13.3477" x="351.7778" y="735.5264">24</text><text fill="#000000" font-family="Arial" font-size="12" lengthAdjust="spacing" textLength="24.0117" x="369.1255" y="735.5264">BYE</text><polygon fill="#181818" points="243.7695,763.8682,253.7695,767.8682,243.7695,771.8682,247.7695,767.8682" style="stroke:#181818;stroke-width:1.0;"/><line style="stroke:#181818;stroke-width:1.0;" x1="91.0273" x2="249.7695" y1="767.8682" y2="767.8682"/><text fill="#000000" font-family="Arial" font-size="12" font-weight="bold" lengthAdjust="spacing" textLength="13.3477" x="146.7217" y="763.3252">25</text><text fill="#000000" font-family="Arial" font-size="12" lengthAdjust="spacing" textLength="36.0059" x="164.0693" y="763.3252">close()</text><line style="stroke:#181818;stroke-width:1.0;" x1="265.7695" x2="307.7695" y1="800.667" y2="800.667"/><line style="stroke:#181818;stroke-width:1.0;" x1="307.7695" x2="307.7695" y1="800.667" y2="813.667"/><line style="stroke:#181818;stroke-width:1.0;" x1="260.7695" x2="307.7695" y1="813.667" y2="813.667"/><polygon fill="#181818" points="270.7695,809.667,260.7695,813.667,270.7695,817.667,266.7695,813.667" style="stroke:#181818;stroke-width:1.0;"/><text fill="#000000" font-family="Arial" font-size="12" font-weight="bold" lengthAdjust="spacing" textLength="13.3477" x="272.7695" y="796.124">26</text><text fill="#000000" font-family="Arial" font-size="12" lengthAdjust="spacing" textLength="74.0215" x="290.1172" y="796.124">socket.close()</text><!--SRC=[bLHTRzem57tFhx1ueb912QsshfigPK1RL0eCWgezHQvp6wm6ExDDaQRy-DryWMapLAGysF4vvzvpxxKDDmaG7OKRxLvUXbkWPWKgLB2M1aBA66ZjEFgLYvGgkYOQ_cn0C7Z4_pG6F-6n80o40MMX8dYXcyJSIc4cT0t4LvmcpUSB_XU8rxCEPrGPpdXAXPdHAE8Y9XUkuwJxtwJbZnRq1Ve9nyX-chO8rOGLkqDSmD8IL20CIm-Fdqgx2r1le0OKJOi261NBHcmfTqz5b80gmAjoVOYU5mMqz3c30gtBzI5w6QLZ6S-10N-hL1CPnoZgq8sHOhD-pjUbGzAvoPsGQo9WItOEsokfpJdni8rd3cM6lr43TL5s-xm4EHarIfCe4_HdX4aXW5d0gWGL2E6LpIfiKpNQMh9NC6TE1EzbTlkwM4KEg5fPkguJWCXcvzbQhlSf-ClWFgk6rSjcLEkjL97tCKvDGNPLUMHZJLSeoHaYsxNAETd9MFMhsrMJEmTfv494WSPPjjEkILRmifr8MGvcP3oz6qt2wSC-JDNj7S6kJEur1pSMOZnQ1A4_7_gBPgi9ryPNG7NxqwR6IFdXSzN7swbaahC7mVJcg44xt-b3XbbTeyop5D-xtMvpvlFX7UO-d8TFGp-u7yvpKdPnrVsQTRvrlSnptSphPTwLc_LwsMZoU9VbKeqc5SIOCwXgA0VKq3QgdHDaVDgstfIFtGasgtWuv8Rkai09RlJRdquMot5mOBVdzhvqNFoyPcFRlQ5RgV9Ej5l8QvtMIwiifpPI0SCBKHZyRoD_BKV1iL6VBWCxvB5H__bxQ4FhI_pXuME9r61FjFMibOZoAUhMm7TlYhKjfVy1]--></g></svg>