<?plantuml 1.2026.2?><svg xmlns="http://www.w3.org/2000/svg" xmlns:xlink="http://www.w3.org/1999/xlink" contentStyleType="text/css" data-diagram-type="CLASS" height="3017px" preserveAspectRatio="none" style="width:3048px;height:3017px;background:#FFFFFF;" version="1.1" viewBox="0 0 3048 3017" width="3048px" zoomAndPan="magnify"><defs/><g><!--cluster AircraftModel_Aggregate--><g class="cluster" data-qualified-name="AircraftModel_Aggregate" data-source-line="7" id="ent0002"><rect fill="none" height="1015" rx="2.5" ry="2.5" style="stroke:#000000;stroke-width:1.5;" width="1392.5" x="1649.5" y="1527"/><text fill="#000000" font-family="sans-serif" font-size="20" font-style="italic" lengthAdjust="spacing" textLength="112.3242" x="2289.5879" y="1549.7617">&#171;aggregate&#187;</text><text fill="#000000" font-family="sans-serif" font-size="20" font-weight="bold" lengthAdjust="spacing" textLength="238.9355" x="2226.2822" y="1574.918">AircraftModel_Aggregate</text></g><!--cluster AirTransportCompany_Aggregate--><g class="cluster" data-qualified-name="AirTransportCompany_Aggregate" data-source-line="50" id="ent0031"><rect fill="none" height="445" rx="2.5" ry="2.5" style="stroke:#000000;stroke-width:1.5;" width="1061.5" x="1610.5" y="2566"/><text fill="#000000" font-family="sans-serif" font-size="20" font-style="italic" lengthAdjust="spacing" textLength="112.3242" x="2085.0879" y="2588.7617">&#171;aggregate&#187;</text><text fill="#000000" font-family="sans-serif" font-size="20" font-weight="bold" lengthAdjust="spacing" textLength="322.2754" x="1980.1123" y="2613.918">AirTransportCompany_Aggregate</text></g><!--cluster Aircraft_Aggregate--><g class="cluster" data-qualified-name="Aircraft_Aggregate" data-source-line="71" id="ent0048"><rect fill="none" height="439" rx="2.5" ry="2.5" style="stroke:#000000;stroke-width:1.5;" width="1246.5" x="639" y="1064"/><text fill="#000000" font-family="sans-serif" font-size="20" font-style="italic" lengthAdjust="spacing" textLength="112.3242" x="1206.0879" y="1086.7617">&#171;aggregate&#187;</text><text fill="#000000" font-family="sans-serif" font-size="20" font-weight="bold" lengthAdjust="spacing" textLength="181.1621" x="1171.6689" y="1111.918">Aircraft_Aggregate</text></g><!--cluster Flight_Aggregate--><g class="cluster" data-qualified-name="Flight_Aggregate" data-source-line="98" id="ent0064"><rect fill="none" height="1033" rx="2.5" ry="2.5" style="stroke:#000000;stroke-width:1.5;" width="1906" x="7" y="7"/><text fill="#000000" font-family="sans-serif" font-size="20" font-style="italic" lengthAdjust="spacing" textLength="112.3242" x="903.8379" y="29.7617">&#171;aggregate&#187;</text><text fill="#000000" font-family="sans-serif" font-size="20" font-weight="bold" lengthAdjust="spacing" textLength="164.4531" x="877.7734" y="54.918">Flight_Aggregate</text></g><!--class AircraftModel--><g class="entity" data-qualified-name="AircraftModel_Aggregate.AircraftModel" data-source-line="8" id="ent0003"><rect fill="#F1F1F1" height="85.4688" rx="2.5" ry="2.5" style="stroke:#181818;stroke-width:0.5;" width="151.8125" x="1665.5" y="1909.5"/><ellipse cx="1681.5" cy="1952.2344" fill="#ADD1B2" rx="12" ry="12" style="stroke:#181818;stroke-width:1;"/><path d="M1683.6406,1947.1563 Q1683.8281,1946.9063 1684.0469,1946.7813 Q1684.2656,1946.6406 1684.5156,1946.6406 Q1684.9531,1946.6406 1685.2344,1946.9531 Q1685.5156,1947.25 1685.5156,1947.9688 L1685.5156,1949.6719 Q1685.5156,1950.3906 1685.2344,1950.7031 Q1684.9531,1951.0156 1684.5156,1951.0156 Q1684.125,1951.0156 1683.875,1950.7813 Q1683.625,1950.5625 1683.5156,1949.9531 Q1683.4531,1949.5313 1683.2344,1949.3125 Q1682.8438,1948.875 1682.125,1948.6094 Q1681.4063,1948.3438 1680.6875,1948.3438 Q1679.7813,1948.3438 1679.0313,1948.7344 Q1678.2813,1949.125 1677.7031,1950.0156 Q1677.125,1950.8906 1677.125,1952.0938 L1677.125,1953.3906 Q1677.125,1954.8438 1678.1719,1955.8125 Q1679.2344,1956.7813 1681.0938,1956.7813 Q1682.2031,1956.7813 1682.9844,1956.4688 Q1683.4219,1956.2969 1683.9375,1955.7813 Q1684.25,1955.4688 1684.4219,1955.375 Q1684.5938,1955.2813 1684.8281,1955.2813 Q1685.2188,1955.2813 1685.5156,1955.5938 Q1685.8281,1955.8906 1685.8281,1956.2969 Q1685.8281,1956.7031 1685.4219,1957.1719 Q1684.8281,1957.8594 1683.8906,1958.25 Q1682.625,1958.7813 1681.1094,1958.7813 Q1679.3281,1958.7813 1677.9063,1958.0469 Q1676.75,1957.4531 1675.9375,1956.1875 Q1675.125,1954.9219 1675.125,1953.4375 L1675.125,1952.0781 Q1675.125,1950.5156 1675.8438,1949.1719 Q1676.5781,1947.8125 1677.8594,1947.0781 Q1679.1563,1946.3438 1680.6094,1946.3438 Q1681.4688,1946.3438 1682.2188,1946.5469 Q1682.9844,1946.75 1683.6406,1947.1563 Z " fill="#000000"/><text fill="#000000" font-family="sans-serif" font-size="20" font-style="italic" lengthAdjust="spacing" textLength="70.0488" x="1720.3818" y="1935.2617">&#171;entity&#187;</text><text fill="#000000" font-family="sans-serif" font-size="20" font-style="italic" lengthAdjust="spacing" textLength="56.709" x="1727.0518" y="1960.418">&#171;root&#187;</text><text fill="#000000" font-family="sans-serif" font-size="20" lengthAdjust="spacing" textLength="117.8125" x="1696.5" y="1985.5742">AircraftModel</text></g><!--class ModelID--><g class="entity" data-qualified-name="AircraftModel_Aggregate.ModelID" data-source-line="10" id="ent0004"><rect fill="#F1F1F1" height="93.4688" rx="2.5" ry="2.5" style="stroke:#181818;stroke-width:0.5;" width="158.9844" x="2402" y="2432.5"/><ellipse cx="2418" cy="2462.6563" fill="#ADD1B2" rx="12" ry="12" style="stroke:#181818;stroke-width:1;"/><path d="M2420.1406,2457.5781 Q2420.3281,2457.3281 2420.5469,2457.2031 Q2420.7656,2457.0625 2421.0156,2457.0625 Q2421.4531,2457.0625 2421.7344,2457.375 Q2422.0156,2457.6719 2422.0156,2458.3906 L2422.0156,2460.0938 Q2422.0156,2460.8125 2421.7344,2461.125 Q2421.4531,2461.4375 2421.0156,2461.4375 Q2420.625,2461.4375 2420.375,2461.2031 Q2420.125,2460.9844 2420.0156,2460.375 Q2419.9531,2459.9531 2419.7344,2459.7344 Q2419.3438,2459.2969 2418.625,2459.0313 Q2417.9063,2458.7656 2417.1875,2458.7656 Q2416.2813,2458.7656 2415.5313,2459.1563 Q2414.7813,2459.5469 2414.2031,2460.4375 Q2413.625,2461.3125 2413.625,2462.5156 L2413.625,2463.8125 Q2413.625,2465.2656 2414.6719,2466.2344 Q2415.7344,2467.2031 2417.5938,2467.2031 Q2418.7031,2467.2031 2419.4844,2466.8906 Q2419.9219,2466.7188 2420.4375,2466.2031 Q2420.75,2465.8906 2420.9219,2465.7969 Q2421.0938,2465.7031 2421.3281,2465.7031 Q2421.7188,2465.7031 2422.0156,2466.0156 Q2422.3281,2466.3125 2422.3281,2466.7188 Q2422.3281,2467.125 2421.9219,2467.5938 Q2421.3281,2468.2813 2420.3906,2468.6719 Q2419.125,2469.2031 2417.6094,2469.2031 Q2415.8281,2469.2031 2414.4063,2468.4688 Q2413.25,2467.875 2412.4375,2466.6094 Q2411.625,2465.3438 2411.625,2463.8594 L2411.625,2462.5 Q2411.625,2460.9375 2412.3438,2459.5938 Q2413.0781,2458.2344 2414.3594,2457.5 Q2415.6563,2456.7656 2417.1094,2456.7656 Q2417.9688,2456.7656 2418.7188,2456.9688 Q2419.4844,2457.1719 2420.1406,2457.5781 Z " fill="#000000"/><text fill="#000000" font-family="sans-serif" font-size="20" font-style="italic" lengthAdjust="spacing" textLength="128.9844" x="2431" y="2458.2617">&#171;value object&#187;</text><text fill="#000000" font-family="sans-serif" font-size="20" lengthAdjust="spacing" textLength="74.4727" x="2458.2559" y="2483.418">ModelID</text><line style="stroke:#181818;stroke-width:0.5;" x1="2403" x2="2559.9844" y1="2492.8125" y2="2492.8125"/><text fill="#000000" font-family="sans-serif" font-size="20" lengthAdjust="spacing" textLength="15.5664" x="2408" y="2517.5742">id</text></g><g class="entity" data-qualified-name="AircraftModel_Aggregate.GMN5" data-source-line="13" id="ent0006"><path d="M2753.5,2449 L2753.5,2475 L2561.22,2479 L2753.5,2483 L2753.5,2509.3125 A0,0 0 0 0 2753.5,2509.3125 L2991.2871,2509.3125 A0,0 0 0 0 2991.2871,2509.3125 L2991.2871,2459 L2981.2871,2449 L2753.5,2449 A0,0 0 0 0 2753.5,2449" fill="#FEFFDD" style="stroke:#181818;stroke-width:0.5;"/><path d="M2981.2871,2449 L2981.2871,2459 L2991.2871,2459 L2981.2871,2449" fill="#FEFFDD" style="stroke:#181818;stroke-width:0.5;"/><text fill="#000000" font-family="sans-serif" font-size="20" lengthAdjust="spacing" textLength="190.6543" x="2759.5" y="2474.7617">name + manufacturer</text><text fill="#000000" font-family="sans-serif" font-size="20" lengthAdjust="spacing" textLength="216.7871" x="2759.5" y="2499.918">must be unique (US055)</text></g><!--class AircraftType--><g class="entity" data-qualified-name="AircraftModel_Aggregate.AircraftType" data-source-line="14" id="ent0008"><rect fill="#F1F1F1" height="118.625" rx="2.5" ry="2.5" style="stroke:#181818;stroke-width:0.5;" width="141.8027" x="2410.5" y="2273.5"/><ellipse cx="2426.5" cy="2291.0781" fill="#EB937F" rx="12" ry="12" style="stroke:#181818;stroke-width:1;"/><path d="M2424.4531,2292.1406 L2424.4531,2295.0781 L2429.5469,2295.0781 L2429.5469,2293.9844 Q2429.5469,2293.2656 2429.8281,2292.9688 Q2430.1094,2292.6563 2430.5625,2292.6563 Q2431,2292.6563 2431.2813,2292.9688 Q2431.5625,2293.2656 2431.5625,2293.9844 L2431.5625,2297.0781 L2422.125,2297.0781 Q2421.4063,2297.0781 2421.0938,2296.7969 Q2420.7969,2296.5156 2420.7969,2296.0781 Q2420.7969,2295.625 2421.1094,2295.3594 Q2421.4219,2295.0781 2422.125,2295.0781 L2422.4375,2295.0781 L2422.4375,2287.25 L2422.125,2287.25 Q2421.4063,2287.25 2421.0938,2286.9688 Q2420.7969,2286.6875 2420.7969,2286.2344 Q2420.7969,2285.7813 2421.0938,2285.5156 Q2421.4063,2285.2344 2422.125,2285.2344 L2431.1094,2285.2344 L2431.1094,2288.2813 Q2431.1094,2289 2430.8281,2289.3125 Q2430.5625,2289.6094 2430.125,2289.6094 Q2429.6719,2289.6094 2429.3906,2289.3125 Q2429.1094,2289.0156 2429.1094,2288.2813 L2429.1094,2287.25 L2424.4531,2287.25 L2424.4531,2290.1406 L2426.2031,2290.1406 Q2426.2031,2289.3594 2426.3438,2289.125 Q2426.6563,2288.6563 2427.2031,2288.6563 Q2427.6563,2288.6563 2427.9219,2288.9688 Q2428.2031,2289.2656 2428.2031,2289.9844 L2428.2031,2292.2969 Q2428.2031,2292.9531 2428.0469,2293.1719 Q2427.7344,2293.625 2427.2031,2293.625 Q2426.6563,2293.625 2426.3438,2293.1563 Q2426.2031,2292.9219 2426.2031,2292.1406 L2424.4531,2292.1406 Z " fill="#000000"/><text fill="#000000" font-family="sans-serif" font-size="20" lengthAdjust="spacing" textLength="107.8027" x="2441.5" y="2299.2617">AircraftType</text><line style="stroke:#181818;stroke-width:0.5;" x1="2411.5" x2="2551.3027" y1="2308.6563" y2="2308.6563"/><text fill="#000000" font-family="sans-serif" font-size="20" lengthAdjust="spacing" textLength="93.3984" x="2416.5" y="2333.418">passenger</text><text fill="#000000" font-family="sans-serif" font-size="20" lengthAdjust="spacing" textLength="50.0293" x="2416.5" y="2358.5742">cargo</text><text fill="#000000" font-family="sans-serif" font-size="20" lengthAdjust="spacing" textLength="53.3496" x="2416.5" y="2383.7305">mixed</text></g><!--class AircraftWeights--><g class="entity" data-qualified-name="AircraftModel_Aggregate.AircraftWeights" data-source-line="19" id="ent0009"><rect fill="#F1F1F1" height="168.9375" rx="2.5" ry="2.5" style="stroke:#181818;stroke-width:0.5;" width="169.5859" x="2396.5" y="2064.5"/><ellipse cx="2412.5" cy="2094.6563" fill="#ADD1B2" rx="12" ry="12" style="stroke:#181818;stroke-width:1;"/><path d="M2414.6406,2089.5781 Q2414.8281,2089.3281 2415.0469,2089.2031 Q2415.2656,2089.0625 2415.5156,2089.0625 Q2415.9531,2089.0625 2416.2344,2089.375 Q2416.5156,2089.6719 2416.5156,2090.3906 L2416.5156,2092.0938 Q2416.5156,2092.8125 2416.2344,2093.125 Q2415.9531,2093.4375 2415.5156,2093.4375 Q2415.125,2093.4375 2414.875,2093.2031 Q2414.625,2092.9844 2414.5156,2092.375 Q2414.4531,2091.9531 2414.2344,2091.7344 Q2413.8438,2091.2969 2413.125,2091.0313 Q2412.4063,2090.7656 2411.6875,2090.7656 Q2410.7813,2090.7656 2410.0313,2091.1563 Q2409.2813,2091.5469 2408.7031,2092.4375 Q2408.125,2093.3125 2408.125,2094.5156 L2408.125,2095.8125 Q2408.125,2097.2656 2409.1719,2098.2344 Q2410.2344,2099.2031 2412.0938,2099.2031 Q2413.2031,2099.2031 2413.9844,2098.8906 Q2414.4219,2098.7188 2414.9375,2098.2031 Q2415.25,2097.8906 2415.4219,2097.7969 Q2415.5938,2097.7031 2415.8281,2097.7031 Q2416.2188,2097.7031 2416.5156,2098.0156 Q2416.8281,2098.3125 2416.8281,2098.7188 Q2416.8281,2099.125 2416.4219,2099.5938 Q2415.8281,2100.2813 2414.8906,2100.6719 Q2413.625,2101.2031 2412.1094,2101.2031 Q2410.3281,2101.2031 2408.9063,2100.4688 Q2407.75,2099.875 2406.9375,2098.6094 Q2406.125,2097.3438 2406.125,2095.8594 L2406.125,2094.5 Q2406.125,2092.9375 2406.8438,2091.5938 Q2407.5781,2090.2344 2408.8594,2089.5 Q2410.1563,2088.7656 2411.6094,2088.7656 Q2412.4688,2088.7656 2413.2188,2088.9688 Q2413.9844,2089.1719 2414.6406,2089.5781 Z " fill="#000000"/><text fill="#000000" font-family="sans-serif" font-size="20" font-style="italic" lengthAdjust="spacing" textLength="128.9844" x="2430.8008" y="2090.2617">&#171;value object&#187;</text><text fill="#000000" font-family="sans-serif" font-size="20" lengthAdjust="spacing" textLength="135.5859" x="2427.5" y="2115.418">AircraftWeights</text><line style="stroke:#181818;stroke-width:0.5;" x1="2397.5" x2="2565.0859" y1="2124.8125" y2="2124.8125"/><text fill="#000000" font-family="sans-serif" font-size="20" lengthAdjust="spacing" textLength="116.709" x="2402.5" y="2149.5742">emptyWeight</text><text fill="#000000" font-family="sans-serif" font-size="20" lengthAdjust="spacing" textLength="63.3105" x="2402.5" y="2174.7305">MTOW</text><text fill="#000000" font-family="sans-serif" font-size="20" lengthAdjust="spacing" textLength="59.9707" x="2402.5" y="2199.8867">MZFW</text><text fill="#000000" font-family="sans-serif" font-size="20" lengthAdjust="spacing" textLength="154.502" x="2402.5" y="2225.043">maxFuelCapacity</text></g><g class="entity" data-qualified-name="AircraftModel_Aggregate.GMN10" data-source-line="25" id="ent0011"><path d="M2719,2106.5 L2719,2145 L2566.91,2149 L2719,2153 L2719,2191.9688 A0,0 0 0 0 2719,2191.9688 L3025.5762,2191.9688 A0,0 0 0 0 3025.5762,2191.9688 L3025.5762,2116.5 L3015.5762,2106.5 L2719,2106.5 A0,0 0 0 0 2719,2106.5" fill="#FEFFDD" style="stroke:#181818;stroke-width:0.5;"/><path d="M3015.5762,2106.5 L3015.5762,2116.5 L3025.5762,2116.5 L3015.5762,2106.5" fill="#FEFFDD" style="stroke:#181818;stroke-width:0.5;"/><text fill="#000000" font-family="sans-serif" font-size="20" lengthAdjust="spacing" textLength="82.2656" x="2725" y="2132.2617">Invariant:</text><text fill="#000000" font-family="sans-serif" font-size="20" lengthAdjust="spacing" textLength="285.5762" x="2725" y="2157.418">MTOW &gt; MZFW &gt; emptyWeight</text><text fill="#000000" font-family="sans-serif" font-size="20" lengthAdjust="spacing" textLength="247.8809" x="2725" y="2182.5742">All values positive (sec. 3.2)</text></g><!--class AircraftPerformance--><g class="entity" data-qualified-name="AircraftModel_Aggregate.AircraftPerformance" data-source-line="26" id="ent0013"><rect fill="#F1F1F1" height="143.7813" rx="2.5" ry="2.5" style="stroke:#181818;stroke-width:0.5;" width="211.832" x="2375.5" y="1880"/><ellipse cx="2391.5" cy="1910.1563" fill="#ADD1B2" rx="12" ry="12" style="stroke:#181818;stroke-width:1;"/><path d="M2393.6406,1905.0781 Q2393.8281,1904.8281 2394.0469,1904.7031 Q2394.2656,1904.5625 2394.5156,1904.5625 Q2394.9531,1904.5625 2395.2344,1904.875 Q2395.5156,1905.1719 2395.5156,1905.8906 L2395.5156,1907.5938 Q2395.5156,1908.3125 2395.2344,1908.625 Q2394.9531,1908.9375 2394.5156,1908.9375 Q2394.125,1908.9375 2393.875,1908.7031 Q2393.625,1908.4844 2393.5156,1907.875 Q2393.4531,1907.4531 2393.2344,1907.2344 Q2392.8438,1906.7969 2392.125,1906.5313 Q2391.4063,1906.2656 2390.6875,1906.2656 Q2389.7813,1906.2656 2389.0313,1906.6563 Q2388.2813,1907.0469 2387.7031,1907.9375 Q2387.125,1908.8125 2387.125,1910.0156 L2387.125,1911.3125 Q2387.125,1912.7656 2388.1719,1913.7344 Q2389.2344,1914.7031 2391.0938,1914.7031 Q2392.2031,1914.7031 2392.9844,1914.3906 Q2393.4219,1914.2188 2393.9375,1913.7031 Q2394.25,1913.3906 2394.4219,1913.2969 Q2394.5938,1913.2031 2394.8281,1913.2031 Q2395.2188,1913.2031 2395.5156,1913.5156 Q2395.8281,1913.8125 2395.8281,1914.2188 Q2395.8281,1914.625 2395.4219,1915.0938 Q2394.8281,1915.7813 2393.8906,1916.1719 Q2392.625,1916.7031 2391.1094,1916.7031 Q2389.3281,1916.7031 2387.9063,1915.9688 Q2386.75,1915.375 2385.9375,1914.1094 Q2385.125,1912.8438 2385.125,1911.3594 L2385.125,1910 Q2385.125,1908.4375 2385.8438,1907.0938 Q2386.5781,1905.7344 2387.8594,1905 Q2389.1563,1904.2656 2390.6094,1904.2656 Q2391.4688,1904.2656 2392.2188,1904.4688 Q2392.9844,1904.6719 2393.6406,1905.0781 Z " fill="#000000"/><text fill="#000000" font-family="sans-serif" font-size="20" font-style="italic" lengthAdjust="spacing" textLength="128.9844" x="2430.9238" y="1905.7617">&#171;value object&#187;</text><text fill="#000000" font-family="sans-serif" font-size="20" lengthAdjust="spacing" textLength="177.832" x="2406.5" y="1930.918">AircraftPerformance</text><line style="stroke:#181818;stroke-width:0.5;" x1="2376.5" x2="2586.332" y1="1940.3125" y2="1940.3125"/><text fill="#000000" font-family="sans-serif" font-size="20" lengthAdjust="spacing" textLength="124.4922" x="2381.5" y="1965.0742">serviceCeiling</text><text fill="#000000" font-family="sans-serif" font-size="20" lengthAdjust="spacing" textLength="111.1816" x="2381.5" y="1990.2305">cruiseSpeed</text><text fill="#000000" font-family="sans-serif" font-size="20" lengthAdjust="spacing" textLength="145.6055" x="2381.5" y="2015.3867">maximumRange</text></g><g class="entity" data-qualified-name="AircraftModel_Aggregate.GMN14" data-source-line="31" id="ent0015"><path d="M2726,1922 L2726,1948 L2587.51,1952 L2726,1956 L2726,1982.3125 A0,0 0 0 0 2726,1982.3125 L3019.373,1982.3125 A0,0 0 0 0 3019.373,1982.3125 L3019.373,1932 L3009.373,1922 L2726,1922 A0,0 0 0 0 2726,1922" fill="#FEFFDD" style="stroke:#181818;stroke-width:0.5;"/><path d="M3009.373,1922 L3009.373,1932 L3019.373,1932 L3009.373,1922" fill="#FEFFDD" style="stroke:#181818;stroke-width:0.5;"/><text fill="#000000" font-family="sans-serif" font-size="20" lengthAdjust="spacing" textLength="242.3633" x="2732" y="1947.7617">Each value has its own unit</text><text fill="#000000" font-family="sans-serif" font-size="20" lengthAdjust="spacing" textLength="272.373" x="2732" y="1972.918">defined at implementation time</text></g><!--class AerodynamicCoefficients--><g class="entity" data-qualified-name="AircraftModel_Aggregate.AerodynamicCoefficients" data-source-line="33" id="ent0017"><rect fill="#F1F1F1" height="143.7813" rx="2.5" ry="2.5" style="stroke:#181818;stroke-width:0.5;" width="255.2109" x="2354" y="1696"/><ellipse cx="2370" cy="1726.1563" fill="#ADD1B2" rx="12" ry="12" style="stroke:#181818;stroke-width:1;"/><path d="M2372.1406,1721.0781 Q2372.3281,1720.8281 2372.5469,1720.7031 Q2372.7656,1720.5625 2373.0156,1720.5625 Q2373.4531,1720.5625 2373.7344,1720.875 Q2374.0156,1721.1719 2374.0156,1721.8906 L2374.0156,1723.5938 Q2374.0156,1724.3125 2373.7344,1724.625 Q2373.4531,1724.9375 2373.0156,1724.9375 Q2372.625,1724.9375 2372.375,1724.7031 Q2372.125,1724.4844 2372.0156,1723.875 Q2371.9531,1723.4531 2371.7344,1723.2344 Q2371.3438,1722.7969 2370.625,1722.5313 Q2369.9063,1722.2656 2369.1875,1722.2656 Q2368.2813,1722.2656 2367.5313,1722.6563 Q2366.7813,1723.0469 2366.2031,1723.9375 Q2365.625,1724.8125 2365.625,1726.0156 L2365.625,1727.3125 Q2365.625,1728.7656 2366.6719,1729.7344 Q2367.7344,1730.7031 2369.5938,1730.7031 Q2370.7031,1730.7031 2371.4844,1730.3906 Q2371.9219,1730.2188 2372.4375,1729.7031 Q2372.75,1729.3906 2372.9219,1729.2969 Q2373.0938,1729.2031 2373.3281,1729.2031 Q2373.7188,1729.2031 2374.0156,1729.5156 Q2374.3281,1729.8125 2374.3281,1730.2188 Q2374.3281,1730.625 2373.9219,1731.0938 Q2373.3281,1731.7813 2372.3906,1732.1719 Q2371.125,1732.7031 2369.6094,1732.7031 Q2367.8281,1732.7031 2366.4063,1731.9688 Q2365.25,1731.375 2364.4375,1730.1094 Q2363.625,1728.8438 2363.625,1727.3594 L2363.625,1726 Q2363.625,1724.4375 2364.3438,1723.0938 Q2365.0781,1721.7344 2366.3594,1721 Q2367.6563,1720.2656 2369.1094,1720.2656 Q2369.9688,1720.2656 2370.7188,1720.4688 Q2371.4844,1720.6719 2372.1406,1721.0781 Z " fill="#000000"/><text fill="#000000" font-family="sans-serif" font-size="20" font-style="italic" lengthAdjust="spacing" textLength="128.9844" x="2431.1133" y="1721.7617">&#171;value object&#187;</text><text fill="#000000" font-family="sans-serif" font-size="20" lengthAdjust="spacing" textLength="221.2109" x="2385" y="1746.918">AerodynamicCoefficients</text><line style="stroke:#181818;stroke-width:0.5;" x1="2355" x2="2608.2109" y1="1756.3125" y2="1756.3125"/><text fill="#000000" font-family="sans-serif" font-size="20" lengthAdjust="spacing" textLength="83.3789" x="2360" y="1781.0742">wingArea</text><text fill="#000000" font-family="sans-serif" font-size="20" lengthAdjust="spacing" textLength="134.5215" x="2360" y="1806.2305">dragCoefficient</text><text fill="#000000" font-family="sans-serif" font-size="20" lengthAdjust="spacing" textLength="114.4922" x="2360" y="1831.3867">liftCoefficient</text></g><g class="entity" data-qualified-name="AircraftModel_Aggregate.GMN18" data-source-line="38" id="ent0019"><path d="M2779,1738 L2779,1764 L2609.07,1768 L2779,1772 L2779,1798.3125 A0,0 0 0 0 2779,1798.3125 L2965.6055,1798.3125 A0,0 0 0 0 2965.6055,1798.3125 L2965.6055,1748 L2955.6055,1738 L2779,1738 A0,0 0 0 0 2779,1738" fill="#FEFFDD" style="stroke:#181818;stroke-width:0.5;"/><path d="M2955.6055,1738 L2955.6055,1748 L2965.6055,1748 L2955.6055,1738" fill="#FEFFDD" style="stroke:#181818;stroke-width:0.5;"/><text fill="#000000" font-family="sans-serif" font-size="20" lengthAdjust="spacing" textLength="138.9551" x="2785" y="1763.7617">Used in lift/drag</text><text fill="#000000" font-family="sans-serif" font-size="20" lengthAdjust="spacing" textLength="165.6055" x="2785" y="1788.918">formulas (sec. 3.3)</text></g><!--class AircraftVariant--><g class="entity" data-qualified-name="AircraftModel_Aggregate.AircraftVariant" data-source-line="39" id="ent0021"><rect fill="#F1F1F1" height="60.3125" rx="2.5" ry="2.5" style="stroke:#181818;stroke-width:0.5;" width="160.709" x="2401" y="1596"/><ellipse cx="2417" cy="1626.1563" fill="#ADD1B2" rx="12" ry="12" style="stroke:#181818;stroke-width:1;"/><path d="M2419.1406,1621.0781 Q2419.3281,1620.8281 2419.5469,1620.7031 Q2419.7656,1620.5625 2420.0156,1620.5625 Q2420.4531,1620.5625 2420.7344,1620.875 Q2421.0156,1621.1719 2421.0156,1621.8906 L2421.0156,1623.5938 Q2421.0156,1624.3125 2420.7344,1624.625 Q2420.4531,1624.9375 2420.0156,1624.9375 Q2419.625,1624.9375 2419.375,1624.7031 Q2419.125,1624.4844 2419.0156,1623.875 Q2418.9531,1623.4531 2418.7344,1623.2344 Q2418.3438,1622.7969 2417.625,1622.5313 Q2416.9063,1622.2656 2416.1875,1622.2656 Q2415.2813,1622.2656 2414.5313,1622.6563 Q2413.7813,1623.0469 2413.2031,1623.9375 Q2412.625,1624.8125 2412.625,1626.0156 L2412.625,1627.3125 Q2412.625,1628.7656 2413.6719,1629.7344 Q2414.7344,1630.7031 2416.5938,1630.7031 Q2417.7031,1630.7031 2418.4844,1630.3906 Q2418.9219,1630.2188 2419.4375,1629.7031 Q2419.75,1629.3906 2419.9219,1629.2969 Q2420.0938,1629.2031 2420.3281,1629.2031 Q2420.7188,1629.2031 2421.0156,1629.5156 Q2421.3281,1629.8125 2421.3281,1630.2188 Q2421.3281,1630.625 2420.9219,1631.0938 Q2420.3281,1631.7813 2419.3906,1632.1719 Q2418.125,1632.7031 2416.6094,1632.7031 Q2414.8281,1632.7031 2413.4063,1631.9688 Q2412.25,1631.375 2411.4375,1630.1094 Q2410.625,1628.8438 2410.625,1627.3594 L2410.625,1626 Q2410.625,1624.4375 2411.3438,1623.0938 Q2412.0781,1621.7344 2413.3594,1621 Q2414.6563,1620.2656 2416.1094,1620.2656 Q2416.9688,1620.2656 2417.7188,1620.4688 Q2418.4844,1620.6719 2419.1406,1621.0781 Z " fill="#000000"/><text fill="#000000" font-family="sans-serif" font-size="20" font-style="italic" lengthAdjust="spacing" textLength="70.0488" x="2460.3301" y="1621.7617">&#171;entity&#187;</text><text fill="#000000" font-family="sans-serif" font-size="20" lengthAdjust="spacing" textLength="126.709" x="2432" y="1646.918">AircraftVariant</text></g><g class="entity" data-qualified-name="AircraftModel_Aggregate.GMN22" data-source-line="41" id="ent0023"><path d="M2719,1596 L2719,1622 L2562.16,1626 L2719,1630 L2719,1656.3125 A0,0 0 0 0 2719,1656.3125 L3026.1914,1656.3125 A0,0 0 0 0 3026.1914,1656.3125 L3026.1914,1606 L3016.1914,1596 L2719,1596 A0,0 0 0 0 2719,1596" fill="#FEFFDD" style="stroke:#181818;stroke-width:0.5;"/><path d="M3016.1914,1596 L3016.1914,1606 L3026.1914,1606 L3016.1914,1596" fill="#FEFFDD" style="stroke:#181818;stroke-width:0.5;"/><text fill="#000000" font-family="sans-serif" font-size="20" lengthAdjust="spacing" textLength="209.4434" x="2725" y="1621.7617">US057: "combination of</text><text fill="#000000" font-family="sans-serif" font-size="20" lengthAdjust="spacing" textLength="286.1914" x="2725" y="1646.918">model and engine configuration"</text></g><!--class AirTransportCompany--><g class="entity" data-qualified-name="AirTransportCompany_Aggregate.AirTransportCompany" data-source-line="51" id="ent0032"><rect fill="#F1F1F1" height="85.4688" rx="2.5" ry="2.5" style="stroke:#181818;stroke-width:0.5;" width="229.625" x="1626.5" y="2706.5"/><ellipse cx="1642.5" cy="2749.2344" fill="#ADD1B2" rx="12" ry="12" style="stroke:#181818;stroke-width:1;"/><path d="M1644.6406,2744.1563 Q1644.8281,2743.9063 1645.0469,2743.7813 Q1645.2656,2743.6406 1645.5156,2743.6406 Q1645.9531,2743.6406 1646.2344,2743.9531 Q1646.5156,2744.25 1646.5156,2744.9688 L1646.5156,2746.6719 Q1646.5156,2747.3906 1646.2344,2747.7031 Q1645.9531,2748.0156 1645.5156,2748.0156 Q1645.125,2748.0156 1644.875,2747.7813 Q1644.625,2747.5625 1644.5156,2746.9531 Q1644.4531,2746.5313 1644.2344,2746.3125 Q1643.8438,2745.875 1643.125,2745.6094 Q1642.4063,2745.3438 1641.6875,2745.3438 Q1640.7813,2745.3438 1640.0313,2745.7344 Q1639.2813,2746.125 1638.7031,2747.0156 Q1638.125,2747.8906 1638.125,2749.0938 L1638.125,2750.3906 Q1638.125,2751.8438 1639.1719,2752.8125 Q1640.2344,2753.7813 1642.0938,2753.7813 Q1643.2031,2753.7813 1643.9844,2753.4688 Q1644.4219,2753.2969 1644.9375,2752.7813 Q1645.25,2752.4688 1645.4219,2752.375 Q1645.5938,2752.2813 1645.8281,2752.2813 Q1646.2188,2752.2813 1646.5156,2752.5938 Q1646.8281,2752.8906 1646.8281,2753.2969 Q1646.8281,2753.7031 1646.4219,2754.1719 Q1645.8281,2754.8594 1644.8906,2755.25 Q1643.625,2755.7813 1642.1094,2755.7813 Q1640.3281,2755.7813 1638.9063,2755.0469 Q1637.75,2754.4531 1636.9375,2753.1875 Q1636.125,2751.9219 1636.125,2750.4375 L1636.125,2749.0781 Q1636.125,2747.5156 1636.8438,2746.1719 Q1637.5781,2744.8125 1638.8594,2744.0781 Q1640.1563,2743.3438 1641.6094,2743.3438 Q1642.4688,2743.3438 1643.2188,2743.5469 Q1643.9844,2743.75 1644.6406,2744.1563 Z " fill="#000000"/><text fill="#000000" font-family="sans-serif" font-size="20" font-style="italic" lengthAdjust="spacing" textLength="70.0488" x="1720.2881" y="2732.2617">&#171;entity&#187;</text><text fill="#000000" font-family="sans-serif" font-size="20" font-style="italic" lengthAdjust="spacing" textLength="56.709" x="1726.958" y="2757.418">&#171;root&#187;</text><text fill="#000000" font-family="sans-serif" font-size="20" lengthAdjust="spacing" textLength="195.625" x="1657.5" y="2782.5742">AirTransportCompany</text></g><!--class CompanyName--><g class="entity" data-qualified-name="AirTransportCompany_Aggregate.CompanyName" data-source-line="53" id="ent0033"><rect fill="#F1F1F1" height="93.4688" rx="2.5" ry="2.5" style="stroke:#181818;stroke-width:0.5;" width="172.9453" x="2068.5" y="2901.5"/><ellipse cx="2084.5" cy="2931.6563" fill="#ADD1B2" rx="12" ry="12" style="stroke:#181818;stroke-width:1;"/><path d="M2086.6406,2926.5781 Q2086.8281,2926.3281 2087.0469,2926.2031 Q2087.2656,2926.0625 2087.5156,2926.0625 Q2087.9531,2926.0625 2088.2344,2926.375 Q2088.5156,2926.6719 2088.5156,2927.3906 L2088.5156,2929.0938 Q2088.5156,2929.8125 2088.2344,2930.125 Q2087.9531,2930.4375 2087.5156,2930.4375 Q2087.125,2930.4375 2086.875,2930.2031 Q2086.625,2929.9844 2086.5156,2929.375 Q2086.4531,2928.9531 2086.2344,2928.7344 Q2085.8438,2928.2969 2085.125,2928.0313 Q2084.4063,2927.7656 2083.6875,2927.7656 Q2082.7813,2927.7656 2082.0313,2928.1563 Q2081.2813,2928.5469 2080.7031,2929.4375 Q2080.125,2930.3125 2080.125,2931.5156 L2080.125,2932.8125 Q2080.125,2934.2656 2081.1719,2935.2344 Q2082.2344,2936.2031 2084.0938,2936.2031 Q2085.2031,2936.2031 2085.9844,2935.8906 Q2086.4219,2935.7188 2086.9375,2935.2031 Q2087.25,2934.8906 2087.4219,2934.7969 Q2087.5938,2934.7031 2087.8281,2934.7031 Q2088.2188,2934.7031 2088.5156,2935.0156 Q2088.8281,2935.3125 2088.8281,2935.7188 Q2088.8281,2936.125 2088.4219,2936.5938 Q2087.8281,2937.2813 2086.8906,2937.6719 Q2085.625,2938.2031 2084.1094,2938.2031 Q2082.3281,2938.2031 2080.9063,2937.4688 Q2079.75,2936.875 2078.9375,2935.6094 Q2078.125,2934.3438 2078.125,2932.8594 L2078.125,2931.5 Q2078.125,2929.9375 2078.8438,2928.5938 Q2079.5781,2927.2344 2080.8594,2926.5 Q2082.1563,2925.7656 2083.6094,2925.7656 Q2084.4688,2925.7656 2085.2188,2925.9688 Q2085.9844,2926.1719 2086.6406,2926.5781 Z " fill="#000000"/><text fill="#000000" font-family="sans-serif" font-size="20" font-style="italic" lengthAdjust="spacing" textLength="128.9844" x="2104.4805" y="2927.2617">&#171;value object&#187;</text><text fill="#000000" font-family="sans-serif" font-size="20" lengthAdjust="spacing" textLength="138.9453" x="2099.5" y="2952.418">CompanyName</text><line style="stroke:#181818;stroke-width:0.5;" x1="2069.5" x2="2240.4453" y1="2961.8125" y2="2961.8125"/><text fill="#000000" font-family="sans-serif" font-size="20" lengthAdjust="spacing" textLength="50.0293" x="2074.5" y="2986.5742">name</text></g><g class="entity" data-qualified-name="AirTransportCompany_Aggregate.GMN34" data-source-line="56" id="ent0035"><path d="M2401,2930.5 L2401,2944 L2241.68,2948 L2401,2952 L2401,2965.6563 A0,0 0 0 0 2401,2965.6563 L2562.0879,2965.6563 A0,0 0 0 0 2562.0879,2965.6563 L2562.0879,2940.5 L2552.0879,2930.5 L2401,2930.5 A0,0 0 0 0 2401,2930.5" fill="#FEFFDD" style="stroke:#181818;stroke-width:0.5;"/><path d="M2552.0879,2930.5 L2552.0879,2940.5 L2562.0879,2940.5 L2552.0879,2930.5" fill="#FEFFDD" style="stroke:#181818;stroke-width:0.5;"/><text fill="#000000" font-family="sans-serif" font-size="20" lengthAdjust="spacing" textLength="140.0879" x="2407" y="2956.2617">unique (US060)</text></g><!--class IATACode_ATC--><g class="entity" data-qualified-name="AirTransportCompany_Aggregate.IATACode_ATC" data-source-line="57" id="ent0037"><rect fill="#F1F1F1" height="93.4688" rx="2.5" ry="2.5" style="stroke:#181818;stroke-width:0.5;" width="177.3887" x="2066.5" y="2768.5"/><ellipse cx="2082.5" cy="2798.6563" fill="#ADD1B2" rx="12" ry="12" style="stroke:#181818;stroke-width:1;"/><path d="M2084.6406,2793.5781 Q2084.8281,2793.3281 2085.0469,2793.2031 Q2085.2656,2793.0625 2085.5156,2793.0625 Q2085.9531,2793.0625 2086.2344,2793.375 Q2086.5156,2793.6719 2086.5156,2794.3906 L2086.5156,2796.0938 Q2086.5156,2796.8125 2086.2344,2797.125 Q2085.9531,2797.4375 2085.5156,2797.4375 Q2085.125,2797.4375 2084.875,2797.2031 Q2084.625,2796.9844 2084.5156,2796.375 Q2084.4531,2795.9531 2084.2344,2795.7344 Q2083.8438,2795.2969 2083.125,2795.0313 Q2082.4063,2794.7656 2081.6875,2794.7656 Q2080.7813,2794.7656 2080.0313,2795.1563 Q2079.2813,2795.5469 2078.7031,2796.4375 Q2078.125,2797.3125 2078.125,2798.5156 L2078.125,2799.8125 Q2078.125,2801.2656 2079.1719,2802.2344 Q2080.2344,2803.2031 2082.0938,2803.2031 Q2083.2031,2803.2031 2083.9844,2802.8906 Q2084.4219,2802.7188 2084.9375,2802.2031 Q2085.25,2801.8906 2085.4219,2801.7969 Q2085.5938,2801.7031 2085.8281,2801.7031 Q2086.2188,2801.7031 2086.5156,2802.0156 Q2086.8281,2802.3125 2086.8281,2802.7188 Q2086.8281,2803.125 2086.4219,2803.5938 Q2085.8281,2804.2813 2084.8906,2804.6719 Q2083.625,2805.2031 2082.1094,2805.2031 Q2080.3281,2805.2031 2078.9063,2804.4688 Q2077.75,2803.875 2076.9375,2802.6094 Q2076.125,2801.3438 2076.125,2799.8594 L2076.125,2798.5 Q2076.125,2796.9375 2076.8438,2795.5938 Q2077.5781,2794.2344 2078.8594,2793.5 Q2080.1563,2792.7656 2081.6094,2792.7656 Q2082.4688,2792.7656 2083.2188,2792.9688 Q2083.9844,2793.1719 2084.6406,2793.5781 Z " fill="#000000"/><text fill="#000000" font-family="sans-serif" font-size="20" font-style="italic" lengthAdjust="spacing" textLength="128.9844" x="2104.7021" y="2794.2617">&#171;value object&#187;</text><text fill="#000000" font-family="sans-serif" font-size="20" lengthAdjust="spacing" textLength="143.3887" x="2097.5" y="2819.418">IATACode_ATC</text><line style="stroke:#181818;stroke-width:0.5;" x1="2067.5" x2="2242.8887" y1="2828.8125" y2="2828.8125"/><text fill="#000000" font-family="sans-serif" font-size="20" lengthAdjust="spacing" textLength="43.3691" x="2072.5" y="2853.5742">code</text></g><!--class ICAOCode_ATC--><g class="entity" data-qualified-name="AirTransportCompany_Aggregate.ICAOCode_ATC" data-source-line="60" id="ent0038"><rect fill="#F1F1F1" height="93.4688" rx="2.5" ry="2.5" style="stroke:#181818;stroke-width:0.5;" width="181.832" x="2064" y="2635.5"/><ellipse cx="2080" cy="2665.6563" fill="#ADD1B2" rx="12" ry="12" style="stroke:#181818;stroke-width:1;"/><path d="M2082.1406,2660.5781 Q2082.3281,2660.3281 2082.5469,2660.2031 Q2082.7656,2660.0625 2083.0156,2660.0625 Q2083.4531,2660.0625 2083.7344,2660.375 Q2084.0156,2660.6719 2084.0156,2661.3906 L2084.0156,2663.0938 Q2084.0156,2663.8125 2083.7344,2664.125 Q2083.4531,2664.4375 2083.0156,2664.4375 Q2082.625,2664.4375 2082.375,2664.2031 Q2082.125,2663.9844 2082.0156,2663.375 Q2081.9531,2662.9531 2081.7344,2662.7344 Q2081.3438,2662.2969 2080.625,2662.0313 Q2079.9063,2661.7656 2079.1875,2661.7656 Q2078.2813,2661.7656 2077.5313,2662.1563 Q2076.7813,2662.5469 2076.2031,2663.4375 Q2075.625,2664.3125 2075.625,2665.5156 L2075.625,2666.8125 Q2075.625,2668.2656 2076.6719,2669.2344 Q2077.7344,2670.2031 2079.5938,2670.2031 Q2080.7031,2670.2031 2081.4844,2669.8906 Q2081.9219,2669.7188 2082.4375,2669.2031 Q2082.75,2668.8906 2082.9219,2668.7969 Q2083.0938,2668.7031 2083.3281,2668.7031 Q2083.7188,2668.7031 2084.0156,2669.0156 Q2084.3281,2669.3125 2084.3281,2669.7188 Q2084.3281,2670.125 2083.9219,2670.5938 Q2083.3281,2671.2813 2082.3906,2671.6719 Q2081.125,2672.2031 2079.6094,2672.2031 Q2077.8281,2672.2031 2076.4063,2671.4688 Q2075.25,2670.875 2074.4375,2669.6094 Q2073.625,2668.3438 2073.625,2666.8594 L2073.625,2665.5 Q2073.625,2663.9375 2074.3438,2662.5938 Q2075.0781,2661.2344 2076.3594,2660.5 Q2077.6563,2659.7656 2079.1094,2659.7656 Q2079.9688,2659.7656 2080.7188,2659.9688 Q2081.4844,2660.1719 2082.1406,2660.5781 Z " fill="#000000"/><text fill="#000000" font-family="sans-serif" font-size="20" font-style="italic" lengthAdjust="spacing" textLength="128.9844" x="2104.4238" y="2661.2617">&#171;value object&#187;</text><text fill="#000000" font-family="sans-serif" font-size="20" lengthAdjust="spacing" textLength="147.832" x="2095" y="2686.418">ICAOCode_ATC</text><line style="stroke:#181818;stroke-width:0.5;" x1="2065" x2="2244.832" y1="2695.8125" y2="2695.8125"/><text fill="#000000" font-family="sans-serif" font-size="20" lengthAdjust="spacing" textLength="43.3691" x="2070" y="2720.5742">code</text></g><g class="entity" data-qualified-name="AirTransportCompany_Aggregate.GMN39" data-source-line="63" id="ent0040"><path d="M2309.5,2797.5 L2309.5,2811 L2243.81,2815 L2309.5,2819 L2309.5,2832.6563 A0,0 0 0 0 2309.5,2832.6563 L2653.9375,2832.6563 A0,0 0 0 0 2653.9375,2832.6563 L2653.9375,2807.5 L2643.9375,2797.5 L2309.5,2797.5 A0,0 0 0 0 2309.5,2797.5" fill="#FEFFDD" style="stroke:#181818;stroke-width:0.5;"/><path d="M2643.9375,2797.5 L2643.9375,2807.5 L2653.9375,2807.5 L2643.9375,2797.5" fill="#FEFFDD" style="stroke:#181818;stroke-width:0.5;"/><text fill="#000000" font-family="sans-serif" font-size="20" lengthAdjust="spacing" textLength="323.4375" x="2315.5" y="2823.2617">IATACode (same class as in Airport)</text></g><g class="entity" data-qualified-name="AirTransportCompany_Aggregate.GMN42" data-source-line="64" id="ent0043"><path d="M2307,2664.5 L2307,2678 L2246.39,2682 L2307,2686 L2307,2699.6563 A0,0 0 0 0 2307,2699.6563 L2655.8809,2699.6563 A0,0 0 0 0 2655.8809,2699.6563 L2655.8809,2674.5 L2645.8809,2664.5 L2307,2664.5 A0,0 0 0 0 2307,2664.5" fill="#FEFFDD" style="stroke:#181818;stroke-width:0.5;"/><path d="M2645.8809,2664.5 L2645.8809,2674.5 L2655.8809,2674.5 L2645.8809,2664.5" fill="#FEFFDD" style="stroke:#181818;stroke-width:0.5;"/><text fill="#000000" font-family="sans-serif" font-size="20" lengthAdjust="spacing" textLength="327.8809" x="2313" y="2690.2617">ICAOCode (same class as in Airport)</text></g><!--class Aircraft--><g class="entity" data-qualified-name="Aircraft_Aggregate.Aircraft" data-source-line="72" id="ent0049"><rect fill="#F1F1F1" height="118.625" rx="2.5" ry="2.5" style="stroke:#181818;stroke-width:0.5;" width="279.8516" x="655" y="1331.5"/><ellipse cx="757.4014" cy="1374.2344" fill="#ADD1B2" rx="12" ry="12" style="stroke:#181818;stroke-width:1;"/><path d="M759.542,1369.1563 Q759.7295,1368.9063 759.9482,1368.7813 Q760.167,1368.6406 760.417,1368.6406 Q760.8545,1368.6406 761.1357,1368.9531 Q761.417,1369.25 761.417,1369.9688 L761.417,1371.6719 Q761.417,1372.3906 761.1357,1372.7031 Q760.8545,1373.0156 760.417,1373.0156 Q760.0264,1373.0156 759.7764,1372.7813 Q759.5264,1372.5625 759.417,1371.9531 Q759.3545,1371.5313 759.1357,1371.3125 Q758.7451,1370.875 758.0264,1370.6094 Q757.3076,1370.3438 756.5889,1370.3438 Q755.6826,1370.3438 754.9326,1370.7344 Q754.1826,1371.125 753.6045,1372.0156 Q753.0264,1372.8906 753.0264,1374.0938 L753.0264,1375.3906 Q753.0264,1376.8438 754.0732,1377.8125 Q755.1357,1378.7813 756.9951,1378.7813 Q758.1045,1378.7813 758.8857,1378.4688 Q759.3232,1378.2969 759.8389,1377.7813 Q760.1514,1377.4688 760.3232,1377.375 Q760.4951,1377.2813 760.7295,1377.2813 Q761.1201,1377.2813 761.417,1377.5938 Q761.7295,1377.8906 761.7295,1378.2969 Q761.7295,1378.7031 761.3232,1379.1719 Q760.7295,1379.8594 759.792,1380.25 Q758.5264,1380.7813 757.0107,1380.7813 Q755.2295,1380.7813 753.8076,1380.0469 Q752.6514,1379.4531 751.8389,1378.1875 Q751.0264,1376.9219 751.0264,1375.4375 L751.0264,1374.0781 Q751.0264,1372.5156 751.7451,1371.1719 Q752.4795,1369.8125 753.7607,1369.0781 Q755.0576,1368.3438 756.5107,1368.3438 Q757.3701,1368.3438 758.1201,1368.5469 Q758.8857,1368.75 759.542,1369.1563 Z " fill="#000000"/><text fill="#000000" font-family="sans-serif" font-size="20" font-style="italic" lengthAdjust="spacing" textLength="70.0488" x="777.4014" y="1357.2617">&#171;entity&#187;</text><text fill="#000000" font-family="sans-serif" font-size="20" font-style="italic" lengthAdjust="spacing" textLength="56.709" x="784.0713" y="1382.418">&#171;root&#187;</text><text fill="#000000" font-family="sans-serif" font-size="20" lengthAdjust="spacing" textLength="63.3398" x="780.7559" y="1407.5742">Aircraft</text><line style="stroke:#181818;stroke-width:0.5;" x1="656" x2="933.8516" y1="1416.9688" y2="1416.9688"/><text fill="#000000" font-family="sans-serif" font-size="20" lengthAdjust="spacing" textLength="267.8516" x="661" y="1441.7305">numberOfFlightCrewMembers</text></g><!--class RegistrationNumber--><g class="entity" data-qualified-name="Aircraft_Aggregate.RegistrationNumber" data-source-line="75" id="ent0050"><rect fill="#F1F1F1" height="118.625" rx="2.5" ry="2.5" style="stroke:#181818;stroke-width:0.5;" width="211.8516" x="1184" y="1367.5"/><ellipse cx="1200" cy="1397.6563" fill="#ADD1B2" rx="12" ry="12" style="stroke:#181818;stroke-width:1;"/><path d="M1202.1406,1392.5781 Q1202.3281,1392.3281 1202.5469,1392.2031 Q1202.7656,1392.0625 1203.0156,1392.0625 Q1203.4531,1392.0625 1203.7344,1392.375 Q1204.0156,1392.6719 1204.0156,1393.3906 L1204.0156,1395.0938 Q1204.0156,1395.8125 1203.7344,1396.125 Q1203.4531,1396.4375 1203.0156,1396.4375 Q1202.625,1396.4375 1202.375,1396.2031 Q1202.125,1395.9844 1202.0156,1395.375 Q1201.9531,1394.9531 1201.7344,1394.7344 Q1201.3438,1394.2969 1200.625,1394.0313 Q1199.9063,1393.7656 1199.1875,1393.7656 Q1198.2813,1393.7656 1197.5313,1394.1563 Q1196.7813,1394.5469 1196.2031,1395.4375 Q1195.625,1396.3125 1195.625,1397.5156 L1195.625,1398.8125 Q1195.625,1400.2656 1196.6719,1401.2344 Q1197.7344,1402.2031 1199.5938,1402.2031 Q1200.7031,1402.2031 1201.4844,1401.8906 Q1201.9219,1401.7188 1202.4375,1401.2031 Q1202.75,1400.8906 1202.9219,1400.7969 Q1203.0938,1400.7031 1203.3281,1400.7031 Q1203.7188,1400.7031 1204.0156,1401.0156 Q1204.3281,1401.3125 1204.3281,1401.7188 Q1204.3281,1402.125 1203.9219,1402.5938 Q1203.3281,1403.2813 1202.3906,1403.6719 Q1201.125,1404.2031 1199.6094,1404.2031 Q1197.8281,1404.2031 1196.4063,1403.4688 Q1195.25,1402.875 1194.4375,1401.6094 Q1193.625,1400.3438 1193.625,1398.8594 L1193.625,1397.5 Q1193.625,1395.9375 1194.3438,1394.5938 Q1195.0781,1393.2344 1196.3594,1392.5 Q1197.6563,1391.7656 1199.1094,1391.7656 Q1199.9688,1391.7656 1200.7188,1391.9688 Q1201.4844,1392.1719 1202.1406,1392.5781 Z " fill="#000000"/><text fill="#000000" font-family="sans-serif" font-size="20" font-style="italic" lengthAdjust="spacing" textLength="128.9844" x="1239.4336" y="1393.2617">&#171;value object&#187;</text><text fill="#000000" font-family="sans-serif" font-size="20" lengthAdjust="spacing" textLength="177.8516" x="1215" y="1418.418">RegistrationNumber</text><line style="stroke:#181818;stroke-width:0.5;" x1="1185" x2="1394.8516" y1="1427.8125" y2="1427.8125"/><text fill="#000000" font-family="sans-serif" font-size="20" lengthAdjust="spacing" textLength="67.8125" x="1190" y="1452.5742">number</text><text fill="#000000" font-family="sans-serif" font-size="20" lengthAdjust="spacing" textLength="168.9648" x="1190" y="1477.7305">registrationCountry</text></g><g class="entity" data-qualified-name="Aircraft_Aggregate.GMN51" data-source-line="79" id="ent0052"><path d="M1613.5,1409.5 L1613.5,1423 L1396.1,1427 L1613.5,1431 L1613.5,1444.6563 A0,0 0 0 0 1613.5,1444.6563 L1869.0703,1444.6563 A0,0 0 0 0 1869.0703,1444.6563 L1869.0703,1419.5 L1859.0703,1409.5 L1613.5,1409.5 A0,0 0 0 0 1613.5,1409.5" fill="#FEFFDD" style="stroke:#181818;stroke-width:0.5;"/><path d="M1859.0703,1409.5 L1859.0703,1419.5 L1869.0703,1419.5 L1859.0703,1409.5" fill="#FEFFDD" style="stroke:#181818;stroke-width:0.5;"/><text fill="#000000" font-family="sans-serif" font-size="20" lengthAdjust="spacing" textLength="234.5703" x="1619.5" y="1435.2617">unique worldwide (US070)</text></g><!--class CabinConfiguration--><g class="entity" data-qualified-name="Aircraft_Aggregate.CabinConfiguration" data-source-line="80" id="ent0054"><rect fill="#F1F1F1" height="60.3125" rx="2.5" ry="2.5" style="stroke:#181818;stroke-width:0.5;" width="205.2207" x="1187.5" y="1267"/><ellipse cx="1203.5" cy="1297.1563" fill="#ADD1B2" rx="12" ry="12" style="stroke:#181818;stroke-width:1;"/><path d="M1205.6406,1292.0781 Q1205.8281,1291.8281 1206.0469,1291.7031 Q1206.2656,1291.5625 1206.5156,1291.5625 Q1206.9531,1291.5625 1207.2344,1291.875 Q1207.5156,1292.1719 1207.5156,1292.8906 L1207.5156,1294.5938 Q1207.5156,1295.3125 1207.2344,1295.625 Q1206.9531,1295.9375 1206.5156,1295.9375 Q1206.125,1295.9375 1205.875,1295.7031 Q1205.625,1295.4844 1205.5156,1294.875 Q1205.4531,1294.4531 1205.2344,1294.2344 Q1204.8438,1293.7969 1204.125,1293.5313 Q1203.4063,1293.2656 1202.6875,1293.2656 Q1201.7813,1293.2656 1201.0313,1293.6563 Q1200.2813,1294.0469 1199.7031,1294.9375 Q1199.125,1295.8125 1199.125,1297.0156 L1199.125,1298.3125 Q1199.125,1299.7656 1200.1719,1300.7344 Q1201.2344,1301.7031 1203.0938,1301.7031 Q1204.2031,1301.7031 1204.9844,1301.3906 Q1205.4219,1301.2188 1205.9375,1300.7031 Q1206.25,1300.3906 1206.4219,1300.2969 Q1206.5938,1300.2031 1206.8281,1300.2031 Q1207.2188,1300.2031 1207.5156,1300.5156 Q1207.8281,1300.8125 1207.8281,1301.2188 Q1207.8281,1301.625 1207.4219,1302.0938 Q1206.8281,1302.7813 1205.8906,1303.1719 Q1204.625,1303.7031 1203.1094,1303.7031 Q1201.3281,1303.7031 1199.9063,1302.9688 Q1198.75,1302.375 1197.9375,1301.1094 Q1197.125,1299.8438 1197.125,1298.3594 L1197.125,1297 Q1197.125,1295.4375 1197.8438,1294.0938 Q1198.5781,1292.7344 1199.8594,1292 Q1201.1563,1291.2656 1202.6094,1291.2656 Q1203.4688,1291.2656 1204.2188,1291.4688 Q1204.9844,1291.6719 1205.6406,1292.0781 Z " fill="#000000"/><text fill="#000000" font-family="sans-serif" font-size="20" font-style="italic" lengthAdjust="spacing" textLength="128.9844" x="1239.6182" y="1292.7617">&#171;value object&#187;</text><text fill="#000000" font-family="sans-serif" font-size="20" lengthAdjust="spacing" textLength="171.2207" x="1218.5" y="1317.918">CabinConfiguration</text></g><!--class SeatClass--><g class="entity" data-qualified-name="Aircraft_Aggregate.SeatClass" data-source-line="82" id="ent0055"><rect fill="#F1F1F1" height="118.625" rx="2.5" ry="2.5" style="stroke:#181818;stroke-width:0.5;" width="158.9844" x="1662" y="1244.5"/><ellipse cx="1678" cy="1274.6563" fill="#ADD1B2" rx="12" ry="12" style="stroke:#181818;stroke-width:1;"/><path d="M1680.1406,1269.5781 Q1680.3281,1269.3281 1680.5469,1269.2031 Q1680.7656,1269.0625 1681.0156,1269.0625 Q1681.4531,1269.0625 1681.7344,1269.375 Q1682.0156,1269.6719 1682.0156,1270.3906 L1682.0156,1272.0938 Q1682.0156,1272.8125 1681.7344,1273.125 Q1681.4531,1273.4375 1681.0156,1273.4375 Q1680.625,1273.4375 1680.375,1273.2031 Q1680.125,1272.9844 1680.0156,1272.375 Q1679.9531,1271.9531 1679.7344,1271.7344 Q1679.3438,1271.2969 1678.625,1271.0313 Q1677.9063,1270.7656 1677.1875,1270.7656 Q1676.2813,1270.7656 1675.5313,1271.1563 Q1674.7813,1271.5469 1674.2031,1272.4375 Q1673.625,1273.3125 1673.625,1274.5156 L1673.625,1275.8125 Q1673.625,1277.2656 1674.6719,1278.2344 Q1675.7344,1279.2031 1677.5938,1279.2031 Q1678.7031,1279.2031 1679.4844,1278.8906 Q1679.9219,1278.7188 1680.4375,1278.2031 Q1680.75,1277.8906 1680.9219,1277.7969 Q1681.0938,1277.7031 1681.3281,1277.7031 Q1681.7188,1277.7031 1682.0156,1278.0156 Q1682.3281,1278.3125 1682.3281,1278.7188 Q1682.3281,1279.125 1681.9219,1279.5938 Q1681.3281,1280.2813 1680.3906,1280.6719 Q1679.125,1281.2031 1677.6094,1281.2031 Q1675.8281,1281.2031 1674.4063,1280.4688 Q1673.25,1279.875 1672.4375,1278.6094 Q1671.625,1277.3438 1671.625,1275.8594 L1671.625,1274.5 Q1671.625,1272.9375 1672.3438,1271.5938 Q1673.0781,1270.2344 1674.3594,1269.5 Q1675.6563,1268.7656 1677.1094,1268.7656 Q1677.9688,1268.7656 1678.7188,1268.9688 Q1679.4844,1269.1719 1680.1406,1269.5781 Z " fill="#000000"/><text fill="#000000" font-family="sans-serif" font-size="20" font-style="italic" lengthAdjust="spacing" textLength="128.9844" x="1691" y="1270.2617">&#171;value object&#187;</text><text fill="#000000" font-family="sans-serif" font-size="20" lengthAdjust="spacing" textLength="91.1523" x="1709.916" y="1295.418">SeatClass</text><line style="stroke:#181818;stroke-width:0.5;" x1="1663" x2="1819.9844" y1="1304.8125" y2="1304.8125"/><text fill="#000000" font-family="sans-serif" font-size="20" lengthAdjust="spacing" textLength="98.916" x="1668" y="1329.5742">className</text><text fill="#000000" font-family="sans-serif" font-size="20" lengthAdjust="spacing" textLength="140.0684" x="1668" y="1354.7305">numberOfSeats</text></g><g class="entity" data-qualified-name="Aircraft_Aggregate.GMN57" data-source-line="87" id="ent0058"><path d="M1617.5,1144 L1617.5,1204.3125 A0,0 0 0 0 1617.5,1204.3125 L1626.52,1204.3125 L1392.72,1269.17 L1634.52,1204.3125 L1865.3164,1204.3125 A0,0 0 0 0 1865.3164,1204.3125 L1865.3164,1154 L1855.3164,1144 L1617.5,1144 A0,0 0 0 0 1617.5,1144" fill="#FEFFDD" style="stroke:#181818;stroke-width:0.5;"/><path d="M1855.3164,1144 L1855.3164,1154 L1865.3164,1154 L1855.3164,1144" fill="#FEFFDD" style="stroke:#181818;stroke-width:0.5;"/><text fill="#000000" font-family="sans-serif" font-size="20" lengthAdjust="spacing" textLength="226.8164" x="1623.5" y="1169.7617">total seats cannot exceed</text><text fill="#000000" font-family="sans-serif" font-size="20" lengthAdjust="spacing" textLength="213.4277" x="1623.5" y="1194.918">model capacity (US070)</text></g><!--class OperationalStatus--><g class="entity" data-qualified-name="Aircraft_Aggregate.OperationalStatus" data-source-line="88" id="ent0060"><rect fill="#F1F1F1" height="93.4688" rx="2.5" ry="2.5" style="stroke:#181818;stroke-width:0.5;" width="194.0977" x="1193" y="1133.5"/><ellipse cx="1209" cy="1151.0781" fill="#EB937F" rx="12" ry="12" style="stroke:#181818;stroke-width:1;"/><path d="M1206.9531,1152.1406 L1206.9531,1155.0781 L1212.0469,1155.0781 L1212.0469,1153.9844 Q1212.0469,1153.2656 1212.3281,1152.9688 Q1212.6094,1152.6563 1213.0625,1152.6563 Q1213.5,1152.6563 1213.7813,1152.9688 Q1214.0625,1153.2656 1214.0625,1153.9844 L1214.0625,1157.0781 L1204.625,1157.0781 Q1203.9063,1157.0781 1203.5938,1156.7969 Q1203.2969,1156.5156 1203.2969,1156.0781 Q1203.2969,1155.625 1203.6094,1155.3594 Q1203.9219,1155.0781 1204.625,1155.0781 L1204.9375,1155.0781 L1204.9375,1147.25 L1204.625,1147.25 Q1203.9063,1147.25 1203.5938,1146.9688 Q1203.2969,1146.6875 1203.2969,1146.2344 Q1203.2969,1145.7813 1203.5938,1145.5156 Q1203.9063,1145.2344 1204.625,1145.2344 L1213.6094,1145.2344 L1213.6094,1148.2813 Q1213.6094,1149 1213.3281,1149.3125 Q1213.0625,1149.6094 1212.625,1149.6094 Q1212.1719,1149.6094 1211.8906,1149.3125 Q1211.6094,1149.0156 1211.6094,1148.2813 L1211.6094,1147.25 L1206.9531,1147.25 L1206.9531,1150.1406 L1208.7031,1150.1406 Q1208.7031,1149.3594 1208.8438,1149.125 Q1209.1563,1148.6563 1209.7031,1148.6563 Q1210.1563,1148.6563 1210.4219,1148.9688 Q1210.7031,1149.2656 1210.7031,1149.9844 L1210.7031,1152.2969 Q1210.7031,1152.9531 1210.5469,1153.1719 Q1210.2344,1153.625 1209.7031,1153.625 Q1209.1563,1153.625 1208.8438,1153.1563 Q1208.7031,1152.9219 1208.7031,1152.1406 L1206.9531,1152.1406 Z " fill="#000000"/><text fill="#000000" font-family="sans-serif" font-size="20" lengthAdjust="spacing" textLength="160.0977" x="1224" y="1159.2617">OperationalStatus</text><line style="stroke:#181818;stroke-width:0.5;" x1="1194" x2="1386.0977" y1="1168.6563" y2="1168.6563"/><text fill="#000000" font-family="sans-serif" font-size="20" lengthAdjust="spacing" textLength="52.2461" x="1199" y="1193.418">active</text><text fill="#000000" font-family="sans-serif" font-size="20" lengthAdjust="spacing" textLength="150.0684" x="1199" y="1218.5742">decommissioned</text></g><!--class Flight--><g class="entity" data-qualified-name="Flight_Aggregate.Flight" data-source-line="100" id="ent0065"><rect fill="#F1F1F1" height="118.625" rx="2.5" ry="2.5" style="stroke:#181818;stroke-width:0.5;" width="204.2949" x="33" y="803.5"/><ellipse cx="97.623" cy="846.2344" fill="#ADD1B2" rx="12" ry="12" style="stroke:#181818;stroke-width:1;"/><path d="M99.7637,841.1563 Q99.9512,840.9063 100.1699,840.7813 Q100.3887,840.6406 100.6387,840.6406 Q101.0762,840.6406 101.3574,840.9531 Q101.6387,841.25 101.6387,841.9688 L101.6387,843.6719 Q101.6387,844.3906 101.3574,844.7031 Q101.0762,845.0156 100.6387,845.0156 Q100.248,845.0156 99.998,844.7813 Q99.748,844.5625 99.6387,843.9531 Q99.5762,843.5313 99.3574,843.3125 Q98.9668,842.875 98.248,842.6094 Q97.5293,842.3438 96.8105,842.3438 Q95.9043,842.3438 95.1543,842.7344 Q94.4043,843.125 93.8262,844.0156 Q93.248,844.8906 93.248,846.0938 L93.248,847.3906 Q93.248,848.8438 94.2949,849.8125 Q95.3574,850.7813 97.2168,850.7813 Q98.3262,850.7813 99.1074,850.4688 Q99.5449,850.2969 100.0605,849.7813 Q100.373,849.4688 100.5449,849.375 Q100.7168,849.2813 100.9512,849.2813 Q101.3418,849.2813 101.6387,849.5938 Q101.9512,849.8906 101.9512,850.2969 Q101.9512,850.7031 101.5449,851.1719 Q100.9512,851.8594 100.0137,852.25 Q98.748,852.7813 97.2324,852.7813 Q95.4512,852.7813 94.0293,852.0469 Q92.873,851.4531 92.0605,850.1875 Q91.248,848.9219 91.248,847.4375 L91.248,846.0781 Q91.248,844.5156 91.9668,843.1719 Q92.7012,841.8125 93.9824,841.0781 Q95.2793,840.3438 96.7324,840.3438 Q97.5918,840.3438 98.3418,840.5469 Q99.1074,840.75 99.7637,841.1563 Z " fill="#000000"/><text fill="#000000" font-family="sans-serif" font-size="20" font-style="italic" lengthAdjust="spacing" textLength="70.0488" x="117.623" y="829.2617">&#171;entity&#187;</text><text fill="#000000" font-family="sans-serif" font-size="20" font-style="italic" lengthAdjust="spacing" textLength="56.709" x="124.293" y="854.418">&#171;root&#187;</text><text fill="#000000" font-family="sans-serif" font-size="20" lengthAdjust="spacing" textLength="48.9063" x="128.1943" y="879.5742">Flight</text><line style="stroke:#181818;stroke-width:0.5;" x1="34" x2="236.2949" y1="888.9688" y2="888.9688"/><text fill="#000000" font-family="sans-serif" font-size="20" lengthAdjust="spacing" textLength="192.2949" x="39" y="913.7305">scheduledArrivalTime</text></g><!--class FlightDesignator--><g class="entity" data-qualified-name="Flight_Aggregate.FlightDesignator" data-source-line="104" id="ent0066"><rect fill="#F1F1F1" height="143.7813" rx="2.5" ry="2.5" style="stroke:#181818;stroke-width:0.5;" width="179.625" x="412" y="545"/><ellipse cx="428" cy="575.1563" fill="#ADD1B2" rx="12" ry="12" style="stroke:#181818;stroke-width:1;"/><path d="M430.1406,570.0781 Q430.3281,569.8281 430.5469,569.7031 Q430.7656,569.5625 431.0156,569.5625 Q431.4531,569.5625 431.7344,569.875 Q432.0156,570.1719 432.0156,570.8906 L432.0156,572.5938 Q432.0156,573.3125 431.7344,573.625 Q431.4531,573.9375 431.0156,573.9375 Q430.625,573.9375 430.375,573.7031 Q430.125,573.4844 430.0156,572.875 Q429.9531,572.4531 429.7344,572.2344 Q429.3438,571.7969 428.625,571.5313 Q427.9063,571.2656 427.1875,571.2656 Q426.2813,571.2656 425.5313,571.6563 Q424.7813,572.0469 424.2031,572.9375 Q423.625,573.8125 423.625,575.0156 L423.625,576.3125 Q423.625,577.7656 424.6719,578.7344 Q425.7344,579.7031 427.5938,579.7031 Q428.7031,579.7031 429.4844,579.3906 Q429.9219,579.2188 430.4375,578.7031 Q430.75,578.3906 430.9219,578.2969 Q431.0938,578.2031 431.3281,578.2031 Q431.7188,578.2031 432.0156,578.5156 Q432.3281,578.8125 432.3281,579.2188 Q432.3281,579.625 431.9219,580.0938 Q431.3281,580.7813 430.3906,581.1719 Q429.125,581.7031 427.6094,581.7031 Q425.8281,581.7031 424.4063,580.9688 Q423.25,580.375 422.4375,579.1094 Q421.625,577.8438 421.625,576.3594 L421.625,575 Q421.625,573.4375 422.3438,572.0938 Q423.0781,570.7344 424.3594,570 Q425.6563,569.2656 427.1094,569.2656 Q427.9688,569.2656 428.7188,569.4688 Q429.4844,569.6719 430.1406,570.0781 Z " fill="#000000"/><text fill="#000000" font-family="sans-serif" font-size="20" font-style="italic" lengthAdjust="spacing" textLength="128.9844" x="451.3203" y="570.7617">&#171;value object&#187;</text><text fill="#000000" font-family="sans-serif" font-size="20" lengthAdjust="spacing" textLength="145.625" x="443" y="595.918">FlightDesignator</text><line style="stroke:#181818;stroke-width:0.5;" x1="413" x2="590.625" y1="605.3125" y2="605.3125"/><text fill="#000000" font-family="sans-serif" font-size="20" lengthAdjust="spacing" textLength="150.0781" x="418" y="630.0742">airlineDesignator</text><text fill="#000000" font-family="sans-serif" font-size="20" lengthAdjust="spacing" textLength="113.3789" x="418" y="655.2305">flightNumber</text><text fill="#000000" font-family="sans-serif" font-size="20" lengthAdjust="spacing" textLength="148.9844" x="418" y="680.3867">operationalSuffix</text></g><g class="entity" data-qualified-name="Flight_Aggregate.GMN67" data-source-line="109" id="ent0068"><path d="M23,587 L23,647.3125 A0,0 0 0 0 23,647.3125 L247.3496,647.3125 A0,0 0 0 0 247.3496,647.3125 L247.3496,621 L411.85,617 L247.3496,613 L247.3496,597 L237.3496,587 L23,587 A0,0 0 0 0 23,587" fill="#FEFFDD" style="stroke:#181818;stroke-width:0.5;"/><path d="M237.3496,587 L237.3496,597 L247.3496,597 L237.3496,587" fill="#FEFFDD" style="stroke:#181818;stroke-width:0.5;"/><text fill="#000000" font-family="sans-serif" font-size="20" lengthAdjust="spacing" textLength="203.3496" x="29" y="612.7617">Format: xxn(n)(n)(n)(a)</text><text fill="#000000" font-family="sans-serif" font-size="20" lengthAdjust="spacing" textLength="148.9746" x="29" y="637.918">unique (sec. 3.2)</text></g><!--class FlightType--><g class="entity" data-qualified-name="Flight_Aggregate.FlightType" data-source-line="111" id="ent0070"><rect fill="#F1F1F1" height="93.4688" rx="2.5" ry="2.5" style="stroke:#181818;stroke-width:0.5;" width="127.3691" x="731.5" y="930.5"/><ellipse cx="747.5" cy="948.0781" fill="#EB937F" rx="12" ry="12" style="stroke:#181818;stroke-width:1;"/><path d="M745.4531,949.1406 L745.4531,952.0781 L750.5469,952.0781 L750.5469,950.9844 Q750.5469,950.2656 750.8281,949.9688 Q751.1094,949.6563 751.5625,949.6563 Q752,949.6563 752.2813,949.9688 Q752.5625,950.2656 752.5625,950.9844 L752.5625,954.0781 L743.125,954.0781 Q742.4063,954.0781 742.0938,953.7969 Q741.7969,953.5156 741.7969,953.0781 Q741.7969,952.625 742.1094,952.3594 Q742.4219,952.0781 743.125,952.0781 L743.4375,952.0781 L743.4375,944.25 L743.125,944.25 Q742.4063,944.25 742.0938,943.9688 Q741.7969,943.6875 741.7969,943.2344 Q741.7969,942.7813 742.0938,942.5156 Q742.4063,942.2344 743.125,942.2344 L752.1094,942.2344 L752.1094,945.2813 Q752.1094,946 751.8281,946.3125 Q751.5625,946.6094 751.125,946.6094 Q750.6719,946.6094 750.3906,946.3125 Q750.1094,946.0156 750.1094,945.2813 L750.1094,944.25 L745.4531,944.25 L745.4531,947.1406 L747.2031,947.1406 Q747.2031,946.3594 747.3438,946.125 Q747.6563,945.6563 748.2031,945.6563 Q748.6563,945.6563 748.9219,945.9688 Q749.2031,946.2656 749.2031,946.9844 L749.2031,949.2969 Q749.2031,949.9531 749.0469,950.1719 Q748.7344,950.625 748.2031,950.625 Q747.6563,950.625 747.3438,950.1563 Q747.2031,949.9219 747.2031,949.1406 L745.4531,949.1406 Z " fill="#000000"/><text fill="#000000" font-family="sans-serif" font-size="20" lengthAdjust="spacing" textLength="93.3691" x="762.5" y="956.2617">FlightType</text><line style="stroke:#181818;stroke-width:0.5;" x1="732.5" x2="857.8691" y1="965.6563" y2="965.6563"/><text fill="#000000" font-family="sans-serif" font-size="20" lengthAdjust="spacing" textLength="62.2559" x="737.5" y="990.418">regular</text><text fill="#000000" font-family="sans-serif" font-size="20" lengthAdjust="spacing" textLength="62.2461" x="737.5" y="1015.5742">charter</text></g><g class="entity" data-qualified-name="Flight_Aggregate.GMN71" data-source-line="115" id="ent0072"><path d="M1130,938.5 L1130,975.71 L858.69,977.51 L1130,983.71 L1130,1023.9688 A0,0 0 0 0 1130,1023.9688 L1450.0625,1023.9688 A0,0 0 0 0 1450.0625,1023.9688 L1450.0625,948.5 L1440.0625,938.5 L1130,938.5 A0,0 0 0 0 1130,938.5" fill="#FEFFDD" style="stroke:#181818;stroke-width:0.5;"/><path d="M1440.0625,938.5 L1440.0625,948.5 L1450.0625,948.5 L1440.0625,938.5" fill="#FEFFDD" style="stroke:#181818;stroke-width:0.5;"/><text fill="#000000" font-family="sans-serif" font-size="20" lengthAdjust="spacing" textLength="210.1172" x="1136" y="964.2617">Invariant: if regular then</text><text fill="#000000" font-family="sans-serif" font-size="20" lengthAdjust="spacing" textLength="249.0332" x="1136" y="989.418">DepartureSchedule must be</text><text fill="#000000" font-family="sans-serif" font-size="20" lengthAdjust="spacing" textLength="299.0625" x="1136" y="1014.5742">RegularSchedule, and vice versa.</text></g><!--class DepartureSchedule--><g class="entity" data-qualified-name="Flight_Aggregate.DepartureSchedule" data-source-line="117" id="ent0074"><rect fill="#F1F1F1" height="60.3125" rx="2.5" ry="2.5" style="stroke:#181818;stroke-width:0.5;" width="206.334" x="692" y="830"/><ellipse cx="708" cy="860.1563" fill="#A9DCDF" rx="12" ry="12" style="stroke:#181818;stroke-width:1;"/><path d="M710.4531,862.1875 L705.5781,862.1875 L705.0938,863.4063 L705.5781,863.4063 Q706.3125,863.4063 706.6094,863.6875 Q706.9219,863.9531 706.9219,864.4063 Q706.9219,864.8438 706.6094,865.125 Q706.3125,865.4063 705.5781,865.4063 L702.8906,865.4063 Q702.1719,865.4063 701.8594,865.125 Q701.5469,864.8438 701.5469,864.4063 Q701.5469,863.9531 701.875,863.6719 Q702.2031,863.3906 702.9375,863.4063 L706.0781,855.5781 L704.7813,855.5781 Q704.0469,855.5781 703.7344,855.2969 Q703.4375,855.0156 703.4375,854.5625 Q703.4375,854.1094 703.7344,853.8438 Q704.0469,853.5625 704.7813,853.5625 L709.0938,853.5625 L713.0781,863.4063 Q713.7813,863.4063 714.0156,863.5625 Q714.4688,863.875 714.4688,864.4063 Q714.4688,864.8438 714.1563,865.125 Q713.8594,865.4063 713.1406,865.4063 L710.4375,865.4063 Q709.7188,865.4063 709.4063,865.125 Q709.0938,864.8438 709.0938,864.4063 Q709.0938,863.9531 709.4063,863.6875 Q709.7188,863.4063 710.4375,863.4063 L710.9219,863.4063 L710.4531,862.1875 Z M709.625,860.1875 L708,856.2188 L706.3906,860.1875 L709.625,860.1875 Z " fill="#000000"/><text fill="#000000" font-family="sans-serif" font-size="20" font-style="italic" lengthAdjust="spacing" textLength="128.9844" x="744.6748" y="855.7617">&#171;value object&#187;</text><text fill="#000000" font-family="sans-serif" font-size="20" font-style="italic" lengthAdjust="spacing" textLength="172.334" x="723" y="880.918">DepartureSchedule</text></g><!--class RegularSchedule--><g class="entity" data-qualified-name="Flight_Aggregate.RegularSchedule" data-source-line="120" id="ent0075"><rect fill="#F1F1F1" height="60.3125" rx="2.5" ry="2.5" style="stroke:#181818;stroke-width:0.5;" width="187.4375" x="1196.5" y="838"/><ellipse cx="1212.5" cy="868.1563" fill="#ADD1B2" rx="12" ry="12" style="stroke:#181818;stroke-width:1;"/><path d="M1214.6406,863.0781 Q1214.8281,862.8281 1215.0469,862.7031 Q1215.2656,862.5625 1215.5156,862.5625 Q1215.9531,862.5625 1216.2344,862.875 Q1216.5156,863.1719 1216.5156,863.8906 L1216.5156,865.5938 Q1216.5156,866.3125 1216.2344,866.625 Q1215.9531,866.9375 1215.5156,866.9375 Q1215.125,866.9375 1214.875,866.7031 Q1214.625,866.4844 1214.5156,865.875 Q1214.4531,865.4531 1214.2344,865.2344 Q1213.8438,864.7969 1213.125,864.5313 Q1212.4063,864.2656 1211.6875,864.2656 Q1210.7813,864.2656 1210.0313,864.6563 Q1209.2813,865.0469 1208.7031,865.9375 Q1208.125,866.8125 1208.125,868.0156 L1208.125,869.3125 Q1208.125,870.7656 1209.1719,871.7344 Q1210.2344,872.7031 1212.0938,872.7031 Q1213.2031,872.7031 1213.9844,872.3906 Q1214.4219,872.2188 1214.9375,871.7031 Q1215.25,871.3906 1215.4219,871.2969 Q1215.5938,871.2031 1215.8281,871.2031 Q1216.2188,871.2031 1216.5156,871.5156 Q1216.8281,871.8125 1216.8281,872.2188 Q1216.8281,872.625 1216.4219,873.0938 Q1215.8281,873.7813 1214.8906,874.1719 Q1213.625,874.7031 1212.1094,874.7031 Q1210.3281,874.7031 1208.9063,873.9688 Q1207.75,873.375 1206.9375,872.1094 Q1206.125,870.8438 1206.125,869.3594 L1206.125,868 Q1206.125,866.4375 1206.8438,865.0938 Q1207.5781,863.7344 1208.8594,863 Q1210.1563,862.2656 1211.6094,862.2656 Q1212.4688,862.2656 1213.2188,862.4688 Q1213.9844,862.6719 1214.6406,863.0781 Z " fill="#000000"/><text fill="#000000" font-family="sans-serif" font-size="20" font-style="italic" lengthAdjust="spacing" textLength="128.9844" x="1239.7266" y="863.7617">&#171;value object&#187;</text><text fill="#000000" font-family="sans-serif" font-size="20" lengthAdjust="spacing" textLength="153.4375" x="1227.5" y="888.918">RegularSchedule</text></g><g class="entity" data-qualified-name="Flight_Aggregate.GMN76" data-source-line="122" id="ent0077"><path d="M1589,850.5 L1589,864 L1383.59,868 L1589,872 L1589,885.6563 A0,0 0 0 0 1589,885.6563 L1894.0332,885.6563 A0,0 0 0 0 1894.0332,885.6563 L1894.0332,860.5 L1884.0332,850.5 L1589,850.5 A0,0 0 0 0 1589,850.5" fill="#FEFFDD" style="stroke:#181818;stroke-width:0.5;"/><path d="M1884.0332,850.5 L1884.0332,860.5 L1894.0332,860.5 L1884.0332,850.5" fill="#FEFFDD" style="stroke:#181818;stroke-width:0.5;"/><text fill="#000000" font-family="sans-serif" font-size="20" lengthAdjust="spacing" textLength="284.0332" x="1595" y="876.2617">Used when FlightType = regular</text></g><!--class ScheduleEntry--><g class="entity" data-qualified-name="Flight_Aggregate.ScheduleEntry" data-source-line="124" id="ent0079"><rect fill="#F1F1F1" height="118.625" rx="2.5" ry="2.5" style="stroke:#181818;stroke-width:0.5;" width="164.0781" x="1208" y="652.5"/><ellipse cx="1224" cy="682.6563" fill="#ADD1B2" rx="12" ry="12" style="stroke:#181818;stroke-width:1;"/><path d="M1226.1406,677.5781 Q1226.3281,677.3281 1226.5469,677.2031 Q1226.7656,677.0625 1227.0156,677.0625 Q1227.4531,677.0625 1227.7344,677.375 Q1228.0156,677.6719 1228.0156,678.3906 L1228.0156,680.0938 Q1228.0156,680.8125 1227.7344,681.125 Q1227.4531,681.4375 1227.0156,681.4375 Q1226.625,681.4375 1226.375,681.2031 Q1226.125,680.9844 1226.0156,680.375 Q1225.9531,679.9531 1225.7344,679.7344 Q1225.3438,679.2969 1224.625,679.0313 Q1223.9063,678.7656 1223.1875,678.7656 Q1222.2813,678.7656 1221.5313,679.1563 Q1220.7813,679.5469 1220.2031,680.4375 Q1219.625,681.3125 1219.625,682.5156 L1219.625,683.8125 Q1219.625,685.2656 1220.6719,686.2344 Q1221.7344,687.2031 1223.5938,687.2031 Q1224.7031,687.2031 1225.4844,686.8906 Q1225.9219,686.7188 1226.4375,686.2031 Q1226.75,685.8906 1226.9219,685.7969 Q1227.0938,685.7031 1227.3281,685.7031 Q1227.7188,685.7031 1228.0156,686.0156 Q1228.3281,686.3125 1228.3281,686.7188 Q1228.3281,687.125 1227.9219,687.5938 Q1227.3281,688.2813 1226.3906,688.6719 Q1225.125,689.2031 1223.6094,689.2031 Q1221.8281,689.2031 1220.4063,688.4688 Q1219.25,687.875 1218.4375,686.6094 Q1217.625,685.3438 1217.625,683.8594 L1217.625,682.5 Q1217.625,680.9375 1218.3438,679.5938 Q1219.0781,678.2344 1220.3594,677.5 Q1221.6563,676.7656 1223.1094,676.7656 Q1223.9688,676.7656 1224.7188,676.9688 Q1225.4844,677.1719 1226.1406,677.5781 Z " fill="#000000"/><text fill="#000000" font-family="sans-serif" font-size="20" font-style="italic" lengthAdjust="spacing" textLength="128.9844" x="1239.5469" y="678.2617">&#171;value object&#187;</text><text fill="#000000" font-family="sans-serif" font-size="20" lengthAdjust="spacing" textLength="130.0781" x="1239" y="703.418">ScheduleEntry</text><line style="stroke:#181818;stroke-width:0.5;" x1="1209" x2="1371.0781" y1="712.8125" y2="712.8125"/><text fill="#000000" font-family="sans-serif" font-size="20" lengthAdjust="spacing" textLength="104.4824" x="1214" y="737.5742">dayOfWeek</text><text fill="#000000" font-family="sans-serif" font-size="20" lengthAdjust="spacing" textLength="130.0586" x="1214" y="762.7305">departureTime</text></g><g class="entity" data-qualified-name="Flight_Aggregate.GMN80" data-source-line="128" id="ent0081"><path d="M1586,682 L1586,708 L1372.14,712 L1586,716 L1586,742.3125 A0,0 0 0 0 1586,742.3125 L1896.502,742.3125 A0,0 0 0 0 1896.502,742.3125 L1896.502,692 L1886.502,682 L1586,682 A0,0 0 0 0 1586,682" fill="#FEFFDD" style="stroke:#181818;stroke-width:0.5;"/><path d="M1886.502,682 L1886.502,692 L1896.502,692 L1886.502,682" fill="#FEFFDD" style="stroke:#181818;stroke-width:0.5;"/><text fill="#000000" font-family="sans-serif" font-size="20" lengthAdjust="spacing" textLength="201.6602" x="1592" y="707.7617">Client: "Monday 12:00;</text><text fill="#000000" font-family="sans-serif" font-size="20" lengthAdjust="spacing" textLength="289.502" x="1592" y="732.918">Tuesday 12:30; Thursday 11:30"</text></g><!--class CharterSchedule--><g class="entity" data-qualified-name="Flight_Aggregate.CharterSchedule" data-source-line="130" id="ent0083"><rect fill="#F1F1F1" height="118.625" rx="2.5" ry="2.5" style="stroke:#181818;stroke-width:0.5;" width="184.0879" x="1198" y="493.5"/><ellipse cx="1214" cy="523.6563" fill="#ADD1B2" rx="12" ry="12" style="stroke:#181818;stroke-width:1;"/><path d="M1216.1406,518.5781 Q1216.3281,518.3281 1216.5469,518.2031 Q1216.7656,518.0625 1217.0156,518.0625 Q1217.4531,518.0625 1217.7344,518.375 Q1218.0156,518.6719 1218.0156,519.3906 L1218.0156,521.0938 Q1218.0156,521.8125 1217.7344,522.125 Q1217.4531,522.4375 1217.0156,522.4375 Q1216.625,522.4375 1216.375,522.2031 Q1216.125,521.9844 1216.0156,521.375 Q1215.9531,520.9531 1215.7344,520.7344 Q1215.3438,520.2969 1214.625,520.0313 Q1213.9063,519.7656 1213.1875,519.7656 Q1212.2813,519.7656 1211.5313,520.1563 Q1210.7813,520.5469 1210.2031,521.4375 Q1209.625,522.3125 1209.625,523.5156 L1209.625,524.8125 Q1209.625,526.2656 1210.6719,527.2344 Q1211.7344,528.2031 1213.5938,528.2031 Q1214.7031,528.2031 1215.4844,527.8906 Q1215.9219,527.7188 1216.4375,527.2031 Q1216.75,526.8906 1216.9219,526.7969 Q1217.0938,526.7031 1217.3281,526.7031 Q1217.7188,526.7031 1218.0156,527.0156 Q1218.3281,527.3125 1218.3281,527.7188 Q1218.3281,528.125 1217.9219,528.5938 Q1217.3281,529.2813 1216.3906,529.6719 Q1215.125,530.2031 1213.6094,530.2031 Q1211.8281,530.2031 1210.4063,529.4688 Q1209.25,528.875 1208.4375,527.6094 Q1207.625,526.3438 1207.625,524.8594 L1207.625,523.5 Q1207.625,521.9375 1208.3438,520.5938 Q1209.0781,519.2344 1210.3594,518.5 Q1211.6563,517.7656 1213.1094,517.7656 Q1213.9688,517.7656 1214.7188,517.9688 Q1215.4844,518.1719 1216.1406,518.5781 Z " fill="#000000"/><text fill="#000000" font-family="sans-serif" font-size="20" font-style="italic" lengthAdjust="spacing" textLength="128.9844" x="1239.5518" y="519.2617">&#171;value object&#187;</text><text fill="#000000" font-family="sans-serif" font-size="20" lengthAdjust="spacing" textLength="150.0879" x="1229" y="544.418">CharterSchedule</text><line style="stroke:#181818;stroke-width:0.5;" x1="1199" x2="1381.0879" y1="553.8125" y2="553.8125"/><text fill="#000000" font-family="sans-serif" font-size="20" lengthAdjust="spacing" textLength="127.8613" x="1204" y="578.5742">departureDate</text><text fill="#000000" font-family="sans-serif" font-size="20" lengthAdjust="spacing" textLength="130.0586" x="1204" y="603.7305">departureTime</text></g><g class="entity" data-qualified-name="Flight_Aggregate.GMN84" data-source-line="134" id="ent0085"><path d="M1586,523 L1586,549 L1382.23,553 L1586,557 L1586,583.3125 A0,0 0 0 0 1586,583.3125 L1896.5801,583.3125 A0,0 0 0 0 1896.5801,583.3125 L1896.5801,533 L1886.5801,523 L1586,523 A0,0 0 0 0 1586,523" fill="#FEFFDD" style="stroke:#181818;stroke-width:0.5;"/><path d="M1886.5801,523 L1886.5801,533 L1896.5801,533 L1886.5801,523" fill="#FEFFDD" style="stroke:#181818;stroke-width:0.5;"/><text fill="#000000" font-family="sans-serif" font-size="20" lengthAdjust="spacing" textLength="289.5801" x="1592" y="548.7617">Used when FlightType = charter.</text><text fill="#000000" font-family="sans-serif" font-size="20" lengthAdjust="spacing" textLength="214.3066" x="1592" y="573.918">Client: "single instance."</text></g><!--class FlightPlan--><g class="entity" data-qualified-name="Flight_Aggregate.FlightPlan" data-source-line="136" id="ent0087"><rect fill="#F1F1F1" height="60.3125" rx="2.5" ry="2.5" style="stroke:#181818;stroke-width:0.5;" width="122.9355" x="733.5" y="316"/><ellipse cx="749.5" cy="346.1563" fill="#ADD1B2" rx="12" ry="12" style="stroke:#181818;stroke-width:1;"/><path d="M751.6406,341.0781 Q751.8281,340.8281 752.0469,340.7031 Q752.2656,340.5625 752.5156,340.5625 Q752.9531,340.5625 753.2344,340.875 Q753.5156,341.1719 753.5156,341.8906 L753.5156,343.5938 Q753.5156,344.3125 753.2344,344.625 Q752.9531,344.9375 752.5156,344.9375 Q752.125,344.9375 751.875,344.7031 Q751.625,344.4844 751.5156,343.875 Q751.4531,343.4531 751.2344,343.2344 Q750.8438,342.7969 750.125,342.5313 Q749.4063,342.2656 748.6875,342.2656 Q747.7813,342.2656 747.0313,342.6563 Q746.2813,343.0469 745.7031,343.9375 Q745.125,344.8125 745.125,346.0156 L745.125,347.3125 Q745.125,348.7656 746.1719,349.7344 Q747.2344,350.7031 749.0938,350.7031 Q750.2031,350.7031 750.9844,350.3906 Q751.4219,350.2188 751.9375,349.7031 Q752.25,349.3906 752.4219,349.2969 Q752.5938,349.2031 752.8281,349.2031 Q753.2188,349.2031 753.5156,349.5156 Q753.8281,349.8125 753.8281,350.2188 Q753.8281,350.625 753.4219,351.0938 Q752.8281,351.7813 751.8906,352.1719 Q750.625,352.7031 749.1094,352.7031 Q747.3281,352.7031 745.9063,351.9688 Q744.75,351.375 743.9375,350.1094 Q743.125,348.8438 743.125,347.3594 L743.125,346 Q743.125,344.4375 743.8438,343.0938 Q744.5781,341.7344 745.8594,341 Q747.1563,340.2656 748.6094,340.2656 Q749.4688,340.2656 750.2188,340.4688 Q750.9844,340.6719 751.6406,341.0781 Z " fill="#000000"/><text fill="#000000" font-family="sans-serif" font-size="20" font-style="italic" lengthAdjust="spacing" textLength="70.0488" x="773.9434" y="341.7617">&#171;entity&#187;</text><text fill="#000000" font-family="sans-serif" font-size="20" lengthAdjust="spacing" textLength="88.9355" x="764.5" y="366.918">FlightPlan</text></g><g class="entity" data-qualified-name="Flight_Aggregate.GMN88" data-source-line="138" id="ent0089"><path d="M1153,368.5 L1153,389.05 L856.95,354.04 L1153,397.05 L1153,453.9688 A0,0 0 0 0 1153,453.9688 L1427.4863,453.9688 A0,0 0 0 0 1427.4863,453.9688 L1427.4863,378.5 L1417.4863,368.5 L1153,368.5 A0,0 0 0 0 1153,368.5" fill="#FEFFDD" style="stroke:#181818;stroke-width:0.5;"/><path d="M1417.4863,368.5 L1417.4863,378.5 L1427.4863,378.5 L1417.4863,368.5" fill="#FEFFDD" style="stroke:#181818;stroke-width:0.5;"/><text fill="#000000" font-family="sans-serif" font-size="20" lengthAdjust="spacing" textLength="238.457" x="1159" y="394.2617">Lifecycle: draft -&gt; validated</text><text fill="#000000" font-family="sans-serif" font-size="20" lengthAdjust="spacing" textLength="253.4863" x="1159" y="419.418">US080 creates, US082 adds</text><text fill="#000000" font-family="sans-serif" font-size="20" lengthAdjust="spacing" textLength="233.4668" x="1159" y="444.5742">weather, US085 validates.</text></g><!--class FlightPlanStatus--><g class="entity" data-qualified-name="Flight_Aggregate.FlightPlanStatus" data-source-line="140" id="ent0091"><rect fill="#F1F1F1" height="93.4688" rx="2.5" ry="2.5" style="stroke:#181818;stroke-width:0.5;" width="179.6348" x="1200" y="235.5"/><ellipse cx="1216" cy="253.0781" fill="#EB937F" rx="12" ry="12" style="stroke:#181818;stroke-width:1;"/><path d="M1213.9531,254.1406 L1213.9531,257.0781 L1219.0469,257.0781 L1219.0469,255.9844 Q1219.0469,255.2656 1219.3281,254.9688 Q1219.6094,254.6563 1220.0625,254.6563 Q1220.5,254.6563 1220.7813,254.9688 Q1221.0625,255.2656 1221.0625,255.9844 L1221.0625,259.0781 L1211.625,259.0781 Q1210.9063,259.0781 1210.5938,258.7969 Q1210.2969,258.5156 1210.2969,258.0781 Q1210.2969,257.625 1210.6094,257.3594 Q1210.9219,257.0781 1211.625,257.0781 L1211.9375,257.0781 L1211.9375,249.25 L1211.625,249.25 Q1210.9063,249.25 1210.5938,248.9688 Q1210.2969,248.6875 1210.2969,248.2344 Q1210.2969,247.7813 1210.5938,247.5156 Q1210.9063,247.2344 1211.625,247.2344 L1220.6094,247.2344 L1220.6094,250.2813 Q1220.6094,251 1220.3281,251.3125 Q1220.0625,251.6094 1219.625,251.6094 Q1219.1719,251.6094 1218.8906,251.3125 Q1218.6094,251.0156 1218.6094,250.2813 L1218.6094,249.25 L1213.9531,249.25 L1213.9531,252.1406 L1215.7031,252.1406 Q1215.7031,251.3594 1215.8438,251.125 Q1216.1563,250.6563 1216.7031,250.6563 Q1217.1563,250.6563 1217.4219,250.9688 Q1217.7031,251.2656 1217.7031,251.9844 L1217.7031,254.2969 Q1217.7031,254.9531 1217.5469,255.1719 Q1217.2344,255.625 1216.7031,255.625 Q1216.1563,255.625 1215.8438,255.1563 Q1215.7031,254.9219 1215.7031,254.1406 L1213.9531,254.1406 Z " fill="#000000"/><text fill="#000000" font-family="sans-serif" font-size="20" lengthAdjust="spacing" textLength="145.6348" x="1231" y="261.2617">FlightPlanStatus</text><line style="stroke:#181818;stroke-width:0.5;" x1="1201" x2="1378.6348" y1="270.6563" y2="270.6563"/><text fill="#000000" font-family="sans-serif" font-size="20" lengthAdjust="spacing" textLength="40.0195" x="1206" y="295.418">draft</text><text fill="#000000" font-family="sans-serif" font-size="20" lengthAdjust="spacing" textLength="80.0586" x="1206" y="320.5742">validated</text></g><!--class FuelQuantity--><g class="entity" data-qualified-name="Flight_Aggregate.FuelQuantity" data-source-line="145" id="ent0092"><rect fill="#F1F1F1" height="118.625" rx="2.5" ry="2.5" style="stroke:#181818;stroke-width:0.5;" width="158.9844" x="1210.5" y="76.5"/><ellipse cx="1226.5" cy="106.6563" fill="#ADD1B2" rx="12" ry="12" style="stroke:#181818;stroke-width:1;"/><path d="M1228.6406,101.5781 Q1228.8281,101.3281 1229.0469,101.2031 Q1229.2656,101.0625 1229.5156,101.0625 Q1229.9531,101.0625 1230.2344,101.375 Q1230.5156,101.6719 1230.5156,102.3906 L1230.5156,104.0938 Q1230.5156,104.8125 1230.2344,105.125 Q1229.9531,105.4375 1229.5156,105.4375 Q1229.125,105.4375 1228.875,105.2031 Q1228.625,104.9844 1228.5156,104.375 Q1228.4531,103.9531 1228.2344,103.7344 Q1227.8438,103.2969 1227.125,103.0313 Q1226.4063,102.7656 1225.6875,102.7656 Q1224.7813,102.7656 1224.0313,103.1563 Q1223.2813,103.5469 1222.7031,104.4375 Q1222.125,105.3125 1222.125,106.5156 L1222.125,107.8125 Q1222.125,109.2656 1223.1719,110.2344 Q1224.2344,111.2031 1226.0938,111.2031 Q1227.2031,111.2031 1227.9844,110.8906 Q1228.4219,110.7188 1228.9375,110.2031 Q1229.25,109.8906 1229.4219,109.7969 Q1229.5938,109.7031 1229.8281,109.7031 Q1230.2188,109.7031 1230.5156,110.0156 Q1230.8281,110.3125 1230.8281,110.7188 Q1230.8281,111.125 1230.4219,111.5938 Q1229.8281,112.2813 1228.8906,112.6719 Q1227.625,113.2031 1226.1094,113.2031 Q1224.3281,113.2031 1222.9063,112.4688 Q1221.75,111.875 1220.9375,110.6094 Q1220.125,109.3438 1220.125,107.8594 L1220.125,106.5 Q1220.125,104.9375 1220.8438,103.5938 Q1221.5781,102.2344 1222.8594,101.5 Q1224.1563,100.7656 1225.6094,100.7656 Q1226.4688,100.7656 1227.2188,100.9688 Q1227.9844,101.1719 1228.6406,101.5781 Z " fill="#000000"/><text fill="#000000" font-family="sans-serif" font-size="20" font-style="italic" lengthAdjust="spacing" textLength="128.9844" x="1239.5" y="102.2617">&#171;value object&#187;</text><text fill="#000000" font-family="sans-serif" font-size="20" lengthAdjust="spacing" textLength="113.3887" x="1247.2979" y="127.418">FuelQuantity</text><line style="stroke:#181818;stroke-width:0.5;" x1="1211.5" x2="1368.4844" y1="136.8125" y2="136.8125"/><text fill="#000000" font-family="sans-serif" font-size="20" lengthAdjust="spacing" textLength="47.8125" x="1216.5" y="161.5742">value</text><text fill="#000000" font-family="sans-serif" font-size="20" lengthAdjust="spacing" textLength="32.2461" x="1216.5" y="186.7305">unit</text></g><g class="entity" data-qualified-name="Flight_Aggregate.GMN93" data-source-line="149" id="ent0094"><path d="M1618.5,118.5 L1618.5,132 L1369.55,136 L1618.5,140 L1618.5,153.6563 A0,0 0 0 0 1618.5,153.6563 L1864.041,153.6563 A0,0 0 0 0 1864.041,153.6563 L1864.041,128.5 L1854.041,118.5 L1618.5,118.5 A0,0 0 0 0 1618.5,118.5" fill="#FEFFDD" style="stroke:#181818;stroke-width:0.5;"/><path d="M1854.041,118.5 L1854.041,128.5 L1864.041,128.5 L1854.041,118.5" fill="#FEFFDD" style="stroke:#181818;stroke-width:0.5;"/><text fill="#000000" font-family="sans-serif" font-size="20" lengthAdjust="spacing" textLength="224.541" x="1624.5" y="144.2617">must be positive (US080)</text></g><!--reverse link AircraftModel to ModelID--><g class="link" data-entity-1="ent0003" data-entity-2="ent0004" data-link-type="composition" data-source-line="42" id="lnk25"><path codeLine="42" d="M1789.8461,2003.4849 C1848.0661,2065.7449 1954.21,2174.53 2064,2260 C2164.52,2338.25 2193.07,2355.02 2307,2412 C2337.18,2427.09 2371.63,2441.03 2401.84,2452.24" fill="none" id="AircraftModel-backto-ModelID" style="stroke:#181818;stroke-width:1;"/><polygon fill="#181818" points="1781.65,1994.72,1782.8264,2001.8345,1789.8461,2003.4849,1788.6697,1996.3704,1781.65,1994.72" style="stroke:#181818;stroke-width:1;"/><text fill="#000000" font-family="sans-serif" font-size="20" lengthAdjust="spacing" textLength="103.3984" x="2103.5" y="2254.7617">identifiedBy</text></g><!--link AircraftModel to AircraftType--><g class="link" data-entity-1="ent0003" data-entity-2="ent0008" data-link-type="dependency" data-source-line="43" id="lnk26"><path codeLine="43" d="M1817.54,1993.86 C1925,2053.37 2129.36,2164.98 2307,2253 C2340.73,2269.71 2373.1977,2284.8473 2404.9677,2299.2873" fill="none" id="AircraftModel-to-AircraftType" style="stroke:#181818;stroke-width:1;"/><polygon fill="#181818" points="2410.43,2301.77,2403.8917,2294.4045,2405.8781,2299.7011,2400.5815,2301.6875,2410.43,2301.77" style="stroke:#181818;stroke-width:1;"/><text fill="#000000" font-family="sans-serif" font-size="20" lengthAdjust="spacing" textLength="61.1426" x="2124.5" y="2122.7617">ofType</text></g><!--reverse link AircraftModel to AircraftWeights--><g class="link" data-entity-1="ent0003" data-entity-2="ent0009" data-link-type="composition" data-source-line="44" id="lnk27"><path codeLine="44" d="M1829.2642,1975.1643 C1967.8642,2012.1543 2251.16,2087.78 2396.27,2126.52" fill="none" id="AircraftModel-backto-AircraftWeights" style="stroke:#181818;stroke-width:1;"/><polygon fill="#181818" points="1817.67,1972.07,1822.4357,1977.4819,1829.2642,1975.1643,1824.4985,1969.7524,1817.67,1972.07" style="stroke:#181818;stroke-width:1;"/><text fill="#000000" font-family="sans-serif" font-size="20" lengthAdjust="spacing" textLength="67.8125" x="2121.5" y="2033.7617">weights</text></g><!--reverse link AircraftModel to AircraftPerformance--><g class="link" data-entity-1="ent0003" data-entity-2="ent0013" data-link-type="composition" data-source-line="45" id="lnk28"><path codeLine="45" d="M1829.67,1952 C1961.94,1952 2224.55,1952 2375.48,1952" fill="none" id="AircraftModel-backto-AircraftPerformance" style="stroke:#181818;stroke-width:1;"/><polygon fill="#181818" points="1817.67,1952,1823.67,1956,1829.67,1952,1823.67,1948,1817.67,1952" style="stroke:#181818;stroke-width:1;"/><text fill="#000000" font-family="sans-serif" font-size="20" lengthAdjust="spacing" textLength="78.9063" x="2116" y="1946.7617">performs</text></g><!--reverse link AircraftModel to AerodynamicCoefficients--><g class="link" data-entity-1="ent0003" data-entity-2="ent0017" data-link-type="composition" data-source-line="46" id="lnk29"><path codeLine="46" d="M1829.3134,1930.3565 C1955.4334,1898.9065 2199.34,1838.1 2353.67,1799.62" fill="none" id="AircraftModel-backto-AerodynamicCoefficients" style="stroke:#181818;stroke-width:1;"/><polygon fill="#181818" points="1817.67,1933.26,1824.4595,1935.6894,1829.3134,1930.3565,1822.5239,1927.9271,1817.67,1933.26" style="stroke:#181818;stroke-width:1;"/><text fill="#000000" font-family="sans-serif" font-size="20" lengthAdjust="spacing" textLength="143.3984" x="2083.5" y="1821.7617">characterisedBy</text></g><!--reverse link AircraftModel to AircraftVariant--><g class="link" data-entity-1="ent0003" data-entity-2="ent0021" data-link-type="composition" data-source-line="47" id="lnk30"><path codeLine="47" d="M1828.1122,1903.7245 C1934.3922,1844.9745 2125.5,1744.24 2307,1676 C2337.08,1664.69 2370.88,1654.42 2400.61,1646.18" fill="none" id="AircraftModel-backto-AircraftVariant" style="stroke:#181818;stroke-width:1;"/><polygon fill="#181818" points="1817.61,1909.53,1824.7963,1910.128,1828.1122,1903.7245,1820.926,1903.1265,1817.61,1909.53" style="stroke:#181818;stroke-width:1;"/><text fill="#000000" font-family="sans-serif" font-size="20" lengthAdjust="spacing" textLength="91.1328" x="2109.5" y="1695.7617">comprises</text></g><!--reverse link AirTransportCompany to CompanyName--><g class="link" data-entity-1="ent0032" data-entity-2="ent0033" data-link-type="composition" data-source-line="65" id="lnk45"><path codeLine="65" d="M1841.3229,2796.7946 C1911.5629,2830.7646 1998.59,2872.84 2068.23,2906.52" fill="none" id="AirTransportCompany-backto-CompanyName" style="stroke:#181818;stroke-width:1;"/><polygon fill="#181818" points="1830.52,2791.57,1834.1799,2797.7833,1841.3229,2796.7946,1837.663,2790.5813,1830.52,2791.57" style="stroke:#181818;stroke-width:1;"/><text fill="#000000" font-family="sans-serif" font-size="20" lengthAdjust="spacing" textLength="84.4922" x="1939.5" y="2837.7617">namedAs</text></g><!--reverse link AirTransportCompany to IATACode_ATC--><g class="link" data-entity-1="ent0032" data-entity-2="ent0037" data-link-type="composition" data-source-line="66" id="lnk46"><path codeLine="66" d="M1868.4287,2769.1997 C1934.6687,2779.8197 2005,2791.1 2066.18,2800.91" fill="none" id="AirTransportCompany-backto-IATACode_ATC" style="stroke:#181818;stroke-width:1;"/><polygon fill="#181818" points="1856.58,2767.3,1861.8711,2772.1994,1868.4287,2769.1997,1863.1376,2764.3003,1856.58,2767.3" style="stroke:#181818;stroke-width:1;"/><text fill="#000000" font-family="sans-serif" font-size="20" lengthAdjust="spacing" textLength="103.3984" x="1930" y="2775.7617">identifiedBy</text></g><!--reverse link AirTransportCompany to ICAOCode_ATC--><g class="link" data-entity-1="ent0032" data-entity-2="ent0038" data-link-type="composition" data-source-line="67" id="lnk47"><path codeLine="67" d="M1868.424,2728.5016 C1933.834,2717.8516 2002.94,2706.6 2063.86,2696.68" fill="none" id="AirTransportCompany-backto-ICAOCode_ATC" style="stroke:#181818;stroke-width:1;"/><polygon fill="#181818" points="1856.58,2730.43,1863.1448,2733.4138,1868.424,2728.5016,1861.8592,2725.5178,1856.58,2730.43" style="stroke:#181818;stroke-width:1;"/><text fill="#000000" font-family="sans-serif" font-size="20" lengthAdjust="spacing" textLength="103.3984" x="1930" y="2696.7617">identifiedBy</text></g><!--reverse link CabinConfiguration to SeatClass--><g class="link" data-entity-1="ent0054" data-entity-2="ent0055" data-link-type="composition" data-source-line="86" id="lnk56"><path codeLine="86" d="M1404.7185,1298.7668 C1486.2985,1300.0368 1587.14,1301.61 1661.89,1302.78" fill="none" id="CabinConfiguration-backto-SeatClass" style="stroke:#181818;stroke-width:1;"/><polygon fill="#181818" points="1392.72,1298.58,1398.657,1302.6729,1404.7185,1298.7668,1398.7815,1294.6739,1392.72,1298.58" style="stroke:#181818;stroke-width:1;"/><text fill="#000000" font-family="sans-serif" font-size="20" lengthAdjust="spacing" textLength="74.4922" x="1481" y="1295.7617">contains</text><text fill="#000000" font-family="sans-serif" font-size="20" lengthAdjust="spacing" textLength="30.0195" x="1624.0566" y="1324.4978">1..*</text></g><!--reverse link Aircraft to RegistrationNumber--><g class="link" data-entity-1="ent0049" data-entity-2="ent0050" data-link-type="composition" data-source-line="92" id="lnk61"><path codeLine="92" d="M947.2681,1402.0441 C1026.1381,1407.8041 1111.23,1414.02 1183.71,1419.31" fill="none" id="Aircraft-backto-RegistrationNumber" style="stroke:#181818;stroke-width:1;"/><polygon fill="#181818" points="935.3,1401.17,940.9927,1405.5964,947.2681,1402.0441,941.5754,1397.6177,935.3,1401.17" style="stroke:#181818;stroke-width:1;"/><text fill="#000000" font-family="sans-serif" font-size="20" lengthAdjust="spacing" textLength="103.3984" x="981" y="1398.7617">identifiedBy</text></g><!--reverse link Aircraft to CabinConfiguration--><g class="link" data-entity-1="ent0049" data-entity-2="ent0054" data-link-type="composition" data-source-line="93" id="lnk62"><path codeLine="93" d="M947.0877,1362.1928 C1027.2377,1346.9128 1114.39,1330.29 1187.22,1316.41" fill="none" id="Aircraft-backto-CabinConfiguration" style="stroke:#181818;stroke-width:1;"/><polygon fill="#181818" points="935.3,1364.44,941.9429,1367.2456,947.0877,1362.1928,940.4448,1359.3871,935.3,1364.44" style="stroke:#181818;stroke-width:1;"/><text fill="#000000" font-family="sans-serif" font-size="20" lengthAdjust="spacing" textLength="133.3984" x="966" y="1330.7617">configuredWith</text></g><!--link Aircraft to OperationalStatus--><g class="link" data-entity-1="ent0049" data-entity-2="ent0060" data-link-type="dependency" data-source-line="94" id="lnk63"><path codeLine="94" d="M899.82,1331.39 C921.09,1320.06 943.55,1308.72 965,1299 C1039.92,1265.07 1121.9587,1235.2495 1187.2087,1213.0895" fill="none" id="Aircraft-to-OperationalStatus" style="stroke:#181818;stroke-width:1;"/><polygon fill="#181818" points="1192.89,1211.16,1183.0817,1210.2667,1188.1556,1212.7679,1185.6544,1217.8417,1192.89,1211.16" style="stroke:#181818;stroke-width:1;"/><text fill="#000000" font-family="sans-serif" font-size="20" lengthAdjust="spacing" textLength="88.9453" x="988.5" y="1240.7617">hasStatus</text></g><!--reverse link Flight to FlightDesignator--><g class="link" data-entity-1="ent0065" data-entity-2="ent0066" data-link-type="composition" data-source-line="151" id="lnk96"><path codeLine="151" d="M211.3436,795.6786 C234.3336,776.1386 251.59,762.69 277,745 C319.74,715.26 369.85,686.13 411.83,663.2" fill="none" id="Flight-backto-FlightDesignator" style="stroke:#181818;stroke-width:1;"/><polygon fill="#181818" points="202.2,803.45,209.3623,802.6121,211.3436,795.6786,204.1813,796.5164,202.2,803.45" style="stroke:#181818;stroke-width:1;"/><text fill="#000000" font-family="sans-serif" font-size="20" lengthAdjust="spacing" textLength="103.3984" x="278" y="676.7617">identifiedBy</text></g><!--link Flight to FlightType--><g class="link" data-entity-1="ent0065" data-entity-2="ent0070" data-link-type="dependency" data-source-line="152" id="lnk97"><path codeLine="152" d="M237.01,880.5 C374.63,904.34 611.0381,945.2953 725.2181,965.0853" fill="none" id="Flight-to-FlightType" style="stroke:#181818;stroke-width:1;"/><polygon fill="#181818" points="731.13,966.11,722.9453,960.6318,726.2035,965.2561,721.5791,968.5142,731.13,966.11" style="stroke:#181818;stroke-width:1;"/><text fill="#000000" font-family="sans-serif" font-size="20" lengthAdjust="spacing" textLength="61.1426" x="471.5" y="906.7617">ofType</text></g><!--reverse link Flight to DepartureSchedule--><g class="link" data-entity-1="ent0065" data-entity-2="ent0074" data-link-type="composition" data-source-line="153" id="lnk98"><path codeLine="153" d="M249.0099,862.4855 C372.3999,861.9255 567.95,861.03 691.85,860.47" fill="none" id="Flight-backto-DepartureSchedule" style="stroke:#181818;stroke-width:1;"/><polygon fill="#181818" points="237.01,862.54,243.0281,866.5127,249.0099,862.4855,242.9918,858.5128,237.01,862.54" style="stroke:#181818;stroke-width:1;"/><text fill="#000000" font-family="sans-serif" font-size="20" lengthAdjust="spacing" textLength="110.0781" x="447" y="855.7617">scheduledAt</text></g><!--reverse link DepartureSchedule to RegularSchedule--><g class="link" data-entity-1="ent0074" data-entity-2="ent0075" data-link-type="extension" data-source-line="154" id="lnk99"><path codeLine="154" d="M916.1476,861.9514 C1003.8576,863.3714 1111.23,865.12 1196.14,866.49" fill="none" id="DepartureSchedule-backto-RegularSchedule" style="stroke:#181818;stroke-width:1;"/><polygon fill="none" points="898.15,861.66,916.0505,867.9506,916.2448,855.9522,898.15,861.66" style="stroke:#181818;stroke-width:1;"/></g><!--reverse link DepartureSchedule to CharterSchedule--><g class="link" data-entity-1="ent0074" data-entity-2="ent0083" data-link-type="extension" data-source-line="155" id="lnk100"><path codeLine="155" d="M850.6847,819.1703 C912.2647,773.6503 1019.91,696.51 1130,632 C1151.54,619.38 1175.37,606.83 1197.88,595.58" fill="none" id="DepartureSchedule-backto-CharterSchedule" style="stroke:#181818;stroke-width:1;"/><polygon fill="none" points="836.21,829.87,854.2512,823.9952,847.1181,814.3454,836.21,829.87" style="stroke:#181818;stroke-width:1;"/></g><!--reverse link RegularSchedule to ScheduleEntry--><g class="link" data-entity-1="ent0075" data-entity-2="ent0079" data-link-type="composition" data-source-line="156" id="lnk101"><path codeLine="156" d="M1290,825.92 C1290,807.15 1290,794.34 1290,771.7" fill="none" id="RegularSchedule-backto-ScheduleEntry" style="stroke:#181818;stroke-width:1;"/><polygon fill="#181818" points="1290,837.92,1294,831.92,1290,825.92,1286,831.92,1290,837.92" style="stroke:#181818;stroke-width:1;"/><text fill="#000000" font-family="sans-serif" font-size="20" lengthAdjust="spacing" textLength="113.3887" x="1217" y="813.0117">composedOf</text><text fill="#000000" font-family="sans-serif" font-size="20" lengthAdjust="spacing" textLength="30.0195" x="1258.4501" y="799.9347">1..*</text></g><!--reverse link Flight to FlightPlan--><g class="link" data-entity-1="ent0065" data-entity-2="ent0087" data-link-type="composition" data-source-line="157" id="lnk102"><path codeLine="157" d="M248.9761,842.2825 C365.9961,819.3525 537.74,780.08 592,736 C712.44,638.16 769.04,449.43 787.19,376.13" fill="none" id="Flight-backto-FlightPlan" style="stroke:#181818;stroke-width:1;"/><polygon fill="#181818" points="237.2,844.59,243.8572,847.3616,248.9761,842.2825,242.3189,839.5109,237.2,844.59" style="stroke:#181818;stroke-width:1;"/><text fill="#000000" font-family="sans-serif" font-size="20" lengthAdjust="spacing" textLength="72.2754" x="466" y="730.7617">hasPlan</text><text fill="#000000" font-family="sans-serif" font-size="20" lengthAdjust="spacing" textLength="30.0195" x="752.8498" y="405.0032">1..*</text></g><!--link FlightPlan to FlightPlanStatus--><g class="link" data-entity-1="ent0087" data-entity-2="ent0091" data-link-type="dependency" data-source-line="158" id="lnk103"><path codeLine="158" d="M856.95,338.09 C942.99,326.92 1094.6899,307.2225 1193.8999,294.3425" fill="none" id="FlightPlan-to-FlightPlanStatus" style="stroke:#181818;stroke-width:1;"/><polygon fill="#181818" points="1199.85,293.57,1190.4099,290.762,1194.8916,294.2137,1191.4399,298.6954,1199.85,293.57" style="stroke:#181818;stroke-width:1;"/><text fill="#000000" font-family="sans-serif" font-size="20" lengthAdjust="spacing" textLength="88.9453" x="988.5" y="303.7617">hasStatus</text></g><!--reverse link FlightPlan to FuelQuantity--><g class="link" data-entity-1="ent0087" data-entity-2="ent0092" data-link-type="composition" data-source-line="159" id="lnk104"><path codeLine="159" d="M867.5031,314.3956 C899.6731,300.2356 928.94,287.46 965,272 C1048.54,236.18 1144.59,195.98 1210.29,168.64" fill="none" id="FlightPlan-backto-FuelQuantity" style="stroke:#181818;stroke-width:1;"/><polygon fill="#181818" points="856.52,319.23,863.623,320.4739,867.5031,314.3956,860.4001,313.1518,856.52,319.23" style="stroke:#181818;stroke-width:1;"/><text fill="#000000" font-family="sans-serif" font-size="20" lengthAdjust="spacing" textLength="60.0098" x="1002.5" y="210.7617">carries</text></g><!--link Flight to Aircraft--><g class="link" data-entity-1="ent0065" data-entity-2="ent0049" data-link-type="dependency" data-source-line="163" id="lnk105"><path codeLine="163" d="M210.2,922.54 C336.83,1024.15 588.5201,1226.1252 715.1401,1327.7152" fill="none" id="Flight-to-Aircraft" style="stroke:#181818;stroke-width:1;"/><polygon fill="#181818" points="719.82,1331.47,715.3033,1322.7179,715.9201,1328.341,710.2969,1328.9577,719.82,1331.47" style="stroke:#181818;stroke-width:1;"/><polygon fill="#000000" points="484.2396,1077.5849,475.895,1064.86,470.0092,1072.1951,484.2396,1077.5849" style="stroke:#000000;stroke-width:1;"/><text fill="#000000" font-family="sans-serif" font-size="20" lengthAdjust="spacing" textLength="42.2461" x="491" y="1080.7617">uses</text><text fill="#000000" font-family="sans-serif" font-size="20" lengthAdjust="spacing" textLength="7.7832" x="210.6192" y="950.7582">*</text><text fill="#000000" font-family="sans-serif" font-size="20" lengthAdjust="spacing" textLength="11.123" x="699.5071" y="1318.934">1</text></g><!--link Aircraft to AircraftModel--><g class="link" data-entity-1="ent0049" data-entity-2="ent0003" data-link-type="dependency" data-source-line="165" id="lnk106"><path codeLine="165" d="M896.18,1450.51 C1087.87,1564.36 1497.1215,1807.4357 1663.7815,1906.4357" fill="none" id="Aircraft-to-AircraftModel" style="stroke:#181818;stroke-width:1;"/><polygon fill="#181818" points="1668.94,1909.5,1663.2451,1901.4646,1664.6412,1906.9464,1659.1594,1908.3426,1668.94,1909.5" style="stroke:#181818;stroke-width:1;"/><polygon fill="#000000" points="1258.3782,1588.6635,1248.3367,1577.2301,1243.5341,1585.3159,1258.3782,1588.6635" style="stroke:#000000;stroke-width:1;"/><text fill="#000000" font-family="sans-serif" font-size="20" lengthAdjust="spacing" textLength="71.1523" x="1264.5" y="1592.7617">ofModel</text><text fill="#000000" font-family="sans-serif" font-size="20" lengthAdjust="spacing" textLength="7.7832" x="899.3013" y="1478.7251">*</text><text fill="#000000" font-family="sans-serif" font-size="20" lengthAdjust="spacing" textLength="11.123" x="1646.4977" y="1897.1606">1</text></g><!--link Aircraft to AirTransportCompany--><g class="link" data-entity-1="ent0049" data-entity-2="ent0032" data-link-type="dependency" data-source-line="166" id="lnk107"><path codeLine="166" d="M835.56,1450.76 C949.54,1622.48 1289.45,2131.47 1586,2544 C1626.84,2600.81 1672.0421,2660.284 1703.7221,2701.474" fill="none" id="Aircraft-to-AirTransportCompany" style="stroke:#181818;stroke-width:1;"/><polygon fill="#181818" points="1707.38,2706.23,1705.0638,2696.6574,1704.3317,2702.2667,1698.7224,2701.5346,1707.38,2706.23" style="stroke:#181818;stroke-width:1;"/><polygon fill="#000000" points="1250.5618,1897.15,1246.1723,1882.58,1238.4466,1887.9427,1250.5618,1897.15" style="stroke:#000000;stroke-width:1;"/><text fill="#000000" font-family="sans-serif" font-size="20" lengthAdjust="spacing" textLength="82.2754" x="1259" y="1898.7617">ownedBy</text><text fill="#000000" font-family="sans-serif" font-size="20" lengthAdjust="spacing" textLength="7.7832" x="832.4299" y="1479.0009">*</text><text fill="#000000" font-family="sans-serif" font-size="20" lengthAdjust="spacing" textLength="11.123" x="1690.8435" y="2694.1974">1</text></g><?plantuml-src bLTRRzis57xtho3yr6IDvoJh1Mfcm5CQ8C2ITBMx08E1Wf6EP2uIwP9K7A_hVzyXHKlKpMk1027bSp_VkL0zChwXakQPY1uX9Z4ajCZqbU1wmVu1SZOTPP1eeWMHB5rh4ZC9aMQ2ZzIUbMnez4XJMEXT1iJyJ7cQWKV0HGmADkINgVTHKlveFhwUZjOi1WBvHkz83la3I3KQEQ5aF6SoaZJHDoWa-pnFKmafrJ0c5nTqVvdDoDSH8L56bI8D1gG2hfdU8Sd5XHH2Ezfl5Rsbkxx4dvzeLW0H3t-Z3uwC41OxQYuqk2Y8fE8A2ASva9z8JdcHq4WN4kIAvuNIv058mTaNbFdYqsBwwjKHIW5Uv9M9ozq6d9eDcW8y1Mbl4PMfiAUSFKFSi7VFV0_65ZLajurdIMFlDykx-_BmrrLvoEdpLG5PI37M6A5UDzlA0dBDdwXabEjWnOrCChCIyP-dSSNdMKQiNOfiX6AQFM4K54GJSZuvE-euym5a8YJ6C88XXnJ89nP122nZF2t390kcOB416oBh4SkB_2C24Bhk1EGzZTQbLMHD5M7eaDXoaoIq6B7FEDO0rOJbcmno10urK2UQvJ2gJGOfuXrcdKMXW2HX4KFAmJniqTYv16eliQIfnsI_PIpHpMyzQHZG6P1F2arct4hvsOXVSHF80asjudtUZVUVPGxzylXw401x1jI8K7uJa74ayWV6omY9125lwuto636UOYH997Z2qa9QaZ5ARbRcySd9YLT6s0FGaeH1_DkkGukaisRL1AZJ7Fh5Tc6xBK-7oNqK1cHJtePu1bCIhR71HHeaOhFFcORAEguOpurXKQDlpVQtn5QfDa8YIl8DvRllR89jjkzeXOxordIq0JYRRjSB59ytyFlUwsaDl-lvSXvY43xFb-6GXWX_RrXr7SxlVe2fQLP3Or1TiJQCeQK2qmgu2Pc9rb5NXAy_gAw7HVGb01FV2fE9PZnN1-XRzdUhf9-hQNA32z7LdQu_CbW7WOI1AypulakkCXEyKCBsnWrqFw4V8MLAbttXrd8Ceit-Qe_IOmf5mRNidrWzmYiuReNCugtPDWmmttZ032dsij1lMFqcrKuiWEhGdeOWQNwyBSkbZenXsqUZHwb9tlXqCZaUUmfCRy1PnBZgLbrNH83RcgOPpalKX9i4Hmu2pn4EoNsJZjp8zy9Wzv8xR7bM2CqMEFiAvLp1ReRpkvnWW7qgPqeXLRMOLCWmvlScOA2xboNHvyD-U41yp_JQPp6Ze6jeO2PwUMuYl8JY8NnNAIr93y1RHMk8YmnBLag6ILyormnR8Yv1iHH7enW4DcKIjnYe2UtNn7BVrg0Ndfy5pfXd7_9sCqSCT7G6vCfCCHsGvsV-WX-vFtgqulk-N6zY-zoNKhoD52E4MuJRHt6aQMjJj-0yHdyx92pPYo1w3Np5Bm4tVxCVBrmOYTkIL_nZIRZ_uQLT8yosHvwmUT29iP8-65H5saMwAssWOFssuoiPBl1EGscmkPrhYpxvllzQ1Qnk4OxblMbMGqY8wUukkGTuTENblAgWrJQdAJGWOMRs3jp7RWH7MUJqB9XEtwtu4bTlTp-VlYFBTI7B-odUnxMHOPdQmr7n3Bl4ilbEKzkY1oFdu3LPySeRnSmZ4eUgqcOTcupRDVOXe_p_rrUFDY2_imIYNPH1O1PnqqfcvZN0OdG9UoFsmhTJV5DWtmJrqkovRyy8ZMErublyjWPPVdnLCQb9gtoCeaRdj7higLBKQXZu0lkZeDQBeTZRZ_PaNYhzVlfYWdrXUKylwvojTjVbJEVjwHojHks8xVxTAFHg-wx5dVJKPE3rJ6DvJzN-MyuClyQ62LkGGi9sUHxN0xHLAMR15WZ0kwHbjgDlO0MdYJbLbFPp7GKlqVxaQL3R23VpWkzwoN33DoFAMJ16pJQyuzDnFUHmPS6N09cDHjMdNiBoHM7IKPvcm_ITHJ4mZr-JP-Jw3m00?></g></svg>