<?plantuml 1.2026.2?><svg xmlns="http://www.w3.org/2000/svg" xmlns:xlink="http://www.w3.org/1999/xlink" contentStyleType="text/css" data-diagram-type="CLASS" height="2659px" preserveAspectRatio="none" style="width:2061px;height:2659px;background:#FFFFFF;" version="1.1" viewBox="0 0 2061 2659" width="2061px" zoomAndPan="magnify"><defs/><g><!--cluster Manufacturer_Aggregate--><g class="cluster" data-qualified-name="Manufacturer_Aggregate" data-source-line="8" id="ent0002"><rect fill="none" height="229" rx="2.5" ry="2.5" style="stroke:#000000;stroke-width:1.5;" width="252" x="945" y="1509"/><text fill="#000000" font-family="sans-serif" font-size="20" font-style="italic" lengthAdjust="spacing" textLength="112.3242" x="1014.8379" y="1531.7617">&#171;aggregate&#187;</text><text fill="#000000" font-family="sans-serif" font-size="20" font-weight="bold" lengthAdjust="spacing" textLength="236.7188" x="952.6406" y="1556.918">Manufacturer_Aggregate</text></g><!--cluster EngineModel_Aggregate--><g class="cluster" data-qualified-name="EngineModel_Aggregate" data-source-line="15" id="ent0004"><rect fill="none" height="891" rx="2.5" ry="2.5" style="stroke:#000000;stroke-width:1.5;" width="1075.5" x="979.5" y="1762"/><text fill="#000000" font-family="sans-serif" font-size="20" font-style="italic" lengthAdjust="spacing" textLength="112.3242" x="1461.0879" y="1784.7617">&#171;aggregate&#187;</text><text fill="#000000" font-family="sans-serif" font-size="20" font-weight="bold" lengthAdjust="spacing" textLength="234.4727" x="1400.0137" y="1809.918">EngineModel_Aggregate</text></g><!--cluster AircraftModel_Aggregate--><g class="cluster" data-qualified-name="AircraftModel_Aggregate" data-source-line="52" id="ent0022"><rect fill="none" height="1015" rx="2.5" ry="2.5" style="stroke:#000000;stroke-width:1.5;" width="1538" x="512" y="470"/><text fill="#000000" font-family="sans-serif" font-size="20" font-style="italic" lengthAdjust="spacing" textLength="112.3242" x="1224.8379" y="492.7617">&#171;aggregate&#187;</text><text fill="#000000" font-family="sans-serif" font-size="20" font-weight="bold" lengthAdjust="spacing" textLength="238.9355" x="1161.5322" y="517.918">AircraftModel_Aggregate</text></g><!--cluster Aircraft_Aggregate--><g class="cluster" data-qualified-name="Aircraft_Aggregate" data-source-line="96" id="ent0051"><rect fill="none" height="439" rx="2.5" ry="2.5" style="stroke:#000000;stroke-width:1.5;" width="1208" x="7" y="7"/><text fill="#000000" font-family="sans-serif" font-size="20" font-style="italic" lengthAdjust="spacing" textLength="112.3242" x="554.8379" y="29.7617">&#171;aggregate&#187;</text><text fill="#000000" font-family="sans-serif" font-size="20" font-weight="bold" lengthAdjust="spacing" textLength="181.1621" x="520.4189" y="54.918">Aircraft_Aggregate</text></g><!--cluster Pilot_Aggregate--><g class="cluster" data-qualified-name="Pilot_Aggregate" data-source-line="123" id="ent0067"><rect fill="none" height="171" rx="2.5" ry="2.5" style="stroke:#000000;stroke-width:1.5;" width="169" x="79" y="980"/><text fill="#000000" font-family="sans-serif" font-size="20" font-style="italic" lengthAdjust="spacing" textLength="112.3242" x="107.3379" y="1002.7617">&#171;aggregate&#187;</text><text fill="#000000" font-family="sans-serif" font-size="20" font-weight="bold" lengthAdjust="spacing" textLength="153.3594" x="86.8203" y="1027.918">Pilot_Aggregate</text></g><!--class Manufacturer--><g class="entity" data-qualified-name="Manufacturer_Aggregate.Manufacturer" data-source-line="9" id="ent0003"><rect fill="#F1F1F1" height="143.7813" rx="2.5" ry="2.5" style="stroke:#181818;stroke-width:0.5;" width="151.832" x="995" y="1578"/><ellipse cx="1011" cy="1620.7344" fill="#ADD1B2" rx="12" ry="12" style="stroke:#181818;stroke-width:1;"/><path d="M1013.1406,1615.6563 Q1013.3281,1615.4063 1013.5469,1615.2813 Q1013.7656,1615.1406 1014.0156,1615.1406 Q1014.4531,1615.1406 1014.7344,1615.4531 Q1015.0156,1615.75 1015.0156,1616.4688 L1015.0156,1618.1719 Q1015.0156,1618.8906 1014.7344,1619.2031 Q1014.4531,1619.5156 1014.0156,1619.5156 Q1013.625,1619.5156 1013.375,1619.2813 Q1013.125,1619.0625 1013.0156,1618.4531 Q1012.9531,1618.0313 1012.7344,1617.8125 Q1012.3438,1617.375 1011.625,1617.1094 Q1010.9063,1616.8438 1010.1875,1616.8438 Q1009.2813,1616.8438 1008.5313,1617.2344 Q1007.7813,1617.625 1007.2031,1618.5156 Q1006.625,1619.3906 1006.625,1620.5938 L1006.625,1621.8906 Q1006.625,1623.3438 1007.6719,1624.3125 Q1008.7344,1625.2813 1010.5938,1625.2813 Q1011.7031,1625.2813 1012.4844,1624.9688 Q1012.9219,1624.7969 1013.4375,1624.2813 Q1013.75,1623.9688 1013.9219,1623.875 Q1014.0938,1623.7813 1014.3281,1623.7813 Q1014.7188,1623.7813 1015.0156,1624.0938 Q1015.3281,1624.3906 1015.3281,1624.7969 Q1015.3281,1625.2031 1014.9219,1625.6719 Q1014.3281,1626.3594 1013.3906,1626.75 Q1012.125,1627.2813 1010.6094,1627.2813 Q1008.8281,1627.2813 1007.4063,1626.5469 Q1006.25,1625.9531 1005.4375,1624.6875 Q1004.625,1623.4219 1004.625,1621.9375 L1004.625,1620.5781 Q1004.625,1619.0156 1005.3438,1617.6719 Q1006.0781,1616.3125 1007.3594,1615.5781 Q1008.6563,1614.8438 1010.1094,1614.8438 Q1010.9688,1614.8438 1011.7188,1615.0469 Q1012.4844,1615.25 1013.1406,1615.6563 Z " fill="#000000"/><text fill="#000000" font-family="sans-serif" font-size="20" font-style="italic" lengthAdjust="spacing" textLength="70.0488" x="1049.8916" y="1603.7617">&#171;entity&#187;</text><text fill="#000000" font-family="sans-serif" font-size="20" font-style="italic" lengthAdjust="spacing" textLength="56.709" x="1056.5615" y="1628.918">&#171;root&#187;</text><text fill="#000000" font-family="sans-serif" font-size="20" lengthAdjust="spacing" textLength="117.832" x="1026" y="1654.0742">Manufacturer</text><line style="stroke:#181818;stroke-width:0.5;" x1="996" x2="1145.832" y1="1663.4688" y2="1663.4688"/><text fill="#000000" font-family="sans-serif" font-size="20" lengthAdjust="spacing" textLength="50.0293" x="1001" y="1688.2305">name</text><text fill="#000000" font-family="sans-serif" font-size="20" lengthAdjust="spacing" textLength="65.5859" x="1001" y="1713.3867">country</text></g><!--class EngineModel--><g class="entity" data-qualified-name="EngineModel_Aggregate.EngineModel" data-source-line="16" id="ent0005"><rect fill="#F1F1F1" height="118.625" rx="2.5" ry="2.5" style="stroke:#181818;stroke-width:0.5;" width="150.748" x="995.5" y="2126.5"/><ellipse cx="1011.5" cy="2169.2344" fill="#ADD1B2" rx="12" ry="12" style="stroke:#181818;stroke-width:1;"/><path d="M1013.6406,2164.1563 Q1013.8281,2163.9063 1014.0469,2163.7813 Q1014.2656,2163.6406 1014.5156,2163.6406 Q1014.9531,2163.6406 1015.2344,2163.9531 Q1015.5156,2164.25 1015.5156,2164.9688 L1015.5156,2166.6719 Q1015.5156,2167.3906 1015.2344,2167.7031 Q1014.9531,2168.0156 1014.5156,2168.0156 Q1014.125,2168.0156 1013.875,2167.7813 Q1013.625,2167.5625 1013.5156,2166.9531 Q1013.4531,2166.5313 1013.2344,2166.3125 Q1012.8438,2165.875 1012.125,2165.6094 Q1011.4063,2165.3438 1010.6875,2165.3438 Q1009.7813,2165.3438 1009.0313,2165.7344 Q1008.2813,2166.125 1007.7031,2167.0156 Q1007.125,2167.8906 1007.125,2169.0938 L1007.125,2170.3906 Q1007.125,2171.8438 1008.1719,2172.8125 Q1009.2344,2173.7813 1011.0938,2173.7813 Q1012.2031,2173.7813 1012.9844,2173.4688 Q1013.4219,2173.2969 1013.9375,2172.7813 Q1014.25,2172.4688 1014.4219,2172.375 Q1014.5938,2172.2813 1014.8281,2172.2813 Q1015.2188,2172.2813 1015.5156,2172.5938 Q1015.8281,2172.8906 1015.8281,2173.2969 Q1015.8281,2173.7031 1015.4219,2174.1719 Q1014.8281,2174.8594 1013.8906,2175.25 Q1012.625,2175.7813 1011.1094,2175.7813 Q1009.3281,2175.7813 1007.9063,2175.0469 Q1006.75,2174.4531 1005.9375,2173.1875 Q1005.125,2171.9219 1005.125,2170.4375 L1005.125,2169.0781 Q1005.125,2167.5156 1005.8438,2166.1719 Q1006.5781,2164.8125 1007.8594,2164.0781 Q1009.1563,2163.3438 1010.6094,2163.3438 Q1011.4688,2163.3438 1012.2188,2163.5469 Q1012.9844,2163.75 1013.6406,2164.1563 Z " fill="#000000"/><text fill="#000000" font-family="sans-serif" font-size="20" font-style="italic" lengthAdjust="spacing" textLength="70.0488" x="1049.8496" y="2152.2617">&#171;entity&#187;</text><text fill="#000000" font-family="sans-serif" font-size="20" font-style="italic" lengthAdjust="spacing" textLength="56.709" x="1056.5195" y="2177.418">&#171;root&#187;</text><text fill="#000000" font-family="sans-serif" font-size="20" lengthAdjust="spacing" textLength="116.748" x="1026.5" y="2202.5742">EngineModel</text><line style="stroke:#181818;stroke-width:0.5;" x1="996.5" x2="1145.248" y1="2211.9688" y2="2211.9688"/><text fill="#000000" font-family="sans-serif" font-size="20" lengthAdjust="spacing" textLength="76.709" x="1001.5" y="2236.7305">fuelType</text></g><!--class EngineName--><g class="entity" data-qualified-name="EngineModel_Aggregate.EngineName" data-source-line="19" id="ent0006"><rect fill="#F1F1F1" height="93.4688" rx="2.5" ry="2.5" style="stroke:#181818;stroke-width:0.5;" width="158.9844" x="1454" y="2543.5"/><ellipse cx="1470" cy="2573.6563" fill="#ADD1B2" rx="12" ry="12" style="stroke:#181818;stroke-width:1;"/><path d="M1472.1406,2568.5781 Q1472.3281,2568.3281 1472.5469,2568.2031 Q1472.7656,2568.0625 1473.0156,2568.0625 Q1473.4531,2568.0625 1473.7344,2568.375 Q1474.0156,2568.6719 1474.0156,2569.3906 L1474.0156,2571.0938 Q1474.0156,2571.8125 1473.7344,2572.125 Q1473.4531,2572.4375 1473.0156,2572.4375 Q1472.625,2572.4375 1472.375,2572.2031 Q1472.125,2571.9844 1472.0156,2571.375 Q1471.9531,2570.9531 1471.7344,2570.7344 Q1471.3438,2570.2969 1470.625,2570.0313 Q1469.9063,2569.7656 1469.1875,2569.7656 Q1468.2813,2569.7656 1467.5313,2570.1563 Q1466.7813,2570.5469 1466.2031,2571.4375 Q1465.625,2572.3125 1465.625,2573.5156 L1465.625,2574.8125 Q1465.625,2576.2656 1466.6719,2577.2344 Q1467.7344,2578.2031 1469.5938,2578.2031 Q1470.7031,2578.2031 1471.4844,2577.8906 Q1471.9219,2577.7188 1472.4375,2577.2031 Q1472.75,2576.8906 1472.9219,2576.7969 Q1473.0938,2576.7031 1473.3281,2576.7031 Q1473.7188,2576.7031 1474.0156,2577.0156 Q1474.3281,2577.3125 1474.3281,2577.7188 Q1474.3281,2578.125 1473.9219,2578.5938 Q1473.3281,2579.2813 1472.3906,2579.6719 Q1471.125,2580.2031 1469.6094,2580.2031 Q1467.8281,2580.2031 1466.4063,2579.4688 Q1465.25,2578.875 1464.4375,2577.6094 Q1463.625,2576.3438 1463.625,2574.8594 L1463.625,2573.5 Q1463.625,2571.9375 1464.3438,2570.5938 Q1465.0781,2569.2344 1466.3594,2568.5 Q1467.6563,2567.7656 1469.1094,2567.7656 Q1469.9688,2567.7656 1470.7188,2567.9688 Q1471.4844,2568.1719 1472.1406,2568.5781 Z " fill="#000000"/><text fill="#000000" font-family="sans-serif" font-size="20" font-style="italic" lengthAdjust="spacing" textLength="128.9844" x="1483" y="2569.2617">&#171;value object&#187;</text><text fill="#000000" font-family="sans-serif" font-size="20" lengthAdjust="spacing" textLength="115.625" x="1489.6797" y="2594.418">EngineName</text><line style="stroke:#181818;stroke-width:0.5;" x1="1455" x2="1611.9844" y1="2603.8125" y2="2603.8125"/><text fill="#000000" font-family="sans-serif" font-size="20" lengthAdjust="spacing" textLength="50.0293" x="1460" y="2628.5742">name</text></g><g class="entity" data-qualified-name="EngineModel_Aggregate.GMN7" data-source-line="22" id="ent0008"><path d="M1761.5,2560 L1761.5,2586 L1613.22,2590 L1761.5,2594 L1761.5,2620.3125 A0,0 0 0 0 1761.5,2620.3125 L1999.2871,2620.3125 A0,0 0 0 0 1999.2871,2620.3125 L1999.2871,2570 L1989.2871,2560 L1761.5,2560 A0,0 0 0 0 1761.5,2560" fill="#FEFFDD" style="stroke:#181818;stroke-width:0.5;"/><path d="M1989.2871,2560 L1989.2871,2570 L1999.2871,2570 L1989.2871,2560" fill="#FEFFDD" style="stroke:#181818;stroke-width:0.5;"/><text fill="#000000" font-family="sans-serif" font-size="20" lengthAdjust="spacing" textLength="190.6543" x="1767.5" y="2585.7617">name + manufacturer</text><text fill="#000000" font-family="sans-serif" font-size="20" lengthAdjust="spacing" textLength="216.7871" x="1767.5" y="2610.918">must be unique (US056)</text></g><!--class Power--><g class="entity" data-qualified-name="EngineModel_Aggregate.Power" data-source-line="23" id="ent0010"><rect fill="#F1F1F1" height="118.625" rx="2.5" ry="2.5" style="stroke:#181818;stroke-width:0.5;" width="158.9844" x="1454" y="2384.5"/><ellipse cx="1470" cy="2414.6563" fill="#ADD1B2" rx="12" ry="12" style="stroke:#181818;stroke-width:1;"/><path d="M1472.1406,2409.5781 Q1472.3281,2409.3281 1472.5469,2409.2031 Q1472.7656,2409.0625 1473.0156,2409.0625 Q1473.4531,2409.0625 1473.7344,2409.375 Q1474.0156,2409.6719 1474.0156,2410.3906 L1474.0156,2412.0938 Q1474.0156,2412.8125 1473.7344,2413.125 Q1473.4531,2413.4375 1473.0156,2413.4375 Q1472.625,2413.4375 1472.375,2413.2031 Q1472.125,2412.9844 1472.0156,2412.375 Q1471.9531,2411.9531 1471.7344,2411.7344 Q1471.3438,2411.2969 1470.625,2411.0313 Q1469.9063,2410.7656 1469.1875,2410.7656 Q1468.2813,2410.7656 1467.5313,2411.1563 Q1466.7813,2411.5469 1466.2031,2412.4375 Q1465.625,2413.3125 1465.625,2414.5156 L1465.625,2415.8125 Q1465.625,2417.2656 1466.6719,2418.2344 Q1467.7344,2419.2031 1469.5938,2419.2031 Q1470.7031,2419.2031 1471.4844,2418.8906 Q1471.9219,2418.7188 1472.4375,2418.2031 Q1472.75,2417.8906 1472.9219,2417.7969 Q1473.0938,2417.7031 1473.3281,2417.7031 Q1473.7188,2417.7031 1474.0156,2418.0156 Q1474.3281,2418.3125 1474.3281,2418.7188 Q1474.3281,2419.125 1473.9219,2419.5938 Q1473.3281,2420.2813 1472.3906,2420.6719 Q1471.125,2421.2031 1469.6094,2421.2031 Q1467.8281,2421.2031 1466.4063,2420.4688 Q1465.25,2419.875 1464.4375,2418.6094 Q1463.625,2417.3438 1463.625,2415.8594 L1463.625,2414.5 Q1463.625,2412.9375 1464.3438,2411.5938 Q1465.0781,2410.2344 1466.3594,2409.5 Q1467.6563,2408.7656 1469.1094,2408.7656 Q1469.9688,2408.7656 1470.7188,2408.9688 Q1471.4844,2409.1719 1472.1406,2409.5781 Z " fill="#000000"/><text fill="#000000" font-family="sans-serif" font-size="20" font-style="italic" lengthAdjust="spacing" textLength="128.9844" x="1483" y="2410.2617">&#171;value object&#187;</text><text fill="#000000" font-family="sans-serif" font-size="20" lengthAdjust="spacing" textLength="56.6895" x="1519.1475" y="2435.418">Power</text><line style="stroke:#181818;stroke-width:0.5;" x1="1455" x2="1611.9844" y1="2444.8125" y2="2444.8125"/><text fill="#000000" font-family="sans-serif" font-size="20" lengthAdjust="spacing" textLength="47.8125" x="1460" y="2469.5742">value</text><text fill="#000000" font-family="sans-serif" font-size="20" lengthAdjust="spacing" textLength="32.2461" x="1460" y="2494.7305">unit</text></g><!--class Thrust--><g class="entity" data-qualified-name="EngineModel_Aggregate.Thrust" data-source-line="27" id="ent0011"><rect fill="#F1F1F1" height="143.7813" rx="2.5" ry="2.5" style="stroke:#181818;stroke-width:0.5;" width="158.9844" x="1454" y="2200"/><ellipse cx="1470" cy="2230.1563" fill="#ADD1B2" rx="12" ry="12" style="stroke:#181818;stroke-width:1;"/><path d="M1472.1406,2225.0781 Q1472.3281,2224.8281 1472.5469,2224.7031 Q1472.7656,2224.5625 1473.0156,2224.5625 Q1473.4531,2224.5625 1473.7344,2224.875 Q1474.0156,2225.1719 1474.0156,2225.8906 L1474.0156,2227.5938 Q1474.0156,2228.3125 1473.7344,2228.625 Q1473.4531,2228.9375 1473.0156,2228.9375 Q1472.625,2228.9375 1472.375,2228.7031 Q1472.125,2228.4844 1472.0156,2227.875 Q1471.9531,2227.4531 1471.7344,2227.2344 Q1471.3438,2226.7969 1470.625,2226.5313 Q1469.9063,2226.2656 1469.1875,2226.2656 Q1468.2813,2226.2656 1467.5313,2226.6563 Q1466.7813,2227.0469 1466.2031,2227.9375 Q1465.625,2228.8125 1465.625,2230.0156 L1465.625,2231.3125 Q1465.625,2232.7656 1466.6719,2233.7344 Q1467.7344,2234.7031 1469.5938,2234.7031 Q1470.7031,2234.7031 1471.4844,2234.3906 Q1471.9219,2234.2188 1472.4375,2233.7031 Q1472.75,2233.3906 1472.9219,2233.2969 Q1473.0938,2233.2031 1473.3281,2233.2031 Q1473.7188,2233.2031 1474.0156,2233.5156 Q1474.3281,2233.8125 1474.3281,2234.2188 Q1474.3281,2234.625 1473.9219,2235.0938 Q1473.3281,2235.7813 1472.3906,2236.1719 Q1471.125,2236.7031 1469.6094,2236.7031 Q1467.8281,2236.7031 1466.4063,2235.9688 Q1465.25,2235.375 1464.4375,2234.1094 Q1463.625,2232.8438 1463.625,2231.3594 L1463.625,2230 Q1463.625,2228.4375 1464.3438,2227.0938 Q1465.0781,2225.7344 1466.3594,2225 Q1467.6563,2224.2656 1469.1094,2224.2656 Q1469.9688,2224.2656 1470.7188,2224.4688 Q1471.4844,2224.6719 1472.1406,2225.0781 Z " fill="#000000"/><text fill="#000000" font-family="sans-serif" font-size="20" font-style="italic" lengthAdjust="spacing" textLength="128.9844" x="1483" y="2225.7617">&#171;value object&#187;</text><text fill="#000000" font-family="sans-serif" font-size="20" lengthAdjust="spacing" textLength="56.6797" x="1519.1523" y="2250.918">Thrust</text><line style="stroke:#181818;stroke-width:0.5;" x1="1455" x2="1611.9844" y1="2260.3125" y2="2260.3125"/><text fill="#000000" font-family="sans-serif" font-size="20" lengthAdjust="spacing" textLength="47.8125" x="1460" y="2285.0742">value</text><text fill="#000000" font-family="sans-serif" font-size="20" lengthAdjust="spacing" textLength="32.2461" x="1460" y="2310.2305">unit</text><text fill="#000000" font-family="sans-serif" font-size="20" lengthAdjust="spacing" textLength="146.7676" x="1460" y="2335.3867">speedReference</text></g><g class="entity" data-qualified-name="EngineModel_Aggregate.GMN12" data-source-line="32" id="ent0013"><path d="M1722,2229.5 L1722,2268 L1613.22,2272 L1722,2276 L1722,2314.9688 A0,0 0 0 0 1722,2314.9688 L2038.6836,2314.9688 A0,0 0 0 0 2038.6836,2314.9688 L2038.6836,2239.5 L2028.6836,2229.5 L1722,2229.5 A0,0 0 0 0 1722,2229.5" fill="#FEFFDD" style="stroke:#181818;stroke-width:0.5;"/><path d="M2028.6836,2229.5 L2028.6836,2239.5 L2038.6836,2239.5 L2028.6836,2229.5" fill="#FEFFDD" style="stroke:#181818;stroke-width:0.5;"/><text fill="#000000" font-family="sans-serif" font-size="20" lengthAdjust="spacing" textLength="221.2305" x="1728" y="2255.2617">Manufacturer-supplied at</text><text fill="#000000" font-family="sans-serif" font-size="20" lengthAdjust="spacing" textLength="210.1172" x="1728" y="2280.418">static and cruise speed.</text><text fill="#000000" font-family="sans-serif" font-size="20" lengthAdjust="spacing" textLength="295.6836" x="1728" y="2305.5742">Decreases with altitude (sec. 3.3)</text></g><!--class TSFC--><g class="entity" data-qualified-name="EngineModel_Aggregate.TSFC" data-source-line="33" id="ent0015"><rect fill="#F1F1F1" height="118.625" rx="2.5" ry="2.5" style="stroke:#181818;stroke-width:0.5;" width="158.9844" x="1454" y="2040.5"/><ellipse cx="1470" cy="2070.6563" fill="#ADD1B2" rx="12" ry="12" style="stroke:#181818;stroke-width:1;"/><path d="M1472.1406,2065.5781 Q1472.3281,2065.3281 1472.5469,2065.2031 Q1472.7656,2065.0625 1473.0156,2065.0625 Q1473.4531,2065.0625 1473.7344,2065.375 Q1474.0156,2065.6719 1474.0156,2066.3906 L1474.0156,2068.0938 Q1474.0156,2068.8125 1473.7344,2069.125 Q1473.4531,2069.4375 1473.0156,2069.4375 Q1472.625,2069.4375 1472.375,2069.2031 Q1472.125,2068.9844 1472.0156,2068.375 Q1471.9531,2067.9531 1471.7344,2067.7344 Q1471.3438,2067.2969 1470.625,2067.0313 Q1469.9063,2066.7656 1469.1875,2066.7656 Q1468.2813,2066.7656 1467.5313,2067.1563 Q1466.7813,2067.5469 1466.2031,2068.4375 Q1465.625,2069.3125 1465.625,2070.5156 L1465.625,2071.8125 Q1465.625,2073.2656 1466.6719,2074.2344 Q1467.7344,2075.2031 1469.5938,2075.2031 Q1470.7031,2075.2031 1471.4844,2074.8906 Q1471.9219,2074.7188 1472.4375,2074.2031 Q1472.75,2073.8906 1472.9219,2073.7969 Q1473.0938,2073.7031 1473.3281,2073.7031 Q1473.7188,2073.7031 1474.0156,2074.0156 Q1474.3281,2074.3125 1474.3281,2074.7188 Q1474.3281,2075.125 1473.9219,2075.5938 Q1473.3281,2076.2813 1472.3906,2076.6719 Q1471.125,2077.2031 1469.6094,2077.2031 Q1467.8281,2077.2031 1466.4063,2076.4688 Q1465.25,2075.875 1464.4375,2074.6094 Q1463.625,2073.3438 1463.625,2071.8594 L1463.625,2070.5 Q1463.625,2068.9375 1464.3438,2067.5938 Q1465.0781,2066.2344 1466.3594,2065.5 Q1467.6563,2064.7656 1469.1094,2064.7656 Q1469.9688,2064.7656 1470.7188,2064.9688 Q1471.4844,2065.1719 1472.1406,2065.5781 Z " fill="#000000"/><text fill="#000000" font-family="sans-serif" font-size="20" font-style="italic" lengthAdjust="spacing" textLength="128.9844" x="1483" y="2066.2617">&#171;value object&#187;</text><text fill="#000000" font-family="sans-serif" font-size="20" lengthAdjust="spacing" textLength="52.2168" x="1521.3838" y="2091.418">TSFC</text><line style="stroke:#181818;stroke-width:0.5;" x1="1455" x2="1611.9844" y1="2100.8125" y2="2100.8125"/><text fill="#000000" font-family="sans-serif" font-size="20" lengthAdjust="spacing" textLength="47.8125" x="1460" y="2125.5742">value</text><text fill="#000000" font-family="sans-serif" font-size="20" lengthAdjust="spacing" textLength="32.2461" x="1460" y="2150.7305">unit</text></g><!--class MotorizationType--><g class="entity" data-qualified-name="EngineModel_Aggregate.MotorizationType" data-source-line="37" id="ent0016"><rect fill="#F1F1F1" height="168.9375" rx="2.5" ry="2.5" style="stroke:#181818;stroke-width:0.5;" width="187.3984" x="1440" y="1831.5"/><ellipse cx="1456" cy="1849.0781" fill="#EB937F" rx="12" ry="12" style="stroke:#181818;stroke-width:1;"/><path d="M1453.9531,1850.1406 L1453.9531,1853.0781 L1459.0469,1853.0781 L1459.0469,1851.9844 Q1459.0469,1851.2656 1459.3281,1850.9688 Q1459.6094,1850.6563 1460.0625,1850.6563 Q1460.5,1850.6563 1460.7813,1850.9688 Q1461.0625,1851.2656 1461.0625,1851.9844 L1461.0625,1855.0781 L1451.625,1855.0781 Q1450.9063,1855.0781 1450.5938,1854.7969 Q1450.2969,1854.5156 1450.2969,1854.0781 Q1450.2969,1853.625 1450.6094,1853.3594 Q1450.9219,1853.0781 1451.625,1853.0781 L1451.9375,1853.0781 L1451.9375,1845.25 L1451.625,1845.25 Q1450.9063,1845.25 1450.5938,1844.9688 Q1450.2969,1844.6875 1450.2969,1844.2344 Q1450.2969,1843.7813 1450.5938,1843.5156 Q1450.9063,1843.2344 1451.625,1843.2344 L1460.6094,1843.2344 L1460.6094,1846.2813 Q1460.6094,1847 1460.3281,1847.3125 Q1460.0625,1847.6094 1459.625,1847.6094 Q1459.1719,1847.6094 1458.8906,1847.3125 Q1458.6094,1847.0156 1458.6094,1846.2813 L1458.6094,1845.25 L1453.9531,1845.25 L1453.9531,1848.1406 L1455.7031,1848.1406 Q1455.7031,1847.3594 1455.8438,1847.125 Q1456.1563,1846.6563 1456.7031,1846.6563 Q1457.1563,1846.6563 1457.4219,1846.9688 Q1457.7031,1847.2656 1457.7031,1847.9844 L1457.7031,1850.2969 Q1457.7031,1850.9531 1457.5469,1851.1719 Q1457.2344,1851.625 1456.7031,1851.625 Q1456.1563,1851.625 1455.8438,1851.1563 Q1455.7031,1850.9219 1455.7031,1850.1406 L1453.9531,1850.1406 Z " fill="#000000"/><text fill="#000000" font-family="sans-serif" font-size="20" lengthAdjust="spacing" textLength="153.3984" x="1471" y="1857.2617">MotorizationType</text><line style="stroke:#181818;stroke-width:0.5;" x1="1441" x2="1626.3984" y1="1866.6563" y2="1866.6563"/><text fill="#000000" font-family="sans-serif" font-size="20" lengthAdjust="spacing" textLength="85.6152" x="1446" y="1891.418">turboprop</text><text fill="#000000" font-family="sans-serif" font-size="20" lengthAdjust="spacing" textLength="73.3887" x="1446" y="1916.5742">turbofan</text><text fill="#000000" font-family="sans-serif" font-size="20" lengthAdjust="spacing" textLength="66.709" x="1446" y="1941.7305">turbojet</text><text fill="#000000" font-family="sans-serif" font-size="20" lengthAdjust="spacing" textLength="55.5664" x="1446" y="1966.8867">ramjet</text><text fill="#000000" font-family="sans-serif" font-size="20" lengthAdjust="spacing" textLength="143.3887" x="1446" y="1992.043">electricPropeller</text></g><!--class AircraftModel--><g class="entity" data-qualified-name="AircraftModel_Aggregate.AircraftModel" data-source-line="53" id="ent0023"><rect fill="#F1F1F1" height="85.4688" rx="2.5" ry="2.5" style="stroke:#181818;stroke-width:0.5;" width="151.8125" x="528" y="1049.5"/><ellipse cx="544" cy="1092.2344" fill="#ADD1B2" rx="12" ry="12" style="stroke:#181818;stroke-width:1;"/><path d="M546.1406,1087.1563 Q546.3281,1086.9063 546.5469,1086.7813 Q546.7656,1086.6406 547.0156,1086.6406 Q547.4531,1086.6406 547.7344,1086.9531 Q548.0156,1087.25 548.0156,1087.9688 L548.0156,1089.6719 Q548.0156,1090.3906 547.7344,1090.7031 Q547.4531,1091.0156 547.0156,1091.0156 Q546.625,1091.0156 546.375,1090.7813 Q546.125,1090.5625 546.0156,1089.9531 Q545.9531,1089.5313 545.7344,1089.3125 Q545.3438,1088.875 544.625,1088.6094 Q543.9063,1088.3438 543.1875,1088.3438 Q542.2813,1088.3438 541.5313,1088.7344 Q540.7813,1089.125 540.2031,1090.0156 Q539.625,1090.8906 539.625,1092.0938 L539.625,1093.3906 Q539.625,1094.8438 540.6719,1095.8125 Q541.7344,1096.7813 543.5938,1096.7813 Q544.7031,1096.7813 545.4844,1096.4688 Q545.9219,1096.2969 546.4375,1095.7813 Q546.75,1095.4688 546.9219,1095.375 Q547.0938,1095.2813 547.3281,1095.2813 Q547.7188,1095.2813 548.0156,1095.5938 Q548.3281,1095.8906 548.3281,1096.2969 Q548.3281,1096.7031 547.9219,1097.1719 Q547.3281,1097.8594 546.3906,1098.25 Q545.125,1098.7813 543.6094,1098.7813 Q541.8281,1098.7813 540.4063,1098.0469 Q539.25,1097.4531 538.4375,1096.1875 Q537.625,1094.9219 537.625,1093.4375 L537.625,1092.0781 Q537.625,1090.5156 538.3438,1089.1719 Q539.0781,1087.8125 540.3594,1087.0781 Q541.6563,1086.3438 543.1094,1086.3438 Q543.9688,1086.3438 544.7188,1086.5469 Q545.4844,1086.75 546.1406,1087.1563 Z " fill="#000000"/><text fill="#000000" font-family="sans-serif" font-size="20" font-style="italic" lengthAdjust="spacing" textLength="70.0488" x="582.8818" y="1075.2617">&#171;entity&#187;</text><text fill="#000000" font-family="sans-serif" font-size="20" font-style="italic" lengthAdjust="spacing" textLength="56.709" x="589.5518" y="1100.418">&#171;root&#187;</text><text fill="#000000" font-family="sans-serif" font-size="20" lengthAdjust="spacing" textLength="117.8125" x="559" y="1125.5742">AircraftModel</text></g><!--class ModelID--><g class="entity" data-qualified-name="AircraftModel_Aggregate.ModelID" data-source-line="55" id="ent0024"><rect fill="#F1F1F1" height="93.4688" rx="2.5" ry="2.5" style="stroke:#181818;stroke-width:0.5;" width="158.9844" x="1454" y="1375.5"/><ellipse cx="1470" cy="1405.6563" fill="#ADD1B2" rx="12" ry="12" style="stroke:#181818;stroke-width:1;"/><path d="M1472.1406,1400.5781 Q1472.3281,1400.3281 1472.5469,1400.2031 Q1472.7656,1400.0625 1473.0156,1400.0625 Q1473.4531,1400.0625 1473.7344,1400.375 Q1474.0156,1400.6719 1474.0156,1401.3906 L1474.0156,1403.0938 Q1474.0156,1403.8125 1473.7344,1404.125 Q1473.4531,1404.4375 1473.0156,1404.4375 Q1472.625,1404.4375 1472.375,1404.2031 Q1472.125,1403.9844 1472.0156,1403.375 Q1471.9531,1402.9531 1471.7344,1402.7344 Q1471.3438,1402.2969 1470.625,1402.0313 Q1469.9063,1401.7656 1469.1875,1401.7656 Q1468.2813,1401.7656 1467.5313,1402.1563 Q1466.7813,1402.5469 1466.2031,1403.4375 Q1465.625,1404.3125 1465.625,1405.5156 L1465.625,1406.8125 Q1465.625,1408.2656 1466.6719,1409.2344 Q1467.7344,1410.2031 1469.5938,1410.2031 Q1470.7031,1410.2031 1471.4844,1409.8906 Q1471.9219,1409.7188 1472.4375,1409.2031 Q1472.75,1408.8906 1472.9219,1408.7969 Q1473.0938,1408.7031 1473.3281,1408.7031 Q1473.7188,1408.7031 1474.0156,1409.0156 Q1474.3281,1409.3125 1474.3281,1409.7188 Q1474.3281,1410.125 1473.9219,1410.5938 Q1473.3281,1411.2813 1472.3906,1411.6719 Q1471.125,1412.2031 1469.6094,1412.2031 Q1467.8281,1412.2031 1466.4063,1411.4688 Q1465.25,1410.875 1464.4375,1409.6094 Q1463.625,1408.3438 1463.625,1406.8594 L1463.625,1405.5 Q1463.625,1403.9375 1464.3438,1402.5938 Q1465.0781,1401.2344 1466.3594,1400.5 Q1467.6563,1399.7656 1469.1094,1399.7656 Q1469.9688,1399.7656 1470.7188,1399.9688 Q1471.4844,1400.1719 1472.1406,1400.5781 Z " fill="#000000"/><text fill="#000000" font-family="sans-serif" font-size="20" font-style="italic" lengthAdjust="spacing" textLength="128.9844" x="1483" y="1401.2617">&#171;value object&#187;</text><text fill="#000000" font-family="sans-serif" font-size="20" lengthAdjust="spacing" textLength="74.4727" x="1510.2559" y="1426.418">ModelID</text><line style="stroke:#181818;stroke-width:0.5;" x1="1455" x2="1611.9844" y1="1435.8125" y2="1435.8125"/><text fill="#000000" font-family="sans-serif" font-size="20" lengthAdjust="spacing" textLength="15.5664" x="1460" y="1460.5742">id</text></g><g class="entity" data-qualified-name="AircraftModel_Aggregate.GMN25" data-source-line="58" id="ent0026"><path d="M1761.5,1392 L1761.5,1418 L1613.22,1422 L1761.5,1426 L1761.5,1452.3125 A0,0 0 0 0 1761.5,1452.3125 L1999.2871,1452.3125 A0,0 0 0 0 1999.2871,1452.3125 L1999.2871,1402 L1989.2871,1392 L1761.5,1392 A0,0 0 0 0 1761.5,1392" fill="#FEFFDD" style="stroke:#181818;stroke-width:0.5;"/><path d="M1989.2871,1392 L1989.2871,1402 L1999.2871,1402 L1989.2871,1392" fill="#FEFFDD" style="stroke:#181818;stroke-width:0.5;"/><text fill="#000000" font-family="sans-serif" font-size="20" lengthAdjust="spacing" textLength="190.6543" x="1767.5" y="1417.7617">name + manufacturer</text><text fill="#000000" font-family="sans-serif" font-size="20" lengthAdjust="spacing" textLength="216.7871" x="1767.5" y="1442.918">must be unique (US055)</text></g><!--class AircraftType--><g class="entity" data-qualified-name="AircraftModel_Aggregate.AircraftType" data-source-line="59" id="ent0028"><rect fill="#F1F1F1" height="118.625" rx="2.5" ry="2.5" style="stroke:#181818;stroke-width:0.5;" width="141.8027" x="1462.5" y="1216.5"/><ellipse cx="1478.5" cy="1234.0781" fill="#EB937F" rx="12" ry="12" style="stroke:#181818;stroke-width:1;"/><path d="M1476.4531,1235.1406 L1476.4531,1238.0781 L1481.5469,1238.0781 L1481.5469,1236.9844 Q1481.5469,1236.2656 1481.8281,1235.9688 Q1482.1094,1235.6563 1482.5625,1235.6563 Q1483,1235.6563 1483.2813,1235.9688 Q1483.5625,1236.2656 1483.5625,1236.9844 L1483.5625,1240.0781 L1474.125,1240.0781 Q1473.4063,1240.0781 1473.0938,1239.7969 Q1472.7969,1239.5156 1472.7969,1239.0781 Q1472.7969,1238.625 1473.1094,1238.3594 Q1473.4219,1238.0781 1474.125,1238.0781 L1474.4375,1238.0781 L1474.4375,1230.25 L1474.125,1230.25 Q1473.4063,1230.25 1473.0938,1229.9688 Q1472.7969,1229.6875 1472.7969,1229.2344 Q1472.7969,1228.7813 1473.0938,1228.5156 Q1473.4063,1228.2344 1474.125,1228.2344 L1483.1094,1228.2344 L1483.1094,1231.2813 Q1483.1094,1232 1482.8281,1232.3125 Q1482.5625,1232.6094 1482.125,1232.6094 Q1481.6719,1232.6094 1481.3906,1232.3125 Q1481.1094,1232.0156 1481.1094,1231.2813 L1481.1094,1230.25 L1476.4531,1230.25 L1476.4531,1233.1406 L1478.2031,1233.1406 Q1478.2031,1232.3594 1478.3438,1232.125 Q1478.6563,1231.6563 1479.2031,1231.6563 Q1479.6563,1231.6563 1479.9219,1231.9688 Q1480.2031,1232.2656 1480.2031,1232.9844 L1480.2031,1235.2969 Q1480.2031,1235.9531 1480.0469,1236.1719 Q1479.7344,1236.625 1479.2031,1236.625 Q1478.6563,1236.625 1478.3438,1236.1563 Q1478.2031,1235.9219 1478.2031,1235.1406 L1476.4531,1235.1406 Z " fill="#000000"/><text fill="#000000" font-family="sans-serif" font-size="20" lengthAdjust="spacing" textLength="107.8027" x="1493.5" y="1242.2617">AircraftType</text><line style="stroke:#181818;stroke-width:0.5;" x1="1463.5" x2="1603.3027" y1="1251.6563" y2="1251.6563"/><text fill="#000000" font-family="sans-serif" font-size="20" lengthAdjust="spacing" textLength="93.3984" x="1468.5" y="1276.418">passenger</text><text fill="#000000" font-family="sans-serif" font-size="20" lengthAdjust="spacing" textLength="50.0293" x="1468.5" y="1301.5742">cargo</text><text fill="#000000" font-family="sans-serif" font-size="20" lengthAdjust="spacing" textLength="53.3496" x="1468.5" y="1326.7305">mixed</text></g><!--class AircraftWeights--><g class="entity" data-qualified-name="AircraftModel_Aggregate.AircraftWeights" data-source-line="64" id="ent0029"><rect fill="#F1F1F1" height="168.9375" rx="2.5" ry="2.5" style="stroke:#181818;stroke-width:0.5;" width="169.5859" x="1448.5" y="1007.5"/><ellipse cx="1464.5" cy="1037.6563" fill="#ADD1B2" rx="12" ry="12" style="stroke:#181818;stroke-width:1;"/><path d="M1466.6406,1032.5781 Q1466.8281,1032.3281 1467.0469,1032.2031 Q1467.2656,1032.0625 1467.5156,1032.0625 Q1467.9531,1032.0625 1468.2344,1032.375 Q1468.5156,1032.6719 1468.5156,1033.3906 L1468.5156,1035.0938 Q1468.5156,1035.8125 1468.2344,1036.125 Q1467.9531,1036.4375 1467.5156,1036.4375 Q1467.125,1036.4375 1466.875,1036.2031 Q1466.625,1035.9844 1466.5156,1035.375 Q1466.4531,1034.9531 1466.2344,1034.7344 Q1465.8438,1034.2969 1465.125,1034.0313 Q1464.4063,1033.7656 1463.6875,1033.7656 Q1462.7813,1033.7656 1462.0313,1034.1563 Q1461.2813,1034.5469 1460.7031,1035.4375 Q1460.125,1036.3125 1460.125,1037.5156 L1460.125,1038.8125 Q1460.125,1040.2656 1461.1719,1041.2344 Q1462.2344,1042.2031 1464.0938,1042.2031 Q1465.2031,1042.2031 1465.9844,1041.8906 Q1466.4219,1041.7188 1466.9375,1041.2031 Q1467.25,1040.8906 1467.4219,1040.7969 Q1467.5938,1040.7031 1467.8281,1040.7031 Q1468.2188,1040.7031 1468.5156,1041.0156 Q1468.8281,1041.3125 1468.8281,1041.7188 Q1468.8281,1042.125 1468.4219,1042.5938 Q1467.8281,1043.2813 1466.8906,1043.6719 Q1465.625,1044.2031 1464.1094,1044.2031 Q1462.3281,1044.2031 1460.9063,1043.4688 Q1459.75,1042.875 1458.9375,1041.6094 Q1458.125,1040.3438 1458.125,1038.8594 L1458.125,1037.5 Q1458.125,1035.9375 1458.8438,1034.5938 Q1459.5781,1033.2344 1460.8594,1032.5 Q1462.1563,1031.7656 1463.6094,1031.7656 Q1464.4688,1031.7656 1465.2188,1031.9688 Q1465.9844,1032.1719 1466.6406,1032.5781 Z " fill="#000000"/><text fill="#000000" font-family="sans-serif" font-size="20" font-style="italic" lengthAdjust="spacing" textLength="128.9844" x="1482.8008" y="1033.2617">&#171;value object&#187;</text><text fill="#000000" font-family="sans-serif" font-size="20" lengthAdjust="spacing" textLength="135.5859" x="1479.5" y="1058.418">AircraftWeights</text><line style="stroke:#181818;stroke-width:0.5;" x1="1449.5" x2="1617.0859" y1="1067.8125" y2="1067.8125"/><text fill="#000000" font-family="sans-serif" font-size="20" lengthAdjust="spacing" textLength="116.709" x="1454.5" y="1092.5742">emptyWeight</text><text fill="#000000" font-family="sans-serif" font-size="20" lengthAdjust="spacing" textLength="63.3105" x="1454.5" y="1117.7305">MTOW</text><text fill="#000000" font-family="sans-serif" font-size="20" lengthAdjust="spacing" textLength="59.9707" x="1454.5" y="1142.8867">MZFW</text><text fill="#000000" font-family="sans-serif" font-size="20" lengthAdjust="spacing" textLength="154.502" x="1454.5" y="1168.043">maxFuelCapacity</text></g><g class="entity" data-qualified-name="AircraftModel_Aggregate.GMN30" data-source-line="70" id="ent0031"><path d="M1727,1049.5 L1727,1088 L1618.9,1092 L1727,1096 L1727,1134.9688 A0,0 0 0 0 1727,1134.9688 L2033.5762,1134.9688 A0,0 0 0 0 2033.5762,1134.9688 L2033.5762,1059.5 L2023.5762,1049.5 L1727,1049.5 A0,0 0 0 0 1727,1049.5" fill="#FEFFDD" style="stroke:#181818;stroke-width:0.5;"/><path d="M2023.5762,1049.5 L2023.5762,1059.5 L2033.5762,1059.5 L2023.5762,1049.5" fill="#FEFFDD" style="stroke:#181818;stroke-width:0.5;"/><text fill="#000000" font-family="sans-serif" font-size="20" lengthAdjust="spacing" textLength="82.2656" x="1733" y="1075.2617">Invariant:</text><text fill="#000000" font-family="sans-serif" font-size="20" lengthAdjust="spacing" textLength="285.5762" x="1733" y="1100.418">MTOW &gt; MZFW &gt; emptyWeight</text><text fill="#000000" font-family="sans-serif" font-size="20" lengthAdjust="spacing" textLength="247.8809" x="1733" y="1125.5742">All values positive (sec. 3.2)</text></g><!--class AircraftPerformance--><g class="entity" data-qualified-name="AircraftModel_Aggregate.AircraftPerformance" data-source-line="71" id="ent0033"><rect fill="#F1F1F1" height="143.7813" rx="2.5" ry="2.5" style="stroke:#181818;stroke-width:0.5;" width="211.832" x="1427.5" y="823"/><ellipse cx="1443.5" cy="853.1563" fill="#ADD1B2" rx="12" ry="12" style="stroke:#181818;stroke-width:1;"/><path d="M1445.6406,848.0781 Q1445.8281,847.8281 1446.0469,847.7031 Q1446.2656,847.5625 1446.5156,847.5625 Q1446.9531,847.5625 1447.2344,847.875 Q1447.5156,848.1719 1447.5156,848.8906 L1447.5156,850.5938 Q1447.5156,851.3125 1447.2344,851.625 Q1446.9531,851.9375 1446.5156,851.9375 Q1446.125,851.9375 1445.875,851.7031 Q1445.625,851.4844 1445.5156,850.875 Q1445.4531,850.4531 1445.2344,850.2344 Q1444.8438,849.7969 1444.125,849.5313 Q1443.4063,849.2656 1442.6875,849.2656 Q1441.7813,849.2656 1441.0313,849.6563 Q1440.2813,850.0469 1439.7031,850.9375 Q1439.125,851.8125 1439.125,853.0156 L1439.125,854.3125 Q1439.125,855.7656 1440.1719,856.7344 Q1441.2344,857.7031 1443.0938,857.7031 Q1444.2031,857.7031 1444.9844,857.3906 Q1445.4219,857.2188 1445.9375,856.7031 Q1446.25,856.3906 1446.4219,856.2969 Q1446.5938,856.2031 1446.8281,856.2031 Q1447.2188,856.2031 1447.5156,856.5156 Q1447.8281,856.8125 1447.8281,857.2188 Q1447.8281,857.625 1447.4219,858.0938 Q1446.8281,858.7813 1445.8906,859.1719 Q1444.625,859.7031 1443.1094,859.7031 Q1441.3281,859.7031 1439.9063,858.9688 Q1438.75,858.375 1437.9375,857.1094 Q1437.125,855.8438 1437.125,854.3594 L1437.125,853 Q1437.125,851.4375 1437.8438,850.0938 Q1438.5781,848.7344 1439.8594,848 Q1441.1563,847.2656 1442.6094,847.2656 Q1443.4688,847.2656 1444.2188,847.4688 Q1444.9844,847.6719 1445.6406,848.0781 Z " fill="#000000"/><text fill="#000000" font-family="sans-serif" font-size="20" font-style="italic" lengthAdjust="spacing" textLength="128.9844" x="1482.9238" y="848.7617">&#171;value object&#187;</text><text fill="#000000" font-family="sans-serif" font-size="20" lengthAdjust="spacing" textLength="177.832" x="1458.5" y="873.918">AircraftPerformance</text><line style="stroke:#181818;stroke-width:0.5;" x1="1428.5" x2="1638.332" y1="883.3125" y2="883.3125"/><text fill="#000000" font-family="sans-serif" font-size="20" lengthAdjust="spacing" textLength="124.4922" x="1433.5" y="908.0742">serviceCeiling</text><text fill="#000000" font-family="sans-serif" font-size="20" lengthAdjust="spacing" textLength="111.1816" x="1433.5" y="933.2305">cruiseSpeed</text><text fill="#000000" font-family="sans-serif" font-size="20" lengthAdjust="spacing" textLength="145.6055" x="1433.5" y="958.3867">maximumRange</text></g><g class="entity" data-qualified-name="AircraftModel_Aggregate.GMN34" data-source-line="76" id="ent0035"><path d="M1734,865 L1734,891 L1639.89,895 L1734,899 L1734,925.3125 A0,0 0 0 0 1734,925.3125 L2027.373,925.3125 A0,0 0 0 0 2027.373,925.3125 L2027.373,875 L2017.373,865 L1734,865 A0,0 0 0 0 1734,865" fill="#FEFFDD" style="stroke:#181818;stroke-width:0.5;"/><path d="M2017.373,865 L2017.373,875 L2027.373,875 L2017.373,865" fill="#FEFFDD" style="stroke:#181818;stroke-width:0.5;"/><text fill="#000000" font-family="sans-serif" font-size="20" lengthAdjust="spacing" textLength="242.3633" x="1740" y="890.7617">Each value has its own unit</text><text fill="#000000" font-family="sans-serif" font-size="20" lengthAdjust="spacing" textLength="272.373" x="1740" y="915.918">defined at implementation time</text></g><!--class AerodynamicCoefficients--><g class="entity" data-qualified-name="AircraftModel_Aggregate.AerodynamicCoefficients" data-source-line="78" id="ent0037"><rect fill="#F1F1F1" height="143.7813" rx="2.5" ry="2.5" style="stroke:#181818;stroke-width:0.5;" width="255.2109" x="1406" y="639"/><ellipse cx="1422" cy="669.1563" fill="#ADD1B2" rx="12" ry="12" style="stroke:#181818;stroke-width:1;"/><path d="M1424.1406,664.0781 Q1424.3281,663.8281 1424.5469,663.7031 Q1424.7656,663.5625 1425.0156,663.5625 Q1425.4531,663.5625 1425.7344,663.875 Q1426.0156,664.1719 1426.0156,664.8906 L1426.0156,666.5938 Q1426.0156,667.3125 1425.7344,667.625 Q1425.4531,667.9375 1425.0156,667.9375 Q1424.625,667.9375 1424.375,667.7031 Q1424.125,667.4844 1424.0156,666.875 Q1423.9531,666.4531 1423.7344,666.2344 Q1423.3438,665.7969 1422.625,665.5313 Q1421.9063,665.2656 1421.1875,665.2656 Q1420.2813,665.2656 1419.5313,665.6563 Q1418.7813,666.0469 1418.2031,666.9375 Q1417.625,667.8125 1417.625,669.0156 L1417.625,670.3125 Q1417.625,671.7656 1418.6719,672.7344 Q1419.7344,673.7031 1421.5938,673.7031 Q1422.7031,673.7031 1423.4844,673.3906 Q1423.9219,673.2188 1424.4375,672.7031 Q1424.75,672.3906 1424.9219,672.2969 Q1425.0938,672.2031 1425.3281,672.2031 Q1425.7188,672.2031 1426.0156,672.5156 Q1426.3281,672.8125 1426.3281,673.2188 Q1426.3281,673.625 1425.9219,674.0938 Q1425.3281,674.7813 1424.3906,675.1719 Q1423.125,675.7031 1421.6094,675.7031 Q1419.8281,675.7031 1418.4063,674.9688 Q1417.25,674.375 1416.4375,673.1094 Q1415.625,671.8438 1415.625,670.3594 L1415.625,669 Q1415.625,667.4375 1416.3438,666.0938 Q1417.0781,664.7344 1418.3594,664 Q1419.6563,663.2656 1421.1094,663.2656 Q1421.9688,663.2656 1422.7188,663.4688 Q1423.4844,663.6719 1424.1406,664.0781 Z " fill="#000000"/><text fill="#000000" font-family="sans-serif" font-size="20" font-style="italic" lengthAdjust="spacing" textLength="128.9844" x="1483.1133" y="664.7617">&#171;value object&#187;</text><text fill="#000000" font-family="sans-serif" font-size="20" lengthAdjust="spacing" textLength="221.2109" x="1437" y="689.918">AerodynamicCoefficients</text><line style="stroke:#181818;stroke-width:0.5;" x1="1407" x2="1660.2109" y1="699.3125" y2="699.3125"/><text fill="#000000" font-family="sans-serif" font-size="20" lengthAdjust="spacing" textLength="83.3789" x="1412" y="724.0742">wingArea</text><text fill="#000000" font-family="sans-serif" font-size="20" lengthAdjust="spacing" textLength="134.5215" x="1412" y="749.2305">dragCoefficient</text><text fill="#000000" font-family="sans-serif" font-size="20" lengthAdjust="spacing" textLength="114.4922" x="1412" y="774.3867">liftCoefficient</text></g><g class="entity" data-qualified-name="AircraftModel_Aggregate.GMN38" data-source-line="83" id="ent0039"><path d="M1787,681 L1787,707 L1661.01,711 L1787,715 L1787,741.3125 A0,0 0 0 0 1787,741.3125 L1973.6055,741.3125 A0,0 0 0 0 1973.6055,741.3125 L1973.6055,691 L1963.6055,681 L1787,681 A0,0 0 0 0 1787,681" fill="#FEFFDD" style="stroke:#181818;stroke-width:0.5;"/><path d="M1963.6055,681 L1963.6055,691 L1973.6055,691 L1963.6055,681" fill="#FEFFDD" style="stroke:#181818;stroke-width:0.5;"/><text fill="#000000" font-family="sans-serif" font-size="20" lengthAdjust="spacing" textLength="138.9551" x="1793" y="706.7617">Used in lift/drag</text><text fill="#000000" font-family="sans-serif" font-size="20" lengthAdjust="spacing" textLength="165.6055" x="1793" y="731.918">formulas (sec. 3.3)</text></g><!--class AircraftVariant--><g class="entity" data-qualified-name="AircraftModel_Aggregate.AircraftVariant" data-source-line="84" id="ent0041"><rect fill="#F1F1F1" height="60.3125" rx="2.5" ry="2.5" style="stroke:#181818;stroke-width:0.5;" width="160.709" x="1453" y="539"/><ellipse cx="1469" cy="569.1563" fill="#ADD1B2" rx="12" ry="12" style="stroke:#181818;stroke-width:1;"/><path d="M1471.1406,564.0781 Q1471.3281,563.8281 1471.5469,563.7031 Q1471.7656,563.5625 1472.0156,563.5625 Q1472.4531,563.5625 1472.7344,563.875 Q1473.0156,564.1719 1473.0156,564.8906 L1473.0156,566.5938 Q1473.0156,567.3125 1472.7344,567.625 Q1472.4531,567.9375 1472.0156,567.9375 Q1471.625,567.9375 1471.375,567.7031 Q1471.125,567.4844 1471.0156,566.875 Q1470.9531,566.4531 1470.7344,566.2344 Q1470.3438,565.7969 1469.625,565.5313 Q1468.9063,565.2656 1468.1875,565.2656 Q1467.2813,565.2656 1466.5313,565.6563 Q1465.7813,566.0469 1465.2031,566.9375 Q1464.625,567.8125 1464.625,569.0156 L1464.625,570.3125 Q1464.625,571.7656 1465.6719,572.7344 Q1466.7344,573.7031 1468.5938,573.7031 Q1469.7031,573.7031 1470.4844,573.3906 Q1470.9219,573.2188 1471.4375,572.7031 Q1471.75,572.3906 1471.9219,572.2969 Q1472.0938,572.2031 1472.3281,572.2031 Q1472.7188,572.2031 1473.0156,572.5156 Q1473.3281,572.8125 1473.3281,573.2188 Q1473.3281,573.625 1472.9219,574.0938 Q1472.3281,574.7813 1471.3906,575.1719 Q1470.125,575.7031 1468.6094,575.7031 Q1466.8281,575.7031 1465.4063,574.9688 Q1464.25,574.375 1463.4375,573.1094 Q1462.625,571.8438 1462.625,570.3594 L1462.625,569 Q1462.625,567.4375 1463.3438,566.0938 Q1464.0781,564.7344 1465.3594,564 Q1466.6563,563.2656 1468.1094,563.2656 Q1468.9688,563.2656 1469.7188,563.4688 Q1470.4844,563.6719 1471.1406,564.0781 Z " fill="#000000"/><text fill="#000000" font-family="sans-serif" font-size="20" font-style="italic" lengthAdjust="spacing" textLength="70.0488" x="1512.3301" y="564.7617">&#171;entity&#187;</text><text fill="#000000" font-family="sans-serif" font-size="20" lengthAdjust="spacing" textLength="126.709" x="1484" y="589.918">AircraftVariant</text></g><g class="entity" data-qualified-name="AircraftModel_Aggregate.GMN42" data-source-line="86" id="ent0043"><path d="M1727,539 L1727,565 L1614.08,569 L1727,573 L1727,599.3125 A0,0 0 0 0 1727,599.3125 L2034.1914,599.3125 A0,0 0 0 0 2034.1914,599.3125 L2034.1914,549 L2024.1914,539 L1727,539 A0,0 0 0 0 1727,539" fill="#FEFFDD" style="stroke:#181818;stroke-width:0.5;"/><path d="M2024.1914,539 L2024.1914,549 L2034.1914,549 L2024.1914,539" fill="#FEFFDD" style="stroke:#181818;stroke-width:0.5;"/><text fill="#000000" font-family="sans-serif" font-size="20" lengthAdjust="spacing" textLength="209.4434" x="1733" y="564.7617">US057: "combination of</text><text fill="#000000" font-family="sans-serif" font-size="20" lengthAdjust="spacing" textLength="286.1914" x="1733" y="589.918">model and engine configuration"</text></g><!--class Aircraft--><g class="entity" data-qualified-name="Aircraft_Aggregate.Aircraft" data-source-line="97" id="ent0052"><rect fill="#F1F1F1" height="118.625" rx="2.5" ry="2.5" style="stroke:#181818;stroke-width:0.5;" width="279.8516" x="23" y="274.5"/><ellipse cx="125.4014" cy="317.2344" fill="#ADD1B2" rx="12" ry="12" style="stroke:#181818;stroke-width:1;"/><path d="M127.542,312.1563 Q127.7295,311.9063 127.9482,311.7813 Q128.167,311.6406 128.417,311.6406 Q128.8545,311.6406 129.1357,311.9531 Q129.417,312.25 129.417,312.9688 L129.417,314.6719 Q129.417,315.3906 129.1357,315.7031 Q128.8545,316.0156 128.417,316.0156 Q128.0264,316.0156 127.7764,315.7813 Q127.5264,315.5625 127.417,314.9531 Q127.3545,314.5313 127.1357,314.3125 Q126.7451,313.875 126.0264,313.6094 Q125.3076,313.3438 124.5889,313.3438 Q123.6826,313.3438 122.9326,313.7344 Q122.1826,314.125 121.6045,315.0156 Q121.0264,315.8906 121.0264,317.0938 L121.0264,318.3906 Q121.0264,319.8438 122.0732,320.8125 Q123.1357,321.7813 124.9951,321.7813 Q126.1045,321.7813 126.8857,321.4688 Q127.3232,321.2969 127.8389,320.7813 Q128.1514,320.4688 128.3232,320.375 Q128.4951,320.2813 128.7295,320.2813 Q129.1201,320.2813 129.417,320.5938 Q129.7295,320.8906 129.7295,321.2969 Q129.7295,321.7031 129.3232,322.1719 Q128.7295,322.8594 127.792,323.25 Q126.5264,323.7813 125.0107,323.7813 Q123.2295,323.7813 121.8076,323.0469 Q120.6514,322.4531 119.8389,321.1875 Q119.0264,319.9219 119.0264,318.4375 L119.0264,317.0781 Q119.0264,315.5156 119.7451,314.1719 Q120.4795,312.8125 121.7607,312.0781 Q123.0576,311.3438 124.5107,311.3438 Q125.3701,311.3438 126.1201,311.5469 Q126.8857,311.75 127.542,312.1563 Z " fill="#000000"/><text fill="#000000" font-family="sans-serif" font-size="20" font-style="italic" lengthAdjust="spacing" textLength="70.0488" x="145.4014" y="300.2617">&#171;entity&#187;</text><text fill="#000000" font-family="sans-serif" font-size="20" font-style="italic" lengthAdjust="spacing" textLength="56.709" x="152.0713" y="325.418">&#171;root&#187;</text><text fill="#000000" font-family="sans-serif" font-size="20" lengthAdjust="spacing" textLength="63.3398" x="148.7559" y="350.5742">Aircraft</text><line style="stroke:#181818;stroke-width:0.5;" x1="24" x2="301.8516" y1="359.9688" y2="359.9688"/><text fill="#000000" font-family="sans-serif" font-size="20" lengthAdjust="spacing" textLength="267.8516" x="29" y="384.7305">numberOfFlightCrewMembers</text></g><!--class RegistrationNumber--><g class="entity" data-qualified-name="Aircraft_Aggregate.RegistrationNumber" data-source-line="100" id="ent0053"><rect fill="#F1F1F1" height="118.625" rx="2.5" ry="2.5" style="stroke:#181818;stroke-width:0.5;" width="211.8516" x="498" y="310.5"/><ellipse cx="514" cy="340.6563" fill="#ADD1B2" rx="12" ry="12" style="stroke:#181818;stroke-width:1;"/><path d="M516.1406,335.5781 Q516.3281,335.3281 516.5469,335.2031 Q516.7656,335.0625 517.0156,335.0625 Q517.4531,335.0625 517.7344,335.375 Q518.0156,335.6719 518.0156,336.3906 L518.0156,338.0938 Q518.0156,338.8125 517.7344,339.125 Q517.4531,339.4375 517.0156,339.4375 Q516.625,339.4375 516.375,339.2031 Q516.125,338.9844 516.0156,338.375 Q515.9531,337.9531 515.7344,337.7344 Q515.3438,337.2969 514.625,337.0313 Q513.9063,336.7656 513.1875,336.7656 Q512.2813,336.7656 511.5313,337.1563 Q510.7813,337.5469 510.2031,338.4375 Q509.625,339.3125 509.625,340.5156 L509.625,341.8125 Q509.625,343.2656 510.6719,344.2344 Q511.7344,345.2031 513.5938,345.2031 Q514.7031,345.2031 515.4844,344.8906 Q515.9219,344.7188 516.4375,344.2031 Q516.75,343.8906 516.9219,343.7969 Q517.0938,343.7031 517.3281,343.7031 Q517.7188,343.7031 518.0156,344.0156 Q518.3281,344.3125 518.3281,344.7188 Q518.3281,345.125 517.9219,345.5938 Q517.3281,346.2813 516.3906,346.6719 Q515.125,347.2031 513.6094,347.2031 Q511.8281,347.2031 510.4063,346.4688 Q509.25,345.875 508.4375,344.6094 Q507.625,343.3438 507.625,341.8594 L507.625,340.5 Q507.625,338.9375 508.3438,337.5938 Q509.0781,336.2344 510.3594,335.5 Q511.6563,334.7656 513.1094,334.7656 Q513.9688,334.7656 514.7188,334.9688 Q515.4844,335.1719 516.1406,335.5781 Z " fill="#000000"/><text fill="#000000" font-family="sans-serif" font-size="20" font-style="italic" lengthAdjust="spacing" textLength="128.9844" x="553.4336" y="336.2617">&#171;value object&#187;</text><text fill="#000000" font-family="sans-serif" font-size="20" lengthAdjust="spacing" textLength="177.8516" x="529" y="361.418">RegistrationNumber</text><line style="stroke:#181818;stroke-width:0.5;" x1="499" x2="708.8516" y1="370.8125" y2="370.8125"/><text fill="#000000" font-family="sans-serif" font-size="20" lengthAdjust="spacing" textLength="67.8125" x="504" y="395.5742">number</text><text fill="#000000" font-family="sans-serif" font-size="20" lengthAdjust="spacing" textLength="168.9648" x="504" y="420.7305">registrationCountry</text></g><g class="entity" data-qualified-name="Aircraft_Aggregate.GMN54" data-source-line="104" id="ent0055"><path d="M943,352.5 L943,366 L710.23,370 L943,374 L943,387.6563 A0,0 0 0 0 943,387.6563 L1198.5703,387.6563 A0,0 0 0 0 1198.5703,387.6563 L1198.5703,362.5 L1188.5703,352.5 L943,352.5 A0,0 0 0 0 943,352.5" fill="#FEFFDD" style="stroke:#181818;stroke-width:0.5;"/><path d="M1188.5703,352.5 L1188.5703,362.5 L1198.5703,362.5 L1188.5703,352.5" fill="#FEFFDD" style="stroke:#181818;stroke-width:0.5;"/><text fill="#000000" font-family="sans-serif" font-size="20" lengthAdjust="spacing" textLength="234.5703" x="949" y="378.2617">unique worldwide (US070)</text></g><!--class CabinConfiguration--><g class="entity" data-qualified-name="Aircraft_Aggregate.CabinConfiguration" data-source-line="105" id="ent0057"><rect fill="#F1F1F1" height="60.3125" rx="2.5" ry="2.5" style="stroke:#181818;stroke-width:0.5;" width="205.2207" x="501.5" y="210"/><ellipse cx="517.5" cy="240.1563" fill="#ADD1B2" rx="12" ry="12" style="stroke:#181818;stroke-width:1;"/><path d="M519.6406,235.0781 Q519.8281,234.8281 520.0469,234.7031 Q520.2656,234.5625 520.5156,234.5625 Q520.9531,234.5625 521.2344,234.875 Q521.5156,235.1719 521.5156,235.8906 L521.5156,237.5938 Q521.5156,238.3125 521.2344,238.625 Q520.9531,238.9375 520.5156,238.9375 Q520.125,238.9375 519.875,238.7031 Q519.625,238.4844 519.5156,237.875 Q519.4531,237.4531 519.2344,237.2344 Q518.8438,236.7969 518.125,236.5313 Q517.4063,236.2656 516.6875,236.2656 Q515.7813,236.2656 515.0313,236.6563 Q514.2813,237.0469 513.7031,237.9375 Q513.125,238.8125 513.125,240.0156 L513.125,241.3125 Q513.125,242.7656 514.1719,243.7344 Q515.2344,244.7031 517.0938,244.7031 Q518.2031,244.7031 518.9844,244.3906 Q519.4219,244.2188 519.9375,243.7031 Q520.25,243.3906 520.4219,243.2969 Q520.5938,243.2031 520.8281,243.2031 Q521.2188,243.2031 521.5156,243.5156 Q521.8281,243.8125 521.8281,244.2188 Q521.8281,244.625 521.4219,245.0938 Q520.8281,245.7813 519.8906,246.1719 Q518.625,246.7031 517.1094,246.7031 Q515.3281,246.7031 513.9063,245.9688 Q512.75,245.375 511.9375,244.1094 Q511.125,242.8438 511.125,241.3594 L511.125,240 Q511.125,238.4375 511.8438,237.0938 Q512.5781,235.7344 513.8594,235 Q515.1563,234.2656 516.6094,234.2656 Q517.4688,234.2656 518.2188,234.4688 Q518.9844,234.6719 519.6406,235.0781 Z " fill="#000000"/><text fill="#000000" font-family="sans-serif" font-size="20" font-style="italic" lengthAdjust="spacing" textLength="128.9844" x="553.6182" y="235.7617">&#171;value object&#187;</text><text fill="#000000" font-family="sans-serif" font-size="20" lengthAdjust="spacing" textLength="171.2207" x="532.5" y="260.918">CabinConfiguration</text></g><!--class SeatClass--><g class="entity" data-qualified-name="Aircraft_Aggregate.SeatClass" data-source-line="107" id="ent0058"><rect fill="#F1F1F1" height="118.625" rx="2.5" ry="2.5" style="stroke:#181818;stroke-width:0.5;" width="158.9844" x="991.5" y="187.5"/><ellipse cx="1007.5" cy="217.6563" fill="#ADD1B2" rx="12" ry="12" style="stroke:#181818;stroke-width:1;"/><path d="M1009.6406,212.5781 Q1009.8281,212.3281 1010.0469,212.2031 Q1010.2656,212.0625 1010.5156,212.0625 Q1010.9531,212.0625 1011.2344,212.375 Q1011.5156,212.6719 1011.5156,213.3906 L1011.5156,215.0938 Q1011.5156,215.8125 1011.2344,216.125 Q1010.9531,216.4375 1010.5156,216.4375 Q1010.125,216.4375 1009.875,216.2031 Q1009.625,215.9844 1009.5156,215.375 Q1009.4531,214.9531 1009.2344,214.7344 Q1008.8438,214.2969 1008.125,214.0313 Q1007.4063,213.7656 1006.6875,213.7656 Q1005.7813,213.7656 1005.0313,214.1563 Q1004.2813,214.5469 1003.7031,215.4375 Q1003.125,216.3125 1003.125,217.5156 L1003.125,218.8125 Q1003.125,220.2656 1004.1719,221.2344 Q1005.2344,222.2031 1007.0938,222.2031 Q1008.2031,222.2031 1008.9844,221.8906 Q1009.4219,221.7188 1009.9375,221.2031 Q1010.25,220.8906 1010.4219,220.7969 Q1010.5938,220.7031 1010.8281,220.7031 Q1011.2188,220.7031 1011.5156,221.0156 Q1011.8281,221.3125 1011.8281,221.7188 Q1011.8281,222.125 1011.4219,222.5938 Q1010.8281,223.2813 1009.8906,223.6719 Q1008.625,224.2031 1007.1094,224.2031 Q1005.3281,224.2031 1003.9063,223.4688 Q1002.75,222.875 1001.9375,221.6094 Q1001.125,220.3438 1001.125,218.8594 L1001.125,217.5 Q1001.125,215.9375 1001.8438,214.5938 Q1002.5781,213.2344 1003.8594,212.5 Q1005.1563,211.7656 1006.6094,211.7656 Q1007.4688,211.7656 1008.2188,211.9688 Q1008.9844,212.1719 1009.6406,212.5781 Z " fill="#000000"/><text fill="#000000" font-family="sans-serif" font-size="20" font-style="italic" lengthAdjust="spacing" textLength="128.9844" x="1020.5" y="213.2617">&#171;value object&#187;</text><text fill="#000000" font-family="sans-serif" font-size="20" lengthAdjust="spacing" textLength="91.1523" x="1039.416" y="238.418">SeatClass</text><line style="stroke:#181818;stroke-width:0.5;" x1="992.5" x2="1149.4844" y1="247.8125" y2="247.8125"/><text fill="#000000" font-family="sans-serif" font-size="20" lengthAdjust="spacing" textLength="98.916" x="997.5" y="272.5742">className</text><text fill="#000000" font-family="sans-serif" font-size="20" lengthAdjust="spacing" textLength="140.0684" x="997.5" y="297.7305">numberOfSeats</text></g><g class="entity" data-qualified-name="Aircraft_Aggregate.GMN60" data-source-line="112" id="ent0061"><path d="M947,87 L947,147.3125 A0,0 0 0 0 947,147.3125 L952.23,147.3125 L706.76,213.08 L960.23,147.3125 L1194.8164,147.3125 A0,0 0 0 0 1194.8164,147.3125 L1194.8164,97 L1184.8164,87 L947,87 A0,0 0 0 0 947,87" fill="#FEFFDD" style="stroke:#181818;stroke-width:0.5;"/><path d="M1184.8164,87 L1184.8164,97 L1194.8164,97 L1184.8164,87" fill="#FEFFDD" style="stroke:#181818;stroke-width:0.5;"/><text fill="#000000" font-family="sans-serif" font-size="20" lengthAdjust="spacing" textLength="226.8164" x="953" y="112.7617">total seats cannot exceed</text><text fill="#000000" font-family="sans-serif" font-size="20" lengthAdjust="spacing" textLength="213.4277" x="953" y="137.918">model capacity (US070)</text></g><!--class OperationalStatus--><g class="entity" data-qualified-name="Aircraft_Aggregate.OperationalStatus" data-source-line="113" id="ent0063"><rect fill="#F1F1F1" height="93.4688" rx="2.5" ry="2.5" style="stroke:#181818;stroke-width:0.5;" width="194.0977" x="507" y="76.5"/><ellipse cx="523" cy="94.0781" fill="#EB937F" rx="12" ry="12" style="stroke:#181818;stroke-width:1;"/><path d="M520.9531,95.1406 L520.9531,98.0781 L526.0469,98.0781 L526.0469,96.9844 Q526.0469,96.2656 526.3281,95.9688 Q526.6094,95.6563 527.0625,95.6563 Q527.5,95.6563 527.7813,95.9688 Q528.0625,96.2656 528.0625,96.9844 L528.0625,100.0781 L518.625,100.0781 Q517.9063,100.0781 517.5938,99.7969 Q517.2969,99.5156 517.2969,99.0781 Q517.2969,98.625 517.6094,98.3594 Q517.9219,98.0781 518.625,98.0781 L518.9375,98.0781 L518.9375,90.25 L518.625,90.25 Q517.9063,90.25 517.5938,89.9688 Q517.2969,89.6875 517.2969,89.2344 Q517.2969,88.7813 517.5938,88.5156 Q517.9063,88.2344 518.625,88.2344 L527.6094,88.2344 L527.6094,91.2813 Q527.6094,92 527.3281,92.3125 Q527.0625,92.6094 526.625,92.6094 Q526.1719,92.6094 525.8906,92.3125 Q525.6094,92.0156 525.6094,91.2813 L525.6094,90.25 L520.9531,90.25 L520.9531,93.1406 L522.7031,93.1406 Q522.7031,92.3594 522.8438,92.125 Q523.1563,91.6563 523.7031,91.6563 Q524.1563,91.6563 524.4219,91.9688 Q524.7031,92.2656 524.7031,92.9844 L524.7031,95.2969 Q524.7031,95.9531 524.5469,96.1719 Q524.2344,96.625 523.7031,96.625 Q523.1563,96.625 522.8438,96.1563 Q522.7031,95.9219 522.7031,95.1406 L520.9531,95.1406 Z " fill="#000000"/><text fill="#000000" font-family="sans-serif" font-size="20" lengthAdjust="spacing" textLength="160.0977" x="538" y="102.2617">OperationalStatus</text><line style="stroke:#181818;stroke-width:0.5;" x1="508" x2="700.0977" y1="111.6563" y2="111.6563"/><text fill="#000000" font-family="sans-serif" font-size="20" lengthAdjust="spacing" textLength="52.2461" x="513" y="136.418">active</text><text fill="#000000" font-family="sans-serif" font-size="20" lengthAdjust="spacing" textLength="150.0684" x="513" y="161.5742">decommissioned</text></g><!--class Pilot--><g class="entity" data-qualified-name="Pilot_Aggregate.Pilot" data-source-line="124" id="ent0068"><rect fill="#F1F1F1" height="85.4688" rx="2.5" ry="2.5" style="stroke:#181818;stroke-width:0.5;" width="100.0488" x="113" y="1049.5"/><ellipse cx="129" cy="1092.2344" fill="#ADD1B2" rx="12" ry="12" style="stroke:#181818;stroke-width:1;"/><path d="M131.1406,1087.1563 Q131.3281,1086.9063 131.5469,1086.7813 Q131.7656,1086.6406 132.0156,1086.6406 Q132.4531,1086.6406 132.7344,1086.9531 Q133.0156,1087.25 133.0156,1087.9688 L133.0156,1089.6719 Q133.0156,1090.3906 132.7344,1090.7031 Q132.4531,1091.0156 132.0156,1091.0156 Q131.625,1091.0156 131.375,1090.7813 Q131.125,1090.5625 131.0156,1089.9531 Q130.9531,1089.5313 130.7344,1089.3125 Q130.3438,1088.875 129.625,1088.6094 Q128.9063,1088.3438 128.1875,1088.3438 Q127.2813,1088.3438 126.5313,1088.7344 Q125.7813,1089.125 125.2031,1090.0156 Q124.625,1090.8906 124.625,1092.0938 L124.625,1093.3906 Q124.625,1094.8438 125.6719,1095.8125 Q126.7344,1096.7813 128.5938,1096.7813 Q129.7031,1096.7813 130.4844,1096.4688 Q130.9219,1096.2969 131.4375,1095.7813 Q131.75,1095.4688 131.9219,1095.375 Q132.0938,1095.2813 132.3281,1095.2813 Q132.7188,1095.2813 133.0156,1095.5938 Q133.3281,1095.8906 133.3281,1096.2969 Q133.3281,1096.7031 132.9219,1097.1719 Q132.3281,1097.8594 131.3906,1098.25 Q130.125,1098.7813 128.6094,1098.7813 Q126.8281,1098.7813 125.4063,1098.0469 Q124.25,1097.4531 123.4375,1096.1875 Q122.625,1094.9219 122.625,1093.4375 L122.625,1092.0781 Q122.625,1090.5156 123.3438,1089.1719 Q124.0781,1087.8125 125.3594,1087.0781 Q126.6563,1086.3438 128.1094,1086.3438 Q128.9688,1086.3438 129.7188,1086.5469 Q130.4844,1086.75 131.1406,1087.1563 Z " fill="#000000"/><text fill="#000000" font-family="sans-serif" font-size="20" font-style="italic" lengthAdjust="spacing" textLength="70.0488" x="142" y="1075.2617">&#171;entity&#187;</text><text fill="#000000" font-family="sans-serif" font-size="20" font-style="italic" lengthAdjust="spacing" textLength="56.709" x="148.6699" y="1100.418">&#171;root&#187;</text><text fill="#000000" font-family="sans-serif" font-size="20" lengthAdjust="spacing" textLength="38.9063" x="157.5713" y="1125.5742">Pilot</text></g><!--link EngineModel to MotorizationType--><g class="link" data-entity-1="ent0005" data-entity-2="ent0016" data-link-type="dependency" data-source-line="44" id="lnk17"><path codeLine="44" d="M1146.76,2142.17 C1226.73,2095.28 1348.5242,2023.875 1434.7642,1973.305" fill="none" id="EngineModel-to-MotorizationType" style="stroke:#181818;stroke-width:1;"/><polygon fill="#181818" points="1439.94,1970.27,1430.153,1971.372,1435.6268,1972.7992,1434.1997,1978.273,1439.94,1970.27" style="stroke:#181818;stroke-width:1;"/><text fill="#000000" font-family="sans-serif" font-size="20" lengthAdjust="spacing" textLength="61.1426" x="1273" y="2006.7617">ofType</text></g><!--reverse link EngineModel to EngineName--><g class="link" data-entity-1="ent0005" data-entity-2="ent0006" data-link-type="composition" data-source-line="45" id="lnk18"><path codeLine="45" d="M1117.6549,2255.4709 C1147.6349,2299.1109 1184.89,2348.52 1231,2394 C1299.98,2462.04 1323.9,2472.54 1406,2524 C1421.11,2533.47 1437.73,2542.84 1453.81,2551.41" fill="none" id="EngineModel-backto-EngineName" style="stroke:#181818;stroke-width:1;"/><polygon fill="#181818" points="1110.86,2245.58,1110.9605,2252.7904,1117.6549,2255.4709,1117.5544,2248.2605,1110.86,2245.58" style="stroke:#181818;stroke-width:1;"/><text fill="#000000" font-family="sans-serif" font-size="20" lengthAdjust="spacing" textLength="103.3984" x="1252" y="2388.7617">identifiedBy</text></g><!--reverse link EngineModel to Power--><g class="link" data-entity-1="ent0005" data-entity-2="ent0010" data-link-type="composition" data-source-line="46" id="lnk19"><path codeLine="46" d="M1156.9179,2236.2762 C1183.4679,2251.8662 1203.31,2263.33 1231,2279 C1306.17,2321.54 1392.73,2368.73 1453.76,2401.7" fill="none" id="EngineModel-backto-Power" style="stroke:#181818;stroke-width:1;"/><polygon fill="#181818" points="1146.57,2230.2,1149.7185,2236.6874,1156.9179,2236.2762,1153.7694,2229.7888,1146.57,2230.2" style="stroke:#181818;stroke-width:1;"/><text fill="#000000" font-family="sans-serif" font-size="20" lengthAdjust="spacing" textLength="64.4824" x="1271.5" y="2273.7617">ratedAt</text></g><!--reverse link EngineModel to Thrust--><g class="link" data-entity-1="ent0005" data-entity-2="ent0011" data-link-type="composition" data-source-line="47" id="lnk20"><path codeLine="47" d="M1158.556,2202.1633 C1242.986,2217.9333 1368,2241.28 1453.96,2257.33" fill="none" id="EngineModel-backto-Thrust" style="stroke:#181818;stroke-width:1;"/><polygon fill="#181818" points="1146.76,2199.96,1151.9236,2204.9936,1158.556,2202.1633,1153.3924,2197.1296,1146.76,2199.96" style="stroke:#181818;stroke-width:1;"/><text fill="#000000" font-family="sans-serif" font-size="20" lengthAdjust="spacing" textLength="143.3984" x="1232" y="2211.7617">characterisedBy</text><text fill="#000000" font-family="sans-serif" font-size="20" lengthAdjust="spacing" textLength="11.123" x="1434.8612" y="2277.9028">2</text></g><!--reverse link EngineModel to TSFC--><g class="link" data-entity-1="ent0005" data-entity-2="ent0015" data-link-type="composition" data-source-line="48" id="lnk21"><path codeLine="48" d="M1158.556,2169.8367 C1242.986,2154.0667 1368,2130.72 1453.96,2114.67" fill="none" id="EngineModel-backto-TSFC" style="stroke:#181818;stroke-width:1;"/><polygon fill="#181818" points="1146.76,2172.04,1153.3924,2174.8704,1158.556,2169.8367,1151.9236,2167.0064,1146.76,2172.04" style="stroke:#181818;stroke-width:1;"/><text fill="#000000" font-family="sans-serif" font-size="20" lengthAdjust="spacing" textLength="68.9258" x="1269.5" y="2125.7617">ratedBy</text></g><!--reverse link AircraftModel to ModelID--><g class="link" data-entity-1="ent0023" data-entity-2="ent0024" data-link-type="composition" data-source-line="87" id="lnk45"><path codeLine="87" d="M690.7566,1136.4887 C710.1966,1146.4187 720.47,1151.5 740,1161 C826.73,1203.18 846.58,1218.44 937,1252 C1118.18,1319.25 1338.52,1375.87 1453.7,1403.64" fill="none" id="AircraftModel-backto-ModelID" style="stroke:#181818;stroke-width:1;"/><polygon fill="#181818" points="680.07,1131.03,683.5937,1137.3215,690.7566,1136.4887,687.2328,1130.1972,680.07,1131.03" style="stroke:#181818;stroke-width:1;"/><text fill="#000000" font-family="sans-serif" font-size="20" lengthAdjust="spacing" textLength="103.3984" x="1019.5" y="1246.7617">identifiedBy</text></g><!--link AircraftModel to AircraftType--><g class="link" data-entity-1="ent0023" data-entity-2="ent0028" data-link-type="dependency" data-source-line="88" id="lnk46"><path codeLine="88" d="M680.12,1106.9 C855.85,1141.77 1285.9147,1227.0825 1456.5447,1260.9325" fill="none" id="AircraftModel-to-AircraftType" style="stroke:#181818;stroke-width:1;"/><polygon fill="#181818" points="1462.43,1262.1,1454.3804,1256.4251,1457.5256,1261.127,1452.8237,1264.2722,1462.43,1262.1" style="stroke:#181818;stroke-width:1;"/><text fill="#000000" font-family="sans-serif" font-size="20" lengthAdjust="spacing" textLength="61.1426" x="1040.5" y="1153.7617">ofType</text></g><!--reverse link AircraftModel to AircraftWeights--><g class="link" data-entity-1="ent0023" data-entity-2="ent0029" data-link-type="composition" data-source-line="89" id="lnk47"><path codeLine="89" d="M692.12,1092 C863.22,1092 1268.98,1092 1448.38,1092" fill="none" id="AircraftModel-backto-AircraftWeights" style="stroke:#181818;stroke-width:1;"/><polygon fill="#181818" points="680.12,1092,686.12,1096,692.12,1092,686.12,1088,680.12,1092" style="stroke:#181818;stroke-width:1;"/><text fill="#000000" font-family="sans-serif" font-size="20" lengthAdjust="spacing" textLength="67.8125" x="1037.5" y="1086.7617">weights</text></g><!--reverse link AircraftModel to AircraftPerformance--><g class="link" data-entity-1="ent0023" data-entity-2="ent0033" data-link-type="composition" data-source-line="90" id="lnk48"><path codeLine="90" d="M691.858,1073.5562 C856.598,1038.5562 1238.26,957.5 1427.41,917.32" fill="none" id="AircraftModel-backto-AircraftPerformance" style="stroke:#181818;stroke-width:1;"/><polygon fill="#181818" points="680.12,1076.05,686.8203,1078.7158,691.858,1073.5562,685.1577,1070.8904,680.12,1076.05" style="stroke:#181818;stroke-width:1;"/><text fill="#000000" font-family="sans-serif" font-size="20" lengthAdjust="spacing" textLength="78.9063" x="1032" y="956.7617">performs</text></g><!--reverse link AircraftModel to AerodynamicCoefficients--><g class="link" data-entity-1="ent0023" data-entity-2="ent0037" data-link-type="composition" data-source-line="91" id="lnk49"><path codeLine="91" d="M690.8227,1045.2026 C757.3227,1009.6526 846.88,963.69 937,925 C1095.74,856.85 1284.16,791.68 1405.9,751.54" fill="none" id="AircraftModel-backto-AerodynamicCoefficients" style="stroke:#181818;stroke-width:1;"/><polygon fill="#181818" points="680.24,1050.86,687.4172,1051.5589,690.8227,1045.2026,683.6456,1044.5037,680.24,1050.86" style="stroke:#181818;stroke-width:1;"/><text fill="#000000" font-family="sans-serif" font-size="20" lengthAdjust="spacing" textLength="143.3984" x="999.5" y="812.7617">characterisedBy</text></g><!--reverse link AircraftModel to AircraftVariant--><g class="link" data-entity-1="ent0023" data-entity-2="ent0041" data-link-type="composition" data-source-line="92" id="lnk50"><path codeLine="92" d="M647.8219,1040.3239 C704.1219,974.3839 813.25,856.43 937,781 C1106.61,677.62 1334.07,614.45 1452.79,586.31" fill="none" id="AircraftModel-backto-AircraftVariant" style="stroke:#181818;stroke-width:1;"/><polygon fill="#181818" points="640.03,1049.45,646.968,1047.4843,647.8219,1040.3239,640.8839,1042.2896,640.03,1049.45" style="stroke:#181818;stroke-width:1;"/><text fill="#000000" font-family="sans-serif" font-size="20" lengthAdjust="spacing" textLength="91.1328" x="1025.5" y="649.7617">comprises</text></g><!--reverse link CabinConfiguration to SeatClass--><g class="link" data-entity-1="ent0057" data-entity-2="ent0058" data-link-type="composition" data-source-line="111" id="lnk59"><path codeLine="111" d="M718.7586,241.711 C804.2886,243.001 912.8,244.63 991.15,245.81" fill="none" id="CabinConfiguration-backto-SeatClass" style="stroke:#181818;stroke-width:1;"/><polygon fill="#181818" points="706.76,241.53,712.699,245.62,718.7586,241.711,712.8196,237.6209,706.76,241.53" style="stroke:#181818;stroke-width:1;"/><text fill="#000000" font-family="sans-serif" font-size="20" lengthAdjust="spacing" textLength="74.4922" x="786.5" y="237.7617">contains</text><text fill="#000000" font-family="sans-serif" font-size="20" lengthAdjust="spacing" textLength="30.0195" x="953.593" y="267.4942">1..*</text></g><!--reverse link Aircraft to RegistrationNumber--><g class="link" data-entity-1="ent0052" data-entity-2="ent0053" data-link-type="composition" data-source-line="117" id="lnk64"><path codeLine="117" d="M315.16,346.399 C378.2,351.559 439.52,356.59 497.85,361.38" fill="none" id="Aircraft-backto-RegistrationNumber" style="stroke:#181818;stroke-width:1;"/><polygon fill="#181818" points="303.2,345.42,308.8537,349.8961,315.16,346.399,309.5063,341.9228,303.2,345.42" style="stroke:#181818;stroke-width:1;"/><text fill="#000000" font-family="sans-serif" font-size="20" lengthAdjust="spacing" textLength="103.3984" x="349" y="343.7617">identifiedBy</text></g><!--reverse link Aircraft to CabinConfiguration--><g class="link" data-entity-1="ent0052" data-entity-2="ent0057" data-link-type="composition" data-source-line="118" id="lnk65"><path codeLine="118" d="M314.9342,301.6785 C379.2242,287.9185 442.44,274.38 501.32,261.77" fill="none" id="Aircraft-backto-CabinConfiguration" style="stroke:#181818;stroke-width:1;"/><polygon fill="#181818" points="303.2,304.19,309.9043,306.8457,314.9342,301.6785,308.23,299.0228,303.2,304.19" style="stroke:#181818;stroke-width:1;"/><text fill="#000000" font-family="sans-serif" font-size="20" lengthAdjust="spacing" textLength="133.3984" x="334" y="265.7617">configuredWith</text></g><!--link Aircraft to OperationalStatus--><g class="link" data-entity-1="ent0052" data-entity-2="ent0063" data-link-type="dependency" data-source-line="119" id="lnk66"><path codeLine="119" d="M259.19,274.44 C282.93,260.49 308.59,246.16 333,234 C389.37,205.92 449.0281,181.1251 501.2681,160.8051" fill="none" id="Aircraft-to-OperationalStatus" style="stroke:#181818;stroke-width:1;"/><polygon fill="#181818" points="506.86,158.63,497.0221,158.1647,502.2001,160.4426,499.9223,165.6205,506.86,158.63" style="stroke:#181818;stroke-width:1;"/><text fill="#000000" font-family="sans-serif" font-size="20" lengthAdjust="spacing" textLength="88.9453" x="356.5" y="170.7617">hasStatus</text></g><!--link AircraftModel to Manufacturer--><g class="link" data-entity-1="ent0023" data-entity-2="ent0003" data-link-type="dependency" data-source-line="129" id="lnk69"><path codeLine="129" d="M614.21,1134.69 C630.34,1201.58 668.95,1332.56 740,1421 C809.77,1507.85 915.6535,1572.6988 989.4035,1611.2788" fill="none" id="AircraftModel-to-Manufacturer" style="stroke:#181818;stroke-width:1;"/><polygon fill="#181818" points="994.72,1614.06,988.5994,1606.3439,990.2896,1611.7424,984.8911,1613.4326,994.72,1614.06" style="stroke:#181818;stroke-width:1;"/><polygon fill="#000000" points="752.9485,1413.864,747.6913,1399.5841,740.3018,1405.4014,752.9485,1413.864" style="stroke:#000000;stroke-width:1;"/><text fill="#000000" font-family="sans-serif" font-size="20" lengthAdjust="spacing" textLength="145.6348" x="761" y="1415.7617">manufacturedBy</text><text fill="#000000" font-family="sans-serif" font-size="20" lengthAdjust="spacing" textLength="7.7832" x="608.3118" y="1163.8788">*</text><text fill="#000000" font-family="sans-serif" font-size="20" lengthAdjust="spacing" textLength="11.123" x="975.9392" y="1632.6055">1</text></g><!--link AircraftModel to EngineModel--><g class="link" data-entity-1="ent0023" data-entity-2="ent0005" data-link-type="dependency" data-source-line="130" id="lnk70"><path codeLine="130" d="M612.56,1134.56 C629.12,1223.21 672.58,1433.19 740,1599 C822.68,1802.33 958.2743,2018.1428 1026.4643,2121.4328" fill="none" id="AircraftModel-to-EngineModel" style="stroke:#181818;stroke-width:1;"/><polygon fill="#181818" points="1029.77,2126.44,1028.1496,2116.7253,1027.0153,2122.2673,1021.4733,2121.1329,1029.77,2126.44" style="stroke:#181818;stroke-width:1;"/><polygon fill="#000000" points="789.5942,1592.9555,788.3331,1577.791,779.6604,1581.4284,789.5942,1592.9555" style="stroke:#000000;stroke-width:1;"/><text fill="#000000" font-family="sans-serif" font-size="20" lengthAdjust="spacing" textLength="68.9063" x="799.5" y="1593.7617">certifies</text><text fill="#000000" font-family="sans-serif" font-size="20" lengthAdjust="spacing" textLength="7.7832" x="614.481" y="1163.7289">*</text><text fill="#000000" font-family="sans-serif" font-size="20" lengthAdjust="spacing" textLength="30.0195" x="993.2841" y="2113.9005">1..*</text></g><!--link Aircraft to AircraftModel--><g class="link" data-entity-1="ent0052" data-entity-2="ent0023" data-link-type="dependency" data-source-line="132" id="lnk71"><path codeLine="132" d="M198.63,393.8 C284.27,541.67 501.4029,916.578 575.3529,1044.258" fill="none" id="Aircraft-to-AircraftModel" style="stroke:#181818;stroke-width:1;"/><polygon fill="#181818" points="578.36,1049.45,577.3107,1039.6572,575.8541,1045.1233,570.388,1043.6667,578.36,1049.45" style="stroke:#181818;stroke-width:1;"/><polygon fill="#000000" points="366.0094,639.5009,362.8254,624.6208,354.6872,629.3342,366.0094,639.5009" style="stroke:#000000;stroke-width:1;"/><text fill="#000000" font-family="sans-serif" font-size="20" lengthAdjust="spacing" textLength="71.1523" x="375" y="640.7617">ofModel</text><text fill="#000000" font-family="sans-serif" font-size="20" lengthAdjust="spacing" textLength="7.7832" x="194.9914" y="422.045">*</text><text fill="#000000" font-family="sans-serif" font-size="20" lengthAdjust="spacing" textLength="11.123" x="562.8091" y="1037.1033">1</text></g><!--link Pilot to AircraftModel--><g class="link" data-entity-1="ent0068" data-entity-2="ent0023" data-link-type="dependency" data-source-line="133" id="lnk72"><path codeLine="133" d="M213.08,1092 C289.6,1092 431.87,1092 521.89,1092" fill="none" id="Pilot-to-AircraftModel" style="stroke:#181818;stroke-width:1;"/><polygon fill="#181818" points="527.89,1092,518.89,1088,522.89,1092,518.89,1096,527.89,1092" style="stroke:#181818;stroke-width:1;"/><polygon fill="#000000" points="355.5,1078.5781,341.0279,1073.8758,341.0279,1083.2804,355.5,1078.5781" style="stroke:#000000;stroke-width:1;"/><text fill="#000000" font-family="sans-serif" font-size="20" lengthAdjust="spacing" textLength="100.0293" x="360.5" y="1086.7617">certifiedFor</text><text fill="#000000" font-family="sans-serif" font-size="20" lengthAdjust="spacing" textLength="7.7832" x="221.0035" y="1114.5747">*</text><text fill="#000000" font-family="sans-serif" font-size="20" lengthAdjust="spacing" textLength="30.0195" x="490.0691" y="1113.8225">1..*</text></g><?plantuml-src bLRRRjiu47ttLmpyr7HXRvfkMq0836JT6kX3BeZJ3R0mi62eaSo68hKa5SSj-kyTKb9CsLAGF9cKvpvd3iVU2rKommgf-Jsca6B6AkaMMhcb-85mSZoIc3bm6ep8rmvIOP0xeTN8jgfGCdxFSbowhKJmVpELIum4b4xHOWb_7KSV3LFt_kF7uz5Qf0XOb6uB1HPtQEneD6gimlYSgIfZt5K6pNzdUMumPmx7S7hAsiji1Zz705moQo6M9o5KJhWjIPoU6grT8mgWM87Xm7MbdDdI-TVeL-JtYyg5mdEANRx4RIG-w3MhKDviImo-keeN50u9Fp1P8UYxxrJ6_L2zYj8EcrReB5PDWXJy0KMK_aeLbNLmXr0fyJyPVlDjUVpXuz6Jxokz2KNgTHi-XXDfkqxCDslZ3RzK4S2MYEarPcXGyVva6fj9fu4JMvMb50HDvbRAEkO41wPIuAOI5ckxqvNwZDmWisXX8zmQcAJoLuIgDnRv5DvFt-zolbakvgzA6LLLmBbsseWVp6FVjx1He23lT6bqkRjbJEqktx7Edn3V7b6IHoFu5McXb6WQDp609fFPeSU4gjIW9vPzEvbqWK3JHEZBg6X_Rtjawvud59B3zCprI8nFnhjky3MDAtTegDpz1aD16tiaq1cYCs6uOPbxyHXr50O7QOV48FVryr13HTgBjLRh5LFpuQY5GXjY18EIGa6LXrvIPCpaEfmAyOXf9zvM-HPzB7Oexi26jKoudzzStjQ7VnVreM2F2wAJEQDQKuLwqzntbi1NzS2COCebA-LjmYnOf9_8uqgTILdFWeLIM-74mswKJeuEahb2asb3DUI376RHF0YESnHIgBmkKnZXfP_WDYDHLCKrFHyz39705yRNTLImPXO49QGtAapgIj7BHQ3qD06YA2KM19mmEk04iUSkP3GwtLBN1Pzhp3B11KaEzc53mPuHiuHBQbWUAOLlKcIk-wsd3GC-4_X6CmL21Ij_UlChvGjPKQXzrDNM-v-wX_5u_7mM0Aq2UIGeVqfWp7Ln9rHT8PqHvCEyUMR5CDxqBAfCv9K98cEot9rC6ln9D4PxdDELdNWwwqnDH6KzPWzXkwbFpul7A4oWh6z3EeCjEUIxPrpkwahrBBsAzVHto7-leRxdbfRAhqUNsKBwUimDRiwRXIdcc6lCXNLrvow2nk1c4VwjNwX8QHwjHFkGwZ6Uj4IvqKQc6x_DUShyTBn3xfmHskOnfFf3sYMnHERcuJGGUn2xQBUujZ9UhQr6ZzFmlBsRJj-E8mU-UyGMGjc3R7jC9BGDEoQ9qSWJSRqY3S17JZJMZX5lI3agGtWvBWcKmGYJIsAdoZQf4Dw8OMkEGK9I8QmbgQUdumaPFlpU1WpCNr3epQ4TRqnlQM6ALVom7WQQUCwjprs4NmcfNmJl8FZCY-wjTaTjJ5toqOpVZRjRVHA_rvGnp0OrGwlZZOLIHnDAPKdjIQ_Zh6lCarLzcetg9FRCxukt3jA5DgJp6m00?></g></svg>