<?plantuml 1.2026.2?><svg xmlns="http://www.w3.org/2000/svg" xmlns:xlink="http://www.w3.org/1999/xlink" contentStyleType="text/css" data-diagram-type="CLASS" height="2258px" preserveAspectRatio="none" style="width:3726px;height:2258px;background:#FFFFFF;" version="1.1" viewBox="0 0 3726 2258" width="3726px" zoomAndPan="magnify"><defs/><g><!--cluster AirControlArea_Aggregate--><g class="cluster" data-qualified-name="AirControlArea_Aggregate" data-source-line="8" id="ent0002"><rect fill="none" height="388" rx="2.5" ry="2.5" style="stroke:#000000;stroke-width:1.5;" width="1845" x="1875" y="1253"/><text fill="#000000" font-family="sans-serif" font-size="20" font-style="italic" lengthAdjust="spacing" textLength="112.3242" x="2741.3379" y="1275.7617">&#171;aggregate&#187;</text><text fill="#000000" font-family="sans-serif" font-size="20" font-weight="bold" lengthAdjust="spacing" textLength="253.3789" x="2670.8105" y="1300.918">AirControlArea_Aggregate</text></g><!--cluster Airport_Aggregate--><g class="cluster" data-qualified-name="Airport_Aggregate" data-source-line="27" id="ent0014"><rect fill="none" height="630" rx="2.5" ry="2.5" style="stroke:#000000;stroke-width:1.5;" width="1263" x="1361" y="590"/><text fill="#000000" font-family="sans-serif" font-size="20" font-style="italic" lengthAdjust="spacing" textLength="112.3242" x="1936.3379" y="612.7617">&#171;aggregate&#187;</text><text fill="#000000" font-family="sans-serif" font-size="20" font-weight="bold" lengthAdjust="spacing" textLength="176.6895" x="1904.1553" y="637.918">Airport_Aggregate</text></g><!--cluster Collaborator_Aggregate--><g class="cluster" data-qualified-name="Collaborator_Aggregate" data-source-line="56" id="ent0030"><rect fill="none" height="559" rx="2.5" ry="2.5" style="stroke:#000000;stroke-width:1.5;" width="2666" x="7" y="7"/><text fill="#000000" font-family="sans-serif" font-size="20" font-style="italic" lengthAdjust="spacing" textLength="112.3242" x="1283.8379" y="29.7617">&#171;aggregate&#187;</text><text fill="#000000" font-family="sans-serif" font-size="20" font-weight="bold" lengthAdjust="spacing" textLength="228.9258" x="1225.5371" y="54.918">Collaborator_Aggregate</text></g><!--cluster WeatherData_Aggregate--><g class="cluster" data-qualified-name="WeatherData_Aggregate" data-source-line="88" id="ent0053"><rect fill="none" height="305" rx="2.5" ry="2.5" style="stroke:#000000;stroke-width:1.5;" width="1804" x="1322" y="1947"/><text fill="#000000" font-family="sans-serif" font-size="20" font-style="italic" lengthAdjust="spacing" textLength="112.3242" x="2167.8379" y="1969.7617">&#171;aggregate&#187;</text><text fill="#000000" font-family="sans-serif" font-size="20" font-weight="bold" lengthAdjust="spacing" textLength="232.2852" x="2107.8574" y="1994.918">WeatherData_Aggregate</text></g><!--cluster Simulation_Aggregate--><g class="cluster" data-qualified-name="Simulation_Aggregate" data-source-line="108" id="ent0065"><rect fill="none" height="497" rx="2.5" ry="2.5" style="stroke:#000000;stroke-width:1.5;" width="1329" x="256" y="1426"/><text fill="#000000" font-family="sans-serif" font-size="20" font-style="italic" lengthAdjust="spacing" textLength="112.3242" x="864.3379" y="1448.7617">&#171;aggregate&#187;</text><text fill="#000000" font-family="sans-serif" font-size="20" font-weight="bold" lengthAdjust="spacing" textLength="212.2559" x="814.3721" y="1473.918">Simulation_Aggregate</text></g><!--class AirControlArea--><g class="entity" data-qualified-name="AirControlArea_Aggregate.AirControlArea" data-source-line="9" id="ent0003"><rect fill="#F1F1F1" height="85.4688" rx="2.5" ry="2.5" style="stroke:#181818;stroke-width:0.5;" width="165.1621" x="1891" y="1373.5"/><ellipse cx="1907" cy="1416.2344" fill="#ADD1B2" rx="12" ry="12" style="stroke:#181818;stroke-width:1;"/><path d="M1909.1406,1411.1563 Q1909.3281,1410.9063 1909.5469,1410.7813 Q1909.7656,1410.6406 1910.0156,1410.6406 Q1910.4531,1410.6406 1910.7344,1410.9531 Q1911.0156,1411.25 1911.0156,1411.9688 L1911.0156,1413.6719 Q1911.0156,1414.3906 1910.7344,1414.7031 Q1910.4531,1415.0156 1910.0156,1415.0156 Q1909.625,1415.0156 1909.375,1414.7813 Q1909.125,1414.5625 1909.0156,1413.9531 Q1908.9531,1413.5313 1908.7344,1413.3125 Q1908.3438,1412.875 1907.625,1412.6094 Q1906.9063,1412.3438 1906.1875,1412.3438 Q1905.2813,1412.3438 1904.5313,1412.7344 Q1903.7813,1413.125 1903.2031,1414.0156 Q1902.625,1414.8906 1902.625,1416.0938 L1902.625,1417.3906 Q1902.625,1418.8438 1903.6719,1419.8125 Q1904.7344,1420.7813 1906.5938,1420.7813 Q1907.7031,1420.7813 1908.4844,1420.4688 Q1908.9219,1420.2969 1909.4375,1419.7813 Q1909.75,1419.4688 1909.9219,1419.375 Q1910.0938,1419.2813 1910.3281,1419.2813 Q1910.7188,1419.2813 1911.0156,1419.5938 Q1911.3281,1419.8906 1911.3281,1420.2969 Q1911.3281,1420.7031 1910.9219,1421.1719 Q1910.3281,1421.8594 1909.3906,1422.25 Q1908.125,1422.7813 1906.6094,1422.7813 Q1904.8281,1422.7813 1903.4063,1422.0469 Q1902.25,1421.4531 1901.4375,1420.1875 Q1900.625,1418.9219 1900.625,1417.4375 L1900.625,1416.0781 Q1900.625,1414.5156 1901.3438,1413.1719 Q1902.0781,1411.8125 1903.3594,1411.0781 Q1904.6563,1410.3438 1906.1094,1410.3438 Q1906.9688,1410.3438 1907.7188,1410.5469 Q1908.4844,1410.75 1909.1406,1411.1563 Z " fill="#000000"/><text fill="#000000" font-family="sans-serif" font-size="20" font-style="italic" lengthAdjust="spacing" textLength="70.0488" x="1952.5566" y="1399.2617">&#171;entity&#187;</text><text fill="#000000" font-family="sans-serif" font-size="20" font-style="italic" lengthAdjust="spacing" textLength="56.709" x="1959.2266" y="1424.418">&#171;root&#187;</text><text fill="#000000" font-family="sans-serif" font-size="20" lengthAdjust="spacing" textLength="131.1621" x="1922" y="1449.5742">AirControlArea</text></g><!--class AreaCode--><g class="entity" data-qualified-name="AirControlArea_Aggregate.AreaCode" data-source-line="11" id="ent0004"><rect fill="#F1F1F1" height="93.4688" rx="2.5" ry="2.5" style="stroke:#181818;stroke-width:0.5;" width="158.9844" x="3190.5" y="1531.5"/><ellipse cx="3206.5" cy="1561.6563" fill="#ADD1B2" rx="12" ry="12" style="stroke:#181818;stroke-width:1;"/><path d="M3208.6406,1556.5781 Q3208.8281,1556.3281 3209.0469,1556.2031 Q3209.2656,1556.0625 3209.5156,1556.0625 Q3209.9531,1556.0625 3210.2344,1556.375 Q3210.5156,1556.6719 3210.5156,1557.3906 L3210.5156,1559.0938 Q3210.5156,1559.8125 3210.2344,1560.125 Q3209.9531,1560.4375 3209.5156,1560.4375 Q3209.125,1560.4375 3208.875,1560.2031 Q3208.625,1559.9844 3208.5156,1559.375 Q3208.4531,1558.9531 3208.2344,1558.7344 Q3207.8438,1558.2969 3207.125,1558.0313 Q3206.4063,1557.7656 3205.6875,1557.7656 Q3204.7813,1557.7656 3204.0313,1558.1563 Q3203.2813,1558.5469 3202.7031,1559.4375 Q3202.125,1560.3125 3202.125,1561.5156 L3202.125,1562.8125 Q3202.125,1564.2656 3203.1719,1565.2344 Q3204.2344,1566.2031 3206.0938,1566.2031 Q3207.2031,1566.2031 3207.9844,1565.8906 Q3208.4219,1565.7188 3208.9375,1565.2031 Q3209.25,1564.8906 3209.4219,1564.7969 Q3209.5938,1564.7031 3209.8281,1564.7031 Q3210.2188,1564.7031 3210.5156,1565.0156 Q3210.8281,1565.3125 3210.8281,1565.7188 Q3210.8281,1566.125 3210.4219,1566.5938 Q3209.8281,1567.2813 3208.8906,1567.6719 Q3207.625,1568.2031 3206.1094,1568.2031 Q3204.3281,1568.2031 3202.9063,1567.4688 Q3201.75,1566.875 3200.9375,1565.6094 Q3200.125,1564.3438 3200.125,1562.8594 L3200.125,1561.5 Q3200.125,1559.9375 3200.8438,1558.5938 Q3201.5781,1557.2344 3202.8594,1556.5 Q3204.1563,1555.7656 3205.6094,1555.7656 Q3206.4688,1555.7656 3207.2188,1555.9688 Q3207.9844,1556.1719 3208.6406,1556.5781 Z " fill="#000000"/><text fill="#000000" font-family="sans-serif" font-size="20" font-style="italic" lengthAdjust="spacing" textLength="128.9844" x="3219.5" y="1557.2617">&#171;value object&#187;</text><text fill="#000000" font-family="sans-serif" font-size="20" lengthAdjust="spacing" textLength="90.0586" x="3238.9629" y="1582.418">AreaCode</text><line style="stroke:#181818;stroke-width:0.5;" x1="3191.5" x2="3348.4844" y1="1591.8125" y2="1591.8125"/><text fill="#000000" font-family="sans-serif" font-size="20" lengthAdjust="spacing" textLength="43.3691" x="3196.5" y="1616.5742">code</text></g><g class="entity" data-qualified-name="AirControlArea_Aggregate.GMN5" data-source-line="14" id="ent0006"><path d="M3440.5,1560.5 L3440.5,1574 L3349.79,1578 L3440.5,1582 L3440.5,1595.6563 A0,0 0 0 0 3440.5,1595.6563 L3691.6074,1595.6563 A0,0 0 0 0 3691.6074,1595.6563 L3691.6074,1570.5 L3681.6074,1560.5 L3440.5,1560.5 A0,0 0 0 0 3440.5,1560.5" fill="#FEFFDD" style="stroke:#181818;stroke-width:0.5;"/><path d="M3681.6074,1560.5 L3681.6074,1570.5 L3691.6074,1570.5 L3681.6074,1560.5" fill="#FEFFDD" style="stroke:#181818;stroke-width:0.5;"/><text fill="#000000" font-family="sans-serif" font-size="20" lengthAdjust="spacing" textLength="230.1074" x="3446.5" y="1586.2617">unique in system (US050)</text></g><!--class Coordinates_ACA--><g class="entity" data-qualified-name="AirControlArea_Aggregate.Coordinates_ACA" data-source-line="15" id="ent0008"><rect fill="#F1F1F1" height="168.9375" rx="2.5" ry="2.5" style="stroke:#181818;stroke-width:0.5;" width="194.0879" x="3173" y="1322.5"/><ellipse cx="3189" cy="1352.6563" fill="#ADD1B2" rx="12" ry="12" style="stroke:#181818;stroke-width:1;"/><path d="M3191.1406,1347.5781 Q3191.3281,1347.3281 3191.5469,1347.2031 Q3191.7656,1347.0625 3192.0156,1347.0625 Q3192.4531,1347.0625 3192.7344,1347.375 Q3193.0156,1347.6719 3193.0156,1348.3906 L3193.0156,1350.0938 Q3193.0156,1350.8125 3192.7344,1351.125 Q3192.4531,1351.4375 3192.0156,1351.4375 Q3191.625,1351.4375 3191.375,1351.2031 Q3191.125,1350.9844 3191.0156,1350.375 Q3190.9531,1349.9531 3190.7344,1349.7344 Q3190.3438,1349.2969 3189.625,1349.0313 Q3188.9063,1348.7656 3188.1875,1348.7656 Q3187.2813,1348.7656 3186.5313,1349.1563 Q3185.7813,1349.5469 3185.2031,1350.4375 Q3184.625,1351.3125 3184.625,1352.5156 L3184.625,1353.8125 Q3184.625,1355.2656 3185.6719,1356.2344 Q3186.7344,1357.2031 3188.5938,1357.2031 Q3189.7031,1357.2031 3190.4844,1356.8906 Q3190.9219,1356.7188 3191.4375,1356.2031 Q3191.75,1355.8906 3191.9219,1355.7969 Q3192.0938,1355.7031 3192.3281,1355.7031 Q3192.7188,1355.7031 3193.0156,1356.0156 Q3193.3281,1356.3125 3193.3281,1356.7188 Q3193.3281,1357.125 3192.9219,1357.5938 Q3192.3281,1358.2813 3191.3906,1358.6719 Q3190.125,1359.2031 3188.6094,1359.2031 Q3186.8281,1359.2031 3185.4063,1358.4688 Q3184.25,1357.875 3183.4375,1356.6094 Q3182.625,1355.3438 3182.625,1353.8594 L3182.625,1352.5 Q3182.625,1350.9375 3183.3438,1349.5938 Q3184.0781,1348.2344 3185.3594,1347.5 Q3186.6563,1346.7656 3188.1094,1346.7656 Q3188.9688,1346.7656 3189.7188,1346.9688 Q3190.4844,1347.1719 3191.1406,1347.5781 Z " fill="#000000"/><text fill="#000000" font-family="sans-serif" font-size="20" font-style="italic" lengthAdjust="spacing" textLength="128.9844" x="3219.5518" y="1348.2617">&#171;value object&#187;</text><text fill="#000000" font-family="sans-serif" font-size="20" lengthAdjust="spacing" textLength="160.0879" x="3204" y="1373.418">Coordinates_ACA</text><line style="stroke:#181818;stroke-width:0.5;" x1="3174" x2="3366.0879" y1="1382.8125" y2="1382.8125"/><text fill="#000000" font-family="sans-serif" font-size="20" lengthAdjust="spacing" textLength="103.3984" x="3179" y="1407.5742">minLatitude</text><text fill="#000000" font-family="sans-serif" font-size="20" lengthAdjust="spacing" textLength="108.9551" x="3179" y="1432.7305">maxLatitude</text><text fill="#000000" font-family="sans-serif" font-size="20" lengthAdjust="spacing" textLength="120.0879" x="3179" y="1457.8867">minLongitude</text><text fill="#000000" font-family="sans-serif" font-size="20" lengthAdjust="spacing" textLength="125.6445" x="3179" y="1483.043">maxLongitude</text></g><g class="entity" data-qualified-name="AirControlArea_Aggregate.GMN9" data-source-line="21" id="ent0010"><path d="M3428,1364.5 L3428,1403 L3367.27,1407 L3428,1411 L3428,1449.9688 A0,0 0 0 0 3428,1449.9688 L3703.9512,1449.9688 A0,0 0 0 0 3703.9512,1449.9688 L3703.9512,1374.5 L3693.9512,1364.5 L3428,1364.5 A0,0 0 0 0 3428,1364.5" fill="#FEFFDD" style="stroke:#181818;stroke-width:0.5;"/><path d="M3693.9512,1364.5 L3693.9512,1374.5 L3703.9512,1374.5 L3693.9512,1364.5" fill="#FEFFDD" style="stroke:#181818;stroke-width:0.5;"/><text fill="#000000" font-family="sans-serif" font-size="20" lengthAdjust="spacing" textLength="184.5703" x="3434" y="1390.2617">Rectangle boundary.</text><text fill="#000000" font-family="sans-serif" font-size="20" lengthAdjust="spacing" textLength="254.9512" x="3434" y="1415.418">Client: "for sake of simplicity,</text><text fill="#000000" font-family="sans-serif" font-size="20" lengthAdjust="spacing" textLength="106.0547" x="3434" y="1440.5742">a rectangle"</text></g><!--class Airport--><g class="entity" data-qualified-name="Airport_Aggregate.Airport" data-source-line="28" id="ent0015"><rect fill="#F1F1F1" height="168.9375" rx="2.5" ry="2.5" style="stroke:#181818;stroke-width:0.5;" width="100.0488" x="1377" y="939.5"/><ellipse cx="1393" cy="982.2344" fill="#ADD1B2" rx="12" ry="12" style="stroke:#181818;stroke-width:1;"/><path d="M1395.1406,977.1563 Q1395.3281,976.9063 1395.5469,976.7813 Q1395.7656,976.6406 1396.0156,976.6406 Q1396.4531,976.6406 1396.7344,976.9531 Q1397.0156,977.25 1397.0156,977.9688 L1397.0156,979.6719 Q1397.0156,980.3906 1396.7344,980.7031 Q1396.4531,981.0156 1396.0156,981.0156 Q1395.625,981.0156 1395.375,980.7813 Q1395.125,980.5625 1395.0156,979.9531 Q1394.9531,979.5313 1394.7344,979.3125 Q1394.3438,978.875 1393.625,978.6094 Q1392.9063,978.3438 1392.1875,978.3438 Q1391.2813,978.3438 1390.5313,978.7344 Q1389.7813,979.125 1389.2031,980.0156 Q1388.625,980.8906 1388.625,982.0938 L1388.625,983.3906 Q1388.625,984.8438 1389.6719,985.8125 Q1390.7344,986.7813 1392.5938,986.7813 Q1393.7031,986.7813 1394.4844,986.4688 Q1394.9219,986.2969 1395.4375,985.7813 Q1395.75,985.4688 1395.9219,985.375 Q1396.0938,985.2813 1396.3281,985.2813 Q1396.7188,985.2813 1397.0156,985.5938 Q1397.3281,985.8906 1397.3281,986.2969 Q1397.3281,986.7031 1396.9219,987.1719 Q1396.3281,987.8594 1395.3906,988.25 Q1394.125,988.7813 1392.6094,988.7813 Q1390.8281,988.7813 1389.4063,988.0469 Q1388.25,987.4531 1387.4375,986.1875 Q1386.625,984.9219 1386.625,983.4375 L1386.625,982.0781 Q1386.625,980.5156 1387.3438,979.1719 Q1388.0781,977.8125 1389.3594,977.0781 Q1390.6563,976.3438 1392.1094,976.3438 Q1392.9688,976.3438 1393.7188,976.5469 Q1394.4844,976.75 1395.1406,977.1563 Z " fill="#000000"/><text fill="#000000" font-family="sans-serif" font-size="20" font-style="italic" lengthAdjust="spacing" textLength="70.0488" x="1406" y="965.2617">&#171;entity&#187;</text><text fill="#000000" font-family="sans-serif" font-size="20" font-style="italic" lengthAdjust="spacing" textLength="56.709" x="1412.6699" y="990.418">&#171;root&#187;</text><text fill="#000000" font-family="sans-serif" font-size="20" lengthAdjust="spacing" textLength="58.9063" x="1411.5713" y="1015.5742">Airport</text><line style="stroke:#181818;stroke-width:0.5;" x1="1378" x2="1476.0488" y1="1024.9688" y2="1024.9688"/><text fill="#000000" font-family="sans-serif" font-size="20" lengthAdjust="spacing" textLength="50.0293" x="1383" y="1049.7305">name</text><text fill="#000000" font-family="sans-serif" font-size="20" lengthAdjust="spacing" textLength="42.2461" x="1383" y="1074.8867">town</text><text fill="#000000" font-family="sans-serif" font-size="20" lengthAdjust="spacing" textLength="65.5859" x="1383" y="1100.043">country</text></g><!--class IATACode--><g class="entity" data-qualified-name="Airport_Aggregate.IATACode" data-source-line="33" id="ent0016"><rect fill="#F1F1F1" height="93.4688" rx="2.5" ry="2.5" style="stroke:#181818;stroke-width:0.5;" width="158.9844" x="1894" y="1110.5"/><ellipse cx="1910" cy="1140.6563" fill="#ADD1B2" rx="12" ry="12" style="stroke:#181818;stroke-width:1;"/><path d="M1912.1406,1135.5781 Q1912.3281,1135.3281 1912.5469,1135.2031 Q1912.7656,1135.0625 1913.0156,1135.0625 Q1913.4531,1135.0625 1913.7344,1135.375 Q1914.0156,1135.6719 1914.0156,1136.3906 L1914.0156,1138.0938 Q1914.0156,1138.8125 1913.7344,1139.125 Q1913.4531,1139.4375 1913.0156,1139.4375 Q1912.625,1139.4375 1912.375,1139.2031 Q1912.125,1138.9844 1912.0156,1138.375 Q1911.9531,1137.9531 1911.7344,1137.7344 Q1911.3438,1137.2969 1910.625,1137.0313 Q1909.9063,1136.7656 1909.1875,1136.7656 Q1908.2813,1136.7656 1907.5313,1137.1563 Q1906.7813,1137.5469 1906.2031,1138.4375 Q1905.625,1139.3125 1905.625,1140.5156 L1905.625,1141.8125 Q1905.625,1143.2656 1906.6719,1144.2344 Q1907.7344,1145.2031 1909.5938,1145.2031 Q1910.7031,1145.2031 1911.4844,1144.8906 Q1911.9219,1144.7188 1912.4375,1144.2031 Q1912.75,1143.8906 1912.9219,1143.7969 Q1913.0938,1143.7031 1913.3281,1143.7031 Q1913.7188,1143.7031 1914.0156,1144.0156 Q1914.3281,1144.3125 1914.3281,1144.7188 Q1914.3281,1145.125 1913.9219,1145.5938 Q1913.3281,1146.2813 1912.3906,1146.6719 Q1911.125,1147.2031 1909.6094,1147.2031 Q1907.8281,1147.2031 1906.4063,1146.4688 Q1905.25,1145.875 1904.4375,1144.6094 Q1903.625,1143.3438 1903.625,1141.8594 L1903.625,1140.5 Q1903.625,1138.9375 1904.3438,1137.5938 Q1905.0781,1136.2344 1906.3594,1135.5 Q1907.6563,1134.7656 1909.1094,1134.7656 Q1909.9688,1134.7656 1910.7188,1134.9688 Q1911.4844,1135.1719 1912.1406,1135.5781 Z " fill="#000000"/><text fill="#000000" font-family="sans-serif" font-size="20" font-style="italic" lengthAdjust="spacing" textLength="128.9844" x="1923" y="1136.2617">&#171;value object&#187;</text><text fill="#000000" font-family="sans-serif" font-size="20" lengthAdjust="spacing" textLength="92.2656" x="1941.3594" y="1161.418">IATACode</text><line style="stroke:#181818;stroke-width:0.5;" x1="1895" x2="2051.9844" y1="1170.8125" y2="1170.8125"/><text fill="#000000" font-family="sans-serif" font-size="20" lengthAdjust="spacing" textLength="43.3691" x="1900" y="1195.5742">code</text></g><!--class ICAOCode--><g class="entity" data-qualified-name="Airport_Aggregate.ICAOCode" data-source-line="36" id="ent0017"><rect fill="#F1F1F1" height="93.4688" rx="2.5" ry="2.5" style="stroke:#181818;stroke-width:0.5;" width="158.9844" x="1894" y="977.5"/><ellipse cx="1910" cy="1007.6563" fill="#ADD1B2" rx="12" ry="12" style="stroke:#181818;stroke-width:1;"/><path d="M1912.1406,1002.5781 Q1912.3281,1002.3281 1912.5469,1002.2031 Q1912.7656,1002.0625 1913.0156,1002.0625 Q1913.4531,1002.0625 1913.7344,1002.375 Q1914.0156,1002.6719 1914.0156,1003.3906 L1914.0156,1005.0938 Q1914.0156,1005.8125 1913.7344,1006.125 Q1913.4531,1006.4375 1913.0156,1006.4375 Q1912.625,1006.4375 1912.375,1006.2031 Q1912.125,1005.9844 1912.0156,1005.375 Q1911.9531,1004.9531 1911.7344,1004.7344 Q1911.3438,1004.2969 1910.625,1004.0313 Q1909.9063,1003.7656 1909.1875,1003.7656 Q1908.2813,1003.7656 1907.5313,1004.1563 Q1906.7813,1004.5469 1906.2031,1005.4375 Q1905.625,1006.3125 1905.625,1007.5156 L1905.625,1008.8125 Q1905.625,1010.2656 1906.6719,1011.2344 Q1907.7344,1012.2031 1909.5938,1012.2031 Q1910.7031,1012.2031 1911.4844,1011.8906 Q1911.9219,1011.7188 1912.4375,1011.2031 Q1912.75,1010.8906 1912.9219,1010.7969 Q1913.0938,1010.7031 1913.3281,1010.7031 Q1913.7188,1010.7031 1914.0156,1011.0156 Q1914.3281,1011.3125 1914.3281,1011.7188 Q1914.3281,1012.125 1913.9219,1012.5938 Q1913.3281,1013.2813 1912.3906,1013.6719 Q1911.125,1014.2031 1909.6094,1014.2031 Q1907.8281,1014.2031 1906.4063,1013.4688 Q1905.25,1012.875 1904.4375,1011.6094 Q1903.625,1010.3438 1903.625,1008.8594 L1903.625,1007.5 Q1903.625,1005.9375 1904.3438,1004.5938 Q1905.0781,1003.2344 1906.3594,1002.5 Q1907.6563,1001.7656 1909.1094,1001.7656 Q1909.9688,1001.7656 1910.7188,1001.9688 Q1911.4844,1002.1719 1912.1406,1002.5781 Z " fill="#000000"/><text fill="#000000" font-family="sans-serif" font-size="20" font-style="italic" lengthAdjust="spacing" textLength="128.9844" x="1923" y="1003.2617">&#171;value object&#187;</text><text fill="#000000" font-family="sans-serif" font-size="20" lengthAdjust="spacing" textLength="96.709" x="1939.1377" y="1028.418">ICAOCode</text><line style="stroke:#181818;stroke-width:0.5;" x1="1895" x2="2051.9844" y1="1037.8125" y2="1037.8125"/><text fill="#000000" font-family="sans-serif" font-size="20" lengthAdjust="spacing" textLength="43.3691" x="1900" y="1062.5742">code</text></g><!--class Coordinates_Apt--><g class="entity" data-qualified-name="Airport_Aggregate.Coordinates_Apt" data-source-line="39" id="ent0018"><rect fill="#F1F1F1" height="118.625" rx="2.5" ry="2.5" style="stroke:#181818;stroke-width:0.5;" width="182.9844" x="1882" y="818.5"/><ellipse cx="1898" cy="848.6563" fill="#ADD1B2" rx="12" ry="12" style="stroke:#181818;stroke-width:1;"/><path d="M1900.1406,843.5781 Q1900.3281,843.3281 1900.5469,843.2031 Q1900.7656,843.0625 1901.0156,843.0625 Q1901.4531,843.0625 1901.7344,843.375 Q1902.0156,843.6719 1902.0156,844.3906 L1902.0156,846.0938 Q1902.0156,846.8125 1901.7344,847.125 Q1901.4531,847.4375 1901.0156,847.4375 Q1900.625,847.4375 1900.375,847.2031 Q1900.125,846.9844 1900.0156,846.375 Q1899.9531,845.9531 1899.7344,845.7344 Q1899.3438,845.2969 1898.625,845.0313 Q1897.9063,844.7656 1897.1875,844.7656 Q1896.2813,844.7656 1895.5313,845.1563 Q1894.7813,845.5469 1894.2031,846.4375 Q1893.625,847.3125 1893.625,848.5156 L1893.625,849.8125 Q1893.625,851.2656 1894.6719,852.2344 Q1895.7344,853.2031 1897.5938,853.2031 Q1898.7031,853.2031 1899.4844,852.8906 Q1899.9219,852.7188 1900.4375,852.2031 Q1900.75,851.8906 1900.9219,851.7969 Q1901.0938,851.7031 1901.3281,851.7031 Q1901.7188,851.7031 1902.0156,852.0156 Q1902.3281,852.3125 1902.3281,852.7188 Q1902.3281,853.125 1901.9219,853.5938 Q1901.3281,854.2813 1900.3906,854.6719 Q1899.125,855.2031 1897.6094,855.2031 Q1895.8281,855.2031 1894.4063,854.4688 Q1893.25,853.875 1892.4375,852.6094 Q1891.625,851.3438 1891.625,849.8594 L1891.625,848.5 Q1891.625,846.9375 1892.3438,845.5938 Q1893.0781,844.2344 1894.3594,843.5 Q1895.6563,842.7656 1897.1094,842.7656 Q1897.9688,842.7656 1898.7188,842.9688 Q1899.4844,843.1719 1900.1406,843.5781 Z " fill="#000000"/><text fill="#000000" font-family="sans-serif" font-size="20" font-style="italic" lengthAdjust="spacing" textLength="128.9844" x="1923" y="844.2617">&#171;value object&#187;</text><text fill="#000000" font-family="sans-serif" font-size="20" lengthAdjust="spacing" textLength="148.9844" x="1913" y="869.418">Coordinates_Apt</text><line style="stroke:#181818;stroke-width:0.5;" x1="1883" x2="2063.9844" y1="878.8125" y2="878.8125"/><text fill="#000000" font-family="sans-serif" font-size="20" lengthAdjust="spacing" textLength="64.4922" x="1888" y="903.5742">latitude</text><text fill="#000000" font-family="sans-serif" font-size="20" lengthAdjust="spacing" textLength="81.1816" x="1888" y="928.7305">longitude</text></g><g class="entity" data-qualified-name="Airport_Aggregate.GMN19" data-source-line="43" id="ent0020"><path d="M2314,848 L2314,874 L2065.16,878 L2314,882 L2314,908.3125 A0,0 0 0 0 2314,908.3125 L2595.0879,908.3125 A0,0 0 0 0 2595.0879,908.3125 L2595.0879,858 L2585.0879,848 L2314,848 A0,0 0 0 0 2314,848" fill="#FEFFDD" style="stroke:#181818;stroke-width:0.5;"/><path d="M2585.0879,848 L2585.0879,858 L2595.0879,858 L2585.0879,848" fill="#FEFFDD" style="stroke:#181818;stroke-width:0.5;"/><text fill="#000000" font-family="sans-serif" font-size="20" lengthAdjust="spacing" textLength="107.8418" x="2320" y="873.7617">Coordinates</text><text fill="#000000" font-family="sans-serif" font-size="20" lengthAdjust="spacing" textLength="260.0879" x="2320" y="898.918">(same class as in Simulation)</text></g><!--class Elevation--><g class="entity" data-qualified-name="Airport_Aggregate.Elevation" data-source-line="44" id="ent0022"><rect fill="#F1F1F1" height="118.625" rx="2.5" ry="2.5" style="stroke:#181818;stroke-width:0.5;" width="158.9844" x="1894" y="659.5"/><ellipse cx="1910" cy="689.6563" fill="#ADD1B2" rx="12" ry="12" style="stroke:#181818;stroke-width:1;"/><path d="M1912.1406,684.5781 Q1912.3281,684.3281 1912.5469,684.2031 Q1912.7656,684.0625 1913.0156,684.0625 Q1913.4531,684.0625 1913.7344,684.375 Q1914.0156,684.6719 1914.0156,685.3906 L1914.0156,687.0938 Q1914.0156,687.8125 1913.7344,688.125 Q1913.4531,688.4375 1913.0156,688.4375 Q1912.625,688.4375 1912.375,688.2031 Q1912.125,687.9844 1912.0156,687.375 Q1911.9531,686.9531 1911.7344,686.7344 Q1911.3438,686.2969 1910.625,686.0313 Q1909.9063,685.7656 1909.1875,685.7656 Q1908.2813,685.7656 1907.5313,686.1563 Q1906.7813,686.5469 1906.2031,687.4375 Q1905.625,688.3125 1905.625,689.5156 L1905.625,690.8125 Q1905.625,692.2656 1906.6719,693.2344 Q1907.7344,694.2031 1909.5938,694.2031 Q1910.7031,694.2031 1911.4844,693.8906 Q1911.9219,693.7188 1912.4375,693.2031 Q1912.75,692.8906 1912.9219,692.7969 Q1913.0938,692.7031 1913.3281,692.7031 Q1913.7188,692.7031 1914.0156,693.0156 Q1914.3281,693.3125 1914.3281,693.7188 Q1914.3281,694.125 1913.9219,694.5938 Q1913.3281,695.2813 1912.3906,695.6719 Q1911.125,696.2031 1909.6094,696.2031 Q1907.8281,696.2031 1906.4063,695.4688 Q1905.25,694.875 1904.4375,693.6094 Q1903.625,692.3438 1903.625,690.8594 L1903.625,689.5 Q1903.625,687.9375 1904.3438,686.5938 Q1905.0781,685.2344 1906.3594,684.5 Q1907.6563,683.7656 1909.1094,683.7656 Q1909.9688,683.7656 1910.7188,683.9688 Q1911.4844,684.1719 1912.1406,684.5781 Z " fill="#000000"/><text fill="#000000" font-family="sans-serif" font-size="20" font-style="italic" lengthAdjust="spacing" textLength="128.9844" x="1923" y="685.2617">&#171;value object&#187;</text><text fill="#000000" font-family="sans-serif" font-size="20" lengthAdjust="spacing" textLength="82.2754" x="1946.3545" y="710.418">Elevation</text><line style="stroke:#181818;stroke-width:0.5;" x1="1895" x2="2051.9844" y1="719.8125" y2="719.8125"/><text fill="#000000" font-family="sans-serif" font-size="20" lengthAdjust="spacing" textLength="47.8125" x="1900" y="744.5742">value</text><text fill="#000000" font-family="sans-serif" font-size="20" lengthAdjust="spacing" textLength="32.2461" x="1900" y="769.7305">unit</text></g><g class="entity" data-qualified-name="Airport_Aggregate.GMN23" data-source-line="48" id="ent0024"><path d="M2301,701.5 L2301,715 L2053.06,719 L2301,723 L2301,736.6563 A0,0 0 0 0 2301,736.6563 L2607.6934,736.6563 A0,0 0 0 0 2607.6934,736.6563 L2607.6934,711.5 L2597.6934,701.5 L2301,701.5 A0,0 0 0 0 2301,701.5" fill="#FEFFDD" style="stroke:#181818;stroke-width:0.5;"/><path d="M2597.6934,701.5 L2597.6934,711.5 L2607.6934,711.5 L2597.6934,701.5" fill="#FEFFDD" style="stroke:#181818;stroke-width:0.5;"/><text fill="#000000" font-family="sans-serif" font-size="20" lengthAdjust="spacing" textLength="285.6934" x="2307" y="727.2617">metres above sea level (US052)</text></g><!--class Collaborator--><g class="entity" data-qualified-name="Collaborator_Aggregate.Collaborator" data-source-line="57" id="ent0031"><rect fill="#F1F1F1" height="143.7813" rx="2.5" ry="2.5" style="stroke:#181818;stroke-width:0.5;" width="142.9453" x="875" y="310"/><ellipse cx="891" cy="352.7344" fill="#A9DCDF" rx="12" ry="12" style="stroke:#181818;stroke-width:1;"/><path d="M893.4531,354.7656 L888.5781,354.7656 L888.0938,355.9844 L888.5781,355.9844 Q889.3125,355.9844 889.6094,356.2656 Q889.9219,356.5313 889.9219,356.9844 Q889.9219,357.4219 889.6094,357.7031 Q889.3125,357.9844 888.5781,357.9844 L885.8906,357.9844 Q885.1719,357.9844 884.8594,357.7031 Q884.5469,357.4219 884.5469,356.9844 Q884.5469,356.5313 884.875,356.25 Q885.2031,355.9688 885.9375,355.9844 L889.0781,348.1563 L887.7813,348.1563 Q887.0469,348.1563 886.7344,347.875 Q886.4375,347.5938 886.4375,347.1406 Q886.4375,346.6875 886.7344,346.4219 Q887.0469,346.1406 887.7813,346.1406 L892.0938,346.1406 L896.0781,355.9844 Q896.7813,355.9844 897.0156,356.1406 Q897.4688,356.4531 897.4688,356.9844 Q897.4688,357.4219 897.1563,357.7031 Q896.8594,357.9844 896.1406,357.9844 L893.4375,357.9844 Q892.7188,357.9844 892.4063,357.7031 Q892.0938,357.4219 892.0938,356.9844 Q892.0938,356.5313 892.4063,356.2656 Q892.7188,355.9844 893.4375,355.9844 L893.9219,355.9844 L893.4531,354.7656 Z M892.625,352.7656 L891,348.7969 L889.3906,352.7656 L892.625,352.7656 Z " fill="#000000"/><text fill="#000000" font-family="sans-serif" font-size="20" font-style="italic" lengthAdjust="spacing" textLength="70.0488" x="925.4482" y="335.7617">&#171;entity&#187;</text><text fill="#000000" font-family="sans-serif" font-size="20" font-style="italic" lengthAdjust="spacing" textLength="56.709" x="932.1182" y="360.918">&#171;root&#187;</text><text fill="#000000" font-family="sans-serif" font-size="20" font-style="italic" lengthAdjust="spacing" textLength="108.9453" x="906" y="386.0742">Collaborator</text><line style="stroke:#181818;stroke-width:0.5;" x1="876" x2="1016.9453" y1="395.4688" y2="395.4688"/><text fill="#000000" font-family="sans-serif" font-size="20" lengthAdjust="spacing" textLength="50.0293" x="881" y="420.2305">name</text><text fill="#000000" font-family="sans-serif" font-size="20" lengthAdjust="spacing" textLength="68.9355" x="881" y="445.3867">position</text></g><!--class ATCCollaborator--><g class="entity" data-qualified-name="Collaborator_Aggregate.ATCCollaborator" data-source-line="62" id="ent0032"><rect fill="#F1F1F1" height="60.3125" rx="2.5" ry="2.5" style="stroke:#181818;stroke-width:0.5;" width="182.9453" x="1335.5" y="490"/><ellipse cx="1351.5" cy="520.1563" fill="#ADD1B2" rx="12" ry="12" style="stroke:#181818;stroke-width:1;"/><path d="M1353.6406,515.0781 Q1353.8281,514.8281 1354.0469,514.7031 Q1354.2656,514.5625 1354.5156,514.5625 Q1354.9531,514.5625 1355.2344,514.875 Q1355.5156,515.1719 1355.5156,515.8906 L1355.5156,517.5938 Q1355.5156,518.3125 1355.2344,518.625 Q1354.9531,518.9375 1354.5156,518.9375 Q1354.125,518.9375 1353.875,518.7031 Q1353.625,518.4844 1353.5156,517.875 Q1353.4531,517.4531 1353.2344,517.2344 Q1352.8438,516.7969 1352.125,516.5313 Q1351.4063,516.2656 1350.6875,516.2656 Q1349.7813,516.2656 1349.0313,516.6563 Q1348.2813,517.0469 1347.7031,517.9375 Q1347.125,518.8125 1347.125,520.0156 L1347.125,521.3125 Q1347.125,522.7656 1348.1719,523.7344 Q1349.2344,524.7031 1351.0938,524.7031 Q1352.2031,524.7031 1352.9844,524.3906 Q1353.4219,524.2188 1353.9375,523.7031 Q1354.25,523.3906 1354.4219,523.2969 Q1354.5938,523.2031 1354.8281,523.2031 Q1355.2188,523.2031 1355.5156,523.5156 Q1355.8281,523.8125 1355.8281,524.2188 Q1355.8281,524.625 1355.4219,525.0938 Q1354.8281,525.7813 1353.8906,526.1719 Q1352.625,526.7031 1351.1094,526.7031 Q1349.3281,526.7031 1347.9063,525.9688 Q1346.75,525.375 1345.9375,524.1094 Q1345.125,522.8438 1345.125,521.3594 L1345.125,520 Q1345.125,518.4375 1345.8438,517.0938 Q1346.5781,515.7344 1347.8594,515 Q1349.1563,514.2656 1350.6094,514.2656 Q1351.4688,514.2656 1352.2188,514.4688 Q1352.9844,514.6719 1353.6406,515.0781 Z " fill="#000000"/><text fill="#000000" font-family="sans-serif" font-size="20" font-style="italic" lengthAdjust="spacing" textLength="70.0488" x="1405.9482" y="515.7617">&#171;entity&#187;</text><text fill="#000000" font-family="sans-serif" font-size="20" lengthAdjust="spacing" textLength="148.9453" x="1366.5" y="540.918">ATCCollaborator</text></g><!--class FlightControlOperator--><g class="entity" data-qualified-name="Collaborator_Aggregate.FlightControlOperator" data-source-line="64" id="ent0033"><rect fill="#F1F1F1" height="60.3125" rx="2.5" ry="2.5" style="stroke:#181818;stroke-width:0.5;" width="226.3047" x="1314" y="390"/><ellipse cx="1330" cy="420.1563" fill="#ADD1B2" rx="12" ry="12" style="stroke:#181818;stroke-width:1;"/><path d="M1332.1406,415.0781 Q1332.3281,414.8281 1332.5469,414.7031 Q1332.7656,414.5625 1333.0156,414.5625 Q1333.4531,414.5625 1333.7344,414.875 Q1334.0156,415.1719 1334.0156,415.8906 L1334.0156,417.5938 Q1334.0156,418.3125 1333.7344,418.625 Q1333.4531,418.9375 1333.0156,418.9375 Q1332.625,418.9375 1332.375,418.7031 Q1332.125,418.4844 1332.0156,417.875 Q1331.9531,417.4531 1331.7344,417.2344 Q1331.3438,416.7969 1330.625,416.5313 Q1329.9063,416.2656 1329.1875,416.2656 Q1328.2813,416.2656 1327.5313,416.6563 Q1326.7813,417.0469 1326.2031,417.9375 Q1325.625,418.8125 1325.625,420.0156 L1325.625,421.3125 Q1325.625,422.7656 1326.6719,423.7344 Q1327.7344,424.7031 1329.5938,424.7031 Q1330.7031,424.7031 1331.4844,424.3906 Q1331.9219,424.2188 1332.4375,423.7031 Q1332.75,423.3906 1332.9219,423.2969 Q1333.0938,423.2031 1333.3281,423.2031 Q1333.7188,423.2031 1334.0156,423.5156 Q1334.3281,423.8125 1334.3281,424.2188 Q1334.3281,424.625 1333.9219,425.0938 Q1333.3281,425.7813 1332.3906,426.1719 Q1331.125,426.7031 1329.6094,426.7031 Q1327.8281,426.7031 1326.4063,425.9688 Q1325.25,425.375 1324.4375,424.1094 Q1323.625,422.8438 1323.625,421.3594 L1323.625,420 Q1323.625,418.4375 1324.3438,417.0938 Q1325.0781,415.7344 1326.3594,415 Q1327.6563,414.2656 1329.1094,414.2656 Q1329.9688,414.2656 1330.7188,414.4688 Q1331.4844,414.6719 1332.1406,415.0781 Z " fill="#000000"/><text fill="#000000" font-family="sans-serif" font-size="20" font-style="italic" lengthAdjust="spacing" textLength="70.0488" x="1406.1279" y="415.7617">&#171;entity&#187;</text><text fill="#000000" font-family="sans-serif" font-size="20" lengthAdjust="spacing" textLength="192.3047" x="1345" y="440.918">FlightControlOperator</text></g><!--class WeatherPerson--><g class="entity" data-qualified-name="Collaborator_Aggregate.WeatherPerson" data-source-line="66" id="ent0034"><rect fill="#F1F1F1" height="60.3125" rx="2.5" ry="2.5" style="stroke:#181818;stroke-width:0.5;" width="172.9551" x="1340.5" y="290"/><ellipse cx="1356.5" cy="320.1563" fill="#ADD1B2" rx="12" ry="12" style="stroke:#181818;stroke-width:1;"/><path d="M1358.6406,315.0781 Q1358.8281,314.8281 1359.0469,314.7031 Q1359.2656,314.5625 1359.5156,314.5625 Q1359.9531,314.5625 1360.2344,314.875 Q1360.5156,315.1719 1360.5156,315.8906 L1360.5156,317.5938 Q1360.5156,318.3125 1360.2344,318.625 Q1359.9531,318.9375 1359.5156,318.9375 Q1359.125,318.9375 1358.875,318.7031 Q1358.625,318.4844 1358.5156,317.875 Q1358.4531,317.4531 1358.2344,317.2344 Q1357.8438,316.7969 1357.125,316.5313 Q1356.4063,316.2656 1355.6875,316.2656 Q1354.7813,316.2656 1354.0313,316.6563 Q1353.2813,317.0469 1352.7031,317.9375 Q1352.125,318.8125 1352.125,320.0156 L1352.125,321.3125 Q1352.125,322.7656 1353.1719,323.7344 Q1354.2344,324.7031 1356.0938,324.7031 Q1357.2031,324.7031 1357.9844,324.3906 Q1358.4219,324.2188 1358.9375,323.7031 Q1359.25,323.3906 1359.4219,323.2969 Q1359.5938,323.2031 1359.8281,323.2031 Q1360.2188,323.2031 1360.5156,323.5156 Q1360.8281,323.8125 1360.8281,324.2188 Q1360.8281,324.625 1360.4219,325.0938 Q1359.8281,325.7813 1358.8906,326.1719 Q1357.625,326.7031 1356.1094,326.7031 Q1354.3281,326.7031 1352.9063,325.9688 Q1351.75,325.375 1350.9375,324.1094 Q1350.125,322.8438 1350.125,321.3594 L1350.125,320 Q1350.125,318.4375 1350.8438,317.0938 Q1351.5781,315.7344 1352.8594,315 Q1354.1563,314.2656 1355.6094,314.2656 Q1356.4688,314.2656 1357.2188,314.4688 Q1357.9844,314.6719 1358.6406,315.0781 Z " fill="#000000"/><text fill="#000000" font-family="sans-serif" font-size="20" font-style="italic" lengthAdjust="spacing" textLength="70.0488" x="1405.9531" y="315.7617">&#171;entity&#187;</text><text fill="#000000" font-family="sans-serif" font-size="20" lengthAdjust="spacing" textLength="138.9551" x="1371.5" y="340.918">WeatherPerson</text></g><!--class SecurityClearance--><g class="entity" data-qualified-name="Collaborator_Aggregate.SecurityClearance" data-source-line="68" id="ent0035"><rect fill="#F1F1F1" height="93.4688" rx="2.5" ry="2.5" style="stroke:#181818;stroke-width:0.5;" width="197.4082" x="1875" y="209.5"/><ellipse cx="1891" cy="239.6563" fill="#ADD1B2" rx="12" ry="12" style="stroke:#181818;stroke-width:1;"/><path d="M1893.1406,234.5781 Q1893.3281,234.3281 1893.5469,234.2031 Q1893.7656,234.0625 1894.0156,234.0625 Q1894.4531,234.0625 1894.7344,234.375 Q1895.0156,234.6719 1895.0156,235.3906 L1895.0156,237.0938 Q1895.0156,237.8125 1894.7344,238.125 Q1894.4531,238.4375 1894.0156,238.4375 Q1893.625,238.4375 1893.375,238.2031 Q1893.125,237.9844 1893.0156,237.375 Q1892.9531,236.9531 1892.7344,236.7344 Q1892.3438,236.2969 1891.625,236.0313 Q1890.9063,235.7656 1890.1875,235.7656 Q1889.2813,235.7656 1888.5313,236.1563 Q1887.7813,236.5469 1887.2031,237.4375 Q1886.625,238.3125 1886.625,239.5156 L1886.625,240.8125 Q1886.625,242.2656 1887.6719,243.2344 Q1888.7344,244.2031 1890.5938,244.2031 Q1891.7031,244.2031 1892.4844,243.8906 Q1892.9219,243.7188 1893.4375,243.2031 Q1893.75,242.8906 1893.9219,242.7969 Q1894.0938,242.7031 1894.3281,242.7031 Q1894.7188,242.7031 1895.0156,243.0156 Q1895.3281,243.3125 1895.3281,243.7188 Q1895.3281,244.125 1894.9219,244.5938 Q1894.3281,245.2813 1893.3906,245.6719 Q1892.125,246.2031 1890.6094,246.2031 Q1888.8281,246.2031 1887.4063,245.4688 Q1886.25,244.875 1885.4375,243.6094 Q1884.625,242.3438 1884.625,240.8594 L1884.625,239.5 Q1884.625,237.9375 1885.3438,236.5938 Q1886.0781,235.2344 1887.3594,234.5 Q1888.6563,233.7656 1890.1094,233.7656 Q1890.9688,233.7656 1891.7188,233.9688 Q1892.4844,234.1719 1893.1406,234.5781 Z " fill="#000000"/><text fill="#000000" font-family="sans-serif" font-size="20" font-style="italic" lengthAdjust="spacing" textLength="128.9844" x="1923.2119" y="235.2617">&#171;value object&#187;</text><text fill="#000000" font-family="sans-serif" font-size="20" lengthAdjust="spacing" textLength="163.4082" x="1906" y="260.418">SecurityClearance</text><line style="stroke:#181818;stroke-width:0.5;" x1="1876" x2="2071.4082" y1="269.8125" y2="269.8125"/><text fill="#000000" font-family="sans-serif" font-size="20" lengthAdjust="spacing" textLength="95.5957" x="1881" y="294.5742">expiryDate</text></g><g class="entity" data-qualified-name="Collaborator_Aggregate.GMN36" data-source-line="71" id="ent0037"><path d="M2252,226 L2252,252 L2072.01,256 L2252,260 L2252,286.3125 A0,0 0 0 0 2252,286.3125 L2656.5254,286.3125 A0,0 0 0 0 2656.5254,286.3125 L2656.5254,236 L2646.5254,226 L2252,226 A0,0 0 0 0 2252,226" fill="#FEFFDD" style="stroke:#181818;stroke-width:0.5;"/><path d="M2646.5254,226 L2646.5254,236 L2656.5254,236 L2646.5254,226" fill="#FEFFDD" style="stroke:#181818;stroke-width:0.5;"/><text fill="#000000" font-family="sans-serif" font-size="20" lengthAdjust="spacing" textLength="115.6152" x="2258" y="251.7617">auto-expires.</text><text fill="#000000" font-family="sans-serif" font-size="20" lengthAdjust="spacing" textLength="383.5254" x="2258" y="276.918">Updatable by Admin/Backoffice (sec. 3.1.1)</text></g><!--class SkillsAssessment--><g class="entity" data-qualified-name="Collaborator_Aggregate.SkillsAssessment" data-source-line="72" id="ent0039"><rect fill="#F1F1F1" height="93.4688" rx="2.5" ry="2.5" style="stroke:#181818;stroke-width:0.5;" width="189.5957" x="1878.5" y="76.5"/><ellipse cx="1894.5" cy="106.6563" fill="#ADD1B2" rx="12" ry="12" style="stroke:#181818;stroke-width:1;"/><path d="M1896.6406,101.5781 Q1896.8281,101.3281 1897.0469,101.2031 Q1897.2656,101.0625 1897.5156,101.0625 Q1897.9531,101.0625 1898.2344,101.375 Q1898.5156,101.6719 1898.5156,102.3906 L1898.5156,104.0938 Q1898.5156,104.8125 1898.2344,105.125 Q1897.9531,105.4375 1897.5156,105.4375 Q1897.125,105.4375 1896.875,105.2031 Q1896.625,104.9844 1896.5156,104.375 Q1896.4531,103.9531 1896.2344,103.7344 Q1895.8438,103.2969 1895.125,103.0313 Q1894.4063,102.7656 1893.6875,102.7656 Q1892.7813,102.7656 1892.0313,103.1563 Q1891.2813,103.5469 1890.7031,104.4375 Q1890.125,105.3125 1890.125,106.5156 L1890.125,107.8125 Q1890.125,109.2656 1891.1719,110.2344 Q1892.2344,111.2031 1894.0938,111.2031 Q1895.2031,111.2031 1895.9844,110.8906 Q1896.4219,110.7188 1896.9375,110.2031 Q1897.25,109.8906 1897.4219,109.7969 Q1897.5938,109.7031 1897.8281,109.7031 Q1898.2188,109.7031 1898.5156,110.0156 Q1898.8281,110.3125 1898.8281,110.7188 Q1898.8281,111.125 1898.4219,111.5938 Q1897.8281,112.2813 1896.8906,112.6719 Q1895.625,113.2031 1894.1094,113.2031 Q1892.3281,113.2031 1890.9063,112.4688 Q1889.75,111.875 1888.9375,110.6094 Q1888.125,109.3438 1888.125,107.8594 L1888.125,106.5 Q1888.125,104.9375 1888.8438,103.5938 Q1889.5781,102.2344 1890.8594,101.5 Q1892.1563,100.7656 1893.6094,100.7656 Q1894.4688,100.7656 1895.2188,100.9688 Q1895.9844,101.1719 1896.6406,101.5781 Z " fill="#000000"/><text fill="#000000" font-family="sans-serif" font-size="20" font-style="italic" lengthAdjust="spacing" textLength="128.9844" x="1922.8057" y="102.2617">&#171;value object&#187;</text><text fill="#000000" font-family="sans-serif" font-size="20" lengthAdjust="spacing" textLength="155.5957" x="1909.5" y="127.418">SkillsAssessment</text><line style="stroke:#181818;stroke-width:0.5;" x1="1879.5" x2="2067.0957" y1="136.8125" y2="136.8125"/><text fill="#000000" font-family="sans-serif" font-size="20" lengthAdjust="spacing" textLength="148.9551" x="1884.5" y="161.5742">assessmentDate</text></g><g class="entity" data-qualified-name="Collaborator_Aggregate.GMN40" data-source-line="75" id="ent0041"><path d="M2290.5,105.5 L2290.5,119 L2068.56,123 L2290.5,127 L2290.5,140.6563 A0,0 0 0 0 2290.5,140.6563 L2618.2969,140.6563 A0,0 0 0 0 2618.2969,140.6563 L2618.2969,115.5 L2608.2969,105.5 L2290.5,105.5 A0,0 0 0 0 2290.5,105.5" fill="#FEFFDD" style="stroke:#181818;stroke-width:0.5;"/><path d="M2608.2969,105.5 L2608.2969,115.5 L2618.2969,115.5 L2608.2969,105.5" fill="#FEFFDD" style="stroke:#181818;stroke-width:0.5;"/><text fill="#000000" font-family="sans-serif" font-size="20" lengthAdjust="spacing" textLength="306.7969" x="2296.5" y="131.2617">periodic, every 5 years (sec. 3.1.1)</text></g><!--class SystemUser--><g class="entity" data-qualified-name="Collaborator_Aggregate.SystemUser" data-source-line="76" id="ent0043"><rect fill="#F1F1F1" height="60.3125" rx="2.5" ry="2.5" style="stroke:#181818;stroke-width:0.5;" width="142.9063" x="875" y="183"/><ellipse cx="891" cy="213.1563" fill="#ADD1B2" rx="12" ry="12" style="stroke:#181818;stroke-width:1;"/><path d="M893.1406,208.0781 Q893.3281,207.8281 893.5469,207.7031 Q893.7656,207.5625 894.0156,207.5625 Q894.4531,207.5625 894.7344,207.875 Q895.0156,208.1719 895.0156,208.8906 L895.0156,210.5938 Q895.0156,211.3125 894.7344,211.625 Q894.4531,211.9375 894.0156,211.9375 Q893.625,211.9375 893.375,211.7031 Q893.125,211.4844 893.0156,210.875 Q892.9531,210.4531 892.7344,210.2344 Q892.3438,209.7969 891.625,209.5313 Q890.9063,209.2656 890.1875,209.2656 Q889.2813,209.2656 888.5313,209.6563 Q887.7813,210.0469 887.2031,210.9375 Q886.625,211.8125 886.625,213.0156 L886.625,214.3125 Q886.625,215.7656 887.6719,216.7344 Q888.7344,217.7031 890.5938,217.7031 Q891.7031,217.7031 892.4844,217.3906 Q892.9219,217.2188 893.4375,216.7031 Q893.75,216.3906 893.9219,216.2969 Q894.0938,216.2031 894.3281,216.2031 Q894.7188,216.2031 895.0156,216.5156 Q895.3281,216.8125 895.3281,217.2188 Q895.3281,217.625 894.9219,218.0938 Q894.3281,218.7813 893.3906,219.1719 Q892.125,219.7031 890.6094,219.7031 Q888.8281,219.7031 887.4063,218.9688 Q886.25,218.375 885.4375,217.1094 Q884.625,215.8438 884.625,214.3594 L884.625,213 Q884.625,211.4375 885.3438,210.0938 Q886.0781,208.7344 887.3594,208 Q888.6563,207.2656 890.1094,207.2656 Q890.9688,207.2656 891.7188,207.4688 Q892.4844,207.6719 893.1406,208.0781 Z " fill="#000000"/><text fill="#000000" font-family="sans-serif" font-size="20" font-style="italic" lengthAdjust="spacing" textLength="70.0488" x="925.4287" y="208.7617">&#171;entity&#187;</text><text fill="#000000" font-family="sans-serif" font-size="20" lengthAdjust="spacing" textLength="108.9063" x="906" y="233.918">SystemUser</text></g><g class="entity" data-qualified-name="Collaborator_Aggregate.GMN44" data-source-line="78" id="ent0045"><path d="M23,170.5 L23,255.9688 A0,0 0 0 0 23,255.9688 L647.6328,255.9688 A0,0 0 0 0 647.6328,255.9688 L647.6328,217 L874.72,213 L647.6328,209 L647.6328,180.5 L637.6328,170.5 L23,170.5 A0,0 0 0 0 23,170.5" fill="#FEFFDD" style="stroke:#181818;stroke-width:0.5;"/><path d="M637.6328,170.5 L637.6328,180.5 L647.6328,180.5 L637.6328,170.5" fill="#FEFFDD" style="stroke:#181818;stroke-width:0.5;"/><text fill="#000000" font-family="sans-serif" font-size="20" lengthAdjust="spacing" textLength="250.1172" x="29" y="196.2617">EAPLI framework boundary.</text><text fill="#000000" font-family="sans-serif" font-size="20" lengthAdjust="spacing" textLength="603.6328" x="29" y="221.418">Stores: email (unique, sec. 3.1.1), name, phoneNumber (sec. 3.1.1).</text><text fill="#000000" font-family="sans-serif" font-size="20" lengthAdjust="spacing" textLength="383.5352" x="29" y="246.5742">Internal details managed by the framework.</text></g><!--class WeatherData--><g class="entity" data-qualified-name="WeatherData_Aggregate.WeatherData" data-source-line="89" id="ent0054"><rect fill="#F1F1F1" height="143.7813" rx="2.5" ry="2.5" style="stroke:#181818;stroke-width:0.5;" width="177.625" x="1338" y="2016"/><ellipse cx="1365.6068" cy="2058.7344" fill="#ADD1B2" rx="12" ry="12" style="stroke:#181818;stroke-width:1;"/><path d="M1367.7475,2053.6563 Q1367.935,2053.4063 1368.1537,2053.2813 Q1368.3725,2053.1406 1368.6225,2053.1406 Q1369.06,2053.1406 1369.3412,2053.4531 Q1369.6225,2053.75 1369.6225,2054.4688 L1369.6225,2056.1719 Q1369.6225,2056.8906 1369.3412,2057.2031 Q1369.06,2057.5156 1368.6225,2057.5156 Q1368.2318,2057.5156 1367.9818,2057.2813 Q1367.7318,2057.0625 1367.6225,2056.4531 Q1367.56,2056.0313 1367.3412,2055.8125 Q1366.9506,2055.375 1366.2318,2055.1094 Q1365.5131,2054.8438 1364.7943,2054.8438 Q1363.8881,2054.8438 1363.1381,2055.2344 Q1362.3881,2055.625 1361.81,2056.5156 Q1361.2318,2057.3906 1361.2318,2058.5938 L1361.2318,2059.8906 Q1361.2318,2061.3438 1362.2787,2062.3125 Q1363.3412,2063.2813 1365.2006,2063.2813 Q1366.31,2063.2813 1367.0912,2062.9688 Q1367.5287,2062.7969 1368.0443,2062.2813 Q1368.3568,2061.9688 1368.5287,2061.875 Q1368.7006,2061.7813 1368.935,2061.7813 Q1369.3256,2061.7813 1369.6225,2062.0938 Q1369.935,2062.3906 1369.935,2062.7969 Q1369.935,2063.2031 1369.5287,2063.6719 Q1368.935,2064.3594 1367.9975,2064.75 Q1366.7318,2065.2813 1365.2162,2065.2813 Q1363.435,2065.2813 1362.0131,2064.5469 Q1360.8568,2063.9531 1360.0443,2062.6875 Q1359.2318,2061.4219 1359.2318,2059.9375 L1359.2318,2058.5781 Q1359.2318,2057.0156 1359.9506,2055.6719 Q1360.685,2054.3125 1361.9662,2053.5781 Q1363.2631,2052.8438 1364.7162,2052.8438 Q1365.5756,2052.8438 1366.3256,2053.0469 Q1367.0912,2053.25 1367.7475,2053.6563 Z " fill="#000000"/><text fill="#000000" font-family="sans-serif" font-size="20" font-style="italic" lengthAdjust="spacing" textLength="70.0488" x="1407.0777" y="2041.7617">&#171;entity&#187;</text><text fill="#000000" font-family="sans-serif" font-size="20" font-style="italic" lengthAdjust="spacing" textLength="56.709" x="1413.7477" y="2066.918">&#171;root&#187;</text><text fill="#000000" font-family="sans-serif" font-size="20" lengthAdjust="spacing" textLength="117.832" x="1383.1861" y="2092.0742">WeatherData</text><line style="stroke:#181818;stroke-width:0.5;" x1="1339" x2="1514.625" y1="2101.4688" y2="2101.4688"/><text fill="#000000" font-family="sans-serif" font-size="20" lengthAdjust="spacing" textLength="165.625" x="1344" y="2126.2305">recordedDateTime</text><text fill="#000000" font-family="sans-serif" font-size="20" lengthAdjust="spacing" textLength="134.502" x="1344" y="2151.3867">sourceProvider</text></g><g class="entity" data-qualified-name="WeatherData_Aggregate.GMN55" data-source-line="93" id="ent0056"><path d="M1840,2176 L1840,2176 L1516.09,2107.09 L1840,2184 L1840,2236.3125 A0,0 0 0 0 1840,2236.3125 L2107.1133,2236.3125 A0,0 0 0 0 2107.1133,2236.3125 L2107.1133,2186 L2097.1133,2176 L1840,2176 A0,0 0 0 0 1840,2176" fill="#FEFFDD" style="stroke:#181818;stroke-width:0.5;"/><path d="M2097.1133,2176 L2097.1133,2186 L2107.1133,2186 L2097.1133,2176" fill="#FEFFDD" style="stroke:#181818;stroke-width:0.5;"/><text fill="#000000" font-family="sans-serif" font-size="20" lengthAdjust="spacing" textLength="246.1133" x="1846" y="2201.7617">US042: "data might be from</text><text fill="#000000" font-family="sans-serif" font-size="20" lengthAdjust="spacing" textLength="240.5371" x="1846" y="2226.918">multiple external providers"</text></g><!--class WindCondition--><g class="entity" data-qualified-name="WeatherData_Aggregate.WindCondition" data-source-line="94" id="ent0058"><rect fill="#F1F1F1" height="118.625" rx="2.5" ry="2.5" style="stroke:#181818;stroke-width:0.5;" width="164.0684" x="1891.5" y="2016.5"/><ellipse cx="1907.5" cy="2046.6563" fill="#ADD1B2" rx="12" ry="12" style="stroke:#181818;stroke-width:1;"/><path d="M1909.6406,2041.5781 Q1909.8281,2041.3281 1910.0469,2041.2031 Q1910.2656,2041.0625 1910.5156,2041.0625 Q1910.9531,2041.0625 1911.2344,2041.375 Q1911.5156,2041.6719 1911.5156,2042.3906 L1911.5156,2044.0938 Q1911.5156,2044.8125 1911.2344,2045.125 Q1910.9531,2045.4375 1910.5156,2045.4375 Q1910.125,2045.4375 1909.875,2045.2031 Q1909.625,2044.9844 1909.5156,2044.375 Q1909.4531,2043.9531 1909.2344,2043.7344 Q1908.8438,2043.2969 1908.125,2043.0313 Q1907.4063,2042.7656 1906.6875,2042.7656 Q1905.7813,2042.7656 1905.0313,2043.1563 Q1904.2813,2043.5469 1903.7031,2044.4375 Q1903.125,2045.3125 1903.125,2046.5156 L1903.125,2047.8125 Q1903.125,2049.2656 1904.1719,2050.2344 Q1905.2344,2051.2031 1907.0938,2051.2031 Q1908.2031,2051.2031 1908.9844,2050.8906 Q1909.4219,2050.7188 1909.9375,2050.2031 Q1910.25,2049.8906 1910.4219,2049.7969 Q1910.5938,2049.7031 1910.8281,2049.7031 Q1911.2188,2049.7031 1911.5156,2050.0156 Q1911.8281,2050.3125 1911.8281,2050.7188 Q1911.8281,2051.125 1911.4219,2051.5938 Q1910.8281,2052.2813 1909.8906,2052.6719 Q1908.625,2053.2031 1907.1094,2053.2031 Q1905.3281,2053.2031 1903.9063,2052.4688 Q1902.75,2051.875 1901.9375,2050.6094 Q1901.125,2049.3438 1901.125,2047.8594 L1901.125,2046.5 Q1901.125,2044.9375 1901.8438,2043.5938 Q1902.5781,2042.2344 1903.8594,2041.5 Q1905.1563,2040.7656 1906.6094,2040.7656 Q1907.4688,2040.7656 1908.2188,2040.9688 Q1908.9844,2041.1719 1909.6406,2041.5781 Z " fill="#000000"/><text fill="#000000" font-family="sans-serif" font-size="20" font-style="italic" lengthAdjust="spacing" textLength="128.9844" x="1923.042" y="2042.2617">&#171;value object&#187;</text><text fill="#000000" font-family="sans-serif" font-size="20" lengthAdjust="spacing" textLength="130.0684" x="1922.5" y="2067.418">WindCondition</text><line style="stroke:#181818;stroke-width:0.5;" x1="1892.5" x2="2054.5684" y1="2076.8125" y2="2076.8125"/><text fill="#000000" font-family="sans-serif" font-size="20" lengthAdjust="spacing" textLength="126.748" x="1897.5" y="2101.5742">directionAngle</text><text fill="#000000" font-family="sans-serif" font-size="20" lengthAdjust="spacing" textLength="54.4922" x="1897.5" y="2126.7305">speed</text></g><!--class Coordinates_WD--><g class="entity" data-qualified-name="WeatherData_Aggregate.Coordinates_WD" data-source-line="98" id="ent0059"><rect fill="#F1F1F1" height="118.625" rx="2.5" ry="2.5" style="stroke:#181818;stroke-width:0.5;" width="186.2852" x="2361.5" y="2016.5"/><ellipse cx="2377.5" cy="2046.6563" fill="#ADD1B2" rx="12" ry="12" style="stroke:#181818;stroke-width:1;"/><path d="M2379.6406,2041.5781 Q2379.8281,2041.3281 2380.0469,2041.2031 Q2380.2656,2041.0625 2380.5156,2041.0625 Q2380.9531,2041.0625 2381.2344,2041.375 Q2381.5156,2041.6719 2381.5156,2042.3906 L2381.5156,2044.0938 Q2381.5156,2044.8125 2381.2344,2045.125 Q2380.9531,2045.4375 2380.5156,2045.4375 Q2380.125,2045.4375 2379.875,2045.2031 Q2379.625,2044.9844 2379.5156,2044.375 Q2379.4531,2043.9531 2379.2344,2043.7344 Q2378.8438,2043.2969 2378.125,2043.0313 Q2377.4063,2042.7656 2376.6875,2042.7656 Q2375.7813,2042.7656 2375.0313,2043.1563 Q2374.2813,2043.5469 2373.7031,2044.4375 Q2373.125,2045.3125 2373.125,2046.5156 L2373.125,2047.8125 Q2373.125,2049.2656 2374.1719,2050.2344 Q2375.2344,2051.2031 2377.0938,2051.2031 Q2378.2031,2051.2031 2378.9844,2050.8906 Q2379.4219,2050.7188 2379.9375,2050.2031 Q2380.25,2049.8906 2380.4219,2049.7969 Q2380.5938,2049.7031 2380.8281,2049.7031 Q2381.2188,2049.7031 2381.5156,2050.0156 Q2381.8281,2050.3125 2381.8281,2050.7188 Q2381.8281,2051.125 2381.4219,2051.5938 Q2380.8281,2052.2813 2379.8906,2052.6719 Q2378.625,2053.2031 2377.1094,2053.2031 Q2375.3281,2053.2031 2373.9063,2052.4688 Q2372.75,2051.875 2371.9375,2050.6094 Q2371.125,2049.3438 2371.125,2047.8594 L2371.125,2046.5 Q2371.125,2044.9375 2371.8438,2043.5938 Q2372.5781,2042.2344 2373.8594,2041.5 Q2375.1563,2040.7656 2376.6094,2040.7656 Q2377.4688,2040.7656 2378.2188,2040.9688 Q2378.9844,2041.1719 2379.6406,2041.5781 Z " fill="#000000"/><text fill="#000000" font-family="sans-serif" font-size="20" font-style="italic" lengthAdjust="spacing" textLength="128.9844" x="2404.1504" y="2042.2617">&#171;value object&#187;</text><text fill="#000000" font-family="sans-serif" font-size="20" lengthAdjust="spacing" textLength="152.2852" x="2392.5" y="2067.418">Coordinates_WD</text><line style="stroke:#181818;stroke-width:0.5;" x1="2362.5" x2="2546.7852" y1="2076.8125" y2="2076.8125"/><text fill="#000000" font-family="sans-serif" font-size="20" lengthAdjust="spacing" textLength="64.4922" x="2367.5" y="2101.5742">latitude</text><text fill="#000000" font-family="sans-serif" font-size="20" lengthAdjust="spacing" textLength="81.1816" x="2367.5" y="2126.7305">longitude</text></g><g class="entity" data-qualified-name="WeatherData_Aggregate.GMN60" data-source-line="102" id="ent0061"><path d="M2824,2020.5 L2824,2072 L2547.65,2076 L2824,2080 L2824,2131.125 A0,0 0 0 0 2824,2131.125 L3110.0098,2131.125 A0,0 0 0 0 3110.0098,2131.125 L3110.0098,2030.5 L3100.0098,2020.5 L2824,2020.5 A0,0 0 0 0 2824,2020.5" fill="#FEFFDD" style="stroke:#181818;stroke-width:0.5;"/><path d="M3100.0098,2020.5 L3100.0098,2030.5 L3110.0098,2030.5 L3100.0098,2020.5" fill="#FEFFDD" style="stroke:#181818;stroke-width:0.5;"/><text fill="#000000" font-family="sans-serif" font-size="20" lengthAdjust="spacing" textLength="246.7676" x="2830" y="2046.2617">Coordinates (same class as</text><text fill="#000000" font-family="sans-serif" font-size="20" lengthAdjust="spacing" textLength="230.1074" x="2830" y="2071.418">in Airport and Simulation).</text><text fill="#000000" font-family="sans-serif" font-size="20" lengthAdjust="spacing" textLength="228.3105" x="2830" y="2096.5742">Carries location: "weather</text><text fill="#000000" font-family="sans-serif" font-size="20" lengthAdjust="spacing" textLength="265.0098" x="2830" y="2121.7305">not same everywhere in area"</text></g><!--class Simulation--><g class="entity" data-qualified-name="Simulation_Aggregate.Simulation" data-source-line="109" id="ent0066"><rect fill="#F1F1F1" height="85.4688" rx="2.5" ry="2.5" style="stroke:#181818;stroke-width:0.5;" width="127.3789" x="272" y="1582.5"/><ellipse cx="288" cy="1625.2344" fill="#ADD1B2" rx="12" ry="12" style="stroke:#181818;stroke-width:1;"/><path d="M290.1406,1620.1563 Q290.3281,1619.9063 290.5469,1619.7813 Q290.7656,1619.6406 291.0156,1619.6406 Q291.4531,1619.6406 291.7344,1619.9531 Q292.0156,1620.25 292.0156,1620.9688 L292.0156,1622.6719 Q292.0156,1623.3906 291.7344,1623.7031 Q291.4531,1624.0156 291.0156,1624.0156 Q290.625,1624.0156 290.375,1623.7813 Q290.125,1623.5625 290.0156,1622.9531 Q289.9531,1622.5313 289.7344,1622.3125 Q289.3438,1621.875 288.625,1621.6094 Q287.9063,1621.3438 287.1875,1621.3438 Q286.2813,1621.3438 285.5313,1621.7344 Q284.7813,1622.125 284.2031,1623.0156 Q283.625,1623.8906 283.625,1625.0938 L283.625,1626.3906 Q283.625,1627.8438 284.6719,1628.8125 Q285.7344,1629.7813 287.5938,1629.7813 Q288.7031,1629.7813 289.4844,1629.4688 Q289.9219,1629.2969 290.4375,1628.7813 Q290.75,1628.4688 290.9219,1628.375 Q291.0938,1628.2813 291.3281,1628.2813 Q291.7188,1628.2813 292.0156,1628.5938 Q292.3281,1628.8906 292.3281,1629.2969 Q292.3281,1629.7031 291.9219,1630.1719 Q291.3281,1630.8594 290.3906,1631.25 Q289.125,1631.7813 287.6094,1631.7813 Q285.8281,1631.7813 284.4063,1631.0469 Q283.25,1630.4531 282.4375,1629.1875 Q281.625,1627.9219 281.625,1626.4375 L281.625,1625.0781 Q281.625,1623.5156 282.3438,1622.1719 Q283.0781,1620.8125 284.3594,1620.0781 Q285.6563,1619.3438 287.1094,1619.3438 Q287.9688,1619.3438 288.7188,1619.5469 Q289.4844,1619.75 290.1406,1620.1563 Z " fill="#000000"/><text fill="#000000" font-family="sans-serif" font-size="20" font-style="italic" lengthAdjust="spacing" textLength="70.0488" x="314.665" y="1608.2617">&#171;entity&#187;</text><text fill="#000000" font-family="sans-serif" font-size="20" font-style="italic" lengthAdjust="spacing" textLength="56.709" x="321.335" y="1633.418">&#171;root&#187;</text><text fill="#000000" font-family="sans-serif" font-size="20" lengthAdjust="spacing" textLength="93.3789" x="303" y="1658.5742">Simulation</text></g><!--class SimulationTimeRange--><g class="entity" data-qualified-name="Simulation_Aggregate.SimulationTimeRange" data-source-line="111" id="ent0067"><rect fill="#F1F1F1" height="118.625" rx="2.5" ry="2.5" style="stroke:#181818;stroke-width:0.5;" width="230.7578" x="831" y="1787.5"/><ellipse cx="847" cy="1817.6563" fill="#ADD1B2" rx="12" ry="12" style="stroke:#181818;stroke-width:1;"/><path d="M849.1406,1812.5781 Q849.3281,1812.3281 849.5469,1812.2031 Q849.7656,1812.0625 850.0156,1812.0625 Q850.4531,1812.0625 850.7344,1812.375 Q851.0156,1812.6719 851.0156,1813.3906 L851.0156,1815.0938 Q851.0156,1815.8125 850.7344,1816.125 Q850.4531,1816.4375 850.0156,1816.4375 Q849.625,1816.4375 849.375,1816.2031 Q849.125,1815.9844 849.0156,1815.375 Q848.9531,1814.9531 848.7344,1814.7344 Q848.3438,1814.2969 847.625,1814.0313 Q846.9063,1813.7656 846.1875,1813.7656 Q845.2813,1813.7656 844.5313,1814.1563 Q843.7813,1814.5469 843.2031,1815.4375 Q842.625,1816.3125 842.625,1817.5156 L842.625,1818.8125 Q842.625,1820.2656 843.6719,1821.2344 Q844.7344,1822.2031 846.5938,1822.2031 Q847.7031,1822.2031 848.4844,1821.8906 Q848.9219,1821.7188 849.4375,1821.2031 Q849.75,1820.8906 849.9219,1820.7969 Q850.0938,1820.7031 850.3281,1820.7031 Q850.7188,1820.7031 851.0156,1821.0156 Q851.3281,1821.3125 851.3281,1821.7188 Q851.3281,1822.125 850.9219,1822.5938 Q850.3281,1823.2813 849.3906,1823.6719 Q848.125,1824.2031 846.6094,1824.2031 Q844.8281,1824.2031 843.4063,1823.4688 Q842.25,1822.875 841.4375,1821.6094 Q840.625,1820.3438 840.625,1818.8594 L840.625,1817.5 Q840.625,1815.9375 841.3438,1814.5938 Q842.0781,1813.2344 843.3594,1812.5 Q844.6563,1811.7656 846.1094,1811.7656 Q846.9688,1811.7656 847.7188,1811.9688 Q848.4844,1812.1719 849.1406,1812.5781 Z " fill="#000000"/><text fill="#000000" font-family="sans-serif" font-size="20" font-style="italic" lengthAdjust="spacing" textLength="128.9844" x="895.8867" y="1813.2617">&#171;value object&#187;</text><text fill="#000000" font-family="sans-serif" font-size="20" lengthAdjust="spacing" textLength="196.7578" x="862" y="1838.418">SimulationTimeRange</text><line style="stroke:#181818;stroke-width:0.5;" x1="832" x2="1060.7578" y1="1847.8125" y2="1847.8125"/><text fill="#000000" font-family="sans-serif" font-size="20" lengthAdjust="spacing" textLength="125.5859" x="837" y="1872.5742">startDateTime</text><text fill="#000000" font-family="sans-serif" font-size="20" lengthAdjust="spacing" textLength="120.0586" x="837" y="1897.7305">endDateTime</text></g><g class="entity" data-qualified-name="Simulation_Aggregate.GMN68" data-source-line="115" id="ent0069"><path d="M1285,1829.5 L1285,1843 L1062.11,1847 L1285,1851 L1285,1864.6563 A0,0 0 0 0 1285,1864.6563 L1568.9102,1864.6563 A0,0 0 0 0 1568.9102,1864.6563 L1568.9102,1839.5 L1558.9102,1829.5 L1285,1829.5 A0,0 0 0 0 1285,1829.5" fill="#FEFFDD" style="stroke:#181818;stroke-width:0.5;"/><path d="M1558.9102,1829.5 L1558.9102,1839.5 L1568.9102,1839.5 L1558.9102,1829.5" fill="#FEFFDD" style="stroke:#181818;stroke-width:0.5;"/><text fill="#000000" font-family="sans-serif" font-size="20" lengthAdjust="spacing" textLength="262.9102" x="1291" y="1855.2617">Invariant: start &lt; end (US100)</text></g><!--class SafetyThreshold--><g class="entity" data-qualified-name="Simulation_Aggregate.SafetyThreshold" data-source-line="116" id="ent0071"><rect fill="#F1F1F1" height="118.625" rx="2.5" ry="2.5" style="stroke:#181818;stroke-width:0.5;" width="179.6348" x="856.5" y="1628.5"/><ellipse cx="872.5" cy="1658.6563" fill="#ADD1B2" rx="12" ry="12" style="stroke:#181818;stroke-width:1;"/><path d="M874.6406,1653.5781 Q874.8281,1653.3281 875.0469,1653.2031 Q875.2656,1653.0625 875.5156,1653.0625 Q875.9531,1653.0625 876.2344,1653.375 Q876.5156,1653.6719 876.5156,1654.3906 L876.5156,1656.0938 Q876.5156,1656.8125 876.2344,1657.125 Q875.9531,1657.4375 875.5156,1657.4375 Q875.125,1657.4375 874.875,1657.2031 Q874.625,1656.9844 874.5156,1656.375 Q874.4531,1655.9531 874.2344,1655.7344 Q873.8438,1655.2969 873.125,1655.0313 Q872.4063,1654.7656 871.6875,1654.7656 Q870.7813,1654.7656 870.0313,1655.1563 Q869.2813,1655.5469 868.7031,1656.4375 Q868.125,1657.3125 868.125,1658.5156 L868.125,1659.8125 Q868.125,1661.2656 869.1719,1662.2344 Q870.2344,1663.2031 872.0938,1663.2031 Q873.2031,1663.2031 873.9844,1662.8906 Q874.4219,1662.7188 874.9375,1662.2031 Q875.25,1661.8906 875.4219,1661.7969 Q875.5938,1661.7031 875.8281,1661.7031 Q876.2188,1661.7031 876.5156,1662.0156 Q876.8281,1662.3125 876.8281,1662.7188 Q876.8281,1663.125 876.4219,1663.5938 Q875.8281,1664.2813 874.8906,1664.6719 Q873.625,1665.2031 872.1094,1665.2031 Q870.3281,1665.2031 868.9063,1664.4688 Q867.75,1663.875 866.9375,1662.6094 Q866.125,1661.3438 866.125,1659.8594 L866.125,1658.5 Q866.125,1656.9375 866.8438,1655.5938 Q867.5781,1654.2344 868.8594,1653.5 Q870.1563,1652.7656 871.6094,1652.7656 Q872.4688,1652.7656 873.2188,1652.9688 Q873.9844,1653.1719 874.6406,1653.5781 Z " fill="#000000"/><text fill="#000000" font-family="sans-serif" font-size="20" font-style="italic" lengthAdjust="spacing" textLength="128.9844" x="895.8252" y="1654.2617">&#171;value object&#187;</text><text fill="#000000" font-family="sans-serif" font-size="20" lengthAdjust="spacing" textLength="145.6348" x="887.5" y="1679.418">SafetyThreshold</text><line style="stroke:#181818;stroke-width:0.5;" x1="857.5" x2="1035.1348" y1="1688.8125" y2="1688.8125"/><text fill="#000000" font-family="sans-serif" font-size="20" lengthAdjust="spacing" textLength="47.8125" x="862.5" y="1713.5742">value</text><text fill="#000000" font-family="sans-serif" font-size="20" lengthAdjust="spacing" textLength="32.2461" x="862.5" y="1738.7305">unit</text></g><!--class SimulationReport--><g class="entity" data-qualified-name="Simulation_Aggregate.SimulationReport" data-source-line="120" id="ent0072"><rect fill="#F1F1F1" height="93.4688" rx="2.5" ry="2.5" style="stroke:#181818;stroke-width:0.5;" width="187.4082" x="853" y="1495.5"/><ellipse cx="869" cy="1525.6563" fill="#ADD1B2" rx="12" ry="12" style="stroke:#181818;stroke-width:1;"/><path d="M871.1406,1520.5781 Q871.3281,1520.3281 871.5469,1520.2031 Q871.7656,1520.0625 872.0156,1520.0625 Q872.4531,1520.0625 872.7344,1520.375 Q873.0156,1520.6719 873.0156,1521.3906 L873.0156,1523.0938 Q873.0156,1523.8125 872.7344,1524.125 Q872.4531,1524.4375 872.0156,1524.4375 Q871.625,1524.4375 871.375,1524.2031 Q871.125,1523.9844 871.0156,1523.375 Q870.9531,1522.9531 870.7344,1522.7344 Q870.3438,1522.2969 869.625,1522.0313 Q868.9063,1521.7656 868.1875,1521.7656 Q867.2813,1521.7656 866.5313,1522.1563 Q865.7813,1522.5469 865.2031,1523.4375 Q864.625,1524.3125 864.625,1525.5156 L864.625,1526.8125 Q864.625,1528.2656 865.6719,1529.2344 Q866.7344,1530.2031 868.5938,1530.2031 Q869.7031,1530.2031 870.4844,1529.8906 Q870.9219,1529.7188 871.4375,1529.2031 Q871.75,1528.8906 871.9219,1528.7969 Q872.0938,1528.7031 872.3281,1528.7031 Q872.7188,1528.7031 873.0156,1529.0156 Q873.3281,1529.3125 873.3281,1529.7188 Q873.3281,1530.125 872.9219,1530.5938 Q872.3281,1531.2813 871.3906,1531.6719 Q870.125,1532.2031 868.6094,1532.2031 Q866.8281,1532.2031 865.4063,1531.4688 Q864.25,1530.875 863.4375,1529.6094 Q862.625,1528.3438 862.625,1526.8594 L862.625,1525.5 Q862.625,1523.9375 863.3438,1522.5938 Q864.0781,1521.2344 865.3594,1520.5 Q866.6563,1519.7656 868.1094,1519.7656 Q868.9688,1519.7656 869.7188,1519.9688 Q870.4844,1520.1719 871.1406,1520.5781 Z " fill="#000000"/><text fill="#000000" font-family="sans-serif" font-size="20" font-style="italic" lengthAdjust="spacing" textLength="128.9844" x="896.2119" y="1521.2617">&#171;value object&#187;</text><text fill="#000000" font-family="sans-serif" font-size="20" lengthAdjust="spacing" textLength="153.4082" x="884" y="1546.418">SimulationReport</text><line style="stroke:#181818;stroke-width:0.5;" x1="854" x2="1039.4082" y1="1555.8125" y2="1555.8125"/><text fill="#000000" font-family="sans-serif" font-size="20" lengthAdjust="spacing" textLength="96.709" x="859" y="1580.5742">totalFlights</text></g><g class="entity" data-qualified-name="Simulation_Aggregate.GMN73" data-source-line="123" id="ent0074"><path d="M1296,1628.5 L1296,1631.88 L1040.04,1566.95 L1296,1639.88 L1296,1713.9688 A0,0 0 0 0 1296,1713.9688 L1558.1914,1713.9688 A0,0 0 0 0 1558.1914,1713.9688 L1558.1914,1638.5 L1548.1914,1628.5 L1296,1628.5 A0,0 0 0 0 1296,1628.5" fill="#FEFFDD" style="stroke:#181818;stroke-width:0.5;"/><path d="M1548.1914,1628.5 L1548.1914,1638.5 L1558.1914,1638.5 L1548.1914,1628.5" fill="#FEFFDD" style="stroke:#181818;stroke-width:0.5;"/><text fill="#000000" font-family="sans-serif" font-size="20" lengthAdjust="spacing" textLength="217.8906" x="1302" y="1654.2617">Final document received</text><text fill="#000000" font-family="sans-serif" font-size="20" lengthAdjust="spacing" textLength="241.1914" x="1302" y="1679.418">from C module. Immutable.</text><text fill="#000000" font-family="sans-serif" font-size="20" lengthAdjust="spacing" textLength="127.8613" x="1302" y="1704.5742">US109/US111</text></g><!--class ValidationResult--><g class="entity" data-qualified-name="Simulation_Aggregate.ValidationResult" data-source-line="124" id="ent0076"><rect fill="#F1F1F1" height="93.4688" rx="2.5" ry="2.5" style="stroke:#181818;stroke-width:0.5;" width="178.5313" x="1337.5" y="1495.5"/><ellipse cx="1353.5" cy="1513.0781" fill="#EB937F" rx="12" ry="12" style="stroke:#181818;stroke-width:1;"/><path d="M1351.4531,1514.1406 L1351.4531,1517.0781 L1356.5469,1517.0781 L1356.5469,1515.9844 Q1356.5469,1515.2656 1356.8281,1514.9688 Q1357.1094,1514.6563 1357.5625,1514.6563 Q1358,1514.6563 1358.2813,1514.9688 Q1358.5625,1515.2656 1358.5625,1515.9844 L1358.5625,1519.0781 L1349.125,1519.0781 Q1348.4063,1519.0781 1348.0938,1518.7969 Q1347.7969,1518.5156 1347.7969,1518.0781 Q1347.7969,1517.625 1348.1094,1517.3594 Q1348.4219,1517.0781 1349.125,1517.0781 L1349.4375,1517.0781 L1349.4375,1509.25 L1349.125,1509.25 Q1348.4063,1509.25 1348.0938,1508.9688 Q1347.7969,1508.6875 1347.7969,1508.2344 Q1347.7969,1507.7813 1348.0938,1507.5156 Q1348.4063,1507.2344 1349.125,1507.2344 L1358.1094,1507.2344 L1358.1094,1510.2813 Q1358.1094,1511 1357.8281,1511.3125 Q1357.5625,1511.6094 1357.125,1511.6094 Q1356.6719,1511.6094 1356.3906,1511.3125 Q1356.1094,1511.0156 1356.1094,1510.2813 L1356.1094,1509.25 L1351.4531,1509.25 L1351.4531,1512.1406 L1353.2031,1512.1406 Q1353.2031,1511.3594 1353.3438,1511.125 Q1353.6563,1510.6563 1354.2031,1510.6563 Q1354.6563,1510.6563 1354.9219,1510.9688 Q1355.2031,1511.2656 1355.2031,1511.9844 L1355.2031,1514.2969 Q1355.2031,1514.9531 1355.0469,1515.1719 Q1354.7344,1515.625 1354.2031,1515.625 Q1353.6563,1515.625 1353.3438,1515.1563 Q1353.2031,1514.9219 1353.2031,1514.1406 L1351.4531,1514.1406 Z " fill="#000000"/><text fill="#000000" font-family="sans-serif" font-size="20" lengthAdjust="spacing" textLength="144.5313" x="1368.5" y="1521.2617">ValidationResult</text><line style="stroke:#181818;stroke-width:0.5;" x1="1338.5" x2="1515.0313" y1="1530.6563" y2="1530.6563"/><text fill="#000000" font-family="sans-serif" font-size="20" lengthAdjust="spacing" textLength="64.4922" x="1343.5" y="1555.418">passed</text><text fill="#000000" font-family="sans-serif" font-size="20" lengthAdjust="spacing" textLength="47.8125" x="1343.5" y="1580.5742">failed</text></g><!--reverse link AirControlArea to AreaCode--><g class="link" data-entity-1="ent0003" data-entity-2="ent0004" data-link-type="composition" data-source-line="23" id="lnk12"><path codeLine="23" d="M2068.3671,1427.7502 C2302.4871,1457.0502 2960.25,1539.36 3190.29,1568.15" fill="none" id="AirControlArea-backto-AreaCode" style="stroke:#181818;stroke-width:1;"/><polygon fill="#181818" points="2056.46,1426.26,2061.9168,1430.9741,2068.3671,1427.7502,2062.9103,1423.036,2056.46,1426.26" style="stroke:#181818;stroke-width:1;"/><text fill="#000000" font-family="sans-serif" font-size="20" lengthAdjust="spacing" textLength="103.3984" x="2690" y="1500.7617">identifiedBy</text></g><!--reverse link AirControlArea to Coordinates_ACA--><g class="link" data-entity-1="ent0003" data-entity-2="ent0008" data-link-type="composition" data-source-line="24" id="lnk13"><path codeLine="24" d="M2068.4597,1415.3465 C2296.8797,1413.7565 2927.92,1409.37 3172.73,1407.67" fill="none" id="AirControlArea-backto-Coordinates_ACA" style="stroke:#181818;stroke-width:1;"/><polygon fill="#181818" points="2056.46,1415.43,2062.4877,1419.3881,2068.4597,1415.3465,2062.432,1411.3883,2056.46,1415.43" style="stroke:#181818;stroke-width:1;"/><text fill="#000000" font-family="sans-serif" font-size="20" lengthAdjust="spacing" textLength="101.2012" x="2691" y="1405.7617">boundedBy</text></g><!--reverse link Airport to IATACode--><g class="link" data-entity-1="ent0015" data-entity-2="ent0016" data-link-type="composition" data-source-line="49" id="lnk26"><path codeLine="49" d="M1488.9375,1038.8866 C1583.5775,1061.9966 1779.79,1109.93 1893.82,1137.78" fill="none" id="Airport-backto-IATACode" style="stroke:#181818;stroke-width:1;"/><polygon fill="#181818" points="1477.28,1036.04,1482.1599,1041.3491,1488.9375,1038.8866,1484.0576,1033.5775,1477.28,1036.04" style="stroke:#181818;stroke-width:1;"/><text fill="#000000" font-family="sans-serif" font-size="20" lengthAdjust="spacing" textLength="103.3984" x="1688.5" y="1081.7617">identifiedBy</text></g><!--reverse link Airport to ICAOCode--><g class="link" data-entity-1="ent0015" data-entity-2="ent0017" data-link-type="composition" data-source-line="50" id="lnk27"><path codeLine="50" d="M1489.28,1024 C1583.92,1024 1779.79,1024 1893.82,1024" fill="none" id="Airport-backto-ICAOCode" style="stroke:#181818;stroke-width:1;"/><polygon fill="#181818" points="1477.28,1024,1483.28,1028,1489.28,1024,1483.28,1020,1477.28,1024" style="stroke:#181818;stroke-width:1;"/><text fill="#000000" font-family="sans-serif" font-size="20" lengthAdjust="spacing" textLength="103.3984" x="1688.5" y="1018.7617">identifiedBy</text></g><!--reverse link Airport to Coordinates_Apt--><g class="link" data-entity-1="ent0015" data-entity-2="ent0018" data-link-type="composition" data-source-line="51" id="lnk28"><path codeLine="51" d="M1488.8705,1007.6818 C1580.2305,983.1818 1765.55,933.49 1881.66,902.36" fill="none" id="Airport-backto-Coordinates_Apt" style="stroke:#181818;stroke-width:1;"/><polygon fill="#181818" points="1477.28,1010.79,1484.1113,1013.0994,1488.8705,1007.6818,1482.0392,1005.3724,1477.28,1010.79" style="stroke:#181818;stroke-width:1;"/><text fill="#000000" font-family="sans-serif" font-size="20" lengthAdjust="spacing" textLength="83.3887" x="1698.5" y="920.7617">locatedAt</text></g><!--reverse link Airport to Elevation--><g class="link" data-entity-1="ent0015" data-entity-2="ent0022" data-link-type="composition" data-source-line="52" id="lnk29"><path codeLine="52" d="M1487.7495,990.5358 C1582.3895,937.5258 1779.79,826.95 1893.82,763.07" fill="none" id="Airport-backto-Elevation" style="stroke:#181818;stroke-width:1;"/><polygon fill="#181818" points="1477.28,996.4,1484.4695,996.9577,1487.7495,990.5358,1480.56,989.978,1477.28,996.4" style="stroke:#181818;stroke-width:1;"/><text fill="#000000" font-family="sans-serif" font-size="20" lengthAdjust="spacing" textLength="88.9453" x="1696" y="812.7617">situatedAt</text></g><!--reverse link Collaborator to ATCCollaborator--><g class="link" data-entity-1="ent0031" data-entity-2="ent0032" data-link-type="extension" data-source-line="79" id="lnk47"><path codeLine="79" d="M1035.2397,413.147 C1088.6497,431.737 1146.95,451.06 1214,470 C1253.48,481.15 1297.58,491.83 1335.29,500.44" fill="none" id="Collaborator-backto-ATCCollaborator" style="stroke:#181818;stroke-width:1;"/><polygon fill="none" points="1018.24,407.23,1033.2674,418.8135,1037.212,407.4804,1018.24,407.23" style="stroke:#181818;stroke-width:1;"/></g><!--reverse link Collaborator to FlightControlOperator--><g class="link" data-entity-1="ent0031" data-entity-2="ent0033" data-link-type="extension" data-source-line="80" id="lnk48"><path codeLine="80" d="M1036.0436,389.0342 C1113.9036,395.2142 1222.31,403.82 1313.77,411.09" fill="none" id="Collaborator-backto-FlightControlOperator" style="stroke:#181818;stroke-width:1;"/><polygon fill="none" points="1018.1,387.61,1035.5688,395.0154,1036.5183,383.0531,1018.1,387.61" style="stroke:#181818;stroke-width:1;"/></g><!--reverse link Collaborator to WeatherPerson--><g class="link" data-entity-1="ent0031" data-entity-2="ent0034" data-link-type="extension" data-source-line="81" id="lnk49"><path codeLine="81" d="M1035.9508,370.5369 C1121.6108,359.4369 1248.1,343.05 1340.12,331.13" fill="none" id="Collaborator-backto-WeatherPerson" style="stroke:#181818;stroke-width:1;"/><polygon fill="none" points="1018.1,372.85,1036.7218,376.4871,1035.1797,364.5866,1018.1,372.85" style="stroke:#181818;stroke-width:1;"/></g><!--reverse link Collaborator to SecurityClearance--><g class="link" data-entity-1="ent0031" data-entity-2="ent0035" data-link-type="composition" data-source-line="82" id="lnk50"><path codeLine="82" d="M1028.7757,338.2487 C1081.1557,311.9687 1144.52,284.68 1214,270 C1446.92,220.8 1729.05,234.1 1874.79,246.17" fill="none" id="Collaborator-backto-SecurityClearance" style="stroke:#181818;stroke-width:1;"/><polygon fill="#181818" points="1018.05,343.63,1025.2066,344.5146,1028.7757,338.2487,1021.6191,337.3641,1018.05,343.63" style="stroke:#181818;stroke-width:1;"/><text fill="#000000" font-family="sans-serif" font-size="20" lengthAdjust="spacing" textLength="86.709" x="1384" y="229.7617">hasActive</text></g><!--reverse link Collaborator to SkillsAssessment--><g class="link" data-entity-1="ent0031" data-entity-2="ent0039" data-link-type="composition" data-source-line="83" id="lnk51"><path codeLine="83" d="M1027.4407,310.6086 C1078.1407,268.8286 1140.89,224.81 1214,198 C1441.51,114.59 1731.66,112.13 1878.41,117.49" fill="none" id="Collaborator-backto-SkillsAssessment" style="stroke:#181818;stroke-width:1;"/><polygon fill="#181818" points="1018.18,318.24,1025.3542,317.5112,1027.4407,310.6086,1020.2666,311.3374,1018.18,318.24" style="stroke:#181818;stroke-width:1;"/><text fill="#000000" font-family="sans-serif" font-size="20" lengthAdjust="spacing" textLength="84.4922" x="1385" y="114.7617">assessed</text></g><!--link Collaborator to SystemUser--><g class="link" data-entity-1="ent0031" data-entity-2="ent0043" data-link-type="dependency" data-source-line="84" id="lnk52"><path codeLine="84" d="M946.5,309.84 C946.5,286.51 946.5,267.91 946.5,249.33" fill="none" id="Collaborator-to-SystemUser" style="stroke:#181818;stroke-width:1;"/><polygon fill="#181818" points="946.5,243.33,942.5,252.33,946.5,248.33,950.5,252.33,946.5,243.33" style="stroke:#181818;stroke-width:1;"/><text fill="#000000" font-family="sans-serif" font-size="20" lengthAdjust="spacing" textLength="75.5957" x="892.5" y="284.7617">linkedTo</text></g><!--reverse link WeatherData to WindCondition--><g class="link" data-entity-1="ent0054" data-entity-2="ent0058" data-link-type="composition" data-source-line="103" id="lnk63"><path codeLine="103" d="M1528.0871,2085.795 C1631.7771,2083.505 1790.56,2080.01 1891.21,2077.79" fill="none" id="WeatherData-backto-WindCondition" style="stroke:#181818;stroke-width:1;"/><polygon fill="#181818" points="1516.09,2086.06,1522.1769,2089.9265,1528.0871,2085.795,1522.0002,2081.9285,1516.09,2086.06" style="stroke:#181818;stroke-width:1;"/><text fill="#000000" font-family="sans-serif" font-size="20" lengthAdjust="spacing" textLength="66.6895" x="1707" y="2073.7617">records</text><text fill="#000000" font-family="sans-serif" font-size="20" lengthAdjust="spacing" textLength="30.0195" x="1853.4553" y="2099.7116">1..*</text></g><!--reverse link WindCondition to Coordinates_WD--><g class="link" data-entity-1="ent0058" data-entity-2="ent0059" data-link-type="composition" data-source-line="104" id="lnk64"><path codeLine="104" d="M2067.76,2076 C2152.37,2076 2272.68,2076 2361.18,2076" fill="none" id="WindCondition-backto-Coordinates_WD" style="stroke:#181818;stroke-width:1;"/><polygon fill="#181818" points="2055.76,2076,2061.76,2080,2067.76,2076,2061.76,2072,2055.76,2076" style="stroke:#181818;stroke-width:1;"/><text fill="#000000" font-family="sans-serif" font-size="20" lengthAdjust="spacing" textLength="83.3887" x="2138" y="2070.7617">locatedAt</text></g><!--reverse link Simulation to SimulationTimeRange--><g class="link" data-entity-1="ent0066" data-entity-2="ent0067" data-link-type="composition" data-source-line="129" id="lnk77"><path codeLine="129" d="M410.3741,1651.9302 C511.9741,1688.9702 703.01,1758.61 830.92,1805.23" fill="none" id="Simulation-backto-SimulationTimeRange" style="stroke:#181818;stroke-width:1;"/><polygon fill="#181818" points="399.1,1647.82,403.367,1653.6331,410.3741,1651.9302,406.1071,1646.117,399.1,1647.82" style="stroke:#181818;stroke-width:1;"/><text fill="#000000" font-family="sans-serif" font-size="20" lengthAdjust="spacing" textLength="121.1816" x="679" y="1749.7617">scheduledFor</text></g><!--reverse link Simulation to SafetyThreshold--><g class="link" data-entity-1="ent0066" data-entity-2="ent0071" data-link-type="composition" data-source-line="130" id="lnk78"><path codeLine="130" d="M411.0363,1632.7147 C519.6963,1643.9547 731.6,1665.87 856.43,1678.79" fill="none" id="Simulation-backto-SafetyThreshold" style="stroke:#181818;stroke-width:1;"/><polygon fill="#181818" points="399.1,1631.48,404.6566,1636.0761,411.0363,1632.7147,405.4797,1628.1186,399.1,1631.48" style="stroke:#181818;stroke-width:1;"/><text fill="#000000" font-family="sans-serif" font-size="20" lengthAdjust="spacing" textLength="101.2012" x="689" y="1656.7617">boundedBy</text></g><!--reverse link Simulation to SimulationReport--><g class="link" data-entity-1="ent0066" data-entity-2="ent0072" data-link-type="composition" data-source-line="131" id="lnk79"><path codeLine="131" d="M410.99,1614.8489 C518.59,1600.1789 727.24,1571.75 852.74,1554.64" fill="none" id="Simulation-backto-SimulationReport" style="stroke:#181818;stroke-width:1;"/><polygon fill="#181818" points="399.1,1616.47,405.5854,1619.6228,410.99,1614.8489,404.5046,1611.6961,399.1,1616.47" style="stroke:#181818;stroke-width:1;"/><text fill="#000000" font-family="sans-serif" font-size="20" lengthAdjust="spacing" textLength="82.2754" x="698.5" y="1557.7617">produces</text></g><!--link SimulationReport to ValidationResult--><g class="link" data-entity-1="ent0072" data-entity-2="ent0076" data-link-type="dependency" data-source-line="132" id="lnk80"><path codeLine="132" d="M1040.04,1542 C1125.89,1542 1246.79,1542 1331.37,1542" fill="none" id="SimulationReport-to-ValidationResult" style="stroke:#181818;stroke-width:1;"/><polygon fill="#181818" points="1337.37,1542,1328.37,1538,1332.37,1542,1328.37,1546,1337.37,1542" style="stroke:#181818;stroke-width:1;"/><text fill="#000000" font-family="sans-serif" font-size="20" lengthAdjust="spacing" textLength="90.0586" x="1093" y="1536.7617">concludes</text></g><!--link Airport to AirControlArea--><g class="link" data-entity-1="ent0015" data-entity-2="ent0003" data-link-type="dependency" data-source-line="136" id="lnk81"><path codeLine="136" d="M1477.28,1059.48 C1577.54,1131.66 1800.0506,1291.8445 1908.2606,1369.7445" fill="none" id="Airport-to-AirControlArea" style="stroke:#181818;stroke-width:1;"/><polygon fill="#181818" points="1913.13,1373.25,1908.1628,1364.7455,1909.0721,1370.3288,1903.4888,1371.2381,1913.13,1373.25" style="stroke:#181818;stroke-width:1;"/><polygon fill="#000000" points="1702.9926,1200.2522,1693.9947,1187.9805,1688.5001,1195.613,1702.9926,1200.2522" style="stroke:#000000;stroke-width:1;"/><text fill="#000000" font-family="sans-serif" font-size="20" lengthAdjust="spacing" textLength="81.1719" x="1709.5" y="1203.7617">locatedIn</text><text fill="#000000" font-family="sans-serif" font-size="20" lengthAdjust="spacing" textLength="7.7832" x="1484.8944" y="1087.0043">*</text><text fill="#000000" font-family="sans-serif" font-size="20" lengthAdjust="spacing" textLength="11.123" x="1892.8643" y="1361.2202">1</text></g><!--link Collaborator to AirControlArea--><g class="link" data-entity-1="ent0031" data-entity-2="ent0003" data-link-type="dependency" data-source-line="137" id="lnk82"><path codeLine="137" d="M957.71,454.21 C987.4,653.47 1080.18,1203.88 1214,1319 C1239.49,1340.93 1693.8397,1388.3138 1884.6897,1407.3738" fill="none" id="Collaborator-to-AirControlArea" style="stroke:#181818;stroke-width:1;"/><polygon fill="#181818" points="1890.66,1407.97,1882.102,1403.0954,1885.6847,1407.4731,1881.3071,1411.0558,1890.66,1407.97" style="stroke:#181818;stroke-width:1;"/><polygon fill="#000000" points="1388.8402,1241.3132,1382.1214,1227.66,1375.3794,1234.2167,1388.8402,1241.3132" style="stroke:#000000;stroke-width:1;"/><text fill="#000000" font-family="sans-serif" font-size="20" lengthAdjust="spacing" textLength="82.2266" x="1396.2627" y="1243.7617">worksFor</text><path d="M1219,1254.1563 L1219,1314.1563 L1635,1314.1563 L1635,1264.1563 L1625,1254.1563 L1219,1254.1563" fill="#FEFFDD" style="stroke:#181818;stroke-width:0.5;"/><path d="M1625,1254.1563 L1625,1264.1563 L1635,1264.1563 L1625,1254.1563" fill="#FEFFDD" style="stroke:#181818;stroke-width:0.5;"/><text fill="#000000" font-family="sans-serif" font-size="20" lengthAdjust="spacing" textLength="395.752" x="1225" y="1279.918">Only applicable to FCO and WeatherPerson.</text><text fill="#000000" font-family="sans-serif" font-size="20" lengthAdjust="spacing" textLength="257.8809" x="1225" y="1305.0742">ATCCollaborator always null.</text><text fill="#000000" font-family="sans-serif" font-size="20" lengthAdjust="spacing" textLength="7.7832" x="951.434" y="482.5329">*</text><text fill="#000000" font-family="sans-serif" font-size="20" lengthAdjust="spacing" textLength="33.3594" x="1849.7517" y="1429.0755">0..1</text></g><!--link WeatherData to AirControlArea--><g class="link" data-entity-1="ent0054" data-entity-2="ent0003" data-link-type="dependency" data-source-line="141" id="lnk83"><path codeLine="141" d="M1516.03,2030.53 C1556.45,2001.69 1603.41,1964.52 1640,1925 C1782.18,1771.46 1900.7934,1555.7993 1948.3234,1463.9093" fill="none" id="WeatherData-to-AirControlArea" style="stroke:#181818;stroke-width:1;"/><polygon fill="#181818" points="1951.08,1458.58,1943.3923,1464.7362,1948.7829,1463.0211,1950.498,1468.4116,1951.08,1458.58" style="stroke:#181818;stroke-width:1;"/><polygon fill="#000000" points="1682.8525,1693.2178,1670.3358,1701.8715,1677.8128,1707.5759,1682.8525,1693.2178" style="stroke:#000000;stroke-width:1;"/><text fill="#000000" font-family="sans-serif" font-size="20" lengthAdjust="spacing" textLength="118.9355" x="1691" y="1707.7617">registeredFor</text><text fill="#000000" font-family="sans-serif" font-size="20" lengthAdjust="spacing" textLength="7.7832" x="1523.7406" y="2047.5832">*</text><text fill="#000000" font-family="sans-serif" font-size="20" lengthAdjust="spacing" textLength="11.123" x="1935.8018" y="1487.7519">1</text></g><!--link Simulation to AirControlArea--><g class="link" data-entity-1="ent0066" data-entity-2="ent0003" data-link-type="dependency" data-source-line="143" id="lnk84"><path codeLine="143" d="M399.31,1600.54 C492.08,1565.67 671.93,1502.81 831,1475 C1223.42,1406.39 1696.3416,1408.9712 1884.7816,1413.3312" fill="none" id="Simulation-to-AirControlArea" style="stroke:#181818;stroke-width:1;"/><polygon fill="#181818" points="1890.78,1413.47,1881.8749,1409.2629,1885.7813,1413.3543,1881.6899,1417.2607,1890.78,1413.47" style="stroke:#181818;stroke-width:1;"/><polygon fill="#000000" points="1113.9372,1418.5778,1098.9907,1415.722,1100.1666,1425.0528,1113.9372,1418.5778" style="stroke:#000000;stroke-width:1;"/><text fill="#000000" font-family="sans-serif" font-size="20" lengthAdjust="spacing" textLength="58.9063" x="1119" y="1427.7617">covers</text><text fill="#000000" font-family="sans-serif" font-size="20" lengthAdjust="spacing" textLength="7.7832" x="407.538" y="1619.8251">*</text><text fill="#000000" font-family="sans-serif" font-size="20" lengthAdjust="spacing" textLength="11.123" x="1871.9212" y="1407.8792">1</text></g><?plantuml-src hLTjRzis4FxkNq7uKreahjsr0oO40LIt0G8KIn0dwnS31IsTRSuKgP5K4ctBVzz3MebU8gKki7mmOlBkU2_FFNUsEw5oRdWcTRAZbAMqveLqvrgvXVYRsFlfIDBQCQUP4PkjOwamb3YXrSW-gRAS9pk-eOKh9J5_pTL6KaD0wPGivUp3j75ekDhvmr-dewr8YL6Mkv9bbAt8sD5eL5bburYOEVmnMiQ6-FTuip6quOx6xFIKFtqvEsF_Z1XB9BUMjJKWHie9LqBczDHexIhXnre1OdCuYVixBWjYUlKdugZa88MxIa5fHrKkzBfMZ5YXn5_G58hPqZhAsD7jOlfn-kRvaRdM9XKApjhlyJmUUYiJwYk7kqLu4j_vG_ixxhNQj0KQ1o-Tx3uSiUkd8h6LBbJAJJbPghaKo5F4ncjjcEKxyhfMPBaK2R9tl5IyhkvuX6SwUNvxWhzcIb1M97ujAFrK3ec_T2wu55GUsoZ8jN47bj-B3jOT-U7PFdTEtwkgmWKyArkek8XluWDHKIdCuykVKcW5dxiXFTcilpoyrh0ODK-MwiWYykfnRZrO5o8hl7sjQgH-aNGNZeOS2eVXFw3UzJfIsuZGrCuG7bpfEs8MfSSToNs3l7-pHqQe621HPxqFFxNKKwfVbNgP3V0SlgMnwqWstRL8RoNqs2IYkPOICHZkj7aTXtnbdU69UovphNW8AdCD5pp7-iJMiBwP3nbgizcvz4MeMkqofn-8VoFkjcIkGBkXuWDY2qeAWukv9F2tIWPHJW-vCELdPACN62_jH8mNJfy4FR9WejiyvOwlF3sLB4x1UEy-eGXwlHOGFxAKJDWlazbaLaDsiHDIsjXQiZP314FEyMU9OGUxfYA670gTYkIO0RYcP1zP2UVjW2k1_cyjzUOyl1Lcgd-g5etOb_ZgwmLROpRIlJQx9ZKlK42o4MOa5-YR_QWvPetNZmDwZbc-rOf-B_mGRNa78nVAaL5SOiWxcB4O70guJdsI0O3wvGdSR2FjNy_hRVZrolGYhrUo1RgkX9yClJZPSXjZ-xYZVesNXTkNczAk_CbPE_TIAAm_DxhTy9MJGCf1QqT3_9KknmW5AL7gyNSZgewtkZ09NHbz1pOplR1iMeyOgFF3UyngtoXO2RpCofTGPqi5GdSYH_VGGrNnl39inxMpGgKeL2fUu_ddRIyE6rtmDAUGpluXzktp_pp3OB0rmbXxWYqLHjWJZtELDiUPNscuCG9AWVLnXeJTxzEuL7YJ1LkXfUzn5fOtZjN4PwcPRZyWnhF9vEsuaxQeggRr2gsRxlG9STJ3fmMpskT3K5PB7x3Ori8UQjTOtGPfspfkN0kKf9eWxI7A7kCHkr1tt0ZkDybWafrwGtxOpwQDRNZ1r-JAcoruRQjb-bERHZUsQwhslLuJJZikzynaVn17PIXYvo8GfKwAG2IeCe5rqgNo7SRcBDDf8Md2BhAi29FAJoq4-DixVCvc8v-y8cD_S2dIoh95LrOUvRpY9CRMOEAgd_3HgAq7K7-2RR8b_tfw7hYrgzF9QtEVVkM1vyX15McHa6q9LxSdeCqN8KLOQrKYqSmsmFgf6yVe5gymdesxc_zp9rmeTZPg4VDUowjD9vC-JJ-WB2A7OgWY8l7aZPjB9Kl6S_zp9UmE-CrwFhyChD2QDYXLTvNYyfwNbgb2oWb2QFR-gs6WFGMcY0crW4UZHdwhI8PK4-p2s22Wyny0?></g></svg>