<?plantuml 1.2026.2?><svg xmlns="http://www.w3.org/2000/svg" xmlns:xlink="http://www.w3.org/1999/xlink" contentStyleType="text/css" data-diagram-type="CLASS" height="1284px" preserveAspectRatio="none" style="width:2567px;height:1284px;background:#FFFFFF;" version="1.1" viewBox="0 0 2567 1284" width="2567px" zoomAndPan="magnify"><defs/><g><!--cluster AirControlArea_Aggregate--><g class="cluster" data-qualified-name="AirControlArea_Aggregate" data-source-line="7" id="ent0002"><rect fill="none" height="388" rx="2.5" ry="2.5" style="stroke:#000000;stroke-width:1.5;" width="1334" x="1227" y="890"/><text fill="#000000" font-family="sans-serif" font-size="20" font-style="italic" lengthAdjust="spacing" textLength="112.3242" x="1837.8379" y="912.7617">&#171;aggregate&#187;</text><text fill="#000000" font-family="sans-serif" font-size="20" font-weight="bold" lengthAdjust="spacing" textLength="253.3789" x="1767.3105" y="937.918">AirControlArea_Aggregate</text></g><!--cluster Airport_Aggregate--><g class="cluster" data-qualified-name="Airport_Aggregate" data-source-line="26" id="ent0014"><rect fill="none" height="630" rx="2.5" ry="2.5" style="stroke:#000000;stroke-width:1.5;" width="941.5" x="859.5" y="236"/><text fill="#000000" font-family="sans-serif" font-size="20" font-style="italic" lengthAdjust="spacing" textLength="112.3242" x="1274.0879" y="258.7617">&#171;aggregate&#187;</text><text fill="#000000" font-family="sans-serif" font-size="20" font-weight="bold" lengthAdjust="spacing" textLength="176.6895" x="1241.9053" y="283.918">Airport_Aggregate</text></g><!--cluster FlightRoute_Aggregate--><g class="cluster" data-qualified-name="FlightRoute_Aggregate" data-source-line="55" id="ent0030"><rect fill="none" height="205" rx="2.5" ry="2.5" style="stroke:#000000;stroke-width:1.5;" width="1076" x="7" y="7"/><text fill="#000000" font-family="sans-serif" font-size="20" font-style="italic" lengthAdjust="spacing" textLength="112.3242" x="488.8379" y="29.7617">&#171;aggregate&#187;</text><text fill="#000000" font-family="sans-serif" font-size="20" font-weight="bold" lengthAdjust="spacing" textLength="221.1133" x="434.4434" y="54.918">FlightRoute_Aggregate</text></g><!--class AirControlArea--><g class="entity" data-qualified-name="AirControlArea_Aggregate.AirControlArea" data-source-line="8" id="ent0003"><rect fill="#F1F1F1" height="85.4688" rx="2.5" ry="2.5" style="stroke:#181818;stroke-width:0.5;" width="165.1621" x="1243" y="1001.5"/><ellipse cx="1259" cy="1044.2344" fill="#ADD1B2" rx="12" ry="12" style="stroke:#181818;stroke-width:1;"/><path d="M1261.1406,1039.1563 Q1261.3281,1038.9063 1261.5469,1038.7813 Q1261.7656,1038.6406 1262.0156,1038.6406 Q1262.4531,1038.6406 1262.7344,1038.9531 Q1263.0156,1039.25 1263.0156,1039.9688 L1263.0156,1041.6719 Q1263.0156,1042.3906 1262.7344,1042.7031 Q1262.4531,1043.0156 1262.0156,1043.0156 Q1261.625,1043.0156 1261.375,1042.7813 Q1261.125,1042.5625 1261.0156,1041.9531 Q1260.9531,1041.5313 1260.7344,1041.3125 Q1260.3438,1040.875 1259.625,1040.6094 Q1258.9063,1040.3438 1258.1875,1040.3438 Q1257.2813,1040.3438 1256.5313,1040.7344 Q1255.7813,1041.125 1255.2031,1042.0156 Q1254.625,1042.8906 1254.625,1044.0938 L1254.625,1045.3906 Q1254.625,1046.8438 1255.6719,1047.8125 Q1256.7344,1048.7813 1258.5938,1048.7813 Q1259.7031,1048.7813 1260.4844,1048.4688 Q1260.9219,1048.2969 1261.4375,1047.7813 Q1261.75,1047.4688 1261.9219,1047.375 Q1262.0938,1047.2813 1262.3281,1047.2813 Q1262.7188,1047.2813 1263.0156,1047.5938 Q1263.3281,1047.8906 1263.3281,1048.2969 Q1263.3281,1048.7031 1262.9219,1049.1719 Q1262.3281,1049.8594 1261.3906,1050.25 Q1260.125,1050.7813 1258.6094,1050.7813 Q1256.8281,1050.7813 1255.4063,1050.0469 Q1254.25,1049.4531 1253.4375,1048.1875 Q1252.625,1046.9219 1252.625,1045.4375 L1252.625,1044.0781 Q1252.625,1042.5156 1253.3438,1041.1719 Q1254.0781,1039.8125 1255.3594,1039.0781 Q1256.6563,1038.3438 1258.1094,1038.3438 Q1258.9688,1038.3438 1259.7188,1038.5469 Q1260.4844,1038.75 1261.1406,1039.1563 Z " fill="#000000"/><text fill="#000000" font-family="sans-serif" font-size="20" font-style="italic" lengthAdjust="spacing" textLength="70.0488" x="1304.5566" y="1027.2617">&#171;entity&#187;</text><text fill="#000000" font-family="sans-serif" font-size="20" font-style="italic" lengthAdjust="spacing" textLength="56.709" x="1311.2266" y="1052.418">&#171;root&#187;</text><text fill="#000000" font-family="sans-serif" font-size="20" lengthAdjust="spacing" textLength="131.1621" x="1274" y="1077.5742">AirControlArea</text></g><!--class AreaCode--><g class="entity" data-qualified-name="AirControlArea_Aggregate.AreaCode" data-source-line="10" id="ent0004"><rect fill="#F1F1F1" height="93.4688" rx="2.5" ry="2.5" style="stroke:#181818;stroke-width:0.5;" width="158.9844" x="2031.5" y="1168.5"/><ellipse cx="2047.5" cy="1198.6563" fill="#ADD1B2" rx="12" ry="12" style="stroke:#181818;stroke-width:1;"/><path d="M2049.6406,1193.5781 Q2049.8281,1193.3281 2050.0469,1193.2031 Q2050.2656,1193.0625 2050.5156,1193.0625 Q2050.9531,1193.0625 2051.2344,1193.375 Q2051.5156,1193.6719 2051.5156,1194.3906 L2051.5156,1196.0938 Q2051.5156,1196.8125 2051.2344,1197.125 Q2050.9531,1197.4375 2050.5156,1197.4375 Q2050.125,1197.4375 2049.875,1197.2031 Q2049.625,1196.9844 2049.5156,1196.375 Q2049.4531,1195.9531 2049.2344,1195.7344 Q2048.8438,1195.2969 2048.125,1195.0313 Q2047.4063,1194.7656 2046.6875,1194.7656 Q2045.7813,1194.7656 2045.0313,1195.1563 Q2044.2813,1195.5469 2043.7031,1196.4375 Q2043.125,1197.3125 2043.125,1198.5156 L2043.125,1199.8125 Q2043.125,1201.2656 2044.1719,1202.2344 Q2045.2344,1203.2031 2047.0938,1203.2031 Q2048.2031,1203.2031 2048.9844,1202.8906 Q2049.4219,1202.7188 2049.9375,1202.2031 Q2050.25,1201.8906 2050.4219,1201.7969 Q2050.5938,1201.7031 2050.8281,1201.7031 Q2051.2188,1201.7031 2051.5156,1202.0156 Q2051.8281,1202.3125 2051.8281,1202.7188 Q2051.8281,1203.125 2051.4219,1203.5938 Q2050.8281,1204.2813 2049.8906,1204.6719 Q2048.625,1205.2031 2047.1094,1205.2031 Q2045.3281,1205.2031 2043.9063,1204.4688 Q2042.75,1203.875 2041.9375,1202.6094 Q2041.125,1201.3438 2041.125,1199.8594 L2041.125,1198.5 Q2041.125,1196.9375 2041.8438,1195.5938 Q2042.5781,1194.2344 2043.8594,1193.5 Q2045.1563,1192.7656 2046.6094,1192.7656 Q2047.4688,1192.7656 2048.2188,1192.9688 Q2048.9844,1193.1719 2049.6406,1193.5781 Z " fill="#000000"/><text fill="#000000" font-family="sans-serif" font-size="20" font-style="italic" lengthAdjust="spacing" textLength="128.9844" x="2060.5" y="1194.2617">&#171;value object&#187;</text><text fill="#000000" font-family="sans-serif" font-size="20" lengthAdjust="spacing" textLength="90.0586" x="2079.9629" y="1219.418">AreaCode</text><line style="stroke:#181818;stroke-width:0.5;" x1="2032.5" x2="2189.4844" y1="1228.8125" y2="1228.8125"/><text fill="#000000" font-family="sans-serif" font-size="20" lengthAdjust="spacing" textLength="43.3691" x="2037.5" y="1253.5742">code</text></g><g class="entity" data-qualified-name="AirControlArea_Aggregate.GMN5" data-source-line="13" id="ent0006"><path d="M2281.5,1197.5 L2281.5,1211 L2190.79,1215 L2281.5,1219 L2281.5,1232.6563 A0,0 0 0 0 2281.5,1232.6563 L2532.6074,1232.6563 A0,0 0 0 0 2532.6074,1232.6563 L2532.6074,1207.5 L2522.6074,1197.5 L2281.5,1197.5 A0,0 0 0 0 2281.5,1197.5" fill="#FEFFDD" style="stroke:#181818;stroke-width:0.5;"/><path d="M2522.6074,1197.5 L2522.6074,1207.5 L2532.6074,1207.5 L2522.6074,1197.5" fill="#FEFFDD" style="stroke:#181818;stroke-width:0.5;"/><text fill="#000000" font-family="sans-serif" font-size="20" lengthAdjust="spacing" textLength="230.1074" x="2287.5" y="1223.2617">unique in system (US050)</text></g><!--class Coordinates_ACA--><g class="entity" data-qualified-name="AirControlArea_Aggregate.Coordinates_ACA" data-source-line="14" id="ent0008"><rect fill="#F1F1F1" height="168.9375" rx="2.5" ry="2.5" style="stroke:#181818;stroke-width:0.5;" width="194.0879" x="2014" y="959.5"/><ellipse cx="2030" cy="989.6563" fill="#ADD1B2" rx="12" ry="12" style="stroke:#181818;stroke-width:1;"/><path d="M2032.1406,984.5781 Q2032.3281,984.3281 2032.5469,984.2031 Q2032.7656,984.0625 2033.0156,984.0625 Q2033.4531,984.0625 2033.7344,984.375 Q2034.0156,984.6719 2034.0156,985.3906 L2034.0156,987.0938 Q2034.0156,987.8125 2033.7344,988.125 Q2033.4531,988.4375 2033.0156,988.4375 Q2032.625,988.4375 2032.375,988.2031 Q2032.125,987.9844 2032.0156,987.375 Q2031.9531,986.9531 2031.7344,986.7344 Q2031.3438,986.2969 2030.625,986.0313 Q2029.9063,985.7656 2029.1875,985.7656 Q2028.2813,985.7656 2027.5313,986.1563 Q2026.7813,986.5469 2026.2031,987.4375 Q2025.625,988.3125 2025.625,989.5156 L2025.625,990.8125 Q2025.625,992.2656 2026.6719,993.2344 Q2027.7344,994.2031 2029.5938,994.2031 Q2030.7031,994.2031 2031.4844,993.8906 Q2031.9219,993.7188 2032.4375,993.2031 Q2032.75,992.8906 2032.9219,992.7969 Q2033.0938,992.7031 2033.3281,992.7031 Q2033.7188,992.7031 2034.0156,993.0156 Q2034.3281,993.3125 2034.3281,993.7188 Q2034.3281,994.125 2033.9219,994.5938 Q2033.3281,995.2813 2032.3906,995.6719 Q2031.125,996.2031 2029.6094,996.2031 Q2027.8281,996.2031 2026.4063,995.4688 Q2025.25,994.875 2024.4375,993.6094 Q2023.625,992.3438 2023.625,990.8594 L2023.625,989.5 Q2023.625,987.9375 2024.3438,986.5938 Q2025.0781,985.2344 2026.3594,984.5 Q2027.6563,983.7656 2029.1094,983.7656 Q2029.9688,983.7656 2030.7188,983.9688 Q2031.4844,984.1719 2032.1406,984.5781 Z " fill="#000000"/><text fill="#000000" font-family="sans-serif" font-size="20" font-style="italic" lengthAdjust="spacing" textLength="128.9844" x="2060.5518" y="985.2617">&#171;value object&#187;</text><text fill="#000000" font-family="sans-serif" font-size="20" lengthAdjust="spacing" textLength="160.0879" x="2045" y="1010.418">Coordinates_ACA</text><line style="stroke:#181818;stroke-width:0.5;" x1="2015" x2="2207.0879" y1="1019.8125" y2="1019.8125"/><text fill="#000000" font-family="sans-serif" font-size="20" lengthAdjust="spacing" textLength="103.3984" x="2020" y="1044.5742">minLatitude</text><text fill="#000000" font-family="sans-serif" font-size="20" lengthAdjust="spacing" textLength="108.9551" x="2020" y="1069.7305">maxLatitude</text><text fill="#000000" font-family="sans-serif" font-size="20" lengthAdjust="spacing" textLength="120.0879" x="2020" y="1094.8867">minLongitude</text><text fill="#000000" font-family="sans-serif" font-size="20" lengthAdjust="spacing" textLength="125.6445" x="2020" y="1120.043">maxLongitude</text></g><g class="entity" data-qualified-name="AirControlArea_Aggregate.GMN9" data-source-line="20" id="ent0010"><path d="M2269,1001.5 L2269,1040 L2208.27,1044 L2269,1048 L2269,1086.9688 A0,0 0 0 0 2269,1086.9688 L2544.9512,1086.9688 A0,0 0 0 0 2544.9512,1086.9688 L2544.9512,1011.5 L2534.9512,1001.5 L2269,1001.5 A0,0 0 0 0 2269,1001.5" fill="#FEFFDD" style="stroke:#181818;stroke-width:0.5;"/><path d="M2534.9512,1001.5 L2534.9512,1011.5 L2544.9512,1011.5 L2534.9512,1001.5" fill="#FEFFDD" style="stroke:#181818;stroke-width:0.5;"/><text fill="#000000" font-family="sans-serif" font-size="20" lengthAdjust="spacing" textLength="184.5703" x="2275" y="1027.2617">Rectangle boundary.</text><text fill="#000000" font-family="sans-serif" font-size="20" lengthAdjust="spacing" textLength="254.9512" x="2275" y="1052.418">Client: "for sake of simplicity,</text><text fill="#000000" font-family="sans-serif" font-size="20" lengthAdjust="spacing" textLength="106.0547" x="2275" y="1077.5742">a rectangle"</text></g><!--class Airport--><g class="entity" data-qualified-name="Airport_Aggregate.Airport" data-source-line="27" id="ent0015"><rect fill="#F1F1F1" height="168.9375" rx="2.5" ry="2.5" style="stroke:#181818;stroke-width:0.5;" width="100.0488" x="875.5" y="439.5"/><ellipse cx="891.5" cy="482.2344" fill="#ADD1B2" rx="12" ry="12" style="stroke:#181818;stroke-width:1;"/><path d="M893.6406,477.1563 Q893.8281,476.9063 894.0469,476.7813 Q894.2656,476.6406 894.5156,476.6406 Q894.9531,476.6406 895.2344,476.9531 Q895.5156,477.25 895.5156,477.9688 L895.5156,479.6719 Q895.5156,480.3906 895.2344,480.7031 Q894.9531,481.0156 894.5156,481.0156 Q894.125,481.0156 893.875,480.7813 Q893.625,480.5625 893.5156,479.9531 Q893.4531,479.5313 893.2344,479.3125 Q892.8438,478.875 892.125,478.6094 Q891.4063,478.3438 890.6875,478.3438 Q889.7813,478.3438 889.0313,478.7344 Q888.2813,479.125 887.7031,480.0156 Q887.125,480.8906 887.125,482.0938 L887.125,483.3906 Q887.125,484.8438 888.1719,485.8125 Q889.2344,486.7813 891.0938,486.7813 Q892.2031,486.7813 892.9844,486.4688 Q893.4219,486.2969 893.9375,485.7813 Q894.25,485.4688 894.4219,485.375 Q894.5938,485.2813 894.8281,485.2813 Q895.2188,485.2813 895.5156,485.5938 Q895.8281,485.8906 895.8281,486.2969 Q895.8281,486.7031 895.4219,487.1719 Q894.8281,487.8594 893.8906,488.25 Q892.625,488.7813 891.1094,488.7813 Q889.3281,488.7813 887.9063,488.0469 Q886.75,487.4531 885.9375,486.1875 Q885.125,484.9219 885.125,483.4375 L885.125,482.0781 Q885.125,480.5156 885.8438,479.1719 Q886.5781,477.8125 887.8594,477.0781 Q889.1563,476.3438 890.6094,476.3438 Q891.4688,476.3438 892.2188,476.5469 Q892.9844,476.75 893.6406,477.1563 Z " fill="#000000"/><text fill="#000000" font-family="sans-serif" font-size="20" font-style="italic" lengthAdjust="spacing" textLength="70.0488" x="904.5" y="465.2617">&#171;entity&#187;</text><text fill="#000000" font-family="sans-serif" font-size="20" font-style="italic" lengthAdjust="spacing" textLength="56.709" x="911.1699" y="490.418">&#171;root&#187;</text><text fill="#000000" font-family="sans-serif" font-size="20" lengthAdjust="spacing" textLength="58.9063" x="910.0713" y="515.5742">Airport</text><line style="stroke:#181818;stroke-width:0.5;" x1="876.5" x2="974.5488" y1="524.9688" y2="524.9688"/><text fill="#000000" font-family="sans-serif" font-size="20" lengthAdjust="spacing" textLength="50.0293" x="881.5" y="549.7305">name</text><text fill="#000000" font-family="sans-serif" font-size="20" lengthAdjust="spacing" textLength="42.2461" x="881.5" y="574.8867">town</text><text fill="#000000" font-family="sans-serif" font-size="20" lengthAdjust="spacing" textLength="65.5859" x="881.5" y="600.043">country</text></g><!--class IATACode--><g class="entity" data-qualified-name="Airport_Aggregate.IATACode" data-source-line="32" id="ent0016"><rect fill="#F1F1F1" height="93.4688" rx="2.5" ry="2.5" style="stroke:#181818;stroke-width:0.5;" width="158.9844" x="1246" y="756.5"/><ellipse cx="1262" cy="786.6563" fill="#ADD1B2" rx="12" ry="12" style="stroke:#181818;stroke-width:1;"/><path d="M1264.1406,781.5781 Q1264.3281,781.3281 1264.5469,781.2031 Q1264.7656,781.0625 1265.0156,781.0625 Q1265.4531,781.0625 1265.7344,781.375 Q1266.0156,781.6719 1266.0156,782.3906 L1266.0156,784.0938 Q1266.0156,784.8125 1265.7344,785.125 Q1265.4531,785.4375 1265.0156,785.4375 Q1264.625,785.4375 1264.375,785.2031 Q1264.125,784.9844 1264.0156,784.375 Q1263.9531,783.9531 1263.7344,783.7344 Q1263.3438,783.2969 1262.625,783.0313 Q1261.9063,782.7656 1261.1875,782.7656 Q1260.2813,782.7656 1259.5313,783.1563 Q1258.7813,783.5469 1258.2031,784.4375 Q1257.625,785.3125 1257.625,786.5156 L1257.625,787.8125 Q1257.625,789.2656 1258.6719,790.2344 Q1259.7344,791.2031 1261.5938,791.2031 Q1262.7031,791.2031 1263.4844,790.8906 Q1263.9219,790.7188 1264.4375,790.2031 Q1264.75,789.8906 1264.9219,789.7969 Q1265.0938,789.7031 1265.3281,789.7031 Q1265.7188,789.7031 1266.0156,790.0156 Q1266.3281,790.3125 1266.3281,790.7188 Q1266.3281,791.125 1265.9219,791.5938 Q1265.3281,792.2813 1264.3906,792.6719 Q1263.125,793.2031 1261.6094,793.2031 Q1259.8281,793.2031 1258.4063,792.4688 Q1257.25,791.875 1256.4375,790.6094 Q1255.625,789.3438 1255.625,787.8594 L1255.625,786.5 Q1255.625,784.9375 1256.3438,783.5938 Q1257.0781,782.2344 1258.3594,781.5 Q1259.6563,780.7656 1261.1094,780.7656 Q1261.9688,780.7656 1262.7188,780.9688 Q1263.4844,781.1719 1264.1406,781.5781 Z " fill="#000000"/><text fill="#000000" font-family="sans-serif" font-size="20" font-style="italic" lengthAdjust="spacing" textLength="128.9844" x="1275" y="782.2617">&#171;value object&#187;</text><text fill="#000000" font-family="sans-serif" font-size="20" lengthAdjust="spacing" textLength="92.2656" x="1293.3594" y="807.418">IATACode</text><line style="stroke:#181818;stroke-width:0.5;" x1="1247" x2="1403.9844" y1="816.8125" y2="816.8125"/><text fill="#000000" font-family="sans-serif" font-size="20" lengthAdjust="spacing" textLength="43.3691" x="1252" y="841.5742">code</text></g><!--class ICAOCode--><g class="entity" data-qualified-name="Airport_Aggregate.ICAOCode" data-source-line="35" id="ent0017"><rect fill="#F1F1F1" height="93.4688" rx="2.5" ry="2.5" style="stroke:#181818;stroke-width:0.5;" width="158.9844" x="1246" y="623.5"/><ellipse cx="1262" cy="653.6563" fill="#ADD1B2" rx="12" ry="12" style="stroke:#181818;stroke-width:1;"/><path d="M1264.1406,648.5781 Q1264.3281,648.3281 1264.5469,648.2031 Q1264.7656,648.0625 1265.0156,648.0625 Q1265.4531,648.0625 1265.7344,648.375 Q1266.0156,648.6719 1266.0156,649.3906 L1266.0156,651.0938 Q1266.0156,651.8125 1265.7344,652.125 Q1265.4531,652.4375 1265.0156,652.4375 Q1264.625,652.4375 1264.375,652.2031 Q1264.125,651.9844 1264.0156,651.375 Q1263.9531,650.9531 1263.7344,650.7344 Q1263.3438,650.2969 1262.625,650.0313 Q1261.9063,649.7656 1261.1875,649.7656 Q1260.2813,649.7656 1259.5313,650.1563 Q1258.7813,650.5469 1258.2031,651.4375 Q1257.625,652.3125 1257.625,653.5156 L1257.625,654.8125 Q1257.625,656.2656 1258.6719,657.2344 Q1259.7344,658.2031 1261.5938,658.2031 Q1262.7031,658.2031 1263.4844,657.8906 Q1263.9219,657.7188 1264.4375,657.2031 Q1264.75,656.8906 1264.9219,656.7969 Q1265.0938,656.7031 1265.3281,656.7031 Q1265.7188,656.7031 1266.0156,657.0156 Q1266.3281,657.3125 1266.3281,657.7188 Q1266.3281,658.125 1265.9219,658.5938 Q1265.3281,659.2813 1264.3906,659.6719 Q1263.125,660.2031 1261.6094,660.2031 Q1259.8281,660.2031 1258.4063,659.4688 Q1257.25,658.875 1256.4375,657.6094 Q1255.625,656.3438 1255.625,654.8594 L1255.625,653.5 Q1255.625,651.9375 1256.3438,650.5938 Q1257.0781,649.2344 1258.3594,648.5 Q1259.6563,647.7656 1261.1094,647.7656 Q1261.9688,647.7656 1262.7188,647.9688 Q1263.4844,648.1719 1264.1406,648.5781 Z " fill="#000000"/><text fill="#000000" font-family="sans-serif" font-size="20" font-style="italic" lengthAdjust="spacing" textLength="128.9844" x="1275" y="649.2617">&#171;value object&#187;</text><text fill="#000000" font-family="sans-serif" font-size="20" lengthAdjust="spacing" textLength="96.709" x="1291.1377" y="674.418">ICAOCode</text><line style="stroke:#181818;stroke-width:0.5;" x1="1247" x2="1403.9844" y1="683.8125" y2="683.8125"/><text fill="#000000" font-family="sans-serif" font-size="20" lengthAdjust="spacing" textLength="43.3691" x="1252" y="708.5742">code</text></g><!--class Coordinates_Apt--><g class="entity" data-qualified-name="Airport_Aggregate.Coordinates_Apt" data-source-line="38" id="ent0018"><rect fill="#F1F1F1" height="118.625" rx="2.5" ry="2.5" style="stroke:#181818;stroke-width:0.5;" width="182.9844" x="1234" y="464.5"/><ellipse cx="1250" cy="494.6563" fill="#ADD1B2" rx="12" ry="12" style="stroke:#181818;stroke-width:1;"/><path d="M1252.1406,489.5781 Q1252.3281,489.3281 1252.5469,489.2031 Q1252.7656,489.0625 1253.0156,489.0625 Q1253.4531,489.0625 1253.7344,489.375 Q1254.0156,489.6719 1254.0156,490.3906 L1254.0156,492.0938 Q1254.0156,492.8125 1253.7344,493.125 Q1253.4531,493.4375 1253.0156,493.4375 Q1252.625,493.4375 1252.375,493.2031 Q1252.125,492.9844 1252.0156,492.375 Q1251.9531,491.9531 1251.7344,491.7344 Q1251.3438,491.2969 1250.625,491.0313 Q1249.9063,490.7656 1249.1875,490.7656 Q1248.2813,490.7656 1247.5313,491.1563 Q1246.7813,491.5469 1246.2031,492.4375 Q1245.625,493.3125 1245.625,494.5156 L1245.625,495.8125 Q1245.625,497.2656 1246.6719,498.2344 Q1247.7344,499.2031 1249.5938,499.2031 Q1250.7031,499.2031 1251.4844,498.8906 Q1251.9219,498.7188 1252.4375,498.2031 Q1252.75,497.8906 1252.9219,497.7969 Q1253.0938,497.7031 1253.3281,497.7031 Q1253.7188,497.7031 1254.0156,498.0156 Q1254.3281,498.3125 1254.3281,498.7188 Q1254.3281,499.125 1253.9219,499.5938 Q1253.3281,500.2813 1252.3906,500.6719 Q1251.125,501.2031 1249.6094,501.2031 Q1247.8281,501.2031 1246.4063,500.4688 Q1245.25,499.875 1244.4375,498.6094 Q1243.625,497.3438 1243.625,495.8594 L1243.625,494.5 Q1243.625,492.9375 1244.3438,491.5938 Q1245.0781,490.2344 1246.3594,489.5 Q1247.6563,488.7656 1249.1094,488.7656 Q1249.9688,488.7656 1250.7188,488.9688 Q1251.4844,489.1719 1252.1406,489.5781 Z " fill="#000000"/><text fill="#000000" font-family="sans-serif" font-size="20" font-style="italic" lengthAdjust="spacing" textLength="128.9844" x="1275" y="490.2617">&#171;value object&#187;</text><text fill="#000000" font-family="sans-serif" font-size="20" lengthAdjust="spacing" textLength="148.9844" x="1265" y="515.418">Coordinates_Apt</text><line style="stroke:#181818;stroke-width:0.5;" x1="1235" x2="1415.9844" y1="524.8125" y2="524.8125"/><text fill="#000000" font-family="sans-serif" font-size="20" lengthAdjust="spacing" textLength="64.4922" x="1240" y="549.5742">latitude</text><text fill="#000000" font-family="sans-serif" font-size="20" lengthAdjust="spacing" textLength="81.1816" x="1240" y="574.7305">longitude</text></g><g class="entity" data-qualified-name="Airport_Aggregate.GMN19" data-source-line="42" id="ent0020"><path d="M1491,494 L1491,520 L1417.3,524 L1491,528 L1491,554.3125 A0,0 0 0 0 1491,554.3125 L1772.0879,554.3125 A0,0 0 0 0 1772.0879,554.3125 L1772.0879,504 L1762.0879,494 L1491,494 A0,0 0 0 0 1491,494" fill="#FEFFDD" style="stroke:#181818;stroke-width:0.5;"/><path d="M1762.0879,494 L1762.0879,504 L1772.0879,504 L1762.0879,494" fill="#FEFFDD" style="stroke:#181818;stroke-width:0.5;"/><text fill="#000000" font-family="sans-serif" font-size="20" lengthAdjust="spacing" textLength="107.8418" x="1497" y="519.7617">Coordinates</text><text fill="#000000" font-family="sans-serif" font-size="20" lengthAdjust="spacing" textLength="260.0879" x="1497" y="544.918">(same class as in Simulation)</text></g><!--class Elevation--><g class="entity" data-qualified-name="Airport_Aggregate.Elevation" data-source-line="43" id="ent0022"><rect fill="#F1F1F1" height="118.625" rx="2.5" ry="2.5" style="stroke:#181818;stroke-width:0.5;" width="158.9844" x="1246" y="305.5"/><ellipse cx="1262" cy="335.6563" fill="#ADD1B2" rx="12" ry="12" style="stroke:#181818;stroke-width:1;"/><path d="M1264.1406,330.5781 Q1264.3281,330.3281 1264.5469,330.2031 Q1264.7656,330.0625 1265.0156,330.0625 Q1265.4531,330.0625 1265.7344,330.375 Q1266.0156,330.6719 1266.0156,331.3906 L1266.0156,333.0938 Q1266.0156,333.8125 1265.7344,334.125 Q1265.4531,334.4375 1265.0156,334.4375 Q1264.625,334.4375 1264.375,334.2031 Q1264.125,333.9844 1264.0156,333.375 Q1263.9531,332.9531 1263.7344,332.7344 Q1263.3438,332.2969 1262.625,332.0313 Q1261.9063,331.7656 1261.1875,331.7656 Q1260.2813,331.7656 1259.5313,332.1563 Q1258.7813,332.5469 1258.2031,333.4375 Q1257.625,334.3125 1257.625,335.5156 L1257.625,336.8125 Q1257.625,338.2656 1258.6719,339.2344 Q1259.7344,340.2031 1261.5938,340.2031 Q1262.7031,340.2031 1263.4844,339.8906 Q1263.9219,339.7188 1264.4375,339.2031 Q1264.75,338.8906 1264.9219,338.7969 Q1265.0938,338.7031 1265.3281,338.7031 Q1265.7188,338.7031 1266.0156,339.0156 Q1266.3281,339.3125 1266.3281,339.7188 Q1266.3281,340.125 1265.9219,340.5938 Q1265.3281,341.2813 1264.3906,341.6719 Q1263.125,342.2031 1261.6094,342.2031 Q1259.8281,342.2031 1258.4063,341.4688 Q1257.25,340.875 1256.4375,339.6094 Q1255.625,338.3438 1255.625,336.8594 L1255.625,335.5 Q1255.625,333.9375 1256.3438,332.5938 Q1257.0781,331.2344 1258.3594,330.5 Q1259.6563,329.7656 1261.1094,329.7656 Q1261.9688,329.7656 1262.7188,329.9688 Q1263.4844,330.1719 1264.1406,330.5781 Z " fill="#000000"/><text fill="#000000" font-family="sans-serif" font-size="20" font-style="italic" lengthAdjust="spacing" textLength="128.9844" x="1275" y="331.2617">&#171;value object&#187;</text><text fill="#000000" font-family="sans-serif" font-size="20" lengthAdjust="spacing" textLength="82.2754" x="1298.3545" y="356.418">Elevation</text><line style="stroke:#181818;stroke-width:0.5;" x1="1247" x2="1403.9844" y1="365.8125" y2="365.8125"/><text fill="#000000" font-family="sans-serif" font-size="20" lengthAdjust="spacing" textLength="47.8125" x="1252" y="390.5742">value</text><text fill="#000000" font-family="sans-serif" font-size="20" lengthAdjust="spacing" textLength="32.2461" x="1252" y="415.7305">unit</text></g><g class="entity" data-qualified-name="Airport_Aggregate.GMN23" data-source-line="47" id="ent0024"><path d="M1478,347.5 L1478,361 L1405.18,365 L1478,369 L1478,382.6563 A0,0 0 0 0 1478,382.6563 L1784.6934,382.6563 A0,0 0 0 0 1784.6934,382.6563 L1784.6934,357.5 L1774.6934,347.5 L1478,347.5 A0,0 0 0 0 1478,347.5" fill="#FEFFDD" style="stroke:#181818;stroke-width:0.5;"/><path d="M1774.6934,347.5 L1774.6934,357.5 L1784.6934,357.5 L1774.6934,347.5" fill="#FEFFDD" style="stroke:#181818;stroke-width:0.5;"/><text fill="#000000" font-family="sans-serif" font-size="20" lengthAdjust="spacing" textLength="285.6934" x="1484" y="373.2617">metres above sea level (US052)</text></g><!--class FlightRoute--><g class="entity" data-qualified-name="FlightRoute_Aggregate.FlightRoute" data-source-line="56" id="ent0031"><rect fill="#F1F1F1" height="118.625" rx="2.5" ry="2.5" style="stroke:#181818;stroke-width:0.5;" width="160.9844" x="23" y="76.5"/><ellipse cx="50.119" cy="119.2344" fill="#ADD1B2" rx="12" ry="12" style="stroke:#181818;stroke-width:1;"/><path d="M52.2597,114.1563 Q52.4472,113.9063 52.6659,113.7813 Q52.8847,113.6406 53.1347,113.6406 Q53.5722,113.6406 53.8534,113.9531 Q54.1347,114.25 54.1347,114.9688 L54.1347,116.6719 Q54.1347,117.3906 53.8534,117.7031 Q53.5722,118.0156 53.1347,118.0156 Q52.744,118.0156 52.494,117.7813 Q52.244,117.5625 52.1347,116.9531 Q52.0722,116.5313 51.8534,116.3125 Q51.4628,115.875 50.744,115.6094 Q50.0253,115.3438 49.3065,115.3438 Q48.4003,115.3438 47.6503,115.7344 Q46.9003,116.125 46.3222,117.0156 Q45.744,117.8906 45.744,119.0938 L45.744,120.3906 Q45.744,121.8438 46.7909,122.8125 Q47.8534,123.7813 49.7128,123.7813 Q50.8222,123.7813 51.6034,123.4688 Q52.0409,123.2969 52.5565,122.7813 Q52.869,122.4688 53.0409,122.375 Q53.2128,122.2813 53.4472,122.2813 Q53.8378,122.2813 54.1347,122.5938 Q54.4472,122.8906 54.4472,123.2969 Q54.4472,123.7031 54.0409,124.1719 Q53.4472,124.8594 52.5097,125.25 Q51.244,125.7813 49.7284,125.7813 Q47.9472,125.7813 46.5253,125.0469 Q45.369,124.4531 44.5565,123.1875 Q43.744,121.9219 43.744,120.4375 L43.744,119.0781 Q43.744,117.5156 44.4628,116.1719 Q45.1972,114.8125 46.4784,114.0781 Q47.7753,113.3438 49.2284,113.3438 Q50.0878,113.3438 50.8378,113.5469 Q51.6034,113.75 52.2597,114.1563 Z " fill="#000000"/><text fill="#000000" font-family="sans-serif" font-size="20" font-style="italic" lengthAdjust="spacing" textLength="70.0488" x="83.7032" y="102.2617">&#171;entity&#187;</text><text fill="#000000" font-family="sans-serif" font-size="20" font-style="italic" lengthAdjust="spacing" textLength="56.709" x="90.3731" y="127.418">&#171;root&#187;</text><text fill="#000000" font-family="sans-serif" font-size="20" lengthAdjust="spacing" textLength="102.2754" x="67.5899" y="152.5742">FlightRoute</text><line style="stroke:#181818;stroke-width:0.5;" x1="24" x2="182.9844" y1="161.9688" y2="161.9688"/><text fill="#000000" font-family="sans-serif" font-size="20" lengthAdjust="spacing" textLength="148.9844" x="29" y="186.7305">deactivationDate</text></g><!--class RouteName--><g class="entity" data-qualified-name="FlightRoute_Aggregate.RouteName" data-source-line="59" id="ent0032"><rect fill="#F1F1F1" height="93.4688" rx="2.5" ry="2.5" style="stroke:#181818;stroke-width:0.5;" width="158.9844" x="564" y="89.5"/><ellipse cx="580" cy="119.6563" fill="#ADD1B2" rx="12" ry="12" style="stroke:#181818;stroke-width:1;"/><path d="M582.1406,114.5781 Q582.3281,114.3281 582.5469,114.2031 Q582.7656,114.0625 583.0156,114.0625 Q583.4531,114.0625 583.7344,114.375 Q584.0156,114.6719 584.0156,115.3906 L584.0156,117.0938 Q584.0156,117.8125 583.7344,118.125 Q583.4531,118.4375 583.0156,118.4375 Q582.625,118.4375 582.375,118.2031 Q582.125,117.9844 582.0156,117.375 Q581.9531,116.9531 581.7344,116.7344 Q581.3438,116.2969 580.625,116.0313 Q579.9063,115.7656 579.1875,115.7656 Q578.2813,115.7656 577.5313,116.1563 Q576.7813,116.5469 576.2031,117.4375 Q575.625,118.3125 575.625,119.5156 L575.625,120.8125 Q575.625,122.2656 576.6719,123.2344 Q577.7344,124.2031 579.5938,124.2031 Q580.7031,124.2031 581.4844,123.8906 Q581.9219,123.7188 582.4375,123.2031 Q582.75,122.8906 582.9219,122.7969 Q583.0938,122.7031 583.3281,122.7031 Q583.7188,122.7031 584.0156,123.0156 Q584.3281,123.3125 584.3281,123.7188 Q584.3281,124.125 583.9219,124.5938 Q583.3281,125.2813 582.3906,125.6719 Q581.125,126.2031 579.6094,126.2031 Q577.8281,126.2031 576.4063,125.4688 Q575.25,124.875 574.4375,123.6094 Q573.625,122.3438 573.625,120.8594 L573.625,119.5 Q573.625,117.9375 574.3438,116.5938 Q575.0781,115.2344 576.3594,114.5 Q577.6563,113.7656 579.1094,113.7656 Q579.9688,113.7656 580.7188,113.9688 Q581.4844,114.1719 582.1406,114.5781 Z " fill="#000000"/><text fill="#000000" font-family="sans-serif" font-size="20" font-style="italic" lengthAdjust="spacing" textLength="128.9844" x="593" y="115.2617">&#171;value object&#187;</text><text fill="#000000" font-family="sans-serif" font-size="20" lengthAdjust="spacing" textLength="106.7188" x="604.1328" y="140.418">RouteName</text><line style="stroke:#181818;stroke-width:0.5;" x1="565" x2="721.9844" y1="149.8125" y2="149.8125"/><text fill="#000000" font-family="sans-serif" font-size="20" lengthAdjust="spacing" textLength="50.0293" x="570" y="174.5742">name</text></g><g class="entity" data-qualified-name="FlightRoute_Aggregate.GMN33" data-source-line="62" id="ent0034"><path d="M784,106 L784,132 L723.24,136 L784,140 L784,166.3125 A0,0 0 0 0 784,166.3125 L1067.3633,166.3125 A0,0 0 0 0 1067.3633,166.3125 L1067.3633,116 L1057.3633,106 L784,106 A0,0 0 0 0 784,106" fill="#FEFFDD" style="stroke:#181818;stroke-width:0.5;"/><path d="M1057.3633,106 L1057.3633,116 L1067.3633,116 L1057.3633,106" fill="#FEFFDD" style="stroke:#181818;stroke-width:0.5;"/><text fill="#000000" font-family="sans-serif" font-size="20" lengthAdjust="spacing" textLength="207.3438" x="790" y="131.7617">2 letters + up to 4 digits</text><text fill="#000000" font-family="sans-serif" font-size="20" lengthAdjust="spacing" textLength="262.3633" x="790" y="156.918">(e.g. TP123). unique (US073)</text></g><!--reverse link AirControlArea to AreaCode--><g class="link" data-entity-1="ent0003" data-entity-2="ent0004" data-link-type="composition" data-source-line="22" id="lnk12"><path codeLine="22" d="M1419.8541,1064.3786 C1571.3441,1097.4386 1882.35,1165.32 2031.47,1197.86" fill="none" id="AirControlArea-backto-AreaCode" style="stroke:#181818;stroke-width:1;"/><polygon fill="#181818" points="1408.13,1061.82,1413.1392,1067.0073,1419.8541,1064.3786,1414.8449,1059.1913,1408.13,1061.82" style="stroke:#181818;stroke-width:1;"/><text fill="#000000" font-family="sans-serif" font-size="20" lengthAdjust="spacing" textLength="103.3984" x="1818" y="1145.7617">identifiedBy</text></g><!--reverse link AirControlArea to Coordinates_ACA--><g class="link" data-entity-1="ent0003" data-entity-2="ent0008" data-link-type="composition" data-source-line="23" id="lnk13"><path codeLine="23" d="M1420.13,1044 C1565.93,1044 1858.38,1044 2013.97,1044" fill="none" id="AirControlArea-backto-Coordinates_ACA" style="stroke:#181818;stroke-width:1;"/><polygon fill="#181818" points="1408.13,1044,1414.13,1048,1420.13,1044,1414.13,1040,1408.13,1044" style="stroke:#181818;stroke-width:1;"/><text fill="#000000" font-family="sans-serif" font-size="20" lengthAdjust="spacing" textLength="101.2012" x="1819" y="1038.7617">boundedBy</text></g><!--reverse link Airport to IATACode--><g class="link" data-entity-1="ent0015" data-entity-2="ent0016" data-link-type="composition" data-source-line="48" id="lnk26"><path codeLine="48" d="M984.7327,573.4074 C1018.6327,601.6274 1055.98,631.5 1099,662 C1146.46,695.65 1201.83,730.33 1245.82,756.88" fill="none" id="Airport-backto-IATACode" style="stroke:#181818;stroke-width:1;"/><polygon fill="#181818" points="975.51,565.73,977.5622,572.6429,984.7327,573.4074,982.6805,566.4945,975.51,565.73" style="stroke:#181818;stroke-width:1;"/><text fill="#000000" font-family="sans-serif" font-size="20" lengthAdjust="spacing" textLength="103.3984" x="1100" y="656.7617">identifiedBy</text></g><!--reverse link Airport to ICAOCode--><g class="link" data-entity-1="ent0015" data-entity-2="ent0017" data-link-type="composition" data-source-line="49" id="lnk27"><path codeLine="49" d="M986.9661,546.1821 C1054.5561,570.9721 1165.62,611.72 1245.95,641.19" fill="none" id="Airport-backto-ICAOCode" style="stroke:#181818;stroke-width:1;"/><polygon fill="#181818" points="975.7,542.05,979.9557,547.8714,986.9661,546.1821,982.7104,540.3607,975.7,542.05" style="stroke:#181818;stroke-width:1;"/><text fill="#000000" font-family="sans-serif" font-size="20" lengthAdjust="spacing" textLength="103.3984" x="1100" y="583.7617">identifiedBy</text></g><!--reverse link Airport to Coordinates_Apt--><g class="link" data-entity-1="ent0015" data-entity-2="ent0018" data-link-type="composition" data-source-line="50" id="lnk28"><path codeLine="50" d="M987.7,524 C1051.97,524 1153.71,524 1233.79,524" fill="none" id="Airport-backto-Coordinates_Apt" style="stroke:#181818;stroke-width:1;"/><polygon fill="#181818" points="975.7,524,981.7,528,987.7,524,981.7,520,975.7,524" style="stroke:#181818;stroke-width:1;"/><text fill="#000000" font-family="sans-serif" font-size="20" lengthAdjust="spacing" textLength="83.3887" x="1110" y="518.7617">locatedAt</text></g><!--reverse link Airport to Elevation--><g class="link" data-entity-1="ent0015" data-entity-2="ent0022" data-link-type="composition" data-source-line="51" id="lnk29"><path codeLine="51" d="M986.8438,499.8884 C1054.4338,472.8884 1165.62,428.47 1245.95,396.38" fill="none" id="Airport-backto-Elevation" style="stroke:#181818;stroke-width:1;"/><polygon fill="#181818" points="975.7,504.34,982.7557,505.8288,986.8438,499.8884,979.788,498.3996,975.7,504.34" style="stroke:#181818;stroke-width:1;"/><text fill="#000000" font-family="sans-serif" font-size="20" lengthAdjust="spacing" textLength="88.9453" x="1107.5" y="409.7617">situatedAt</text></g><!--reverse link FlightRoute to RouteName--><g class="link" data-entity-1="ent0031" data-entity-2="ent0032" data-link-type="composition" data-source-line="63" id="lnk36"><path codeLine="63" d="M196.17,136 C298.26,136 462.13,136 563.76,136" fill="none" id="FlightRoute-backto-RouteName" style="stroke:#181818;stroke-width:1;"/><polygon fill="#181818" points="184.17,136,190.17,140,196.17,136,190.17,132,184.17,136" style="stroke:#181818;stroke-width:1;"/><text fill="#000000" font-family="sans-serif" font-size="20" lengthAdjust="spacing" textLength="103.3984" x="246" y="130.7617">identifiedBy</text></g><!--link Airport to AirControlArea--><g class="link" data-entity-1="ent0015" data-entity-2="ent0003" data-link-type="dependency" data-source-line="67" id="lnk37"><path codeLine="67" d="M975.59,596.21 C1009.43,645.29 1055.9,711.33 1099,768 C1163.24,852.47 1238.7329,943.0509 1284.1329,996.6709" fill="none" id="Airport-to-AirControlArea" style="stroke:#181818;stroke-width:1;"/><polygon fill="#181818" points="1288.01,1001.25,1285.2471,991.7966,1284.7791,997.4341,1279.1416,996.9661,1288.01,1001.25" style="stroke:#181818;stroke-width:1;"/><polygon fill="#000000" points="1112.8826,760.9153,1107.7748,746.5813,1100.325,752.3212,1112.8826,760.9153" style="stroke:#000000;stroke-width:1;"/><text fill="#000000" font-family="sans-serif" font-size="20" lengthAdjust="spacing" textLength="81.1719" x="1121" y="762.7617">locatedIn</text><text fill="#000000" font-family="sans-serif" font-size="20" lengthAdjust="spacing" textLength="7.7832" x="983.515" y="629.4296">*</text><text fill="#000000" font-family="sans-serif" font-size="20" lengthAdjust="spacing" textLength="11.123" x="1270.9618" y="989.2202">1</text></g><!--link FlightRoute to Airport--><g class="link" data-entity-1="ent0031" data-entity-2="ent0015" data-link-type="dependency" data-source-line="69" id="lnk38"><path codeLine="69" d="M184.13,159.82 C309.84,199.12 559.95,284.24 754,394 C797.58,418.65 837.8221,449.4372 870.5821,476.7572" fill="none" id="FlightRoute-to-Airport" style="stroke:#181818;stroke-width:1;"/><polygon fill="#181818" points="875.19,480.6,870.8399,471.7639,871.35,477.3977,865.7162,477.9078,875.19,480.6" style="stroke:#181818;stroke-width:1;"/><polygon fill="#000000" points="418.7632,217.9316,407.595,207.5959,403.6528,216.1343,418.7632,217.9316" style="stroke:#000000;stroke-width:1;"/><text fill="#000000" font-family="sans-serif" font-size="20" lengthAdjust="spacing" textLength="85.5957" x="424.5" y="222.7617">hasOrigin</text><text fill="#000000" font-family="sans-serif" font-size="20" lengthAdjust="spacing" textLength="7.7832" x="191.9226" y="183.9545">*</text><text fill="#000000" font-family="sans-serif" font-size="20" lengthAdjust="spacing" textLength="11.123" x="856.3469" y="497.0318">1</text></g><!--link FlightRoute to Airport--><g class="link" data-entity-1="ent0031" data-entity-2="ent0015" data-link-type="dependency" data-source-line="70" id="lnk39"><path codeLine="70" d="M180.21,195.64 C233.81,235.9 308.59,288.2 380,325 C554.01,414.67 772.1472,481.3246 869.6772,508.9546" fill="none" id="FlightRoute-to-Airport-1" style="stroke:#181818;stroke-width:1;"/><polygon fill="#181818" points="875.45,510.59,867.8811,504.2883,870.6393,509.2271,865.7005,511.9854,875.45,510.59" style="stroke:#181818;stroke-width:1;"/><polygon fill="#000000" points="395.2832,314.8879,384.0531,304.6195,380.1623,313.1815,395.2832,314.8879" style="stroke:#000000;stroke-width:1;"/><text fill="#000000" font-family="sans-serif" font-size="20" lengthAdjust="spacing" textLength="132.3047" x="401" y="319.7617">hasDestination</text><text fill="#000000" font-family="sans-serif" font-size="20" lengthAdjust="spacing" textLength="7.7832" x="180.801" y="223.8685">*</text><text fill="#000000" font-family="sans-serif" font-size="20" lengthAdjust="spacing" textLength="11.123" x="856.2965" y="531.2341">1</text></g><?plantuml-src bLJHRjem57tFLrpbgNG3KTfjKeIGidILAathLBetfCgGI_1mxCnskgLJ_ttN8MaI81NZYTZdt7jzph7DbikCQPOAjTfY336kMIxiZP9spfyH9cDFuDg2LQ1vih4GSuqhovNqJ4s5ZAssBC6vBGI2ssOo4TW2I1MZmGokngr5pUJMBNuSUniU8s2QsG9IJ9UeZUTLHS4FkOve7Ar4g94zXacYCM4MVPXEMVqncy5V3s0bc37GPH0CfUMs8CnqgfMo5VYb8H0ieXbf_uc9744jVz8nAXoXQAyYI6MnaaAj6s80kUI_YCabcC9OJE7intpyOJnuRH8ffMCkQLZp64PXNw-Kow-CnitBblJD_dI_QL_9f0jeBHmEkTyuWFlQ8rYgNCPC5wE5Z0GddGBmrqg3OLjqNCFJJF0LgVT-8LbZhkzHcpsTpuVqQqj2hfBmQuxnvw8FVZXSEL99UUcc85FQdcY_W_RwJlgmTAUTLRzbvN1EanMTLDo63-69gQW8KNZtNuJEuJFRnnDj_yNfNbF5eBsoa6U6JburPyQ5TSxJtDLNiadg5u5FvLBVGELY-OzIRuyEqjG8w4vRZTHmgPuG35bFUoXs5sGos2MZT8mYqQX-B3yDgfRwJTIX6lJCqLSSsZraUrn3ybOWIc0JmHlX3dUlSekdnB05VoEACJ9wJdUzhwb49nyb-PkphCU8AiY7yZVC02QajxNqgC8xo3Ftb5_HCquXSe70KJA2X-yNayl1g7x3d36VBfqnxJEu-zgfsn7UALKBwf_xC1pEmB_mzo_zgmEt4cQUrww_OpMqibG06sRkw5ZSuO_0Z-6lqLZdkhEJclm3?></g></svg>