<?plantuml 1.2026.2?><svg xmlns="http://www.w3.org/2000/svg" xmlns:xlink="http://www.w3.org/1999/xlink" contentStyleType="text/css" data-diagram-type="CLASS" height="1786px" preserveAspectRatio="none" style="width:2626px;height:1786px;background:#FFFFFF;" version="1.1" viewBox="0 0 2626 1786" width="2626px" zoomAndPan="magnify"><defs/><g><!--cluster AirTransportCompany_Aggregate--><g class="cluster" data-qualified-name="AirTransportCompany_Aggregate" data-source-line="7" id="ent0002"><rect fill="none" height="445" rx="2.5" ry="2.5" style="stroke:#000000;stroke-width:1.5;" width="1244" x="1376" y="470"/><text fill="#000000" font-family="sans-serif" font-size="20" font-style="italic" lengthAdjust="spacing" textLength="112.3242" x="1941.8379" y="492.7617">&#171;aggregate&#187;</text><text fill="#000000" font-family="sans-serif" font-size="20" font-weight="bold" lengthAdjust="spacing" textLength="322.2754" x="1836.8623" y="517.918">AirTransportCompany_Aggregate</text></g><!--cluster Aircraft_Aggregate--><g class="cluster" data-qualified-name="Aircraft_Aggregate" data-source-line="27" id="ent0019"><rect fill="none" height="439" rx="2.5" ry="2.5" style="stroke:#000000;stroke-width:1.5;" width="1234.5" x="899" y="7"/><text fill="#000000" font-family="sans-serif" font-size="20" font-style="italic" lengthAdjust="spacing" textLength="112.3242" x="1460.0879" y="29.7617">&#171;aggregate&#187;</text><text fill="#000000" font-family="sans-serif" font-size="20" font-weight="bold" lengthAdjust="spacing" textLength="181.1621" x="1425.6689" y="54.918">Aircraft_Aggregate</text></g><!--cluster Collaborator_Aggregate--><g class="cluster" data-qualified-name="Collaborator_Aggregate" data-source-line="54" id="ent0035"><rect fill="none" height="612" rx="2.5" ry="2.5" style="stroke:#000000;stroke-width:1.5;" width="2201" x="7" y="1168"/><text fill="#000000" font-family="sans-serif" font-size="20" font-style="italic" lengthAdjust="spacing" textLength="112.3242" x="1051.3379" y="1190.7617">&#171;aggregate&#187;</text><text fill="#000000" font-family="sans-serif" font-size="20" font-weight="bold" lengthAdjust="spacing" textLength="228.9258" x="993.0371" y="1215.918">Collaborator_Aggregate</text></g><!--cluster FlightRoute_Aggregate--><g class="cluster" data-qualified-name="FlightRoute_Aggregate" data-source-line="85" id="ent0058"><rect fill="none" height="205" rx="2.5" ry="2.5" style="stroke:#000000;stroke-width:1.5;" width="1628.5" x="958.5" y="939"/><text fill="#000000" font-family="sans-serif" font-size="20" font-style="italic" lengthAdjust="spacing" textLength="112.3242" x="1716.5879" y="961.7617">&#171;aggregate&#187;</text><text fill="#000000" font-family="sans-serif" font-size="20" font-weight="bold" lengthAdjust="spacing" textLength="221.1133" x="1662.1934" y="986.918">FlightRoute_Aggregate</text></g><!--class AirTransportCompany--><g class="entity" data-qualified-name="AirTransportCompany_Aggregate.AirTransportCompany" data-source-line="8" id="ent0003"><rect fill="#F1F1F1" height="85.4688" rx="2.5" ry="2.5" style="stroke:#181818;stroke-width:0.5;" width="229.625" x="1392" y="758.5"/><ellipse cx="1408" cy="801.2344" fill="#ADD1B2" rx="12" ry="12" style="stroke:#181818;stroke-width:1;"/><path d="M1410.1406,796.1563 Q1410.3281,795.9063 1410.5469,795.7813 Q1410.7656,795.6406 1411.0156,795.6406 Q1411.4531,795.6406 1411.7344,795.9531 Q1412.0156,796.25 1412.0156,796.9688 L1412.0156,798.6719 Q1412.0156,799.3906 1411.7344,799.7031 Q1411.4531,800.0156 1411.0156,800.0156 Q1410.625,800.0156 1410.375,799.7813 Q1410.125,799.5625 1410.0156,798.9531 Q1409.9531,798.5313 1409.7344,798.3125 Q1409.3438,797.875 1408.625,797.6094 Q1407.9063,797.3438 1407.1875,797.3438 Q1406.2813,797.3438 1405.5313,797.7344 Q1404.7813,798.125 1404.2031,799.0156 Q1403.625,799.8906 1403.625,801.0938 L1403.625,802.3906 Q1403.625,803.8438 1404.6719,804.8125 Q1405.7344,805.7813 1407.5938,805.7813 Q1408.7031,805.7813 1409.4844,805.4688 Q1409.9219,805.2969 1410.4375,804.7813 Q1410.75,804.4688 1410.9219,804.375 Q1411.0938,804.2813 1411.3281,804.2813 Q1411.7188,804.2813 1412.0156,804.5938 Q1412.3281,804.8906 1412.3281,805.2969 Q1412.3281,805.7031 1411.9219,806.1719 Q1411.3281,806.8594 1410.3906,807.25 Q1409.125,807.7813 1407.6094,807.7813 Q1405.8281,807.7813 1404.4063,807.0469 Q1403.25,806.4531 1402.4375,805.1875 Q1401.625,803.9219 1401.625,802.4375 L1401.625,801.0781 Q1401.625,799.5156 1402.3438,798.1719 Q1403.0781,796.8125 1404.3594,796.0781 Q1405.6563,795.3438 1407.1094,795.3438 Q1407.9688,795.3438 1408.7188,795.5469 Q1409.4844,795.75 1410.1406,796.1563 Z " fill="#000000"/><text fill="#000000" font-family="sans-serif" font-size="20" font-style="italic" lengthAdjust="spacing" textLength="70.0488" x="1485.7881" y="784.2617">&#171;entity&#187;</text><text fill="#000000" font-family="sans-serif" font-size="20" font-style="italic" lengthAdjust="spacing" textLength="56.709" x="1492.458" y="809.418">&#171;root&#187;</text><text fill="#000000" font-family="sans-serif" font-size="20" lengthAdjust="spacing" textLength="195.625" x="1423" y="834.5742">AirTransportCompany</text></g><!--class CompanyName--><g class="entity" data-qualified-name="AirTransportCompany_Aggregate.CompanyName" data-source-line="10" id="ent0004"><rect fill="#F1F1F1" height="93.4688" rx="2.5" ry="2.5" style="stroke:#181818;stroke-width:0.5;" width="172.9453" x="1903" y="805.5"/><ellipse cx="1919" cy="835.6563" fill="#ADD1B2" rx="12" ry="12" style="stroke:#181818;stroke-width:1;"/><path d="M1921.1406,830.5781 Q1921.3281,830.3281 1921.5469,830.2031 Q1921.7656,830.0625 1922.0156,830.0625 Q1922.4531,830.0625 1922.7344,830.375 Q1923.0156,830.6719 1923.0156,831.3906 L1923.0156,833.0938 Q1923.0156,833.8125 1922.7344,834.125 Q1922.4531,834.4375 1922.0156,834.4375 Q1921.625,834.4375 1921.375,834.2031 Q1921.125,833.9844 1921.0156,833.375 Q1920.9531,832.9531 1920.7344,832.7344 Q1920.3438,832.2969 1919.625,832.0313 Q1918.9063,831.7656 1918.1875,831.7656 Q1917.2813,831.7656 1916.5313,832.1563 Q1915.7813,832.5469 1915.2031,833.4375 Q1914.625,834.3125 1914.625,835.5156 L1914.625,836.8125 Q1914.625,838.2656 1915.6719,839.2344 Q1916.7344,840.2031 1918.5938,840.2031 Q1919.7031,840.2031 1920.4844,839.8906 Q1920.9219,839.7188 1921.4375,839.2031 Q1921.75,838.8906 1921.9219,838.7969 Q1922.0938,838.7031 1922.3281,838.7031 Q1922.7188,838.7031 1923.0156,839.0156 Q1923.3281,839.3125 1923.3281,839.7188 Q1923.3281,840.125 1922.9219,840.5938 Q1922.3281,841.2813 1921.3906,841.6719 Q1920.125,842.2031 1918.6094,842.2031 Q1916.8281,842.2031 1915.4063,841.4688 Q1914.25,840.875 1913.4375,839.6094 Q1912.625,838.3438 1912.625,836.8594 L1912.625,835.5 Q1912.625,833.9375 1913.3438,832.5938 Q1914.0781,831.2344 1915.3594,830.5 Q1916.6563,829.7656 1918.1094,829.7656 Q1918.9688,829.7656 1919.7188,829.9688 Q1920.4844,830.1719 1921.1406,830.5781 Z " fill="#000000"/><text fill="#000000" font-family="sans-serif" font-size="20" font-style="italic" lengthAdjust="spacing" textLength="128.9844" x="1938.9805" y="831.2617">&#171;value object&#187;</text><text fill="#000000" font-family="sans-serif" font-size="20" lengthAdjust="spacing" textLength="138.9453" x="1934" y="856.418">CompanyName</text><line style="stroke:#181818;stroke-width:0.5;" x1="1904" x2="2074.9453" y1="865.8125" y2="865.8125"/><text fill="#000000" font-family="sans-serif" font-size="20" lengthAdjust="spacing" textLength="50.0293" x="1909" y="890.5742">name</text></g><g class="entity" data-qualified-name="AirTransportCompany_Aggregate.GMN5" data-source-line="13" id="ent0006"><path d="M2349,834.5 L2349,848 L2076.25,852 L2349,856 L2349,869.6563 A0,0 0 0 0 2349,869.6563 L2510.0879,869.6563 A0,0 0 0 0 2510.0879,869.6563 L2510.0879,844.5 L2500.0879,834.5 L2349,834.5 A0,0 0 0 0 2349,834.5" fill="#FEFFDD" style="stroke:#181818;stroke-width:0.5;"/><path d="M2500.0879,834.5 L2500.0879,844.5 L2510.0879,844.5 L2500.0879,834.5" fill="#FEFFDD" style="stroke:#181818;stroke-width:0.5;"/><text fill="#000000" font-family="sans-serif" font-size="20" lengthAdjust="spacing" textLength="140.0879" x="2355" y="860.2617">unique (US060)</text></g><!--class IATACode_ATC--><g class="entity" data-qualified-name="AirTransportCompany_Aggregate.IATACode_ATC" data-source-line="14" id="ent0008"><rect fill="#F1F1F1" height="93.4688" rx="2.5" ry="2.5" style="stroke:#181818;stroke-width:0.5;" width="177.3887" x="1901" y="672.5"/><ellipse cx="1917" cy="702.6563" fill="#ADD1B2" rx="12" ry="12" style="stroke:#181818;stroke-width:1;"/><path d="M1919.1406,697.5781 Q1919.3281,697.3281 1919.5469,697.2031 Q1919.7656,697.0625 1920.0156,697.0625 Q1920.4531,697.0625 1920.7344,697.375 Q1921.0156,697.6719 1921.0156,698.3906 L1921.0156,700.0938 Q1921.0156,700.8125 1920.7344,701.125 Q1920.4531,701.4375 1920.0156,701.4375 Q1919.625,701.4375 1919.375,701.2031 Q1919.125,700.9844 1919.0156,700.375 Q1918.9531,699.9531 1918.7344,699.7344 Q1918.3438,699.2969 1917.625,699.0313 Q1916.9063,698.7656 1916.1875,698.7656 Q1915.2813,698.7656 1914.5313,699.1563 Q1913.7813,699.5469 1913.2031,700.4375 Q1912.625,701.3125 1912.625,702.5156 L1912.625,703.8125 Q1912.625,705.2656 1913.6719,706.2344 Q1914.7344,707.2031 1916.5938,707.2031 Q1917.7031,707.2031 1918.4844,706.8906 Q1918.9219,706.7188 1919.4375,706.2031 Q1919.75,705.8906 1919.9219,705.7969 Q1920.0938,705.7031 1920.3281,705.7031 Q1920.7188,705.7031 1921.0156,706.0156 Q1921.3281,706.3125 1921.3281,706.7188 Q1921.3281,707.125 1920.9219,707.5938 Q1920.3281,708.2813 1919.3906,708.6719 Q1918.125,709.2031 1916.6094,709.2031 Q1914.8281,709.2031 1913.4063,708.4688 Q1912.25,707.875 1911.4375,706.6094 Q1910.625,705.3438 1910.625,703.8594 L1910.625,702.5 Q1910.625,700.9375 1911.3438,699.5938 Q1912.0781,698.2344 1913.3594,697.5 Q1914.6563,696.7656 1916.1094,696.7656 Q1916.9688,696.7656 1917.7188,696.9688 Q1918.4844,697.1719 1919.1406,697.5781 Z " fill="#000000"/><text fill="#000000" font-family="sans-serif" font-size="20" font-style="italic" lengthAdjust="spacing" textLength="128.9844" x="1939.2021" y="698.2617">&#171;value object&#187;</text><text fill="#000000" font-family="sans-serif" font-size="20" lengthAdjust="spacing" textLength="143.3887" x="1932" y="723.418">IATACode_ATC</text><line style="stroke:#181818;stroke-width:0.5;" x1="1902" x2="2077.3887" y1="732.8125" y2="732.8125"/><text fill="#000000" font-family="sans-serif" font-size="20" lengthAdjust="spacing" textLength="43.3691" x="1907" y="757.5742">code</text></g><!--class ICAOCode_ATC--><g class="entity" data-qualified-name="AirTransportCompany_Aggregate.ICAOCode_ATC" data-source-line="17" id="ent0009"><rect fill="#F1F1F1" height="93.4688" rx="2.5" ry="2.5" style="stroke:#181818;stroke-width:0.5;" width="181.832" x="1898.5" y="539.5"/><ellipse cx="1914.5" cy="569.6563" fill="#ADD1B2" rx="12" ry="12" style="stroke:#181818;stroke-width:1;"/><path d="M1916.6406,564.5781 Q1916.8281,564.3281 1917.0469,564.2031 Q1917.2656,564.0625 1917.5156,564.0625 Q1917.9531,564.0625 1918.2344,564.375 Q1918.5156,564.6719 1918.5156,565.3906 L1918.5156,567.0938 Q1918.5156,567.8125 1918.2344,568.125 Q1917.9531,568.4375 1917.5156,568.4375 Q1917.125,568.4375 1916.875,568.2031 Q1916.625,567.9844 1916.5156,567.375 Q1916.4531,566.9531 1916.2344,566.7344 Q1915.8438,566.2969 1915.125,566.0313 Q1914.4063,565.7656 1913.6875,565.7656 Q1912.7813,565.7656 1912.0313,566.1563 Q1911.2813,566.5469 1910.7031,567.4375 Q1910.125,568.3125 1910.125,569.5156 L1910.125,570.8125 Q1910.125,572.2656 1911.1719,573.2344 Q1912.2344,574.2031 1914.0938,574.2031 Q1915.2031,574.2031 1915.9844,573.8906 Q1916.4219,573.7188 1916.9375,573.2031 Q1917.25,572.8906 1917.4219,572.7969 Q1917.5938,572.7031 1917.8281,572.7031 Q1918.2188,572.7031 1918.5156,573.0156 Q1918.8281,573.3125 1918.8281,573.7188 Q1918.8281,574.125 1918.4219,574.5938 Q1917.8281,575.2813 1916.8906,575.6719 Q1915.625,576.2031 1914.1094,576.2031 Q1912.3281,576.2031 1910.9063,575.4688 Q1909.75,574.875 1908.9375,573.6094 Q1908.125,572.3438 1908.125,570.8594 L1908.125,569.5 Q1908.125,567.9375 1908.8438,566.5938 Q1909.5781,565.2344 1910.8594,564.5 Q1912.1563,563.7656 1913.6094,563.7656 Q1914.4688,563.7656 1915.2188,563.9688 Q1915.9844,564.1719 1916.6406,564.5781 Z " fill="#000000"/><text fill="#000000" font-family="sans-serif" font-size="20" font-style="italic" lengthAdjust="spacing" textLength="128.9844" x="1938.9238" y="565.2617">&#171;value object&#187;</text><text fill="#000000" font-family="sans-serif" font-size="20" lengthAdjust="spacing" textLength="147.832" x="1929.5" y="590.418">ICAOCode_ATC</text><line style="stroke:#181818;stroke-width:0.5;" x1="1899.5" x2="2079.332" y1="599.8125" y2="599.8125"/><text fill="#000000" font-family="sans-serif" font-size="20" lengthAdjust="spacing" textLength="43.3691" x="1904.5" y="624.5742">code</text></g><g class="entity" data-qualified-name="AirTransportCompany_Aggregate.GMN10" data-source-line="20" id="ent0011"><path d="M2257.5,701.5 L2257.5,715 L2078.08,719 L2257.5,723 L2257.5,736.6563 A0,0 0 0 0 2257.5,736.6563 L2601.9375,736.6563 A0,0 0 0 0 2601.9375,736.6563 L2601.9375,711.5 L2591.9375,701.5 L2257.5,701.5 A0,0 0 0 0 2257.5,701.5" fill="#FEFFDD" style="stroke:#181818;stroke-width:0.5;"/><path d="M2591.9375,701.5 L2591.9375,711.5 L2601.9375,711.5 L2591.9375,701.5" fill="#FEFFDD" style="stroke:#181818;stroke-width:0.5;"/><text fill="#000000" font-family="sans-serif" font-size="20" lengthAdjust="spacing" textLength="323.4375" x="2263.5" y="727.2617">IATACode (same class as in Airport)</text></g><g class="entity" data-qualified-name="AirTransportCompany_Aggregate.GMN13" data-source-line="21" id="ent0014"><path d="M2255,568.5 L2255,582 L2080.72,586 L2255,590 L2255,603.6563 A0,0 0 0 0 2255,603.6563 L2603.8809,603.6563 A0,0 0 0 0 2603.8809,603.6563 L2603.8809,578.5 L2593.8809,568.5 L2255,568.5 A0,0 0 0 0 2255,568.5" fill="#FEFFDD" style="stroke:#181818;stroke-width:0.5;"/><path d="M2593.8809,568.5 L2593.8809,578.5 L2603.8809,578.5 L2593.8809,568.5" fill="#FEFFDD" style="stroke:#181818;stroke-width:0.5;"/><text fill="#000000" font-family="sans-serif" font-size="20" lengthAdjust="spacing" textLength="327.8809" x="2261" y="594.2617">ICAOCode (same class as in Airport)</text></g><!--class Aircraft--><g class="entity" data-qualified-name="Aircraft_Aggregate.Aircraft" data-source-line="28" id="ent0020"><rect fill="#F1F1F1" height="118.625" rx="2.5" ry="2.5" style="stroke:#181818;stroke-width:0.5;" width="279.8516" x="915" y="274.5"/><ellipse cx="1017.4014" cy="317.2344" fill="#ADD1B2" rx="12" ry="12" style="stroke:#181818;stroke-width:1;"/><path d="M1019.542,312.1563 Q1019.7295,311.9063 1019.9482,311.7813 Q1020.167,311.6406 1020.417,311.6406 Q1020.8545,311.6406 1021.1357,311.9531 Q1021.417,312.25 1021.417,312.9688 L1021.417,314.6719 Q1021.417,315.3906 1021.1357,315.7031 Q1020.8545,316.0156 1020.417,316.0156 Q1020.0264,316.0156 1019.7764,315.7813 Q1019.5264,315.5625 1019.417,314.9531 Q1019.3545,314.5313 1019.1357,314.3125 Q1018.7451,313.875 1018.0264,313.6094 Q1017.3076,313.3438 1016.5889,313.3438 Q1015.6826,313.3438 1014.9326,313.7344 Q1014.1826,314.125 1013.6045,315.0156 Q1013.0264,315.8906 1013.0264,317.0938 L1013.0264,318.3906 Q1013.0264,319.8438 1014.0732,320.8125 Q1015.1357,321.7813 1016.9951,321.7813 Q1018.1045,321.7813 1018.8857,321.4688 Q1019.3232,321.2969 1019.8389,320.7813 Q1020.1514,320.4688 1020.3232,320.375 Q1020.4951,320.2813 1020.7295,320.2813 Q1021.1201,320.2813 1021.417,320.5938 Q1021.7295,320.8906 1021.7295,321.2969 Q1021.7295,321.7031 1021.3232,322.1719 Q1020.7295,322.8594 1019.792,323.25 Q1018.5264,323.7813 1017.0107,323.7813 Q1015.2295,323.7813 1013.8076,323.0469 Q1012.6514,322.4531 1011.8389,321.1875 Q1011.0264,319.9219 1011.0264,318.4375 L1011.0264,317.0781 Q1011.0264,315.5156 1011.7451,314.1719 Q1012.4795,312.8125 1013.7607,312.0781 Q1015.0576,311.3438 1016.5107,311.3438 Q1017.3701,311.3438 1018.1201,311.5469 Q1018.8857,311.75 1019.542,312.1563 Z " fill="#000000"/><text fill="#000000" font-family="sans-serif" font-size="20" font-style="italic" lengthAdjust="spacing" textLength="70.0488" x="1037.4014" y="300.2617">&#171;entity&#187;</text><text fill="#000000" font-family="sans-serif" font-size="20" font-style="italic" lengthAdjust="spacing" textLength="56.709" x="1044.0713" y="325.418">&#171;root&#187;</text><text fill="#000000" font-family="sans-serif" font-size="20" lengthAdjust="spacing" textLength="63.3398" x="1040.7559" y="350.5742">Aircraft</text><line style="stroke:#181818;stroke-width:0.5;" x1="916" x2="1193.8516" y1="359.9688" y2="359.9688"/><text fill="#000000" font-family="sans-serif" font-size="20" lengthAdjust="spacing" textLength="267.8516" x="921" y="384.7305">numberOfFlightCrewMembers</text></g><!--class RegistrationNumber--><g class="entity" data-qualified-name="Aircraft_Aggregate.RegistrationNumber" data-source-line="31" id="ent0021"><rect fill="#F1F1F1" height="118.625" rx="2.5" ry="2.5" style="stroke:#181818;stroke-width:0.5;" width="211.8516" x="1401" y="310.5"/><ellipse cx="1417" cy="340.6563" fill="#ADD1B2" rx="12" ry="12" style="stroke:#181818;stroke-width:1;"/><path d="M1419.1406,335.5781 Q1419.3281,335.3281 1419.5469,335.2031 Q1419.7656,335.0625 1420.0156,335.0625 Q1420.4531,335.0625 1420.7344,335.375 Q1421.0156,335.6719 1421.0156,336.3906 L1421.0156,338.0938 Q1421.0156,338.8125 1420.7344,339.125 Q1420.4531,339.4375 1420.0156,339.4375 Q1419.625,339.4375 1419.375,339.2031 Q1419.125,338.9844 1419.0156,338.375 Q1418.9531,337.9531 1418.7344,337.7344 Q1418.3438,337.2969 1417.625,337.0313 Q1416.9063,336.7656 1416.1875,336.7656 Q1415.2813,336.7656 1414.5313,337.1563 Q1413.7813,337.5469 1413.2031,338.4375 Q1412.625,339.3125 1412.625,340.5156 L1412.625,341.8125 Q1412.625,343.2656 1413.6719,344.2344 Q1414.7344,345.2031 1416.5938,345.2031 Q1417.7031,345.2031 1418.4844,344.8906 Q1418.9219,344.7188 1419.4375,344.2031 Q1419.75,343.8906 1419.9219,343.7969 Q1420.0938,343.7031 1420.3281,343.7031 Q1420.7188,343.7031 1421.0156,344.0156 Q1421.3281,344.3125 1421.3281,344.7188 Q1421.3281,345.125 1420.9219,345.5938 Q1420.3281,346.2813 1419.3906,346.6719 Q1418.125,347.2031 1416.6094,347.2031 Q1414.8281,347.2031 1413.4063,346.4688 Q1412.25,345.875 1411.4375,344.6094 Q1410.625,343.3438 1410.625,341.8594 L1410.625,340.5 Q1410.625,338.9375 1411.3438,337.5938 Q1412.0781,336.2344 1413.3594,335.5 Q1414.6563,334.7656 1416.1094,334.7656 Q1416.9688,334.7656 1417.7188,334.9688 Q1418.4844,335.1719 1419.1406,335.5781 Z " fill="#000000"/><text fill="#000000" font-family="sans-serif" font-size="20" font-style="italic" lengthAdjust="spacing" textLength="128.9844" x="1456.4336" y="336.2617">&#171;value object&#187;</text><text fill="#000000" font-family="sans-serif" font-size="20" lengthAdjust="spacing" textLength="177.8516" x="1432" y="361.418">RegistrationNumber</text><line style="stroke:#181818;stroke-width:0.5;" x1="1402" x2="1611.8516" y1="370.8125" y2="370.8125"/><text fill="#000000" font-family="sans-serif" font-size="20" lengthAdjust="spacing" textLength="67.8125" x="1407" y="395.5742">number</text><text fill="#000000" font-family="sans-serif" font-size="20" lengthAdjust="spacing" textLength="168.9648" x="1407" y="420.7305">registrationCountry</text></g><g class="entity" data-qualified-name="Aircraft_Aggregate.GMN22" data-source-line="35" id="ent0023"><path d="M1861.5,352.5 L1861.5,366 L1613.15,370 L1861.5,374 L1861.5,387.6563 A0,0 0 0 0 1861.5,387.6563 L2117.0703,387.6563 A0,0 0 0 0 2117.0703,387.6563 L2117.0703,362.5 L2107.0703,352.5 L1861.5,352.5 A0,0 0 0 0 1861.5,352.5" fill="#FEFFDD" style="stroke:#181818;stroke-width:0.5;"/><path d="M2107.0703,352.5 L2107.0703,362.5 L2117.0703,362.5 L2107.0703,352.5" fill="#FEFFDD" style="stroke:#181818;stroke-width:0.5;"/><text fill="#000000" font-family="sans-serif" font-size="20" lengthAdjust="spacing" textLength="234.5703" x="1867.5" y="378.2617">unique worldwide (US070)</text></g><!--class CabinConfiguration--><g class="entity" data-qualified-name="Aircraft_Aggregate.CabinConfiguration" data-source-line="36" id="ent0025"><rect fill="#F1F1F1" height="60.3125" rx="2.5" ry="2.5" style="stroke:#181818;stroke-width:0.5;" width="205.2207" x="1404.5" y="210"/><ellipse cx="1420.5" cy="240.1563" fill="#ADD1B2" rx="12" ry="12" style="stroke:#181818;stroke-width:1;"/><path d="M1422.6406,235.0781 Q1422.8281,234.8281 1423.0469,234.7031 Q1423.2656,234.5625 1423.5156,234.5625 Q1423.9531,234.5625 1424.2344,234.875 Q1424.5156,235.1719 1424.5156,235.8906 L1424.5156,237.5938 Q1424.5156,238.3125 1424.2344,238.625 Q1423.9531,238.9375 1423.5156,238.9375 Q1423.125,238.9375 1422.875,238.7031 Q1422.625,238.4844 1422.5156,237.875 Q1422.4531,237.4531 1422.2344,237.2344 Q1421.8438,236.7969 1421.125,236.5313 Q1420.4063,236.2656 1419.6875,236.2656 Q1418.7813,236.2656 1418.0313,236.6563 Q1417.2813,237.0469 1416.7031,237.9375 Q1416.125,238.8125 1416.125,240.0156 L1416.125,241.3125 Q1416.125,242.7656 1417.1719,243.7344 Q1418.2344,244.7031 1420.0938,244.7031 Q1421.2031,244.7031 1421.9844,244.3906 Q1422.4219,244.2188 1422.9375,243.7031 Q1423.25,243.3906 1423.4219,243.2969 Q1423.5938,243.2031 1423.8281,243.2031 Q1424.2188,243.2031 1424.5156,243.5156 Q1424.8281,243.8125 1424.8281,244.2188 Q1424.8281,244.625 1424.4219,245.0938 Q1423.8281,245.7813 1422.8906,246.1719 Q1421.625,246.7031 1420.1094,246.7031 Q1418.3281,246.7031 1416.9063,245.9688 Q1415.75,245.375 1414.9375,244.1094 Q1414.125,242.8438 1414.125,241.3594 L1414.125,240 Q1414.125,238.4375 1414.8438,237.0938 Q1415.5781,235.7344 1416.8594,235 Q1418.1563,234.2656 1419.6094,234.2656 Q1420.4688,234.2656 1421.2188,234.4688 Q1421.9844,234.6719 1422.6406,235.0781 Z " fill="#000000"/><text fill="#000000" font-family="sans-serif" font-size="20" font-style="italic" lengthAdjust="spacing" textLength="128.9844" x="1456.6182" y="235.7617">&#171;value object&#187;</text><text fill="#000000" font-family="sans-serif" font-size="20" lengthAdjust="spacing" textLength="171.2207" x="1435.5" y="260.918">CabinConfiguration</text></g><!--class SeatClass--><g class="entity" data-qualified-name="Aircraft_Aggregate.SeatClass" data-source-line="38" id="ent0026"><rect fill="#F1F1F1" height="118.625" rx="2.5" ry="2.5" style="stroke:#181818;stroke-width:0.5;" width="158.9844" x="1910" y="187.5"/><ellipse cx="1926" cy="217.6563" fill="#ADD1B2" rx="12" ry="12" style="stroke:#181818;stroke-width:1;"/><path d="M1928.1406,212.5781 Q1928.3281,212.3281 1928.5469,212.2031 Q1928.7656,212.0625 1929.0156,212.0625 Q1929.4531,212.0625 1929.7344,212.375 Q1930.0156,212.6719 1930.0156,213.3906 L1930.0156,215.0938 Q1930.0156,215.8125 1929.7344,216.125 Q1929.4531,216.4375 1929.0156,216.4375 Q1928.625,216.4375 1928.375,216.2031 Q1928.125,215.9844 1928.0156,215.375 Q1927.9531,214.9531 1927.7344,214.7344 Q1927.3438,214.2969 1926.625,214.0313 Q1925.9063,213.7656 1925.1875,213.7656 Q1924.2813,213.7656 1923.5313,214.1563 Q1922.7813,214.5469 1922.2031,215.4375 Q1921.625,216.3125 1921.625,217.5156 L1921.625,218.8125 Q1921.625,220.2656 1922.6719,221.2344 Q1923.7344,222.2031 1925.5938,222.2031 Q1926.7031,222.2031 1927.4844,221.8906 Q1927.9219,221.7188 1928.4375,221.2031 Q1928.75,220.8906 1928.9219,220.7969 Q1929.0938,220.7031 1929.3281,220.7031 Q1929.7188,220.7031 1930.0156,221.0156 Q1930.3281,221.3125 1930.3281,221.7188 Q1930.3281,222.125 1929.9219,222.5938 Q1929.3281,223.2813 1928.3906,223.6719 Q1927.125,224.2031 1925.6094,224.2031 Q1923.8281,224.2031 1922.4063,223.4688 Q1921.25,222.875 1920.4375,221.6094 Q1919.625,220.3438 1919.625,218.8594 L1919.625,217.5 Q1919.625,215.9375 1920.3438,214.5938 Q1921.0781,213.2344 1922.3594,212.5 Q1923.6563,211.7656 1925.1094,211.7656 Q1925.9688,211.7656 1926.7188,211.9688 Q1927.4844,212.1719 1928.1406,212.5781 Z " fill="#000000"/><text fill="#000000" font-family="sans-serif" font-size="20" font-style="italic" lengthAdjust="spacing" textLength="128.9844" x="1939" y="213.2617">&#171;value object&#187;</text><text fill="#000000" font-family="sans-serif" font-size="20" lengthAdjust="spacing" textLength="91.1523" x="1957.916" y="238.418">SeatClass</text><line style="stroke:#181818;stroke-width:0.5;" x1="1911" x2="2067.9844" y1="247.8125" y2="247.8125"/><text fill="#000000" font-family="sans-serif" font-size="20" lengthAdjust="spacing" textLength="98.916" x="1916" y="272.5742">className</text><text fill="#000000" font-family="sans-serif" font-size="20" lengthAdjust="spacing" textLength="140.0684" x="1916" y="297.7305">numberOfSeats</text></g><g class="entity" data-qualified-name="Aircraft_Aggregate.GMN28" data-source-line="43" id="ent0029"><path d="M1865.5,87 L1865.5,147.3125 L2113.3164,147.3125 L2113.3164,97 L2103.3164,87 L1865.5,87" fill="#FEFFDD" style="stroke:#181818;stroke-width:0.5;"/><path d="M2103.3164,87 L2103.3164,97 L2113.3164,97 L2103.3164,87" fill="#FEFFDD" style="stroke:#181818;stroke-width:1;"/><text fill="#000000" font-family="sans-serif" font-size="20" lengthAdjust="spacing" textLength="226.8164" x="1871.5" y="112.7617">total seats cannot exceed</text><text fill="#000000" font-family="sans-serif" font-size="20" lengthAdjust="spacing" textLength="213.4277" x="1871.5" y="137.918">model capacity (US070)</text></g><!--class OperationalStatus--><g class="entity" data-qualified-name="Aircraft_Aggregate.OperationalStatus" data-source-line="44" id="ent0031"><rect fill="#F1F1F1" height="93.4688" rx="2.5" ry="2.5" style="stroke:#181818;stroke-width:0.5;" width="194.0977" x="1410" y="76.5"/><ellipse cx="1426" cy="94.0781" fill="#EB937F" rx="12" ry="12" style="stroke:#181818;stroke-width:1;"/><path d="M1423.9531,95.1406 L1423.9531,98.0781 L1429.0469,98.0781 L1429.0469,96.9844 Q1429.0469,96.2656 1429.3281,95.9688 Q1429.6094,95.6563 1430.0625,95.6563 Q1430.5,95.6563 1430.7813,95.9688 Q1431.0625,96.2656 1431.0625,96.9844 L1431.0625,100.0781 L1421.625,100.0781 Q1420.9063,100.0781 1420.5938,99.7969 Q1420.2969,99.5156 1420.2969,99.0781 Q1420.2969,98.625 1420.6094,98.3594 Q1420.9219,98.0781 1421.625,98.0781 L1421.9375,98.0781 L1421.9375,90.25 L1421.625,90.25 Q1420.9063,90.25 1420.5938,89.9688 Q1420.2969,89.6875 1420.2969,89.2344 Q1420.2969,88.7813 1420.5938,88.5156 Q1420.9063,88.2344 1421.625,88.2344 L1430.6094,88.2344 L1430.6094,91.2813 Q1430.6094,92 1430.3281,92.3125 Q1430.0625,92.6094 1429.625,92.6094 Q1429.1719,92.6094 1428.8906,92.3125 Q1428.6094,92.0156 1428.6094,91.2813 L1428.6094,90.25 L1423.9531,90.25 L1423.9531,93.1406 L1425.7031,93.1406 Q1425.7031,92.3594 1425.8438,92.125 Q1426.1563,91.6563 1426.7031,91.6563 Q1427.1563,91.6563 1427.4219,91.9688 Q1427.7031,92.2656 1427.7031,92.9844 L1427.7031,95.2969 Q1427.7031,95.9531 1427.5469,96.1719 Q1427.2344,96.625 1426.7031,96.625 Q1426.1563,96.625 1425.8438,96.1563 Q1425.7031,95.9219 1425.7031,95.1406 L1423.9531,95.1406 Z " fill="#000000"/><text fill="#000000" font-family="sans-serif" font-size="20" lengthAdjust="spacing" textLength="160.0977" x="1441" y="102.2617">OperationalStatus</text><line style="stroke:#181818;stroke-width:0.5;" x1="1411" x2="1603.0977" y1="111.6563" y2="111.6563"/><text fill="#000000" font-family="sans-serif" font-size="20" lengthAdjust="spacing" textLength="52.2461" x="1416" y="136.418">active</text><text fill="#000000" font-family="sans-serif" font-size="20" lengthAdjust="spacing" textLength="150.0684" x="1416" y="161.5742">decommissioned</text></g><!--class Collaborator--><g class="entity" data-qualified-name="Collaborator_Aggregate.Collaborator" data-source-line="55" id="ent0036"><rect fill="#F1F1F1" height="143.7813" rx="2.5" ry="2.5" style="stroke:#181818;stroke-width:0.5;" width="142.9453" x="709" y="1415"/><ellipse cx="725" cy="1457.7344" fill="#A9DCDF" rx="12" ry="12" style="stroke:#181818;stroke-width:1;"/><path d="M727.4531,1459.7656 L722.5781,1459.7656 L722.0938,1460.9844 L722.5781,1460.9844 Q723.3125,1460.9844 723.6094,1461.2656 Q723.9219,1461.5313 723.9219,1461.9844 Q723.9219,1462.4219 723.6094,1462.7031 Q723.3125,1462.9844 722.5781,1462.9844 L719.8906,1462.9844 Q719.1719,1462.9844 718.8594,1462.7031 Q718.5469,1462.4219 718.5469,1461.9844 Q718.5469,1461.5313 718.875,1461.25 Q719.2031,1460.9688 719.9375,1460.9844 L723.0781,1453.1563 L721.7813,1453.1563 Q721.0469,1453.1563 720.7344,1452.875 Q720.4375,1452.5938 720.4375,1452.1406 Q720.4375,1451.6875 720.7344,1451.4219 Q721.0469,1451.1406 721.7813,1451.1406 L726.0938,1451.1406 L730.0781,1460.9844 Q730.7813,1460.9844 731.0156,1461.1406 Q731.4688,1461.4531 731.4688,1461.9844 Q731.4688,1462.4219 731.1563,1462.7031 Q730.8594,1462.9844 730.1406,1462.9844 L727.4375,1462.9844 Q726.7188,1462.9844 726.4063,1462.7031 Q726.0938,1462.4219 726.0938,1461.9844 Q726.0938,1461.5313 726.4063,1461.2656 Q726.7188,1460.9844 727.4375,1460.9844 L727.9219,1460.9844 L727.4531,1459.7656 Z M726.625,1457.7656 L725,1453.7969 L723.3906,1457.7656 L726.625,1457.7656 Z " fill="#000000"/><text fill="#000000" font-family="sans-serif" font-size="20" font-style="italic" lengthAdjust="spacing" textLength="70.0488" x="759.4482" y="1440.7617">&#171;entity&#187;</text><text fill="#000000" font-family="sans-serif" font-size="20" font-style="italic" lengthAdjust="spacing" textLength="56.709" x="766.1182" y="1465.918">&#171;root&#187;</text><text fill="#000000" font-family="sans-serif" font-size="20" font-style="italic" lengthAdjust="spacing" textLength="108.9453" x="740" y="1491.0742">Collaborator</text><line style="stroke:#181818;stroke-width:0.5;" x1="710" x2="850.9453" y1="1500.4688" y2="1500.4688"/><text fill="#000000" font-family="sans-serif" font-size="20" lengthAdjust="spacing" textLength="50.0293" x="715" y="1525.2305">name</text><text fill="#000000" font-family="sans-serif" font-size="20" lengthAdjust="spacing" textLength="68.9355" x="715" y="1550.3867">position</text></g><!--class ATCCollaborator--><g class="entity" data-qualified-name="Collaborator_Aggregate.ATCCollaborator" data-source-line="60" id="ent0037"><rect fill="#F1F1F1" height="60.3125" rx="2.5" ry="2.5" style="stroke:#181818;stroke-width:0.5;" width="182.9453" x="1415.5" y="1704"/><ellipse cx="1431.5" cy="1734.1563" fill="#ADD1B2" rx="12" ry="12" style="stroke:#181818;stroke-width:1;"/><path d="M1433.6406,1729.0781 Q1433.8281,1728.8281 1434.0469,1728.7031 Q1434.2656,1728.5625 1434.5156,1728.5625 Q1434.9531,1728.5625 1435.2344,1728.875 Q1435.5156,1729.1719 1435.5156,1729.8906 L1435.5156,1731.5938 Q1435.5156,1732.3125 1435.2344,1732.625 Q1434.9531,1732.9375 1434.5156,1732.9375 Q1434.125,1732.9375 1433.875,1732.7031 Q1433.625,1732.4844 1433.5156,1731.875 Q1433.4531,1731.4531 1433.2344,1731.2344 Q1432.8438,1730.7969 1432.125,1730.5313 Q1431.4063,1730.2656 1430.6875,1730.2656 Q1429.7813,1730.2656 1429.0313,1730.6563 Q1428.2813,1731.0469 1427.7031,1731.9375 Q1427.125,1732.8125 1427.125,1734.0156 L1427.125,1735.3125 Q1427.125,1736.7656 1428.1719,1737.7344 Q1429.2344,1738.7031 1431.0938,1738.7031 Q1432.2031,1738.7031 1432.9844,1738.3906 Q1433.4219,1738.2188 1433.9375,1737.7031 Q1434.25,1737.3906 1434.4219,1737.2969 Q1434.5938,1737.2031 1434.8281,1737.2031 Q1435.2188,1737.2031 1435.5156,1737.5156 Q1435.8281,1737.8125 1435.8281,1738.2188 Q1435.8281,1738.625 1435.4219,1739.0938 Q1434.8281,1739.7813 1433.8906,1740.1719 Q1432.625,1740.7031 1431.1094,1740.7031 Q1429.3281,1740.7031 1427.9063,1739.9688 Q1426.75,1739.375 1425.9375,1738.1094 Q1425.125,1736.8438 1425.125,1735.3594 L1425.125,1734 Q1425.125,1732.4375 1425.8438,1731.0938 Q1426.5781,1729.7344 1427.8594,1729 Q1429.1563,1728.2656 1430.6094,1728.2656 Q1431.4688,1728.2656 1432.2188,1728.4688 Q1432.9844,1728.6719 1433.6406,1729.0781 Z " fill="#000000"/><text fill="#000000" font-family="sans-serif" font-size="20" font-style="italic" lengthAdjust="spacing" textLength="70.0488" x="1485.9482" y="1729.7617">&#171;entity&#187;</text><text fill="#000000" font-family="sans-serif" font-size="20" lengthAdjust="spacing" textLength="148.9453" x="1446.5" y="1754.918">ATCCollaborator</text></g><!--class FlightControlOperator--><g class="entity" data-qualified-name="Collaborator_Aggregate.FlightControlOperator" data-source-line="62" id="ent0038"><rect fill="#F1F1F1" height="60.3125" rx="2.5" ry="2.5" style="stroke:#181818;stroke-width:0.5;" width="226.3047" x="1394" y="1604"/><ellipse cx="1410" cy="1634.1563" fill="#ADD1B2" rx="12" ry="12" style="stroke:#181818;stroke-width:1;"/><path d="M1412.1406,1629.0781 Q1412.3281,1628.8281 1412.5469,1628.7031 Q1412.7656,1628.5625 1413.0156,1628.5625 Q1413.4531,1628.5625 1413.7344,1628.875 Q1414.0156,1629.1719 1414.0156,1629.8906 L1414.0156,1631.5938 Q1414.0156,1632.3125 1413.7344,1632.625 Q1413.4531,1632.9375 1413.0156,1632.9375 Q1412.625,1632.9375 1412.375,1632.7031 Q1412.125,1632.4844 1412.0156,1631.875 Q1411.9531,1631.4531 1411.7344,1631.2344 Q1411.3438,1630.7969 1410.625,1630.5313 Q1409.9063,1630.2656 1409.1875,1630.2656 Q1408.2813,1630.2656 1407.5313,1630.6563 Q1406.7813,1631.0469 1406.2031,1631.9375 Q1405.625,1632.8125 1405.625,1634.0156 L1405.625,1635.3125 Q1405.625,1636.7656 1406.6719,1637.7344 Q1407.7344,1638.7031 1409.5938,1638.7031 Q1410.7031,1638.7031 1411.4844,1638.3906 Q1411.9219,1638.2188 1412.4375,1637.7031 Q1412.75,1637.3906 1412.9219,1637.2969 Q1413.0938,1637.2031 1413.3281,1637.2031 Q1413.7188,1637.2031 1414.0156,1637.5156 Q1414.3281,1637.8125 1414.3281,1638.2188 Q1414.3281,1638.625 1413.9219,1639.0938 Q1413.3281,1639.7813 1412.3906,1640.1719 Q1411.125,1640.7031 1409.6094,1640.7031 Q1407.8281,1640.7031 1406.4063,1639.9688 Q1405.25,1639.375 1404.4375,1638.1094 Q1403.625,1636.8438 1403.625,1635.3594 L1403.625,1634 Q1403.625,1632.4375 1404.3438,1631.0938 Q1405.0781,1629.7344 1406.3594,1629 Q1407.6563,1628.2656 1409.1094,1628.2656 Q1409.9688,1628.2656 1410.7188,1628.4688 Q1411.4844,1628.6719 1412.1406,1629.0781 Z " fill="#000000"/><text fill="#000000" font-family="sans-serif" font-size="20" font-style="italic" lengthAdjust="spacing" textLength="70.0488" x="1486.1279" y="1629.7617">&#171;entity&#187;</text><text fill="#000000" font-family="sans-serif" font-size="20" lengthAdjust="spacing" textLength="192.3047" x="1425" y="1654.918">FlightControlOperator</text></g><!--class WeatherPerson--><g class="entity" data-qualified-name="Collaborator_Aggregate.WeatherPerson" data-source-line="64" id="ent0039"><rect fill="#F1F1F1" height="60.3125" rx="2.5" ry="2.5" style="stroke:#181818;stroke-width:0.5;" width="172.9551" x="1420.5" y="1504"/><ellipse cx="1436.5" cy="1534.1563" fill="#ADD1B2" rx="12" ry="12" style="stroke:#181818;stroke-width:1;"/><path d="M1438.6406,1529.0781 Q1438.8281,1528.8281 1439.0469,1528.7031 Q1439.2656,1528.5625 1439.5156,1528.5625 Q1439.9531,1528.5625 1440.2344,1528.875 Q1440.5156,1529.1719 1440.5156,1529.8906 L1440.5156,1531.5938 Q1440.5156,1532.3125 1440.2344,1532.625 Q1439.9531,1532.9375 1439.5156,1532.9375 Q1439.125,1532.9375 1438.875,1532.7031 Q1438.625,1532.4844 1438.5156,1531.875 Q1438.4531,1531.4531 1438.2344,1531.2344 Q1437.8438,1530.7969 1437.125,1530.5313 Q1436.4063,1530.2656 1435.6875,1530.2656 Q1434.7813,1530.2656 1434.0313,1530.6563 Q1433.2813,1531.0469 1432.7031,1531.9375 Q1432.125,1532.8125 1432.125,1534.0156 L1432.125,1535.3125 Q1432.125,1536.7656 1433.1719,1537.7344 Q1434.2344,1538.7031 1436.0938,1538.7031 Q1437.2031,1538.7031 1437.9844,1538.3906 Q1438.4219,1538.2188 1438.9375,1537.7031 Q1439.25,1537.3906 1439.4219,1537.2969 Q1439.5938,1537.2031 1439.8281,1537.2031 Q1440.2188,1537.2031 1440.5156,1537.5156 Q1440.8281,1537.8125 1440.8281,1538.2188 Q1440.8281,1538.625 1440.4219,1539.0938 Q1439.8281,1539.7813 1438.8906,1540.1719 Q1437.625,1540.7031 1436.1094,1540.7031 Q1434.3281,1540.7031 1432.9063,1539.9688 Q1431.75,1539.375 1430.9375,1538.1094 Q1430.125,1536.8438 1430.125,1535.3594 L1430.125,1534 Q1430.125,1532.4375 1430.8438,1531.0938 Q1431.5781,1529.7344 1432.8594,1529 Q1434.1563,1528.2656 1435.6094,1528.2656 Q1436.4688,1528.2656 1437.2188,1528.4688 Q1437.9844,1528.6719 1438.6406,1529.0781 Z " fill="#000000"/><text fill="#000000" font-family="sans-serif" font-size="20" font-style="italic" lengthAdjust="spacing" textLength="70.0488" x="1485.9531" y="1529.7617">&#171;entity&#187;</text><text fill="#000000" font-family="sans-serif" font-size="20" lengthAdjust="spacing" textLength="138.9551" x="1451.5" y="1554.918">WeatherPerson</text></g><!--class SecurityClearance--><g class="entity" data-qualified-name="Collaborator_Aggregate.SecurityClearance" data-source-line="66" id="ent0040"><rect fill="#F1F1F1" height="93.4688" rx="2.5" ry="2.5" style="stroke:#181818;stroke-width:0.5;" width="197.4082" x="1408.5" y="1370.5"/><ellipse cx="1424.5" cy="1400.6563" fill="#ADD1B2" rx="12" ry="12" style="stroke:#181818;stroke-width:1;"/><path d="M1426.6406,1395.5781 Q1426.8281,1395.3281 1427.0469,1395.2031 Q1427.2656,1395.0625 1427.5156,1395.0625 Q1427.9531,1395.0625 1428.2344,1395.375 Q1428.5156,1395.6719 1428.5156,1396.3906 L1428.5156,1398.0938 Q1428.5156,1398.8125 1428.2344,1399.125 Q1427.9531,1399.4375 1427.5156,1399.4375 Q1427.125,1399.4375 1426.875,1399.2031 Q1426.625,1398.9844 1426.5156,1398.375 Q1426.4531,1397.9531 1426.2344,1397.7344 Q1425.8438,1397.2969 1425.125,1397.0313 Q1424.4063,1396.7656 1423.6875,1396.7656 Q1422.7813,1396.7656 1422.0313,1397.1563 Q1421.2813,1397.5469 1420.7031,1398.4375 Q1420.125,1399.3125 1420.125,1400.5156 L1420.125,1401.8125 Q1420.125,1403.2656 1421.1719,1404.2344 Q1422.2344,1405.2031 1424.0938,1405.2031 Q1425.2031,1405.2031 1425.9844,1404.8906 Q1426.4219,1404.7188 1426.9375,1404.2031 Q1427.25,1403.8906 1427.4219,1403.7969 Q1427.5938,1403.7031 1427.8281,1403.7031 Q1428.2188,1403.7031 1428.5156,1404.0156 Q1428.8281,1404.3125 1428.8281,1404.7188 Q1428.8281,1405.125 1428.4219,1405.5938 Q1427.8281,1406.2813 1426.8906,1406.6719 Q1425.625,1407.2031 1424.1094,1407.2031 Q1422.3281,1407.2031 1420.9063,1406.4688 Q1419.75,1405.875 1418.9375,1404.6094 Q1418.125,1403.3438 1418.125,1401.8594 L1418.125,1400.5 Q1418.125,1398.9375 1418.8438,1397.5938 Q1419.5781,1396.2344 1420.8594,1395.5 Q1422.1563,1394.7656 1423.6094,1394.7656 Q1424.4688,1394.7656 1425.2188,1394.9688 Q1425.9844,1395.1719 1426.6406,1395.5781 Z " fill="#000000"/><text fill="#000000" font-family="sans-serif" font-size="20" font-style="italic" lengthAdjust="spacing" textLength="128.9844" x="1456.7119" y="1396.2617">&#171;value object&#187;</text><text fill="#000000" font-family="sans-serif" font-size="20" lengthAdjust="spacing" textLength="163.4082" x="1439.5" y="1421.418">SecurityClearance</text><line style="stroke:#181818;stroke-width:0.5;" x1="1409.5" x2="1604.9082" y1="1430.8125" y2="1430.8125"/><text fill="#000000" font-family="sans-serif" font-size="20" lengthAdjust="spacing" textLength="95.5957" x="1414.5" y="1455.5742">expiryDate</text></g><g class="entity" data-qualified-name="Collaborator_Aggregate.GMN41" data-source-line="69" id="ent0042"><path d="M1787,1387 L1787,1413 L1605.53,1417 L1787,1421 L1787,1447.3125 A0,0 0 0 0 1787,1447.3125 L2191.5254,1447.3125 A0,0 0 0 0 2191.5254,1447.3125 L2191.5254,1397 L2181.5254,1387 L1787,1387 A0,0 0 0 0 1787,1387" fill="#FEFFDD" style="stroke:#181818;stroke-width:0.5;"/><path d="M2181.5254,1387 L2181.5254,1397 L2191.5254,1397 L2181.5254,1387" fill="#FEFFDD" style="stroke:#181818;stroke-width:0.5;"/><text fill="#000000" font-family="sans-serif" font-size="20" lengthAdjust="spacing" textLength="115.6152" x="1793" y="1412.7617">auto-expires.</text><text fill="#000000" font-family="sans-serif" font-size="20" lengthAdjust="spacing" textLength="383.5254" x="1793" y="1437.918">Updatable by Admin/Backoffice (sec. 3.1.1)</text></g><!--class SkillsAssessment--><g class="entity" data-qualified-name="Collaborator_Aggregate.SkillsAssessment" data-source-line="70" id="ent0044"><rect fill="#F1F1F1" height="93.4688" rx="2.5" ry="2.5" style="stroke:#181818;stroke-width:0.5;" width="189.5957" x="1412" y="1237.5"/><ellipse cx="1428" cy="1267.6563" fill="#ADD1B2" rx="12" ry="12" style="stroke:#181818;stroke-width:1;"/><path d="M1430.1406,1262.5781 Q1430.3281,1262.3281 1430.5469,1262.2031 Q1430.7656,1262.0625 1431.0156,1262.0625 Q1431.4531,1262.0625 1431.7344,1262.375 Q1432.0156,1262.6719 1432.0156,1263.3906 L1432.0156,1265.0938 Q1432.0156,1265.8125 1431.7344,1266.125 Q1431.4531,1266.4375 1431.0156,1266.4375 Q1430.625,1266.4375 1430.375,1266.2031 Q1430.125,1265.9844 1430.0156,1265.375 Q1429.9531,1264.9531 1429.7344,1264.7344 Q1429.3438,1264.2969 1428.625,1264.0313 Q1427.9063,1263.7656 1427.1875,1263.7656 Q1426.2813,1263.7656 1425.5313,1264.1563 Q1424.7813,1264.5469 1424.2031,1265.4375 Q1423.625,1266.3125 1423.625,1267.5156 L1423.625,1268.8125 Q1423.625,1270.2656 1424.6719,1271.2344 Q1425.7344,1272.2031 1427.5938,1272.2031 Q1428.7031,1272.2031 1429.4844,1271.8906 Q1429.9219,1271.7188 1430.4375,1271.2031 Q1430.75,1270.8906 1430.9219,1270.7969 Q1431.0938,1270.7031 1431.3281,1270.7031 Q1431.7188,1270.7031 1432.0156,1271.0156 Q1432.3281,1271.3125 1432.3281,1271.7188 Q1432.3281,1272.125 1431.9219,1272.5938 Q1431.3281,1273.2813 1430.3906,1273.6719 Q1429.125,1274.2031 1427.6094,1274.2031 Q1425.8281,1274.2031 1424.4063,1273.4688 Q1423.25,1272.875 1422.4375,1271.6094 Q1421.625,1270.3438 1421.625,1268.8594 L1421.625,1267.5 Q1421.625,1265.9375 1422.3438,1264.5938 Q1423.0781,1263.2344 1424.3594,1262.5 Q1425.6563,1261.7656 1427.1094,1261.7656 Q1427.9688,1261.7656 1428.7188,1261.9688 Q1429.4844,1262.1719 1430.1406,1262.5781 Z " fill="#000000"/><text fill="#000000" font-family="sans-serif" font-size="20" font-style="italic" lengthAdjust="spacing" textLength="128.9844" x="1456.3057" y="1263.2617">&#171;value object&#187;</text><text fill="#000000" font-family="sans-serif" font-size="20" lengthAdjust="spacing" textLength="155.5957" x="1443" y="1288.418">SkillsAssessment</text><line style="stroke:#181818;stroke-width:0.5;" x1="1413" x2="1600.5957" y1="1297.8125" y2="1297.8125"/><text fill="#000000" font-family="sans-serif" font-size="20" lengthAdjust="spacing" textLength="148.9551" x="1418" y="1322.5742">assessmentDate</text></g><g class="entity" data-qualified-name="Collaborator_Aggregate.GMN45" data-source-line="73" id="ent0046"><path d="M1825.5,1266.5 L1825.5,1280 L1602.07,1284 L1825.5,1288 L1825.5,1301.6563 A0,0 0 0 0 1825.5,1301.6563 L2153.2969,1301.6563 A0,0 0 0 0 2153.2969,1301.6563 L2153.2969,1276.5 L2143.2969,1266.5 L1825.5,1266.5 A0,0 0 0 0 1825.5,1266.5" fill="#FEFFDD" style="stroke:#181818;stroke-width:0.5;"/><path d="M2143.2969,1266.5 L2143.2969,1276.5 L2153.2969,1276.5 L2143.2969,1266.5" fill="#FEFFDD" style="stroke:#181818;stroke-width:0.5;"/><text fill="#000000" font-family="sans-serif" font-size="20" lengthAdjust="spacing" textLength="306.7969" x="1831.5" y="1292.2617">periodic, every 5 years (sec. 3.1.1)</text></g><!--class SystemUser--><g class="entity" data-qualified-name="Collaborator_Aggregate.SystemUser" data-source-line="74" id="ent0048"><rect fill="#F1F1F1" height="60.3125" rx="2.5" ry="2.5" style="stroke:#181818;stroke-width:0.5;" width="142.9063" x="709" y="1288"/><ellipse cx="725" cy="1318.1563" fill="#ADD1B2" rx="12" ry="12" style="stroke:#181818;stroke-width:1;"/><path d="M727.1406,1313.0781 Q727.3281,1312.8281 727.5469,1312.7031 Q727.7656,1312.5625 728.0156,1312.5625 Q728.4531,1312.5625 728.7344,1312.875 Q729.0156,1313.1719 729.0156,1313.8906 L729.0156,1315.5938 Q729.0156,1316.3125 728.7344,1316.625 Q728.4531,1316.9375 728.0156,1316.9375 Q727.625,1316.9375 727.375,1316.7031 Q727.125,1316.4844 727.0156,1315.875 Q726.9531,1315.4531 726.7344,1315.2344 Q726.3438,1314.7969 725.625,1314.5313 Q724.9063,1314.2656 724.1875,1314.2656 Q723.2813,1314.2656 722.5313,1314.6563 Q721.7813,1315.0469 721.2031,1315.9375 Q720.625,1316.8125 720.625,1318.0156 L720.625,1319.3125 Q720.625,1320.7656 721.6719,1321.7344 Q722.7344,1322.7031 724.5938,1322.7031 Q725.7031,1322.7031 726.4844,1322.3906 Q726.9219,1322.2188 727.4375,1321.7031 Q727.75,1321.3906 727.9219,1321.2969 Q728.0938,1321.2031 728.3281,1321.2031 Q728.7188,1321.2031 729.0156,1321.5156 Q729.3281,1321.8125 729.3281,1322.2188 Q729.3281,1322.625 728.9219,1323.0938 Q728.3281,1323.7813 727.3906,1324.1719 Q726.125,1324.7031 724.6094,1324.7031 Q722.8281,1324.7031 721.4063,1323.9688 Q720.25,1323.375 719.4375,1322.1094 Q718.625,1320.8438 718.625,1319.3594 L718.625,1318 Q718.625,1316.4375 719.3438,1315.0938 Q720.0781,1313.7344 721.3594,1313 Q722.6563,1312.2656 724.1094,1312.2656 Q724.9688,1312.2656 725.7188,1312.4688 Q726.4844,1312.6719 727.1406,1313.0781 Z " fill="#000000"/><text fill="#000000" font-family="sans-serif" font-size="20" font-style="italic" lengthAdjust="spacing" textLength="70.0488" x="759.4287" y="1313.7617">&#171;entity&#187;</text><text fill="#000000" font-family="sans-serif" font-size="20" lengthAdjust="spacing" textLength="108.9063" x="740" y="1338.918">SystemUser</text></g><g class="entity" data-qualified-name="Collaborator_Aggregate.GMN49" data-source-line="76" id="ent0050"><path d="M23,1275.5 L23,1360.9688 A0,0 0 0 0 23,1360.9688 L647.6328,1360.9688 A0,0 0 0 0 647.6328,1360.9688 L647.6328,1322 L708.77,1318 L647.6328,1314 L647.6328,1285.5 L637.6328,1275.5 L23,1275.5 A0,0 0 0 0 23,1275.5" fill="#FEFFDD" style="stroke:#181818;stroke-width:0.5;"/><path d="M637.6328,1275.5 L637.6328,1285.5 L647.6328,1285.5 L637.6328,1275.5" fill="#FEFFDD" style="stroke:#181818;stroke-width:0.5;"/><text fill="#000000" font-family="sans-serif" font-size="20" lengthAdjust="spacing" textLength="250.1172" x="29" y="1301.2617">EAPLI framework boundary.</text><text fill="#000000" font-family="sans-serif" font-size="20" lengthAdjust="spacing" textLength="603.6328" x="29" y="1326.418">Stores: email (unique, sec. 3.1.1), name, phoneNumber (sec. 3.1.1).</text><text fill="#000000" font-family="sans-serif" font-size="20" lengthAdjust="spacing" textLength="383.5352" x="29" y="1351.5742">Internal details managed by the framework.</text></g><!--class FlightRoute--><g class="entity" data-qualified-name="FlightRoute_Aggregate.FlightRoute" data-source-line="86" id="ent0059"><rect fill="#F1F1F1" height="118.625" rx="2.5" ry="2.5" style="stroke:#181818;stroke-width:0.5;" width="160.9844" x="974.5" y="1008.5"/><ellipse cx="1001.619" cy="1051.2344" fill="#ADD1B2" rx="12" ry="12" style="stroke:#181818;stroke-width:1;"/><path d="M1003.7597,1046.1563 Q1003.9472,1045.9063 1004.1659,1045.7813 Q1004.3847,1045.6406 1004.6347,1045.6406 Q1005.0722,1045.6406 1005.3534,1045.9531 Q1005.6347,1046.25 1005.6347,1046.9688 L1005.6347,1048.6719 Q1005.6347,1049.3906 1005.3534,1049.7031 Q1005.0722,1050.0156 1004.6347,1050.0156 Q1004.244,1050.0156 1003.994,1049.7813 Q1003.744,1049.5625 1003.6347,1048.9531 Q1003.5722,1048.5313 1003.3534,1048.3125 Q1002.9628,1047.875 1002.244,1047.6094 Q1001.5253,1047.3438 1000.8065,1047.3438 Q999.9003,1047.3438 999.1503,1047.7344 Q998.4003,1048.125 997.8222,1049.0156 Q997.244,1049.8906 997.244,1051.0938 L997.244,1052.3906 Q997.244,1053.8438 998.2909,1054.8125 Q999.3534,1055.7813 1001.2128,1055.7813 Q1002.3222,1055.7813 1003.1034,1055.4688 Q1003.5409,1055.2969 1004.0565,1054.7813 Q1004.369,1054.4688 1004.5409,1054.375 Q1004.7128,1054.2813 1004.9472,1054.2813 Q1005.3378,1054.2813 1005.6347,1054.5938 Q1005.9472,1054.8906 1005.9472,1055.2969 Q1005.9472,1055.7031 1005.5409,1056.1719 Q1004.9472,1056.8594 1004.0097,1057.25 Q1002.744,1057.7813 1001.2284,1057.7813 Q999.4472,1057.7813 998.0253,1057.0469 Q996.869,1056.4531 996.0565,1055.1875 Q995.244,1053.9219 995.244,1052.4375 L995.244,1051.0781 Q995.244,1049.5156 995.9628,1048.1719 Q996.6972,1046.8125 997.9784,1046.0781 Q999.2753,1045.3438 1000.7284,1045.3438 Q1001.5878,1045.3438 1002.3378,1045.5469 Q1003.1034,1045.75 1003.7597,1046.1563 Z " fill="#000000"/><text fill="#000000" font-family="sans-serif" font-size="20" font-style="italic" lengthAdjust="spacing" textLength="70.0488" x="1035.2032" y="1034.2617">&#171;entity&#187;</text><text fill="#000000" font-family="sans-serif" font-size="20" font-style="italic" lengthAdjust="spacing" textLength="56.709" x="1041.8731" y="1059.418">&#171;root&#187;</text><text fill="#000000" font-family="sans-serif" font-size="20" lengthAdjust="spacing" textLength="102.2754" x="1019.0899" y="1084.5742">FlightRoute</text><line style="stroke:#181818;stroke-width:0.5;" x1="975.5" x2="1134.4844" y1="1093.9688" y2="1093.9688"/><text fill="#000000" font-family="sans-serif" font-size="20" lengthAdjust="spacing" textLength="148.9844" x="980.5" y="1118.7305">deactivationDate</text></g><!--class RouteName--><g class="entity" data-qualified-name="FlightRoute_Aggregate.RouteName" data-source-line="89" id="ent0060"><rect fill="#F1F1F1" height="93.4688" rx="2.5" ry="2.5" style="stroke:#181818;stroke-width:0.5;" width="158.9844" x="1910" y="1021.5"/><ellipse cx="1926" cy="1051.6563" fill="#ADD1B2" rx="12" ry="12" style="stroke:#181818;stroke-width:1;"/><path d="M1928.1406,1046.5781 Q1928.3281,1046.3281 1928.5469,1046.2031 Q1928.7656,1046.0625 1929.0156,1046.0625 Q1929.4531,1046.0625 1929.7344,1046.375 Q1930.0156,1046.6719 1930.0156,1047.3906 L1930.0156,1049.0938 Q1930.0156,1049.8125 1929.7344,1050.125 Q1929.4531,1050.4375 1929.0156,1050.4375 Q1928.625,1050.4375 1928.375,1050.2031 Q1928.125,1049.9844 1928.0156,1049.375 Q1927.9531,1048.9531 1927.7344,1048.7344 Q1927.3438,1048.2969 1926.625,1048.0313 Q1925.9063,1047.7656 1925.1875,1047.7656 Q1924.2813,1047.7656 1923.5313,1048.1563 Q1922.7813,1048.5469 1922.2031,1049.4375 Q1921.625,1050.3125 1921.625,1051.5156 L1921.625,1052.8125 Q1921.625,1054.2656 1922.6719,1055.2344 Q1923.7344,1056.2031 1925.5938,1056.2031 Q1926.7031,1056.2031 1927.4844,1055.8906 Q1927.9219,1055.7188 1928.4375,1055.2031 Q1928.75,1054.8906 1928.9219,1054.7969 Q1929.0938,1054.7031 1929.3281,1054.7031 Q1929.7188,1054.7031 1930.0156,1055.0156 Q1930.3281,1055.3125 1930.3281,1055.7188 Q1930.3281,1056.125 1929.9219,1056.5938 Q1929.3281,1057.2813 1928.3906,1057.6719 Q1927.125,1058.2031 1925.6094,1058.2031 Q1923.8281,1058.2031 1922.4063,1057.4688 Q1921.25,1056.875 1920.4375,1055.6094 Q1919.625,1054.3438 1919.625,1052.8594 L1919.625,1051.5 Q1919.625,1049.9375 1920.3438,1048.5938 Q1921.0781,1047.2344 1922.3594,1046.5 Q1923.6563,1045.7656 1925.1094,1045.7656 Q1925.9688,1045.7656 1926.7188,1045.9688 Q1927.4844,1046.1719 1928.1406,1046.5781 Z " fill="#000000"/><text fill="#000000" font-family="sans-serif" font-size="20" font-style="italic" lengthAdjust="spacing" textLength="128.9844" x="1939" y="1047.2617">&#171;value object&#187;</text><text fill="#000000" font-family="sans-serif" font-size="20" lengthAdjust="spacing" textLength="106.7188" x="1950.1328" y="1072.418">RouteName</text><line style="stroke:#181818;stroke-width:0.5;" x1="1911" x2="2067.9844" y1="1081.8125" y2="1081.8125"/><text fill="#000000" font-family="sans-serif" font-size="20" lengthAdjust="spacing" textLength="50.0293" x="1916" y="1106.5742">name</text></g><g class="entity" data-qualified-name="FlightRoute_Aggregate.GMN61" data-source-line="92" id="ent0062"><path d="M2288,1038 L2288,1064 L2069.06,1068 L2288,1072 L2288,1098.3125 A0,0 0 0 0 2288,1098.3125 L2571.3633,1098.3125 A0,0 0 0 0 2571.3633,1098.3125 L2571.3633,1048 L2561.3633,1038 L2288,1038 A0,0 0 0 0 2288,1038" fill="#FEFFDD" style="stroke:#181818;stroke-width:0.5;"/><path d="M2561.3633,1038 L2561.3633,1048 L2571.3633,1048 L2561.3633,1038" fill="#FEFFDD" style="stroke:#181818;stroke-width:0.5;"/><text fill="#000000" font-family="sans-serif" font-size="20" lengthAdjust="spacing" textLength="207.3438" x="2294" y="1063.7617">2 letters + up to 4 digits</text><text fill="#000000" font-family="sans-serif" font-size="20" lengthAdjust="spacing" textLength="262.3633" x="2294" y="1088.918">(e.g. TP123). unique (US073)</text></g><!--reverse link AirTransportCompany to CompanyName--><g class="link" data-entity-1="ent0003" data-entity-2="ent0004" data-link-type="composition" data-source-line="22" id="lnk16"><path codeLine="22" d="M1634.1129,814.387 C1720.2929,823.537 1824.73,834.62 1902.99,842.92" fill="none" id="AirTransportCompany-backto-CompanyName" style="stroke:#181818;stroke-width:1;"/><polygon fill="#181818" points="1622.18,813.12,1627.7241,817.7311,1634.1129,814.387,1628.5688,809.7758,1622.18,813.12" style="stroke:#181818;stroke-width:1;"/><text fill="#000000" font-family="sans-serif" font-size="20" lengthAdjust="spacing" textLength="84.4922" x="1662.5" y="812.7617">namedAs</text></g><!--reverse link AirTransportCompany to IATACode_ATC--><g class="link" data-entity-1="ent0003" data-entity-2="ent0008" data-link-type="composition" data-source-line="23" id="lnk17"><path codeLine="23" d="M1634.0088,779.5005 C1719.3488,764.9305 1822.49,747.33 1900.71,733.98" fill="none" id="AirTransportCompany-backto-IATACode_ATC" style="stroke:#181818;stroke-width:1;"/><polygon fill="#181818" points="1622.18,781.52,1628.7676,784.4532,1634.0088,779.5005,1627.4212,776.5673,1622.18,781.52" style="stroke:#181818;stroke-width:1;"/><text fill="#000000" font-family="sans-serif" font-size="20" lengthAdjust="spacing" textLength="103.3984" x="1653" y="754.7617">identifiedBy</text></g><!--reverse link AirTransportCompany to ICAOCode_ATC--><g class="link" data-entity-1="ent0003" data-entity-2="ent0009" data-link-type="composition" data-source-line="24" id="lnk18"><path codeLine="24" d="M1596.9306,752.603 C1618.1906,741.083 1630.68,734.38 1652,723 C1711.81,691.08 1724.57,678.42 1787,652 C1822.68,636.9 1863.08,623.06 1898.29,612" fill="none" id="AirTransportCompany-backto-ICAOCode_ATC" style="stroke:#181818;stroke-width:1;"/><polygon fill="#181818" points="1586.38,758.32,1593.561,758.9784,1596.9306,752.603,1589.7497,751.9446,1586.38,758.32" style="stroke:#181818;stroke-width:1;"/><text fill="#000000" font-family="sans-serif" font-size="20" lengthAdjust="spacing" textLength="103.3984" x="1653" y="661.7617">identifiedBy</text></g><!--reverse link CabinConfiguration to SeatClass--><g class="link" data-entity-1="ent0025" data-entity-2="ent0026" data-link-type="composition" data-source-line="42" id="lnk27"><path codeLine="42" d="M1621.6087,241.6553 C1711.2487,242.9653 1828.05,244.66 1909.99,245.86" fill="none" id="CabinConfiguration-backto-SeatClass" style="stroke:#181818;stroke-width:1;"/><polygon fill="#181818" points="1609.61,241.48,1615.5509,245.5672,1621.6087,241.6553,1615.6678,237.5681,1609.61,241.48" style="stroke:#181818;stroke-width:1;"/><text fill="#000000" font-family="sans-serif" font-size="20" lengthAdjust="spacing" textLength="74.4922" x="1667.5" y="237.7617">contains</text><text fill="#000000" font-family="sans-serif" font-size="20" lengthAdjust="spacing" textLength="30.0195" x="1871.8696" y="267.6208">1..*</text></g><!--link CabinConfiguration to GMN28--><g class="link" data-entity-1="ent0025" data-entity-2="ent0029" data-link-type="association" data-source-line="43" id="lnk30"><path d="M1609.63,213.08 C1662.48,199.16 1728.17,181.99 1787,167 C1812.67,160.46 1840.21,153.55 1866.43,147.03" fill="none" id="CabinConfiguration-GMN28" style="stroke:#181818;stroke-width:1;stroke-dasharray:7,7;"/></g><!--reverse link Aircraft to RegistrationNumber--><g class="link" data-entity-1="ent0020" data-entity-2="ent0021" data-link-type="composition" data-source-line="48" id="lnk32"><path codeLine="48" d="M1207.2617,346.0974 C1273.6017,351.4074 1339.66,356.69 1400.93,361.59" fill="none" id="Aircraft-backto-RegistrationNumber" style="stroke:#181818;stroke-width:1;"/><polygon fill="#181818" points="1195.3,345.14,1200.9617,349.606,1207.2617,346.0974,1201.6,341.6315,1195.3,345.14" style="stroke:#181818;stroke-width:1;"/><text fill="#000000" font-family="sans-serif" font-size="20" lengthAdjust="spacing" textLength="103.3984" x="1241" y="342.7617">identifiedBy</text></g><!--reverse link Aircraft to CabinConfiguration--><g class="link" data-entity-1="ent0020" data-entity-2="ent0025" data-link-type="composition" data-source-line="49" id="lnk33"><path codeLine="49" d="M1207.0464,302.4458 C1274.6764,288.3158 1342.7,274.11 1404.48,261.21" fill="none" id="Aircraft-backto-CabinConfiguration" style="stroke:#181818;stroke-width:1;"/><polygon fill="#181818" points="1195.3,304.9,1201.9912,307.5884,1207.0464,302.4458,1200.3551,299.7575,1195.3,304.9" style="stroke:#181818;stroke-width:1;"/><text fill="#000000" font-family="sans-serif" font-size="20" lengthAdjust="spacing" textLength="133.3984" x="1226" y="268.7617">configuredWith</text></g><!--link Aircraft to OperationalStatus--><g class="link" data-entity-1="ent0020" data-entity-2="ent0031" data-link-type="dependency" data-source-line="50" id="lnk34"><path codeLine="50" d="M1154.88,274.27 C1177.6,261.38 1201.89,248.26 1225,237 C1285.23,207.67 1349.4083,181.4796 1404.3683,160.3896" fill="none" id="Aircraft-to-OperationalStatus" style="stroke:#181818;stroke-width:1;"/><polygon fill="#181818" points="1409.97,158.24,1400.1344,157.7299,1405.3019,160.0313,1403.0005,165.1988,1409.97,158.24" style="stroke:#181818;stroke-width:1;"/><text fill="#000000" font-family="sans-serif" font-size="20" lengthAdjust="spacing" textLength="88.9453" x="1248.5" y="175.7617">hasStatus</text></g><!--reverse link Collaborator to ATCCollaborator--><g class="link" data-entity-1="ent0036" data-entity-2="ent0037" data-link-type="extension" data-source-line="77" id="lnk52"><path codeLine="77" d="M855.9994,1571.342 C870.5694,1584.962 873.78,1585.58 891,1595 C1061.12,1688.02 1290.24,1718.86 1415.28,1729.04" fill="none" id="Collaborator-backto-ATCCollaborator" style="stroke:#181818;stroke-width:1;"/><polygon fill="none" points="842.85,1559.05,851.902,1575.7251,860.0967,1566.9589,842.85,1559.05" style="stroke:#181818;stroke-width:1;"/></g><!--reverse link Collaborator to FlightControlOperator--><g class="link" data-entity-1="ent0036" data-entity-2="ent0038" data-link-type="extension" data-source-line="78" id="lnk53"><path codeLine="78" d="M869.2249,1517.2091 C882.0849,1521.2691 878.29,1519.78 891,1523 C1064.54,1566.96 1269.86,1600.36 1393.9,1618.56" fill="none" id="Collaborator-backto-FlightControlOperator" style="stroke:#181818;stroke-width:1;"/><polygon fill="none" points="852.06,1511.79,867.4185,1522.9307,871.0313,1511.4875,852.06,1511.79" style="stroke:#181818;stroke-width:1;"/></g><!--reverse link Collaborator to WeatherPerson--><g class="link" data-entity-1="ent0036" data-entity-2="ent0039" data-link-type="extension" data-source-line="79" id="lnk54"><path codeLine="79" d="M870.2522,1492.7559 C1004.1322,1501.4459 1275.96,1519.08 1420.47,1528.45" fill="none" id="Collaborator-backto-WeatherPerson" style="stroke:#181818;stroke-width:1;"/><polygon fill="none" points="852.29,1491.59,869.8636,1498.7433,870.6408,1486.7685,852.29,1491.59" style="stroke:#181818;stroke-width:1;"/></g><!--reverse link Collaborator to SecurityClearance--><g class="link" data-entity-1="ent0036" data-entity-2="ent0040" data-link-type="composition" data-source-line="80" id="lnk55"><path codeLine="80" d="M864.2344,1479.0062 C994.4644,1466.4262 1260.28,1440.74 1408.33,1426.44" fill="none" id="Collaborator-backto-SecurityClearance" style="stroke:#181818;stroke-width:1;"/><polygon fill="#181818" points="852.29,1480.16,858.6468,1483.5646,864.2344,1479.0062,857.8776,1475.6016,852.29,1480.16" style="stroke:#181818;stroke-width:1;"/><text fill="#000000" font-family="sans-serif" font-size="20" lengthAdjust="spacing" textLength="86.709" x="1012" y="1441.7617">hasActive</text></g><!--reverse link Collaborator to SkillsAssessment--><g class="link" data-entity-1="ent0036" data-entity-2="ent0044" data-link-type="composition" data-source-line="81" id="lnk56"><path codeLine="81" d="M862.1415,1424.7068 C874.6215,1416.6768 877.77,1415.71 891,1410 C1065.61,1334.63 1287.93,1303.47 1411.78,1291.26" fill="none" id="Collaborator-backto-SkillsAssessment" style="stroke:#181818;stroke-width:1;"/><polygon fill="#181818" points="852.05,1431.2,859.2601,1431.3172,862.1415,1424.7068,854.9314,1424.5896,852.05,1431.2" style="stroke:#181818;stroke-width:1;"/><text fill="#000000" font-family="sans-serif" font-size="20" lengthAdjust="spacing" textLength="84.4922" x="1013" y="1316.7617">assessed</text></g><!--link Collaborator to SystemUser--><g class="link" data-entity-1="ent0036" data-entity-2="ent0048" data-link-type="dependency" data-source-line="82" id="lnk57"><path codeLine="82" d="M780.5,1414.84 C780.5,1391.51 780.5,1372.91 780.5,1354.33" fill="none" id="Collaborator-to-SystemUser" style="stroke:#181818;stroke-width:1;"/><polygon fill="#181818" points="780.5,1348.33,776.5,1357.33,780.5,1353.33,784.5,1357.33,780.5,1348.33" style="stroke:#181818;stroke-width:1;"/><text fill="#000000" font-family="sans-serif" font-size="20" lengthAdjust="spacing" textLength="75.5957" x="726.5" y="1389.7617">linkedTo</text></g><!--reverse link FlightRoute to RouteName--><g class="link" data-entity-1="ent0059" data-entity-2="ent0060" data-link-type="composition" data-source-line="93" id="lnk64"><path codeLine="93" d="M1147.5,1068 C1323.9,1068 1734.26,1068 1909.86,1068" fill="none" id="FlightRoute-backto-RouteName" style="stroke:#181818;stroke-width:1;"/><polygon fill="#181818" points="1135.5,1068,1141.5,1072,1147.5,1068,1141.5,1064,1135.5,1068" style="stroke:#181818;stroke-width:1;"/><text fill="#000000" font-family="sans-serif" font-size="20" lengthAdjust="spacing" textLength="103.3984" x="1455.5" y="1062.7617">identifiedBy</text></g><!--link Aircraft to AirTransportCompany--><g class="link" data-entity-1="ent0020" data-entity-2="ent0003" data-link-type="dependency" data-source-line="96" id="lnk65"><path codeLine="96" d="M1113.45,393.62 C1205.62,489.27 1380.1664,670.4198 1460.7164,753.9998" fill="none" id="Aircraft-to-AirTransportCompany" style="stroke:#181818;stroke-width:1;"/><polygon fill="#181818" points="1464.88,758.32,1461.5147,749.0639,1461.4103,754.7198,1455.7544,754.6154,1464.88,758.32" style="stroke:#181818;stroke-width:1;"/><polygon fill="#000000" points="1254.0511,504.3388,1247.3951,490.6548,1240.623,497.1805,1254.0511,504.3388" style="stroke:#000000;stroke-width:1;"/><text fill="#000000" font-family="sans-serif" font-size="20" lengthAdjust="spacing" textLength="82.2754" x="1261.5" y="506.7617">ownedBy</text><text fill="#000000" font-family="sans-serif" font-size="20" lengthAdjust="spacing" textLength="7.7832" x="1112.1648" y="421.8465">*</text><text fill="#000000" font-family="sans-serif" font-size="20" lengthAdjust="spacing" textLength="11.123" x="1446.9224" y="745.9542">1</text></g><!--link Collaborator to AirTransportCompany--><g class="link" data-entity-1="ent0036" data-entity-2="ent0003" data-link-type="dependency" data-source-line="99" id="lnk66"><path codeLine="99" d="M830.9,1414.78 C839.18,1399.86 846.77,1383.85 852,1368 C878.47,1287.81 837.4,1055.25 891,990 C1013.4,841.01 1244.376,807.2788 1385.746,800.9388" fill="none" id="Collaborator-to-AirTransportCompany" style="stroke:#181818;stroke-width:1;"/><polygon fill="#181818" points="1391.74,800.67,1382.5698,797.0772,1386.745,800.894,1382.9282,805.0692,1391.74,800.67" style="stroke:#181818;stroke-width:1;"/><polygon fill="#000000" points="1002.6008,736.6433,989.408,744.2264,996.3848,750.5327,1002.6008,736.6433" style="stroke:#000000;stroke-width:1;"/><text fill="#000000" font-family="sans-serif" font-size="20" lengthAdjust="spacing" textLength="110.0586" x="1010.2363" y="750.7617">employedBy</text><path d="M927.5,761.1563 L927.5,821.1563 L1182.5,821.1563 L1182.5,771.1563 L1172.5,761.1563 L927.5,761.1563" fill="#FEFFDD" style="stroke:#181818;stroke-width:0.5;"/><path d="M1172.5,761.1563 L1172.5,771.1563 L1182.5,771.1563 L1172.5,761.1563" fill="#FEFFDD" style="stroke:#181818;stroke-width:0.5;"/><text fill="#000000" font-family="sans-serif" font-size="20" lengthAdjust="spacing" textLength="201.1816" x="933.5" y="786.918">Only ATCCollaborator.</text><text fill="#000000" font-family="sans-serif" font-size="20" lengthAdjust="spacing" textLength="234.5313" x="933.5" y="812.0742">FCO/WeatherPerson: null.</text><text fill="#000000" font-family="sans-serif" font-size="20" lengthAdjust="spacing" textLength="7.7832" x="828.4101" y="1402.4847">*</text><text fill="#000000" font-family="sans-serif" font-size="20" lengthAdjust="spacing" textLength="33.3594" x="1350.7333" y="822.1638">0..1</text></g><!--link FlightRoute to AirTransportCompany--><g class="link" data-entity-1="ent0059" data-entity-2="ent0003" data-link-type="dependency" data-source-line="102" id="lnk67"><path codeLine="102" d="M1135.58,1037.79 C1198.78,1012.19 1288.15,972.31 1360,926 C1397.02,902.14 1430.2876,873.7374 1458.0876,847.8674" fill="none" id="FlightRoute-to-AirTransportCompany" style="stroke:#181818;stroke-width:1;"/><polygon fill="#181818" points="1462.48,843.78,1453.1665,846.9829,1458.8197,847.1862,1458.6164,852.8394,1462.48,843.78" style="stroke:#181818;stroke-width:1;"/><polygon fill="#000000" points="1255.3935,908.5186,1240.5369,911.8105,1245.3092,919.9142,1255.3935,908.5186" style="stroke:#000000;stroke-width:1;"/><text fill="#000000" font-family="sans-serif" font-size="20" lengthAdjust="spacing" textLength="82.2754" x="1261.5" y="920.7617">ownedBy</text><text fill="#000000" font-family="sans-serif" font-size="20" lengthAdjust="spacing" textLength="7.7832" x="1143.3679" y="1056.9436">*</text><text fill="#000000" font-family="sans-serif" font-size="20" lengthAdjust="spacing" textLength="11.123" x="1444.1699" y="872.638">1</text></g><?plantuml-src dLRRRjiu47ttLmpyb6HZrKwwBI040LJj1WYm6mUrWxu4A6XfPBEcI2r99LLt--yxb6HBiYMZxPikvyprp91cosN6D4k5YhOOGum9ouMzKz8k-3U4g-b8O6B1Aj1ylR4GSusHvKgEp8uA6OksR8qBMmW4zvl9jS0MGAeO3MRmTjhwg9dSke_lfgCDZn4mpMm1AQOhr6Oqget2EE1wILYJAMr3bMPC5f-3zLhZcbaSmyqDsxtStiA_8u18C6EWXqPOb9RRWe0tDrefMpE-xrarye6bI90N9d84jVf2ETLG04d_QevK5kkwgAJ3zI6N_1yYdpqjfk-cvti7zy4o2AaSduDbEEGXel-TgEx3OFuJf6vO7O_-_XNEZ0kqSi0CSEbAvgfrVcoYxT_VlvusqTU0Yydae4okcd5WJk0FuYUfK0yJZl67uXIh6tA7zRshhaYpnFwWf4hie8weRhcJxpov4wvseSRNlsj1j_lv4TVSMCtS73sKZ46nbN_BHzqYXIgNLXUz_UunlbVZgz8YVdNJvdJvlgNBaAqucPK9N-SLjp-a9ea5CXkMJqEAT3yVgcbfAkDekshqE7Mz6yyyxsBSSk2JkgLbN9hZeJisuTEsiao0SPuWOf8OW5yZnFXPfgG9GHz90DJ0LXcG0eHvXfKH9XQMsTpKgJ1QUIzL7Z56AasvCOJ2k4vahmmNVcy3ZcNR47fpYEftZ3znksbJ9fFRda1zs31JFJk1DmeFbH1ifGYkz6cLivKBExBxNTWGJqb-r-5C6LwU3AucpT0imo53NJtL8qEDrafK-Ps2VwBkRb0_qcoLMXs0BJ3ADVq81TAf8wF1jOvVCwwBFwWQlLDrRCS7bbirANbel6VvbCNCiXMTWQi2WZZbyiq7Qe9A4XwvNOcH1zVUp9irKxVOSY5CO0mQar86Gy6nFM8um4DJFb0DkOfvT0duWhg0tw6WuCr0A8Mnc3uPxArvwQky2JXN3TI7FuF7l-uXeHCTQRjiOKMhAMQwe88ig85eV3hP6HTmLksWIsXvlopLSmdPXeQfdfLsT6JaNbhK97CQFDe0ma3A9EawTaKc0JIUFRTGEahxRqB3TQ2_Vb2lzlgX7TqTGYuSeaygD9l1ReVqC8vxLtMyN30TFCr-f_o2IxgtBLNdKAlI-QXoYpzohhNW9-Oynd8BbbkdfSBwH7FaNxerDKmVhaXYbjfju3V8CtVfV4iNpZMtvbcUeRVsOFaukxe-zzgtg_VNJiJj7CgQjkqUdlxxLJgcOyQjq_5it7kJy46zIiU2MrgfdKPKLCUTUbu_tIa_4wge3PHvqwvoBIFBSocAGtMItk_2-PkEnkYEb0lXZKRj57ygyFy1?></g></svg>