<?plantuml 1.2026.2?><svg xmlns="http://www.w3.org/2000/svg" xmlns:xlink="http://www.w3.org/1999/xlink" contentStyleType="text/css" data-diagram-type="CLASS" height="1506px" preserveAspectRatio="none" style="width:3476px;height:1506px;background:#FFFFFF;" version="1.1" viewBox="0 0 3476 1506" width="3476px" zoomAndPan="magnify"><defs/><g><!--cluster AirTransportCompany_Aggregate--><g class="cluster" data-qualified-name="AirTransportCompany_Aggregate" data-source-line="7" id="ent0002"><rect fill="none" height="445" rx="2.5" ry="2.5" style="stroke:#000000;stroke-width:1.5;" width="1108.5" x="2022.5" y="643"/><text fill="#000000" font-family="sans-serif" font-size="20" font-style="italic" lengthAdjust="spacing" textLength="112.3242" x="2520.5879" y="665.7617">&#171;aggregate&#187;</text><text fill="#000000" font-family="sans-serif" font-size="20" font-weight="bold" lengthAdjust="spacing" textLength="322.2754" x="2415.6123" y="690.918">AirTransportCompany_Aggregate</text></g><!--cluster AirControlArea_Aggregate--><g class="cluster" data-qualified-name="AirControlArea_Aggregate" data-source-line="27" id="ent0019"><rect fill="none" height="388" rx="2.5" ry="2.5" style="stroke:#000000;stroke-width:1.5;" width="1791.5" x="1678.5" y="1112"/><text fill="#000000" font-family="sans-serif" font-size="20" font-style="italic" lengthAdjust="spacing" textLength="112.3242" x="2518.0879" y="1134.7617">&#171;aggregate&#187;</text><text fill="#000000" font-family="sans-serif" font-size="20" font-weight="bold" lengthAdjust="spacing" textLength="253.3789" x="2447.5605" y="1159.918">AirControlArea_Aggregate</text></g><!--cluster Collaborator_Aggregate--><g class="cluster" data-qualified-name="Collaborator_Aggregate" data-source-line="46" id="ent0031"><rect fill="none" height="612" rx="2.5" ry="2.5" style="stroke:#000000;stroke-width:1.5;" width="2365" x="7" y="7"/><text fill="#000000" font-family="sans-serif" font-size="20" font-style="italic" lengthAdjust="spacing" textLength="112.3242" x="1133.3379" y="29.7617">&#171;aggregate&#187;</text><text fill="#000000" font-family="sans-serif" font-size="20" font-weight="bold" lengthAdjust="spacing" textLength="228.9258" x="1075.0371" y="54.918">Collaborator_Aggregate</text></g><!--class AirTransportCompany--><g class="entity" data-qualified-name="AirTransportCompany_Aggregate.AirTransportCompany" data-source-line="8" id="ent0003"><rect fill="#F1F1F1" height="85.4688" rx="2.5" ry="2.5" style="stroke:#181818;stroke-width:0.5;" width="229.625" x="2038.5" y="783.5"/><ellipse cx="2054.5" cy="826.2344" fill="#ADD1B2" rx="12" ry="12" style="stroke:#181818;stroke-width:1;"/><path d="M2056.6406,821.1563 Q2056.8281,820.9063 2057.0469,820.7813 Q2057.2656,820.6406 2057.5156,820.6406 Q2057.9531,820.6406 2058.2344,820.9531 Q2058.5156,821.25 2058.5156,821.9688 L2058.5156,823.6719 Q2058.5156,824.3906 2058.2344,824.7031 Q2057.9531,825.0156 2057.5156,825.0156 Q2057.125,825.0156 2056.875,824.7813 Q2056.625,824.5625 2056.5156,823.9531 Q2056.4531,823.5313 2056.2344,823.3125 Q2055.8438,822.875 2055.125,822.6094 Q2054.4063,822.3438 2053.6875,822.3438 Q2052.7813,822.3438 2052.0313,822.7344 Q2051.2813,823.125 2050.7031,824.0156 Q2050.125,824.8906 2050.125,826.0938 L2050.125,827.3906 Q2050.125,828.8438 2051.1719,829.8125 Q2052.2344,830.7813 2054.0938,830.7813 Q2055.2031,830.7813 2055.9844,830.4688 Q2056.4219,830.2969 2056.9375,829.7813 Q2057.25,829.4688 2057.4219,829.375 Q2057.5938,829.2813 2057.8281,829.2813 Q2058.2188,829.2813 2058.5156,829.5938 Q2058.8281,829.8906 2058.8281,830.2969 Q2058.8281,830.7031 2058.4219,831.1719 Q2057.8281,831.8594 2056.8906,832.25 Q2055.625,832.7813 2054.1094,832.7813 Q2052.3281,832.7813 2050.9063,832.0469 Q2049.75,831.4531 2048.9375,830.1875 Q2048.125,828.9219 2048.125,827.4375 L2048.125,826.0781 Q2048.125,824.5156 2048.8438,823.1719 Q2049.5781,821.8125 2050.8594,821.0781 Q2052.1563,820.3438 2053.6094,820.3438 Q2054.4688,820.3438 2055.2188,820.5469 Q2055.9844,820.75 2056.6406,821.1563 Z " fill="#000000"/><text fill="#000000" font-family="sans-serif" font-size="20" font-style="italic" lengthAdjust="spacing" textLength="70.0488" x="2132.2881" y="809.2617">&#171;entity&#187;</text><text fill="#000000" font-family="sans-serif" font-size="20" font-style="italic" lengthAdjust="spacing" textLength="56.709" x="2138.958" y="834.418">&#171;root&#187;</text><text fill="#000000" font-family="sans-serif" font-size="20" lengthAdjust="spacing" textLength="195.625" x="2069.5" y="859.5742">AirTransportCompany</text></g><!--class CompanyName--><g class="entity" data-qualified-name="AirTransportCompany_Aggregate.CompanyName" data-source-line="10" id="ent0004"><rect fill="#F1F1F1" height="93.4688" rx="2.5" ry="2.5" style="stroke:#181818;stroke-width:0.5;" width="172.9453" x="2527.5" y="978.5"/><ellipse cx="2543.5" cy="1008.6563" fill="#ADD1B2" rx="12" ry="12" style="stroke:#181818;stroke-width:1;"/><path d="M2545.6406,1003.5781 Q2545.8281,1003.3281 2546.0469,1003.2031 Q2546.2656,1003.0625 2546.5156,1003.0625 Q2546.9531,1003.0625 2547.2344,1003.375 Q2547.5156,1003.6719 2547.5156,1004.3906 L2547.5156,1006.0938 Q2547.5156,1006.8125 2547.2344,1007.125 Q2546.9531,1007.4375 2546.5156,1007.4375 Q2546.125,1007.4375 2545.875,1007.2031 Q2545.625,1006.9844 2545.5156,1006.375 Q2545.4531,1005.9531 2545.2344,1005.7344 Q2544.8438,1005.2969 2544.125,1005.0313 Q2543.4063,1004.7656 2542.6875,1004.7656 Q2541.7813,1004.7656 2541.0313,1005.1563 Q2540.2813,1005.5469 2539.7031,1006.4375 Q2539.125,1007.3125 2539.125,1008.5156 L2539.125,1009.8125 Q2539.125,1011.2656 2540.1719,1012.2344 Q2541.2344,1013.2031 2543.0938,1013.2031 Q2544.2031,1013.2031 2544.9844,1012.8906 Q2545.4219,1012.7188 2545.9375,1012.2031 Q2546.25,1011.8906 2546.4219,1011.7969 Q2546.5938,1011.7031 2546.8281,1011.7031 Q2547.2188,1011.7031 2547.5156,1012.0156 Q2547.8281,1012.3125 2547.8281,1012.7188 Q2547.8281,1013.125 2547.4219,1013.5938 Q2546.8281,1014.2813 2545.8906,1014.6719 Q2544.625,1015.2031 2543.1094,1015.2031 Q2541.3281,1015.2031 2539.9063,1014.4688 Q2538.75,1013.875 2537.9375,1012.6094 Q2537.125,1011.3438 2537.125,1009.8594 L2537.125,1008.5 Q2537.125,1006.9375 2537.8438,1005.5938 Q2538.5781,1004.2344 2539.8594,1003.5 Q2541.1563,1002.7656 2542.6094,1002.7656 Q2543.4688,1002.7656 2544.2188,1002.9688 Q2544.9844,1003.1719 2545.6406,1003.5781 Z " fill="#000000"/><text fill="#000000" font-family="sans-serif" font-size="20" font-style="italic" lengthAdjust="spacing" textLength="128.9844" x="2563.4805" y="1004.2617">&#171;value object&#187;</text><text fill="#000000" font-family="sans-serif" font-size="20" lengthAdjust="spacing" textLength="138.9453" x="2558.5" y="1029.418">CompanyName</text><line style="stroke:#181818;stroke-width:0.5;" x1="2528.5" x2="2699.4453" y1="1038.8125" y2="1038.8125"/><text fill="#000000" font-family="sans-serif" font-size="20" lengthAdjust="spacing" textLength="50.0293" x="2533.5" y="1063.5742">name</text></g><g class="entity" data-qualified-name="AirTransportCompany_Aggregate.GMN5" data-source-line="13" id="ent0006"><path d="M2860,1007.5 L2860,1021 L2700.68,1025 L2860,1029 L2860,1042.6563 A0,0 0 0 0 2860,1042.6563 L3021.0879,1042.6563 A0,0 0 0 0 3021.0879,1042.6563 L3021.0879,1017.5 L3011.0879,1007.5 L2860,1007.5 A0,0 0 0 0 2860,1007.5" fill="#FEFFDD" style="stroke:#181818;stroke-width:0.5;"/><path d="M3011.0879,1007.5 L3011.0879,1017.5 L3021.0879,1017.5 L3011.0879,1007.5" fill="#FEFFDD" style="stroke:#181818;stroke-width:0.5;"/><text fill="#000000" font-family="sans-serif" font-size="20" lengthAdjust="spacing" textLength="140.0879" x="2866" y="1033.2617">unique (US060)</text></g><!--class IATACode_ATC--><g class="entity" data-qualified-name="AirTransportCompany_Aggregate.IATACode_ATC" data-source-line="14" id="ent0008"><rect fill="#F1F1F1" height="93.4688" rx="2.5" ry="2.5" style="stroke:#181818;stroke-width:0.5;" width="177.3887" x="2525.5" y="845.5"/><ellipse cx="2541.5" cy="875.6563" fill="#ADD1B2" rx="12" ry="12" style="stroke:#181818;stroke-width:1;"/><path d="M2543.6406,870.5781 Q2543.8281,870.3281 2544.0469,870.2031 Q2544.2656,870.0625 2544.5156,870.0625 Q2544.9531,870.0625 2545.2344,870.375 Q2545.5156,870.6719 2545.5156,871.3906 L2545.5156,873.0938 Q2545.5156,873.8125 2545.2344,874.125 Q2544.9531,874.4375 2544.5156,874.4375 Q2544.125,874.4375 2543.875,874.2031 Q2543.625,873.9844 2543.5156,873.375 Q2543.4531,872.9531 2543.2344,872.7344 Q2542.8438,872.2969 2542.125,872.0313 Q2541.4063,871.7656 2540.6875,871.7656 Q2539.7813,871.7656 2539.0313,872.1563 Q2538.2813,872.5469 2537.7031,873.4375 Q2537.125,874.3125 2537.125,875.5156 L2537.125,876.8125 Q2537.125,878.2656 2538.1719,879.2344 Q2539.2344,880.2031 2541.0938,880.2031 Q2542.2031,880.2031 2542.9844,879.8906 Q2543.4219,879.7188 2543.9375,879.2031 Q2544.25,878.8906 2544.4219,878.7969 Q2544.5938,878.7031 2544.8281,878.7031 Q2545.2188,878.7031 2545.5156,879.0156 Q2545.8281,879.3125 2545.8281,879.7188 Q2545.8281,880.125 2545.4219,880.5938 Q2544.8281,881.2813 2543.8906,881.6719 Q2542.625,882.2031 2541.1094,882.2031 Q2539.3281,882.2031 2537.9063,881.4688 Q2536.75,880.875 2535.9375,879.6094 Q2535.125,878.3438 2535.125,876.8594 L2535.125,875.5 Q2535.125,873.9375 2535.8438,872.5938 Q2536.5781,871.2344 2537.8594,870.5 Q2539.1563,869.7656 2540.6094,869.7656 Q2541.4688,869.7656 2542.2188,869.9688 Q2542.9844,870.1719 2543.6406,870.5781 Z " fill="#000000"/><text fill="#000000" font-family="sans-serif" font-size="20" font-style="italic" lengthAdjust="spacing" textLength="128.9844" x="2563.7021" y="871.2617">&#171;value object&#187;</text><text fill="#000000" font-family="sans-serif" font-size="20" lengthAdjust="spacing" textLength="143.3887" x="2556.5" y="896.418">IATACode_ATC</text><line style="stroke:#181818;stroke-width:0.5;" x1="2526.5" x2="2701.8887" y1="905.8125" y2="905.8125"/><text fill="#000000" font-family="sans-serif" font-size="20" lengthAdjust="spacing" textLength="43.3691" x="2531.5" y="930.5742">code</text></g><!--class ICAOCode_ATC--><g class="entity" data-qualified-name="AirTransportCompany_Aggregate.ICAOCode_ATC" data-source-line="17" id="ent0009"><rect fill="#F1F1F1" height="93.4688" rx="2.5" ry="2.5" style="stroke:#181818;stroke-width:0.5;" width="181.832" x="2523" y="712.5"/><ellipse cx="2539" cy="742.6563" fill="#ADD1B2" rx="12" ry="12" style="stroke:#181818;stroke-width:1;"/><path d="M2541.1406,737.5781 Q2541.3281,737.3281 2541.5469,737.2031 Q2541.7656,737.0625 2542.0156,737.0625 Q2542.4531,737.0625 2542.7344,737.375 Q2543.0156,737.6719 2543.0156,738.3906 L2543.0156,740.0938 Q2543.0156,740.8125 2542.7344,741.125 Q2542.4531,741.4375 2542.0156,741.4375 Q2541.625,741.4375 2541.375,741.2031 Q2541.125,740.9844 2541.0156,740.375 Q2540.9531,739.9531 2540.7344,739.7344 Q2540.3438,739.2969 2539.625,739.0313 Q2538.9063,738.7656 2538.1875,738.7656 Q2537.2813,738.7656 2536.5313,739.1563 Q2535.7813,739.5469 2535.2031,740.4375 Q2534.625,741.3125 2534.625,742.5156 L2534.625,743.8125 Q2534.625,745.2656 2535.6719,746.2344 Q2536.7344,747.2031 2538.5938,747.2031 Q2539.7031,747.2031 2540.4844,746.8906 Q2540.9219,746.7188 2541.4375,746.2031 Q2541.75,745.8906 2541.9219,745.7969 Q2542.0938,745.7031 2542.3281,745.7031 Q2542.7188,745.7031 2543.0156,746.0156 Q2543.3281,746.3125 2543.3281,746.7188 Q2543.3281,747.125 2542.9219,747.5938 Q2542.3281,748.2813 2541.3906,748.6719 Q2540.125,749.2031 2538.6094,749.2031 Q2536.8281,749.2031 2535.4063,748.4688 Q2534.25,747.875 2533.4375,746.6094 Q2532.625,745.3438 2532.625,743.8594 L2532.625,742.5 Q2532.625,740.9375 2533.3438,739.5938 Q2534.0781,738.2344 2535.3594,737.5 Q2536.6563,736.7656 2538.1094,736.7656 Q2538.9688,736.7656 2539.7188,736.9688 Q2540.4844,737.1719 2541.1406,737.5781 Z " fill="#000000"/><text fill="#000000" font-family="sans-serif" font-size="20" font-style="italic" lengthAdjust="spacing" textLength="128.9844" x="2563.4238" y="738.2617">&#171;value object&#187;</text><text fill="#000000" font-family="sans-serif" font-size="20" lengthAdjust="spacing" textLength="147.832" x="2554" y="763.418">ICAOCode_ATC</text><line style="stroke:#181818;stroke-width:0.5;" x1="2524" x2="2703.832" y1="772.8125" y2="772.8125"/><text fill="#000000" font-family="sans-serif" font-size="20" lengthAdjust="spacing" textLength="43.3691" x="2529" y="797.5742">code</text></g><g class="entity" data-qualified-name="AirTransportCompany_Aggregate.GMN10" data-source-line="20" id="ent0011"><path d="M2768.5,874.5 L2768.5,888 L2702.81,892 L2768.5,896 L2768.5,909.6563 A0,0 0 0 0 2768.5,909.6563 L3112.9375,909.6563 A0,0 0 0 0 3112.9375,909.6563 L3112.9375,884.5 L3102.9375,874.5 L2768.5,874.5 A0,0 0 0 0 2768.5,874.5" fill="#FEFFDD" style="stroke:#181818;stroke-width:0.5;"/><path d="M3102.9375,874.5 L3102.9375,884.5 L3112.9375,884.5 L3102.9375,874.5" fill="#FEFFDD" style="stroke:#181818;stroke-width:0.5;"/><text fill="#000000" font-family="sans-serif" font-size="20" lengthAdjust="spacing" textLength="323.4375" x="2774.5" y="900.2617">IATACode (same class as in Airport)</text></g><g class="entity" data-qualified-name="AirTransportCompany_Aggregate.GMN13" data-source-line="21" id="ent0014"><path d="M2766,741.5 L2766,755 L2705.39,759 L2766,763 L2766,776.6563 A0,0 0 0 0 2766,776.6563 L3114.8809,776.6563 A0,0 0 0 0 3114.8809,776.6563 L3114.8809,751.5 L3104.8809,741.5 L2766,741.5 A0,0 0 0 0 2766,741.5" fill="#FEFFDD" style="stroke:#181818;stroke-width:0.5;"/><path d="M3104.8809,741.5 L3104.8809,751.5 L3114.8809,751.5 L3104.8809,741.5" fill="#FEFFDD" style="stroke:#181818;stroke-width:0.5;"/><text fill="#000000" font-family="sans-serif" font-size="20" lengthAdjust="spacing" textLength="327.8809" x="2772" y="767.2617">ICAOCode (same class as in Airport)</text></g><!--class AirControlArea--><g class="entity" data-qualified-name="AirControlArea_Aggregate.AirControlArea" data-source-line="28" id="ent0020"><rect fill="#F1F1F1" height="85.4688" rx="2.5" ry="2.5" style="stroke:#181818;stroke-width:0.5;" width="165.1621" x="1694.5" y="1223.5"/><ellipse cx="1710.5" cy="1266.2344" fill="#ADD1B2" rx="12" ry="12" style="stroke:#181818;stroke-width:1;"/><path d="M1712.6406,1261.1563 Q1712.8281,1260.9063 1713.0469,1260.7813 Q1713.2656,1260.6406 1713.5156,1260.6406 Q1713.9531,1260.6406 1714.2344,1260.9531 Q1714.5156,1261.25 1714.5156,1261.9688 L1714.5156,1263.6719 Q1714.5156,1264.3906 1714.2344,1264.7031 Q1713.9531,1265.0156 1713.5156,1265.0156 Q1713.125,1265.0156 1712.875,1264.7813 Q1712.625,1264.5625 1712.5156,1263.9531 Q1712.4531,1263.5313 1712.2344,1263.3125 Q1711.8438,1262.875 1711.125,1262.6094 Q1710.4063,1262.3438 1709.6875,1262.3438 Q1708.7813,1262.3438 1708.0313,1262.7344 Q1707.2813,1263.125 1706.7031,1264.0156 Q1706.125,1264.8906 1706.125,1266.0938 L1706.125,1267.3906 Q1706.125,1268.8438 1707.1719,1269.8125 Q1708.2344,1270.7813 1710.0938,1270.7813 Q1711.2031,1270.7813 1711.9844,1270.4688 Q1712.4219,1270.2969 1712.9375,1269.7813 Q1713.25,1269.4688 1713.4219,1269.375 Q1713.5938,1269.2813 1713.8281,1269.2813 Q1714.2188,1269.2813 1714.5156,1269.5938 Q1714.8281,1269.8906 1714.8281,1270.2969 Q1714.8281,1270.7031 1714.4219,1271.1719 Q1713.8281,1271.8594 1712.8906,1272.25 Q1711.625,1272.7813 1710.1094,1272.7813 Q1708.3281,1272.7813 1706.9063,1272.0469 Q1705.75,1271.4531 1704.9375,1270.1875 Q1704.125,1268.9219 1704.125,1267.4375 L1704.125,1266.0781 Q1704.125,1264.5156 1704.8438,1263.1719 Q1705.5781,1261.8125 1706.8594,1261.0781 Q1708.1563,1260.3438 1709.6094,1260.3438 Q1710.4688,1260.3438 1711.2188,1260.5469 Q1711.9844,1260.75 1712.6406,1261.1563 Z " fill="#000000"/><text fill="#000000" font-family="sans-serif" font-size="20" font-style="italic" lengthAdjust="spacing" textLength="70.0488" x="1756.0566" y="1249.2617">&#171;entity&#187;</text><text fill="#000000" font-family="sans-serif" font-size="20" font-style="italic" lengthAdjust="spacing" textLength="56.709" x="1762.7266" y="1274.418">&#171;root&#187;</text><text fill="#000000" font-family="sans-serif" font-size="20" lengthAdjust="spacing" textLength="131.1621" x="1725.5" y="1299.5742">AirControlArea</text></g><!--class AreaCode--><g class="entity" data-qualified-name="AirControlArea_Aggregate.AreaCode" data-source-line="30" id="ent0021"><rect fill="#F1F1F1" height="93.4688" rx="2.5" ry="2.5" style="stroke:#181818;stroke-width:0.5;" width="158.9844" x="2861" y="1390.5"/><ellipse cx="2877" cy="1420.6563" fill="#ADD1B2" rx="12" ry="12" style="stroke:#181818;stroke-width:1;"/><path d="M2879.1406,1415.5781 Q2879.3281,1415.3281 2879.5469,1415.2031 Q2879.7656,1415.0625 2880.0156,1415.0625 Q2880.4531,1415.0625 2880.7344,1415.375 Q2881.0156,1415.6719 2881.0156,1416.3906 L2881.0156,1418.0938 Q2881.0156,1418.8125 2880.7344,1419.125 Q2880.4531,1419.4375 2880.0156,1419.4375 Q2879.625,1419.4375 2879.375,1419.2031 Q2879.125,1418.9844 2879.0156,1418.375 Q2878.9531,1417.9531 2878.7344,1417.7344 Q2878.3438,1417.2969 2877.625,1417.0313 Q2876.9063,1416.7656 2876.1875,1416.7656 Q2875.2813,1416.7656 2874.5313,1417.1563 Q2873.7813,1417.5469 2873.2031,1418.4375 Q2872.625,1419.3125 2872.625,1420.5156 L2872.625,1421.8125 Q2872.625,1423.2656 2873.6719,1424.2344 Q2874.7344,1425.2031 2876.5938,1425.2031 Q2877.7031,1425.2031 2878.4844,1424.8906 Q2878.9219,1424.7188 2879.4375,1424.2031 Q2879.75,1423.8906 2879.9219,1423.7969 Q2880.0938,1423.7031 2880.3281,1423.7031 Q2880.7188,1423.7031 2881.0156,1424.0156 Q2881.3281,1424.3125 2881.3281,1424.7188 Q2881.3281,1425.125 2880.9219,1425.5938 Q2880.3281,1426.2813 2879.3906,1426.6719 Q2878.125,1427.2031 2876.6094,1427.2031 Q2874.8281,1427.2031 2873.4063,1426.4688 Q2872.25,1425.875 2871.4375,1424.6094 Q2870.625,1423.3438 2870.625,1421.8594 L2870.625,1420.5 Q2870.625,1418.9375 2871.3438,1417.5938 Q2872.0781,1416.2344 2873.3594,1415.5 Q2874.6563,1414.7656 2876.1094,1414.7656 Q2876.9688,1414.7656 2877.7188,1414.9688 Q2878.4844,1415.1719 2879.1406,1415.5781 Z " fill="#000000"/><text fill="#000000" font-family="sans-serif" font-size="20" font-style="italic" lengthAdjust="spacing" textLength="128.9844" x="2890" y="1416.2617">&#171;value object&#187;</text><text fill="#000000" font-family="sans-serif" font-size="20" lengthAdjust="spacing" textLength="90.0586" x="2909.4629" y="1441.418">AreaCode</text><line style="stroke:#181818;stroke-width:0.5;" x1="2862" x2="3018.9844" y1="1450.8125" y2="1450.8125"/><text fill="#000000" font-family="sans-serif" font-size="20" lengthAdjust="spacing" textLength="43.3691" x="2867" y="1475.5742">code</text></g><g class="entity" data-qualified-name="AirControlArea_Aggregate.GMN22" data-source-line="33" id="ent0023"><path d="M3190.5,1419.5 L3190.5,1433 L3020.25,1437 L3190.5,1441 L3190.5,1454.6563 A0,0 0 0 0 3190.5,1454.6563 L3441.6074,1454.6563 A0,0 0 0 0 3441.6074,1454.6563 L3441.6074,1429.5 L3431.6074,1419.5 L3190.5,1419.5 A0,0 0 0 0 3190.5,1419.5" fill="#FEFFDD" style="stroke:#181818;stroke-width:0.5;"/><path d="M3431.6074,1419.5 L3431.6074,1429.5 L3441.6074,1429.5 L3431.6074,1419.5" fill="#FEFFDD" style="stroke:#181818;stroke-width:0.5;"/><text fill="#000000" font-family="sans-serif" font-size="20" lengthAdjust="spacing" textLength="230.1074" x="3196.5" y="1445.2617">unique in system (US050)</text></g><!--class Coordinates_ACA--><g class="entity" data-qualified-name="AirControlArea_Aggregate.Coordinates_ACA" data-source-line="34" id="ent0025"><rect fill="#F1F1F1" height="168.9375" rx="2.5" ry="2.5" style="stroke:#181818;stroke-width:0.5;" width="194.0879" x="2843.5" y="1181.5"/><ellipse cx="2859.5" cy="1211.6563" fill="#ADD1B2" rx="12" ry="12" style="stroke:#181818;stroke-width:1;"/><path d="M2861.6406,1206.5781 Q2861.8281,1206.3281 2862.0469,1206.2031 Q2862.2656,1206.0625 2862.5156,1206.0625 Q2862.9531,1206.0625 2863.2344,1206.375 Q2863.5156,1206.6719 2863.5156,1207.3906 L2863.5156,1209.0938 Q2863.5156,1209.8125 2863.2344,1210.125 Q2862.9531,1210.4375 2862.5156,1210.4375 Q2862.125,1210.4375 2861.875,1210.2031 Q2861.625,1209.9844 2861.5156,1209.375 Q2861.4531,1208.9531 2861.2344,1208.7344 Q2860.8438,1208.2969 2860.125,1208.0313 Q2859.4063,1207.7656 2858.6875,1207.7656 Q2857.7813,1207.7656 2857.0313,1208.1563 Q2856.2813,1208.5469 2855.7031,1209.4375 Q2855.125,1210.3125 2855.125,1211.5156 L2855.125,1212.8125 Q2855.125,1214.2656 2856.1719,1215.2344 Q2857.2344,1216.2031 2859.0938,1216.2031 Q2860.2031,1216.2031 2860.9844,1215.8906 Q2861.4219,1215.7188 2861.9375,1215.2031 Q2862.25,1214.8906 2862.4219,1214.7969 Q2862.5938,1214.7031 2862.8281,1214.7031 Q2863.2188,1214.7031 2863.5156,1215.0156 Q2863.8281,1215.3125 2863.8281,1215.7188 Q2863.8281,1216.125 2863.4219,1216.5938 Q2862.8281,1217.2813 2861.8906,1217.6719 Q2860.625,1218.2031 2859.1094,1218.2031 Q2857.3281,1218.2031 2855.9063,1217.4688 Q2854.75,1216.875 2853.9375,1215.6094 Q2853.125,1214.3438 2853.125,1212.8594 L2853.125,1211.5 Q2853.125,1209.9375 2853.8438,1208.5938 Q2854.5781,1207.2344 2855.8594,1206.5 Q2857.1563,1205.7656 2858.6094,1205.7656 Q2859.4688,1205.7656 2860.2188,1205.9688 Q2860.9844,1206.1719 2861.6406,1206.5781 Z " fill="#000000"/><text fill="#000000" font-family="sans-serif" font-size="20" font-style="italic" lengthAdjust="spacing" textLength="128.9844" x="2890.0518" y="1207.2617">&#171;value object&#187;</text><text fill="#000000" font-family="sans-serif" font-size="20" lengthAdjust="spacing" textLength="160.0879" x="2874.5" y="1232.418">Coordinates_ACA</text><line style="stroke:#181818;stroke-width:0.5;" x1="2844.5" x2="3036.5879" y1="1241.8125" y2="1241.8125"/><text fill="#000000" font-family="sans-serif" font-size="20" lengthAdjust="spacing" textLength="103.3984" x="2849.5" y="1266.5742">minLatitude</text><text fill="#000000" font-family="sans-serif" font-size="20" lengthAdjust="spacing" textLength="108.9551" x="2849.5" y="1291.7305">maxLatitude</text><text fill="#000000" font-family="sans-serif" font-size="20" lengthAdjust="spacing" textLength="120.0879" x="2849.5" y="1316.8867">minLongitude</text><text fill="#000000" font-family="sans-serif" font-size="20" lengthAdjust="spacing" textLength="125.6445" x="2849.5" y="1342.043">maxLongitude</text></g><g class="entity" data-qualified-name="AirControlArea_Aggregate.GMN26" data-source-line="40" id="ent0027"><path d="M3178,1223.5 L3178,1262 L3037.69,1266 L3178,1270 L3178,1308.9688 A0,0 0 0 0 3178,1308.9688 L3453.9512,1308.9688 A0,0 0 0 0 3453.9512,1308.9688 L3453.9512,1233.5 L3443.9512,1223.5 L3178,1223.5 A0,0 0 0 0 3178,1223.5" fill="#FEFFDD" style="stroke:#181818;stroke-width:0.5;"/><path d="M3443.9512,1223.5 L3443.9512,1233.5 L3453.9512,1233.5 L3443.9512,1223.5" fill="#FEFFDD" style="stroke:#181818;stroke-width:0.5;"/><text fill="#000000" font-family="sans-serif" font-size="20" lengthAdjust="spacing" textLength="184.5703" x="3184" y="1249.2617">Rectangle boundary.</text><text fill="#000000" font-family="sans-serif" font-size="20" lengthAdjust="spacing" textLength="254.9512" x="3184" y="1274.418">Client: "for sake of simplicity,</text><text fill="#000000" font-family="sans-serif" font-size="20" lengthAdjust="spacing" textLength="106.0547" x="3184" y="1299.5742">a rectangle"</text></g><!--class Collaborator--><g class="entity" data-qualified-name="Collaborator_Aggregate.Collaborator" data-source-line="47" id="ent0032"><rect fill="#F1F1F1" height="143.7813" rx="2.5" ry="2.5" style="stroke:#181818;stroke-width:0.5;" width="142.9453" x="709" y="401"/><ellipse cx="725" cy="443.7344" fill="#A9DCDF" rx="12" ry="12" style="stroke:#181818;stroke-width:1;"/><path d="M727.4531,445.7656 L722.5781,445.7656 L722.0938,446.9844 L722.5781,446.9844 Q723.3125,446.9844 723.6094,447.2656 Q723.9219,447.5313 723.9219,447.9844 Q723.9219,448.4219 723.6094,448.7031 Q723.3125,448.9844 722.5781,448.9844 L719.8906,448.9844 Q719.1719,448.9844 718.8594,448.7031 Q718.5469,448.4219 718.5469,447.9844 Q718.5469,447.5313 718.875,447.25 Q719.2031,446.9688 719.9375,446.9844 L723.0781,439.1563 L721.7813,439.1563 Q721.0469,439.1563 720.7344,438.875 Q720.4375,438.5938 720.4375,438.1406 Q720.4375,437.6875 720.7344,437.4219 Q721.0469,437.1406 721.7813,437.1406 L726.0938,437.1406 L730.0781,446.9844 Q730.7813,446.9844 731.0156,447.1406 Q731.4688,447.4531 731.4688,447.9844 Q731.4688,448.4219 731.1563,448.7031 Q730.8594,448.9844 730.1406,448.9844 L727.4375,448.9844 Q726.7188,448.9844 726.4063,448.7031 Q726.0938,448.4219 726.0938,447.9844 Q726.0938,447.5313 726.4063,447.2656 Q726.7188,446.9844 727.4375,446.9844 L727.9219,446.9844 L727.4531,445.7656 Z M726.625,443.7656 L725,439.7969 L723.3906,443.7656 L726.625,443.7656 Z " fill="#000000"/><text fill="#000000" font-family="sans-serif" font-size="20" font-style="italic" lengthAdjust="spacing" textLength="70.0488" x="759.4482" y="426.7617">&#171;entity&#187;</text><text fill="#000000" font-family="sans-serif" font-size="20" font-style="italic" lengthAdjust="spacing" textLength="56.709" x="766.1182" y="451.918">&#171;root&#187;</text><text fill="#000000" font-family="sans-serif" font-size="20" font-style="italic" lengthAdjust="spacing" textLength="108.9453" x="740" y="477.0742">Collaborator</text><line style="stroke:#181818;stroke-width:0.5;" x1="710" x2="850.9453" y1="486.4688" y2="486.4688"/><text fill="#000000" font-family="sans-serif" font-size="20" lengthAdjust="spacing" textLength="50.0293" x="715" y="511.2305">name</text><text fill="#000000" font-family="sans-serif" font-size="20" lengthAdjust="spacing" textLength="68.9355" x="715" y="536.3867">position</text></g><!--class ATCCollaborator--><g class="entity" data-qualified-name="Collaborator_Aggregate.ATCCollaborator" data-source-line="52" id="ent0033"><rect fill="#F1F1F1" height="60.3125" rx="2.5" ry="2.5" style="stroke:#181818;stroke-width:0.5;" width="182.9453" x="1685.5" y="543"/><ellipse cx="1701.5" cy="573.1563" fill="#ADD1B2" rx="12" ry="12" style="stroke:#181818;stroke-width:1;"/><path d="M1703.6406,568.0781 Q1703.8281,567.8281 1704.0469,567.7031 Q1704.2656,567.5625 1704.5156,567.5625 Q1704.9531,567.5625 1705.2344,567.875 Q1705.5156,568.1719 1705.5156,568.8906 L1705.5156,570.5938 Q1705.5156,571.3125 1705.2344,571.625 Q1704.9531,571.9375 1704.5156,571.9375 Q1704.125,571.9375 1703.875,571.7031 Q1703.625,571.4844 1703.5156,570.875 Q1703.4531,570.4531 1703.2344,570.2344 Q1702.8438,569.7969 1702.125,569.5313 Q1701.4063,569.2656 1700.6875,569.2656 Q1699.7813,569.2656 1699.0313,569.6563 Q1698.2813,570.0469 1697.7031,570.9375 Q1697.125,571.8125 1697.125,573.0156 L1697.125,574.3125 Q1697.125,575.7656 1698.1719,576.7344 Q1699.2344,577.7031 1701.0938,577.7031 Q1702.2031,577.7031 1702.9844,577.3906 Q1703.4219,577.2188 1703.9375,576.7031 Q1704.25,576.3906 1704.4219,576.2969 Q1704.5938,576.2031 1704.8281,576.2031 Q1705.2188,576.2031 1705.5156,576.5156 Q1705.8281,576.8125 1705.8281,577.2188 Q1705.8281,577.625 1705.4219,578.0938 Q1704.8281,578.7813 1703.8906,579.1719 Q1702.625,579.7031 1701.1094,579.7031 Q1699.3281,579.7031 1697.9063,578.9688 Q1696.75,578.375 1695.9375,577.1094 Q1695.125,575.8438 1695.125,574.3594 L1695.125,573 Q1695.125,571.4375 1695.8438,570.0938 Q1696.5781,568.7344 1697.8594,568 Q1699.1563,567.2656 1700.6094,567.2656 Q1701.4688,567.2656 1702.2188,567.4688 Q1702.9844,567.6719 1703.6406,568.0781 Z " fill="#000000"/><text fill="#000000" font-family="sans-serif" font-size="20" font-style="italic" lengthAdjust="spacing" textLength="70.0488" x="1755.9482" y="568.7617">&#171;entity&#187;</text><text fill="#000000" font-family="sans-serif" font-size="20" lengthAdjust="spacing" textLength="148.9453" x="1716.5" y="593.918">ATCCollaborator</text></g><!--class FlightControlOperator--><g class="entity" data-qualified-name="Collaborator_Aggregate.FlightControlOperator" data-source-line="54" id="ent0034"><rect fill="#F1F1F1" height="60.3125" rx="2.5" ry="2.5" style="stroke:#181818;stroke-width:0.5;" width="226.3047" x="1664" y="443"/><ellipse cx="1680" cy="473.1563" fill="#ADD1B2" rx="12" ry="12" style="stroke:#181818;stroke-width:1;"/><path d="M1682.1406,468.0781 Q1682.3281,467.8281 1682.5469,467.7031 Q1682.7656,467.5625 1683.0156,467.5625 Q1683.4531,467.5625 1683.7344,467.875 Q1684.0156,468.1719 1684.0156,468.8906 L1684.0156,470.5938 Q1684.0156,471.3125 1683.7344,471.625 Q1683.4531,471.9375 1683.0156,471.9375 Q1682.625,471.9375 1682.375,471.7031 Q1682.125,471.4844 1682.0156,470.875 Q1681.9531,470.4531 1681.7344,470.2344 Q1681.3438,469.7969 1680.625,469.5313 Q1679.9063,469.2656 1679.1875,469.2656 Q1678.2813,469.2656 1677.5313,469.6563 Q1676.7813,470.0469 1676.2031,470.9375 Q1675.625,471.8125 1675.625,473.0156 L1675.625,474.3125 Q1675.625,475.7656 1676.6719,476.7344 Q1677.7344,477.7031 1679.5938,477.7031 Q1680.7031,477.7031 1681.4844,477.3906 Q1681.9219,477.2188 1682.4375,476.7031 Q1682.75,476.3906 1682.9219,476.2969 Q1683.0938,476.2031 1683.3281,476.2031 Q1683.7188,476.2031 1684.0156,476.5156 Q1684.3281,476.8125 1684.3281,477.2188 Q1684.3281,477.625 1683.9219,478.0938 Q1683.3281,478.7813 1682.3906,479.1719 Q1681.125,479.7031 1679.6094,479.7031 Q1677.8281,479.7031 1676.4063,478.9688 Q1675.25,478.375 1674.4375,477.1094 Q1673.625,475.8438 1673.625,474.3594 L1673.625,473 Q1673.625,471.4375 1674.3438,470.0938 Q1675.0781,468.7344 1676.3594,468 Q1677.6563,467.2656 1679.1094,467.2656 Q1679.9688,467.2656 1680.7188,467.4688 Q1681.4844,467.6719 1682.1406,468.0781 Z " fill="#000000"/><text fill="#000000" font-family="sans-serif" font-size="20" font-style="italic" lengthAdjust="spacing" textLength="70.0488" x="1756.1279" y="468.7617">&#171;entity&#187;</text><text fill="#000000" font-family="sans-serif" font-size="20" lengthAdjust="spacing" textLength="192.3047" x="1695" y="493.918">FlightControlOperator</text></g><!--class WeatherPerson--><g class="entity" data-qualified-name="Collaborator_Aggregate.WeatherPerson" data-source-line="56" id="ent0035"><rect fill="#F1F1F1" height="60.3125" rx="2.5" ry="2.5" style="stroke:#181818;stroke-width:0.5;" width="172.9551" x="1690.5" y="343"/><ellipse cx="1706.5" cy="373.1563" fill="#ADD1B2" rx="12" ry="12" style="stroke:#181818;stroke-width:1;"/><path d="M1708.6406,368.0781 Q1708.8281,367.8281 1709.0469,367.7031 Q1709.2656,367.5625 1709.5156,367.5625 Q1709.9531,367.5625 1710.2344,367.875 Q1710.5156,368.1719 1710.5156,368.8906 L1710.5156,370.5938 Q1710.5156,371.3125 1710.2344,371.625 Q1709.9531,371.9375 1709.5156,371.9375 Q1709.125,371.9375 1708.875,371.7031 Q1708.625,371.4844 1708.5156,370.875 Q1708.4531,370.4531 1708.2344,370.2344 Q1707.8438,369.7969 1707.125,369.5313 Q1706.4063,369.2656 1705.6875,369.2656 Q1704.7813,369.2656 1704.0313,369.6563 Q1703.2813,370.0469 1702.7031,370.9375 Q1702.125,371.8125 1702.125,373.0156 L1702.125,374.3125 Q1702.125,375.7656 1703.1719,376.7344 Q1704.2344,377.7031 1706.0938,377.7031 Q1707.2031,377.7031 1707.9844,377.3906 Q1708.4219,377.2188 1708.9375,376.7031 Q1709.25,376.3906 1709.4219,376.2969 Q1709.5938,376.2031 1709.8281,376.2031 Q1710.2188,376.2031 1710.5156,376.5156 Q1710.8281,376.8125 1710.8281,377.2188 Q1710.8281,377.625 1710.4219,378.0938 Q1709.8281,378.7813 1708.8906,379.1719 Q1707.625,379.7031 1706.1094,379.7031 Q1704.3281,379.7031 1702.9063,378.9688 Q1701.75,378.375 1700.9375,377.1094 Q1700.125,375.8438 1700.125,374.3594 L1700.125,373 Q1700.125,371.4375 1700.8438,370.0938 Q1701.5781,368.7344 1702.8594,368 Q1704.1563,367.2656 1705.6094,367.2656 Q1706.4688,367.2656 1707.2188,367.4688 Q1707.9844,367.6719 1708.6406,368.0781 Z " fill="#000000"/><text fill="#000000" font-family="sans-serif" font-size="20" font-style="italic" lengthAdjust="spacing" textLength="70.0488" x="1755.9531" y="368.7617">&#171;entity&#187;</text><text fill="#000000" font-family="sans-serif" font-size="20" lengthAdjust="spacing" textLength="138.9551" x="1721.5" y="393.918">WeatherPerson</text></g><!--class SecurityClearance--><g class="entity" data-qualified-name="Collaborator_Aggregate.SecurityClearance" data-source-line="58" id="ent0036"><rect fill="#F1F1F1" height="93.4688" rx="2.5" ry="2.5" style="stroke:#181818;stroke-width:0.5;" width="197.4082" x="1678.5" y="209.5"/><ellipse cx="1694.5" cy="239.6563" fill="#ADD1B2" rx="12" ry="12" style="stroke:#181818;stroke-width:1;"/><path d="M1696.6406,234.5781 Q1696.8281,234.3281 1697.0469,234.2031 Q1697.2656,234.0625 1697.5156,234.0625 Q1697.9531,234.0625 1698.2344,234.375 Q1698.5156,234.6719 1698.5156,235.3906 L1698.5156,237.0938 Q1698.5156,237.8125 1698.2344,238.125 Q1697.9531,238.4375 1697.5156,238.4375 Q1697.125,238.4375 1696.875,238.2031 Q1696.625,237.9844 1696.5156,237.375 Q1696.4531,236.9531 1696.2344,236.7344 Q1695.8438,236.2969 1695.125,236.0313 Q1694.4063,235.7656 1693.6875,235.7656 Q1692.7813,235.7656 1692.0313,236.1563 Q1691.2813,236.5469 1690.7031,237.4375 Q1690.125,238.3125 1690.125,239.5156 L1690.125,240.8125 Q1690.125,242.2656 1691.1719,243.2344 Q1692.2344,244.2031 1694.0938,244.2031 Q1695.2031,244.2031 1695.9844,243.8906 Q1696.4219,243.7188 1696.9375,243.2031 Q1697.25,242.8906 1697.4219,242.7969 Q1697.5938,242.7031 1697.8281,242.7031 Q1698.2188,242.7031 1698.5156,243.0156 Q1698.8281,243.3125 1698.8281,243.7188 Q1698.8281,244.125 1698.4219,244.5938 Q1697.8281,245.2813 1696.8906,245.6719 Q1695.625,246.2031 1694.1094,246.2031 Q1692.3281,246.2031 1690.9063,245.4688 Q1689.75,244.875 1688.9375,243.6094 Q1688.125,242.3438 1688.125,240.8594 L1688.125,239.5 Q1688.125,237.9375 1688.8438,236.5938 Q1689.5781,235.2344 1690.8594,234.5 Q1692.1563,233.7656 1693.6094,233.7656 Q1694.4688,233.7656 1695.2188,233.9688 Q1695.9844,234.1719 1696.6406,234.5781 Z " fill="#000000"/><text fill="#000000" font-family="sans-serif" font-size="20" font-style="italic" lengthAdjust="spacing" textLength="128.9844" x="1726.7119" y="235.2617">&#171;value object&#187;</text><text fill="#000000" font-family="sans-serif" font-size="20" lengthAdjust="spacing" textLength="163.4082" x="1709.5" y="260.418">SecurityClearance</text><line style="stroke:#181818;stroke-width:0.5;" x1="1679.5" x2="1874.9082" y1="269.8125" y2="269.8125"/><text fill="#000000" font-family="sans-serif" font-size="20" lengthAdjust="spacing" textLength="95.5957" x="1684.5" y="294.5742">expiryDate</text></g><g class="entity" data-qualified-name="Collaborator_Aggregate.GMN37" data-source-line="61" id="ent0038"><path d="M1951,226 L1951,252 L1875.91,256 L1951,260 L1951,286.3125 A0,0 0 0 0 1951,286.3125 L2355.5254,286.3125 A0,0 0 0 0 2355.5254,286.3125 L2355.5254,236 L2345.5254,226 L1951,226 A0,0 0 0 0 1951,226" fill="#FEFFDD" style="stroke:#181818;stroke-width:0.5;"/><path d="M2345.5254,226 L2345.5254,236 L2355.5254,236 L2345.5254,226" fill="#FEFFDD" style="stroke:#181818;stroke-width:0.5;"/><text fill="#000000" font-family="sans-serif" font-size="20" lengthAdjust="spacing" textLength="115.6152" x="1957" y="251.7617">auto-expires.</text><text fill="#000000" font-family="sans-serif" font-size="20" lengthAdjust="spacing" textLength="383.5254" x="1957" y="276.918">Updatable by Admin/Backoffice (sec. 3.1.1)</text></g><!--class SkillsAssessment--><g class="entity" data-qualified-name="Collaborator_Aggregate.SkillsAssessment" data-source-line="62" id="ent0040"><rect fill="#F1F1F1" height="93.4688" rx="2.5" ry="2.5" style="stroke:#181818;stroke-width:0.5;" width="189.5957" x="1682" y="76.5"/><ellipse cx="1698" cy="106.6563" fill="#ADD1B2" rx="12" ry="12" style="stroke:#181818;stroke-width:1;"/><path d="M1700.1406,101.5781 Q1700.3281,101.3281 1700.5469,101.2031 Q1700.7656,101.0625 1701.0156,101.0625 Q1701.4531,101.0625 1701.7344,101.375 Q1702.0156,101.6719 1702.0156,102.3906 L1702.0156,104.0938 Q1702.0156,104.8125 1701.7344,105.125 Q1701.4531,105.4375 1701.0156,105.4375 Q1700.625,105.4375 1700.375,105.2031 Q1700.125,104.9844 1700.0156,104.375 Q1699.9531,103.9531 1699.7344,103.7344 Q1699.3438,103.2969 1698.625,103.0313 Q1697.9063,102.7656 1697.1875,102.7656 Q1696.2813,102.7656 1695.5313,103.1563 Q1694.7813,103.5469 1694.2031,104.4375 Q1693.625,105.3125 1693.625,106.5156 L1693.625,107.8125 Q1693.625,109.2656 1694.6719,110.2344 Q1695.7344,111.2031 1697.5938,111.2031 Q1698.7031,111.2031 1699.4844,110.8906 Q1699.9219,110.7188 1700.4375,110.2031 Q1700.75,109.8906 1700.9219,109.7969 Q1701.0938,109.7031 1701.3281,109.7031 Q1701.7188,109.7031 1702.0156,110.0156 Q1702.3281,110.3125 1702.3281,110.7188 Q1702.3281,111.125 1701.9219,111.5938 Q1701.3281,112.2813 1700.3906,112.6719 Q1699.125,113.2031 1697.6094,113.2031 Q1695.8281,113.2031 1694.4063,112.4688 Q1693.25,111.875 1692.4375,110.6094 Q1691.625,109.3438 1691.625,107.8594 L1691.625,106.5 Q1691.625,104.9375 1692.3438,103.5938 Q1693.0781,102.2344 1694.3594,101.5 Q1695.6563,100.7656 1697.1094,100.7656 Q1697.9688,100.7656 1698.7188,100.9688 Q1699.4844,101.1719 1700.1406,101.5781 Z " fill="#000000"/><text fill="#000000" font-family="sans-serif" font-size="20" font-style="italic" lengthAdjust="spacing" textLength="128.9844" x="1726.3057" y="102.2617">&#171;value object&#187;</text><text fill="#000000" font-family="sans-serif" font-size="20" lengthAdjust="spacing" textLength="155.5957" x="1713" y="127.418">SkillsAssessment</text><line style="stroke:#181818;stroke-width:0.5;" x1="1683" x2="1870.5957" y1="136.8125" y2="136.8125"/><text fill="#000000" font-family="sans-serif" font-size="20" lengthAdjust="spacing" textLength="148.9551" x="1688" y="161.5742">assessmentDate</text></g><g class="entity" data-qualified-name="Collaborator_Aggregate.GMN41" data-source-line="65" id="ent0042"><path d="M1989.5,105.5 L1989.5,119 L1872.02,123 L1989.5,127 L1989.5,140.6563 A0,0 0 0 0 1989.5,140.6563 L2317.2969,140.6563 A0,0 0 0 0 2317.2969,140.6563 L2317.2969,115.5 L2307.2969,105.5 L1989.5,105.5 A0,0 0 0 0 1989.5,105.5" fill="#FEFFDD" style="stroke:#181818;stroke-width:0.5;"/><path d="M2307.2969,105.5 L2307.2969,115.5 L2317.2969,115.5 L2307.2969,105.5" fill="#FEFFDD" style="stroke:#181818;stroke-width:0.5;"/><text fill="#000000" font-family="sans-serif" font-size="20" lengthAdjust="spacing" textLength="306.7969" x="1995.5" y="131.2617">periodic, every 5 years (sec. 3.1.1)</text></g><!--class SystemUser--><g class="entity" data-qualified-name="Collaborator_Aggregate.SystemUser" data-source-line="66" id="ent0044"><rect fill="#F1F1F1" height="60.3125" rx="2.5" ry="2.5" style="stroke:#181818;stroke-width:0.5;" width="142.9063" x="709" y="274"/><ellipse cx="725" cy="304.1563" fill="#ADD1B2" rx="12" ry="12" style="stroke:#181818;stroke-width:1;"/><path d="M727.1406,299.0781 Q727.3281,298.8281 727.5469,298.7031 Q727.7656,298.5625 728.0156,298.5625 Q728.4531,298.5625 728.7344,298.875 Q729.0156,299.1719 729.0156,299.8906 L729.0156,301.5938 Q729.0156,302.3125 728.7344,302.625 Q728.4531,302.9375 728.0156,302.9375 Q727.625,302.9375 727.375,302.7031 Q727.125,302.4844 727.0156,301.875 Q726.9531,301.4531 726.7344,301.2344 Q726.3438,300.7969 725.625,300.5313 Q724.9063,300.2656 724.1875,300.2656 Q723.2813,300.2656 722.5313,300.6563 Q721.7813,301.0469 721.2031,301.9375 Q720.625,302.8125 720.625,304.0156 L720.625,305.3125 Q720.625,306.7656 721.6719,307.7344 Q722.7344,308.7031 724.5938,308.7031 Q725.7031,308.7031 726.4844,308.3906 Q726.9219,308.2188 727.4375,307.7031 Q727.75,307.3906 727.9219,307.2969 Q728.0938,307.2031 728.3281,307.2031 Q728.7188,307.2031 729.0156,307.5156 Q729.3281,307.8125 729.3281,308.2188 Q729.3281,308.625 728.9219,309.0938 Q728.3281,309.7813 727.3906,310.1719 Q726.125,310.7031 724.6094,310.7031 Q722.8281,310.7031 721.4063,309.9688 Q720.25,309.375 719.4375,308.1094 Q718.625,306.8438 718.625,305.3594 L718.625,304 Q718.625,302.4375 719.3438,301.0938 Q720.0781,299.7344 721.3594,299 Q722.6563,298.2656 724.1094,298.2656 Q724.9688,298.2656 725.7188,298.4688 Q726.4844,298.6719 727.1406,299.0781 Z " fill="#000000"/><text fill="#000000" font-family="sans-serif" font-size="20" font-style="italic" lengthAdjust="spacing" textLength="70.0488" x="759.4287" y="299.7617">&#171;entity&#187;</text><text fill="#000000" font-family="sans-serif" font-size="20" lengthAdjust="spacing" textLength="108.9063" x="740" y="324.918">SystemUser</text></g><g class="entity" data-qualified-name="Collaborator_Aggregate.GMN45" data-source-line="68" id="ent0046"><path d="M23,261.5 L23,346.9688 A0,0 0 0 0 23,346.9688 L647.6328,346.9688 A0,0 0 0 0 647.6328,346.9688 L647.6328,308 L708.77,304 L647.6328,300 L647.6328,271.5 L637.6328,261.5 L23,261.5 A0,0 0 0 0 23,261.5" fill="#FEFFDD" style="stroke:#181818;stroke-width:0.5;"/><path d="M637.6328,261.5 L637.6328,271.5 L647.6328,271.5 L637.6328,261.5" fill="#FEFFDD" style="stroke:#181818;stroke-width:0.5;"/><text fill="#000000" font-family="sans-serif" font-size="20" lengthAdjust="spacing" textLength="250.1172" x="29" y="287.2617">EAPLI framework boundary.</text><text fill="#000000" font-family="sans-serif" font-size="20" lengthAdjust="spacing" textLength="603.6328" x="29" y="312.418">Stores: email (unique, sec. 3.1.1), name, phoneNumber (sec. 3.1.1).</text><text fill="#000000" font-family="sans-serif" font-size="20" lengthAdjust="spacing" textLength="383.5352" x="29" y="337.5742">Internal details managed by the framework.</text></g><!--reverse link AirTransportCompany to CompanyName--><g class="link" data-entity-1="ent0003" data-entity-2="ent0004" data-link-type="composition" data-source-line="22" id="lnk16"><path codeLine="22" d="M2263.5879,873.3476 C2345.2679,908.7976 2449.43,954 2527.42,987.86" fill="none" id="AirTransportCompany-backto-CompanyName" style="stroke:#181818;stroke-width:1;"/><polygon fill="#181818" points="2252.58,868.57,2256.4915,874.6281,2263.5879,873.3476,2259.6765,867.2895,2252.58,868.57" style="stroke:#181818;stroke-width:1;"/><text fill="#000000" font-family="sans-serif" font-size="20" lengthAdjust="spacing" textLength="84.4922" x="2398.5" y="926.7617">namedAs</text></g><!--reverse link AirTransportCompany to IATACode_ATC--><g class="link" data-entity-1="ent0003" data-entity-2="ent0008" data-link-type="composition" data-source-line="23" id="lnk17"><path codeLine="23" d="M2280.5975,844.1505 C2360.0375,855.5905 2452.46,868.89 2525.36,879.39" fill="none" id="AirTransportCompany-backto-IATACode_ATC" style="stroke:#181818;stroke-width:1;"/><polygon fill="#181818" points="2268.72,842.44,2274.0886,847.2544,2280.5975,844.1505,2275.2289,839.3361,2268.72,842.44" style="stroke:#181818;stroke-width:1;"/><text fill="#000000" font-family="sans-serif" font-size="20" lengthAdjust="spacing" textLength="103.3984" x="2389" y="855.7617">identifiedBy</text></g><!--reverse link AirTransportCompany to ICAOCode_ATC--><g class="link" data-entity-1="ent0003" data-entity-2="ent0009" data-link-type="composition" data-source-line="24" id="lnk18"><path codeLine="24" d="M2280.5939,807.5753 C2359.1039,796.1053 2450.03,782.81 2522.8,772.18" fill="none" id="AirTransportCompany-backto-ICAOCode_ATC" style="stroke:#181818;stroke-width:1;"/><polygon fill="#181818" points="2268.72,809.31,2275.2352,812.4006,2280.5939,807.5753,2274.0787,804.4846,2268.72,809.31" style="stroke:#181818;stroke-width:1;"/><text fill="#000000" font-family="sans-serif" font-size="20" lengthAdjust="spacing" textLength="103.3984" x="2389" y="771.7617">identifiedBy</text></g><!--reverse link AirControlArea to AreaCode--><g class="link" data-entity-1="ent0020" data-entity-2="ent0021" data-link-type="composition" data-source-line="42" id="lnk29"><path codeLine="42" d="M1871.542,1279.7678 C2085.842,1311.3178 2650.3,1394.42 2860.99,1425.44" fill="none" id="AirControlArea-backto-AreaCode" style="stroke:#181818;stroke-width:1;"/><polygon fill="#181818" points="1859.67,1278.02,1865.0234,1282.8513,1871.542,1279.7678,1866.1886,1274.9366,1859.67,1278.02" style="stroke:#181818;stroke-width:1;"/><text fill="#000000" font-family="sans-serif" font-size="20" lengthAdjust="spacing" textLength="103.3984" x="2389" y="1350.7617">identifiedBy</text></g><!--reverse link AirControlArea to Coordinates_ACA--><g class="link" data-entity-1="ent0020" data-entity-2="ent0025" data-link-type="composition" data-source-line="43" id="lnk30"><path codeLine="43" d="M1871.67,1266 C2080.29,1266 2620,1266 2843.48,1266" fill="none" id="AirControlArea-backto-Coordinates_ACA" style="stroke:#181818;stroke-width:1;"/><polygon fill="#181818" points="1859.67,1266,1865.67,1270,1871.67,1266,1865.67,1262,1859.67,1266" style="stroke:#181818;stroke-width:1;"/><text fill="#000000" font-family="sans-serif" font-size="20" lengthAdjust="spacing" textLength="101.2012" x="2390" y="1260.7617">boundedBy</text></g><!--reverse link Collaborator to ATCCollaborator--><g class="link" data-entity-1="ent0032" data-entity-2="ent0033" data-link-type="extension" data-source-line="69" id="lnk48"><path codeLine="69" d="M870.1297,481.9109 C1046.7497,499.6709 1489.08,544.15 1685.27,563.88" fill="none" id="Collaborator-backto-ATCCollaborator" style="stroke:#181818;stroke-width:1;"/><polygon fill="none" points="852.22,480.11,869.5294,487.8808,870.73,475.941,852.22,480.11" style="stroke:#181818;stroke-width:1;"/></g><!--reverse link Collaborator to FlightControlOperator--><g class="link" data-entity-1="ent0032" data-entity-2="ent0034" data-link-type="extension" data-source-line="70" id="lnk49"><path codeLine="70" d="M870.22,473 C1040.63,473 1457.05,473 1663.61,473" fill="none" id="Collaborator-backto-FlightControlOperator" style="stroke:#181818;stroke-width:1;"/><polygon fill="none" points="852.22,473,870.22,479,870.22,467,852.22,473" style="stroke:#181818;stroke-width:1;"/></g><!--reverse link Collaborator to WeatherPerson--><g class="link" data-entity-1="ent0032" data-entity-2="ent0035" data-link-type="extension" data-source-line="71" id="lnk50"><path codeLine="71" d="M869.9451,463.2491 C879.9951,462.1591 872.31,463.01 882,462 C1178.69,431 1531.04,396.64 1690.29,381.25" fill="none" id="Collaborator-backto-WeatherPerson" style="stroke:#181818;stroke-width:1;"/><polygon fill="none" points="852.05,465.19,870.592,469.2142,869.2981,457.2841,852.05,465.19" style="stroke:#181818;stroke-width:1;"/></g><!--reverse link Collaborator to SecurityClearance--><g class="link" data-entity-1="ent0032" data-entity-2="ent0036" data-link-type="composition" data-source-line="72" id="lnk51"><path codeLine="72" d="M863.5667,442.2368 C883.0867,435.4068 893.05,432.44 913,427 C1186.55,352.45 1517.13,296.11 1678.22,270.76" fill="none" id="Collaborator-backto-SecurityClearance" style="stroke:#181818;stroke-width:1;"/><polygon fill="#181818" points="852.24,446.2,859.2244,447.994,863.5667,442.2368,856.5823,440.4429,852.24,446.2" style="stroke:#181818;stroke-width:1;"/><text fill="#000000" font-family="sans-serif" font-size="20" lengthAdjust="spacing" textLength="86.709" x="1083" y="326.7617">hasActive</text></g><!--reverse link Collaborator to SkillsAssessment--><g class="link" data-entity-1="ent0032" data-entity-2="ent0040" data-link-type="composition" data-source-line="73" id="lnk52"><path codeLine="73" d="M833.8292,390.614 C862.3692,347.644 891.1,308.9 913,295 C1157.74,139.64 1513.8,120.09 1681.7,120.38" fill="none" id="Collaborator-backto-SkillsAssessment" style="stroke:#181818;stroke-width:1;"/><polygon fill="#181818" points="827.19,400.61,833.8416,397.8251,833.8292,390.614,827.1776,393.3989,827.19,400.61" style="stroke:#181818;stroke-width:1;"/><text fill="#000000" font-family="sans-serif" font-size="20" lengthAdjust="spacing" textLength="84.4922" x="1084" y="142.7617">assessed</text></g><!--link Collaborator to SystemUser--><g class="link" data-entity-1="ent0032" data-entity-2="ent0044" data-link-type="dependency" data-source-line="74" id="lnk53"><path codeLine="74" d="M780.5,400.84 C780.5,377.51 780.5,358.91 780.5,340.33" fill="none" id="Collaborator-to-SystemUser" style="stroke:#181818;stroke-width:1;"/><polygon fill="#181818" points="780.5,334.33,776.5,343.33,780.5,339.33,784.5,343.33,780.5,334.33" style="stroke:#181818;stroke-width:1;"/><text fill="#000000" font-family="sans-serif" font-size="20" lengthAdjust="spacing" textLength="75.5957" x="726.5" y="375.7617">linkedTo</text></g><!--link Collaborator to AirTransportCompany--><g class="link" data-entity-1="ent0032" data-entity-2="ent0003" data-link-type="dependency" data-source-line="78" id="lnk54"><path codeLine="78" d="M852.02,511.54 C871.44,521.28 892.74,531.18 913,539 C1311.73,692.92 1809.9128,777.2642 2032.2928,809.6942" fill="none" id="Collaborator-to-AirTransportCompany" style="stroke:#181818;stroke-width:1;"/><polygon fill="#181818" points="2038.23,810.56,2029.9014,805.3031,2033.2823,809.8385,2028.747,813.2194,2038.23,810.56" style="stroke:#181818;stroke-width:1;"/><polygon fill="#000000" points="1451.4927,600.5375,1438.613,592.4339,1436.3096,601.552,1451.4927,600.5375" style="stroke:#000000;stroke-width:1;"/><text fill="#000000" font-family="sans-serif" font-size="20" lengthAdjust="spacing" textLength="110.0586" x="1456.7363" y="606.7617">employedBy</text><path d="M1374,617.1563 L1374,677.1563 L1629,677.1563 L1629,627.1563 L1619,617.1563 L1374,617.1563" fill="#FEFFDD" style="stroke:#181818;stroke-width:0.5;"/><path d="M1619,617.1563 L1619,627.1563 L1629,627.1563 L1619,617.1563" fill="#FEFFDD" style="stroke:#181818;stroke-width:0.5;"/><text fill="#000000" font-family="sans-serif" font-size="20" lengthAdjust="spacing" textLength="201.1816" x="1380" y="642.918">Only ATCCollaborator.</text><text fill="#000000" font-family="sans-serif" font-size="20" lengthAdjust="spacing" textLength="234.5313" x="1380" y="668.0742">FCO/WeatherPerson: null.</text><text fill="#000000" font-family="sans-serif" font-size="20" lengthAdjust="spacing" textLength="7.7832" x="859.7996" y="537.5846">*</text><text fill="#000000" font-family="sans-serif" font-size="20" lengthAdjust="spacing" textLength="33.3594" x="1997.2226" y="831.133">0..1</text></g><!--link Collaborator to AirControlArea--><g class="link" data-entity-1="ent0032" data-entity-2="ent0020" data-link-type="dependency" data-source-line="81" id="lnk55"><path codeLine="81" d="M790.33,545.14 C803.77,626.98 836.44,760.17 913,846 C1131.51,1090.96 1518.9361,1206.2181 1688.5961,1246.9881" fill="none" id="Collaborator-to-AirControlArea" style="stroke:#181818;stroke-width:1;"/><polygon fill="#181818" points="1694.43,1248.39,1686.6137,1242.3978,1689.5684,1247.2217,1684.7445,1250.1764,1694.43,1248.39" style="stroke:#181818;stroke-width:1;"/><polygon fill="#000000" points="1088.5666,767.5036,1080.0578,754.888,1074.2676,762.2987,1088.5666,767.5036" style="stroke:#000000;stroke-width:1;"/><text fill="#000000" font-family="sans-serif" font-size="20" lengthAdjust="spacing" textLength="82.2266" x="1095.2627" y="770.7617">worksFor</text><path d="M918,781.1563 L918,841.1563 L1334,841.1563 L1334,791.1563 L1324,781.1563 L918,781.1563" fill="#FEFFDD" style="stroke:#181818;stroke-width:0.5;"/><path d="M1324,781.1563 L1324,791.1563 L1334,791.1563 L1324,781.1563" fill="#FEFFDD" style="stroke:#181818;stroke-width:0.5;"/><text fill="#000000" font-family="sans-serif" font-size="20" lengthAdjust="spacing" textLength="395.752" x="924" y="806.918">Only applicable to FCO and WeatherPerson.</text><text fill="#000000" font-family="sans-serif" font-size="20" lengthAdjust="spacing" textLength="257.8809" x="924" y="832.0742">ATCCollaborator always null.</text><text fill="#000000" font-family="sans-serif" font-size="20" lengthAdjust="spacing" textLength="7.7832" x="783.9311" y="573.4567">*</text><text fill="#000000" font-family="sans-serif" font-size="20" lengthAdjust="spacing" textLength="33.3594" x="1653.2339" y="1268.7156">0..1</text></g><?plantuml-src bLPDRzD04BtxLunoAYWDALy7gufa39Kg8Of8AYv8rSIU94lMksPtNJ3G_ywicphUn2vmNFlDpFERDxEsMw5AD5X8dMqfXvnMM4btePMRYvy4pwUHf9K3fy68zSP1BWnbJcWLsOTGA37RufhchfO4_ZMgjQGEGEcSB9NmSjfvQ51j_SFNqsWZSW8gIbT3GSMIZ8sYNL8O9S8i66jBRLogYn9LVPEiruRMw6W4v-VuS9ZDu5S4a4cq5dh264lA2LSpyFpSQErs4NTjr0xv0GjYo2tAYa0ll_8txQ00Yj_jOfHsjDD5huBO62ebld7moVLy-dhwf2rmcIoIbEMuIHRfK8MCtmUiBjFawZ-2Gbf1nRWzmedrHEyBe0MXl6HUhIV7ARhru_RuU8g-1ZmzFJsGoQkP9_OH_05_jWhtS2KeVrC_5XLI3gBkGdUbR7QZPM88_z5OdOX_y9I7DNBzR-VQmDPDhB2jhQEYyTMhZgzIhKqk59ErDqcQ3DKgX7gFJBTgIl8PVuHdVg_LEWHq7lIvFYmSmwU73G1BNQaSJJtveb8fMASOHYjjmEAMVAmLHIb5nkgDloZShuvHTD_PhixSL6vhHv9Z8np3Zyarb8vSa6efSQaDEcqUzm0khJEOkLRsVU2W5TgT0L1gAvhjwQNSEsIH3YKAhNGXlUoxxxmgwI_mpuHkG-OZBrIjXc5poYh3Br99l9bLDkXK-b4AKxzbDNgjS9md1goSFctYoB8DhiiS7IwzDsf8ShRRipVS1BrQYSpl4yecy69oDZdREtk-5LBQn5gojk0l62A7BMAOu66g65X3eNEHZO5koTJm2cecRmUeDBDtRQbNywPMSrlwKdje3E-IZ-ylOSMt7dtNPjkTYpata6pCjnyA2IVtSpw6JlLnuvunb1kjw4FbhyU07IUvL8wCGidNj-CqbgTMiQzpBp8RO5zvmZH3f_rkfYhqNp-ertlzqC1tXn0_cRrMsQ1D-DVYbleZZdjttt7A3_6dir1-AHJ_sooq7_aeG8wUZi0lYXcCffF9sQZlEl6zAQMk_TA0MTHqcQV99-NSLqhMX_fnHoxIgsU12dpJLL9E-kjtotUNM0o-QVQ2aVs5iVJxivad_aFZee0g3-LdCeVh1ULthEq3eJy0?></g></svg>