<?plantuml 1.2026.2?><svg xmlns="http://www.w3.org/2000/svg" xmlns:xlink="http://www.w3.org/1999/xlink" contentStyleType="text/css" data-diagram-type="CLASS" height="2196px" preserveAspectRatio="none" style="width:1372px;height:2196px;background:#FFFFFF;" version="1.1" viewBox="0 0 1372 2196" width="1372px" zoomAndPan="magnify"><defs/><g><!--cluster Manufacturer_Aggregate--><g class="cluster" data-qualified-name="Manufacturer_Aggregate" data-source-line="7" id="ent0002"><rect fill="none" height="229" rx="2.5" ry="2.5" style="stroke:#000000;stroke-width:1.5;" width="252" x="712.5" y="1961"/><text fill="#000000" font-family="sans-serif" font-size="20" font-style="italic" lengthAdjust="spacing" textLength="112.3242" x="782.3379" y="1983.7617">&#171;aggregate&#187;</text><text fill="#000000" font-family="sans-serif" font-size="20" font-weight="bold" lengthAdjust="spacing" textLength="236.7188" x="720.1406" y="2008.918">Manufacturer_Aggregate</text></g><!--cluster EngineModel_Aggregate--><g class="cluster" data-qualified-name="EngineModel_Aggregate" data-source-line="14" id="ent0004"><rect fill="none" height="891" rx="2.5" ry="2.5" style="stroke:#000000;stroke-width:1.5;" width="1055" x="311" y="1046"/><text fill="#000000" font-family="sans-serif" font-size="20" font-style="italic" lengthAdjust="spacing" textLength="112.3242" x="782.3379" y="1068.7617">&#171;aggregate&#187;</text><text fill="#000000" font-family="sans-serif" font-size="20" font-weight="bold" lengthAdjust="spacing" textLength="234.4727" x="721.2637" y="1093.918">EngineModel_Aggregate</text></g><!--cluster AircraftModel_Aggregate--><g class="cluster" data-qualified-name="AircraftModel_Aggregate" data-source-line="51" id="ent0022"><rect fill="none" height="1015" rx="2.5" ry="2.5" style="stroke:#000000;stroke-width:1.5;" width="1354" x="7" y="7"/><text fill="#000000" font-family="sans-serif" font-size="20" font-style="italic" lengthAdjust="spacing" textLength="112.3242" x="627.8379" y="29.7617">&#171;aggregate&#187;</text><text fill="#000000" font-family="sans-serif" font-size="20" font-weight="bold" lengthAdjust="spacing" textLength="238.9355" x="564.5322" y="54.918">AircraftModel_Aggregate</text></g><!--class Manufacturer--><g class="entity" data-qualified-name="Manufacturer_Aggregate.Manufacturer" data-source-line="8" id="ent0003"><rect fill="#F1F1F1" height="143.7813" rx="2.5" ry="2.5" style="stroke:#181818;stroke-width:0.5;" width="151.832" x="762.5" y="2030"/><ellipse cx="778.5" cy="2072.7344" fill="#ADD1B2" rx="12" ry="12" style="stroke:#181818;stroke-width:1;"/><path d="M780.6406,2067.6563 Q780.8281,2067.4063 781.0469,2067.2813 Q781.2656,2067.1406 781.5156,2067.1406 Q781.9531,2067.1406 782.2344,2067.4531 Q782.5156,2067.75 782.5156,2068.4688 L782.5156,2070.1719 Q782.5156,2070.8906 782.2344,2071.2031 Q781.9531,2071.5156 781.5156,2071.5156 Q781.125,2071.5156 780.875,2071.2813 Q780.625,2071.0625 780.5156,2070.4531 Q780.4531,2070.0313 780.2344,2069.8125 Q779.8438,2069.375 779.125,2069.1094 Q778.4063,2068.8438 777.6875,2068.8438 Q776.7813,2068.8438 776.0313,2069.2344 Q775.2813,2069.625 774.7031,2070.5156 Q774.125,2071.3906 774.125,2072.5938 L774.125,2073.8906 Q774.125,2075.3438 775.1719,2076.3125 Q776.2344,2077.2813 778.0938,2077.2813 Q779.2031,2077.2813 779.9844,2076.9688 Q780.4219,2076.7969 780.9375,2076.2813 Q781.25,2075.9688 781.4219,2075.875 Q781.5938,2075.7813 781.8281,2075.7813 Q782.2188,2075.7813 782.5156,2076.0938 Q782.8281,2076.3906 782.8281,2076.7969 Q782.8281,2077.2031 782.4219,2077.6719 Q781.8281,2078.3594 780.8906,2078.75 Q779.625,2079.2813 778.1094,2079.2813 Q776.3281,2079.2813 774.9063,2078.5469 Q773.75,2077.9531 772.9375,2076.6875 Q772.125,2075.4219 772.125,2073.9375 L772.125,2072.5781 Q772.125,2071.0156 772.8438,2069.6719 Q773.5781,2068.3125 774.8594,2067.5781 Q776.1563,2066.8438 777.6094,2066.8438 Q778.4688,2066.8438 779.2188,2067.0469 Q779.9844,2067.25 780.6406,2067.6563 Z " fill="#000000"/><text fill="#000000" font-family="sans-serif" font-size="20" font-style="italic" lengthAdjust="spacing" textLength="70.0488" x="817.3916" y="2055.7617">&#171;entity&#187;</text><text fill="#000000" font-family="sans-serif" font-size="20" font-style="italic" lengthAdjust="spacing" textLength="56.709" x="824.0615" y="2080.918">&#171;root&#187;</text><text fill="#000000" font-family="sans-serif" font-size="20" lengthAdjust="spacing" textLength="117.832" x="793.5" y="2106.0742">Manufacturer</text><line style="stroke:#181818;stroke-width:0.5;" x1="763.5" x2="913.332" y1="2115.4688" y2="2115.4688"/><text fill="#000000" font-family="sans-serif" font-size="20" lengthAdjust="spacing" textLength="50.0293" x="768.5" y="2140.2305">name</text><text fill="#000000" font-family="sans-serif" font-size="20" lengthAdjust="spacing" textLength="65.5859" x="768.5" y="2165.3867">country</text></g><!--class EngineModel--><g class="entity" data-qualified-name="EngineModel_Aggregate.EngineModel" data-source-line="15" id="ent0005"><rect fill="#F1F1F1" height="118.625" rx="2.5" ry="2.5" style="stroke:#181818;stroke-width:0.5;" width="150.748" x="327" y="1496.5"/><ellipse cx="343" cy="1539.2344" fill="#ADD1B2" rx="12" ry="12" style="stroke:#181818;stroke-width:1;"/><path d="M345.1406,1534.1563 Q345.3281,1533.9063 345.5469,1533.7813 Q345.7656,1533.6406 346.0156,1533.6406 Q346.4531,1533.6406 346.7344,1533.9531 Q347.0156,1534.25 347.0156,1534.9688 L347.0156,1536.6719 Q347.0156,1537.3906 346.7344,1537.7031 Q346.4531,1538.0156 346.0156,1538.0156 Q345.625,1538.0156 345.375,1537.7813 Q345.125,1537.5625 345.0156,1536.9531 Q344.9531,1536.5313 344.7344,1536.3125 Q344.3438,1535.875 343.625,1535.6094 Q342.9063,1535.3438 342.1875,1535.3438 Q341.2813,1535.3438 340.5313,1535.7344 Q339.7813,1536.125 339.2031,1537.0156 Q338.625,1537.8906 338.625,1539.0938 L338.625,1540.3906 Q338.625,1541.8438 339.6719,1542.8125 Q340.7344,1543.7813 342.5938,1543.7813 Q343.7031,1543.7813 344.4844,1543.4688 Q344.9219,1543.2969 345.4375,1542.7813 Q345.75,1542.4688 345.9219,1542.375 Q346.0938,1542.2813 346.3281,1542.2813 Q346.7188,1542.2813 347.0156,1542.5938 Q347.3281,1542.8906 347.3281,1543.2969 Q347.3281,1543.7031 346.9219,1544.1719 Q346.3281,1544.8594 345.3906,1545.25 Q344.125,1545.7813 342.6094,1545.7813 Q340.8281,1545.7813 339.4063,1545.0469 Q338.25,1544.4531 337.4375,1543.1875 Q336.625,1541.9219 336.625,1540.4375 L336.625,1539.0781 Q336.625,1537.5156 337.3438,1536.1719 Q338.0781,1534.8125 339.3594,1534.0781 Q340.6563,1533.3438 342.1094,1533.3438 Q342.9688,1533.3438 343.7188,1533.5469 Q344.4844,1533.75 345.1406,1534.1563 Z " fill="#000000"/><text fill="#000000" font-family="sans-serif" font-size="20" font-style="italic" lengthAdjust="spacing" textLength="70.0488" x="381.3496" y="1522.2617">&#171;entity&#187;</text><text fill="#000000" font-family="sans-serif" font-size="20" font-style="italic" lengthAdjust="spacing" textLength="56.709" x="388.0195" y="1547.418">&#171;root&#187;</text><text fill="#000000" font-family="sans-serif" font-size="20" lengthAdjust="spacing" textLength="116.748" x="358" y="1572.5742">EngineModel</text><line style="stroke:#181818;stroke-width:0.5;" x1="328" x2="476.748" y1="1581.9688" y2="1581.9688"/><text fill="#000000" font-family="sans-serif" font-size="20" lengthAdjust="spacing" textLength="76.709" x="333" y="1606.7305">fuelType</text></g><!--class EngineName--><g class="entity" data-qualified-name="EngineModel_Aggregate.EngineName" data-source-line="18" id="ent0006"><rect fill="#F1F1F1" height="93.4688" rx="2.5" ry="2.5" style="stroke:#181818;stroke-width:0.5;" width="158.9844" x="759" y="1827.5"/><ellipse cx="775" cy="1857.6563" fill="#ADD1B2" rx="12" ry="12" style="stroke:#181818;stroke-width:1;"/><path d="M777.1406,1852.5781 Q777.3281,1852.3281 777.5469,1852.2031 Q777.7656,1852.0625 778.0156,1852.0625 Q778.4531,1852.0625 778.7344,1852.375 Q779.0156,1852.6719 779.0156,1853.3906 L779.0156,1855.0938 Q779.0156,1855.8125 778.7344,1856.125 Q778.4531,1856.4375 778.0156,1856.4375 Q777.625,1856.4375 777.375,1856.2031 Q777.125,1855.9844 777.0156,1855.375 Q776.9531,1854.9531 776.7344,1854.7344 Q776.3438,1854.2969 775.625,1854.0313 Q774.9063,1853.7656 774.1875,1853.7656 Q773.2813,1853.7656 772.5313,1854.1563 Q771.7813,1854.5469 771.2031,1855.4375 Q770.625,1856.3125 770.625,1857.5156 L770.625,1858.8125 Q770.625,1860.2656 771.6719,1861.2344 Q772.7344,1862.2031 774.5938,1862.2031 Q775.7031,1862.2031 776.4844,1861.8906 Q776.9219,1861.7188 777.4375,1861.2031 Q777.75,1860.8906 777.9219,1860.7969 Q778.0938,1860.7031 778.3281,1860.7031 Q778.7188,1860.7031 779.0156,1861.0156 Q779.3281,1861.3125 779.3281,1861.7188 Q779.3281,1862.125 778.9219,1862.5938 Q778.3281,1863.2813 777.3906,1863.6719 Q776.125,1864.2031 774.6094,1864.2031 Q772.8281,1864.2031 771.4063,1863.4688 Q770.25,1862.875 769.4375,1861.6094 Q768.625,1860.3438 768.625,1858.8594 L768.625,1857.5 Q768.625,1855.9375 769.3438,1854.5938 Q770.0781,1853.2344 771.3594,1852.5 Q772.6563,1851.7656 774.1094,1851.7656 Q774.9688,1851.7656 775.7188,1851.9688 Q776.4844,1852.1719 777.1406,1852.5781 Z " fill="#000000"/><text fill="#000000" font-family="sans-serif" font-size="20" font-style="italic" lengthAdjust="spacing" textLength="128.9844" x="788" y="1853.2617">&#171;value object&#187;</text><text fill="#000000" font-family="sans-serif" font-size="20" lengthAdjust="spacing" textLength="115.625" x="794.6797" y="1878.418">EngineName</text><line style="stroke:#181818;stroke-width:0.5;" x1="760" x2="916.9844" y1="1887.8125" y2="1887.8125"/><text fill="#000000" font-family="sans-serif" font-size="20" lengthAdjust="spacing" textLength="50.0293" x="765" y="1912.5742">name</text></g><g class="entity" data-qualified-name="EngineModel_Aggregate.GMN7" data-source-line="21" id="ent0008"><path d="M1072.5,1844 L1072.5,1870 L918.27,1874 L1072.5,1878 L1072.5,1904.3125 A0,0 0 0 0 1072.5,1904.3125 L1310.2871,1904.3125 A0,0 0 0 0 1310.2871,1904.3125 L1310.2871,1854 L1300.2871,1844 L1072.5,1844 A0,0 0 0 0 1072.5,1844" fill="#FEFFDD" style="stroke:#181818;stroke-width:0.5;"/><path d="M1300.2871,1844 L1300.2871,1854 L1310.2871,1854 L1300.2871,1844" fill="#FEFFDD" style="stroke:#181818;stroke-width:0.5;"/><text fill="#000000" font-family="sans-serif" font-size="20" lengthAdjust="spacing" textLength="190.6543" x="1078.5" y="1869.7617">name + manufacturer</text><text fill="#000000" font-family="sans-serif" font-size="20" lengthAdjust="spacing" textLength="216.7871" x="1078.5" y="1894.918">must be unique (US056)</text></g><!--class Power--><g class="entity" data-qualified-name="EngineModel_Aggregate.Power" data-source-line="22" id="ent0010"><rect fill="#F1F1F1" height="118.625" rx="2.5" ry="2.5" style="stroke:#181818;stroke-width:0.5;" width="158.9844" x="759" y="1668.5"/><ellipse cx="775" cy="1698.6563" fill="#ADD1B2" rx="12" ry="12" style="stroke:#181818;stroke-width:1;"/><path d="M777.1406,1693.5781 Q777.3281,1693.3281 777.5469,1693.2031 Q777.7656,1693.0625 778.0156,1693.0625 Q778.4531,1693.0625 778.7344,1693.375 Q779.0156,1693.6719 779.0156,1694.3906 L779.0156,1696.0938 Q779.0156,1696.8125 778.7344,1697.125 Q778.4531,1697.4375 778.0156,1697.4375 Q777.625,1697.4375 777.375,1697.2031 Q777.125,1696.9844 777.0156,1696.375 Q776.9531,1695.9531 776.7344,1695.7344 Q776.3438,1695.2969 775.625,1695.0313 Q774.9063,1694.7656 774.1875,1694.7656 Q773.2813,1694.7656 772.5313,1695.1563 Q771.7813,1695.5469 771.2031,1696.4375 Q770.625,1697.3125 770.625,1698.5156 L770.625,1699.8125 Q770.625,1701.2656 771.6719,1702.2344 Q772.7344,1703.2031 774.5938,1703.2031 Q775.7031,1703.2031 776.4844,1702.8906 Q776.9219,1702.7188 777.4375,1702.2031 Q777.75,1701.8906 777.9219,1701.7969 Q778.0938,1701.7031 778.3281,1701.7031 Q778.7188,1701.7031 779.0156,1702.0156 Q779.3281,1702.3125 779.3281,1702.7188 Q779.3281,1703.125 778.9219,1703.5938 Q778.3281,1704.2813 777.3906,1704.6719 Q776.125,1705.2031 774.6094,1705.2031 Q772.8281,1705.2031 771.4063,1704.4688 Q770.25,1703.875 769.4375,1702.6094 Q768.625,1701.3438 768.625,1699.8594 L768.625,1698.5 Q768.625,1696.9375 769.3438,1695.5938 Q770.0781,1694.2344 771.3594,1693.5 Q772.6563,1692.7656 774.1094,1692.7656 Q774.9688,1692.7656 775.7188,1692.9688 Q776.4844,1693.1719 777.1406,1693.5781 Z " fill="#000000"/><text fill="#000000" font-family="sans-serif" font-size="20" font-style="italic" lengthAdjust="spacing" textLength="128.9844" x="788" y="1694.2617">&#171;value object&#187;</text><text fill="#000000" font-family="sans-serif" font-size="20" lengthAdjust="spacing" textLength="56.6895" x="824.1475" y="1719.418">Power</text><line style="stroke:#181818;stroke-width:0.5;" x1="760" x2="916.9844" y1="1728.8125" y2="1728.8125"/><text fill="#000000" font-family="sans-serif" font-size="20" lengthAdjust="spacing" textLength="47.8125" x="765" y="1753.5742">value</text><text fill="#000000" font-family="sans-serif" font-size="20" lengthAdjust="spacing" textLength="32.2461" x="765" y="1778.7305">unit</text></g><!--class Thrust--><g class="entity" data-qualified-name="EngineModel_Aggregate.Thrust" data-source-line="26" id="ent0011"><rect fill="#F1F1F1" height="143.7813" rx="2.5" ry="2.5" style="stroke:#181818;stroke-width:0.5;" width="158.9844" x="759" y="1484"/><ellipse cx="775" cy="1514.1563" fill="#ADD1B2" rx="12" ry="12" style="stroke:#181818;stroke-width:1;"/><path d="M777.1406,1509.0781 Q777.3281,1508.8281 777.5469,1508.7031 Q777.7656,1508.5625 778.0156,1508.5625 Q778.4531,1508.5625 778.7344,1508.875 Q779.0156,1509.1719 779.0156,1509.8906 L779.0156,1511.5938 Q779.0156,1512.3125 778.7344,1512.625 Q778.4531,1512.9375 778.0156,1512.9375 Q777.625,1512.9375 777.375,1512.7031 Q777.125,1512.4844 777.0156,1511.875 Q776.9531,1511.4531 776.7344,1511.2344 Q776.3438,1510.7969 775.625,1510.5313 Q774.9063,1510.2656 774.1875,1510.2656 Q773.2813,1510.2656 772.5313,1510.6563 Q771.7813,1511.0469 771.2031,1511.9375 Q770.625,1512.8125 770.625,1514.0156 L770.625,1515.3125 Q770.625,1516.7656 771.6719,1517.7344 Q772.7344,1518.7031 774.5938,1518.7031 Q775.7031,1518.7031 776.4844,1518.3906 Q776.9219,1518.2188 777.4375,1517.7031 Q777.75,1517.3906 777.9219,1517.2969 Q778.0938,1517.2031 778.3281,1517.2031 Q778.7188,1517.2031 779.0156,1517.5156 Q779.3281,1517.8125 779.3281,1518.2188 Q779.3281,1518.625 778.9219,1519.0938 Q778.3281,1519.7813 777.3906,1520.1719 Q776.125,1520.7031 774.6094,1520.7031 Q772.8281,1520.7031 771.4063,1519.9688 Q770.25,1519.375 769.4375,1518.1094 Q768.625,1516.8438 768.625,1515.3594 L768.625,1514 Q768.625,1512.4375 769.3438,1511.0938 Q770.0781,1509.7344 771.3594,1509 Q772.6563,1508.2656 774.1094,1508.2656 Q774.9688,1508.2656 775.7188,1508.4688 Q776.4844,1508.6719 777.1406,1509.0781 Z " fill="#000000"/><text fill="#000000" font-family="sans-serif" font-size="20" font-style="italic" lengthAdjust="spacing" textLength="128.9844" x="788" y="1509.7617">&#171;value object&#187;</text><text fill="#000000" font-family="sans-serif" font-size="20" lengthAdjust="spacing" textLength="56.6797" x="824.1523" y="1534.918">Thrust</text><line style="stroke:#181818;stroke-width:0.5;" x1="760" x2="916.9844" y1="1544.3125" y2="1544.3125"/><text fill="#000000" font-family="sans-serif" font-size="20" lengthAdjust="spacing" textLength="47.8125" x="765" y="1569.0742">value</text><text fill="#000000" font-family="sans-serif" font-size="20" lengthAdjust="spacing" textLength="32.2461" x="765" y="1594.2305">unit</text><text fill="#000000" font-family="sans-serif" font-size="20" lengthAdjust="spacing" textLength="146.7676" x="765" y="1619.3867">speedReference</text></g><g class="entity" data-qualified-name="EngineModel_Aggregate.GMN12" data-source-line="31" id="ent0013"><path d="M1033,1513.5 L1033,1552 L918.27,1556 L1033,1560 L1033,1598.9688 A0,0 0 0 0 1033,1598.9688 L1349.6836,1598.9688 A0,0 0 0 0 1349.6836,1598.9688 L1349.6836,1523.5 L1339.6836,1513.5 L1033,1513.5 A0,0 0 0 0 1033,1513.5" fill="#FEFFDD" style="stroke:#181818;stroke-width:0.5;"/><path d="M1339.6836,1513.5 L1339.6836,1523.5 L1349.6836,1523.5 L1339.6836,1513.5" fill="#FEFFDD" style="stroke:#181818;stroke-width:0.5;"/><text fill="#000000" font-family="sans-serif" font-size="20" lengthAdjust="spacing" textLength="221.2305" x="1039" y="1539.2617">Manufacturer-supplied at</text><text fill="#000000" font-family="sans-serif" font-size="20" lengthAdjust="spacing" textLength="210.1172" x="1039" y="1564.418">static and cruise speed.</text><text fill="#000000" font-family="sans-serif" font-size="20" lengthAdjust="spacing" textLength="295.6836" x="1039" y="1589.5742">Decreases with altitude (sec. 3.3)</text></g><!--class TSFC--><g class="entity" data-qualified-name="EngineModel_Aggregate.TSFC" data-source-line="32" id="ent0015"><rect fill="#F1F1F1" height="118.625" rx="2.5" ry="2.5" style="stroke:#181818;stroke-width:0.5;" width="158.9844" x="759" y="1324.5"/><ellipse cx="775" cy="1354.6563" fill="#ADD1B2" rx="12" ry="12" style="stroke:#181818;stroke-width:1;"/><path d="M777.1406,1349.5781 Q777.3281,1349.3281 777.5469,1349.2031 Q777.7656,1349.0625 778.0156,1349.0625 Q778.4531,1349.0625 778.7344,1349.375 Q779.0156,1349.6719 779.0156,1350.3906 L779.0156,1352.0938 Q779.0156,1352.8125 778.7344,1353.125 Q778.4531,1353.4375 778.0156,1353.4375 Q777.625,1353.4375 777.375,1353.2031 Q777.125,1352.9844 777.0156,1352.375 Q776.9531,1351.9531 776.7344,1351.7344 Q776.3438,1351.2969 775.625,1351.0313 Q774.9063,1350.7656 774.1875,1350.7656 Q773.2813,1350.7656 772.5313,1351.1563 Q771.7813,1351.5469 771.2031,1352.4375 Q770.625,1353.3125 770.625,1354.5156 L770.625,1355.8125 Q770.625,1357.2656 771.6719,1358.2344 Q772.7344,1359.2031 774.5938,1359.2031 Q775.7031,1359.2031 776.4844,1358.8906 Q776.9219,1358.7188 777.4375,1358.2031 Q777.75,1357.8906 777.9219,1357.7969 Q778.0938,1357.7031 778.3281,1357.7031 Q778.7188,1357.7031 779.0156,1358.0156 Q779.3281,1358.3125 779.3281,1358.7188 Q779.3281,1359.125 778.9219,1359.5938 Q778.3281,1360.2813 777.3906,1360.6719 Q776.125,1361.2031 774.6094,1361.2031 Q772.8281,1361.2031 771.4063,1360.4688 Q770.25,1359.875 769.4375,1358.6094 Q768.625,1357.3438 768.625,1355.8594 L768.625,1354.5 Q768.625,1352.9375 769.3438,1351.5938 Q770.0781,1350.2344 771.3594,1349.5 Q772.6563,1348.7656 774.1094,1348.7656 Q774.9688,1348.7656 775.7188,1348.9688 Q776.4844,1349.1719 777.1406,1349.5781 Z " fill="#000000"/><text fill="#000000" font-family="sans-serif" font-size="20" font-style="italic" lengthAdjust="spacing" textLength="128.9844" x="788" y="1350.2617">&#171;value object&#187;</text><text fill="#000000" font-family="sans-serif" font-size="20" lengthAdjust="spacing" textLength="52.2168" x="826.3838" y="1375.418">TSFC</text><line style="stroke:#181818;stroke-width:0.5;" x1="760" x2="916.9844" y1="1384.8125" y2="1384.8125"/><text fill="#000000" font-family="sans-serif" font-size="20" lengthAdjust="spacing" textLength="47.8125" x="765" y="1409.5742">value</text><text fill="#000000" font-family="sans-serif" font-size="20" lengthAdjust="spacing" textLength="32.2461" x="765" y="1434.7305">unit</text></g><!--class MotorizationType--><g class="entity" data-qualified-name="EngineModel_Aggregate.MotorizationType" data-source-line="36" id="ent0016"><rect fill="#F1F1F1" height="168.9375" rx="2.5" ry="2.5" style="stroke:#181818;stroke-width:0.5;" width="187.3984" x="745" y="1115.5"/><ellipse cx="761" cy="1133.0781" fill="#EB937F" rx="12" ry="12" style="stroke:#181818;stroke-width:1;"/><path d="M758.9531,1134.1406 L758.9531,1137.0781 L764.0469,1137.0781 L764.0469,1135.9844 Q764.0469,1135.2656 764.3281,1134.9688 Q764.6094,1134.6563 765.0625,1134.6563 Q765.5,1134.6563 765.7813,1134.9688 Q766.0625,1135.2656 766.0625,1135.9844 L766.0625,1139.0781 L756.625,1139.0781 Q755.9063,1139.0781 755.5938,1138.7969 Q755.2969,1138.5156 755.2969,1138.0781 Q755.2969,1137.625 755.6094,1137.3594 Q755.9219,1137.0781 756.625,1137.0781 L756.9375,1137.0781 L756.9375,1129.25 L756.625,1129.25 Q755.9063,1129.25 755.5938,1128.9688 Q755.2969,1128.6875 755.2969,1128.2344 Q755.2969,1127.7813 755.5938,1127.5156 Q755.9063,1127.2344 756.625,1127.2344 L765.6094,1127.2344 L765.6094,1130.2813 Q765.6094,1131 765.3281,1131.3125 Q765.0625,1131.6094 764.625,1131.6094 Q764.1719,1131.6094 763.8906,1131.3125 Q763.6094,1131.0156 763.6094,1130.2813 L763.6094,1129.25 L758.9531,1129.25 L758.9531,1132.1406 L760.7031,1132.1406 Q760.7031,1131.3594 760.8438,1131.125 Q761.1563,1130.6563 761.7031,1130.6563 Q762.1563,1130.6563 762.4219,1130.9688 Q762.7031,1131.2656 762.7031,1131.9844 L762.7031,1134.2969 Q762.7031,1134.9531 762.5469,1135.1719 Q762.2344,1135.625 761.7031,1135.625 Q761.1563,1135.625 760.8438,1135.1563 Q760.7031,1134.9219 760.7031,1134.1406 L758.9531,1134.1406 Z " fill="#000000"/><text fill="#000000" font-family="sans-serif" font-size="20" lengthAdjust="spacing" textLength="153.3984" x="776" y="1141.2617">MotorizationType</text><line style="stroke:#181818;stroke-width:0.5;" x1="746" x2="931.3984" y1="1150.6563" y2="1150.6563"/><text fill="#000000" font-family="sans-serif" font-size="20" lengthAdjust="spacing" textLength="85.6152" x="751" y="1175.418">turboprop</text><text fill="#000000" font-family="sans-serif" font-size="20" lengthAdjust="spacing" textLength="73.3887" x="751" y="1200.5742">turbofan</text><text fill="#000000" font-family="sans-serif" font-size="20" lengthAdjust="spacing" textLength="66.709" x="751" y="1225.7305">turbojet</text><text fill="#000000" font-family="sans-serif" font-size="20" lengthAdjust="spacing" textLength="55.5664" x="751" y="1250.8867">ramjet</text><text fill="#000000" font-family="sans-serif" font-size="20" lengthAdjust="spacing" textLength="143.3887" x="751" y="1276.043">electricPropeller</text></g><!--class AircraftModel--><g class="entity" data-qualified-name="AircraftModel_Aggregate.AircraftModel" data-source-line="52" id="ent0023"><rect fill="#F1F1F1" height="85.4688" rx="2.5" ry="2.5" style="stroke:#181818;stroke-width:0.5;" width="151.8125" x="23" y="586.5"/><ellipse cx="39" cy="629.2344" fill="#ADD1B2" rx="12" ry="12" style="stroke:#181818;stroke-width:1;"/><path d="M41.1406,624.1563 Q41.3281,623.9063 41.5469,623.7813 Q41.7656,623.6406 42.0156,623.6406 Q42.4531,623.6406 42.7344,623.9531 Q43.0156,624.25 43.0156,624.9688 L43.0156,626.6719 Q43.0156,627.3906 42.7344,627.7031 Q42.4531,628.0156 42.0156,628.0156 Q41.625,628.0156 41.375,627.7813 Q41.125,627.5625 41.0156,626.9531 Q40.9531,626.5313 40.7344,626.3125 Q40.3438,625.875 39.625,625.6094 Q38.9063,625.3438 38.1875,625.3438 Q37.2813,625.3438 36.5313,625.7344 Q35.7813,626.125 35.2031,627.0156 Q34.625,627.8906 34.625,629.0938 L34.625,630.3906 Q34.625,631.8438 35.6719,632.8125 Q36.7344,633.7813 38.5938,633.7813 Q39.7031,633.7813 40.4844,633.4688 Q40.9219,633.2969 41.4375,632.7813 Q41.75,632.4688 41.9219,632.375 Q42.0938,632.2813 42.3281,632.2813 Q42.7188,632.2813 43.0156,632.5938 Q43.3281,632.8906 43.3281,633.2969 Q43.3281,633.7031 42.9219,634.1719 Q42.3281,634.8594 41.3906,635.25 Q40.125,635.7813 38.6094,635.7813 Q36.8281,635.7813 35.4063,635.0469 Q34.25,634.4531 33.4375,633.1875 Q32.625,631.9219 32.625,630.4375 L32.625,629.0781 Q32.625,627.5156 33.3438,626.1719 Q34.0781,624.8125 35.3594,624.0781 Q36.6563,623.3438 38.1094,623.3438 Q38.9688,623.3438 39.7188,623.5469 Q40.4844,623.75 41.1406,624.1563 Z " fill="#000000"/><text fill="#000000" font-family="sans-serif" font-size="20" font-style="italic" lengthAdjust="spacing" textLength="70.0488" x="77.8818" y="612.2617">&#171;entity&#187;</text><text fill="#000000" font-family="sans-serif" font-size="20" font-style="italic" lengthAdjust="spacing" textLength="56.709" x="84.5518" y="637.418">&#171;root&#187;</text><text fill="#000000" font-family="sans-serif" font-size="20" lengthAdjust="spacing" textLength="117.8125" x="54" y="662.5742">AircraftModel</text></g><!--class ModelID--><g class="entity" data-qualified-name="AircraftModel_Aggregate.ModelID" data-source-line="54" id="ent0024"><rect fill="#F1F1F1" height="93.4688" rx="2.5" ry="2.5" style="stroke:#181818;stroke-width:0.5;" width="158.9844" x="759" y="912.5"/><ellipse cx="775" cy="942.6563" fill="#ADD1B2" rx="12" ry="12" style="stroke:#181818;stroke-width:1;"/><path d="M777.1406,937.5781 Q777.3281,937.3281 777.5469,937.2031 Q777.7656,937.0625 778.0156,937.0625 Q778.4531,937.0625 778.7344,937.375 Q779.0156,937.6719 779.0156,938.3906 L779.0156,940.0938 Q779.0156,940.8125 778.7344,941.125 Q778.4531,941.4375 778.0156,941.4375 Q777.625,941.4375 777.375,941.2031 Q777.125,940.9844 777.0156,940.375 Q776.9531,939.9531 776.7344,939.7344 Q776.3438,939.2969 775.625,939.0313 Q774.9063,938.7656 774.1875,938.7656 Q773.2813,938.7656 772.5313,939.1563 Q771.7813,939.5469 771.2031,940.4375 Q770.625,941.3125 770.625,942.5156 L770.625,943.8125 Q770.625,945.2656 771.6719,946.2344 Q772.7344,947.2031 774.5938,947.2031 Q775.7031,947.2031 776.4844,946.8906 Q776.9219,946.7188 777.4375,946.2031 Q777.75,945.8906 777.9219,945.7969 Q778.0938,945.7031 778.3281,945.7031 Q778.7188,945.7031 779.0156,946.0156 Q779.3281,946.3125 779.3281,946.7188 Q779.3281,947.125 778.9219,947.5938 Q778.3281,948.2813 777.3906,948.6719 Q776.125,949.2031 774.6094,949.2031 Q772.8281,949.2031 771.4063,948.4688 Q770.25,947.875 769.4375,946.6094 Q768.625,945.3438 768.625,943.8594 L768.625,942.5 Q768.625,940.9375 769.3438,939.5938 Q770.0781,938.2344 771.3594,937.5 Q772.6563,936.7656 774.1094,936.7656 Q774.9688,936.7656 775.7188,936.9688 Q776.4844,937.1719 777.1406,937.5781 Z " fill="#000000"/><text fill="#000000" font-family="sans-serif" font-size="20" font-style="italic" lengthAdjust="spacing" textLength="128.9844" x="788" y="938.2617">&#171;value object&#187;</text><text fill="#000000" font-family="sans-serif" font-size="20" lengthAdjust="spacing" textLength="74.4727" x="815.2559" y="963.418">ModelID</text><line style="stroke:#181818;stroke-width:0.5;" x1="760" x2="916.9844" y1="972.8125" y2="972.8125"/><text fill="#000000" font-family="sans-serif" font-size="20" lengthAdjust="spacing" textLength="15.5664" x="765" y="997.5742">id</text></g><g class="entity" data-qualified-name="AircraftModel_Aggregate.GMN25" data-source-line="57" id="ent0026"><path d="M1072.5,929 L1072.5,955 L918.27,959 L1072.5,963 L1072.5,989.3125 A0,0 0 0 0 1072.5,989.3125 L1310.2871,989.3125 A0,0 0 0 0 1310.2871,989.3125 L1310.2871,939 L1300.2871,929 L1072.5,929 A0,0 0 0 0 1072.5,929" fill="#FEFFDD" style="stroke:#181818;stroke-width:0.5;"/><path d="M1300.2871,929 L1300.2871,939 L1310.2871,939 L1300.2871,929" fill="#FEFFDD" style="stroke:#181818;stroke-width:0.5;"/><text fill="#000000" font-family="sans-serif" font-size="20" lengthAdjust="spacing" textLength="190.6543" x="1078.5" y="954.7617">name + manufacturer</text><text fill="#000000" font-family="sans-serif" font-size="20" lengthAdjust="spacing" textLength="216.7871" x="1078.5" y="979.918">must be unique (US055)</text></g><!--class AircraftType--><g class="entity" data-qualified-name="AircraftModel_Aggregate.AircraftType" data-source-line="58" id="ent0028"><rect fill="#F1F1F1" height="118.625" rx="2.5" ry="2.5" style="stroke:#181818;stroke-width:0.5;" width="141.8027" x="767.5" y="753.5"/><ellipse cx="783.5" cy="771.0781" fill="#EB937F" rx="12" ry="12" style="stroke:#181818;stroke-width:1;"/><path d="M781.4531,772.1406 L781.4531,775.0781 L786.5469,775.0781 L786.5469,773.9844 Q786.5469,773.2656 786.8281,772.9688 Q787.1094,772.6563 787.5625,772.6563 Q788,772.6563 788.2813,772.9688 Q788.5625,773.2656 788.5625,773.9844 L788.5625,777.0781 L779.125,777.0781 Q778.4063,777.0781 778.0938,776.7969 Q777.7969,776.5156 777.7969,776.0781 Q777.7969,775.625 778.1094,775.3594 Q778.4219,775.0781 779.125,775.0781 L779.4375,775.0781 L779.4375,767.25 L779.125,767.25 Q778.4063,767.25 778.0938,766.9688 Q777.7969,766.6875 777.7969,766.2344 Q777.7969,765.7813 778.0938,765.5156 Q778.4063,765.2344 779.125,765.2344 L788.1094,765.2344 L788.1094,768.2813 Q788.1094,769 787.8281,769.3125 Q787.5625,769.6094 787.125,769.6094 Q786.6719,769.6094 786.3906,769.3125 Q786.1094,769.0156 786.1094,768.2813 L786.1094,767.25 L781.4531,767.25 L781.4531,770.1406 L783.2031,770.1406 Q783.2031,769.3594 783.3438,769.125 Q783.6563,768.6563 784.2031,768.6563 Q784.6563,768.6563 784.9219,768.9688 Q785.2031,769.2656 785.2031,769.9844 L785.2031,772.2969 Q785.2031,772.9531 785.0469,773.1719 Q784.7344,773.625 784.2031,773.625 Q783.6563,773.625 783.3438,773.1563 Q783.2031,772.9219 783.2031,772.1406 L781.4531,772.1406 Z " fill="#000000"/><text fill="#000000" font-family="sans-serif" font-size="20" lengthAdjust="spacing" textLength="107.8027" x="798.5" y="779.2617">AircraftType</text><line style="stroke:#181818;stroke-width:0.5;" x1="768.5" x2="908.3027" y1="788.6563" y2="788.6563"/><text fill="#000000" font-family="sans-serif" font-size="20" lengthAdjust="spacing" textLength="93.3984" x="773.5" y="813.418">passenger</text><text fill="#000000" font-family="sans-serif" font-size="20" lengthAdjust="spacing" textLength="50.0293" x="773.5" y="838.5742">cargo</text><text fill="#000000" font-family="sans-serif" font-size="20" lengthAdjust="spacing" textLength="53.3496" x="773.5" y="863.7305">mixed</text></g><!--class AircraftWeights--><g class="entity" data-qualified-name="AircraftModel_Aggregate.AircraftWeights" data-source-line="63" id="ent0029"><rect fill="#F1F1F1" height="168.9375" rx="2.5" ry="2.5" style="stroke:#181818;stroke-width:0.5;" width="169.5859" x="753.5" y="544.5"/><ellipse cx="769.5" cy="574.6563" fill="#ADD1B2" rx="12" ry="12" style="stroke:#181818;stroke-width:1;"/><path d="M771.6406,569.5781 Q771.8281,569.3281 772.0469,569.2031 Q772.2656,569.0625 772.5156,569.0625 Q772.9531,569.0625 773.2344,569.375 Q773.5156,569.6719 773.5156,570.3906 L773.5156,572.0938 Q773.5156,572.8125 773.2344,573.125 Q772.9531,573.4375 772.5156,573.4375 Q772.125,573.4375 771.875,573.2031 Q771.625,572.9844 771.5156,572.375 Q771.4531,571.9531 771.2344,571.7344 Q770.8438,571.2969 770.125,571.0313 Q769.4063,570.7656 768.6875,570.7656 Q767.7813,570.7656 767.0313,571.1563 Q766.2813,571.5469 765.7031,572.4375 Q765.125,573.3125 765.125,574.5156 L765.125,575.8125 Q765.125,577.2656 766.1719,578.2344 Q767.2344,579.2031 769.0938,579.2031 Q770.2031,579.2031 770.9844,578.8906 Q771.4219,578.7188 771.9375,578.2031 Q772.25,577.8906 772.4219,577.7969 Q772.5938,577.7031 772.8281,577.7031 Q773.2188,577.7031 773.5156,578.0156 Q773.8281,578.3125 773.8281,578.7188 Q773.8281,579.125 773.4219,579.5938 Q772.8281,580.2813 771.8906,580.6719 Q770.625,581.2031 769.1094,581.2031 Q767.3281,581.2031 765.9063,580.4688 Q764.75,579.875 763.9375,578.6094 Q763.125,577.3438 763.125,575.8594 L763.125,574.5 Q763.125,572.9375 763.8438,571.5938 Q764.5781,570.2344 765.8594,569.5 Q767.1563,568.7656 768.6094,568.7656 Q769.4688,568.7656 770.2188,568.9688 Q770.9844,569.1719 771.6406,569.5781 Z " fill="#000000"/><text fill="#000000" font-family="sans-serif" font-size="20" font-style="italic" lengthAdjust="spacing" textLength="128.9844" x="787.8008" y="570.2617">&#171;value object&#187;</text><text fill="#000000" font-family="sans-serif" font-size="20" lengthAdjust="spacing" textLength="135.5859" x="784.5" y="595.418">AircraftWeights</text><line style="stroke:#181818;stroke-width:0.5;" x1="754.5" x2="922.0859" y1="604.8125" y2="604.8125"/><text fill="#000000" font-family="sans-serif" font-size="20" lengthAdjust="spacing" textLength="116.709" x="759.5" y="629.5742">emptyWeight</text><text fill="#000000" font-family="sans-serif" font-size="20" lengthAdjust="spacing" textLength="63.3105" x="759.5" y="654.7305">MTOW</text><text fill="#000000" font-family="sans-serif" font-size="20" lengthAdjust="spacing" textLength="59.9707" x="759.5" y="679.8867">MZFW</text><text fill="#000000" font-family="sans-serif" font-size="20" lengthAdjust="spacing" textLength="154.502" x="759.5" y="705.043">maxFuelCapacity</text></g><g class="entity" data-qualified-name="AircraftModel_Aggregate.GMN30" data-source-line="69" id="ent0031"><path d="M1038,586.5 L1038,625 L923.57,629 L1038,633 L1038,671.9688 A0,0 0 0 0 1038,671.9688 L1344.5762,671.9688 A0,0 0 0 0 1344.5762,671.9688 L1344.5762,596.5 L1334.5762,586.5 L1038,586.5 A0,0 0 0 0 1038,586.5" fill="#FEFFDD" style="stroke:#181818;stroke-width:0.5;"/><path d="M1334.5762,586.5 L1334.5762,596.5 L1344.5762,596.5 L1334.5762,586.5" fill="#FEFFDD" style="stroke:#181818;stroke-width:0.5;"/><text fill="#000000" font-family="sans-serif" font-size="20" lengthAdjust="spacing" textLength="82.2656" x="1044" y="612.2617">Invariant:</text><text fill="#000000" font-family="sans-serif" font-size="20" lengthAdjust="spacing" textLength="285.5762" x="1044" y="637.418">MTOW &gt; MZFW &gt; emptyWeight</text><text fill="#000000" font-family="sans-serif" font-size="20" lengthAdjust="spacing" textLength="247.8809" x="1044" y="662.5742">All values positive (sec. 3.2)</text></g><!--class AircraftPerformance--><g class="entity" data-qualified-name="AircraftModel_Aggregate.AircraftPerformance" data-source-line="70" id="ent0033"><rect fill="#F1F1F1" height="143.7813" rx="2.5" ry="2.5" style="stroke:#181818;stroke-width:0.5;" width="211.832" x="732.5" y="360"/><ellipse cx="748.5" cy="390.1563" fill="#ADD1B2" rx="12" ry="12" style="stroke:#181818;stroke-width:1;"/><path d="M750.6406,385.0781 Q750.8281,384.8281 751.0469,384.7031 Q751.2656,384.5625 751.5156,384.5625 Q751.9531,384.5625 752.2344,384.875 Q752.5156,385.1719 752.5156,385.8906 L752.5156,387.5938 Q752.5156,388.3125 752.2344,388.625 Q751.9531,388.9375 751.5156,388.9375 Q751.125,388.9375 750.875,388.7031 Q750.625,388.4844 750.5156,387.875 Q750.4531,387.4531 750.2344,387.2344 Q749.8438,386.7969 749.125,386.5313 Q748.4063,386.2656 747.6875,386.2656 Q746.7813,386.2656 746.0313,386.6563 Q745.2813,387.0469 744.7031,387.9375 Q744.125,388.8125 744.125,390.0156 L744.125,391.3125 Q744.125,392.7656 745.1719,393.7344 Q746.2344,394.7031 748.0938,394.7031 Q749.2031,394.7031 749.9844,394.3906 Q750.4219,394.2188 750.9375,393.7031 Q751.25,393.3906 751.4219,393.2969 Q751.5938,393.2031 751.8281,393.2031 Q752.2188,393.2031 752.5156,393.5156 Q752.8281,393.8125 752.8281,394.2188 Q752.8281,394.625 752.4219,395.0938 Q751.8281,395.7813 750.8906,396.1719 Q749.625,396.7031 748.1094,396.7031 Q746.3281,396.7031 744.9063,395.9688 Q743.75,395.375 742.9375,394.1094 Q742.125,392.8438 742.125,391.3594 L742.125,390 Q742.125,388.4375 742.8438,387.0938 Q743.5781,385.7344 744.8594,385 Q746.1563,384.2656 747.6094,384.2656 Q748.4688,384.2656 749.2188,384.4688 Q749.9844,384.6719 750.6406,385.0781 Z " fill="#000000"/><text fill="#000000" font-family="sans-serif" font-size="20" font-style="italic" lengthAdjust="spacing" textLength="128.9844" x="787.9238" y="385.7617">&#171;value object&#187;</text><text fill="#000000" font-family="sans-serif" font-size="20" lengthAdjust="spacing" textLength="177.832" x="763.5" y="410.918">AircraftPerformance</text><line style="stroke:#181818;stroke-width:0.5;" x1="733.5" x2="943.332" y1="420.3125" y2="420.3125"/><text fill="#000000" font-family="sans-serif" font-size="20" lengthAdjust="spacing" textLength="124.4922" x="738.5" y="445.0742">serviceCeiling</text><text fill="#000000" font-family="sans-serif" font-size="20" lengthAdjust="spacing" textLength="111.1816" x="738.5" y="470.2305">cruiseSpeed</text><text fill="#000000" font-family="sans-serif" font-size="20" lengthAdjust="spacing" textLength="145.6055" x="738.5" y="495.3867">maximumRange</text></g><g class="entity" data-qualified-name="AircraftModel_Aggregate.GMN34" data-source-line="75" id="ent0035"><path d="M1045,402 L1045,428 L944.81,432 L1045,436 L1045,462.3125 A0,0 0 0 0 1045,462.3125 L1338.373,462.3125 A0,0 0 0 0 1338.373,462.3125 L1338.373,412 L1328.373,402 L1045,402 A0,0 0 0 0 1045,402" fill="#FEFFDD" style="stroke:#181818;stroke-width:0.5;"/><path d="M1328.373,402 L1328.373,412 L1338.373,412 L1328.373,402" fill="#FEFFDD" style="stroke:#181818;stroke-width:0.5;"/><text fill="#000000" font-family="sans-serif" font-size="20" lengthAdjust="spacing" textLength="242.3633" x="1051" y="427.7617">Each value has its own unit</text><text fill="#000000" font-family="sans-serif" font-size="20" lengthAdjust="spacing" textLength="272.373" x="1051" y="452.918">defined at implementation time</text></g><!--class AerodynamicCoefficients--><g class="entity" data-qualified-name="AircraftModel_Aggregate.AerodynamicCoefficients" data-source-line="77" id="ent0037"><rect fill="#F1F1F1" height="143.7813" rx="2.5" ry="2.5" style="stroke:#181818;stroke-width:0.5;" width="255.2109" x="711" y="176"/><ellipse cx="727" cy="206.1563" fill="#ADD1B2" rx="12" ry="12" style="stroke:#181818;stroke-width:1;"/><path d="M729.1406,201.0781 Q729.3281,200.8281 729.5469,200.7031 Q729.7656,200.5625 730.0156,200.5625 Q730.4531,200.5625 730.7344,200.875 Q731.0156,201.1719 731.0156,201.8906 L731.0156,203.5938 Q731.0156,204.3125 730.7344,204.625 Q730.4531,204.9375 730.0156,204.9375 Q729.625,204.9375 729.375,204.7031 Q729.125,204.4844 729.0156,203.875 Q728.9531,203.4531 728.7344,203.2344 Q728.3438,202.7969 727.625,202.5313 Q726.9063,202.2656 726.1875,202.2656 Q725.2813,202.2656 724.5313,202.6563 Q723.7813,203.0469 723.2031,203.9375 Q722.625,204.8125 722.625,206.0156 L722.625,207.3125 Q722.625,208.7656 723.6719,209.7344 Q724.7344,210.7031 726.5938,210.7031 Q727.7031,210.7031 728.4844,210.3906 Q728.9219,210.2188 729.4375,209.7031 Q729.75,209.3906 729.9219,209.2969 Q730.0938,209.2031 730.3281,209.2031 Q730.7188,209.2031 731.0156,209.5156 Q731.3281,209.8125 731.3281,210.2188 Q731.3281,210.625 730.9219,211.0938 Q730.3281,211.7813 729.3906,212.1719 Q728.125,212.7031 726.6094,212.7031 Q724.8281,212.7031 723.4063,211.9688 Q722.25,211.375 721.4375,210.1094 Q720.625,208.8438 720.625,207.3594 L720.625,206 Q720.625,204.4375 721.3438,203.0938 Q722.0781,201.7344 723.3594,201 Q724.6563,200.2656 726.1094,200.2656 Q726.9688,200.2656 727.7188,200.4688 Q728.4844,200.6719 729.1406,201.0781 Z " fill="#000000"/><text fill="#000000" font-family="sans-serif" font-size="20" font-style="italic" lengthAdjust="spacing" textLength="128.9844" x="788.1133" y="201.7617">&#171;value object&#187;</text><text fill="#000000" font-family="sans-serif" font-size="20" lengthAdjust="spacing" textLength="221.2109" x="742" y="226.918">AerodynamicCoefficients</text><line style="stroke:#181818;stroke-width:0.5;" x1="712" x2="965.2109" y1="236.3125" y2="236.3125"/><text fill="#000000" font-family="sans-serif" font-size="20" lengthAdjust="spacing" textLength="83.3789" x="717" y="261.0742">wingArea</text><text fill="#000000" font-family="sans-serif" font-size="20" lengthAdjust="spacing" textLength="134.5215" x="717" y="286.2305">dragCoefficient</text><text fill="#000000" font-family="sans-serif" font-size="20" lengthAdjust="spacing" textLength="114.4922" x="717" y="311.3867">liftCoefficient</text></g><g class="entity" data-qualified-name="AircraftModel_Aggregate.GMN38" data-source-line="82" id="ent0039"><path d="M1098,218 L1098,244 L966.22,248 L1098,252 L1098,278.3125 A0,0 0 0 0 1098,278.3125 L1284.6055,278.3125 A0,0 0 0 0 1284.6055,278.3125 L1284.6055,228 L1274.6055,218 L1098,218 A0,0 0 0 0 1098,218" fill="#FEFFDD" style="stroke:#181818;stroke-width:0.5;"/><path d="M1274.6055,218 L1274.6055,228 L1284.6055,228 L1274.6055,218" fill="#FEFFDD" style="stroke:#181818;stroke-width:0.5;"/><text fill="#000000" font-family="sans-serif" font-size="20" lengthAdjust="spacing" textLength="138.9551" x="1104" y="243.7617">Used in lift/drag</text><text fill="#000000" font-family="sans-serif" font-size="20" lengthAdjust="spacing" textLength="165.6055" x="1104" y="268.918">formulas (sec. 3.3)</text></g><!--class AircraftVariant--><g class="entity" data-qualified-name="AircraftModel_Aggregate.AircraftVariant" data-source-line="83" id="ent0041"><rect fill="#F1F1F1" height="60.3125" rx="2.5" ry="2.5" style="stroke:#181818;stroke-width:0.5;" width="160.709" x="758" y="76"/><ellipse cx="774" cy="106.1563" fill="#ADD1B2" rx="12" ry="12" style="stroke:#181818;stroke-width:1;"/><path d="M776.1406,101.0781 Q776.3281,100.8281 776.5469,100.7031 Q776.7656,100.5625 777.0156,100.5625 Q777.4531,100.5625 777.7344,100.875 Q778.0156,101.1719 778.0156,101.8906 L778.0156,103.5938 Q778.0156,104.3125 777.7344,104.625 Q777.4531,104.9375 777.0156,104.9375 Q776.625,104.9375 776.375,104.7031 Q776.125,104.4844 776.0156,103.875 Q775.9531,103.4531 775.7344,103.2344 Q775.3438,102.7969 774.625,102.5313 Q773.9063,102.2656 773.1875,102.2656 Q772.2813,102.2656 771.5313,102.6563 Q770.7813,103.0469 770.2031,103.9375 Q769.625,104.8125 769.625,106.0156 L769.625,107.3125 Q769.625,108.7656 770.6719,109.7344 Q771.7344,110.7031 773.5938,110.7031 Q774.7031,110.7031 775.4844,110.3906 Q775.9219,110.2188 776.4375,109.7031 Q776.75,109.3906 776.9219,109.2969 Q777.0938,109.2031 777.3281,109.2031 Q777.7188,109.2031 778.0156,109.5156 Q778.3281,109.8125 778.3281,110.2188 Q778.3281,110.625 777.9219,111.0938 Q777.3281,111.7813 776.3906,112.1719 Q775.125,112.7031 773.6094,112.7031 Q771.8281,112.7031 770.4063,111.9688 Q769.25,111.375 768.4375,110.1094 Q767.625,108.8438 767.625,107.3594 L767.625,106 Q767.625,104.4375 768.3438,103.0938 Q769.0781,101.7344 770.3594,101 Q771.6563,100.2656 773.1094,100.2656 Q773.9688,100.2656 774.7188,100.4688 Q775.4844,100.6719 776.1406,101.0781 Z " fill="#000000"/><text fill="#000000" font-family="sans-serif" font-size="20" font-style="italic" lengthAdjust="spacing" textLength="70.0488" x="817.3301" y="101.7617">&#171;entity&#187;</text><text fill="#000000" font-family="sans-serif" font-size="20" lengthAdjust="spacing" textLength="126.709" x="789" y="126.918">AircraftVariant</text></g><g class="entity" data-qualified-name="AircraftModel_Aggregate.GMN42" data-source-line="85" id="ent0043"><path d="M1038,76 L1038,102 L919.15,106 L1038,110 L1038,136.3125 A0,0 0 0 0 1038,136.3125 L1345.1914,136.3125 A0,0 0 0 0 1345.1914,136.3125 L1345.1914,86 L1335.1914,76 L1038,76 A0,0 0 0 0 1038,76" fill="#FEFFDD" style="stroke:#181818;stroke-width:0.5;"/><path d="M1335.1914,76 L1335.1914,86 L1345.1914,86 L1335.1914,76" fill="#FEFFDD" style="stroke:#181818;stroke-width:0.5;"/><text fill="#000000" font-family="sans-serif" font-size="20" lengthAdjust="spacing" textLength="209.4434" x="1044" y="101.7617">US057: "combination of</text><text fill="#000000" font-family="sans-serif" font-size="20" lengthAdjust="spacing" textLength="286.1914" x="1044" y="126.918">model and engine configuration"</text></g><!--link EngineModel to MotorizationType--><g class="link" data-entity-1="ent0005" data-entity-2="ent0016" data-link-type="dependency" data-source-line="43" id="lnk17"><path codeLine="43" d="M439.81,1496.45 C458.18,1469.15 482.07,1437.49 508,1413 C579.44,1345.54 669.7429,1289.38 739.5429,1250.67" fill="none" id="EngineModel-to-MotorizationType" style="stroke:#181818;stroke-width:1;"/><polygon fill="#181818" points="744.79,1247.76,734.9794,1248.6269,740.4174,1250.185,738.8593,1255.623,744.79,1247.76" style="stroke:#181818;stroke-width:1;"/><text fill="#000000" font-family="sans-serif" font-size="20" lengthAdjust="spacing" textLength="61.1426" x="561" y="1286.7617">ofType</text></g><!--reverse link EngineModel to EngineName--><g class="link" data-entity-1="ent0005" data-entity-2="ent0006" data-link-type="composition" data-source-line="44" id="lnk18"><path codeLine="44" d="M444.7849,1625.845 C463.0449,1653.785 480.73,1676.04 508,1700 C583.21,1766.07 687.89,1815.85 758.94,1844.88" fill="none" id="EngineModel-backto-EngineName" style="stroke:#181818;stroke-width:1;"/><polygon fill="#181818" points="438.22,1615.8,438.1541,1623.0108,444.7849,1625.845,444.8508,1618.6342,438.22,1615.8" style="stroke:#181818;stroke-width:1;"/><text fill="#000000" font-family="sans-serif" font-size="20" lengthAdjust="spacing" textLength="103.3984" x="540" y="1694.7617">identifiedBy</text></g><!--reverse link EngineModel to Power--><g class="link" data-entity-1="ent0005" data-entity-2="ent0010" data-link-type="composition" data-source-line="45" id="lnk19"><path codeLine="45" d="M489.266,1589.9908 C567.546,1621.0108 678.93,1665.16 758.74,1696.79" fill="none" id="EngineModel-backto-Power" style="stroke:#181818;stroke-width:1;"/><polygon fill="#181818" points="478.11,1585.57,482.2144,1591.4991,489.266,1589.9908,485.1616,1584.0617,478.11,1585.57" style="stroke:#181818;stroke-width:1;"/><text fill="#000000" font-family="sans-serif" font-size="20" lengthAdjust="spacing" textLength="64.4824" x="559.5" y="1592.7617">ratedAt</text></g><!--reverse link EngineModel to Thrust--><g class="link" data-entity-1="ent0005" data-entity-2="ent0011" data-link-type="composition" data-source-line="46" id="lnk20"><path codeLine="46" d="M490.11,1556 C568.39,1556 678.93,1556 758.74,1556" fill="none" id="EngineModel-backto-Thrust" style="stroke:#181818;stroke-width:1;"/><polygon fill="#181818" points="478.11,1556,484.11,1560,490.11,1556,484.11,1552,478.11,1556" style="stroke:#181818;stroke-width:1;"/><text fill="#000000" font-family="sans-serif" font-size="20" lengthAdjust="spacing" textLength="143.3984" x="520" y="1550.7617">characterisedBy</text><text fill="#000000" font-family="sans-serif" font-size="20" lengthAdjust="spacing" textLength="11.123" x="739.8865" y="1577.9313">2</text></g><!--reverse link EngineModel to TSFC--><g class="link" data-entity-1="ent0005" data-entity-2="ent0015" data-link-type="composition" data-source-line="47" id="lnk21"><path codeLine="47" d="M489.266,1522.0092 C567.546,1490.9892 678.93,1446.84 758.74,1415.21" fill="none" id="EngineModel-backto-TSFC" style="stroke:#181818;stroke-width:1;"/><polygon fill="#181818" points="478.11,1526.43,485.1616,1527.9383,489.266,1522.0092,482.2144,1520.5009,478.11,1526.43" style="stroke:#181818;stroke-width:1;"/><text fill="#000000" font-family="sans-serif" font-size="20" lengthAdjust="spacing" textLength="68.9258" x="557.5" y="1444.7617">ratedBy</text></g><!--reverse link AircraftModel to ModelID--><g class="link" data-entity-1="ent0023" data-entity-2="ent0024" data-link-type="composition" data-source-line="86" id="lnk45"><path codeLine="86" d="M169.7278,678.4102 C209.1678,705.3602 252.75,732.92 303,758 C458.9,835.8 652.66,901.51 758.82,935.06" fill="none" id="AircraftModel-backto-ModelID" style="stroke:#181818;stroke-width:1;"/><polygon fill="#181818" points="159.82,671.64,162.5172,678.3277,169.7278,678.4102,167.0306,671.7225,159.82,671.64" style="stroke:#181818;stroke-width:1;"/><text fill="#000000" font-family="sans-serif" font-size="20" lengthAdjust="spacing" textLength="103.3984" x="351" y="752.7617">identifiedBy</text></g><!--link AircraftModel to AircraftType--><g class="link" data-entity-1="ent0023" data-entity-2="ent0028" data-link-type="dependency" data-source-line="87" id="lnk46"><path codeLine="87" d="M175.12,647.74 C318.3,683.46 622.5584,759.3778 761.6684,794.0778" fill="none" id="AircraftModel-to-AircraftType" style="stroke:#181818;stroke-width:1;"/><polygon fill="#181818" points="767.49,795.53,759.7257,789.4707,762.6387,794.3199,757.7895,797.2328,767.49,795.53" style="stroke:#181818;stroke-width:1;"/><text fill="#000000" font-family="sans-serif" font-size="20" lengthAdjust="spacing" textLength="61.1426" x="372" y="677.7617">ofType</text></g><!--reverse link AircraftModel to AircraftWeights--><g class="link" data-entity-1="ent0023" data-entity-2="ent0029" data-link-type="composition" data-source-line="88" id="lnk47"><path codeLine="88" d="M187.12,629 C325.62,629 608.31,629 753.33,629" fill="none" id="AircraftModel-backto-AircraftWeights" style="stroke:#181818;stroke-width:1;"/><polygon fill="#181818" points="175.12,629,181.12,633,187.12,629,181.12,625,175.12,629" style="stroke:#181818;stroke-width:1;"/><text fill="#000000" font-family="sans-serif" font-size="20" lengthAdjust="spacing" textLength="67.8125" x="369" y="623.7617">weights</text></g><!--reverse link AircraftModel to AircraftPerformance--><g class="link" data-entity-1="ent0023" data-entity-2="ent0033" data-link-type="composition" data-source-line="89" id="lnk48"><path codeLine="89" d="M186.7136,605.8335 C318.8036,570.5535 581.34,500.42 732.24,460.12" fill="none" id="AircraftModel-backto-AircraftPerformance" style="stroke:#181818;stroke-width:1;"/><polygon fill="#181818" points="175.12,608.93,181.949,611.2463,186.7136,605.8335,179.8846,603.5172,175.12,608.93" style="stroke:#181818;stroke-width:1;"/><text fill="#000000" font-family="sans-serif" font-size="20" lengthAdjust="spacing" textLength="78.9063" x="363.5" y="525.7617">performs</text></g><!--reverse link AircraftModel to AerodynamicCoefficients--><g class="link" data-entity-1="ent0023" data-entity-2="ent0037" data-link-type="composition" data-source-line="90" id="lnk49"><path codeLine="90" d="M168.6885,579.4109 C208.4085,551.5009 252.74,522.06 303,494 C438.24,418.51 600.79,346.15 710.85,299.69" fill="none" id="AircraftModel-backto-AerodynamicCoefficients" style="stroke:#181818;stroke-width:1;"/><polygon fill="#181818" points="158.87,586.31,166.0789,586.1333,168.6885,579.4109,161.4795,579.5876,158.87,586.31" style="stroke:#181818;stroke-width:1;"/><text fill="#000000" font-family="sans-serif" font-size="20" lengthAdjust="spacing" textLength="143.3984" x="331" y="402.7617">characterisedBy</text></g><!--reverse link AircraftModel to AircraftVariant--><g class="link" data-entity-1="ent0023" data-entity-2="ent0041" data-link-type="composition" data-source-line="91" id="lnk50"><path codeLine="91" d="M132.1524,576.0107 C166.9424,520.8607 227.02,434.73 303,371 C444.06,252.7 646.92,170.92 757.75,131.98" fill="none" id="AircraftModel-backto-AircraftVariant" style="stroke:#181818;stroke-width:1;"/><polygon fill="#181818" points="125.75,586.16,132.3343,583.2195,132.1524,576.0107,125.5681,578.9512,125.75,586.16" style="stroke:#181818;stroke-width:1;"/><text fill="#000000" font-family="sans-serif" font-size="20" lengthAdjust="spacing" textLength="91.1328" x="357" y="250.7617">comprises</text></g><!--link EngineModel to Manufacturer--><g class="link" data-entity-1="ent0005" data-entity-2="ent0003" data-link-type="dependency" data-source-line="95" id="lnk51"><path codeLine="95" d="M415.18,1615.59 C429.37,1676.82 457.86,1772.73 508,1842 C576.47,1936.59 683.2062,2011.518 757.3062,2056.668" fill="none" id="EngineModel-to-Manufacturer" style="stroke:#181818;stroke-width:1;"/><polygon fill="#181818" points="762.43,2059.79,756.8256,2051.6912,758.1602,2057.1883,752.663,2058.5229,762.43,2059.79" style="stroke:#181818;stroke-width:1;"/><polygon fill="#000000" points="520.9032,1834.8994,515.7488,1820.5821,508.3177,1826.3461,520.9032,1834.8994" style="stroke:#000000;stroke-width:1;"/><text fill="#000000" font-family="sans-serif" font-size="20" lengthAdjust="spacing" textLength="145.6348" x="529" y="1836.7617">manufacturedBy</text><text fill="#000000" font-family="sans-serif" font-size="20" lengthAdjust="spacing" textLength="7.7832" x="409.1801" y="1643.8134">*</text><text fill="#000000" font-family="sans-serif" font-size="20" lengthAdjust="spacing" textLength="11.123" x="743.4148" y="2077.6456">1</text></g><!--link AircraftModel to EngineModel--><g class="link" data-entity-1="ent0023" data-entity-2="ent0005" data-link-type="dependency" data-source-line="96" id="lnk52"><path codeLine="96" d="M113.46,671.76 C133.3,734.72 171.68,856.04 205,959 C268.76,1155.99 344.0577,1383.2462 379.7477,1490.6362" fill="none" id="AircraftModel-to-EngineModel" style="stroke:#181818;stroke-width:1;"/><polygon fill="#181818" points="381.64,1496.33,382.5974,1486.5278,380.0631,1491.5852,375.0057,1489.0508,381.64,1496.33" style="stroke:#181818;stroke-width:1;"/><polygon fill="#000000" points="215.474,953.186,215.4703,937.9691,206.5267,940.8774,215.474,953.186" style="stroke:#000000;stroke-width:1;"/><text fill="#000000" font-family="sans-serif" font-size="20" lengthAdjust="spacing" textLength="68.9063" x="226" y="953.7617">certifies</text><text fill="#000000" font-family="sans-serif" font-size="20" lengthAdjust="spacing" textLength="7.7832" x="108.141" y="700.6151">*</text><text fill="#000000" font-family="sans-serif" font-size="20" lengthAdjust="spacing" textLength="30.0195" x="347.7327" y="1484.2272">1..*</text></g><?plantuml-src bLRRRjiu47ttLmpqrBImDvjU5X020zwq0VgGDgZJBR0miA2faJmDHMf9AgvRzDztH5ahAf62z2aaS-P-piZkbdGbh2YLaRUOGOQvg9M_DDglwJl2sUbCOUx16x1Kx3naP55wCdhcEbEeXBmL1QxzGI4q_nQwK1W1jCdGOGMlJgD7A_Hjy_ZcTBQZ307BoX-Wn7ABrircHwUGN0bTvqBwsgBzPrKK5WlXCO7pSz5TbaluCGEGIZW7CPv1g3tv0oFEpwqn_WW5qAB4S92crjuU-FnpzZEA-quNfF6AKrTF2Hl19wFcDQgRGuKXrj3m0wV3u3kXQWIp_SfTl9zgOwADn-CaJ1wRfW45Bw2Coj_eidOUjWYrfd_PyRFFwzFNRqx-Ztrjzg59es73OpYnjH_aVBEpZUEd6WAu2Z7xX3bQr7AycAFFT330kQkhIX4pK_YDTbvuaY1q1jBMvB3rkzZejoWj2eSEzkHt81ItlsPIFNCe5_1oyRAl-MPzUV5B9QEkIxWotbZwBXhgDoCy6d2IMrDPK_MtNEZ-yXNR-fdmtH4LHxGahzaAbK9x31CJQ3vVFeoOSfUEx8cnp-Vp8H5OJCo-d9lsvs44syuyvPGyPYi_WaZEaduQSiTgbHujjtlSOMZeqHy31Y9QaPLMvFx9CXeOJ0gfPsB0lNyxDL3AHhdMMVs2QbwVT5JeKeneK74gg8imIyvCsCA4KqdVC1lasnb_mIONDvLtM8Oj9jolRZv-QGz_NxQ7Kdoxv7Lo8RZNtA7HCky7I-6zlXEMXFRfHZS-OHayyfyeuaQlb6gruA0oZZpTzL8wEtbGp3NQt5ZkePpSOGxj7KcyG5AaYxPDGSBhHi5THLJMvIV-UeniY1JU2RbhiuATS41SaDdheDIDvWyNax9P4q1bfR1auWJfW2VUddtAQ4rsuAcJl32OvoI9aPDps7EoAzuiuP9PKKH6uKrHxeTl8sEOY9d2PzOKa0vUVclSRtJJo9fJ7LjTNR__QcSOo-F7emJe33WYK_cF519foYtfjaCcPye7lJMR5OEy-REeSofg6o09UnugauK_ZsHqR-SCiVDcdGrK4wso4RSFQRjlJu_3OnQcKBMtAPl9aJpSTu-4xFlA_QmQ4zUilrcy8fFdITZdoU_9yBT96cyT3WNBsJ1KRxbOy35soW7HXeOxDliF?></g></svg>