<?plantuml 1.2026.2?><svg xmlns="http://www.w3.org/2000/svg" xmlns:xlink="http://www.w3.org/1999/xlink" contentStyleType="text/css" data-diagram-type="CLASS" height="2398px" preserveAspectRatio="none" style="width:2585px;height:2398px;background:#FFFFFF;" version="1.1" viewBox="0 0 2585 2398" width="2585px" zoomAndPan="magnify"><defs/><g><!--cluster AirTransportCompany_Aggregate--><g class="cluster" data-qualified-name="AirTransportCompany_Aggregate" data-source-line="7" id="ent0002"><rect fill="none" height="445" rx="2.5" ry="2.5" style="stroke:#000000;stroke-width:1.5;" width="1164.5" x="1414.5" y="1293"/><text fill="#000000" font-family="sans-serif" font-size="20" font-style="italic" lengthAdjust="spacing" textLength="112.3242" x="1940.5879" y="1315.7617">&#171;aggregate&#187;</text><text fill="#000000" font-family="sans-serif" font-size="20" font-weight="bold" lengthAdjust="spacing" textLength="322.2754" x="1835.6123" y="1340.918">AirTransportCompany_Aggregate</text></g><!--cluster Airport_Aggregate--><g class="cluster" data-qualified-name="Airport_Aggregate" data-source-line="27" id="ent0019"><rect fill="none" height="630" rx="2.5" ry="2.5" style="stroke:#000000;stroke-width:1.5;" width="1078.5" x="1479.5" y="1762"/><text fill="#000000" font-family="sans-serif" font-size="20" font-style="italic" lengthAdjust="spacing" textLength="112.3242" x="1962.5879" y="1784.7617">&#171;aggregate&#187;</text><text fill="#000000" font-family="sans-serif" font-size="20" font-weight="bold" lengthAdjust="spacing" textLength="176.6895" x="1930.4053" y="1809.918">Airport_Aggregate</text></g><!--cluster FlightRoute_Aggregate--><g class="cluster" data-qualified-name="FlightRoute_Aggregate" data-source-line="55" id="ent0035"><rect fill="none" height="205" rx="2.5" ry="2.5" style="stroke:#000000;stroke-width:1.5;" width="1507.5" x="659.5" y="1064"/><text fill="#000000" font-family="sans-serif" font-size="20" font-style="italic" lengthAdjust="spacing" textLength="112.3242" x="1357.0879" y="1086.7617">&#171;aggregate&#187;</text><text fill="#000000" font-family="sans-serif" font-size="20" font-weight="bold" lengthAdjust="spacing" textLength="221.1133" x="1302.6934" y="1111.918">FlightRoute_Aggregate</text></g><!--cluster Flight_Aggregate--><g class="cluster" data-qualified-name="Flight_Aggregate" data-source-line="66" id="ent0042"><rect fill="none" height="1033" rx="2.5" ry="2.5" style="stroke:#000000;stroke-width:1.5;" width="1710" x="7" y="7"/><text fill="#000000" font-family="sans-serif" font-size="20" font-style="italic" lengthAdjust="spacing" textLength="112.3242" x="805.8379" y="29.7617">&#171;aggregate&#187;</text><text fill="#000000" font-family="sans-serif" font-size="20" font-weight="bold" lengthAdjust="spacing" textLength="164.4531" x="779.7734" y="54.918">Flight_Aggregate</text></g><!--class AirTransportCompany--><g class="entity" data-qualified-name="AirTransportCompany_Aggregate.AirTransportCompany" data-source-line="8" id="ent0003"><rect fill="#F1F1F1" height="85.4688" rx="2.5" ry="2.5" style="stroke:#181818;stroke-width:0.5;" width="229.625" x="1430.5" y="1433.5"/><ellipse cx="1446.5" cy="1476.2344" fill="#ADD1B2" rx="12" ry="12" style="stroke:#181818;stroke-width:1;"/><path d="M1448.6406,1471.1563 Q1448.8281,1470.9063 1449.0469,1470.7813 Q1449.2656,1470.6406 1449.5156,1470.6406 Q1449.9531,1470.6406 1450.2344,1470.9531 Q1450.5156,1471.25 1450.5156,1471.9688 L1450.5156,1473.6719 Q1450.5156,1474.3906 1450.2344,1474.7031 Q1449.9531,1475.0156 1449.5156,1475.0156 Q1449.125,1475.0156 1448.875,1474.7813 Q1448.625,1474.5625 1448.5156,1473.9531 Q1448.4531,1473.5313 1448.2344,1473.3125 Q1447.8438,1472.875 1447.125,1472.6094 Q1446.4063,1472.3438 1445.6875,1472.3438 Q1444.7813,1472.3438 1444.0313,1472.7344 Q1443.2813,1473.125 1442.7031,1474.0156 Q1442.125,1474.8906 1442.125,1476.0938 L1442.125,1477.3906 Q1442.125,1478.8438 1443.1719,1479.8125 Q1444.2344,1480.7813 1446.0938,1480.7813 Q1447.2031,1480.7813 1447.9844,1480.4688 Q1448.4219,1480.2969 1448.9375,1479.7813 Q1449.25,1479.4688 1449.4219,1479.375 Q1449.5938,1479.2813 1449.8281,1479.2813 Q1450.2188,1479.2813 1450.5156,1479.5938 Q1450.8281,1479.8906 1450.8281,1480.2969 Q1450.8281,1480.7031 1450.4219,1481.1719 Q1449.8281,1481.8594 1448.8906,1482.25 Q1447.625,1482.7813 1446.1094,1482.7813 Q1444.3281,1482.7813 1442.9063,1482.0469 Q1441.75,1481.4531 1440.9375,1480.1875 Q1440.125,1478.9219 1440.125,1477.4375 L1440.125,1476.0781 Q1440.125,1474.5156 1440.8438,1473.1719 Q1441.5781,1471.8125 1442.8594,1471.0781 Q1444.1563,1470.3438 1445.6094,1470.3438 Q1446.4688,1470.3438 1447.2188,1470.5469 Q1447.9844,1470.75 1448.6406,1471.1563 Z " fill="#000000"/><text fill="#000000" font-family="sans-serif" font-size="20" font-style="italic" lengthAdjust="spacing" textLength="70.0488" x="1524.2881" y="1459.2617">&#171;entity&#187;</text><text fill="#000000" font-family="sans-serif" font-size="20" font-style="italic" lengthAdjust="spacing" textLength="56.709" x="1530.958" y="1484.418">&#171;root&#187;</text><text fill="#000000" font-family="sans-serif" font-size="20" lengthAdjust="spacing" textLength="195.625" x="1461.5" y="1509.5742">AirTransportCompany</text></g><!--class CompanyName--><g class="entity" data-qualified-name="AirTransportCompany_Aggregate.CompanyName" data-source-line="10" id="ent0004"><rect fill="#F1F1F1" height="93.4688" rx="2.5" ry="2.5" style="stroke:#181818;stroke-width:0.5;" width="172.9453" x="1923" y="1628.5"/><ellipse cx="1939" cy="1658.6563" fill="#ADD1B2" rx="12" ry="12" style="stroke:#181818;stroke-width:1;"/><path d="M1941.1406,1653.5781 Q1941.3281,1653.3281 1941.5469,1653.2031 Q1941.7656,1653.0625 1942.0156,1653.0625 Q1942.4531,1653.0625 1942.7344,1653.375 Q1943.0156,1653.6719 1943.0156,1654.3906 L1943.0156,1656.0938 Q1943.0156,1656.8125 1942.7344,1657.125 Q1942.4531,1657.4375 1942.0156,1657.4375 Q1941.625,1657.4375 1941.375,1657.2031 Q1941.125,1656.9844 1941.0156,1656.375 Q1940.9531,1655.9531 1940.7344,1655.7344 Q1940.3438,1655.2969 1939.625,1655.0313 Q1938.9063,1654.7656 1938.1875,1654.7656 Q1937.2813,1654.7656 1936.5313,1655.1563 Q1935.7813,1655.5469 1935.2031,1656.4375 Q1934.625,1657.3125 1934.625,1658.5156 L1934.625,1659.8125 Q1934.625,1661.2656 1935.6719,1662.2344 Q1936.7344,1663.2031 1938.5938,1663.2031 Q1939.7031,1663.2031 1940.4844,1662.8906 Q1940.9219,1662.7188 1941.4375,1662.2031 Q1941.75,1661.8906 1941.9219,1661.7969 Q1942.0938,1661.7031 1942.3281,1661.7031 Q1942.7188,1661.7031 1943.0156,1662.0156 Q1943.3281,1662.3125 1943.3281,1662.7188 Q1943.3281,1663.125 1942.9219,1663.5938 Q1942.3281,1664.2813 1941.3906,1664.6719 Q1940.125,1665.2031 1938.6094,1665.2031 Q1936.8281,1665.2031 1935.4063,1664.4688 Q1934.25,1663.875 1933.4375,1662.6094 Q1932.625,1661.3438 1932.625,1659.8594 L1932.625,1658.5 Q1932.625,1656.9375 1933.3438,1655.5938 Q1934.0781,1654.2344 1935.3594,1653.5 Q1936.6563,1652.7656 1938.1094,1652.7656 Q1938.9688,1652.7656 1939.7188,1652.9688 Q1940.4844,1653.1719 1941.1406,1653.5781 Z " fill="#000000"/><text fill="#000000" font-family="sans-serif" font-size="20" font-style="italic" lengthAdjust="spacing" textLength="128.9844" x="1958.9805" y="1654.2617">&#171;value object&#187;</text><text fill="#000000" font-family="sans-serif" font-size="20" lengthAdjust="spacing" textLength="138.9453" x="1954" y="1679.418">CompanyName</text><line style="stroke:#181818;stroke-width:0.5;" x1="1924" x2="2094.9453" y1="1688.8125" y2="1688.8125"/><text fill="#000000" font-family="sans-serif" font-size="20" lengthAdjust="spacing" textLength="50.0293" x="1929" y="1713.5742">name</text></g><g class="entity" data-qualified-name="AirTransportCompany_Aggregate.GMN5" data-source-line="13" id="ent0006"><path d="M2308,1657.5 L2308,1671 L2096.05,1675 L2308,1679 L2308,1692.6563 A0,0 0 0 0 2308,1692.6563 L2469.0879,1692.6563 A0,0 0 0 0 2469.0879,1692.6563 L2469.0879,1667.5 L2459.0879,1657.5 L2308,1657.5 A0,0 0 0 0 2308,1657.5" fill="#FEFFDD" style="stroke:#181818;stroke-width:0.5;"/><path d="M2459.0879,1657.5 L2459.0879,1667.5 L2469.0879,1667.5 L2459.0879,1657.5" fill="#FEFFDD" style="stroke:#181818;stroke-width:0.5;"/><text fill="#000000" font-family="sans-serif" font-size="20" lengthAdjust="spacing" textLength="140.0879" x="2314" y="1683.2617">unique (US060)</text></g><!--class IATACode_ATC--><g class="entity" data-qualified-name="AirTransportCompany_Aggregate.IATACode_ATC" data-source-line="14" id="ent0008"><rect fill="#F1F1F1" height="93.4688" rx="2.5" ry="2.5" style="stroke:#181818;stroke-width:0.5;" width="177.3887" x="1921" y="1495.5"/><ellipse cx="1937" cy="1525.6563" fill="#ADD1B2" rx="12" ry="12" style="stroke:#181818;stroke-width:1;"/><path d="M1939.1406,1520.5781 Q1939.3281,1520.3281 1939.5469,1520.2031 Q1939.7656,1520.0625 1940.0156,1520.0625 Q1940.4531,1520.0625 1940.7344,1520.375 Q1941.0156,1520.6719 1941.0156,1521.3906 L1941.0156,1523.0938 Q1941.0156,1523.8125 1940.7344,1524.125 Q1940.4531,1524.4375 1940.0156,1524.4375 Q1939.625,1524.4375 1939.375,1524.2031 Q1939.125,1523.9844 1939.0156,1523.375 Q1938.9531,1522.9531 1938.7344,1522.7344 Q1938.3438,1522.2969 1937.625,1522.0313 Q1936.9063,1521.7656 1936.1875,1521.7656 Q1935.2813,1521.7656 1934.5313,1522.1563 Q1933.7813,1522.5469 1933.2031,1523.4375 Q1932.625,1524.3125 1932.625,1525.5156 L1932.625,1526.8125 Q1932.625,1528.2656 1933.6719,1529.2344 Q1934.7344,1530.2031 1936.5938,1530.2031 Q1937.7031,1530.2031 1938.4844,1529.8906 Q1938.9219,1529.7188 1939.4375,1529.2031 Q1939.75,1528.8906 1939.9219,1528.7969 Q1940.0938,1528.7031 1940.3281,1528.7031 Q1940.7188,1528.7031 1941.0156,1529.0156 Q1941.3281,1529.3125 1941.3281,1529.7188 Q1941.3281,1530.125 1940.9219,1530.5938 Q1940.3281,1531.2813 1939.3906,1531.6719 Q1938.125,1532.2031 1936.6094,1532.2031 Q1934.8281,1532.2031 1933.4063,1531.4688 Q1932.25,1530.875 1931.4375,1529.6094 Q1930.625,1528.3438 1930.625,1526.8594 L1930.625,1525.5 Q1930.625,1523.9375 1931.3438,1522.5938 Q1932.0781,1521.2344 1933.3594,1520.5 Q1934.6563,1519.7656 1936.1094,1519.7656 Q1936.9688,1519.7656 1937.7188,1519.9688 Q1938.4844,1520.1719 1939.1406,1520.5781 Z " fill="#000000"/><text fill="#000000" font-family="sans-serif" font-size="20" font-style="italic" lengthAdjust="spacing" textLength="128.9844" x="1959.2021" y="1521.2617">&#171;value object&#187;</text><text fill="#000000" font-family="sans-serif" font-size="20" lengthAdjust="spacing" textLength="143.3887" x="1952" y="1546.418">IATACode_ATC</text><line style="stroke:#181818;stroke-width:0.5;" x1="1922" x2="2097.3887" y1="1555.8125" y2="1555.8125"/><text fill="#000000" font-family="sans-serif" font-size="20" lengthAdjust="spacing" textLength="43.3691" x="1927" y="1580.5742">code</text></g><!--class ICAOCode_ATC--><g class="entity" data-qualified-name="AirTransportCompany_Aggregate.ICAOCode_ATC" data-source-line="17" id="ent0009"><rect fill="#F1F1F1" height="93.4688" rx="2.5" ry="2.5" style="stroke:#181818;stroke-width:0.5;" width="181.832" x="1918.5" y="1362.5"/><ellipse cx="1934.5" cy="1392.6563" fill="#ADD1B2" rx="12" ry="12" style="stroke:#181818;stroke-width:1;"/><path d="M1936.6406,1387.5781 Q1936.8281,1387.3281 1937.0469,1387.2031 Q1937.2656,1387.0625 1937.5156,1387.0625 Q1937.9531,1387.0625 1938.2344,1387.375 Q1938.5156,1387.6719 1938.5156,1388.3906 L1938.5156,1390.0938 Q1938.5156,1390.8125 1938.2344,1391.125 Q1937.9531,1391.4375 1937.5156,1391.4375 Q1937.125,1391.4375 1936.875,1391.2031 Q1936.625,1390.9844 1936.5156,1390.375 Q1936.4531,1389.9531 1936.2344,1389.7344 Q1935.8438,1389.2969 1935.125,1389.0313 Q1934.4063,1388.7656 1933.6875,1388.7656 Q1932.7813,1388.7656 1932.0313,1389.1563 Q1931.2813,1389.5469 1930.7031,1390.4375 Q1930.125,1391.3125 1930.125,1392.5156 L1930.125,1393.8125 Q1930.125,1395.2656 1931.1719,1396.2344 Q1932.2344,1397.2031 1934.0938,1397.2031 Q1935.2031,1397.2031 1935.9844,1396.8906 Q1936.4219,1396.7188 1936.9375,1396.2031 Q1937.25,1395.8906 1937.4219,1395.7969 Q1937.5938,1395.7031 1937.8281,1395.7031 Q1938.2188,1395.7031 1938.5156,1396.0156 Q1938.8281,1396.3125 1938.8281,1396.7188 Q1938.8281,1397.125 1938.4219,1397.5938 Q1937.8281,1398.2813 1936.8906,1398.6719 Q1935.625,1399.2031 1934.1094,1399.2031 Q1932.3281,1399.2031 1930.9063,1398.4688 Q1929.75,1397.875 1928.9375,1396.6094 Q1928.125,1395.3438 1928.125,1393.8594 L1928.125,1392.5 Q1928.125,1390.9375 1928.8438,1389.5938 Q1929.5781,1388.2344 1930.8594,1387.5 Q1932.1563,1386.7656 1933.6094,1386.7656 Q1934.4688,1386.7656 1935.2188,1386.9688 Q1935.9844,1387.1719 1936.6406,1387.5781 Z " fill="#000000"/><text fill="#000000" font-family="sans-serif" font-size="20" font-style="italic" lengthAdjust="spacing" textLength="128.9844" x="1958.9238" y="1388.2617">&#171;value object&#187;</text><text fill="#000000" font-family="sans-serif" font-size="20" lengthAdjust="spacing" textLength="147.832" x="1949.5" y="1413.418">ICAOCode_ATC</text><line style="stroke:#181818;stroke-width:0.5;" x1="1919.5" x2="2099.332" y1="1422.8125" y2="1422.8125"/><text fill="#000000" font-family="sans-serif" font-size="20" lengthAdjust="spacing" textLength="43.3691" x="1924.5" y="1447.5742">code</text></g><g class="entity" data-qualified-name="AirTransportCompany_Aggregate.GMN10" data-source-line="20" id="ent0011"><path d="M2216.5,1524.5 L2216.5,1538 L2098.41,1542 L2216.5,1546 L2216.5,1559.6563 A0,0 0 0 0 2216.5,1559.6563 L2560.9375,1559.6563 A0,0 0 0 0 2560.9375,1559.6563 L2560.9375,1534.5 L2550.9375,1524.5 L2216.5,1524.5 A0,0 0 0 0 2216.5,1524.5" fill="#FEFFDD" style="stroke:#181818;stroke-width:0.5;"/><path d="M2550.9375,1524.5 L2550.9375,1534.5 L2560.9375,1534.5 L2550.9375,1524.5" fill="#FEFFDD" style="stroke:#181818;stroke-width:0.5;"/><text fill="#000000" font-family="sans-serif" font-size="20" lengthAdjust="spacing" textLength="323.4375" x="2222.5" y="1550.2617">IATACode (same class as in Airport)</text></g><g class="entity" data-qualified-name="AirTransportCompany_Aggregate.GMN13" data-source-line="21" id="ent0014"><path d="M2214,1391.5 L2214,1405 L2100.8,1409 L2214,1413 L2214,1426.6563 A0,0 0 0 0 2214,1426.6563 L2562.8809,1426.6563 A0,0 0 0 0 2562.8809,1426.6563 L2562.8809,1401.5 L2552.8809,1391.5 L2214,1391.5 A0,0 0 0 0 2214,1391.5" fill="#FEFFDD" style="stroke:#181818;stroke-width:0.5;"/><path d="M2552.8809,1391.5 L2552.8809,1401.5 L2562.8809,1401.5 L2552.8809,1391.5" fill="#FEFFDD" style="stroke:#181818;stroke-width:0.5;"/><text fill="#000000" font-family="sans-serif" font-size="20" lengthAdjust="spacing" textLength="327.8809" x="2220" y="1417.2617">ICAOCode (same class as in Airport)</text></g><!--class Airport--><g class="entity" data-qualified-name="Airport_Aggregate.Airport" data-source-line="28" id="ent0020"><rect fill="#F1F1F1" height="168.9375" rx="2.5" ry="2.5" style="stroke:#181818;stroke-width:0.5;" width="100.0488" x="1495.5" y="1917.5"/><ellipse cx="1511.5" cy="1960.2344" fill="#ADD1B2" rx="12" ry="12" style="stroke:#181818;stroke-width:1;"/><path d="M1513.6406,1955.1563 Q1513.8281,1954.9063 1514.0469,1954.7813 Q1514.2656,1954.6406 1514.5156,1954.6406 Q1514.9531,1954.6406 1515.2344,1954.9531 Q1515.5156,1955.25 1515.5156,1955.9688 L1515.5156,1957.6719 Q1515.5156,1958.3906 1515.2344,1958.7031 Q1514.9531,1959.0156 1514.5156,1959.0156 Q1514.125,1959.0156 1513.875,1958.7813 Q1513.625,1958.5625 1513.5156,1957.9531 Q1513.4531,1957.5313 1513.2344,1957.3125 Q1512.8438,1956.875 1512.125,1956.6094 Q1511.4063,1956.3438 1510.6875,1956.3438 Q1509.7813,1956.3438 1509.0313,1956.7344 Q1508.2813,1957.125 1507.7031,1958.0156 Q1507.125,1958.8906 1507.125,1960.0938 L1507.125,1961.3906 Q1507.125,1962.8438 1508.1719,1963.8125 Q1509.2344,1964.7813 1511.0938,1964.7813 Q1512.2031,1964.7813 1512.9844,1964.4688 Q1513.4219,1964.2969 1513.9375,1963.7813 Q1514.25,1963.4688 1514.4219,1963.375 Q1514.5938,1963.2813 1514.8281,1963.2813 Q1515.2188,1963.2813 1515.5156,1963.5938 Q1515.8281,1963.8906 1515.8281,1964.2969 Q1515.8281,1964.7031 1515.4219,1965.1719 Q1514.8281,1965.8594 1513.8906,1966.25 Q1512.625,1966.7813 1511.1094,1966.7813 Q1509.3281,1966.7813 1507.9063,1966.0469 Q1506.75,1965.4531 1505.9375,1964.1875 Q1505.125,1962.9219 1505.125,1961.4375 L1505.125,1960.0781 Q1505.125,1958.5156 1505.8438,1957.1719 Q1506.5781,1955.8125 1507.8594,1955.0781 Q1509.1563,1954.3438 1510.6094,1954.3438 Q1511.4688,1954.3438 1512.2188,1954.5469 Q1512.9844,1954.75 1513.6406,1955.1563 Z " fill="#000000"/><text fill="#000000" font-family="sans-serif" font-size="20" font-style="italic" lengthAdjust="spacing" textLength="70.0488" x="1524.5" y="1943.2617">&#171;entity&#187;</text><text fill="#000000" font-family="sans-serif" font-size="20" font-style="italic" lengthAdjust="spacing" textLength="56.709" x="1531.1699" y="1968.418">&#171;root&#187;</text><text fill="#000000" font-family="sans-serif" font-size="20" lengthAdjust="spacing" textLength="58.9063" x="1530.0713" y="1993.5742">Airport</text><line style="stroke:#181818;stroke-width:0.5;" x1="1496.5" x2="1594.5488" y1="2002.9688" y2="2002.9688"/><text fill="#000000" font-family="sans-serif" font-size="20" lengthAdjust="spacing" textLength="50.0293" x="1501.5" y="2027.7305">name</text><text fill="#000000" font-family="sans-serif" font-size="20" lengthAdjust="spacing" textLength="42.2461" x="1501.5" y="2052.8867">town</text><text fill="#000000" font-family="sans-serif" font-size="20" lengthAdjust="spacing" textLength="65.5859" x="1501.5" y="2078.043">country</text></g><!--class IATACode--><g class="entity" data-qualified-name="Airport_Aggregate.IATACode" data-source-line="33" id="ent0021"><rect fill="#F1F1F1" height="93.4688" rx="2.5" ry="2.5" style="stroke:#181818;stroke-width:0.5;" width="158.9844" x="1930" y="2282.5"/><ellipse cx="1946" cy="2312.6563" fill="#ADD1B2" rx="12" ry="12" style="stroke:#181818;stroke-width:1;"/><path d="M1948.1406,2307.5781 Q1948.3281,2307.3281 1948.5469,2307.2031 Q1948.7656,2307.0625 1949.0156,2307.0625 Q1949.4531,2307.0625 1949.7344,2307.375 Q1950.0156,2307.6719 1950.0156,2308.3906 L1950.0156,2310.0938 Q1950.0156,2310.8125 1949.7344,2311.125 Q1949.4531,2311.4375 1949.0156,2311.4375 Q1948.625,2311.4375 1948.375,2311.2031 Q1948.125,2310.9844 1948.0156,2310.375 Q1947.9531,2309.9531 1947.7344,2309.7344 Q1947.3438,2309.2969 1946.625,2309.0313 Q1945.9063,2308.7656 1945.1875,2308.7656 Q1944.2813,2308.7656 1943.5313,2309.1563 Q1942.7813,2309.5469 1942.2031,2310.4375 Q1941.625,2311.3125 1941.625,2312.5156 L1941.625,2313.8125 Q1941.625,2315.2656 1942.6719,2316.2344 Q1943.7344,2317.2031 1945.5938,2317.2031 Q1946.7031,2317.2031 1947.4844,2316.8906 Q1947.9219,2316.7188 1948.4375,2316.2031 Q1948.75,2315.8906 1948.9219,2315.7969 Q1949.0938,2315.7031 1949.3281,2315.7031 Q1949.7188,2315.7031 1950.0156,2316.0156 Q1950.3281,2316.3125 1950.3281,2316.7188 Q1950.3281,2317.125 1949.9219,2317.5938 Q1949.3281,2318.2813 1948.3906,2318.6719 Q1947.125,2319.2031 1945.6094,2319.2031 Q1943.8281,2319.2031 1942.4063,2318.4688 Q1941.25,2317.875 1940.4375,2316.6094 Q1939.625,2315.3438 1939.625,2313.8594 L1939.625,2312.5 Q1939.625,2310.9375 1940.3438,2309.5938 Q1941.0781,2308.2344 1942.3594,2307.5 Q1943.6563,2306.7656 1945.1094,2306.7656 Q1945.9688,2306.7656 1946.7188,2306.9688 Q1947.4844,2307.1719 1948.1406,2307.5781 Z " fill="#000000"/><text fill="#000000" font-family="sans-serif" font-size="20" font-style="italic" lengthAdjust="spacing" textLength="128.9844" x="1959" y="2308.2617">&#171;value object&#187;</text><text fill="#000000" font-family="sans-serif" font-size="20" lengthAdjust="spacing" textLength="92.2656" x="1977.3594" y="2333.418">IATACode</text><line style="stroke:#181818;stroke-width:0.5;" x1="1931" x2="2087.9844" y1="2342.8125" y2="2342.8125"/><text fill="#000000" font-family="sans-serif" font-size="20" lengthAdjust="spacing" textLength="43.3691" x="1936" y="2367.5742">code</text></g><!--class ICAOCode--><g class="entity" data-qualified-name="Airport_Aggregate.ICAOCode" data-source-line="36" id="ent0022"><rect fill="#F1F1F1" height="93.4688" rx="2.5" ry="2.5" style="stroke:#181818;stroke-width:0.5;" width="158.9844" x="1930" y="2149.5"/><ellipse cx="1946" cy="2179.6563" fill="#ADD1B2" rx="12" ry="12" style="stroke:#181818;stroke-width:1;"/><path d="M1948.1406,2174.5781 Q1948.3281,2174.3281 1948.5469,2174.2031 Q1948.7656,2174.0625 1949.0156,2174.0625 Q1949.4531,2174.0625 1949.7344,2174.375 Q1950.0156,2174.6719 1950.0156,2175.3906 L1950.0156,2177.0938 Q1950.0156,2177.8125 1949.7344,2178.125 Q1949.4531,2178.4375 1949.0156,2178.4375 Q1948.625,2178.4375 1948.375,2178.2031 Q1948.125,2177.9844 1948.0156,2177.375 Q1947.9531,2176.9531 1947.7344,2176.7344 Q1947.3438,2176.2969 1946.625,2176.0313 Q1945.9063,2175.7656 1945.1875,2175.7656 Q1944.2813,2175.7656 1943.5313,2176.1563 Q1942.7813,2176.5469 1942.2031,2177.4375 Q1941.625,2178.3125 1941.625,2179.5156 L1941.625,2180.8125 Q1941.625,2182.2656 1942.6719,2183.2344 Q1943.7344,2184.2031 1945.5938,2184.2031 Q1946.7031,2184.2031 1947.4844,2183.8906 Q1947.9219,2183.7188 1948.4375,2183.2031 Q1948.75,2182.8906 1948.9219,2182.7969 Q1949.0938,2182.7031 1949.3281,2182.7031 Q1949.7188,2182.7031 1950.0156,2183.0156 Q1950.3281,2183.3125 1950.3281,2183.7188 Q1950.3281,2184.125 1949.9219,2184.5938 Q1949.3281,2185.2813 1948.3906,2185.6719 Q1947.125,2186.2031 1945.6094,2186.2031 Q1943.8281,2186.2031 1942.4063,2185.4688 Q1941.25,2184.875 1940.4375,2183.6094 Q1939.625,2182.3438 1939.625,2180.8594 L1939.625,2179.5 Q1939.625,2177.9375 1940.3438,2176.5938 Q1941.0781,2175.2344 1942.3594,2174.5 Q1943.6563,2173.7656 1945.1094,2173.7656 Q1945.9688,2173.7656 1946.7188,2173.9688 Q1947.4844,2174.1719 1948.1406,2174.5781 Z " fill="#000000"/><text fill="#000000" font-family="sans-serif" font-size="20" font-style="italic" lengthAdjust="spacing" textLength="128.9844" x="1959" y="2175.2617">&#171;value object&#187;</text><text fill="#000000" font-family="sans-serif" font-size="20" lengthAdjust="spacing" textLength="96.709" x="1975.1377" y="2200.418">ICAOCode</text><line style="stroke:#181818;stroke-width:0.5;" x1="1931" x2="2087.9844" y1="2209.8125" y2="2209.8125"/><text fill="#000000" font-family="sans-serif" font-size="20" lengthAdjust="spacing" textLength="43.3691" x="1936" y="2234.5742">code</text></g><!--class Coordinates_Apt--><g class="entity" data-qualified-name="Airport_Aggregate.Coordinates_Apt" data-source-line="39" id="ent0023"><rect fill="#F1F1F1" height="118.625" rx="2.5" ry="2.5" style="stroke:#181818;stroke-width:0.5;" width="182.9844" x="1918" y="1990.5"/><ellipse cx="1934" cy="2020.6563" fill="#ADD1B2" rx="12" ry="12" style="stroke:#181818;stroke-width:1;"/><path d="M1936.1406,2015.5781 Q1936.3281,2015.3281 1936.5469,2015.2031 Q1936.7656,2015.0625 1937.0156,2015.0625 Q1937.4531,2015.0625 1937.7344,2015.375 Q1938.0156,2015.6719 1938.0156,2016.3906 L1938.0156,2018.0938 Q1938.0156,2018.8125 1937.7344,2019.125 Q1937.4531,2019.4375 1937.0156,2019.4375 Q1936.625,2019.4375 1936.375,2019.2031 Q1936.125,2018.9844 1936.0156,2018.375 Q1935.9531,2017.9531 1935.7344,2017.7344 Q1935.3438,2017.2969 1934.625,2017.0313 Q1933.9063,2016.7656 1933.1875,2016.7656 Q1932.2813,2016.7656 1931.5313,2017.1563 Q1930.7813,2017.5469 1930.2031,2018.4375 Q1929.625,2019.3125 1929.625,2020.5156 L1929.625,2021.8125 Q1929.625,2023.2656 1930.6719,2024.2344 Q1931.7344,2025.2031 1933.5938,2025.2031 Q1934.7031,2025.2031 1935.4844,2024.8906 Q1935.9219,2024.7188 1936.4375,2024.2031 Q1936.75,2023.8906 1936.9219,2023.7969 Q1937.0938,2023.7031 1937.3281,2023.7031 Q1937.7188,2023.7031 1938.0156,2024.0156 Q1938.3281,2024.3125 1938.3281,2024.7188 Q1938.3281,2025.125 1937.9219,2025.5938 Q1937.3281,2026.2813 1936.3906,2026.6719 Q1935.125,2027.2031 1933.6094,2027.2031 Q1931.8281,2027.2031 1930.4063,2026.4688 Q1929.25,2025.875 1928.4375,2024.6094 Q1927.625,2023.3438 1927.625,2021.8594 L1927.625,2020.5 Q1927.625,2018.9375 1928.3438,2017.5938 Q1929.0781,2016.2344 1930.3594,2015.5 Q1931.6563,2014.7656 1933.1094,2014.7656 Q1933.9688,2014.7656 1934.7188,2014.9688 Q1935.4844,2015.1719 1936.1406,2015.5781 Z " fill="#000000"/><text fill="#000000" font-family="sans-serif" font-size="20" font-style="italic" lengthAdjust="spacing" textLength="128.9844" x="1959" y="2016.2617">&#171;value object&#187;</text><text fill="#000000" font-family="sans-serif" font-size="20" lengthAdjust="spacing" textLength="148.9844" x="1949" y="2041.418">Coordinates_Apt</text><line style="stroke:#181818;stroke-width:0.5;" x1="1919" x2="2099.9844" y1="2050.8125" y2="2050.8125"/><text fill="#000000" font-family="sans-serif" font-size="20" lengthAdjust="spacing" textLength="64.4922" x="1924" y="2075.5742">latitude</text><text fill="#000000" font-family="sans-serif" font-size="20" lengthAdjust="spacing" textLength="81.1816" x="1924" y="2100.7305">longitude</text></g><g class="entity" data-qualified-name="Airport_Aggregate.GMN24" data-source-line="43" id="ent0025"><path d="M2248,2020 L2248,2046 L2101.28,2050 L2248,2054 L2248,2080.3125 A0,0 0 0 0 2248,2080.3125 L2529.0879,2080.3125 A0,0 0 0 0 2529.0879,2080.3125 L2529.0879,2030 L2519.0879,2020 L2248,2020 A0,0 0 0 0 2248,2020" fill="#FEFFDD" style="stroke:#181818;stroke-width:0.5;"/><path d="M2519.0879,2020 L2519.0879,2030 L2529.0879,2030 L2519.0879,2020" fill="#FEFFDD" style="stroke:#181818;stroke-width:0.5;"/><text fill="#000000" font-family="sans-serif" font-size="20" lengthAdjust="spacing" textLength="107.8418" x="2254" y="2045.7617">Coordinates</text><text fill="#000000" font-family="sans-serif" font-size="20" lengthAdjust="spacing" textLength="260.0879" x="2254" y="2070.918">(same class as in Simulation)</text></g><!--class Elevation--><g class="entity" data-qualified-name="Airport_Aggregate.Elevation" data-source-line="44" id="ent0027"><rect fill="#F1F1F1" height="118.625" rx="2.5" ry="2.5" style="stroke:#181818;stroke-width:0.5;" width="158.9844" x="1930" y="1831.5"/><ellipse cx="1946" cy="1861.6563" fill="#ADD1B2" rx="12" ry="12" style="stroke:#181818;stroke-width:1;"/><path d="M1948.1406,1856.5781 Q1948.3281,1856.3281 1948.5469,1856.2031 Q1948.7656,1856.0625 1949.0156,1856.0625 Q1949.4531,1856.0625 1949.7344,1856.375 Q1950.0156,1856.6719 1950.0156,1857.3906 L1950.0156,1859.0938 Q1950.0156,1859.8125 1949.7344,1860.125 Q1949.4531,1860.4375 1949.0156,1860.4375 Q1948.625,1860.4375 1948.375,1860.2031 Q1948.125,1859.9844 1948.0156,1859.375 Q1947.9531,1858.9531 1947.7344,1858.7344 Q1947.3438,1858.2969 1946.625,1858.0313 Q1945.9063,1857.7656 1945.1875,1857.7656 Q1944.2813,1857.7656 1943.5313,1858.1563 Q1942.7813,1858.5469 1942.2031,1859.4375 Q1941.625,1860.3125 1941.625,1861.5156 L1941.625,1862.8125 Q1941.625,1864.2656 1942.6719,1865.2344 Q1943.7344,1866.2031 1945.5938,1866.2031 Q1946.7031,1866.2031 1947.4844,1865.8906 Q1947.9219,1865.7188 1948.4375,1865.2031 Q1948.75,1864.8906 1948.9219,1864.7969 Q1949.0938,1864.7031 1949.3281,1864.7031 Q1949.7188,1864.7031 1950.0156,1865.0156 Q1950.3281,1865.3125 1950.3281,1865.7188 Q1950.3281,1866.125 1949.9219,1866.5938 Q1949.3281,1867.2813 1948.3906,1867.6719 Q1947.125,1868.2031 1945.6094,1868.2031 Q1943.8281,1868.2031 1942.4063,1867.4688 Q1941.25,1866.875 1940.4375,1865.6094 Q1939.625,1864.3438 1939.625,1862.8594 L1939.625,1861.5 Q1939.625,1859.9375 1940.3438,1858.5938 Q1941.0781,1857.2344 1942.3594,1856.5 Q1943.6563,1855.7656 1945.1094,1855.7656 Q1945.9688,1855.7656 1946.7188,1855.9688 Q1947.4844,1856.1719 1948.1406,1856.5781 Z " fill="#000000"/><text fill="#000000" font-family="sans-serif" font-size="20" font-style="italic" lengthAdjust="spacing" textLength="128.9844" x="1959" y="1857.2617">&#171;value object&#187;</text><text fill="#000000" font-family="sans-serif" font-size="20" lengthAdjust="spacing" textLength="82.2754" x="1982.3545" y="1882.418">Elevation</text><line style="stroke:#181818;stroke-width:0.5;" x1="1931" x2="2087.9844" y1="1891.8125" y2="1891.8125"/><text fill="#000000" font-family="sans-serif" font-size="20" lengthAdjust="spacing" textLength="47.8125" x="1936" y="1916.5742">value</text><text fill="#000000" font-family="sans-serif" font-size="20" lengthAdjust="spacing" textLength="32.2461" x="1936" y="1941.7305">unit</text></g><g class="entity" data-qualified-name="Airport_Aggregate.GMN28" data-source-line="48" id="ent0029"><path d="M2235,1873.5 L2235,1887 L2089.07,1891 L2235,1895 L2235,1908.6563 A0,0 0 0 0 2235,1908.6563 L2541.6934,1908.6563 A0,0 0 0 0 2541.6934,1908.6563 L2541.6934,1883.5 L2531.6934,1873.5 L2235,1873.5 A0,0 0 0 0 2235,1873.5" fill="#FEFFDD" style="stroke:#181818;stroke-width:0.5;"/><path d="M2531.6934,1873.5 L2531.6934,1883.5 L2541.6934,1883.5 L2531.6934,1873.5" fill="#FEFFDD" style="stroke:#181818;stroke-width:0.5;"/><text fill="#000000" font-family="sans-serif" font-size="20" lengthAdjust="spacing" textLength="285.6934" x="2241" y="1899.2617">metres above sea level (US052)</text></g><!--class FlightRoute--><g class="entity" data-qualified-name="FlightRoute_Aggregate.FlightRoute" data-source-line="56" id="ent0036"><rect fill="#F1F1F1" height="118.625" rx="2.5" ry="2.5" style="stroke:#181818;stroke-width:0.5;" width="160.9844" x="675.5" y="1133.5"/><ellipse cx="702.619" cy="1176.2344" fill="#ADD1B2" rx="12" ry="12" style="stroke:#181818;stroke-width:1;"/><path d="M704.7597,1171.1563 Q704.9472,1170.9063 705.1659,1170.7813 Q705.3847,1170.6406 705.6347,1170.6406 Q706.0722,1170.6406 706.3534,1170.9531 Q706.6347,1171.25 706.6347,1171.9688 L706.6347,1173.6719 Q706.6347,1174.3906 706.3534,1174.7031 Q706.0722,1175.0156 705.6347,1175.0156 Q705.244,1175.0156 704.994,1174.7813 Q704.744,1174.5625 704.6347,1173.9531 Q704.5722,1173.5313 704.3534,1173.3125 Q703.9628,1172.875 703.244,1172.6094 Q702.5253,1172.3438 701.8065,1172.3438 Q700.9003,1172.3438 700.1503,1172.7344 Q699.4003,1173.125 698.8222,1174.0156 Q698.244,1174.8906 698.244,1176.0938 L698.244,1177.3906 Q698.244,1178.8438 699.2909,1179.8125 Q700.3534,1180.7813 702.2128,1180.7813 Q703.3222,1180.7813 704.1034,1180.4688 Q704.5409,1180.2969 705.0565,1179.7813 Q705.369,1179.4688 705.5409,1179.375 Q705.7128,1179.2813 705.9472,1179.2813 Q706.3378,1179.2813 706.6347,1179.5938 Q706.9472,1179.8906 706.9472,1180.2969 Q706.9472,1180.7031 706.5409,1181.1719 Q705.9472,1181.8594 705.0097,1182.25 Q703.744,1182.7813 702.2284,1182.7813 Q700.4472,1182.7813 699.0253,1182.0469 Q697.869,1181.4531 697.0565,1180.1875 Q696.244,1178.9219 696.244,1177.4375 L696.244,1176.0781 Q696.244,1174.5156 696.9628,1173.1719 Q697.6972,1171.8125 698.9784,1171.0781 Q700.2753,1170.3438 701.7284,1170.3438 Q702.5878,1170.3438 703.3378,1170.5469 Q704.1034,1170.75 704.7597,1171.1563 Z " fill="#000000"/><text fill="#000000" font-family="sans-serif" font-size="20" font-style="italic" lengthAdjust="spacing" textLength="70.0488" x="736.2032" y="1159.2617">&#171;entity&#187;</text><text fill="#000000" font-family="sans-serif" font-size="20" font-style="italic" lengthAdjust="spacing" textLength="56.709" x="742.8731" y="1184.418">&#171;root&#187;</text><text fill="#000000" font-family="sans-serif" font-size="20" lengthAdjust="spacing" textLength="102.2754" x="720.0899" y="1209.5742">FlightRoute</text><line style="stroke:#181818;stroke-width:0.5;" x1="676.5" x2="835.4844" y1="1218.9688" y2="1218.9688"/><text fill="#000000" font-family="sans-serif" font-size="20" lengthAdjust="spacing" textLength="148.9844" x="681.5" y="1243.7305">deactivationDate</text></g><!--class RouteName--><g class="entity" data-qualified-name="FlightRoute_Aggregate.RouteName" data-source-line="59" id="ent0037"><rect fill="#F1F1F1" height="93.4688" rx="2.5" ry="2.5" style="stroke:#181818;stroke-width:0.5;" width="158.9844" x="1466" y="1146.5"/><ellipse cx="1482" cy="1176.6563" fill="#ADD1B2" rx="12" ry="12" style="stroke:#181818;stroke-width:1;"/><path d="M1484.1406,1171.5781 Q1484.3281,1171.3281 1484.5469,1171.2031 Q1484.7656,1171.0625 1485.0156,1171.0625 Q1485.4531,1171.0625 1485.7344,1171.375 Q1486.0156,1171.6719 1486.0156,1172.3906 L1486.0156,1174.0938 Q1486.0156,1174.8125 1485.7344,1175.125 Q1485.4531,1175.4375 1485.0156,1175.4375 Q1484.625,1175.4375 1484.375,1175.2031 Q1484.125,1174.9844 1484.0156,1174.375 Q1483.9531,1173.9531 1483.7344,1173.7344 Q1483.3438,1173.2969 1482.625,1173.0313 Q1481.9063,1172.7656 1481.1875,1172.7656 Q1480.2813,1172.7656 1479.5313,1173.1563 Q1478.7813,1173.5469 1478.2031,1174.4375 Q1477.625,1175.3125 1477.625,1176.5156 L1477.625,1177.8125 Q1477.625,1179.2656 1478.6719,1180.2344 Q1479.7344,1181.2031 1481.5938,1181.2031 Q1482.7031,1181.2031 1483.4844,1180.8906 Q1483.9219,1180.7188 1484.4375,1180.2031 Q1484.75,1179.8906 1484.9219,1179.7969 Q1485.0938,1179.7031 1485.3281,1179.7031 Q1485.7188,1179.7031 1486.0156,1180.0156 Q1486.3281,1180.3125 1486.3281,1180.7188 Q1486.3281,1181.125 1485.9219,1181.5938 Q1485.3281,1182.2813 1484.3906,1182.6719 Q1483.125,1183.2031 1481.6094,1183.2031 Q1479.8281,1183.2031 1478.4063,1182.4688 Q1477.25,1181.875 1476.4375,1180.6094 Q1475.625,1179.3438 1475.625,1177.8594 L1475.625,1176.5 Q1475.625,1174.9375 1476.3438,1173.5938 Q1477.0781,1172.2344 1478.3594,1171.5 Q1479.6563,1170.7656 1481.1094,1170.7656 Q1481.9688,1170.7656 1482.7188,1170.9688 Q1483.4844,1171.1719 1484.1406,1171.5781 Z " fill="#000000"/><text fill="#000000" font-family="sans-serif" font-size="20" font-style="italic" lengthAdjust="spacing" textLength="128.9844" x="1495" y="1172.2617">&#171;value object&#187;</text><text fill="#000000" font-family="sans-serif" font-size="20" lengthAdjust="spacing" textLength="106.7188" x="1506.1328" y="1197.418">RouteName</text><line style="stroke:#181818;stroke-width:0.5;" x1="1467" x2="1623.9844" y1="1206.8125" y2="1206.8125"/><text fill="#000000" font-family="sans-serif" font-size="20" lengthAdjust="spacing" textLength="50.0293" x="1472" y="1231.5742">name</text></g><g class="entity" data-qualified-name="FlightRoute_Aggregate.GMN38" data-source-line="62" id="ent0039"><path d="M1868,1163 L1868,1189 L1625.13,1193 L1868,1197 L1868,1223.3125 A0,0 0 0 0 1868,1223.3125 L2151.3633,1223.3125 A0,0 0 0 0 2151.3633,1223.3125 L2151.3633,1173 L2141.3633,1163 L1868,1163 A0,0 0 0 0 1868,1163" fill="#FEFFDD" style="stroke:#181818;stroke-width:0.5;"/><path d="M2141.3633,1163 L2141.3633,1173 L2151.3633,1173 L2141.3633,1163" fill="#FEFFDD" style="stroke:#181818;stroke-width:0.5;"/><text fill="#000000" font-family="sans-serif" font-size="20" lengthAdjust="spacing" textLength="207.3438" x="1874" y="1188.7617">2 letters + up to 4 digits</text><text fill="#000000" font-family="sans-serif" font-size="20" lengthAdjust="spacing" textLength="262.3633" x="1874" y="1213.918">(e.g. TP123). unique (US073)</text></g><!--class Flight--><g class="entity" data-qualified-name="Flight_Aggregate.Flight" data-source-line="68" id="ent0043"><rect fill="#F1F1F1" height="118.625" rx="2.5" ry="2.5" style="stroke:#181818;stroke-width:0.5;" width="204.2949" x="33" y="803.5"/><ellipse cx="97.623" cy="846.2344" fill="#ADD1B2" rx="12" ry="12" style="stroke:#181818;stroke-width:1;"/><path d="M99.7637,841.1563 Q99.9512,840.9063 100.1699,840.7813 Q100.3887,840.6406 100.6387,840.6406 Q101.0762,840.6406 101.3574,840.9531 Q101.6387,841.25 101.6387,841.9688 L101.6387,843.6719 Q101.6387,844.3906 101.3574,844.7031 Q101.0762,845.0156 100.6387,845.0156 Q100.248,845.0156 99.998,844.7813 Q99.748,844.5625 99.6387,843.9531 Q99.5762,843.5313 99.3574,843.3125 Q98.9668,842.875 98.248,842.6094 Q97.5293,842.3438 96.8105,842.3438 Q95.9043,842.3438 95.1543,842.7344 Q94.4043,843.125 93.8262,844.0156 Q93.248,844.8906 93.248,846.0938 L93.248,847.3906 Q93.248,848.8438 94.2949,849.8125 Q95.3574,850.7813 97.2168,850.7813 Q98.3262,850.7813 99.1074,850.4688 Q99.5449,850.2969 100.0605,849.7813 Q100.373,849.4688 100.5449,849.375 Q100.7168,849.2813 100.9512,849.2813 Q101.3418,849.2813 101.6387,849.5938 Q101.9512,849.8906 101.9512,850.2969 Q101.9512,850.7031 101.5449,851.1719 Q100.9512,851.8594 100.0137,852.25 Q98.748,852.7813 97.2324,852.7813 Q95.4512,852.7813 94.0293,852.0469 Q92.873,851.4531 92.0605,850.1875 Q91.248,848.9219 91.248,847.4375 L91.248,846.0781 Q91.248,844.5156 91.9668,843.1719 Q92.7012,841.8125 93.9824,841.0781 Q95.2793,840.3438 96.7324,840.3438 Q97.5918,840.3438 98.3418,840.5469 Q99.1074,840.75 99.7637,841.1563 Z " fill="#000000"/><text fill="#000000" font-family="sans-serif" font-size="20" font-style="italic" lengthAdjust="spacing" textLength="70.0488" x="117.623" y="829.2617">&#171;entity&#187;</text><text fill="#000000" font-family="sans-serif" font-size="20" font-style="italic" lengthAdjust="spacing" textLength="56.709" x="124.293" y="854.418">&#171;root&#187;</text><text fill="#000000" font-family="sans-serif" font-size="20" lengthAdjust="spacing" textLength="48.9063" x="128.1943" y="879.5742">Flight</text><line style="stroke:#181818;stroke-width:0.5;" x1="34" x2="236.2949" y1="888.9688" y2="888.9688"/><text fill="#000000" font-family="sans-serif" font-size="20" lengthAdjust="spacing" textLength="192.2949" x="39" y="913.7305">scheduledArrivalTime</text></g><!--class FlightDesignator--><g class="entity" data-qualified-name="Flight_Aggregate.FlightDesignator" data-source-line="72" id="ent0044"><rect fill="#F1F1F1" height="143.7813" rx="2.5" ry="2.5" style="stroke:#181818;stroke-width:0.5;" width="179.625" x="412" y="545"/><ellipse cx="428" cy="575.1563" fill="#ADD1B2" rx="12" ry="12" style="stroke:#181818;stroke-width:1;"/><path d="M430.1406,570.0781 Q430.3281,569.8281 430.5469,569.7031 Q430.7656,569.5625 431.0156,569.5625 Q431.4531,569.5625 431.7344,569.875 Q432.0156,570.1719 432.0156,570.8906 L432.0156,572.5938 Q432.0156,573.3125 431.7344,573.625 Q431.4531,573.9375 431.0156,573.9375 Q430.625,573.9375 430.375,573.7031 Q430.125,573.4844 430.0156,572.875 Q429.9531,572.4531 429.7344,572.2344 Q429.3438,571.7969 428.625,571.5313 Q427.9063,571.2656 427.1875,571.2656 Q426.2813,571.2656 425.5313,571.6563 Q424.7813,572.0469 424.2031,572.9375 Q423.625,573.8125 423.625,575.0156 L423.625,576.3125 Q423.625,577.7656 424.6719,578.7344 Q425.7344,579.7031 427.5938,579.7031 Q428.7031,579.7031 429.4844,579.3906 Q429.9219,579.2188 430.4375,578.7031 Q430.75,578.3906 430.9219,578.2969 Q431.0938,578.2031 431.3281,578.2031 Q431.7188,578.2031 432.0156,578.5156 Q432.3281,578.8125 432.3281,579.2188 Q432.3281,579.625 431.9219,580.0938 Q431.3281,580.7813 430.3906,581.1719 Q429.125,581.7031 427.6094,581.7031 Q425.8281,581.7031 424.4063,580.9688 Q423.25,580.375 422.4375,579.1094 Q421.625,577.8438 421.625,576.3594 L421.625,575 Q421.625,573.4375 422.3438,572.0938 Q423.0781,570.7344 424.3594,570 Q425.6563,569.2656 427.1094,569.2656 Q427.9688,569.2656 428.7188,569.4688 Q429.4844,569.6719 430.1406,570.0781 Z " fill="#000000"/><text fill="#000000" font-family="sans-serif" font-size="20" font-style="italic" lengthAdjust="spacing" textLength="128.9844" x="451.3203" y="570.7617">&#171;value object&#187;</text><text fill="#000000" font-family="sans-serif" font-size="20" lengthAdjust="spacing" textLength="145.625" x="443" y="595.918">FlightDesignator</text><line style="stroke:#181818;stroke-width:0.5;" x1="413" x2="590.625" y1="605.3125" y2="605.3125"/><text fill="#000000" font-family="sans-serif" font-size="20" lengthAdjust="spacing" textLength="150.0781" x="418" y="630.0742">airlineDesignator</text><text fill="#000000" font-family="sans-serif" font-size="20" lengthAdjust="spacing" textLength="113.3789" x="418" y="655.2305">flightNumber</text><text fill="#000000" font-family="sans-serif" font-size="20" lengthAdjust="spacing" textLength="148.9844" x="418" y="680.3867">operationalSuffix</text></g><g class="entity" data-qualified-name="Flight_Aggregate.GMN45" data-source-line="77" id="ent0046"><path d="M23,587 L23,647.3125 A0,0 0 0 0 23,647.3125 L247.3496,647.3125 A0,0 0 0 0 247.3496,647.3125 L247.3496,621 L411.85,617 L247.3496,613 L247.3496,597 L237.3496,587 L23,587 A0,0 0 0 0 23,587" fill="#FEFFDD" style="stroke:#181818;stroke-width:0.5;"/><path d="M237.3496,587 L237.3496,597 L247.3496,597 L237.3496,587" fill="#FEFFDD" style="stroke:#181818;stroke-width:0.5;"/><text fill="#000000" font-family="sans-serif" font-size="20" lengthAdjust="spacing" textLength="203.3496" x="29" y="612.7617">Format: xxn(n)(n)(n)(a)</text><text fill="#000000" font-family="sans-serif" font-size="20" lengthAdjust="spacing" textLength="148.9746" x="29" y="637.918">unique (sec. 3.2)</text></g><!--class FlightType--><g class="entity" data-qualified-name="Flight_Aggregate.FlightType" data-source-line="79" id="ent0048"><rect fill="#F1F1F1" height="93.4688" rx="2.5" ry="2.5" style="stroke:#181818;stroke-width:0.5;" width="127.3691" x="692.5" y="930.5"/><ellipse cx="708.5" cy="948.0781" fill="#EB937F" rx="12" ry="12" style="stroke:#181818;stroke-width:1;"/><path d="M706.4531,949.1406 L706.4531,952.0781 L711.5469,952.0781 L711.5469,950.9844 Q711.5469,950.2656 711.8281,949.9688 Q712.1094,949.6563 712.5625,949.6563 Q713,949.6563 713.2813,949.9688 Q713.5625,950.2656 713.5625,950.9844 L713.5625,954.0781 L704.125,954.0781 Q703.4063,954.0781 703.0938,953.7969 Q702.7969,953.5156 702.7969,953.0781 Q702.7969,952.625 703.1094,952.3594 Q703.4219,952.0781 704.125,952.0781 L704.4375,952.0781 L704.4375,944.25 L704.125,944.25 Q703.4063,944.25 703.0938,943.9688 Q702.7969,943.6875 702.7969,943.2344 Q702.7969,942.7813 703.0938,942.5156 Q703.4063,942.2344 704.125,942.2344 L713.1094,942.2344 L713.1094,945.2813 Q713.1094,946 712.8281,946.3125 Q712.5625,946.6094 712.125,946.6094 Q711.6719,946.6094 711.3906,946.3125 Q711.1094,946.0156 711.1094,945.2813 L711.1094,944.25 L706.4531,944.25 L706.4531,947.1406 L708.2031,947.1406 Q708.2031,946.3594 708.3438,946.125 Q708.6563,945.6563 709.2031,945.6563 Q709.6563,945.6563 709.9219,945.9688 Q710.2031,946.2656 710.2031,946.9844 L710.2031,949.2969 Q710.2031,949.9531 710.0469,950.1719 Q709.7344,950.625 709.2031,950.625 Q708.6563,950.625 708.3438,950.1563 Q708.2031,949.9219 708.2031,949.1406 L706.4531,949.1406 Z " fill="#000000"/><text fill="#000000" font-family="sans-serif" font-size="20" lengthAdjust="spacing" textLength="93.3691" x="723.5" y="956.2617">FlightType</text><line style="stroke:#181818;stroke-width:0.5;" x1="693.5" x2="818.8691" y1="965.6563" y2="965.6563"/><text fill="#000000" font-family="sans-serif" font-size="20" lengthAdjust="spacing" textLength="62.2559" x="698.5" y="990.418">regular</text><text fill="#000000" font-family="sans-serif" font-size="20" lengthAdjust="spacing" textLength="62.2461" x="698.5" y="1015.5742">charter</text></g><g class="entity" data-qualified-name="Flight_Aggregate.GMN49" data-source-line="83" id="ent0050"><path d="M1009,938.5 L1009,975.45 L819.87,977.61 L1009,983.45 L1009,1023.9688 A0,0 0 0 0 1009,1023.9688 L1329.0625,1023.9688 A0,0 0 0 0 1329.0625,1023.9688 L1329.0625,948.5 L1319.0625,938.5 L1009,938.5 A0,0 0 0 0 1009,938.5" fill="#FEFFDD" style="stroke:#181818;stroke-width:0.5;"/><path d="M1319.0625,938.5 L1319.0625,948.5 L1329.0625,948.5 L1319.0625,938.5" fill="#FEFFDD" style="stroke:#181818;stroke-width:0.5;"/><text fill="#000000" font-family="sans-serif" font-size="20" lengthAdjust="spacing" textLength="210.1172" x="1015" y="964.2617">Invariant: if regular then</text><text fill="#000000" font-family="sans-serif" font-size="20" lengthAdjust="spacing" textLength="249.0332" x="1015" y="989.418">DepartureSchedule must be</text><text fill="#000000" font-family="sans-serif" font-size="20" lengthAdjust="spacing" textLength="299.0625" x="1015" y="1014.5742">RegularSchedule, and vice versa.</text></g><!--class DepartureSchedule--><g class="entity" data-qualified-name="Flight_Aggregate.DepartureSchedule" data-source-line="85" id="ent0052"><rect fill="#F1F1F1" height="60.3125" rx="2.5" ry="2.5" style="stroke:#181818;stroke-width:0.5;" width="206.334" x="653" y="830"/><ellipse cx="669" cy="860.1563" fill="#A9DCDF" rx="12" ry="12" style="stroke:#181818;stroke-width:1;"/><path d="M671.4531,862.1875 L666.5781,862.1875 L666.0938,863.4063 L666.5781,863.4063 Q667.3125,863.4063 667.6094,863.6875 Q667.9219,863.9531 667.9219,864.4063 Q667.9219,864.8438 667.6094,865.125 Q667.3125,865.4063 666.5781,865.4063 L663.8906,865.4063 Q663.1719,865.4063 662.8594,865.125 Q662.5469,864.8438 662.5469,864.4063 Q662.5469,863.9531 662.875,863.6719 Q663.2031,863.3906 663.9375,863.4063 L667.0781,855.5781 L665.7813,855.5781 Q665.0469,855.5781 664.7344,855.2969 Q664.4375,855.0156 664.4375,854.5625 Q664.4375,854.1094 664.7344,853.8438 Q665.0469,853.5625 665.7813,853.5625 L670.0938,853.5625 L674.0781,863.4063 Q674.7813,863.4063 675.0156,863.5625 Q675.4688,863.875 675.4688,864.4063 Q675.4688,864.8438 675.1563,865.125 Q674.8594,865.4063 674.1406,865.4063 L671.4375,865.4063 Q670.7188,865.4063 670.4063,865.125 Q670.0938,864.8438 670.0938,864.4063 Q670.0938,863.9531 670.4063,863.6875 Q670.7188,863.4063 671.4375,863.4063 L671.9219,863.4063 L671.4531,862.1875 Z M670.625,860.1875 L669,856.2188 L667.3906,860.1875 L670.625,860.1875 Z " fill="#000000"/><text fill="#000000" font-family="sans-serif" font-size="20" font-style="italic" lengthAdjust="spacing" textLength="128.9844" x="705.6748" y="855.7617">&#171;value object&#187;</text><text fill="#000000" font-family="sans-serif" font-size="20" font-style="italic" lengthAdjust="spacing" textLength="172.334" x="684" y="880.918">DepartureSchedule</text></g><!--class RegularSchedule--><g class="entity" data-qualified-name="Flight_Aggregate.RegularSchedule" data-source-line="88" id="ent0053"><rect fill="#F1F1F1" height="60.3125" rx="2.5" ry="2.5" style="stroke:#181818;stroke-width:0.5;" width="187.4375" x="1075.5" y="838"/><ellipse cx="1091.5" cy="868.1563" fill="#ADD1B2" rx="12" ry="12" style="stroke:#181818;stroke-width:1;"/><path d="M1093.6406,863.0781 Q1093.8281,862.8281 1094.0469,862.7031 Q1094.2656,862.5625 1094.5156,862.5625 Q1094.9531,862.5625 1095.2344,862.875 Q1095.5156,863.1719 1095.5156,863.8906 L1095.5156,865.5938 Q1095.5156,866.3125 1095.2344,866.625 Q1094.9531,866.9375 1094.5156,866.9375 Q1094.125,866.9375 1093.875,866.7031 Q1093.625,866.4844 1093.5156,865.875 Q1093.4531,865.4531 1093.2344,865.2344 Q1092.8438,864.7969 1092.125,864.5313 Q1091.4063,864.2656 1090.6875,864.2656 Q1089.7813,864.2656 1089.0313,864.6563 Q1088.2813,865.0469 1087.7031,865.9375 Q1087.125,866.8125 1087.125,868.0156 L1087.125,869.3125 Q1087.125,870.7656 1088.1719,871.7344 Q1089.2344,872.7031 1091.0938,872.7031 Q1092.2031,872.7031 1092.9844,872.3906 Q1093.4219,872.2188 1093.9375,871.7031 Q1094.25,871.3906 1094.4219,871.2969 Q1094.5938,871.2031 1094.8281,871.2031 Q1095.2188,871.2031 1095.5156,871.5156 Q1095.8281,871.8125 1095.8281,872.2188 Q1095.8281,872.625 1095.4219,873.0938 Q1094.8281,873.7813 1093.8906,874.1719 Q1092.625,874.7031 1091.1094,874.7031 Q1089.3281,874.7031 1087.9063,873.9688 Q1086.75,873.375 1085.9375,872.1094 Q1085.125,870.8438 1085.125,869.3594 L1085.125,868 Q1085.125,866.4375 1085.8438,865.0938 Q1086.5781,863.7344 1087.8594,863 Q1089.1563,862.2656 1090.6094,862.2656 Q1091.4688,862.2656 1092.2188,862.4688 Q1092.9844,862.6719 1093.6406,863.0781 Z " fill="#000000"/><text fill="#000000" font-family="sans-serif" font-size="20" font-style="italic" lengthAdjust="spacing" textLength="128.9844" x="1118.7266" y="863.7617">&#171;value object&#187;</text><text fill="#000000" font-family="sans-serif" font-size="20" lengthAdjust="spacing" textLength="153.4375" x="1106.5" y="888.918">RegularSchedule</text></g><g class="entity" data-qualified-name="Flight_Aggregate.GMN54" data-source-line="90" id="ent0055"><path d="M1393,850.5 L1393,864 L1262.57,868 L1393,872 L1393,885.6563 A0,0 0 0 0 1393,885.6563 L1698.0332,885.6563 A0,0 0 0 0 1698.0332,885.6563 L1698.0332,860.5 L1688.0332,850.5 L1393,850.5 A0,0 0 0 0 1393,850.5" fill="#FEFFDD" style="stroke:#181818;stroke-width:0.5;"/><path d="M1688.0332,850.5 L1688.0332,860.5 L1698.0332,860.5 L1688.0332,850.5" fill="#FEFFDD" style="stroke:#181818;stroke-width:0.5;"/><text fill="#000000" font-family="sans-serif" font-size="20" lengthAdjust="spacing" textLength="284.0332" x="1399" y="876.2617">Used when FlightType = regular</text></g><!--class ScheduleEntry--><g class="entity" data-qualified-name="Flight_Aggregate.ScheduleEntry" data-source-line="92" id="ent0057"><rect fill="#F1F1F1" height="118.625" rx="2.5" ry="2.5" style="stroke:#181818;stroke-width:0.5;" width="164.0781" x="1087" y="652.5"/><ellipse cx="1103" cy="682.6563" fill="#ADD1B2" rx="12" ry="12" style="stroke:#181818;stroke-width:1;"/><path d="M1105.1406,677.5781 Q1105.3281,677.3281 1105.5469,677.2031 Q1105.7656,677.0625 1106.0156,677.0625 Q1106.4531,677.0625 1106.7344,677.375 Q1107.0156,677.6719 1107.0156,678.3906 L1107.0156,680.0938 Q1107.0156,680.8125 1106.7344,681.125 Q1106.4531,681.4375 1106.0156,681.4375 Q1105.625,681.4375 1105.375,681.2031 Q1105.125,680.9844 1105.0156,680.375 Q1104.9531,679.9531 1104.7344,679.7344 Q1104.3438,679.2969 1103.625,679.0313 Q1102.9063,678.7656 1102.1875,678.7656 Q1101.2813,678.7656 1100.5313,679.1563 Q1099.7813,679.5469 1099.2031,680.4375 Q1098.625,681.3125 1098.625,682.5156 L1098.625,683.8125 Q1098.625,685.2656 1099.6719,686.2344 Q1100.7344,687.2031 1102.5938,687.2031 Q1103.7031,687.2031 1104.4844,686.8906 Q1104.9219,686.7188 1105.4375,686.2031 Q1105.75,685.8906 1105.9219,685.7969 Q1106.0938,685.7031 1106.3281,685.7031 Q1106.7188,685.7031 1107.0156,686.0156 Q1107.3281,686.3125 1107.3281,686.7188 Q1107.3281,687.125 1106.9219,687.5938 Q1106.3281,688.2813 1105.3906,688.6719 Q1104.125,689.2031 1102.6094,689.2031 Q1100.8281,689.2031 1099.4063,688.4688 Q1098.25,687.875 1097.4375,686.6094 Q1096.625,685.3438 1096.625,683.8594 L1096.625,682.5 Q1096.625,680.9375 1097.3438,679.5938 Q1098.0781,678.2344 1099.3594,677.5 Q1100.6563,676.7656 1102.1094,676.7656 Q1102.9688,676.7656 1103.7188,676.9688 Q1104.4844,677.1719 1105.1406,677.5781 Z " fill="#000000"/><text fill="#000000" font-family="sans-serif" font-size="20" font-style="italic" lengthAdjust="spacing" textLength="128.9844" x="1118.5469" y="678.2617">&#171;value object&#187;</text><text fill="#000000" font-family="sans-serif" font-size="20" lengthAdjust="spacing" textLength="130.0781" x="1118" y="703.418">ScheduleEntry</text><line style="stroke:#181818;stroke-width:0.5;" x1="1088" x2="1250.0781" y1="712.8125" y2="712.8125"/><text fill="#000000" font-family="sans-serif" font-size="20" lengthAdjust="spacing" textLength="104.4824" x="1093" y="737.5742">dayOfWeek</text><text fill="#000000" font-family="sans-serif" font-size="20" lengthAdjust="spacing" textLength="130.0586" x="1093" y="762.7305">departureTime</text></g><g class="entity" data-qualified-name="Flight_Aggregate.GMN58" data-source-line="96" id="ent0059"><path d="M1390,682 L1390,708 L1251.26,712 L1390,716 L1390,742.3125 A0,0 0 0 0 1390,742.3125 L1700.502,742.3125 A0,0 0 0 0 1700.502,742.3125 L1700.502,692 L1690.502,682 L1390,682 A0,0 0 0 0 1390,682" fill="#FEFFDD" style="stroke:#181818;stroke-width:0.5;"/><path d="M1690.502,682 L1690.502,692 L1700.502,692 L1690.502,682" fill="#FEFFDD" style="stroke:#181818;stroke-width:0.5;"/><text fill="#000000" font-family="sans-serif" font-size="20" lengthAdjust="spacing" textLength="201.6602" x="1396" y="707.7617">Client: "Monday 12:00;</text><text fill="#000000" font-family="sans-serif" font-size="20" lengthAdjust="spacing" textLength="289.502" x="1396" y="732.918">Tuesday 12:30; Thursday 11:30"</text></g><!--class CharterSchedule--><g class="entity" data-qualified-name="Flight_Aggregate.CharterSchedule" data-source-line="98" id="ent0061"><rect fill="#F1F1F1" height="118.625" rx="2.5" ry="2.5" style="stroke:#181818;stroke-width:0.5;" width="184.0879" x="1077" y="493.5"/><ellipse cx="1093" cy="523.6563" fill="#ADD1B2" rx="12" ry="12" style="stroke:#181818;stroke-width:1;"/><path d="M1095.1406,518.5781 Q1095.3281,518.3281 1095.5469,518.2031 Q1095.7656,518.0625 1096.0156,518.0625 Q1096.4531,518.0625 1096.7344,518.375 Q1097.0156,518.6719 1097.0156,519.3906 L1097.0156,521.0938 Q1097.0156,521.8125 1096.7344,522.125 Q1096.4531,522.4375 1096.0156,522.4375 Q1095.625,522.4375 1095.375,522.2031 Q1095.125,521.9844 1095.0156,521.375 Q1094.9531,520.9531 1094.7344,520.7344 Q1094.3438,520.2969 1093.625,520.0313 Q1092.9063,519.7656 1092.1875,519.7656 Q1091.2813,519.7656 1090.5313,520.1563 Q1089.7813,520.5469 1089.2031,521.4375 Q1088.625,522.3125 1088.625,523.5156 L1088.625,524.8125 Q1088.625,526.2656 1089.6719,527.2344 Q1090.7344,528.2031 1092.5938,528.2031 Q1093.7031,528.2031 1094.4844,527.8906 Q1094.9219,527.7188 1095.4375,527.2031 Q1095.75,526.8906 1095.9219,526.7969 Q1096.0938,526.7031 1096.3281,526.7031 Q1096.7188,526.7031 1097.0156,527.0156 Q1097.3281,527.3125 1097.3281,527.7188 Q1097.3281,528.125 1096.9219,528.5938 Q1096.3281,529.2813 1095.3906,529.6719 Q1094.125,530.2031 1092.6094,530.2031 Q1090.8281,530.2031 1089.4063,529.4688 Q1088.25,528.875 1087.4375,527.6094 Q1086.625,526.3438 1086.625,524.8594 L1086.625,523.5 Q1086.625,521.9375 1087.3438,520.5938 Q1088.0781,519.2344 1089.3594,518.5 Q1090.6563,517.7656 1092.1094,517.7656 Q1092.9688,517.7656 1093.7188,517.9688 Q1094.4844,518.1719 1095.1406,518.5781 Z " fill="#000000"/><text fill="#000000" font-family="sans-serif" font-size="20" font-style="italic" lengthAdjust="spacing" textLength="128.9844" x="1118.5518" y="519.2617">&#171;value object&#187;</text><text fill="#000000" font-family="sans-serif" font-size="20" lengthAdjust="spacing" textLength="150.0879" x="1108" y="544.418">CharterSchedule</text><line style="stroke:#181818;stroke-width:0.5;" x1="1078" x2="1260.0879" y1="553.8125" y2="553.8125"/><text fill="#000000" font-family="sans-serif" font-size="20" lengthAdjust="spacing" textLength="127.8613" x="1083" y="578.5742">departureDate</text><text fill="#000000" font-family="sans-serif" font-size="20" lengthAdjust="spacing" textLength="130.0586" x="1083" y="603.7305">departureTime</text></g><g class="entity" data-qualified-name="Flight_Aggregate.GMN62" data-source-line="102" id="ent0063"><path d="M1390,523 L1390,549 L1261.13,553 L1390,557 L1390,583.3125 A0,0 0 0 0 1390,583.3125 L1700.5801,583.3125 A0,0 0 0 0 1700.5801,583.3125 L1700.5801,533 L1690.5801,523 L1390,523 A0,0 0 0 0 1390,523" fill="#FEFFDD" style="stroke:#181818;stroke-width:0.5;"/><path d="M1690.5801,523 L1690.5801,533 L1700.5801,533 L1690.5801,523" fill="#FEFFDD" style="stroke:#181818;stroke-width:0.5;"/><text fill="#000000" font-family="sans-serif" font-size="20" lengthAdjust="spacing" textLength="289.5801" x="1396" y="548.7617">Used when FlightType = charter.</text><text fill="#000000" font-family="sans-serif" font-size="20" lengthAdjust="spacing" textLength="214.3066" x="1396" y="573.918">Client: "single instance."</text></g><!--class FlightPlan--><g class="entity" data-qualified-name="Flight_Aggregate.FlightPlan" data-source-line="104" id="ent0065"><rect fill="#F1F1F1" height="60.3125" rx="2.5" ry="2.5" style="stroke:#181818;stroke-width:0.5;" width="122.9355" x="694.5" y="316"/><ellipse cx="710.5" cy="346.1563" fill="#ADD1B2" rx="12" ry="12" style="stroke:#181818;stroke-width:1;"/><path d="M712.6406,341.0781 Q712.8281,340.8281 713.0469,340.7031 Q713.2656,340.5625 713.5156,340.5625 Q713.9531,340.5625 714.2344,340.875 Q714.5156,341.1719 714.5156,341.8906 L714.5156,343.5938 Q714.5156,344.3125 714.2344,344.625 Q713.9531,344.9375 713.5156,344.9375 Q713.125,344.9375 712.875,344.7031 Q712.625,344.4844 712.5156,343.875 Q712.4531,343.4531 712.2344,343.2344 Q711.8438,342.7969 711.125,342.5313 Q710.4063,342.2656 709.6875,342.2656 Q708.7813,342.2656 708.0313,342.6563 Q707.2813,343.0469 706.7031,343.9375 Q706.125,344.8125 706.125,346.0156 L706.125,347.3125 Q706.125,348.7656 707.1719,349.7344 Q708.2344,350.7031 710.0938,350.7031 Q711.2031,350.7031 711.9844,350.3906 Q712.4219,350.2188 712.9375,349.7031 Q713.25,349.3906 713.4219,349.2969 Q713.5938,349.2031 713.8281,349.2031 Q714.2188,349.2031 714.5156,349.5156 Q714.8281,349.8125 714.8281,350.2188 Q714.8281,350.625 714.4219,351.0938 Q713.8281,351.7813 712.8906,352.1719 Q711.625,352.7031 710.1094,352.7031 Q708.3281,352.7031 706.9063,351.9688 Q705.75,351.375 704.9375,350.1094 Q704.125,348.8438 704.125,347.3594 L704.125,346 Q704.125,344.4375 704.8438,343.0938 Q705.5781,341.7344 706.8594,341 Q708.1563,340.2656 709.6094,340.2656 Q710.4688,340.2656 711.2188,340.4688 Q711.9844,340.6719 712.6406,341.0781 Z " fill="#000000"/><text fill="#000000" font-family="sans-serif" font-size="20" font-style="italic" lengthAdjust="spacing" textLength="70.0488" x="734.9434" y="341.7617">&#171;entity&#187;</text><text fill="#000000" font-family="sans-serif" font-size="20" lengthAdjust="spacing" textLength="88.9355" x="725.5" y="366.918">FlightPlan</text></g><g class="entity" data-qualified-name="Flight_Aggregate.GMN66" data-source-line="106" id="ent0067"><path d="M1032,368.5 L1032,385.46 L817.64,355.59 L1032,393.46 L1032,453.9688 A0,0 0 0 0 1032,453.9688 L1306.4863,453.9688 A0,0 0 0 0 1306.4863,453.9688 L1306.4863,378.5 L1296.4863,368.5 L1032,368.5 A0,0 0 0 0 1032,368.5" fill="#FEFFDD" style="stroke:#181818;stroke-width:0.5;"/><path d="M1296.4863,368.5 L1296.4863,378.5 L1306.4863,378.5 L1296.4863,368.5" fill="#FEFFDD" style="stroke:#181818;stroke-width:0.5;"/><text fill="#000000" font-family="sans-serif" font-size="20" lengthAdjust="spacing" textLength="238.457" x="1038" y="394.2617">Lifecycle: draft -&gt; validated</text><text fill="#000000" font-family="sans-serif" font-size="20" lengthAdjust="spacing" textLength="253.4863" x="1038" y="419.418">US080 creates, US082 adds</text><text fill="#000000" font-family="sans-serif" font-size="20" lengthAdjust="spacing" textLength="233.4668" x="1038" y="444.5742">weather, US085 validates.</text></g><!--class FlightPlanStatus--><g class="entity" data-qualified-name="Flight_Aggregate.FlightPlanStatus" data-source-line="108" id="ent0069"><rect fill="#F1F1F1" height="93.4688" rx="2.5" ry="2.5" style="stroke:#181818;stroke-width:0.5;" width="179.6348" x="1079" y="235.5"/><ellipse cx="1095" cy="253.0781" fill="#EB937F" rx="12" ry="12" style="stroke:#181818;stroke-width:1;"/><path d="M1092.9531,254.1406 L1092.9531,257.0781 L1098.0469,257.0781 L1098.0469,255.9844 Q1098.0469,255.2656 1098.3281,254.9688 Q1098.6094,254.6563 1099.0625,254.6563 Q1099.5,254.6563 1099.7813,254.9688 Q1100.0625,255.2656 1100.0625,255.9844 L1100.0625,259.0781 L1090.625,259.0781 Q1089.9063,259.0781 1089.5938,258.7969 Q1089.2969,258.5156 1089.2969,258.0781 Q1089.2969,257.625 1089.6094,257.3594 Q1089.9219,257.0781 1090.625,257.0781 L1090.9375,257.0781 L1090.9375,249.25 L1090.625,249.25 Q1089.9063,249.25 1089.5938,248.9688 Q1089.2969,248.6875 1089.2969,248.2344 Q1089.2969,247.7813 1089.5938,247.5156 Q1089.9063,247.2344 1090.625,247.2344 L1099.6094,247.2344 L1099.6094,250.2813 Q1099.6094,251 1099.3281,251.3125 Q1099.0625,251.6094 1098.625,251.6094 Q1098.1719,251.6094 1097.8906,251.3125 Q1097.6094,251.0156 1097.6094,250.2813 L1097.6094,249.25 L1092.9531,249.25 L1092.9531,252.1406 L1094.7031,252.1406 Q1094.7031,251.3594 1094.8438,251.125 Q1095.1563,250.6563 1095.7031,250.6563 Q1096.1563,250.6563 1096.4219,250.9688 Q1096.7031,251.2656 1096.7031,251.9844 L1096.7031,254.2969 Q1096.7031,254.9531 1096.5469,255.1719 Q1096.2344,255.625 1095.7031,255.625 Q1095.1563,255.625 1094.8438,255.1563 Q1094.7031,254.9219 1094.7031,254.1406 L1092.9531,254.1406 Z " fill="#000000"/><text fill="#000000" font-family="sans-serif" font-size="20" lengthAdjust="spacing" textLength="145.6348" x="1110" y="261.2617">FlightPlanStatus</text><line style="stroke:#181818;stroke-width:0.5;" x1="1080" x2="1257.6348" y1="270.6563" y2="270.6563"/><text fill="#000000" font-family="sans-serif" font-size="20" lengthAdjust="spacing" textLength="40.0195" x="1085" y="295.418">draft</text><text fill="#000000" font-family="sans-serif" font-size="20" lengthAdjust="spacing" textLength="80.0586" x="1085" y="320.5742">validated</text></g><!--class FuelQuantity--><g class="entity" data-qualified-name="Flight_Aggregate.FuelQuantity" data-source-line="113" id="ent0070"><rect fill="#F1F1F1" height="118.625" rx="2.5" ry="2.5" style="stroke:#181818;stroke-width:0.5;" width="158.9844" x="1089.5" y="76.5"/><ellipse cx="1105.5" cy="106.6563" fill="#ADD1B2" rx="12" ry="12" style="stroke:#181818;stroke-width:1;"/><path d="M1107.6406,101.5781 Q1107.8281,101.3281 1108.0469,101.2031 Q1108.2656,101.0625 1108.5156,101.0625 Q1108.9531,101.0625 1109.2344,101.375 Q1109.5156,101.6719 1109.5156,102.3906 L1109.5156,104.0938 Q1109.5156,104.8125 1109.2344,105.125 Q1108.9531,105.4375 1108.5156,105.4375 Q1108.125,105.4375 1107.875,105.2031 Q1107.625,104.9844 1107.5156,104.375 Q1107.4531,103.9531 1107.2344,103.7344 Q1106.8438,103.2969 1106.125,103.0313 Q1105.4063,102.7656 1104.6875,102.7656 Q1103.7813,102.7656 1103.0313,103.1563 Q1102.2813,103.5469 1101.7031,104.4375 Q1101.125,105.3125 1101.125,106.5156 L1101.125,107.8125 Q1101.125,109.2656 1102.1719,110.2344 Q1103.2344,111.2031 1105.0938,111.2031 Q1106.2031,111.2031 1106.9844,110.8906 Q1107.4219,110.7188 1107.9375,110.2031 Q1108.25,109.8906 1108.4219,109.7969 Q1108.5938,109.7031 1108.8281,109.7031 Q1109.2188,109.7031 1109.5156,110.0156 Q1109.8281,110.3125 1109.8281,110.7188 Q1109.8281,111.125 1109.4219,111.5938 Q1108.8281,112.2813 1107.8906,112.6719 Q1106.625,113.2031 1105.1094,113.2031 Q1103.3281,113.2031 1101.9063,112.4688 Q1100.75,111.875 1099.9375,110.6094 Q1099.125,109.3438 1099.125,107.8594 L1099.125,106.5 Q1099.125,104.9375 1099.8438,103.5938 Q1100.5781,102.2344 1101.8594,101.5 Q1103.1563,100.7656 1104.6094,100.7656 Q1105.4688,100.7656 1106.2188,100.9688 Q1106.9844,101.1719 1107.6406,101.5781 Z " fill="#000000"/><text fill="#000000" font-family="sans-serif" font-size="20" font-style="italic" lengthAdjust="spacing" textLength="128.9844" x="1118.5" y="102.2617">&#171;value object&#187;</text><text fill="#000000" font-family="sans-serif" font-size="20" lengthAdjust="spacing" textLength="113.3887" x="1126.2979" y="127.418">FuelQuantity</text><line style="stroke:#181818;stroke-width:0.5;" x1="1090.5" x2="1247.4844" y1="136.8125" y2="136.8125"/><text fill="#000000" font-family="sans-serif" font-size="20" lengthAdjust="spacing" textLength="47.8125" x="1095.5" y="161.5742">value</text><text fill="#000000" font-family="sans-serif" font-size="20" lengthAdjust="spacing" textLength="32.2461" x="1095.5" y="186.7305">unit</text></g><g class="entity" data-qualified-name="Flight_Aggregate.GMN71" data-source-line="117" id="ent0072"><path d="M1422.5,118.5 L1422.5,132 L1248.51,136 L1422.5,140 L1422.5,153.6563 A0,0 0 0 0 1422.5,153.6563 L1668.041,153.6563 A0,0 0 0 0 1668.041,153.6563 L1668.041,128.5 L1658.041,118.5 L1422.5,118.5 A0,0 0 0 0 1422.5,118.5" fill="#FEFFDD" style="stroke:#181818;stroke-width:0.5;"/><path d="M1658.041,118.5 L1658.041,128.5 L1668.041,128.5 L1658.041,118.5" fill="#FEFFDD" style="stroke:#181818;stroke-width:0.5;"/><text fill="#000000" font-family="sans-serif" font-size="20" lengthAdjust="spacing" textLength="224.541" x="1428.5" y="144.2617">must be positive (US080)</text></g><!--reverse link AirTransportCompany to CompanyName--><g class="link" data-entity-1="ent0003" data-entity-2="ent0004" data-link-type="composition" data-source-line="22" id="lnk16"><path codeLine="22" d="M1656.3511,1523.3172 C1738.7911,1558.8272 1844.05,1604.17 1922.65,1638.02" fill="none" id="AirTransportCompany-backto-CompanyName" style="stroke:#181818;stroke-width:1;"/><polygon fill="#181818" points="1645.33,1518.57,1649.2581,1524.6173,1656.3511,1523.3172,1652.4229,1517.2699,1645.33,1518.57" style="stroke:#181818;stroke-width:1;"/><text fill="#000000" font-family="sans-serif" font-size="20" lengthAdjust="spacing" textLength="84.4922" x="1743.5" y="1552.7617">namedAs</text></g><!--reverse link AirTransportCompany to IATACode_ATC--><g class="link" data-entity-1="ent0003" data-entity-2="ent0008" data-link-type="composition" data-source-line="23" id="lnk17"><path codeLine="23" d="M1672.5794,1494.0071 C1753.0094,1505.4971 1847.2,1518.96 1920.96,1529.49" fill="none" id="AirTransportCompany-backto-IATACode_ATC" style="stroke:#181818;stroke-width:1;"/><polygon fill="#181818" points="1660.7,1492.31,1666.074,1497.1183,1672.5794,1494.0071,1667.2054,1489.1987,1660.7,1492.31" style="stroke:#181818;stroke-width:1;"/><text fill="#000000" font-family="sans-serif" font-size="20" lengthAdjust="spacing" textLength="103.3984" x="1734" y="1498.7617">identifiedBy</text></g><!--reverse link AirTransportCompany to ICAOCode_ATC--><g class="link" data-entity-1="ent0003" data-entity-2="ent0009" data-link-type="composition" data-source-line="24" id="lnk18"><path codeLine="24" d="M1672.5758,1457.7176 C1752.0758,1446.1876 1844.74,1432.75 1918.37,1422.07" fill="none" id="AirTransportCompany-backto-ICAOCode_ATC" style="stroke:#181818;stroke-width:1;"/><polygon fill="#181818" points="1660.7,1459.44,1667.212,1462.5374,1672.5758,1457.7176,1666.0638,1454.6202,1660.7,1459.44" style="stroke:#181818;stroke-width:1;"/><text fill="#000000" font-family="sans-serif" font-size="20" lengthAdjust="spacing" textLength="103.3984" x="1734" y="1429.7617">identifiedBy</text></g><!--reverse link Airport to IATACode--><g class="link" data-entity-1="ent0020" data-entity-2="ent0021" data-link-type="composition" data-source-line="49" id="lnk31"><path codeLine="49" d="M1604.473,2057.0044 C1664.973,2112.9144 1763.71,2198.63 1868,2262 C1887.4,2273.79 1909.2,2285.05 1929.73,2294.87" fill="none" id="Airport-backto-IATACode" style="stroke:#181818;stroke-width:1;"/><polygon fill="#181818" points="1595.66,2048.86,1597.3517,2055.8699,1604.473,2057.0044,1602.7813,2049.9945,1595.66,2048.86" style="stroke:#181818;stroke-width:1;"/><text fill="#000000" font-family="sans-serif" font-size="20" lengthAdjust="spacing" textLength="103.3984" x="1734" y="2165.7617">identifiedBy</text></g><!--reverse link Airport to ICAOCode--><g class="link" data-entity-1="ent0020" data-entity-2="ent0022" data-link-type="composition" data-source-line="50" id="lnk32"><path codeLine="50" d="M1606.5647,2027.2247 C1686.3447,2060.7147 1833.9,2122.68 1929.67,2162.9" fill="none" id="Airport-backto-ICAOCode" style="stroke:#181818;stroke-width:1;"/><polygon fill="#181818" points="1595.5,2022.58,1599.4841,2028.5906,1606.5647,2027.2247,1602.5806,2021.2141,1595.5,2022.58" style="stroke:#181818;stroke-width:1;"/><text fill="#000000" font-family="sans-serif" font-size="20" lengthAdjust="spacing" textLength="103.3984" x="1734" y="2076.7617">identifiedBy</text></g><!--reverse link Airport to Coordinates_Apt--><g class="link" data-entity-1="ent0020" data-entity-2="ent0023" data-link-type="composition" data-source-line="51" id="lnk33"><path codeLine="51" d="M1607.4358,2008.3301 C1683.9558,2016.2801 1821.1,2030.53 1917.66,2040.56" fill="none" id="Airport-backto-Coordinates_Apt" style="stroke:#181818;stroke-width:1;"/><polygon fill="#181818" points="1595.5,2007.09,1601.0545,2011.6886,1607.4358,2008.3301,1601.8812,2003.7314,1595.5,2007.09" style="stroke:#181818;stroke-width:1;"/><text fill="#000000" font-family="sans-serif" font-size="20" lengthAdjust="spacing" textLength="83.3887" x="1744" y="2016.7617">locatedAt</text></g><!--reverse link Airport to Elevation--><g class="link" data-entity-1="ent0020" data-entity-2="ent0027" data-link-type="composition" data-source-line="52" id="lnk34"><path codeLine="52" d="M1607.1679,1987.4264 C1686.9479,1968.2564 1833.9,1932.95 1929.67,1909.94" fill="none" id="Airport-backto-Elevation" style="stroke:#181818;stroke-width:1;"/><polygon fill="#181818" points="1595.5,1990.23,1602.2685,1992.7175,1607.1679,1987.4264,1600.3994,1984.9389,1595.5,1990.23" style="stroke:#181818;stroke-width:1;"/><text fill="#000000" font-family="sans-serif" font-size="20" lengthAdjust="spacing" textLength="88.9453" x="1741.5" y="1928.7617">situatedAt</text></g><!--reverse link FlightRoute to RouteName--><g class="link" data-entity-1="ent0036" data-entity-2="ent0037" data-link-type="composition" data-source-line="63" id="lnk41"><path codeLine="63" d="M848.84,1193 C1000.27,1193 1315.46,1193 1465.91,1193" fill="none" id="FlightRoute-backto-RouteName" style="stroke:#181818;stroke-width:1;"/><polygon fill="#181818" points="836.84,1193,842.84,1197,848.84,1193,842.84,1189,836.84,1193" style="stroke:#181818;stroke-width:1;"/><text fill="#000000" font-family="sans-serif" font-size="20" lengthAdjust="spacing" textLength="103.3984" x="1117.5" y="1187.7617">identifiedBy</text></g><!--reverse link Flight to FlightDesignator--><g class="link" data-entity-1="ent0043" data-entity-2="ent0044" data-link-type="composition" data-source-line="119" id="lnk74"><path codeLine="119" d="M211.3436,795.6786 C234.3336,776.1386 251.59,762.69 277,745 C319.74,715.26 369.85,686.13 411.83,663.2" fill="none" id="Flight-backto-FlightDesignator" style="stroke:#181818;stroke-width:1;"/><polygon fill="#181818" points="202.2,803.45,209.3623,802.6121,211.3436,795.6786,204.1813,796.5164,202.2,803.45" style="stroke:#181818;stroke-width:1;"/><text fill="#000000" font-family="sans-serif" font-size="20" lengthAdjust="spacing" textLength="103.3984" x="278" y="676.7617">identifiedBy</text></g><!--link Flight to FlightType--><g class="link" data-entity-1="ent0043" data-entity-2="ent0048" data-link-type="dependency" data-source-line="120" id="lnk75"><path codeLine="120" d="M237.18,881.63 C366.06,905.37 579.0092,944.5937 686.1792,964.3237" fill="none" id="Flight-to-FlightType" style="stroke:#181818;stroke-width:1;"/><polygon fill="#181818" points="692.08,965.41,683.953,959.8466,687.1626,964.5047,682.5045,967.7144,692.08,965.41" style="stroke:#181818;stroke-width:1;"/><text fill="#000000" font-family="sans-serif" font-size="20" lengthAdjust="spacing" textLength="61.1426" x="471.5" y="908.7617">ofType</text></g><!--reverse link Flight to DepartureSchedule--><g class="link" data-entity-1="ent0043" data-entity-2="ent0052" data-link-type="composition" data-source-line="121" id="lnk76"><path codeLine="121" d="M249.1799,862.4514 C363.8399,861.8914 537.7,861.05 652.79,860.5" fill="none" id="Flight-backto-DepartureSchedule" style="stroke:#181818;stroke-width:1;"/><polygon fill="#181818" points="237.18,862.51,243.1995,866.4806,249.1799,862.4514,243.1604,858.4807,237.18,862.51" style="stroke:#181818;stroke-width:1;"/><text fill="#000000" font-family="sans-serif" font-size="20" lengthAdjust="spacing" textLength="110.0781" x="447" y="855.7617">scheduledAt</text></g><!--reverse link DepartureSchedule to RegularSchedule--><g class="link" data-entity-1="ent0052" data-entity-2="ent0053" data-link-type="extension" data-source-line="122" id="lnk77"><path codeLine="122" d="M877.1166,862.3406 C943.3266,863.6306 1010.9,864.94 1075.18,866.19" fill="none" id="DepartureSchedule-backto-RegularSchedule" style="stroke:#181818;stroke-width:1;"/><polygon fill="none" points="859.12,861.99,876.9997,868.3395,877.2335,856.3418,859.12,861.99" style="stroke:#181818;stroke-width:1;"/></g><!--reverse link DepartureSchedule to CharterSchedule--><g class="link" data-entity-1="ent0052" data-entity-2="ent0061" data-link-type="extension" data-source-line="123" id="lnk78"><path codeLine="123" d="M797.4263,816.7484 C841.7563,770.1484 919.79,692.81 1009,632 C1030.01,617.68 1053.99,604.38 1076.85,592.94" fill="none" id="DepartureSchedule-backto-CharterSchedule" style="stroke:#181818;stroke-width:1;"/><polygon fill="none" points="785.02,829.79,801.7735,820.8838,793.0791,812.613,785.02,829.79" style="stroke:#181818;stroke-width:1;"/></g><!--reverse link RegularSchedule to ScheduleEntry--><g class="link" data-entity-1="ent0053" data-entity-2="ent0057" data-link-type="composition" data-source-line="124" id="lnk79"><path codeLine="124" d="M1169,825.92 C1169,807.15 1169,794.34 1169,771.7" fill="none" id="RegularSchedule-backto-ScheduleEntry" style="stroke:#181818;stroke-width:1;"/><polygon fill="#181818" points="1169,837.92,1173,831.92,1169,825.92,1165,831.92,1169,837.92" style="stroke:#181818;stroke-width:1;"/><text fill="#000000" font-family="sans-serif" font-size="20" lengthAdjust="spacing" textLength="113.3887" x="1096" y="813.0117">composedOf</text><text fill="#000000" font-family="sans-serif" font-size="20" lengthAdjust="spacing" textLength="30.0195" x="1137.4501" y="799.9347">1..*</text></g><!--reverse link Flight to FlightPlan--><g class="link" data-entity-1="ent0043" data-entity-2="ent0065" data-link-type="composition" data-source-line="125" id="lnk80"><path codeLine="125" d="M248.8323,843.2571 C366.4423,821.0871 539.48,782.37 592,736 C703.95,637.16 740.92,449.02 751.37,376.01" fill="none" id="Flight-backto-FlightPlan" style="stroke:#181818;stroke-width:1;"/><polygon fill="#181818" points="237.04,845.48,243.6771,848.2993,248.8323,843.2571,242.1952,840.4378,237.04,845.48" style="stroke:#181818;stroke-width:1;"/><text fill="#000000" font-family="sans-serif" font-size="20" lengthAdjust="spacing" textLength="72.2754" x="466" y="730.7617">hasPlan</text><text fill="#000000" font-family="sans-serif" font-size="20" lengthAdjust="spacing" textLength="30.0195" x="717.5136" y="405.1255">1..*</text></g><!--link FlightPlan to FlightPlanStatus--><g class="link" data-entity-1="ent0065" data-entity-2="ent0069" data-link-type="dependency" data-source-line="126" id="lnk81"><path codeLine="126" d="M817.64,336.56 C886.64,325.81 994.0415,309.0936 1073.0615,296.7836" fill="none" id="FlightPlan-to-FlightPlanStatus" style="stroke:#181818;stroke-width:1;"/><polygon fill="#181818" points="1078.99,295.86,1069.4816,293.293,1074.0496,296.6296,1070.713,301.1977,1078.99,295.86" style="stroke:#181818;stroke-width:1;"/><text fill="#000000" font-family="sans-serif" font-size="20" lengthAdjust="spacing" textLength="88.9453" x="890" y="307.7617">hasStatus</text></g><!--reverse link FlightPlan to FuelQuantity--><g class="link" data-entity-1="ent0065" data-entity-2="ent0070" data-link-type="composition" data-source-line="127" id="lnk82"><path codeLine="127" d="M823.684,310.3437 C847.104,297.8837 864.02,288.97 889,276 C956.21,241.1 1033.19,202.58 1089.23,174.8" fill="none" id="FlightPlan-backto-FuelQuantity" style="stroke:#181818;stroke-width:1;"/><polygon fill="#181818" points="813.09,315.98,820.2657,316.6932,823.684,310.3437,816.5082,309.6305,813.09,315.98" style="stroke:#181818;stroke-width:1;"/><text fill="#000000" font-family="sans-serif" font-size="20" lengthAdjust="spacing" textLength="60.0098" x="904" y="227.7617">carries</text></g><!--link Flight to FlightRoute--><g class="link" data-entity-1="ent0043" data-entity-2="ent0036" data-link-type="dependency" data-source-line="131" id="lnk83"><path codeLine="131" d="M237.18,916.94 C359.72,982.27 558.3055,1088.1372 670.1855,1147.7872" fill="none" id="Flight-to-FlightRoute" style="stroke:#181818;stroke-width:1;"/><polygon fill="#181818" points="675.48,1150.61,669.4201,1142.8461,671.0679,1148.2577,665.6564,1149.9054,675.48,1150.61" style="stroke:#181818;stroke-width:1;"/><polygon fill="#000000" points="455.5594,1001.3417,445.001,990.3839,440.5766,998.6828,455.5594,1001.3417" style="stroke:#000000;stroke-width:1;"/><text fill="#000000" font-family="sans-serif" font-size="20" lengthAdjust="spacing" textLength="101.1719" x="461.5" y="1005.7617">instantiates</text><text fill="#000000" font-family="sans-serif" font-size="20" lengthAdjust="spacing" textLength="7.7832" x="245.2898" y="942.8089">*</text><text fill="#000000" font-family="sans-serif" font-size="20" lengthAdjust="spacing" textLength="11.123" x="656.2878" y="1168.5481">1</text></g><!--link FlightRoute to Airport--><g class="link" data-entity-1="ent0036" data-entity-2="ent0020" data-link-type="dependency" data-source-line="132" id="lnk84"><path codeLine="132" d="M818.43,1252.83 C950.91,1382.03 1259.57,1684.06 1360,1791 C1407.3,1841.37 1455.0087,1896.213 1491.5787,1939.133" fill="none" id="FlightRoute-to-Airport" style="stroke:#181818;stroke-width:1;"/><polygon fill="#181818" points="1495.47,1943.7,1492.6777,1934.2553,1492.2272,1939.8942,1486.5883,1939.4437,1495.47,1943.7" style="stroke:#181818;stroke-width:1;"/><polygon fill="#000000" points="1129.1019,1433.2894,1122.325,1419.6649,1115.611,1426.2503,1129.1019,1433.2894" style="stroke:#000000;stroke-width:1;"/><text fill="#000000" font-family="sans-serif" font-size="20" lengthAdjust="spacing" textLength="85.5957" x="1136.5" y="1435.7617">hasOrigin</text><text fill="#000000" font-family="sans-serif" font-size="20" lengthAdjust="spacing" textLength="7.7832" x="817.5483" y="1281.0781">*</text><text fill="#000000" font-family="sans-serif" font-size="20" lengthAdjust="spacing" textLength="11.123" x="1476.3195" y="1957.7509">1</text></g><!--link FlightRoute to Airport--><g class="link" data-entity-1="ent0036" data-entity-2="ent0020" data-link-type="dependency" data-source-line="133" id="lnk85"><path codeLine="133" d="M766.34,1252.53 C787.89,1370.87 851.84,1637.49 1009,1791 C1150,1928.73 1385.7008,1978.5609 1489.1808,1994.6009" fill="none" id="FlightRoute-to-Airport-1" style="stroke:#181818;stroke-width:1;"/><polygon fill="#181818" points="1495.11,1995.52,1486.8289,1990.1886,1490.169,1994.7541,1485.6035,1998.0942,1495.11,1995.52" style="stroke:#181818;stroke-width:1;"/><polygon fill="#000000" points="1105.5821,1783.3087,1098.8523,1769.6609,1092.1156,1776.223,1105.5821,1783.3087" style="stroke:#000000;stroke-width:1;"/><text fill="#000000" font-family="sans-serif" font-size="20" lengthAdjust="spacing" textLength="132.3047" x="1113" y="1785.7617">hasDestination</text><text fill="#000000" font-family="sans-serif" font-size="20" lengthAdjust="spacing" textLength="7.7832" x="760.0866" y="1280.7472">*</text><text fill="#000000" font-family="sans-serif" font-size="20" lengthAdjust="spacing" textLength="11.123" x="1476.2557" y="2017.1437">1</text></g><!--link FlightRoute to AirTransportCompany--><g class="link" data-entity-1="ent0036" data-entity-2="ent0003" data-link-type="dependency" data-source-line="134" id="lnk86"><path codeLine="134" d="M836.84,1221.69 C977.22,1272.14 1263.0136,1374.8408 1424.6536,1432.9308" fill="none" id="FlightRoute-to-AirTransportCompany" style="stroke:#181818;stroke-width:1;"/><polygon fill="#181818" points="1430.3,1434.96,1423.1831,1428.1519,1425.5946,1433.269,1420.4775,1435.6805,1430.3,1434.96" style="stroke:#181818;stroke-width:1;"/><polygon fill="#000000" points="1132.5286,1273.2837,1120.4995,1263.9641,1117.3189,1272.8145,1132.5286,1273.2837" style="stroke:#000000;stroke-width:1;"/><text fill="#000000" font-family="sans-serif" font-size="20" lengthAdjust="spacing" textLength="82.2754" x="1138" y="1278.7617">ownedBy</text><text fill="#000000" font-family="sans-serif" font-size="20" lengthAdjust="spacing" textLength="7.7832" x="844.3871" y="1246.1439">*</text><text fill="#000000" font-family="sans-serif" font-size="20" lengthAdjust="spacing" textLength="11.123" x="1411.2072" y="1453.7937">1</text></g><?plantuml-src fLTTRzis57tthxZmKvpLWktq2sfcm7CQe43NjBMBlHW8QEdAvYAJ6aavyRh-zrrAb2p9af5kG1vCwjmFddlk9QCVk4YOOhjO1WyOGeWHIsDpAuLPyByH9gDUZ9418q7npTP0o1K6XalHquKf92nuO1jSc4ECO3ypiOcn0X0oH8q9l1nLDXKJ3tRpzQYtvI42xX9pW1tkrgXqh-USGd_6rPAmEf7ApEKkOU9mFzji56wOmJvSNxDYCPt2znv043EjeSMCi2WCDmS2NbyhAOsp-55QEUGdjaE2x5cS8iZrdtGc1mKGzCtP26dGyIAZcgqFgU1_aV75jyNezMXG1lWmMyxcHCVzR3dlYX3GzrfM7-QpkvymggTLY-YNIxZGDj4y0DF0XQNCiZKuTL6DxvVByoxQ2d0v73Peico6Ctq6tyYVf48rZ3Y6lntEMTLJhbdzgAlBcZvJKHRQgQ9I6a3jyYXSLL9XrA5UpQ82Frl-PnlCfLGX5tG0VJzBJ9TTpEWOQPYd74knALPjsgvxzAixAt4gX0NVfTQ_54Vjluzndsrr9PHjPh-eUqnh8aSVFiqAev02hkKUGIC3-ePnrdAl9aw2MSMgCcgLq15LK7qMTSe6ZKzQXJFJG5RJrKIl0rKLU1lRitsLgS7dgB02FwF441bDwJpq3RceoICp_ayZxcZfmuJeDePcDVm2QM9lY9TqEv26h1xGstYm_3oUN0sywYXySsNhKZq3iJIi-UrirTpg74SDaixmeuCjXcbCnL2AQ8gNt9suuU86DTzGeQNguefn5NE1Hs2s6sNMdr9xcMKRCa6LLOF5YpIA-5ELt-oA9NfFOlfmAzME6H-UdiI56BW_DbY9WbIDWGTN7kcTlA58TyxByf2WIv4OebxCymYsJ9aifzFgLWnfo8izKvm9YisZmWMOBOgLk46wmasgSE5eX5sg3Qnn9RxcmEB32s0YX3qF4FOa5URPBDbQ6qNwT4oVUckbkbARHf0k_8bw6sO-VDFqvdcaCrNF_cj9M1cmC7blXtcN4a9sk8l-G7nm7UXELKghcKxTAKtKcAEbk_-x5EGBnXD_D7gt4iiKjLjVZTx1SfkgV3scTV-Ov3mlxNbMAecvkV2SL9kkEvbpyl9MeZoDvlOrI7U2fdTXW5w_sMEVOoQghVhzZ3Wph0yVUOJ18OZHXr0nQfxXr5uUFBJpTILeqBmTGQ3GJkWNO9SJO658a-cHzhQeyirNfP7s6krZ0oqCCwakQBDnYbig3zGO62d6NrAMdU9_N70rDtxHM918kZxuFf-YRqTPjxifP--PbidHkByScARjjDxeCh8_Qkw6BJtfLsQcpRobQ_-naxpUOzt0XgG8s6pFoo7qnvvtsJ_fb80UUf84U1SrqdRucbQsJDjV9JBRFh9GANI6pN_NqHd3zRe4Z2uEfFzJI04kWpv5pkZjZ_krAyvtuZVSAWsclUh7t2etAbuEMI9t90bwIBMXs-1KUsEV9FQjSTxcvBrC6dWKLYPa-2y0?></g></svg>