<?plantuml 1.2026.2?><svg xmlns="http://www.w3.org/2000/svg" xmlns:xlink="http://www.w3.org/1999/xlink" contentStyleType="text/css" data-diagram-type="CLASS" height="2196px" preserveAspectRatio="none" style="width:1486px;height:2196px;background:#FFFFFF;" version="1.1" viewBox="0 0 1486 2196" width="1486px" zoomAndPan="magnify"><defs/><g><!--cluster Manufacturer_Aggregate--><g class="cluster" data-qualified-name="Manufacturer_Aggregate" data-source-line="8" id="ent0002"><rect fill="none" height="229" rx="2.5" ry="2.5" style="stroke:#000000;stroke-width:1.5;" width="252" x="388" y="1046"/><text fill="#000000" font-family="sans-serif" font-size="20" font-style="italic" lengthAdjust="spacing" textLength="112.3242" x="457.8379" y="1068.7617">&#171;aggregate&#187;</text><text fill="#000000" font-family="sans-serif" font-size="20" font-weight="bold" lengthAdjust="spacing" textLength="236.7188" x="395.6406" y="1093.918">Manufacturer_Aggregate</text></g><!--cluster EngineModel_Aggregate--><g class="cluster" data-qualified-name="EngineModel_Aggregate" data-source-line="15" id="ent0004"><rect fill="none" height="891" rx="2.5" ry="2.5" style="stroke:#000000;stroke-width:1.5;" width="1057.5" x="422.5" y="1299"/><text fill="#000000" font-family="sans-serif" font-size="20" font-style="italic" lengthAdjust="spacing" textLength="112.3242" x="895.0879" y="1321.7617">&#171;aggregate&#187;</text><text fill="#000000" font-family="sans-serif" font-size="20" font-weight="bold" lengthAdjust="spacing" textLength="234.4727" x="834.0137" y="1346.918">EngineModel_Aggregate</text></g><!--cluster AircraftModel_Aggregate--><g class="cluster" data-qualified-name="AircraftModel_Aggregate" data-source-line="52" id="ent0022"><rect fill="none" height="1015" rx="2.5" ry="2.5" style="stroke:#000000;stroke-width:1.5;" width="1468" x="7" y="7"/><text fill="#000000" font-family="sans-serif" font-size="20" font-style="italic" lengthAdjust="spacing" textLength="112.3242" x="684.8379" y="29.7617">&#171;aggregate&#187;</text><text fill="#000000" font-family="sans-serif" font-size="20" font-weight="bold" lengthAdjust="spacing" textLength="238.9355" x="621.5322" y="54.918">AircraftModel_Aggregate</text></g><!--class Manufacturer--><g class="entity" data-qualified-name="Manufacturer_Aggregate.Manufacturer" data-source-line="9" id="ent0003"><rect fill="#F1F1F1" height="143.7813" rx="2.5" ry="2.5" style="stroke:#181818;stroke-width:0.5;" width="151.832" x="438" y="1115"/><ellipse cx="454" cy="1157.7344" fill="#ADD1B2" rx="12" ry="12" style="stroke:#181818;stroke-width:1;"/><path d="M456.1406,1152.6563 Q456.3281,1152.4063 456.5469,1152.2813 Q456.7656,1152.1406 457.0156,1152.1406 Q457.4531,1152.1406 457.7344,1152.4531 Q458.0156,1152.75 458.0156,1153.4688 L458.0156,1155.1719 Q458.0156,1155.8906 457.7344,1156.2031 Q457.4531,1156.5156 457.0156,1156.5156 Q456.625,1156.5156 456.375,1156.2813 Q456.125,1156.0625 456.0156,1155.4531 Q455.9531,1155.0313 455.7344,1154.8125 Q455.3438,1154.375 454.625,1154.1094 Q453.9063,1153.8438 453.1875,1153.8438 Q452.2813,1153.8438 451.5313,1154.2344 Q450.7813,1154.625 450.2031,1155.5156 Q449.625,1156.3906 449.625,1157.5938 L449.625,1158.8906 Q449.625,1160.3438 450.6719,1161.3125 Q451.7344,1162.2813 453.5938,1162.2813 Q454.7031,1162.2813 455.4844,1161.9688 Q455.9219,1161.7969 456.4375,1161.2813 Q456.75,1160.9688 456.9219,1160.875 Q457.0938,1160.7813 457.3281,1160.7813 Q457.7188,1160.7813 458.0156,1161.0938 Q458.3281,1161.3906 458.3281,1161.7969 Q458.3281,1162.2031 457.9219,1162.6719 Q457.3281,1163.3594 456.3906,1163.75 Q455.125,1164.2813 453.6094,1164.2813 Q451.8281,1164.2813 450.4063,1163.5469 Q449.25,1162.9531 448.4375,1161.6875 Q447.625,1160.4219 447.625,1158.9375 L447.625,1157.5781 Q447.625,1156.0156 448.3438,1154.6719 Q449.0781,1153.3125 450.3594,1152.5781 Q451.6563,1151.8438 453.1094,1151.8438 Q453.9688,1151.8438 454.7188,1152.0469 Q455.4844,1152.25 456.1406,1152.6563 Z " fill="#000000"/><text fill="#000000" font-family="sans-serif" font-size="20" font-style="italic" lengthAdjust="spacing" textLength="70.0488" x="492.8916" y="1140.7617">&#171;entity&#187;</text><text fill="#000000" font-family="sans-serif" font-size="20" font-style="italic" lengthAdjust="spacing" textLength="56.709" x="499.5615" y="1165.918">&#171;root&#187;</text><text fill="#000000" font-family="sans-serif" font-size="20" lengthAdjust="spacing" textLength="117.832" x="469" y="1191.0742">Manufacturer</text><line style="stroke:#181818;stroke-width:0.5;" x1="439" x2="588.832" y1="1200.4688" y2="1200.4688"/><text fill="#000000" font-family="sans-serif" font-size="20" lengthAdjust="spacing" textLength="50.0293" x="444" y="1225.2305">name</text><text fill="#000000" font-family="sans-serif" font-size="20" lengthAdjust="spacing" textLength="65.5859" x="444" y="1250.3867">country</text></g><!--class EngineModel--><g class="entity" data-qualified-name="EngineModel_Aggregate.EngineModel" data-source-line="16" id="ent0005"><rect fill="#F1F1F1" height="118.625" rx="2.5" ry="2.5" style="stroke:#181818;stroke-width:0.5;" width="150.748" x="438.5" y="1663.5"/><ellipse cx="454.5" cy="1706.2344" fill="#ADD1B2" rx="12" ry="12" style="stroke:#181818;stroke-width:1;"/><path d="M456.6406,1701.1563 Q456.8281,1700.9063 457.0469,1700.7813 Q457.2656,1700.6406 457.5156,1700.6406 Q457.9531,1700.6406 458.2344,1700.9531 Q458.5156,1701.25 458.5156,1701.9688 L458.5156,1703.6719 Q458.5156,1704.3906 458.2344,1704.7031 Q457.9531,1705.0156 457.5156,1705.0156 Q457.125,1705.0156 456.875,1704.7813 Q456.625,1704.5625 456.5156,1703.9531 Q456.4531,1703.5313 456.2344,1703.3125 Q455.8438,1702.875 455.125,1702.6094 Q454.4063,1702.3438 453.6875,1702.3438 Q452.7813,1702.3438 452.0313,1702.7344 Q451.2813,1703.125 450.7031,1704.0156 Q450.125,1704.8906 450.125,1706.0938 L450.125,1707.3906 Q450.125,1708.8438 451.1719,1709.8125 Q452.2344,1710.7813 454.0938,1710.7813 Q455.2031,1710.7813 455.9844,1710.4688 Q456.4219,1710.2969 456.9375,1709.7813 Q457.25,1709.4688 457.4219,1709.375 Q457.5938,1709.2813 457.8281,1709.2813 Q458.2188,1709.2813 458.5156,1709.5938 Q458.8281,1709.8906 458.8281,1710.2969 Q458.8281,1710.7031 458.4219,1711.1719 Q457.8281,1711.8594 456.8906,1712.25 Q455.625,1712.7813 454.1094,1712.7813 Q452.3281,1712.7813 450.9063,1712.0469 Q449.75,1711.4531 448.9375,1710.1875 Q448.125,1708.9219 448.125,1707.4375 L448.125,1706.0781 Q448.125,1704.5156 448.8438,1703.1719 Q449.5781,1701.8125 450.8594,1701.0781 Q452.1563,1700.3438 453.6094,1700.3438 Q454.4688,1700.3438 455.2188,1700.5469 Q455.9844,1700.75 456.6406,1701.1563 Z " fill="#000000"/><text fill="#000000" font-family="sans-serif" font-size="20" font-style="italic" lengthAdjust="spacing" textLength="70.0488" x="492.8496" y="1689.2617">&#171;entity&#187;</text><text fill="#000000" font-family="sans-serif" font-size="20" font-style="italic" lengthAdjust="spacing" textLength="56.709" x="499.5195" y="1714.418">&#171;root&#187;</text><text fill="#000000" font-family="sans-serif" font-size="20" lengthAdjust="spacing" textLength="116.748" x="469.5" y="1739.5742">EngineModel</text><line style="stroke:#181818;stroke-width:0.5;" x1="439.5" x2="588.248" y1="1748.9688" y2="1748.9688"/><text fill="#000000" font-family="sans-serif" font-size="20" lengthAdjust="spacing" textLength="76.709" x="444.5" y="1773.7305">fuelType</text></g><!--class EngineName--><g class="entity" data-qualified-name="EngineModel_Aggregate.EngineName" data-source-line="19" id="ent0006"><rect fill="#F1F1F1" height="93.4688" rx="2.5" ry="2.5" style="stroke:#181818;stroke-width:0.5;" width="158.9844" x="879" y="2080.5"/><ellipse cx="895" cy="2110.6563" fill="#ADD1B2" rx="12" ry="12" style="stroke:#181818;stroke-width:1;"/><path d="M897.1406,2105.5781 Q897.3281,2105.3281 897.5469,2105.2031 Q897.7656,2105.0625 898.0156,2105.0625 Q898.4531,2105.0625 898.7344,2105.375 Q899.0156,2105.6719 899.0156,2106.3906 L899.0156,2108.0938 Q899.0156,2108.8125 898.7344,2109.125 Q898.4531,2109.4375 898.0156,2109.4375 Q897.625,2109.4375 897.375,2109.2031 Q897.125,2108.9844 897.0156,2108.375 Q896.9531,2107.9531 896.7344,2107.7344 Q896.3438,2107.2969 895.625,2107.0313 Q894.9063,2106.7656 894.1875,2106.7656 Q893.2813,2106.7656 892.5313,2107.1563 Q891.7813,2107.5469 891.2031,2108.4375 Q890.625,2109.3125 890.625,2110.5156 L890.625,2111.8125 Q890.625,2113.2656 891.6719,2114.2344 Q892.7344,2115.2031 894.5938,2115.2031 Q895.7031,2115.2031 896.4844,2114.8906 Q896.9219,2114.7188 897.4375,2114.2031 Q897.75,2113.8906 897.9219,2113.7969 Q898.0938,2113.7031 898.3281,2113.7031 Q898.7188,2113.7031 899.0156,2114.0156 Q899.3281,2114.3125 899.3281,2114.7188 Q899.3281,2115.125 898.9219,2115.5938 Q898.3281,2116.2813 897.3906,2116.6719 Q896.125,2117.2031 894.6094,2117.2031 Q892.8281,2117.2031 891.4063,2116.4688 Q890.25,2115.875 889.4375,2114.6094 Q888.625,2113.3438 888.625,2111.8594 L888.625,2110.5 Q888.625,2108.9375 889.3438,2107.5938 Q890.0781,2106.2344 891.3594,2105.5 Q892.6563,2104.7656 894.1094,2104.7656 Q894.9688,2104.7656 895.7188,2104.9688 Q896.4844,2105.1719 897.1406,2105.5781 Z " fill="#000000"/><text fill="#000000" font-family="sans-serif" font-size="20" font-style="italic" lengthAdjust="spacing" textLength="128.9844" x="908" y="2106.2617">&#171;value object&#187;</text><text fill="#000000" font-family="sans-serif" font-size="20" lengthAdjust="spacing" textLength="115.625" x="914.6797" y="2131.418">EngineName</text><line style="stroke:#181818;stroke-width:0.5;" x1="880" x2="1036.9844" y1="2140.8125" y2="2140.8125"/><text fill="#000000" font-family="sans-serif" font-size="20" lengthAdjust="spacing" textLength="50.0293" x="885" y="2165.5742">name</text></g><g class="entity" data-qualified-name="EngineModel_Aggregate.GMN7" data-source-line="22" id="ent0008"><path d="M1186.5,2097 L1186.5,2123 L1038.22,2127 L1186.5,2131 L1186.5,2157.3125 A0,0 0 0 0 1186.5,2157.3125 L1424.2871,2157.3125 A0,0 0 0 0 1424.2871,2157.3125 L1424.2871,2107 L1414.2871,2097 L1186.5,2097 A0,0 0 0 0 1186.5,2097" fill="#FEFFDD" style="stroke:#181818;stroke-width:0.5;"/><path d="M1414.2871,2097 L1414.2871,2107 L1424.2871,2107 L1414.2871,2097" fill="#FEFFDD" style="stroke:#181818;stroke-width:0.5;"/><text fill="#000000" font-family="sans-serif" font-size="20" lengthAdjust="spacing" textLength="190.6543" x="1192.5" y="2122.7617">name + manufacturer</text><text fill="#000000" font-family="sans-serif" font-size="20" lengthAdjust="spacing" textLength="216.7871" x="1192.5" y="2147.918">must be unique (US056)</text></g><!--class Power--><g class="entity" data-qualified-name="EngineModel_Aggregate.Power" data-source-line="23" id="ent0010"><rect fill="#F1F1F1" height="118.625" rx="2.5" ry="2.5" style="stroke:#181818;stroke-width:0.5;" width="158.9844" x="879" y="1921.5"/><ellipse cx="895" cy="1951.6563" fill="#ADD1B2" rx="12" ry="12" style="stroke:#181818;stroke-width:1;"/><path d="M897.1406,1946.5781 Q897.3281,1946.3281 897.5469,1946.2031 Q897.7656,1946.0625 898.0156,1946.0625 Q898.4531,1946.0625 898.7344,1946.375 Q899.0156,1946.6719 899.0156,1947.3906 L899.0156,1949.0938 Q899.0156,1949.8125 898.7344,1950.125 Q898.4531,1950.4375 898.0156,1950.4375 Q897.625,1950.4375 897.375,1950.2031 Q897.125,1949.9844 897.0156,1949.375 Q896.9531,1948.9531 896.7344,1948.7344 Q896.3438,1948.2969 895.625,1948.0313 Q894.9063,1947.7656 894.1875,1947.7656 Q893.2813,1947.7656 892.5313,1948.1563 Q891.7813,1948.5469 891.2031,1949.4375 Q890.625,1950.3125 890.625,1951.5156 L890.625,1952.8125 Q890.625,1954.2656 891.6719,1955.2344 Q892.7344,1956.2031 894.5938,1956.2031 Q895.7031,1956.2031 896.4844,1955.8906 Q896.9219,1955.7188 897.4375,1955.2031 Q897.75,1954.8906 897.9219,1954.7969 Q898.0938,1954.7031 898.3281,1954.7031 Q898.7188,1954.7031 899.0156,1955.0156 Q899.3281,1955.3125 899.3281,1955.7188 Q899.3281,1956.125 898.9219,1956.5938 Q898.3281,1957.2813 897.3906,1957.6719 Q896.125,1958.2031 894.6094,1958.2031 Q892.8281,1958.2031 891.4063,1957.4688 Q890.25,1956.875 889.4375,1955.6094 Q888.625,1954.3438 888.625,1952.8594 L888.625,1951.5 Q888.625,1949.9375 889.3438,1948.5938 Q890.0781,1947.2344 891.3594,1946.5 Q892.6563,1945.7656 894.1094,1945.7656 Q894.9688,1945.7656 895.7188,1945.9688 Q896.4844,1946.1719 897.1406,1946.5781 Z " fill="#000000"/><text fill="#000000" font-family="sans-serif" font-size="20" font-style="italic" lengthAdjust="spacing" textLength="128.9844" x="908" y="1947.2617">&#171;value object&#187;</text><text fill="#000000" font-family="sans-serif" font-size="20" lengthAdjust="spacing" textLength="56.6895" x="944.1475" y="1972.418">Power</text><line style="stroke:#181818;stroke-width:0.5;" x1="880" x2="1036.9844" y1="1981.8125" y2="1981.8125"/><text fill="#000000" font-family="sans-serif" font-size="20" lengthAdjust="spacing" textLength="47.8125" x="885" y="2006.5742">value</text><text fill="#000000" font-family="sans-serif" font-size="20" lengthAdjust="spacing" textLength="32.2461" x="885" y="2031.7305">unit</text></g><!--class Thrust--><g class="entity" data-qualified-name="EngineModel_Aggregate.Thrust" data-source-line="27" id="ent0011"><rect fill="#F1F1F1" height="143.7813" rx="2.5" ry="2.5" style="stroke:#181818;stroke-width:0.5;" width="158.9844" x="879" y="1737"/><ellipse cx="895" cy="1767.1563" fill="#ADD1B2" rx="12" ry="12" style="stroke:#181818;stroke-width:1;"/><path d="M897.1406,1762.0781 Q897.3281,1761.8281 897.5469,1761.7031 Q897.7656,1761.5625 898.0156,1761.5625 Q898.4531,1761.5625 898.7344,1761.875 Q899.0156,1762.1719 899.0156,1762.8906 L899.0156,1764.5938 Q899.0156,1765.3125 898.7344,1765.625 Q898.4531,1765.9375 898.0156,1765.9375 Q897.625,1765.9375 897.375,1765.7031 Q897.125,1765.4844 897.0156,1764.875 Q896.9531,1764.4531 896.7344,1764.2344 Q896.3438,1763.7969 895.625,1763.5313 Q894.9063,1763.2656 894.1875,1763.2656 Q893.2813,1763.2656 892.5313,1763.6563 Q891.7813,1764.0469 891.2031,1764.9375 Q890.625,1765.8125 890.625,1767.0156 L890.625,1768.3125 Q890.625,1769.7656 891.6719,1770.7344 Q892.7344,1771.7031 894.5938,1771.7031 Q895.7031,1771.7031 896.4844,1771.3906 Q896.9219,1771.2188 897.4375,1770.7031 Q897.75,1770.3906 897.9219,1770.2969 Q898.0938,1770.2031 898.3281,1770.2031 Q898.7188,1770.2031 899.0156,1770.5156 Q899.3281,1770.8125 899.3281,1771.2188 Q899.3281,1771.625 898.9219,1772.0938 Q898.3281,1772.7813 897.3906,1773.1719 Q896.125,1773.7031 894.6094,1773.7031 Q892.8281,1773.7031 891.4063,1772.9688 Q890.25,1772.375 889.4375,1771.1094 Q888.625,1769.8438 888.625,1768.3594 L888.625,1767 Q888.625,1765.4375 889.3438,1764.0938 Q890.0781,1762.7344 891.3594,1762 Q892.6563,1761.2656 894.1094,1761.2656 Q894.9688,1761.2656 895.7188,1761.4688 Q896.4844,1761.6719 897.1406,1762.0781 Z " fill="#000000"/><text fill="#000000" font-family="sans-serif" font-size="20" font-style="italic" lengthAdjust="spacing" textLength="128.9844" x="908" y="1762.7617">&#171;value object&#187;</text><text fill="#000000" font-family="sans-serif" font-size="20" lengthAdjust="spacing" textLength="56.6797" x="944.1523" y="1787.918">Thrust</text><line style="stroke:#181818;stroke-width:0.5;" x1="880" x2="1036.9844" y1="1797.3125" y2="1797.3125"/><text fill="#000000" font-family="sans-serif" font-size="20" lengthAdjust="spacing" textLength="47.8125" x="885" y="1822.0742">value</text><text fill="#000000" font-family="sans-serif" font-size="20" lengthAdjust="spacing" textLength="32.2461" x="885" y="1847.2305">unit</text><text fill="#000000" font-family="sans-serif" font-size="20" lengthAdjust="spacing" textLength="146.7676" x="885" y="1872.3867">speedReference</text></g><g class="entity" data-qualified-name="EngineModel_Aggregate.GMN12" data-source-line="32" id="ent0013"><path d="M1147,1766.5 L1147,1805 L1038.22,1809 L1147,1813 L1147,1851.9688 A0,0 0 0 0 1147,1851.9688 L1463.6836,1851.9688 A0,0 0 0 0 1463.6836,1851.9688 L1463.6836,1776.5 L1453.6836,1766.5 L1147,1766.5 A0,0 0 0 0 1147,1766.5" fill="#FEFFDD" style="stroke:#181818;stroke-width:0.5;"/><path d="M1453.6836,1766.5 L1453.6836,1776.5 L1463.6836,1776.5 L1453.6836,1766.5" fill="#FEFFDD" style="stroke:#181818;stroke-width:0.5;"/><text fill="#000000" font-family="sans-serif" font-size="20" lengthAdjust="spacing" textLength="221.2305" x="1153" y="1792.2617">Manufacturer-supplied at</text><text fill="#000000" font-family="sans-serif" font-size="20" lengthAdjust="spacing" textLength="210.1172" x="1153" y="1817.418">static and cruise speed.</text><text fill="#000000" font-family="sans-serif" font-size="20" lengthAdjust="spacing" textLength="295.6836" x="1153" y="1842.5742">Decreases with altitude (sec. 3.3)</text></g><!--class TSFC--><g class="entity" data-qualified-name="EngineModel_Aggregate.TSFC" data-source-line="33" id="ent0015"><rect fill="#F1F1F1" height="118.625" rx="2.5" ry="2.5" style="stroke:#181818;stroke-width:0.5;" width="158.9844" x="879" y="1577.5"/><ellipse cx="895" cy="1607.6563" fill="#ADD1B2" rx="12" ry="12" style="stroke:#181818;stroke-width:1;"/><path d="M897.1406,1602.5781 Q897.3281,1602.3281 897.5469,1602.2031 Q897.7656,1602.0625 898.0156,1602.0625 Q898.4531,1602.0625 898.7344,1602.375 Q899.0156,1602.6719 899.0156,1603.3906 L899.0156,1605.0938 Q899.0156,1605.8125 898.7344,1606.125 Q898.4531,1606.4375 898.0156,1606.4375 Q897.625,1606.4375 897.375,1606.2031 Q897.125,1605.9844 897.0156,1605.375 Q896.9531,1604.9531 896.7344,1604.7344 Q896.3438,1604.2969 895.625,1604.0313 Q894.9063,1603.7656 894.1875,1603.7656 Q893.2813,1603.7656 892.5313,1604.1563 Q891.7813,1604.5469 891.2031,1605.4375 Q890.625,1606.3125 890.625,1607.5156 L890.625,1608.8125 Q890.625,1610.2656 891.6719,1611.2344 Q892.7344,1612.2031 894.5938,1612.2031 Q895.7031,1612.2031 896.4844,1611.8906 Q896.9219,1611.7188 897.4375,1611.2031 Q897.75,1610.8906 897.9219,1610.7969 Q898.0938,1610.7031 898.3281,1610.7031 Q898.7188,1610.7031 899.0156,1611.0156 Q899.3281,1611.3125 899.3281,1611.7188 Q899.3281,1612.125 898.9219,1612.5938 Q898.3281,1613.2813 897.3906,1613.6719 Q896.125,1614.2031 894.6094,1614.2031 Q892.8281,1614.2031 891.4063,1613.4688 Q890.25,1612.875 889.4375,1611.6094 Q888.625,1610.3438 888.625,1608.8594 L888.625,1607.5 Q888.625,1605.9375 889.3438,1604.5938 Q890.0781,1603.2344 891.3594,1602.5 Q892.6563,1601.7656 894.1094,1601.7656 Q894.9688,1601.7656 895.7188,1601.9688 Q896.4844,1602.1719 897.1406,1602.5781 Z " fill="#000000"/><text fill="#000000" font-family="sans-serif" font-size="20" font-style="italic" lengthAdjust="spacing" textLength="128.9844" x="908" y="1603.2617">&#171;value object&#187;</text><text fill="#000000" font-family="sans-serif" font-size="20" lengthAdjust="spacing" textLength="52.2168" x="946.3838" y="1628.418">TSFC</text><line style="stroke:#181818;stroke-width:0.5;" x1="880" x2="1036.9844" y1="1637.8125" y2="1637.8125"/><text fill="#000000" font-family="sans-serif" font-size="20" lengthAdjust="spacing" textLength="47.8125" x="885" y="1662.5742">value</text><text fill="#000000" font-family="sans-serif" font-size="20" lengthAdjust="spacing" textLength="32.2461" x="885" y="1687.7305">unit</text></g><!--class MotorizationType--><g class="entity" data-qualified-name="EngineModel_Aggregate.MotorizationType" data-source-line="37" id="ent0016"><rect fill="#F1F1F1" height="168.9375" rx="2.5" ry="2.5" style="stroke:#181818;stroke-width:0.5;" width="187.3984" x="865" y="1368.5"/><ellipse cx="881" cy="1386.0781" fill="#EB937F" rx="12" ry="12" style="stroke:#181818;stroke-width:1;"/><path d="M878.9531,1387.1406 L878.9531,1390.0781 L884.0469,1390.0781 L884.0469,1388.9844 Q884.0469,1388.2656 884.3281,1387.9688 Q884.6094,1387.6563 885.0625,1387.6563 Q885.5,1387.6563 885.7813,1387.9688 Q886.0625,1388.2656 886.0625,1388.9844 L886.0625,1392.0781 L876.625,1392.0781 Q875.9063,1392.0781 875.5938,1391.7969 Q875.2969,1391.5156 875.2969,1391.0781 Q875.2969,1390.625 875.6094,1390.3594 Q875.9219,1390.0781 876.625,1390.0781 L876.9375,1390.0781 L876.9375,1382.25 L876.625,1382.25 Q875.9063,1382.25 875.5938,1381.9688 Q875.2969,1381.6875 875.2969,1381.2344 Q875.2969,1380.7813 875.5938,1380.5156 Q875.9063,1380.2344 876.625,1380.2344 L885.6094,1380.2344 L885.6094,1383.2813 Q885.6094,1384 885.3281,1384.3125 Q885.0625,1384.6094 884.625,1384.6094 Q884.1719,1384.6094 883.8906,1384.3125 Q883.6094,1384.0156 883.6094,1383.2813 L883.6094,1382.25 L878.9531,1382.25 L878.9531,1385.1406 L880.7031,1385.1406 Q880.7031,1384.3594 880.8438,1384.125 Q881.1563,1383.6563 881.7031,1383.6563 Q882.1563,1383.6563 882.4219,1383.9688 Q882.7031,1384.2656 882.7031,1384.9844 L882.7031,1387.2969 Q882.7031,1387.9531 882.5469,1388.1719 Q882.2344,1388.625 881.7031,1388.625 Q881.1563,1388.625 880.8438,1388.1563 Q880.7031,1387.9219 880.7031,1387.1406 L878.9531,1387.1406 Z " fill="#000000"/><text fill="#000000" font-family="sans-serif" font-size="20" lengthAdjust="spacing" textLength="153.3984" x="896" y="1394.2617">MotorizationType</text><line style="stroke:#181818;stroke-width:0.5;" x1="866" x2="1051.3984" y1="1403.6563" y2="1403.6563"/><text fill="#000000" font-family="sans-serif" font-size="20" lengthAdjust="spacing" textLength="85.6152" x="871" y="1428.418">turboprop</text><text fill="#000000" font-family="sans-serif" font-size="20" lengthAdjust="spacing" textLength="73.3887" x="871" y="1453.5742">turbofan</text><text fill="#000000" font-family="sans-serif" font-size="20" lengthAdjust="spacing" textLength="66.709" x="871" y="1478.7305">turbojet</text><text fill="#000000" font-family="sans-serif" font-size="20" lengthAdjust="spacing" textLength="55.5664" x="871" y="1503.8867">ramjet</text><text fill="#000000" font-family="sans-serif" font-size="20" lengthAdjust="spacing" textLength="143.3887" x="871" y="1529.043">electricPropeller</text></g><!--class AircraftModel--><g class="entity" data-qualified-name="AircraftModel_Aggregate.AircraftModel" data-source-line="53" id="ent0023"><rect fill="#F1F1F1" height="85.4688" rx="2.5" ry="2.5" style="stroke:#181818;stroke-width:0.5;" width="151.8125" x="23" y="586.5"/><ellipse cx="39" cy="629.2344" fill="#ADD1B2" rx="12" ry="12" style="stroke:#181818;stroke-width:1;"/><path d="M41.1406,624.1563 Q41.3281,623.9063 41.5469,623.7813 Q41.7656,623.6406 42.0156,623.6406 Q42.4531,623.6406 42.7344,623.9531 Q43.0156,624.25 43.0156,624.9688 L43.0156,626.6719 Q43.0156,627.3906 42.7344,627.7031 Q42.4531,628.0156 42.0156,628.0156 Q41.625,628.0156 41.375,627.7813 Q41.125,627.5625 41.0156,626.9531 Q40.9531,626.5313 40.7344,626.3125 Q40.3438,625.875 39.625,625.6094 Q38.9063,625.3438 38.1875,625.3438 Q37.2813,625.3438 36.5313,625.7344 Q35.7813,626.125 35.2031,627.0156 Q34.625,627.8906 34.625,629.0938 L34.625,630.3906 Q34.625,631.8438 35.6719,632.8125 Q36.7344,633.7813 38.5938,633.7813 Q39.7031,633.7813 40.4844,633.4688 Q40.9219,633.2969 41.4375,632.7813 Q41.75,632.4688 41.9219,632.375 Q42.0938,632.2813 42.3281,632.2813 Q42.7188,632.2813 43.0156,632.5938 Q43.3281,632.8906 43.3281,633.2969 Q43.3281,633.7031 42.9219,634.1719 Q42.3281,634.8594 41.3906,635.25 Q40.125,635.7813 38.6094,635.7813 Q36.8281,635.7813 35.4063,635.0469 Q34.25,634.4531 33.4375,633.1875 Q32.625,631.9219 32.625,630.4375 L32.625,629.0781 Q32.625,627.5156 33.3438,626.1719 Q34.0781,624.8125 35.3594,624.0781 Q36.6563,623.3438 38.1094,623.3438 Q38.9688,623.3438 39.7188,623.5469 Q40.4844,623.75 41.1406,624.1563 Z " fill="#000000"/><text fill="#000000" font-family="sans-serif" font-size="20" font-style="italic" lengthAdjust="spacing" textLength="70.0488" x="77.8818" y="612.2617">&#171;entity&#187;</text><text fill="#000000" font-family="sans-serif" font-size="20" font-style="italic" lengthAdjust="spacing" textLength="56.709" x="84.5518" y="637.418">&#171;root&#187;</text><text fill="#000000" font-family="sans-serif" font-size="20" lengthAdjust="spacing" textLength="117.8125" x="54" y="662.5742">AircraftModel</text></g><!--class ModelID--><g class="entity" data-qualified-name="AircraftModel_Aggregate.ModelID" data-source-line="55" id="ent0024"><rect fill="#F1F1F1" height="93.4688" rx="2.5" ry="2.5" style="stroke:#181818;stroke-width:0.5;" width="158.9844" x="879" y="912.5"/><ellipse cx="895" cy="942.6563" fill="#ADD1B2" rx="12" ry="12" style="stroke:#181818;stroke-width:1;"/><path d="M897.1406,937.5781 Q897.3281,937.3281 897.5469,937.2031 Q897.7656,937.0625 898.0156,937.0625 Q898.4531,937.0625 898.7344,937.375 Q899.0156,937.6719 899.0156,938.3906 L899.0156,940.0938 Q899.0156,940.8125 898.7344,941.125 Q898.4531,941.4375 898.0156,941.4375 Q897.625,941.4375 897.375,941.2031 Q897.125,940.9844 897.0156,940.375 Q896.9531,939.9531 896.7344,939.7344 Q896.3438,939.2969 895.625,939.0313 Q894.9063,938.7656 894.1875,938.7656 Q893.2813,938.7656 892.5313,939.1563 Q891.7813,939.5469 891.2031,940.4375 Q890.625,941.3125 890.625,942.5156 L890.625,943.8125 Q890.625,945.2656 891.6719,946.2344 Q892.7344,947.2031 894.5938,947.2031 Q895.7031,947.2031 896.4844,946.8906 Q896.9219,946.7188 897.4375,946.2031 Q897.75,945.8906 897.9219,945.7969 Q898.0938,945.7031 898.3281,945.7031 Q898.7188,945.7031 899.0156,946.0156 Q899.3281,946.3125 899.3281,946.7188 Q899.3281,947.125 898.9219,947.5938 Q898.3281,948.2813 897.3906,948.6719 Q896.125,949.2031 894.6094,949.2031 Q892.8281,949.2031 891.4063,948.4688 Q890.25,947.875 889.4375,946.6094 Q888.625,945.3438 888.625,943.8594 L888.625,942.5 Q888.625,940.9375 889.3438,939.5938 Q890.0781,938.2344 891.3594,937.5 Q892.6563,936.7656 894.1094,936.7656 Q894.9688,936.7656 895.7188,936.9688 Q896.4844,937.1719 897.1406,937.5781 Z " fill="#000000"/><text fill="#000000" font-family="sans-serif" font-size="20" font-style="italic" lengthAdjust="spacing" textLength="128.9844" x="908" y="938.2617">&#171;value object&#187;</text><text fill="#000000" font-family="sans-serif" font-size="20" lengthAdjust="spacing" textLength="74.4727" x="935.2559" y="963.418">ModelID</text><line style="stroke:#181818;stroke-width:0.5;" x1="880" x2="1036.9844" y1="972.8125" y2="972.8125"/><text fill="#000000" font-family="sans-serif" font-size="20" lengthAdjust="spacing" textLength="15.5664" x="885" y="997.5742">id</text></g><g class="entity" data-qualified-name="AircraftModel_Aggregate.GMN25" data-source-line="58" id="ent0026"><path d="M1186.5,929 L1186.5,955 L1038.22,959 L1186.5,963 L1186.5,989.3125 A0,0 0 0 0 1186.5,989.3125 L1424.2871,989.3125 A0,0 0 0 0 1424.2871,989.3125 L1424.2871,939 L1414.2871,929 L1186.5,929 A0,0 0 0 0 1186.5,929" fill="#FEFFDD" style="stroke:#181818;stroke-width:0.5;"/><path d="M1414.2871,929 L1414.2871,939 L1424.2871,939 L1414.2871,929" fill="#FEFFDD" style="stroke:#181818;stroke-width:0.5;"/><text fill="#000000" font-family="sans-serif" font-size="20" lengthAdjust="spacing" textLength="190.6543" x="1192.5" y="954.7617">name + manufacturer</text><text fill="#000000" font-family="sans-serif" font-size="20" lengthAdjust="spacing" textLength="216.7871" x="1192.5" y="979.918">must be unique (US055)</text></g><!--class AircraftType--><g class="entity" data-qualified-name="AircraftModel_Aggregate.AircraftType" data-source-line="59" id="ent0028"><rect fill="#F1F1F1" height="118.625" rx="2.5" ry="2.5" style="stroke:#181818;stroke-width:0.5;" width="141.8027" x="887.5" y="753.5"/><ellipse cx="903.5" cy="771.0781" fill="#EB937F" rx="12" ry="12" style="stroke:#181818;stroke-width:1;"/><path d="M901.4531,772.1406 L901.4531,775.0781 L906.5469,775.0781 L906.5469,773.9844 Q906.5469,773.2656 906.8281,772.9688 Q907.1094,772.6563 907.5625,772.6563 Q908,772.6563 908.2813,772.9688 Q908.5625,773.2656 908.5625,773.9844 L908.5625,777.0781 L899.125,777.0781 Q898.4063,777.0781 898.0938,776.7969 Q897.7969,776.5156 897.7969,776.0781 Q897.7969,775.625 898.1094,775.3594 Q898.4219,775.0781 899.125,775.0781 L899.4375,775.0781 L899.4375,767.25 L899.125,767.25 Q898.4063,767.25 898.0938,766.9688 Q897.7969,766.6875 897.7969,766.2344 Q897.7969,765.7813 898.0938,765.5156 Q898.4063,765.2344 899.125,765.2344 L908.1094,765.2344 L908.1094,768.2813 Q908.1094,769 907.8281,769.3125 Q907.5625,769.6094 907.125,769.6094 Q906.6719,769.6094 906.3906,769.3125 Q906.1094,769.0156 906.1094,768.2813 L906.1094,767.25 L901.4531,767.25 L901.4531,770.1406 L903.2031,770.1406 Q903.2031,769.3594 903.3438,769.125 Q903.6563,768.6563 904.2031,768.6563 Q904.6563,768.6563 904.9219,768.9688 Q905.2031,769.2656 905.2031,769.9844 L905.2031,772.2969 Q905.2031,772.9531 905.0469,773.1719 Q904.7344,773.625 904.2031,773.625 Q903.6563,773.625 903.3438,773.1563 Q903.2031,772.9219 903.2031,772.1406 L901.4531,772.1406 Z " fill="#000000"/><text fill="#000000" font-family="sans-serif" font-size="20" lengthAdjust="spacing" textLength="107.8027" x="918.5" y="779.2617">AircraftType</text><line style="stroke:#181818;stroke-width:0.5;" x1="888.5" x2="1028.3027" y1="788.6563" y2="788.6563"/><text fill="#000000" font-family="sans-serif" font-size="20" lengthAdjust="spacing" textLength="93.3984" x="893.5" y="813.418">passenger</text><text fill="#000000" font-family="sans-serif" font-size="20" lengthAdjust="spacing" textLength="50.0293" x="893.5" y="838.5742">cargo</text><text fill="#000000" font-family="sans-serif" font-size="20" lengthAdjust="spacing" textLength="53.3496" x="893.5" y="863.7305">mixed</text></g><!--class AircraftWeights--><g class="entity" data-qualified-name="AircraftModel_Aggregate.AircraftWeights" data-source-line="64" id="ent0029"><rect fill="#F1F1F1" height="168.9375" rx="2.5" ry="2.5" style="stroke:#181818;stroke-width:0.5;" width="169.5859" x="873.5" y="544.5"/><ellipse cx="889.5" cy="574.6563" fill="#ADD1B2" rx="12" ry="12" style="stroke:#181818;stroke-width:1;"/><path d="M891.6406,569.5781 Q891.8281,569.3281 892.0469,569.2031 Q892.2656,569.0625 892.5156,569.0625 Q892.9531,569.0625 893.2344,569.375 Q893.5156,569.6719 893.5156,570.3906 L893.5156,572.0938 Q893.5156,572.8125 893.2344,573.125 Q892.9531,573.4375 892.5156,573.4375 Q892.125,573.4375 891.875,573.2031 Q891.625,572.9844 891.5156,572.375 Q891.4531,571.9531 891.2344,571.7344 Q890.8438,571.2969 890.125,571.0313 Q889.4063,570.7656 888.6875,570.7656 Q887.7813,570.7656 887.0313,571.1563 Q886.2813,571.5469 885.7031,572.4375 Q885.125,573.3125 885.125,574.5156 L885.125,575.8125 Q885.125,577.2656 886.1719,578.2344 Q887.2344,579.2031 889.0938,579.2031 Q890.2031,579.2031 890.9844,578.8906 Q891.4219,578.7188 891.9375,578.2031 Q892.25,577.8906 892.4219,577.7969 Q892.5938,577.7031 892.8281,577.7031 Q893.2188,577.7031 893.5156,578.0156 Q893.8281,578.3125 893.8281,578.7188 Q893.8281,579.125 893.4219,579.5938 Q892.8281,580.2813 891.8906,580.6719 Q890.625,581.2031 889.1094,581.2031 Q887.3281,581.2031 885.9063,580.4688 Q884.75,579.875 883.9375,578.6094 Q883.125,577.3438 883.125,575.8594 L883.125,574.5 Q883.125,572.9375 883.8438,571.5938 Q884.5781,570.2344 885.8594,569.5 Q887.1563,568.7656 888.6094,568.7656 Q889.4688,568.7656 890.2188,568.9688 Q890.9844,569.1719 891.6406,569.5781 Z " fill="#000000"/><text fill="#000000" font-family="sans-serif" font-size="20" font-style="italic" lengthAdjust="spacing" textLength="128.9844" x="907.8008" y="570.2617">&#171;value object&#187;</text><text fill="#000000" font-family="sans-serif" font-size="20" lengthAdjust="spacing" textLength="135.5859" x="904.5" y="595.418">AircraftWeights</text><line style="stroke:#181818;stroke-width:0.5;" x1="874.5" x2="1042.0859" y1="604.8125" y2="604.8125"/><text fill="#000000" font-family="sans-serif" font-size="20" lengthAdjust="spacing" textLength="116.709" x="879.5" y="629.5742">emptyWeight</text><text fill="#000000" font-family="sans-serif" font-size="20" lengthAdjust="spacing" textLength="63.3105" x="879.5" y="654.7305">MTOW</text><text fill="#000000" font-family="sans-serif" font-size="20" lengthAdjust="spacing" textLength="59.9707" x="879.5" y="679.8867">MZFW</text><text fill="#000000" font-family="sans-serif" font-size="20" lengthAdjust="spacing" textLength="154.502" x="879.5" y="705.043">maxFuelCapacity</text></g><g class="entity" data-qualified-name="AircraftModel_Aggregate.GMN30" data-source-line="70" id="ent0031"><path d="M1152,586.5 L1152,625 L1043.9,629 L1152,633 L1152,671.9688 A0,0 0 0 0 1152,671.9688 L1458.5762,671.9688 A0,0 0 0 0 1458.5762,671.9688 L1458.5762,596.5 L1448.5762,586.5 L1152,586.5 A0,0 0 0 0 1152,586.5" fill="#FEFFDD" style="stroke:#181818;stroke-width:0.5;"/><path d="M1448.5762,586.5 L1448.5762,596.5 L1458.5762,596.5 L1448.5762,586.5" fill="#FEFFDD" style="stroke:#181818;stroke-width:0.5;"/><text fill="#000000" font-family="sans-serif" font-size="20" lengthAdjust="spacing" textLength="82.2656" x="1158" y="612.2617">Invariant:</text><text fill="#000000" font-family="sans-serif" font-size="20" lengthAdjust="spacing" textLength="285.5762" x="1158" y="637.418">MTOW &gt; MZFW &gt; emptyWeight</text><text fill="#000000" font-family="sans-serif" font-size="20" lengthAdjust="spacing" textLength="247.8809" x="1158" y="662.5742">All values positive (sec. 3.2)</text></g><!--class AircraftPerformance--><g class="entity" data-qualified-name="AircraftModel_Aggregate.AircraftPerformance" data-source-line="71" id="ent0033"><rect fill="#F1F1F1" height="143.7813" rx="2.5" ry="2.5" style="stroke:#181818;stroke-width:0.5;" width="211.832" x="852.5" y="360"/><ellipse cx="868.5" cy="390.1563" fill="#ADD1B2" rx="12" ry="12" style="stroke:#181818;stroke-width:1;"/><path d="M870.6406,385.0781 Q870.8281,384.8281 871.0469,384.7031 Q871.2656,384.5625 871.5156,384.5625 Q871.9531,384.5625 872.2344,384.875 Q872.5156,385.1719 872.5156,385.8906 L872.5156,387.5938 Q872.5156,388.3125 872.2344,388.625 Q871.9531,388.9375 871.5156,388.9375 Q871.125,388.9375 870.875,388.7031 Q870.625,388.4844 870.5156,387.875 Q870.4531,387.4531 870.2344,387.2344 Q869.8438,386.7969 869.125,386.5313 Q868.4063,386.2656 867.6875,386.2656 Q866.7813,386.2656 866.0313,386.6563 Q865.2813,387.0469 864.7031,387.9375 Q864.125,388.8125 864.125,390.0156 L864.125,391.3125 Q864.125,392.7656 865.1719,393.7344 Q866.2344,394.7031 868.0938,394.7031 Q869.2031,394.7031 869.9844,394.3906 Q870.4219,394.2188 870.9375,393.7031 Q871.25,393.3906 871.4219,393.2969 Q871.5938,393.2031 871.8281,393.2031 Q872.2188,393.2031 872.5156,393.5156 Q872.8281,393.8125 872.8281,394.2188 Q872.8281,394.625 872.4219,395.0938 Q871.8281,395.7813 870.8906,396.1719 Q869.625,396.7031 868.1094,396.7031 Q866.3281,396.7031 864.9063,395.9688 Q863.75,395.375 862.9375,394.1094 Q862.125,392.8438 862.125,391.3594 L862.125,390 Q862.125,388.4375 862.8438,387.0938 Q863.5781,385.7344 864.8594,385 Q866.1563,384.2656 867.6094,384.2656 Q868.4688,384.2656 869.2188,384.4688 Q869.9844,384.6719 870.6406,385.0781 Z " fill="#000000"/><text fill="#000000" font-family="sans-serif" font-size="20" font-style="italic" lengthAdjust="spacing" textLength="128.9844" x="907.9238" y="385.7617">&#171;value object&#187;</text><text fill="#000000" font-family="sans-serif" font-size="20" lengthAdjust="spacing" textLength="177.832" x="883.5" y="410.918">AircraftPerformance</text><line style="stroke:#181818;stroke-width:0.5;" x1="853.5" x2="1063.332" y1="420.3125" y2="420.3125"/><text fill="#000000" font-family="sans-serif" font-size="20" lengthAdjust="spacing" textLength="124.4922" x="858.5" y="445.0742">serviceCeiling</text><text fill="#000000" font-family="sans-serif" font-size="20" lengthAdjust="spacing" textLength="111.1816" x="858.5" y="470.2305">cruiseSpeed</text><text fill="#000000" font-family="sans-serif" font-size="20" lengthAdjust="spacing" textLength="145.6055" x="858.5" y="495.3867">maximumRange</text></g><g class="entity" data-qualified-name="AircraftModel_Aggregate.GMN34" data-source-line="76" id="ent0035"><path d="M1159,402 L1159,428 L1064.89,432 L1159,436 L1159,462.3125 A0,0 0 0 0 1159,462.3125 L1452.373,462.3125 A0,0 0 0 0 1452.373,462.3125 L1452.373,412 L1442.373,402 L1159,402 A0,0 0 0 0 1159,402" fill="#FEFFDD" style="stroke:#181818;stroke-width:0.5;"/><path d="M1442.373,402 L1442.373,412 L1452.373,412 L1442.373,402" fill="#FEFFDD" style="stroke:#181818;stroke-width:0.5;"/><text fill="#000000" font-family="sans-serif" font-size="20" lengthAdjust="spacing" textLength="242.3633" x="1165" y="427.7617">Each value has its own unit</text><text fill="#000000" font-family="sans-serif" font-size="20" lengthAdjust="spacing" textLength="272.373" x="1165" y="452.918">defined at implementation time</text></g><!--class AerodynamicCoefficients--><g class="entity" data-qualified-name="AircraftModel_Aggregate.AerodynamicCoefficients" data-source-line="78" id="ent0037"><rect fill="#F1F1F1" height="143.7813" rx="2.5" ry="2.5" style="stroke:#181818;stroke-width:0.5;" width="255.2109" x="831" y="176"/><ellipse cx="847" cy="206.1563" fill="#ADD1B2" rx="12" ry="12" style="stroke:#181818;stroke-width:1;"/><path d="M849.1406,201.0781 Q849.3281,200.8281 849.5469,200.7031 Q849.7656,200.5625 850.0156,200.5625 Q850.4531,200.5625 850.7344,200.875 Q851.0156,201.1719 851.0156,201.8906 L851.0156,203.5938 Q851.0156,204.3125 850.7344,204.625 Q850.4531,204.9375 850.0156,204.9375 Q849.625,204.9375 849.375,204.7031 Q849.125,204.4844 849.0156,203.875 Q848.9531,203.4531 848.7344,203.2344 Q848.3438,202.7969 847.625,202.5313 Q846.9063,202.2656 846.1875,202.2656 Q845.2813,202.2656 844.5313,202.6563 Q843.7813,203.0469 843.2031,203.9375 Q842.625,204.8125 842.625,206.0156 L842.625,207.3125 Q842.625,208.7656 843.6719,209.7344 Q844.7344,210.7031 846.5938,210.7031 Q847.7031,210.7031 848.4844,210.3906 Q848.9219,210.2188 849.4375,209.7031 Q849.75,209.3906 849.9219,209.2969 Q850.0938,209.2031 850.3281,209.2031 Q850.7188,209.2031 851.0156,209.5156 Q851.3281,209.8125 851.3281,210.2188 Q851.3281,210.625 850.9219,211.0938 Q850.3281,211.7813 849.3906,212.1719 Q848.125,212.7031 846.6094,212.7031 Q844.8281,212.7031 843.4063,211.9688 Q842.25,211.375 841.4375,210.1094 Q840.625,208.8438 840.625,207.3594 L840.625,206 Q840.625,204.4375 841.3438,203.0938 Q842.0781,201.7344 843.3594,201 Q844.6563,200.2656 846.1094,200.2656 Q846.9688,200.2656 847.7188,200.4688 Q848.4844,200.6719 849.1406,201.0781 Z " fill="#000000"/><text fill="#000000" font-family="sans-serif" font-size="20" font-style="italic" lengthAdjust="spacing" textLength="128.9844" x="908.1133" y="201.7617">&#171;value object&#187;</text><text fill="#000000" font-family="sans-serif" font-size="20" lengthAdjust="spacing" textLength="221.2109" x="862" y="226.918">AerodynamicCoefficients</text><line style="stroke:#181818;stroke-width:0.5;" x1="832" x2="1085.2109" y1="236.3125" y2="236.3125"/><text fill="#000000" font-family="sans-serif" font-size="20" lengthAdjust="spacing" textLength="83.3789" x="837" y="261.0742">wingArea</text><text fill="#000000" font-family="sans-serif" font-size="20" lengthAdjust="spacing" textLength="134.5215" x="837" y="286.2305">dragCoefficient</text><text fill="#000000" font-family="sans-serif" font-size="20" lengthAdjust="spacing" textLength="114.4922" x="837" y="311.3867">liftCoefficient</text></g><g class="entity" data-qualified-name="AircraftModel_Aggregate.GMN38" data-source-line="83" id="ent0039"><path d="M1212,218 L1212,244 L1086.01,248 L1212,252 L1212,278.3125 A0,0 0 0 0 1212,278.3125 L1398.6055,278.3125 A0,0 0 0 0 1398.6055,278.3125 L1398.6055,228 L1388.6055,218 L1212,218 A0,0 0 0 0 1212,218" fill="#FEFFDD" style="stroke:#181818;stroke-width:0.5;"/><path d="M1388.6055,218 L1388.6055,228 L1398.6055,228 L1388.6055,218" fill="#FEFFDD" style="stroke:#181818;stroke-width:0.5;"/><text fill="#000000" font-family="sans-serif" font-size="20" lengthAdjust="spacing" textLength="138.9551" x="1218" y="243.7617">Used in lift/drag</text><text fill="#000000" font-family="sans-serif" font-size="20" lengthAdjust="spacing" textLength="165.6055" x="1218" y="268.918">formulas (sec. 3.3)</text></g><!--class AircraftVariant--><g class="entity" data-qualified-name="AircraftModel_Aggregate.AircraftVariant" data-source-line="84" id="ent0041"><rect fill="#F1F1F1" height="60.3125" rx="2.5" ry="2.5" style="stroke:#181818;stroke-width:0.5;" width="160.709" x="878" y="76"/><ellipse cx="894" cy="106.1563" fill="#ADD1B2" rx="12" ry="12" style="stroke:#181818;stroke-width:1;"/><path d="M896.1406,101.0781 Q896.3281,100.8281 896.5469,100.7031 Q896.7656,100.5625 897.0156,100.5625 Q897.4531,100.5625 897.7344,100.875 Q898.0156,101.1719 898.0156,101.8906 L898.0156,103.5938 Q898.0156,104.3125 897.7344,104.625 Q897.4531,104.9375 897.0156,104.9375 Q896.625,104.9375 896.375,104.7031 Q896.125,104.4844 896.0156,103.875 Q895.9531,103.4531 895.7344,103.2344 Q895.3438,102.7969 894.625,102.5313 Q893.9063,102.2656 893.1875,102.2656 Q892.2813,102.2656 891.5313,102.6563 Q890.7813,103.0469 890.2031,103.9375 Q889.625,104.8125 889.625,106.0156 L889.625,107.3125 Q889.625,108.7656 890.6719,109.7344 Q891.7344,110.7031 893.5938,110.7031 Q894.7031,110.7031 895.4844,110.3906 Q895.9219,110.2188 896.4375,109.7031 Q896.75,109.3906 896.9219,109.2969 Q897.0938,109.2031 897.3281,109.2031 Q897.7188,109.2031 898.0156,109.5156 Q898.3281,109.8125 898.3281,110.2188 Q898.3281,110.625 897.9219,111.0938 Q897.3281,111.7813 896.3906,112.1719 Q895.125,112.7031 893.6094,112.7031 Q891.8281,112.7031 890.4063,111.9688 Q889.25,111.375 888.4375,110.1094 Q887.625,108.8438 887.625,107.3594 L887.625,106 Q887.625,104.4375 888.3438,103.0938 Q889.0781,101.7344 890.3594,101 Q891.6563,100.2656 893.1094,100.2656 Q893.9688,100.2656 894.7188,100.4688 Q895.4844,100.6719 896.1406,101.0781 Z " fill="#000000"/><text fill="#000000" font-family="sans-serif" font-size="20" font-style="italic" lengthAdjust="spacing" textLength="70.0488" x="937.3301" y="101.7617">&#171;entity&#187;</text><text fill="#000000" font-family="sans-serif" font-size="20" lengthAdjust="spacing" textLength="126.709" x="909" y="126.918">AircraftVariant</text></g><g class="entity" data-qualified-name="AircraftModel_Aggregate.GMN42" data-source-line="86" id="ent0043"><path d="M1152,76 L1152,102 L1039.08,106 L1152,110 L1152,136.3125 A0,0 0 0 0 1152,136.3125 L1459.1914,136.3125 A0,0 0 0 0 1459.1914,136.3125 L1459.1914,86 L1449.1914,76 L1152,76 A0,0 0 0 0 1152,76" fill="#FEFFDD" style="stroke:#181818;stroke-width:0.5;"/><path d="M1449.1914,76 L1449.1914,86 L1459.1914,86 L1449.1914,76" fill="#FEFFDD" style="stroke:#181818;stroke-width:0.5;"/><text fill="#000000" font-family="sans-serif" font-size="20" lengthAdjust="spacing" textLength="209.4434" x="1158" y="101.7617">US057: "combination of</text><text fill="#000000" font-family="sans-serif" font-size="20" lengthAdjust="spacing" textLength="286.1914" x="1158" y="126.918">model and engine configuration"</text></g><!--link EngineModel to MotorizationType--><g class="link" data-entity-1="ent0005" data-entity-2="ent0016" data-link-type="dependency" data-source-line="44" id="lnk17"><path codeLine="44" d="M589.61,1673.43 C610.93,1659.51 634.27,1644.49 656,1631 C725.32,1587.95 799.6718,1544.1138 859.6318,1509.2838" fill="none" id="EngineModel-to-MotorizationType" style="stroke:#181818;stroke-width:1;"/><polygon fill="#181818" points="864.82,1506.27,855.0285,1507.3318,860.4965,1508.7815,859.0469,1514.2494,864.82,1506.27" style="stroke:#181818;stroke-width:1;"/><text fill="#000000" font-family="sans-serif" font-size="20" lengthAdjust="spacing" textLength="61.1426" x="698" y="1540.7617">ofType</text></g><!--reverse link EngineModel to EngineName--><g class="link" data-entity-1="ent0005" data-entity-2="ent0006" data-link-type="composition" data-source-line="45" id="lnk18"><path codeLine="45" d="M554.4727,1792.8826 C580.4927,1836.4526 613.17,1885.22 656,1930 C723.15,2000.21 748.77,2009.25 831,2061 C846.09,2070.5 862.7,2079.88 878.78,2088.45" fill="none" id="EngineModel-backto-EngineName" style="stroke:#181818;stroke-width:1;"/><polygon fill="#181818" points="548.32,1782.58,547.9622,1789.7822,554.4727,1792.8826,554.8306,1785.6804,548.32,1782.58" style="stroke:#181818;stroke-width:1;"/><text fill="#000000" font-family="sans-serif" font-size="20" lengthAdjust="spacing" textLength="103.3984" x="677" y="1924.7617">identifiedBy</text></g><!--reverse link EngineModel to Power--><g class="link" data-entity-1="ent0005" data-entity-2="ent0010" data-link-type="composition" data-source-line="46" id="lnk19"><path codeLine="46" d="M599.8593,1779.1021 C621.0793,1792.8121 634.25,1800.98 656,1814 C730.57,1858.65 817.58,1906.39 878.91,1939.34" fill="none" id="EngineModel-backto-Power" style="stroke:#181818;stroke-width:1;"/><polygon fill="#181818" points="589.78,1772.59,592.6489,1779.2058,599.8593,1779.1021,596.9904,1772.4863,589.78,1772.59" style="stroke:#181818;stroke-width:1;"/><text fill="#000000" font-family="sans-serif" font-size="20" lengthAdjust="spacing" textLength="64.4824" x="696.5" y="1808.7617">ratedAt</text></g><!--reverse link EngineModel to Thrust--><g class="link" data-entity-1="ent0005" data-entity-2="ent0011" data-link-type="composition" data-source-line="47" id="lnk20"><path codeLine="47" d="M601.3395,1739.7799 C681.6395,1755.3899 797.07,1777.82 878.9,1793.72" fill="none" id="EngineModel-backto-Thrust" style="stroke:#181818;stroke-width:1;"/><polygon fill="#181818" points="589.56,1737.49,594.6865,1742.5614,601.3395,1739.7799,596.213,1734.7084,589.56,1737.49" style="stroke:#181818;stroke-width:1;"/><text fill="#000000" font-family="sans-serif" font-size="20" lengthAdjust="spacing" textLength="143.3984" x="657" y="1744.7617">characterisedBy</text><text fill="#000000" font-family="sans-serif" font-size="20" lengthAdjust="spacing" textLength="11.123" x="859.7955" y="1814.2346">2</text></g><!--reverse link EngineModel to TSFC--><g class="link" data-entity-1="ent0005" data-entity-2="ent0015" data-link-type="composition" data-source-line="48" id="lnk21"><path codeLine="48" d="M601.3395,1706.2201 C681.6395,1690.6101 797.07,1668.18 878.9,1652.28" fill="none" id="EngineModel-backto-TSFC" style="stroke:#181818;stroke-width:1;"/><polygon fill="#181818" points="589.56,1708.51,596.213,1711.2916,601.3395,1706.2201,594.6865,1703.4386,589.56,1708.51" style="stroke:#181818;stroke-width:1;"/><text fill="#000000" font-family="sans-serif" font-size="20" lengthAdjust="spacing" textLength="68.9258" x="694.5" y="1662.7617">ratedBy</text></g><!--reverse link AircraftModel to ModelID--><g class="link" data-entity-1="ent0023" data-entity-2="ent0024" data-link-type="composition" data-source-line="87" id="lnk45"><path codeLine="87" d="M174.4696,677.9461 C187.7696,686.3061 191.64,688.44 205,696 C280.61,738.76 299.29,750.9 380,783 C553.84,852.15 766.03,910.44 878.56,939.39" fill="none" id="AircraftModel-backto-ModelID" style="stroke:#181818;stroke-width:1;"/><polygon fill="#181818" points="164.31,671.56,167.2611,678.1396,174.4696,677.9461,171.5185,671.3665,164.31,671.56" style="stroke:#181818;stroke-width:1;"/><text fill="#000000" font-family="sans-serif" font-size="20" lengthAdjust="spacing" textLength="103.3984" x="462.5" y="777.7617">identifiedBy</text></g><!--link AircraftModel to AircraftType--><g class="link" data-entity-1="ent0023" data-entity-2="ent0028" data-link-type="dependency" data-source-line="88" id="lnk46"><path codeLine="88" d="M175.35,645.17 C339.64,680.42 722.2435,762.5213 881.5935,796.7113" fill="none" id="AircraftModel-to-AircraftType" style="stroke:#181818;stroke-width:1;"/><polygon fill="#181818" points="887.46,797.97,879.4994,792.1709,882.5713,796.9211,877.8211,799.9929,887.46,797.97" style="stroke:#181818;stroke-width:1;"/><text fill="#000000" font-family="sans-serif" font-size="20" lengthAdjust="spacing" textLength="61.1426" x="483.5" y="685.7617">ofType</text></g><!--reverse link AircraftModel to AircraftWeights--><g class="link" data-entity-1="ent0023" data-entity-2="ent0029" data-link-type="composition" data-source-line="89" id="lnk47"><path codeLine="89" d="M187.35,629 C346.94,629 706.07,629 873.23,629" fill="none" id="AircraftModel-backto-AircraftWeights" style="stroke:#181818;stroke-width:1;"/><polygon fill="#181818" points="175.35,629,181.35,633,187.35,629,181.35,625,175.35,629" style="stroke:#181818;stroke-width:1;"/><text fill="#000000" font-family="sans-serif" font-size="20" lengthAdjust="spacing" textLength="67.8125" x="480.5" y="623.7617">weights</text></g><!--reverse link AircraftModel to AircraftPerformance--><g class="link" data-entity-1="ent0023" data-entity-2="ent0033" data-link-type="composition" data-source-line="90" id="lnk48"><path codeLine="90" d="M187.0453,609.0029 C340.2953,573.7929 676.94,496.45 852.39,456.15" fill="none" id="AircraftModel-backto-AircraftPerformance" style="stroke:#181818;stroke-width:1;"/><polygon fill="#181818" points="175.35,611.69,182.0933,614.2449,187.0453,609.0029,180.302,606.448,175.35,611.69" style="stroke:#181818;stroke-width:1;"/><text fill="#000000" font-family="sans-serif" font-size="20" lengthAdjust="spacing" textLength="78.9063" x="475" y="499.7617">performs</text></g><!--reverse link AircraftModel to AerodynamicCoefficients--><g class="link" data-entity-1="ent0023" data-entity-2="ent0037" data-link-type="composition" data-source-line="91" id="lnk49"><path codeLine="91" d="M177.3513,580.0769 C233.0813,545.6769 304.89,503.63 380,468 C531.1,396.33 712.3,330.37 830.92,289.74" fill="none" id="AircraftModel-backto-AerodynamicCoefficients" style="stroke:#181818;stroke-width:1;"/><polygon fill="#181818" points="167.14,586.38,174.3467,586.6322,177.3513,580.0769,170.1446,579.8247,167.14,586.38" style="stroke:#181818;stroke-width:1;"/><text fill="#000000" font-family="sans-serif" font-size="20" lengthAdjust="spacing" textLength="143.3984" x="442.5" y="353.7617">characterisedBy</text></g><!--reverse link AircraftModel to AircraftVariant--><g class="link" data-entity-1="ent0023" data-entity-2="ent0041" data-link-type="composition" data-source-line="92" id="lnk50"><path codeLine="92" d="M135.1427,576.5591 C180.7627,510.9791 269.83,395.06 380,322 C540.8,215.37 761.46,151.81 877.97,123.54" fill="none" id="AircraftModel-backto-AircraftVariant" style="stroke:#181818;stroke-width:1;"/><polygon fill="#181818" points="128.29,586.41,135,583.7688,135.1427,576.5591,128.4327,579.2003,128.29,586.41" style="stroke:#181818;stroke-width:1;"/><text fill="#000000" font-family="sans-serif" font-size="20" lengthAdjust="spacing" textLength="91.1328" x="468.5" y="190.7617">comprises</text></g><!--link EngineModel to Manufacturer--><g class="link" data-entity-1="ent0005" data-entity-2="ent0003" data-link-type="dependency" data-source-line="96" id="lnk51"><path codeLine="96" d="M514,1663.33 C514,1564.28 514,1372.25 514,1265.38" fill="none" id="EngineModel-to-Manufacturer" style="stroke:#181818;stroke-width:1;"/><polygon fill="#181818" points="514,1259.38,510,1268.38,514,1264.38,518,1268.38,514,1259.38" style="stroke:#181818;stroke-width:1;"/><polygon fill="#000000" points="422,1453.3281,417.2977,1467.8003,426.7023,1467.8003,422,1453.3281" style="stroke:#000000;stroke-width:1;"/><text fill="#000000" font-family="sans-serif" font-size="20" lengthAdjust="spacing" textLength="145.6348" x="435" y="1469.5117">manufacturedBy</text><text fill="#000000" font-family="sans-serif" font-size="20" lengthAdjust="spacing" textLength="7.7832" x="506.6738" y="1651.2272">*</text><text fill="#000000" font-family="sans-serif" font-size="20" lengthAdjust="spacing" textLength="11.123" x="502.5398" y="1287.4522">1</text></g><!--link AircraftModel to Manufacturer--><g class="link" data-entity-1="ent0023" data-entity-2="ent0003" data-link-type="dependency" data-source-line="97" id="lnk52"><path codeLine="97" d="M105.01,671.55 C114.63,738.26 140.74,869.14 205,959 C265.76,1043.96 362.5925,1107.5608 432.4525,1146.2908" fill="none" id="AircraftModel-to-Manufacturer" style="stroke:#181818;stroke-width:1;"/><polygon fill="#181818" points="437.7,1149.2,431.7682,1141.3378,433.3271,1146.7757,427.8892,1148.3346,437.7,1149.2" style="stroke:#181818;stroke-width:1;"/><polygon fill="#000000" points="217.5422,952.1636,213.1961,937.5805,205.4544,942.9202,217.5422,952.1636" style="stroke:#000000;stroke-width:1;"/><text fill="#000000" font-family="sans-serif" font-size="20" lengthAdjust="spacing" textLength="145.6348" x="226" y="953.7617">manufacturedBy</text><text fill="#000000" font-family="sans-serif" font-size="20" lengthAdjust="spacing" textLength="7.7832" x="98.4687" y="700.7173">*</text><text fill="#000000" font-family="sans-serif" font-size="20" lengthAdjust="spacing" textLength="11.123" x="418.9173" y="1167.5682">1</text></g><?plantuml-src bLPDRziu4BthLmnqQhfmcastNK083BXf0_IGtQ1EMw0mKD3KI9w68hKa5SSj-jyxegmrbKX1UWh9lFb-RsHtGxeMLbJAo1lC8ST2DCfV6EsNz1tXz2HHM7Zm1YoL6myvMPIUZ4vSRmgra3UYnANVAOJstqAN2YE0DZawhE6la-ZH2dtJFhu-IJQK8s1L-nrKMAtHkYH9zbuXlHIwAOJqZKNxTL6M5alXCOMpCz5VvdFuaG189Po36CyWr9xyZX5dPzOOluS2Q55XE4ZJQ6ztVFwP_8pYljCbQRpatDLJmaRmoQX5W-fwLsE8DJJyXzDXyArG3O9PV-Csta-rDT76utuKfeXDiu22Fw2Aob_fgd4UrWYDfl_OyREFovDNhu_-Ztrbjg59es73OpYnjH_aVBsnhUEd6WAu6Z7_W0LQr7AycBtFR330cMlgMX5JK_YLTbvuaY1q3j8svB3pUxpIRr5Q50uTRCblG2XkVyEiUkPG7iFBuvU7cg-N5-U_LJBgfe9BuusbxwBbVZl2lG4dkJQrDVNXLWXzk7p3hdvcV7z4nH4joIksGgNGxiF419hDvWyZPjobFNjYxFFPR4W4LXEph-2clTcDOBkPPvoIntpXHn3fQNgOXjomNAL7o-qUTnWQklV7W8685cIb5OL_iem61fD2EZ0nuDw_dHeevQDSwwr-GpMlZdegz2b6DAWv5THbc2Ld9cnfmgcYEym7-VR6dx7DnKtb7RPXXmdto-j_FtU7BnVTeH9t5xnEpWNtcZiqMkRzO1cyrxV2aj0-M-dM9yo3H_uJHLpfXLAT5XpKnf6dsuEKJeyU57E5jZ2MUoWdTvX3UqiIpv4KwR9hKv3mibLmNn5LJVM1FnyZ6oA3Tq9kkgnW8nmG5sIsEYXrfVdBnQHirmHGLIkic3X1Ek29j-SXPRGct_7KIPuRB0gInCZ9EMmvsGLlbd39hIWZe_2cgF33jv4nJCJCu2Dh2aW7BozQzolTDhBXLCTMLz_lJzqCOtdyU9G0lG57P2h_dK4gJRKctNN854pveBTsisAGDtyMTK5bOmCaPSz3PRBmPv6CxksS8NRMhhE1Qg9LDkBs8MsttUbnUCp23EhkDcKpEPA7--wHa8U-SZ_hriIrwo-9LsJwF0MkF_qp7VuqoUAbmv5WdWmZ1SCdMYQ_0000?></g></svg>