<?plantuml 1.2026.2?><svg xmlns="http://www.w3.org/2000/svg" xmlns:xlink="http://www.w3.org/1999/xlink" contentStyleType="text/css" data-diagram-type="CLASS" height="2721px" preserveAspectRatio="none" style="width:3128px;height:2721px;background:#FFFFFF;" version="1.1" viewBox="0 0 3128 2721" width="3128px" zoomAndPan="magnify"><defs/><g><!--cluster AircraftModel_Aggregate--><g class="cluster" data-qualified-name="AircraftModel_Aggregate" data-source-line="8" id="ent0002"><rect fill="none" height="1015" rx="2.5" ry="2.5" style="stroke:#000000;stroke-width:1.5;" width="1632.5" x="1021.5" y="1700"/><text fill="#000000" font-family="sans-serif" font-size="20" font-style="italic" lengthAdjust="spacing" textLength="112.3242" x="1781.5879" y="1722.7617">&#171;aggregate&#187;</text><text fill="#000000" font-family="sans-serif" font-size="20" font-weight="bold" lengthAdjust="spacing" textLength="238.9355" x="1718.2822" y="1747.918">AircraftModel_Aggregate</text></g><!--cluster Collaborator_Aggregate--><g class="cluster" data-qualified-name="Collaborator_Aggregate" data-source-line="51" id="ent0031"><rect fill="none" height="612" rx="2.5" ry="2.5" style="stroke:#000000;stroke-width:1.5;" width="2337" x="785" y="1064"/><text fill="#000000" font-family="sans-serif" font-size="20" font-style="italic" lengthAdjust="spacing" textLength="112.3242" x="1897.3379" y="1086.7617">&#171;aggregate&#187;</text><text fill="#000000" font-family="sans-serif" font-size="20" font-weight="bold" lengthAdjust="spacing" textLength="228.9258" x="1839.0371" y="1111.918">Collaborator_Aggregate</text></g><!--cluster Pilot_Aggregate--><g class="cluster" data-qualified-name="Pilot_Aggregate" data-source-line="82" id="ent0054"><rect fill="none" height="171" rx="2.5" ry="2.5" style="stroke:#000000;stroke-width:1.5;" width="169" x="440" y="1318"/><text fill="#000000" font-family="sans-serif" font-size="20" font-style="italic" lengthAdjust="spacing" textLength="112.3242" x="468.3379" y="1340.7617">&#171;aggregate&#187;</text><text fill="#000000" font-family="sans-serif" font-size="20" font-weight="bold" lengthAdjust="spacing" textLength="153.3594" x="447.8203" y="1365.918">Pilot_Aggregate</text></g><!--cluster Flight_Aggregate--><g class="cluster" data-qualified-name="Flight_Aggregate" data-source-line="88" id="ent0057"><rect fill="none" height="1033" rx="2.5" ry="2.5" style="stroke:#000000;stroke-width:1.5;" width="2277" x="7" y="7"/><text fill="#000000" font-family="sans-serif" font-size="20" font-style="italic" lengthAdjust="spacing" textLength="112.3242" x="1089.3379" y="29.7617">&#171;aggregate&#187;</text><text fill="#000000" font-family="sans-serif" font-size="20" font-weight="bold" lengthAdjust="spacing" textLength="164.4531" x="1063.2734" y="54.918">Flight_Aggregate</text></g><!--class AircraftModel--><g class="entity" data-qualified-name="AircraftModel_Aggregate.AircraftModel" data-source-line="9" id="ent0003"><rect fill="#F1F1F1" height="85.4688" rx="2.5" ry="2.5" style="stroke:#181818;stroke-width:0.5;" width="151.8125" x="1037.5" y="2179.5"/><ellipse cx="1053.5" cy="2222.2344" fill="#ADD1B2" rx="12" ry="12" style="stroke:#181818;stroke-width:1;"/><path d="M1055.6406,2217.1563 Q1055.8281,2216.9063 1056.0469,2216.7813 Q1056.2656,2216.6406 1056.5156,2216.6406 Q1056.9531,2216.6406 1057.2344,2216.9531 Q1057.5156,2217.25 1057.5156,2217.9688 L1057.5156,2219.6719 Q1057.5156,2220.3906 1057.2344,2220.7031 Q1056.9531,2221.0156 1056.5156,2221.0156 Q1056.125,2221.0156 1055.875,2220.7813 Q1055.625,2220.5625 1055.5156,2219.9531 Q1055.4531,2219.5313 1055.2344,2219.3125 Q1054.8438,2218.875 1054.125,2218.6094 Q1053.4063,2218.3438 1052.6875,2218.3438 Q1051.7813,2218.3438 1051.0313,2218.7344 Q1050.2813,2219.125 1049.7031,2220.0156 Q1049.125,2220.8906 1049.125,2222.0938 L1049.125,2223.3906 Q1049.125,2224.8438 1050.1719,2225.8125 Q1051.2344,2226.7813 1053.0938,2226.7813 Q1054.2031,2226.7813 1054.9844,2226.4688 Q1055.4219,2226.2969 1055.9375,2225.7813 Q1056.25,2225.4688 1056.4219,2225.375 Q1056.5938,2225.2813 1056.8281,2225.2813 Q1057.2188,2225.2813 1057.5156,2225.5938 Q1057.8281,2225.8906 1057.8281,2226.2969 Q1057.8281,2226.7031 1057.4219,2227.1719 Q1056.8281,2227.8594 1055.8906,2228.25 Q1054.625,2228.7813 1053.1094,2228.7813 Q1051.3281,2228.7813 1049.9063,2228.0469 Q1048.75,2227.4531 1047.9375,2226.1875 Q1047.125,2224.9219 1047.125,2223.4375 L1047.125,2222.0781 Q1047.125,2220.5156 1047.8438,2219.1719 Q1048.5781,2217.8125 1049.8594,2217.0781 Q1051.1563,2216.3438 1052.6094,2216.3438 Q1053.4688,2216.3438 1054.2188,2216.5469 Q1054.9844,2216.75 1055.6406,2217.1563 Z " fill="#000000"/><text fill="#000000" font-family="sans-serif" font-size="20" font-style="italic" lengthAdjust="spacing" textLength="70.0488" x="1092.3818" y="2205.2617">&#171;entity&#187;</text><text fill="#000000" font-family="sans-serif" font-size="20" font-style="italic" lengthAdjust="spacing" textLength="56.709" x="1099.0518" y="2230.418">&#171;root&#187;</text><text fill="#000000" font-family="sans-serif" font-size="20" lengthAdjust="spacing" textLength="117.8125" x="1068.5" y="2255.5742">AircraftModel</text></g><!--class ModelID--><g class="entity" data-qualified-name="AircraftModel_Aggregate.ModelID" data-source-line="11" id="ent0004"><rect fill="#F1F1F1" height="93.4688" rx="2.5" ry="2.5" style="stroke:#181818;stroke-width:0.5;" width="158.9844" x="2033" y="2321.5"/><ellipse cx="2049" cy="2351.6563" fill="#ADD1B2" rx="12" ry="12" style="stroke:#181818;stroke-width:1;"/><path d="M2051.1406,2346.5781 Q2051.3281,2346.3281 2051.5469,2346.2031 Q2051.7656,2346.0625 2052.0156,2346.0625 Q2052.4531,2346.0625 2052.7344,2346.375 Q2053.0156,2346.6719 2053.0156,2347.3906 L2053.0156,2349.0938 Q2053.0156,2349.8125 2052.7344,2350.125 Q2052.4531,2350.4375 2052.0156,2350.4375 Q2051.625,2350.4375 2051.375,2350.2031 Q2051.125,2349.9844 2051.0156,2349.375 Q2050.9531,2348.9531 2050.7344,2348.7344 Q2050.3438,2348.2969 2049.625,2348.0313 Q2048.9063,2347.7656 2048.1875,2347.7656 Q2047.2813,2347.7656 2046.5313,2348.1563 Q2045.7813,2348.5469 2045.2031,2349.4375 Q2044.625,2350.3125 2044.625,2351.5156 L2044.625,2352.8125 Q2044.625,2354.2656 2045.6719,2355.2344 Q2046.7344,2356.2031 2048.5938,2356.2031 Q2049.7031,2356.2031 2050.4844,2355.8906 Q2050.9219,2355.7188 2051.4375,2355.2031 Q2051.75,2354.8906 2051.9219,2354.7969 Q2052.0938,2354.7031 2052.3281,2354.7031 Q2052.7188,2354.7031 2053.0156,2355.0156 Q2053.3281,2355.3125 2053.3281,2355.7188 Q2053.3281,2356.125 2052.9219,2356.5938 Q2052.3281,2357.2813 2051.3906,2357.6719 Q2050.125,2358.2031 2048.6094,2358.2031 Q2046.8281,2358.2031 2045.4063,2357.4688 Q2044.25,2356.875 2043.4375,2355.6094 Q2042.625,2354.3438 2042.625,2352.8594 L2042.625,2351.5 Q2042.625,2349.9375 2043.3438,2348.5938 Q2044.0781,2347.2344 2045.3594,2346.5 Q2046.6563,2345.7656 2048.1094,2345.7656 Q2048.9688,2345.7656 2049.7188,2345.9688 Q2050.4844,2346.1719 2051.1406,2346.5781 Z " fill="#000000"/><text fill="#000000" font-family="sans-serif" font-size="20" font-style="italic" lengthAdjust="spacing" textLength="128.9844" x="2062" y="2347.2617">&#171;value object&#187;</text><text fill="#000000" font-family="sans-serif" font-size="20" lengthAdjust="spacing" textLength="74.4727" x="2089.2559" y="2372.418">ModelID</text><line style="stroke:#181818;stroke-width:0.5;" x1="2034" x2="2190.9844" y1="2381.8125" y2="2381.8125"/><text fill="#000000" font-family="sans-serif" font-size="20" lengthAdjust="spacing" textLength="15.5664" x="2039" y="2406.5742">id</text></g><g class="entity" data-qualified-name="AircraftModel_Aggregate.GMN5" data-source-line="14" id="ent0006"><path d="M2365.5,2338 L2365.5,2364 L2192.42,2368 L2365.5,2372 L2365.5,2398.3125 A0,0 0 0 0 2365.5,2398.3125 L2603.2871,2398.3125 A0,0 0 0 0 2603.2871,2398.3125 L2603.2871,2348 L2593.2871,2338 L2365.5,2338 A0,0 0 0 0 2365.5,2338" fill="#FEFFDD" style="stroke:#181818;stroke-width:0.5;"/><path d="M2593.2871,2338 L2593.2871,2348 L2603.2871,2348 L2593.2871,2338" fill="#FEFFDD" style="stroke:#181818;stroke-width:0.5;"/><text fill="#000000" font-family="sans-serif" font-size="20" lengthAdjust="spacing" textLength="190.6543" x="2371.5" y="2363.7617">name + manufacturer</text><text fill="#000000" font-family="sans-serif" font-size="20" lengthAdjust="spacing" textLength="216.7871" x="2371.5" y="2388.918">must be unique (US055)</text></g><!--class AircraftType--><g class="entity" data-qualified-name="AircraftModel_Aggregate.AircraftType" data-source-line="15" id="ent0008"><rect fill="#F1F1F1" height="118.625" rx="2.5" ry="2.5" style="stroke:#181818;stroke-width:0.5;" width="141.8027" x="2041.5" y="2162.5"/><ellipse cx="2057.5" cy="2180.0781" fill="#EB937F" rx="12" ry="12" style="stroke:#181818;stroke-width:1;"/><path d="M2055.4531,2181.1406 L2055.4531,2184.0781 L2060.5469,2184.0781 L2060.5469,2182.9844 Q2060.5469,2182.2656 2060.8281,2181.9688 Q2061.1094,2181.6563 2061.5625,2181.6563 Q2062,2181.6563 2062.2813,2181.9688 Q2062.5625,2182.2656 2062.5625,2182.9844 L2062.5625,2186.0781 L2053.125,2186.0781 Q2052.4063,2186.0781 2052.0938,2185.7969 Q2051.7969,2185.5156 2051.7969,2185.0781 Q2051.7969,2184.625 2052.1094,2184.3594 Q2052.4219,2184.0781 2053.125,2184.0781 L2053.4375,2184.0781 L2053.4375,2176.25 L2053.125,2176.25 Q2052.4063,2176.25 2052.0938,2175.9688 Q2051.7969,2175.6875 2051.7969,2175.2344 Q2051.7969,2174.7813 2052.0938,2174.5156 Q2052.4063,2174.2344 2053.125,2174.2344 L2062.1094,2174.2344 L2062.1094,2177.2813 Q2062.1094,2178 2061.8281,2178.3125 Q2061.5625,2178.6094 2061.125,2178.6094 Q2060.6719,2178.6094 2060.3906,2178.3125 Q2060.1094,2178.0156 2060.1094,2177.2813 L2060.1094,2176.25 L2055.4531,2176.25 L2055.4531,2179.1406 L2057.2031,2179.1406 Q2057.2031,2178.3594 2057.3438,2178.125 Q2057.6563,2177.6563 2058.2031,2177.6563 Q2058.6563,2177.6563 2058.9219,2177.9688 Q2059.2031,2178.2656 2059.2031,2178.9844 L2059.2031,2181.2969 Q2059.2031,2181.9531 2059.0469,2182.1719 Q2058.7344,2182.625 2058.2031,2182.625 Q2057.6563,2182.625 2057.3438,2182.1563 Q2057.2031,2181.9219 2057.2031,2181.1406 L2055.4531,2181.1406 Z " fill="#000000"/><text fill="#000000" font-family="sans-serif" font-size="20" lengthAdjust="spacing" textLength="107.8027" x="2072.5" y="2188.2617">AircraftType</text><line style="stroke:#181818;stroke-width:0.5;" x1="2042.5" x2="2182.3027" y1="2197.6563" y2="2197.6563"/><text fill="#000000" font-family="sans-serif" font-size="20" lengthAdjust="spacing" textLength="93.3984" x="2047.5" y="2222.418">passenger</text><text fill="#000000" font-family="sans-serif" font-size="20" lengthAdjust="spacing" textLength="50.0293" x="2047.5" y="2247.5742">cargo</text><text fill="#000000" font-family="sans-serif" font-size="20" lengthAdjust="spacing" textLength="53.3496" x="2047.5" y="2272.7305">mixed</text></g><!--class AircraftWeights--><g class="entity" data-qualified-name="AircraftModel_Aggregate.AircraftWeights" data-source-line="20" id="ent0009"><rect fill="#F1F1F1" height="168.9375" rx="2.5" ry="2.5" style="stroke:#181818;stroke-width:0.5;" width="169.5859" x="2027.5" y="1953.5"/><ellipse cx="2043.5" cy="1983.6563" fill="#ADD1B2" rx="12" ry="12" style="stroke:#181818;stroke-width:1;"/><path d="M2045.6406,1978.5781 Q2045.8281,1978.3281 2046.0469,1978.2031 Q2046.2656,1978.0625 2046.5156,1978.0625 Q2046.9531,1978.0625 2047.2344,1978.375 Q2047.5156,1978.6719 2047.5156,1979.3906 L2047.5156,1981.0938 Q2047.5156,1981.8125 2047.2344,1982.125 Q2046.9531,1982.4375 2046.5156,1982.4375 Q2046.125,1982.4375 2045.875,1982.2031 Q2045.625,1981.9844 2045.5156,1981.375 Q2045.4531,1980.9531 2045.2344,1980.7344 Q2044.8438,1980.2969 2044.125,1980.0313 Q2043.4063,1979.7656 2042.6875,1979.7656 Q2041.7813,1979.7656 2041.0313,1980.1563 Q2040.2813,1980.5469 2039.7031,1981.4375 Q2039.125,1982.3125 2039.125,1983.5156 L2039.125,1984.8125 Q2039.125,1986.2656 2040.1719,1987.2344 Q2041.2344,1988.2031 2043.0938,1988.2031 Q2044.2031,1988.2031 2044.9844,1987.8906 Q2045.4219,1987.7188 2045.9375,1987.2031 Q2046.25,1986.8906 2046.4219,1986.7969 Q2046.5938,1986.7031 2046.8281,1986.7031 Q2047.2188,1986.7031 2047.5156,1987.0156 Q2047.8281,1987.3125 2047.8281,1987.7188 Q2047.8281,1988.125 2047.4219,1988.5938 Q2046.8281,1989.2813 2045.8906,1989.6719 Q2044.625,1990.2031 2043.1094,1990.2031 Q2041.3281,1990.2031 2039.9063,1989.4688 Q2038.75,1988.875 2037.9375,1987.6094 Q2037.125,1986.3438 2037.125,1984.8594 L2037.125,1983.5 Q2037.125,1981.9375 2037.8438,1980.5938 Q2038.5781,1979.2344 2039.8594,1978.5 Q2041.1563,1977.7656 2042.6094,1977.7656 Q2043.4688,1977.7656 2044.2188,1977.9688 Q2044.9844,1978.1719 2045.6406,1978.5781 Z " fill="#000000"/><text fill="#000000" font-family="sans-serif" font-size="20" font-style="italic" lengthAdjust="spacing" textLength="128.9844" x="2061.8008" y="1979.2617">&#171;value object&#187;</text><text fill="#000000" font-family="sans-serif" font-size="20" lengthAdjust="spacing" textLength="135.5859" x="2058.5" y="2004.418">AircraftWeights</text><line style="stroke:#181818;stroke-width:0.5;" x1="2028.5" x2="2196.0859" y1="2013.8125" y2="2013.8125"/><text fill="#000000" font-family="sans-serif" font-size="20" lengthAdjust="spacing" textLength="116.709" x="2033.5" y="2038.5742">emptyWeight</text><text fill="#000000" font-family="sans-serif" font-size="20" lengthAdjust="spacing" textLength="63.3105" x="2033.5" y="2063.7305">MTOW</text><text fill="#000000" font-family="sans-serif" font-size="20" lengthAdjust="spacing" textLength="59.9707" x="2033.5" y="2088.8867">MZFW</text><text fill="#000000" font-family="sans-serif" font-size="20" lengthAdjust="spacing" textLength="154.502" x="2033.5" y="2114.043">maxFuelCapacity</text></g><g class="entity" data-qualified-name="AircraftModel_Aggregate.GMN10" data-source-line="26" id="ent0011"><path d="M2331,1995.5 L2331,2034 L2197.92,2038 L2331,2042 L2331,2080.9688 A0,0 0 0 0 2331,2080.9688 L2637.5762,2080.9688 A0,0 0 0 0 2637.5762,2080.9688 L2637.5762,2005.5 L2627.5762,1995.5 L2331,1995.5 A0,0 0 0 0 2331,1995.5" fill="#FEFFDD" style="stroke:#181818;stroke-width:0.5;"/><path d="M2627.5762,1995.5 L2627.5762,2005.5 L2637.5762,2005.5 L2627.5762,1995.5" fill="#FEFFDD" style="stroke:#181818;stroke-width:0.5;"/><text fill="#000000" font-family="sans-serif" font-size="20" lengthAdjust="spacing" textLength="82.2656" x="2337" y="2021.2617">Invariant:</text><text fill="#000000" font-family="sans-serif" font-size="20" lengthAdjust="spacing" textLength="285.5762" x="2337" y="2046.418">MTOW &gt; MZFW &gt; emptyWeight</text><text fill="#000000" font-family="sans-serif" font-size="20" lengthAdjust="spacing" textLength="247.8809" x="2337" y="2071.5742">All values positive (sec. 3.2)</text></g><!--class AircraftPerformance--><g class="entity" data-qualified-name="AircraftModel_Aggregate.AircraftPerformance" data-source-line="27" id="ent0013"><rect fill="#F1F1F1" height="143.7813" rx="2.5" ry="2.5" style="stroke:#181818;stroke-width:0.5;" width="211.832" x="2006.5" y="1769"/><ellipse cx="2022.5" cy="1799.1563" fill="#ADD1B2" rx="12" ry="12" style="stroke:#181818;stroke-width:1;"/><path d="M2024.6406,1794.0781 Q2024.8281,1793.8281 2025.0469,1793.7031 Q2025.2656,1793.5625 2025.5156,1793.5625 Q2025.9531,1793.5625 2026.2344,1793.875 Q2026.5156,1794.1719 2026.5156,1794.8906 L2026.5156,1796.5938 Q2026.5156,1797.3125 2026.2344,1797.625 Q2025.9531,1797.9375 2025.5156,1797.9375 Q2025.125,1797.9375 2024.875,1797.7031 Q2024.625,1797.4844 2024.5156,1796.875 Q2024.4531,1796.4531 2024.2344,1796.2344 Q2023.8438,1795.7969 2023.125,1795.5313 Q2022.4063,1795.2656 2021.6875,1795.2656 Q2020.7813,1795.2656 2020.0313,1795.6563 Q2019.2813,1796.0469 2018.7031,1796.9375 Q2018.125,1797.8125 2018.125,1799.0156 L2018.125,1800.3125 Q2018.125,1801.7656 2019.1719,1802.7344 Q2020.2344,1803.7031 2022.0938,1803.7031 Q2023.2031,1803.7031 2023.9844,1803.3906 Q2024.4219,1803.2188 2024.9375,1802.7031 Q2025.25,1802.3906 2025.4219,1802.2969 Q2025.5938,1802.2031 2025.8281,1802.2031 Q2026.2188,1802.2031 2026.5156,1802.5156 Q2026.8281,1802.8125 2026.8281,1803.2188 Q2026.8281,1803.625 2026.4219,1804.0938 Q2025.8281,1804.7813 2024.8906,1805.1719 Q2023.625,1805.7031 2022.1094,1805.7031 Q2020.3281,1805.7031 2018.9063,1804.9688 Q2017.75,1804.375 2016.9375,1803.1094 Q2016.125,1801.8438 2016.125,1800.3594 L2016.125,1799 Q2016.125,1797.4375 2016.8438,1796.0938 Q2017.5781,1794.7344 2018.8594,1794 Q2020.1563,1793.2656 2021.6094,1793.2656 Q2022.4688,1793.2656 2023.2188,1793.4688 Q2023.9844,1793.6719 2024.6406,1794.0781 Z " fill="#000000"/><text fill="#000000" font-family="sans-serif" font-size="20" font-style="italic" lengthAdjust="spacing" textLength="128.9844" x="2061.9238" y="1794.7617">&#171;value object&#187;</text><text fill="#000000" font-family="sans-serif" font-size="20" lengthAdjust="spacing" textLength="177.832" x="2037.5" y="1819.918">AircraftPerformance</text><line style="stroke:#181818;stroke-width:0.5;" x1="2007.5" x2="2217.332" y1="1829.3125" y2="1829.3125"/><text fill="#000000" font-family="sans-serif" font-size="20" lengthAdjust="spacing" textLength="124.4922" x="2012.5" y="1854.0742">serviceCeiling</text><text fill="#000000" font-family="sans-serif" font-size="20" lengthAdjust="spacing" textLength="111.1816" x="2012.5" y="1879.2305">cruiseSpeed</text><text fill="#000000" font-family="sans-serif" font-size="20" lengthAdjust="spacing" textLength="145.6055" x="2012.5" y="1904.3867">maximumRange</text></g><g class="entity" data-qualified-name="AircraftModel_Aggregate.GMN14" data-source-line="32" id="ent0015"><path d="M2338,1811 L2338,1837 L2218.54,1841 L2338,1845 L2338,1871.3125 A0,0 0 0 0 2338,1871.3125 L2631.373,1871.3125 A0,0 0 0 0 2631.373,1871.3125 L2631.373,1821 L2621.373,1811 L2338,1811 A0,0 0 0 0 2338,1811" fill="#FEFFDD" style="stroke:#181818;stroke-width:0.5;"/><path d="M2621.373,1811 L2621.373,1821 L2631.373,1821 L2621.373,1811" fill="#FEFFDD" style="stroke:#181818;stroke-width:0.5;"/><text fill="#000000" font-family="sans-serif" font-size="20" lengthAdjust="spacing" textLength="242.3633" x="2344" y="1836.7617">Each value has its own unit</text><text fill="#000000" font-family="sans-serif" font-size="20" lengthAdjust="spacing" textLength="272.373" x="2344" y="1861.918">defined at implementation time</text></g><!--class AerodynamicCoefficients--><g class="entity" data-qualified-name="AircraftModel_Aggregate.AerodynamicCoefficients" data-source-line="34" id="ent0017"><rect fill="#F1F1F1" height="143.7813" rx="2.5" ry="2.5" style="stroke:#181818;stroke-width:0.5;" width="255.2109" x="1985" y="2555"/><ellipse cx="2001" cy="2585.1563" fill="#ADD1B2" rx="12" ry="12" style="stroke:#181818;stroke-width:1;"/><path d="M2003.1406,2580.0781 Q2003.3281,2579.8281 2003.5469,2579.7031 Q2003.7656,2579.5625 2004.0156,2579.5625 Q2004.4531,2579.5625 2004.7344,2579.875 Q2005.0156,2580.1719 2005.0156,2580.8906 L2005.0156,2582.5938 Q2005.0156,2583.3125 2004.7344,2583.625 Q2004.4531,2583.9375 2004.0156,2583.9375 Q2003.625,2583.9375 2003.375,2583.7031 Q2003.125,2583.4844 2003.0156,2582.875 Q2002.9531,2582.4531 2002.7344,2582.2344 Q2002.3438,2581.7969 2001.625,2581.5313 Q2000.9063,2581.2656 2000.1875,2581.2656 Q1999.2813,2581.2656 1998.5313,2581.6563 Q1997.7813,2582.0469 1997.2031,2582.9375 Q1996.625,2583.8125 1996.625,2585.0156 L1996.625,2586.3125 Q1996.625,2587.7656 1997.6719,2588.7344 Q1998.7344,2589.7031 2000.5938,2589.7031 Q2001.7031,2589.7031 2002.4844,2589.3906 Q2002.9219,2589.2188 2003.4375,2588.7031 Q2003.75,2588.3906 2003.9219,2588.2969 Q2004.0938,2588.2031 2004.3281,2588.2031 Q2004.7188,2588.2031 2005.0156,2588.5156 Q2005.3281,2588.8125 2005.3281,2589.2188 Q2005.3281,2589.625 2004.9219,2590.0938 Q2004.3281,2590.7813 2003.3906,2591.1719 Q2002.125,2591.7031 2000.6094,2591.7031 Q1998.8281,2591.7031 1997.4063,2590.9688 Q1996.25,2590.375 1995.4375,2589.1094 Q1994.625,2587.8438 1994.625,2586.3594 L1994.625,2585 Q1994.625,2583.4375 1995.3438,2582.0938 Q1996.0781,2580.7344 1997.3594,2580 Q1998.6563,2579.2656 2000.1094,2579.2656 Q2000.9688,2579.2656 2001.7188,2579.4688 Q2002.4844,2579.6719 2003.1406,2580.0781 Z " fill="#000000"/><text fill="#000000" font-family="sans-serif" font-size="20" font-style="italic" lengthAdjust="spacing" textLength="128.9844" x="2062.1133" y="2580.7617">&#171;value object&#187;</text><text fill="#000000" font-family="sans-serif" font-size="20" lengthAdjust="spacing" textLength="221.2109" x="2016" y="2605.918">AerodynamicCoefficients</text><line style="stroke:#181818;stroke-width:0.5;" x1="1986" x2="2239.2109" y1="2615.3125" y2="2615.3125"/><text fill="#000000" font-family="sans-serif" font-size="20" lengthAdjust="spacing" textLength="83.3789" x="1991" y="2640.0742">wingArea</text><text fill="#000000" font-family="sans-serif" font-size="20" lengthAdjust="spacing" textLength="134.5215" x="1991" y="2665.2305">dragCoefficient</text><text fill="#000000" font-family="sans-serif" font-size="20" lengthAdjust="spacing" textLength="114.4922" x="1991" y="2690.3867">liftCoefficient</text></g><g class="entity" data-qualified-name="AircraftModel_Aggregate.GMN18" data-source-line="39" id="ent0019"><path d="M2391,2597 L2391,2623 L2240.06,2627 L2391,2631 L2391,2657.3125 A0,0 0 0 0 2391,2657.3125 L2577.6055,2657.3125 A0,0 0 0 0 2577.6055,2657.3125 L2577.6055,2607 L2567.6055,2597 L2391,2597 A0,0 0 0 0 2391,2597" fill="#FEFFDD" style="stroke:#181818;stroke-width:0.5;"/><path d="M2567.6055,2597 L2567.6055,2607 L2577.6055,2607 L2567.6055,2597" fill="#FEFFDD" style="stroke:#181818;stroke-width:0.5;"/><text fill="#000000" font-family="sans-serif" font-size="20" lengthAdjust="spacing" textLength="138.9551" x="2397" y="2622.7617">Used in lift/drag</text><text fill="#000000" font-family="sans-serif" font-size="20" lengthAdjust="spacing" textLength="165.6055" x="2397" y="2647.918">formulas (sec. 3.3)</text></g><!--class AircraftVariant--><g class="entity" data-qualified-name="AircraftModel_Aggregate.AircraftVariant" data-source-line="40" id="ent0021"><rect fill="#F1F1F1" height="60.3125" rx="2.5" ry="2.5" style="stroke:#181818;stroke-width:0.5;" width="160.709" x="2032" y="2455"/><ellipse cx="2048" cy="2485.1563" fill="#ADD1B2" rx="12" ry="12" style="stroke:#181818;stroke-width:1;"/><path d="M2050.1406,2480.0781 Q2050.3281,2479.8281 2050.5469,2479.7031 Q2050.7656,2479.5625 2051.0156,2479.5625 Q2051.4531,2479.5625 2051.7344,2479.875 Q2052.0156,2480.1719 2052.0156,2480.8906 L2052.0156,2482.5938 Q2052.0156,2483.3125 2051.7344,2483.625 Q2051.4531,2483.9375 2051.0156,2483.9375 Q2050.625,2483.9375 2050.375,2483.7031 Q2050.125,2483.4844 2050.0156,2482.875 Q2049.9531,2482.4531 2049.7344,2482.2344 Q2049.3438,2481.7969 2048.625,2481.5313 Q2047.9063,2481.2656 2047.1875,2481.2656 Q2046.2813,2481.2656 2045.5313,2481.6563 Q2044.7813,2482.0469 2044.2031,2482.9375 Q2043.625,2483.8125 2043.625,2485.0156 L2043.625,2486.3125 Q2043.625,2487.7656 2044.6719,2488.7344 Q2045.7344,2489.7031 2047.5938,2489.7031 Q2048.7031,2489.7031 2049.4844,2489.3906 Q2049.9219,2489.2188 2050.4375,2488.7031 Q2050.75,2488.3906 2050.9219,2488.2969 Q2051.0938,2488.2031 2051.3281,2488.2031 Q2051.7188,2488.2031 2052.0156,2488.5156 Q2052.3281,2488.8125 2052.3281,2489.2188 Q2052.3281,2489.625 2051.9219,2490.0938 Q2051.3281,2490.7813 2050.3906,2491.1719 Q2049.125,2491.7031 2047.6094,2491.7031 Q2045.8281,2491.7031 2044.4063,2490.9688 Q2043.25,2490.375 2042.4375,2489.1094 Q2041.625,2487.8438 2041.625,2486.3594 L2041.625,2485 Q2041.625,2483.4375 2042.3438,2482.0938 Q2043.0781,2480.7344 2044.3594,2480 Q2045.6563,2479.2656 2047.1094,2479.2656 Q2047.9688,2479.2656 2048.7188,2479.4688 Q2049.4844,2479.6719 2050.1406,2480.0781 Z " fill="#000000"/><text fill="#000000" font-family="sans-serif" font-size="20" font-style="italic" lengthAdjust="spacing" textLength="70.0488" x="2091.3301" y="2480.7617">&#171;entity&#187;</text><text fill="#000000" font-family="sans-serif" font-size="20" lengthAdjust="spacing" textLength="126.709" x="2063" y="2505.918">AircraftVariant</text></g><g class="entity" data-qualified-name="AircraftModel_Aggregate.GMN22" data-source-line="42" id="ent0023"><path d="M2331,2455 L2331,2481 L2193.33,2485 L2331,2489 L2331,2515.3125 A0,0 0 0 0 2331,2515.3125 L2638.1914,2515.3125 A0,0 0 0 0 2638.1914,2515.3125 L2638.1914,2465 L2628.1914,2455 L2331,2455 A0,0 0 0 0 2331,2455" fill="#FEFFDD" style="stroke:#181818;stroke-width:0.5;"/><path d="M2628.1914,2455 L2628.1914,2465 L2638.1914,2465 L2628.1914,2455" fill="#FEFFDD" style="stroke:#181818;stroke-width:0.5;"/><text fill="#000000" font-family="sans-serif" font-size="20" lengthAdjust="spacing" textLength="209.4434" x="2337" y="2480.7617">US057: "combination of</text><text fill="#000000" font-family="sans-serif" font-size="20" lengthAdjust="spacing" textLength="286.1914" x="2337" y="2505.918">model and engine configuration"</text></g><!--class Collaborator--><g class="entity" data-qualified-name="Collaborator_Aggregate.Collaborator" data-source-line="52" id="ent0032"><rect fill="#F1F1F1" height="143.7813" rx="2.5" ry="2.5" style="stroke:#181818;stroke-width:0.5;" width="142.9453" x="1664.5" y="1358"/><ellipse cx="1680.5" cy="1400.7344" fill="#A9DCDF" rx="12" ry="12" style="stroke:#181818;stroke-width:1;"/><path d="M1682.9531,1402.7656 L1678.0781,1402.7656 L1677.5938,1403.9844 L1678.0781,1403.9844 Q1678.8125,1403.9844 1679.1094,1404.2656 Q1679.4219,1404.5313 1679.4219,1404.9844 Q1679.4219,1405.4219 1679.1094,1405.7031 Q1678.8125,1405.9844 1678.0781,1405.9844 L1675.3906,1405.9844 Q1674.6719,1405.9844 1674.3594,1405.7031 Q1674.0469,1405.4219 1674.0469,1404.9844 Q1674.0469,1404.5313 1674.375,1404.25 Q1674.7031,1403.9688 1675.4375,1403.9844 L1678.5781,1396.1563 L1677.2813,1396.1563 Q1676.5469,1396.1563 1676.2344,1395.875 Q1675.9375,1395.5938 1675.9375,1395.1406 Q1675.9375,1394.6875 1676.2344,1394.4219 Q1676.5469,1394.1406 1677.2813,1394.1406 L1681.5938,1394.1406 L1685.5781,1403.9844 Q1686.2813,1403.9844 1686.5156,1404.1406 Q1686.9688,1404.4531 1686.9688,1404.9844 Q1686.9688,1405.4219 1686.6563,1405.7031 Q1686.3594,1405.9844 1685.6406,1405.9844 L1682.9375,1405.9844 Q1682.2188,1405.9844 1681.9063,1405.7031 Q1681.5938,1405.4219 1681.5938,1404.9844 Q1681.5938,1404.5313 1681.9063,1404.2656 Q1682.2188,1403.9844 1682.9375,1403.9844 L1683.4219,1403.9844 L1682.9531,1402.7656 Z M1682.125,1400.7656 L1680.5,1396.7969 L1678.8906,1400.7656 L1682.125,1400.7656 Z " fill="#000000"/><text fill="#000000" font-family="sans-serif" font-size="20" font-style="italic" lengthAdjust="spacing" textLength="70.0488" x="1714.9482" y="1383.7617">&#171;entity&#187;</text><text fill="#000000" font-family="sans-serif" font-size="20" font-style="italic" lengthAdjust="spacing" textLength="56.709" x="1721.6182" y="1408.918">&#171;root&#187;</text><text fill="#000000" font-family="sans-serif" font-size="20" font-style="italic" lengthAdjust="spacing" textLength="108.9453" x="1695.5" y="1434.0742">Collaborator</text><line style="stroke:#181818;stroke-width:0.5;" x1="1665.5" x2="1806.4453" y1="1443.4688" y2="1443.4688"/><text fill="#000000" font-family="sans-serif" font-size="20" lengthAdjust="spacing" textLength="50.0293" x="1670.5" y="1468.2305">name</text><text fill="#000000" font-family="sans-serif" font-size="20" lengthAdjust="spacing" textLength="68.9355" x="1670.5" y="1493.3867">position</text></g><!--class ATCCollaborator--><g class="entity" data-qualified-name="Collaborator_Aggregate.ATCCollaborator" data-source-line="57" id="ent0033"><rect fill="#F1F1F1" height="60.3125" rx="2.5" ry="2.5" style="stroke:#181818;stroke-width:0.5;" width="182.9453" x="2393" y="1600"/><ellipse cx="2409" cy="1630.1563" fill="#ADD1B2" rx="12" ry="12" style="stroke:#181818;stroke-width:1;"/><path d="M2411.1406,1625.0781 Q2411.3281,1624.8281 2411.5469,1624.7031 Q2411.7656,1624.5625 2412.0156,1624.5625 Q2412.4531,1624.5625 2412.7344,1624.875 Q2413.0156,1625.1719 2413.0156,1625.8906 L2413.0156,1627.5938 Q2413.0156,1628.3125 2412.7344,1628.625 Q2412.4531,1628.9375 2412.0156,1628.9375 Q2411.625,1628.9375 2411.375,1628.7031 Q2411.125,1628.4844 2411.0156,1627.875 Q2410.9531,1627.4531 2410.7344,1627.2344 Q2410.3438,1626.7969 2409.625,1626.5313 Q2408.9063,1626.2656 2408.1875,1626.2656 Q2407.2813,1626.2656 2406.5313,1626.6563 Q2405.7813,1627.0469 2405.2031,1627.9375 Q2404.625,1628.8125 2404.625,1630.0156 L2404.625,1631.3125 Q2404.625,1632.7656 2405.6719,1633.7344 Q2406.7344,1634.7031 2408.5938,1634.7031 Q2409.7031,1634.7031 2410.4844,1634.3906 Q2410.9219,1634.2188 2411.4375,1633.7031 Q2411.75,1633.3906 2411.9219,1633.2969 Q2412.0938,1633.2031 2412.3281,1633.2031 Q2412.7188,1633.2031 2413.0156,1633.5156 Q2413.3281,1633.8125 2413.3281,1634.2188 Q2413.3281,1634.625 2412.9219,1635.0938 Q2412.3281,1635.7813 2411.3906,1636.1719 Q2410.125,1636.7031 2408.6094,1636.7031 Q2406.8281,1636.7031 2405.4063,1635.9688 Q2404.25,1635.375 2403.4375,1634.1094 Q2402.625,1632.8438 2402.625,1631.3594 L2402.625,1630 Q2402.625,1628.4375 2403.3438,1627.0938 Q2404.0781,1625.7344 2405.3594,1625 Q2406.6563,1624.2656 2408.1094,1624.2656 Q2408.9688,1624.2656 2409.7188,1624.4688 Q2410.4844,1624.6719 2411.1406,1625.0781 Z " fill="#000000"/><text fill="#000000" font-family="sans-serif" font-size="20" font-style="italic" lengthAdjust="spacing" textLength="70.0488" x="2463.4482" y="1625.7617">&#171;entity&#187;</text><text fill="#000000" font-family="sans-serif" font-size="20" lengthAdjust="spacing" textLength="148.9453" x="2424" y="1650.918">ATCCollaborator</text></g><!--class FlightControlOperator--><g class="entity" data-qualified-name="Collaborator_Aggregate.FlightControlOperator" data-source-line="59" id="ent0034"><rect fill="#F1F1F1" height="60.3125" rx="2.5" ry="2.5" style="stroke:#181818;stroke-width:0.5;" width="226.3047" x="2371.5" y="1500"/><ellipse cx="2387.5" cy="1530.1563" fill="#ADD1B2" rx="12" ry="12" style="stroke:#181818;stroke-width:1;"/><path d="M2389.6406,1525.0781 Q2389.8281,1524.8281 2390.0469,1524.7031 Q2390.2656,1524.5625 2390.5156,1524.5625 Q2390.9531,1524.5625 2391.2344,1524.875 Q2391.5156,1525.1719 2391.5156,1525.8906 L2391.5156,1527.5938 Q2391.5156,1528.3125 2391.2344,1528.625 Q2390.9531,1528.9375 2390.5156,1528.9375 Q2390.125,1528.9375 2389.875,1528.7031 Q2389.625,1528.4844 2389.5156,1527.875 Q2389.4531,1527.4531 2389.2344,1527.2344 Q2388.8438,1526.7969 2388.125,1526.5313 Q2387.4063,1526.2656 2386.6875,1526.2656 Q2385.7813,1526.2656 2385.0313,1526.6563 Q2384.2813,1527.0469 2383.7031,1527.9375 Q2383.125,1528.8125 2383.125,1530.0156 L2383.125,1531.3125 Q2383.125,1532.7656 2384.1719,1533.7344 Q2385.2344,1534.7031 2387.0938,1534.7031 Q2388.2031,1534.7031 2388.9844,1534.3906 Q2389.4219,1534.2188 2389.9375,1533.7031 Q2390.25,1533.3906 2390.4219,1533.2969 Q2390.5938,1533.2031 2390.8281,1533.2031 Q2391.2188,1533.2031 2391.5156,1533.5156 Q2391.8281,1533.8125 2391.8281,1534.2188 Q2391.8281,1534.625 2391.4219,1535.0938 Q2390.8281,1535.7813 2389.8906,1536.1719 Q2388.625,1536.7031 2387.1094,1536.7031 Q2385.3281,1536.7031 2383.9063,1535.9688 Q2382.75,1535.375 2381.9375,1534.1094 Q2381.125,1532.8438 2381.125,1531.3594 L2381.125,1530 Q2381.125,1528.4375 2381.8438,1527.0938 Q2382.5781,1525.7344 2383.8594,1525 Q2385.1563,1524.2656 2386.6094,1524.2656 Q2387.4688,1524.2656 2388.2188,1524.4688 Q2388.9844,1524.6719 2389.6406,1525.0781 Z " fill="#000000"/><text fill="#000000" font-family="sans-serif" font-size="20" font-style="italic" lengthAdjust="spacing" textLength="70.0488" x="2463.6279" y="1525.7617">&#171;entity&#187;</text><text fill="#000000" font-family="sans-serif" font-size="20" lengthAdjust="spacing" textLength="192.3047" x="2402.5" y="1550.918">FlightControlOperator</text></g><!--class WeatherPerson--><g class="entity" data-qualified-name="Collaborator_Aggregate.WeatherPerson" data-source-line="61" id="ent0035"><rect fill="#F1F1F1" height="60.3125" rx="2.5" ry="2.5" style="stroke:#181818;stroke-width:0.5;" width="172.9551" x="2398" y="1400"/><ellipse cx="2414" cy="1430.1563" fill="#ADD1B2" rx="12" ry="12" style="stroke:#181818;stroke-width:1;"/><path d="M2416.1406,1425.0781 Q2416.3281,1424.8281 2416.5469,1424.7031 Q2416.7656,1424.5625 2417.0156,1424.5625 Q2417.4531,1424.5625 2417.7344,1424.875 Q2418.0156,1425.1719 2418.0156,1425.8906 L2418.0156,1427.5938 Q2418.0156,1428.3125 2417.7344,1428.625 Q2417.4531,1428.9375 2417.0156,1428.9375 Q2416.625,1428.9375 2416.375,1428.7031 Q2416.125,1428.4844 2416.0156,1427.875 Q2415.9531,1427.4531 2415.7344,1427.2344 Q2415.3438,1426.7969 2414.625,1426.5313 Q2413.9063,1426.2656 2413.1875,1426.2656 Q2412.2813,1426.2656 2411.5313,1426.6563 Q2410.7813,1427.0469 2410.2031,1427.9375 Q2409.625,1428.8125 2409.625,1430.0156 L2409.625,1431.3125 Q2409.625,1432.7656 2410.6719,1433.7344 Q2411.7344,1434.7031 2413.5938,1434.7031 Q2414.7031,1434.7031 2415.4844,1434.3906 Q2415.9219,1434.2188 2416.4375,1433.7031 Q2416.75,1433.3906 2416.9219,1433.2969 Q2417.0938,1433.2031 2417.3281,1433.2031 Q2417.7188,1433.2031 2418.0156,1433.5156 Q2418.3281,1433.8125 2418.3281,1434.2188 Q2418.3281,1434.625 2417.9219,1435.0938 Q2417.3281,1435.7813 2416.3906,1436.1719 Q2415.125,1436.7031 2413.6094,1436.7031 Q2411.8281,1436.7031 2410.4063,1435.9688 Q2409.25,1435.375 2408.4375,1434.1094 Q2407.625,1432.8438 2407.625,1431.3594 L2407.625,1430 Q2407.625,1428.4375 2408.3438,1427.0938 Q2409.0781,1425.7344 2410.3594,1425 Q2411.6563,1424.2656 2413.1094,1424.2656 Q2413.9688,1424.2656 2414.7188,1424.4688 Q2415.4844,1424.6719 2416.1406,1425.0781 Z " fill="#000000"/><text fill="#000000" font-family="sans-serif" font-size="20" font-style="italic" lengthAdjust="spacing" textLength="70.0488" x="2463.4531" y="1425.7617">&#171;entity&#187;</text><text fill="#000000" font-family="sans-serif" font-size="20" lengthAdjust="spacing" textLength="138.9551" x="2429" y="1450.918">WeatherPerson</text></g><!--class SecurityClearance--><g class="entity" data-qualified-name="Collaborator_Aggregate.SecurityClearance" data-source-line="63" id="ent0036"><rect fill="#F1F1F1" height="93.4688" rx="2.5" ry="2.5" style="stroke:#181818;stroke-width:0.5;" width="197.4082" x="2386" y="1266.5"/><ellipse cx="2402" cy="1296.6563" fill="#ADD1B2" rx="12" ry="12" style="stroke:#181818;stroke-width:1;"/><path d="M2404.1406,1291.5781 Q2404.3281,1291.3281 2404.5469,1291.2031 Q2404.7656,1291.0625 2405.0156,1291.0625 Q2405.4531,1291.0625 2405.7344,1291.375 Q2406.0156,1291.6719 2406.0156,1292.3906 L2406.0156,1294.0938 Q2406.0156,1294.8125 2405.7344,1295.125 Q2405.4531,1295.4375 2405.0156,1295.4375 Q2404.625,1295.4375 2404.375,1295.2031 Q2404.125,1294.9844 2404.0156,1294.375 Q2403.9531,1293.9531 2403.7344,1293.7344 Q2403.3438,1293.2969 2402.625,1293.0313 Q2401.9063,1292.7656 2401.1875,1292.7656 Q2400.2813,1292.7656 2399.5313,1293.1563 Q2398.7813,1293.5469 2398.2031,1294.4375 Q2397.625,1295.3125 2397.625,1296.5156 L2397.625,1297.8125 Q2397.625,1299.2656 2398.6719,1300.2344 Q2399.7344,1301.2031 2401.5938,1301.2031 Q2402.7031,1301.2031 2403.4844,1300.8906 Q2403.9219,1300.7188 2404.4375,1300.2031 Q2404.75,1299.8906 2404.9219,1299.7969 Q2405.0938,1299.7031 2405.3281,1299.7031 Q2405.7188,1299.7031 2406.0156,1300.0156 Q2406.3281,1300.3125 2406.3281,1300.7188 Q2406.3281,1301.125 2405.9219,1301.5938 Q2405.3281,1302.2813 2404.3906,1302.6719 Q2403.125,1303.2031 2401.6094,1303.2031 Q2399.8281,1303.2031 2398.4063,1302.4688 Q2397.25,1301.875 2396.4375,1300.6094 Q2395.625,1299.3438 2395.625,1297.8594 L2395.625,1296.5 Q2395.625,1294.9375 2396.3438,1293.5938 Q2397.0781,1292.2344 2398.3594,1291.5 Q2399.6563,1290.7656 2401.1094,1290.7656 Q2401.9688,1290.7656 2402.7188,1290.9688 Q2403.4844,1291.1719 2404.1406,1291.5781 Z " fill="#000000"/><text fill="#000000" font-family="sans-serif" font-size="20" font-style="italic" lengthAdjust="spacing" textLength="128.9844" x="2434.2119" y="1292.2617">&#171;value object&#187;</text><text fill="#000000" font-family="sans-serif" font-size="20" lengthAdjust="spacing" textLength="163.4082" x="2417" y="1317.418">SecurityClearance</text><line style="stroke:#181818;stroke-width:0.5;" x1="2387" x2="2582.4082" y1="1326.8125" y2="1326.8125"/><text fill="#000000" font-family="sans-serif" font-size="20" lengthAdjust="spacing" textLength="95.5957" x="2392" y="1351.5742">expiryDate</text></g><g class="entity" data-qualified-name="Collaborator_Aggregate.GMN37" data-source-line="66" id="ent0038"><path d="M2701,1283 L2701,1309 L2583,1313 L2701,1317 L2701,1343.3125 A0,0 0 0 0 2701,1343.3125 L3105.5254,1343.3125 A0,0 0 0 0 3105.5254,1343.3125 L3105.5254,1293 L3095.5254,1283 L2701,1283 A0,0 0 0 0 2701,1283" fill="#FEFFDD" style="stroke:#181818;stroke-width:0.5;"/><path d="M3095.5254,1283 L3095.5254,1293 L3105.5254,1293 L3095.5254,1283" fill="#FEFFDD" style="stroke:#181818;stroke-width:0.5;"/><text fill="#000000" font-family="sans-serif" font-size="20" lengthAdjust="spacing" textLength="115.6152" x="2707" y="1308.7617">auto-expires.</text><text fill="#000000" font-family="sans-serif" font-size="20" lengthAdjust="spacing" textLength="383.5254" x="2707" y="1333.918">Updatable by Admin/Backoffice (sec. 3.1.1)</text></g><!--class SkillsAssessment--><g class="entity" data-qualified-name="Collaborator_Aggregate.SkillsAssessment" data-source-line="67" id="ent0040"><rect fill="#F1F1F1" height="93.4688" rx="2.5" ry="2.5" style="stroke:#181818;stroke-width:0.5;" width="189.5957" x="2389.5" y="1133.5"/><ellipse cx="2405.5" cy="1163.6563" fill="#ADD1B2" rx="12" ry="12" style="stroke:#181818;stroke-width:1;"/><path d="M2407.6406,1158.5781 Q2407.8281,1158.3281 2408.0469,1158.2031 Q2408.2656,1158.0625 2408.5156,1158.0625 Q2408.9531,1158.0625 2409.2344,1158.375 Q2409.5156,1158.6719 2409.5156,1159.3906 L2409.5156,1161.0938 Q2409.5156,1161.8125 2409.2344,1162.125 Q2408.9531,1162.4375 2408.5156,1162.4375 Q2408.125,1162.4375 2407.875,1162.2031 Q2407.625,1161.9844 2407.5156,1161.375 Q2407.4531,1160.9531 2407.2344,1160.7344 Q2406.8438,1160.2969 2406.125,1160.0313 Q2405.4063,1159.7656 2404.6875,1159.7656 Q2403.7813,1159.7656 2403.0313,1160.1563 Q2402.2813,1160.5469 2401.7031,1161.4375 Q2401.125,1162.3125 2401.125,1163.5156 L2401.125,1164.8125 Q2401.125,1166.2656 2402.1719,1167.2344 Q2403.2344,1168.2031 2405.0938,1168.2031 Q2406.2031,1168.2031 2406.9844,1167.8906 Q2407.4219,1167.7188 2407.9375,1167.2031 Q2408.25,1166.8906 2408.4219,1166.7969 Q2408.5938,1166.7031 2408.8281,1166.7031 Q2409.2188,1166.7031 2409.5156,1167.0156 Q2409.8281,1167.3125 2409.8281,1167.7188 Q2409.8281,1168.125 2409.4219,1168.5938 Q2408.8281,1169.2813 2407.8906,1169.6719 Q2406.625,1170.2031 2405.1094,1170.2031 Q2403.3281,1170.2031 2401.9063,1169.4688 Q2400.75,1168.875 2399.9375,1167.6094 Q2399.125,1166.3438 2399.125,1164.8594 L2399.125,1163.5 Q2399.125,1161.9375 2399.8438,1160.5938 Q2400.5781,1159.2344 2401.8594,1158.5 Q2403.1563,1157.7656 2404.6094,1157.7656 Q2405.4688,1157.7656 2406.2188,1157.9688 Q2406.9844,1158.1719 2407.6406,1158.5781 Z " fill="#000000"/><text fill="#000000" font-family="sans-serif" font-size="20" font-style="italic" lengthAdjust="spacing" textLength="128.9844" x="2433.8057" y="1159.2617">&#171;value object&#187;</text><text fill="#000000" font-family="sans-serif" font-size="20" lengthAdjust="spacing" textLength="155.5957" x="2420.5" y="1184.418">SkillsAssessment</text><line style="stroke:#181818;stroke-width:0.5;" x1="2390.5" x2="2578.0957" y1="1193.8125" y2="1193.8125"/><text fill="#000000" font-family="sans-serif" font-size="20" lengthAdjust="spacing" textLength="148.9551" x="2395.5" y="1218.5742">assessmentDate</text></g><g class="entity" data-qualified-name="Collaborator_Aggregate.GMN41" data-source-line="70" id="ent0042"><path d="M2739.5,1162.5 L2739.5,1176 L2579.6,1180 L2739.5,1184 L2739.5,1197.6563 A0,0 0 0 0 2739.5,1197.6563 L3067.2969,1197.6563 A0,0 0 0 0 3067.2969,1197.6563 L3067.2969,1172.5 L3057.2969,1162.5 L2739.5,1162.5 A0,0 0 0 0 2739.5,1162.5" fill="#FEFFDD" style="stroke:#181818;stroke-width:0.5;"/><path d="M3057.2969,1162.5 L3057.2969,1172.5 L3067.2969,1172.5 L3057.2969,1162.5" fill="#FEFFDD" style="stroke:#181818;stroke-width:0.5;"/><text fill="#000000" font-family="sans-serif" font-size="20" lengthAdjust="spacing" textLength="306.7969" x="2745.5" y="1188.2617">periodic, every 5 years (sec. 3.1.1)</text></g><!--class SystemUser--><g class="entity" data-qualified-name="Collaborator_Aggregate.SystemUser" data-source-line="71" id="ent0044"><rect fill="#F1F1F1" height="60.3125" rx="2.5" ry="2.5" style="stroke:#181818;stroke-width:0.5;" width="142.9063" x="1664.5" y="1569"/><ellipse cx="1680.5" cy="1599.1563" fill="#ADD1B2" rx="12" ry="12" style="stroke:#181818;stroke-width:1;"/><path d="M1682.6406,1594.0781 Q1682.8281,1593.8281 1683.0469,1593.7031 Q1683.2656,1593.5625 1683.5156,1593.5625 Q1683.9531,1593.5625 1684.2344,1593.875 Q1684.5156,1594.1719 1684.5156,1594.8906 L1684.5156,1596.5938 Q1684.5156,1597.3125 1684.2344,1597.625 Q1683.9531,1597.9375 1683.5156,1597.9375 Q1683.125,1597.9375 1682.875,1597.7031 Q1682.625,1597.4844 1682.5156,1596.875 Q1682.4531,1596.4531 1682.2344,1596.2344 Q1681.8438,1595.7969 1681.125,1595.5313 Q1680.4063,1595.2656 1679.6875,1595.2656 Q1678.7813,1595.2656 1678.0313,1595.6563 Q1677.2813,1596.0469 1676.7031,1596.9375 Q1676.125,1597.8125 1676.125,1599.0156 L1676.125,1600.3125 Q1676.125,1601.7656 1677.1719,1602.7344 Q1678.2344,1603.7031 1680.0938,1603.7031 Q1681.2031,1603.7031 1681.9844,1603.3906 Q1682.4219,1603.2188 1682.9375,1602.7031 Q1683.25,1602.3906 1683.4219,1602.2969 Q1683.5938,1602.2031 1683.8281,1602.2031 Q1684.2188,1602.2031 1684.5156,1602.5156 Q1684.8281,1602.8125 1684.8281,1603.2188 Q1684.8281,1603.625 1684.4219,1604.0938 Q1683.8281,1604.7813 1682.8906,1605.1719 Q1681.625,1605.7031 1680.1094,1605.7031 Q1678.3281,1605.7031 1676.9063,1604.9688 Q1675.75,1604.375 1674.9375,1603.1094 Q1674.125,1601.8438 1674.125,1600.3594 L1674.125,1599 Q1674.125,1597.4375 1674.8438,1596.0938 Q1675.5781,1594.7344 1676.8594,1594 Q1678.1563,1593.2656 1679.6094,1593.2656 Q1680.4688,1593.2656 1681.2188,1593.4688 Q1681.9844,1593.6719 1682.6406,1594.0781 Z " fill="#000000"/><text fill="#000000" font-family="sans-serif" font-size="20" font-style="italic" lengthAdjust="spacing" textLength="70.0488" x="1714.9287" y="1594.7617">&#171;entity&#187;</text><text fill="#000000" font-family="sans-serif" font-size="20" lengthAdjust="spacing" textLength="108.9063" x="1695.5" y="1619.918">SystemUser</text></g><g class="entity" data-qualified-name="Collaborator_Aggregate.GMN45" data-source-line="73" id="ent0046"><path d="M801,1556.5 L801,1641.9688 A0,0 0 0 0 801,1641.9688 L1425.6328,1641.9688 A0,0 0 0 0 1425.6328,1641.9688 L1425.6328,1603 L1664.2,1599 L1425.6328,1595 L1425.6328,1566.5 L1415.6328,1556.5 L801,1556.5 A0,0 0 0 0 801,1556.5" fill="#FEFFDD" style="stroke:#181818;stroke-width:0.5;"/><path d="M1415.6328,1556.5 L1415.6328,1566.5 L1425.6328,1566.5 L1415.6328,1556.5" fill="#FEFFDD" style="stroke:#181818;stroke-width:0.5;"/><text fill="#000000" font-family="sans-serif" font-size="20" lengthAdjust="spacing" textLength="250.1172" x="807" y="1582.2617">EAPLI framework boundary.</text><text fill="#000000" font-family="sans-serif" font-size="20" lengthAdjust="spacing" textLength="603.6328" x="807" y="1607.418">Stores: email (unique, sec. 3.1.1), name, phoneNumber (sec. 3.1.1).</text><text fill="#000000" font-family="sans-serif" font-size="20" lengthAdjust="spacing" textLength="383.5352" x="807" y="1632.5742">Internal details managed by the framework.</text></g><!--class Pilot--><g class="entity" data-qualified-name="Pilot_Aggregate.Pilot" data-source-line="83" id="ent0055"><rect fill="#F1F1F1" height="85.4688" rx="2.5" ry="2.5" style="stroke:#181818;stroke-width:0.5;" width="100.0488" x="474" y="1387.5"/><ellipse cx="490" cy="1430.2344" fill="#ADD1B2" rx="12" ry="12" style="stroke:#181818;stroke-width:1;"/><path d="M492.1406,1425.1563 Q492.3281,1424.9063 492.5469,1424.7813 Q492.7656,1424.6406 493.0156,1424.6406 Q493.4531,1424.6406 493.7344,1424.9531 Q494.0156,1425.25 494.0156,1425.9688 L494.0156,1427.6719 Q494.0156,1428.3906 493.7344,1428.7031 Q493.4531,1429.0156 493.0156,1429.0156 Q492.625,1429.0156 492.375,1428.7813 Q492.125,1428.5625 492.0156,1427.9531 Q491.9531,1427.5313 491.7344,1427.3125 Q491.3438,1426.875 490.625,1426.6094 Q489.9063,1426.3438 489.1875,1426.3438 Q488.2813,1426.3438 487.5313,1426.7344 Q486.7813,1427.125 486.2031,1428.0156 Q485.625,1428.8906 485.625,1430.0938 L485.625,1431.3906 Q485.625,1432.8438 486.6719,1433.8125 Q487.7344,1434.7813 489.5938,1434.7813 Q490.7031,1434.7813 491.4844,1434.4688 Q491.9219,1434.2969 492.4375,1433.7813 Q492.75,1433.4688 492.9219,1433.375 Q493.0938,1433.2813 493.3281,1433.2813 Q493.7188,1433.2813 494.0156,1433.5938 Q494.3281,1433.8906 494.3281,1434.2969 Q494.3281,1434.7031 493.9219,1435.1719 Q493.3281,1435.8594 492.3906,1436.25 Q491.125,1436.7813 489.6094,1436.7813 Q487.8281,1436.7813 486.4063,1436.0469 Q485.25,1435.4531 484.4375,1434.1875 Q483.625,1432.9219 483.625,1431.4375 L483.625,1430.0781 Q483.625,1428.5156 484.3438,1427.1719 Q485.0781,1425.8125 486.3594,1425.0781 Q487.6563,1424.3438 489.1094,1424.3438 Q489.9688,1424.3438 490.7188,1424.5469 Q491.4844,1424.75 492.1406,1425.1563 Z " fill="#000000"/><text fill="#000000" font-family="sans-serif" font-size="20" font-style="italic" lengthAdjust="spacing" textLength="70.0488" x="503" y="1413.2617">&#171;entity&#187;</text><text fill="#000000" font-family="sans-serif" font-size="20" font-style="italic" lengthAdjust="spacing" textLength="56.709" x="509.6699" y="1438.418">&#171;root&#187;</text><text fill="#000000" font-family="sans-serif" font-size="20" lengthAdjust="spacing" textLength="38.9063" x="518.5713" y="1463.5742">Pilot</text></g><!--class Flight--><g class="entity" data-qualified-name="Flight_Aggregate.Flight" data-source-line="90" id="ent0058"><rect fill="#F1F1F1" height="118.625" rx="2.5" ry="2.5" style="stroke:#181818;stroke-width:0.5;" width="204.2949" x="33" y="527.5"/><ellipse cx="97.623" cy="570.2344" fill="#ADD1B2" rx="12" ry="12" style="stroke:#181818;stroke-width:1;"/><path d="M99.7637,565.1563 Q99.9512,564.9063 100.1699,564.7813 Q100.3887,564.6406 100.6387,564.6406 Q101.0762,564.6406 101.3574,564.9531 Q101.6387,565.25 101.6387,565.9688 L101.6387,567.6719 Q101.6387,568.3906 101.3574,568.7031 Q101.0762,569.0156 100.6387,569.0156 Q100.248,569.0156 99.998,568.7813 Q99.748,568.5625 99.6387,567.9531 Q99.5762,567.5313 99.3574,567.3125 Q98.9668,566.875 98.248,566.6094 Q97.5293,566.3438 96.8105,566.3438 Q95.9043,566.3438 95.1543,566.7344 Q94.4043,567.125 93.8262,568.0156 Q93.248,568.8906 93.248,570.0938 L93.248,571.3906 Q93.248,572.8438 94.2949,573.8125 Q95.3574,574.7813 97.2168,574.7813 Q98.3262,574.7813 99.1074,574.4688 Q99.5449,574.2969 100.0605,573.7813 Q100.373,573.4688 100.5449,573.375 Q100.7168,573.2813 100.9512,573.2813 Q101.3418,573.2813 101.6387,573.5938 Q101.9512,573.8906 101.9512,574.2969 Q101.9512,574.7031 101.5449,575.1719 Q100.9512,575.8594 100.0137,576.25 Q98.748,576.7813 97.2324,576.7813 Q95.4512,576.7813 94.0293,576.0469 Q92.873,575.4531 92.0605,574.1875 Q91.248,572.9219 91.248,571.4375 L91.248,570.0781 Q91.248,568.5156 91.9668,567.1719 Q92.7012,565.8125 93.9824,565.0781 Q95.2793,564.3438 96.7324,564.3438 Q97.5918,564.3438 98.3418,564.5469 Q99.1074,564.75 99.7637,565.1563 Z " fill="#000000"/><text fill="#000000" font-family="sans-serif" font-size="20" font-style="italic" lengthAdjust="spacing" textLength="70.0488" x="117.623" y="553.2617">&#171;entity&#187;</text><text fill="#000000" font-family="sans-serif" font-size="20" font-style="italic" lengthAdjust="spacing" textLength="56.709" x="124.293" y="578.418">&#171;root&#187;</text><text fill="#000000" font-family="sans-serif" font-size="20" lengthAdjust="spacing" textLength="48.9063" x="128.1943" y="603.5742">Flight</text><line style="stroke:#181818;stroke-width:0.5;" x1="34" x2="236.2949" y1="612.9688" y2="612.9688"/><text fill="#000000" font-family="sans-serif" font-size="20" lengthAdjust="spacing" textLength="192.2949" x="39" y="637.7305">scheduledArrivalTime</text></g><!--class FlightDesignator--><g class="entity" data-qualified-name="Flight_Aggregate.FlightDesignator" data-source-line="94" id="ent0059"><rect fill="#F1F1F1" height="143.7813" rx="2.5" ry="2.5" style="stroke:#181818;stroke-width:0.5;" width="179.625" x="434" y="269"/><ellipse cx="450" cy="299.1563" fill="#ADD1B2" rx="12" ry="12" style="stroke:#181818;stroke-width:1;"/><path d="M452.1406,294.0781 Q452.3281,293.8281 452.5469,293.7031 Q452.7656,293.5625 453.0156,293.5625 Q453.4531,293.5625 453.7344,293.875 Q454.0156,294.1719 454.0156,294.8906 L454.0156,296.5938 Q454.0156,297.3125 453.7344,297.625 Q453.4531,297.9375 453.0156,297.9375 Q452.625,297.9375 452.375,297.7031 Q452.125,297.4844 452.0156,296.875 Q451.9531,296.4531 451.7344,296.2344 Q451.3438,295.7969 450.625,295.5313 Q449.9063,295.2656 449.1875,295.2656 Q448.2813,295.2656 447.5313,295.6563 Q446.7813,296.0469 446.2031,296.9375 Q445.625,297.8125 445.625,299.0156 L445.625,300.3125 Q445.625,301.7656 446.6719,302.7344 Q447.7344,303.7031 449.5938,303.7031 Q450.7031,303.7031 451.4844,303.3906 Q451.9219,303.2188 452.4375,302.7031 Q452.75,302.3906 452.9219,302.2969 Q453.0938,302.2031 453.3281,302.2031 Q453.7188,302.2031 454.0156,302.5156 Q454.3281,302.8125 454.3281,303.2188 Q454.3281,303.625 453.9219,304.0938 Q453.3281,304.7813 452.3906,305.1719 Q451.125,305.7031 449.6094,305.7031 Q447.8281,305.7031 446.4063,304.9688 Q445.25,304.375 444.4375,303.1094 Q443.625,301.8438 443.625,300.3594 L443.625,299 Q443.625,297.4375 444.3438,296.0938 Q445.0781,294.7344 446.3594,294 Q447.6563,293.2656 449.1094,293.2656 Q449.9688,293.2656 450.7188,293.4688 Q451.4844,293.6719 452.1406,294.0781 Z " fill="#000000"/><text fill="#000000" font-family="sans-serif" font-size="20" font-style="italic" lengthAdjust="spacing" textLength="128.9844" x="473.3203" y="294.7617">&#171;value object&#187;</text><text fill="#000000" font-family="sans-serif" font-size="20" lengthAdjust="spacing" textLength="145.625" x="465" y="319.918">FlightDesignator</text><line style="stroke:#181818;stroke-width:0.5;" x1="435" x2="612.625" y1="329.3125" y2="329.3125"/><text fill="#000000" font-family="sans-serif" font-size="20" lengthAdjust="spacing" textLength="150.0781" x="440" y="354.0742">airlineDesignator</text><text fill="#000000" font-family="sans-serif" font-size="20" lengthAdjust="spacing" textLength="113.3789" x="440" y="379.2305">flightNumber</text><text fill="#000000" font-family="sans-serif" font-size="20" lengthAdjust="spacing" textLength="148.9844" x="440" y="404.3867">operationalSuffix</text></g><g class="entity" data-qualified-name="Flight_Aggregate.GMN60" data-source-line="99" id="ent0061"><path d="M23,311 L23,371.3125 A0,0 0 0 0 23,371.3125 L247.3496,371.3125 A0,0 0 0 0 247.3496,371.3125 L247.3496,345 L433.98,341 L247.3496,337 L247.3496,321 L237.3496,311 L23,311 A0,0 0 0 0 23,311" fill="#FEFFDD" style="stroke:#181818;stroke-width:0.5;"/><path d="M237.3496,311 L237.3496,321 L247.3496,321 L237.3496,311" fill="#FEFFDD" style="stroke:#181818;stroke-width:0.5;"/><text fill="#000000" font-family="sans-serif" font-size="20" lengthAdjust="spacing" textLength="203.3496" x="29" y="336.7617">Format: xxn(n)(n)(n)(a)</text><text fill="#000000" font-family="sans-serif" font-size="20" lengthAdjust="spacing" textLength="148.9746" x="29" y="361.918">unique (sec. 3.2)</text></g><!--class FlightType--><g class="entity" data-qualified-name="Flight_Aggregate.FlightType" data-source-line="101" id="ent0063"><rect fill="#F1F1F1" height="93.4688" rx="2.5" ry="2.5" style="stroke:#181818;stroke-width:0.5;" width="127.3691" x="1050" y="294.5"/><ellipse cx="1066" cy="312.0781" fill="#EB937F" rx="12" ry="12" style="stroke:#181818;stroke-width:1;"/><path d="M1063.9531,313.1406 L1063.9531,316.0781 L1069.0469,316.0781 L1069.0469,314.9844 Q1069.0469,314.2656 1069.3281,313.9688 Q1069.6094,313.6563 1070.0625,313.6563 Q1070.5,313.6563 1070.7813,313.9688 Q1071.0625,314.2656 1071.0625,314.9844 L1071.0625,318.0781 L1061.625,318.0781 Q1060.9063,318.0781 1060.5938,317.7969 Q1060.2969,317.5156 1060.2969,317.0781 Q1060.2969,316.625 1060.6094,316.3594 Q1060.9219,316.0781 1061.625,316.0781 L1061.9375,316.0781 L1061.9375,308.25 L1061.625,308.25 Q1060.9063,308.25 1060.5938,307.9688 Q1060.2969,307.6875 1060.2969,307.2344 Q1060.2969,306.7813 1060.5938,306.5156 Q1060.9063,306.2344 1061.625,306.2344 L1070.6094,306.2344 L1070.6094,309.2813 Q1070.6094,310 1070.3281,310.3125 Q1070.0625,310.6094 1069.625,310.6094 Q1069.1719,310.6094 1068.8906,310.3125 Q1068.6094,310.0156 1068.6094,309.2813 L1068.6094,308.25 L1063.9531,308.25 L1063.9531,311.1406 L1065.7031,311.1406 Q1065.7031,310.3594 1065.8438,310.125 Q1066.1563,309.6563 1066.7031,309.6563 Q1067.1563,309.6563 1067.4219,309.9688 Q1067.7031,310.2656 1067.7031,310.9844 L1067.7031,313.2969 Q1067.7031,313.9531 1067.5469,314.1719 Q1067.2344,314.625 1066.7031,314.625 Q1066.1563,314.625 1065.8438,314.1563 Q1065.7031,313.9219 1065.7031,313.1406 L1063.9531,313.1406 Z " fill="#000000"/><text fill="#000000" font-family="sans-serif" font-size="20" lengthAdjust="spacing" textLength="93.3691" x="1081" y="320.2617">FlightType</text><line style="stroke:#181818;stroke-width:0.5;" x1="1051" x2="1176.3691" y1="329.6563" y2="329.6563"/><text fill="#000000" font-family="sans-serif" font-size="20" lengthAdjust="spacing" textLength="62.2559" x="1056" y="354.418">regular</text><text fill="#000000" font-family="sans-serif" font-size="20" lengthAdjust="spacing" textLength="62.2461" x="1056" y="379.5742">charter</text></g><g class="entity" data-qualified-name="Flight_Aggregate.GMN64" data-source-line="105" id="ent0065"><path d="M1576,76.5 L1576,161.9688 A0,0 0 0 0 1576,161.9688 L1611.98,161.9688 L1177.12,318.59 L1619.98,161.9688 L1896.0625,161.9688 A0,0 0 0 0 1896.0625,161.9688 L1896.0625,86.5 L1886.0625,76.5 L1576,76.5 A0,0 0 0 0 1576,76.5" fill="#FEFFDD" style="stroke:#181818;stroke-width:0.5;"/><path d="M1886.0625,76.5 L1886.0625,86.5 L1896.0625,86.5 L1886.0625,76.5" fill="#FEFFDD" style="stroke:#181818;stroke-width:0.5;"/><text fill="#000000" font-family="sans-serif" font-size="20" lengthAdjust="spacing" textLength="210.1172" x="1582" y="102.2617">Invariant: if regular then</text><text fill="#000000" font-family="sans-serif" font-size="20" lengthAdjust="spacing" textLength="249.0332" x="1582" y="127.418">DepartureSchedule must be</text><text fill="#000000" font-family="sans-serif" font-size="20" lengthAdjust="spacing" textLength="299.0625" x="1582" y="152.5742">RegularSchedule, and vice versa.</text></g><!--class DepartureSchedule--><g class="entity" data-qualified-name="Flight_Aggregate.DepartureSchedule" data-source-line="107" id="ent0067"><rect fill="#F1F1F1" height="60.3125" rx="2.5" ry="2.5" style="stroke:#181818;stroke-width:0.5;" width="206.334" x="1010.5" y="804"/><ellipse cx="1026.5" cy="834.1563" fill="#A9DCDF" rx="12" ry="12" style="stroke:#181818;stroke-width:1;"/><path d="M1028.9531,836.1875 L1024.0781,836.1875 L1023.5938,837.4063 L1024.0781,837.4063 Q1024.8125,837.4063 1025.1094,837.6875 Q1025.4219,837.9531 1025.4219,838.4063 Q1025.4219,838.8438 1025.1094,839.125 Q1024.8125,839.4063 1024.0781,839.4063 L1021.3906,839.4063 Q1020.6719,839.4063 1020.3594,839.125 Q1020.0469,838.8438 1020.0469,838.4063 Q1020.0469,837.9531 1020.375,837.6719 Q1020.7031,837.3906 1021.4375,837.4063 L1024.5781,829.5781 L1023.2813,829.5781 Q1022.5469,829.5781 1022.2344,829.2969 Q1021.9375,829.0156 1021.9375,828.5625 Q1021.9375,828.1094 1022.2344,827.8438 Q1022.5469,827.5625 1023.2813,827.5625 L1027.5938,827.5625 L1031.5781,837.4063 Q1032.2813,837.4063 1032.5156,837.5625 Q1032.9688,837.875 1032.9688,838.4063 Q1032.9688,838.8438 1032.6563,839.125 Q1032.3594,839.4063 1031.6406,839.4063 L1028.9375,839.4063 Q1028.2188,839.4063 1027.9063,839.125 Q1027.5938,838.8438 1027.5938,838.4063 Q1027.5938,837.9531 1027.9063,837.6875 Q1028.2188,837.4063 1028.9375,837.4063 L1029.4219,837.4063 L1028.9531,836.1875 Z M1028.125,834.1875 L1026.5,830.2188 L1024.8906,834.1875 L1028.125,834.1875 Z " fill="#000000"/><text fill="#000000" font-family="sans-serif" font-size="20" font-style="italic" lengthAdjust="spacing" textLength="128.9844" x="1063.1748" y="829.7617">&#171;value object&#187;</text><text fill="#000000" font-family="sans-serif" font-size="20" font-style="italic" lengthAdjust="spacing" textLength="172.334" x="1041.5" y="854.918">DepartureSchedule</text></g><!--class RegularSchedule--><g class="entity" data-qualified-name="Flight_Aggregate.RegularSchedule" data-source-line="110" id="ent0068"><rect fill="#F1F1F1" height="60.3125" rx="2.5" ry="2.5" style="stroke:#181818;stroke-width:0.5;" width="187.4375" x="1642.5" y="804"/><ellipse cx="1658.5" cy="834.1563" fill="#ADD1B2" rx="12" ry="12" style="stroke:#181818;stroke-width:1;"/><path d="M1660.6406,829.0781 Q1660.8281,828.8281 1661.0469,828.7031 Q1661.2656,828.5625 1661.5156,828.5625 Q1661.9531,828.5625 1662.2344,828.875 Q1662.5156,829.1719 1662.5156,829.8906 L1662.5156,831.5938 Q1662.5156,832.3125 1662.2344,832.625 Q1661.9531,832.9375 1661.5156,832.9375 Q1661.125,832.9375 1660.875,832.7031 Q1660.625,832.4844 1660.5156,831.875 Q1660.4531,831.4531 1660.2344,831.2344 Q1659.8438,830.7969 1659.125,830.5313 Q1658.4063,830.2656 1657.6875,830.2656 Q1656.7813,830.2656 1656.0313,830.6563 Q1655.2813,831.0469 1654.7031,831.9375 Q1654.125,832.8125 1654.125,834.0156 L1654.125,835.3125 Q1654.125,836.7656 1655.1719,837.7344 Q1656.2344,838.7031 1658.0938,838.7031 Q1659.2031,838.7031 1659.9844,838.3906 Q1660.4219,838.2188 1660.9375,837.7031 Q1661.25,837.3906 1661.4219,837.2969 Q1661.5938,837.2031 1661.8281,837.2031 Q1662.2188,837.2031 1662.5156,837.5156 Q1662.8281,837.8125 1662.8281,838.2188 Q1662.8281,838.625 1662.4219,839.0938 Q1661.8281,839.7813 1660.8906,840.1719 Q1659.625,840.7031 1658.1094,840.7031 Q1656.3281,840.7031 1654.9063,839.9688 Q1653.75,839.375 1652.9375,838.1094 Q1652.125,836.8438 1652.125,835.3594 L1652.125,834 Q1652.125,832.4375 1652.8438,831.0938 Q1653.5781,829.7344 1654.8594,829 Q1656.1563,828.2656 1657.6094,828.2656 Q1658.4688,828.2656 1659.2188,828.4688 Q1659.9844,828.6719 1660.6406,829.0781 Z " fill="#000000"/><text fill="#000000" font-family="sans-serif" font-size="20" font-style="italic" lengthAdjust="spacing" textLength="128.9844" x="1685.7266" y="829.7617">&#171;value object&#187;</text><text fill="#000000" font-family="sans-serif" font-size="20" lengthAdjust="spacing" textLength="153.4375" x="1673.5" y="854.918">RegularSchedule</text></g><g class="entity" data-qualified-name="Flight_Aggregate.GMN69" data-source-line="112" id="ent0070"><path d="M1960,816.5 L1960,830 L1829.57,834 L1960,838 L1960,851.6563 A0,0 0 0 0 1960,851.6563 L2265.0332,851.6563 A0,0 0 0 0 2265.0332,851.6563 L2265.0332,826.5 L2255.0332,816.5 L1960,816.5 A0,0 0 0 0 1960,816.5" fill="#FEFFDD" style="stroke:#181818;stroke-width:0.5;"/><path d="M2255.0332,816.5 L2255.0332,826.5 L2265.0332,826.5 L2255.0332,816.5" fill="#FEFFDD" style="stroke:#181818;stroke-width:0.5;"/><text fill="#000000" font-family="sans-serif" font-size="20" lengthAdjust="spacing" textLength="284.0332" x="1966" y="842.2617">Used when FlightType = regular</text></g><!--class ScheduleEntry--><g class="entity" data-qualified-name="Flight_Aggregate.ScheduleEntry" data-source-line="114" id="ent0072"><rect fill="#F1F1F1" height="118.625" rx="2.5" ry="2.5" style="stroke:#181818;stroke-width:0.5;" width="164.0781" x="1654" y="618.5"/><ellipse cx="1670" cy="648.6563" fill="#ADD1B2" rx="12" ry="12" style="stroke:#181818;stroke-width:1;"/><path d="M1672.1406,643.5781 Q1672.3281,643.3281 1672.5469,643.2031 Q1672.7656,643.0625 1673.0156,643.0625 Q1673.4531,643.0625 1673.7344,643.375 Q1674.0156,643.6719 1674.0156,644.3906 L1674.0156,646.0938 Q1674.0156,646.8125 1673.7344,647.125 Q1673.4531,647.4375 1673.0156,647.4375 Q1672.625,647.4375 1672.375,647.2031 Q1672.125,646.9844 1672.0156,646.375 Q1671.9531,645.9531 1671.7344,645.7344 Q1671.3438,645.2969 1670.625,645.0313 Q1669.9063,644.7656 1669.1875,644.7656 Q1668.2813,644.7656 1667.5313,645.1563 Q1666.7813,645.5469 1666.2031,646.4375 Q1665.625,647.3125 1665.625,648.5156 L1665.625,649.8125 Q1665.625,651.2656 1666.6719,652.2344 Q1667.7344,653.2031 1669.5938,653.2031 Q1670.7031,653.2031 1671.4844,652.8906 Q1671.9219,652.7188 1672.4375,652.2031 Q1672.75,651.8906 1672.9219,651.7969 Q1673.0938,651.7031 1673.3281,651.7031 Q1673.7188,651.7031 1674.0156,652.0156 Q1674.3281,652.3125 1674.3281,652.7188 Q1674.3281,653.125 1673.9219,653.5938 Q1673.3281,654.2813 1672.3906,654.6719 Q1671.125,655.2031 1669.6094,655.2031 Q1667.8281,655.2031 1666.4063,654.4688 Q1665.25,653.875 1664.4375,652.6094 Q1663.625,651.3438 1663.625,649.8594 L1663.625,648.5 Q1663.625,646.9375 1664.3438,645.5938 Q1665.0781,644.2344 1666.3594,643.5 Q1667.6563,642.7656 1669.1094,642.7656 Q1669.9688,642.7656 1670.7188,642.9688 Q1671.4844,643.1719 1672.1406,643.5781 Z " fill="#000000"/><text fill="#000000" font-family="sans-serif" font-size="20" font-style="italic" lengthAdjust="spacing" textLength="128.9844" x="1685.5469" y="644.2617">&#171;value object&#187;</text><text fill="#000000" font-family="sans-serif" font-size="20" lengthAdjust="spacing" textLength="130.0781" x="1685" y="669.418">ScheduleEntry</text><line style="stroke:#181818;stroke-width:0.5;" x1="1655" x2="1817.0781" y1="678.8125" y2="678.8125"/><text fill="#000000" font-family="sans-serif" font-size="20" lengthAdjust="spacing" textLength="104.4824" x="1660" y="703.5742">dayOfWeek</text><text fill="#000000" font-family="sans-serif" font-size="20" lengthAdjust="spacing" textLength="130.0586" x="1660" y="728.7305">departureTime</text></g><g class="entity" data-qualified-name="Flight_Aggregate.GMN73" data-source-line="118" id="ent0074"><path d="M1957,648 L1957,674 L1818.26,678 L1957,682 L1957,708.3125 A0,0 0 0 0 1957,708.3125 L2267.502,708.3125 A0,0 0 0 0 2267.502,708.3125 L2267.502,658 L2257.502,648 L1957,648 A0,0 0 0 0 1957,648" fill="#FEFFDD" style="stroke:#181818;stroke-width:0.5;"/><path d="M2257.502,648 L2257.502,658 L2267.502,658 L2257.502,648" fill="#FEFFDD" style="stroke:#181818;stroke-width:0.5;"/><text fill="#000000" font-family="sans-serif" font-size="20" lengthAdjust="spacing" textLength="201.6602" x="1963" y="673.7617">Client: "Monday 12:00;</text><text fill="#000000" font-family="sans-serif" font-size="20" lengthAdjust="spacing" textLength="289.502" x="1963" y="698.918">Tuesday 12:30; Thursday 11:30"</text></g><!--class CharterSchedule--><g class="entity" data-qualified-name="Flight_Aggregate.CharterSchedule" data-source-line="120" id="ent0076"><rect fill="#F1F1F1" height="118.625" rx="2.5" ry="2.5" style="stroke:#181818;stroke-width:0.5;" width="184.0879" x="1644" y="904.5"/><ellipse cx="1660" cy="934.6563" fill="#ADD1B2" rx="12" ry="12" style="stroke:#181818;stroke-width:1;"/><path d="M1662.1406,929.5781 Q1662.3281,929.3281 1662.5469,929.2031 Q1662.7656,929.0625 1663.0156,929.0625 Q1663.4531,929.0625 1663.7344,929.375 Q1664.0156,929.6719 1664.0156,930.3906 L1664.0156,932.0938 Q1664.0156,932.8125 1663.7344,933.125 Q1663.4531,933.4375 1663.0156,933.4375 Q1662.625,933.4375 1662.375,933.2031 Q1662.125,932.9844 1662.0156,932.375 Q1661.9531,931.9531 1661.7344,931.7344 Q1661.3438,931.2969 1660.625,931.0313 Q1659.9063,930.7656 1659.1875,930.7656 Q1658.2813,930.7656 1657.5313,931.1563 Q1656.7813,931.5469 1656.2031,932.4375 Q1655.625,933.3125 1655.625,934.5156 L1655.625,935.8125 Q1655.625,937.2656 1656.6719,938.2344 Q1657.7344,939.2031 1659.5938,939.2031 Q1660.7031,939.2031 1661.4844,938.8906 Q1661.9219,938.7188 1662.4375,938.2031 Q1662.75,937.8906 1662.9219,937.7969 Q1663.0938,937.7031 1663.3281,937.7031 Q1663.7188,937.7031 1664.0156,938.0156 Q1664.3281,938.3125 1664.3281,938.7188 Q1664.3281,939.125 1663.9219,939.5938 Q1663.3281,940.2813 1662.3906,940.6719 Q1661.125,941.2031 1659.6094,941.2031 Q1657.8281,941.2031 1656.4063,940.4688 Q1655.25,939.875 1654.4375,938.6094 Q1653.625,937.3438 1653.625,935.8594 L1653.625,934.5 Q1653.625,932.9375 1654.3438,931.5938 Q1655.0781,930.2344 1656.3594,929.5 Q1657.6563,928.7656 1659.1094,928.7656 Q1659.9688,928.7656 1660.7188,928.9688 Q1661.4844,929.1719 1662.1406,929.5781 Z " fill="#000000"/><text fill="#000000" font-family="sans-serif" font-size="20" font-style="italic" lengthAdjust="spacing" textLength="128.9844" x="1685.5518" y="930.2617">&#171;value object&#187;</text><text fill="#000000" font-family="sans-serif" font-size="20" lengthAdjust="spacing" textLength="150.0879" x="1675" y="955.418">CharterSchedule</text><line style="stroke:#181818;stroke-width:0.5;" x1="1645" x2="1827.0879" y1="964.8125" y2="964.8125"/><text fill="#000000" font-family="sans-serif" font-size="20" lengthAdjust="spacing" textLength="127.8613" x="1650" y="989.5742">departureDate</text><text fill="#000000" font-family="sans-serif" font-size="20" lengthAdjust="spacing" textLength="130.0586" x="1650" y="1014.7305">departureTime</text></g><g class="entity" data-qualified-name="Flight_Aggregate.GMN77" data-source-line="124" id="ent0078"><path d="M1957,934 L1957,960 L1828.13,964 L1957,968 L1957,994.3125 A0,0 0 0 0 1957,994.3125 L2267.5801,994.3125 A0,0 0 0 0 2267.5801,994.3125 L2267.5801,944 L2257.5801,934 L1957,934 A0,0 0 0 0 1957,934" fill="#FEFFDD" style="stroke:#181818;stroke-width:0.5;"/><path d="M2257.5801,934 L2257.5801,944 L2267.5801,944 L2257.5801,934" fill="#FEFFDD" style="stroke:#181818;stroke-width:0.5;"/><text fill="#000000" font-family="sans-serif" font-size="20" lengthAdjust="spacing" textLength="289.5801" x="1963" y="959.7617">Used when FlightType = charter.</text><text fill="#000000" font-family="sans-serif" font-size="20" lengthAdjust="spacing" textLength="214.3066" x="1963" y="984.918">Client: "single instance."</text></g><!--class FlightPlan--><g class="entity" data-qualified-name="Flight_Aggregate.FlightPlan" data-source-line="126" id="ent0080"><rect fill="#F1F1F1" height="60.3125" rx="2.5" ry="2.5" style="stroke:#181818;stroke-width:0.5;" width="122.9355" x="1052" y="445"/><ellipse cx="1068" cy="475.1563" fill="#ADD1B2" rx="12" ry="12" style="stroke:#181818;stroke-width:1;"/><path d="M1070.1406,470.0781 Q1070.3281,469.8281 1070.5469,469.7031 Q1070.7656,469.5625 1071.0156,469.5625 Q1071.4531,469.5625 1071.7344,469.875 Q1072.0156,470.1719 1072.0156,470.8906 L1072.0156,472.5938 Q1072.0156,473.3125 1071.7344,473.625 Q1071.4531,473.9375 1071.0156,473.9375 Q1070.625,473.9375 1070.375,473.7031 Q1070.125,473.4844 1070.0156,472.875 Q1069.9531,472.4531 1069.7344,472.2344 Q1069.3438,471.7969 1068.625,471.5313 Q1067.9063,471.2656 1067.1875,471.2656 Q1066.2813,471.2656 1065.5313,471.6563 Q1064.7813,472.0469 1064.2031,472.9375 Q1063.625,473.8125 1063.625,475.0156 L1063.625,476.3125 Q1063.625,477.7656 1064.6719,478.7344 Q1065.7344,479.7031 1067.5938,479.7031 Q1068.7031,479.7031 1069.4844,479.3906 Q1069.9219,479.2188 1070.4375,478.7031 Q1070.75,478.3906 1070.9219,478.2969 Q1071.0938,478.2031 1071.3281,478.2031 Q1071.7188,478.2031 1072.0156,478.5156 Q1072.3281,478.8125 1072.3281,479.2188 Q1072.3281,479.625 1071.9219,480.0938 Q1071.3281,480.7813 1070.3906,481.1719 Q1069.125,481.7031 1067.6094,481.7031 Q1065.8281,481.7031 1064.4063,480.9688 Q1063.25,480.375 1062.4375,479.1094 Q1061.625,477.8438 1061.625,476.3594 L1061.625,475 Q1061.625,473.4375 1062.3438,472.0938 Q1063.0781,470.7344 1064.3594,470 Q1065.6563,469.2656 1067.1094,469.2656 Q1067.9688,469.2656 1068.7188,469.4688 Q1069.4844,469.6719 1070.1406,470.0781 Z " fill="#000000"/><text fill="#000000" font-family="sans-serif" font-size="20" font-style="italic" lengthAdjust="spacing" textLength="70.0488" x="1092.4434" y="470.7617">&#171;entity&#187;</text><text fill="#000000" font-family="sans-serif" font-size="20" lengthAdjust="spacing" textLength="88.9355" x="1083" y="495.918">FlightPlan</text></g><g class="entity" data-qualified-name="Flight_Aggregate.GMN81" data-source-line="128" id="ent0082"><path d="M1599,493.5 L1599,518.6 L1175.13,480.96 L1599,526.6 L1599,578.9688 A0,0 0 0 0 1599,578.9688 L1873.4863,578.9688 A0,0 0 0 0 1873.4863,578.9688 L1873.4863,503.5 L1863.4863,493.5 L1599,493.5 A0,0 0 0 0 1599,493.5" fill="#FEFFDD" style="stroke:#181818;stroke-width:0.5;"/><path d="M1863.4863,493.5 L1863.4863,503.5 L1873.4863,503.5 L1863.4863,493.5" fill="#FEFFDD" style="stroke:#181818;stroke-width:0.5;"/><text fill="#000000" font-family="sans-serif" font-size="20" lengthAdjust="spacing" textLength="238.457" x="1605" y="519.2617">Lifecycle: draft -&gt; validated</text><text fill="#000000" font-family="sans-serif" font-size="20" lengthAdjust="spacing" textLength="253.4863" x="1605" y="544.418">US080 creates, US082 adds</text><text fill="#000000" font-family="sans-serif" font-size="20" lengthAdjust="spacing" textLength="233.4668" x="1605" y="569.5742">weather, US085 validates.</text></g><!--class FlightPlanStatus--><g class="entity" data-qualified-name="Flight_Aggregate.FlightPlanStatus" data-source-line="130" id="ent0084"><rect fill="#F1F1F1" height="93.4688" rx="2.5" ry="2.5" style="stroke:#181818;stroke-width:0.5;" width="179.6348" x="1646" y="360.5"/><ellipse cx="1662" cy="378.0781" fill="#EB937F" rx="12" ry="12" style="stroke:#181818;stroke-width:1;"/><path d="M1659.9531,379.1406 L1659.9531,382.0781 L1665.0469,382.0781 L1665.0469,380.9844 Q1665.0469,380.2656 1665.3281,379.9688 Q1665.6094,379.6563 1666.0625,379.6563 Q1666.5,379.6563 1666.7813,379.9688 Q1667.0625,380.2656 1667.0625,380.9844 L1667.0625,384.0781 L1657.625,384.0781 Q1656.9063,384.0781 1656.5938,383.7969 Q1656.2969,383.5156 1656.2969,383.0781 Q1656.2969,382.625 1656.6094,382.3594 Q1656.9219,382.0781 1657.625,382.0781 L1657.9375,382.0781 L1657.9375,374.25 L1657.625,374.25 Q1656.9063,374.25 1656.5938,373.9688 Q1656.2969,373.6875 1656.2969,373.2344 Q1656.2969,372.7813 1656.5938,372.5156 Q1656.9063,372.2344 1657.625,372.2344 L1666.6094,372.2344 L1666.6094,375.2813 Q1666.6094,376 1666.3281,376.3125 Q1666.0625,376.6094 1665.625,376.6094 Q1665.1719,376.6094 1664.8906,376.3125 Q1664.6094,376.0156 1664.6094,375.2813 L1664.6094,374.25 L1659.9531,374.25 L1659.9531,377.1406 L1661.7031,377.1406 Q1661.7031,376.3594 1661.8438,376.125 Q1662.1563,375.6563 1662.7031,375.6563 Q1663.1563,375.6563 1663.4219,375.9688 Q1663.7031,376.2656 1663.7031,376.9844 L1663.7031,379.2969 Q1663.7031,379.9531 1663.5469,380.1719 Q1663.2344,380.625 1662.7031,380.625 Q1662.1563,380.625 1661.8438,380.1563 Q1661.7031,379.9219 1661.7031,379.1406 L1659.9531,379.1406 Z " fill="#000000"/><text fill="#000000" font-family="sans-serif" font-size="20" lengthAdjust="spacing" textLength="145.6348" x="1677" y="386.2617">FlightPlanStatus</text><line style="stroke:#181818;stroke-width:0.5;" x1="1647" x2="1824.6348" y1="395.6563" y2="395.6563"/><text fill="#000000" font-family="sans-serif" font-size="20" lengthAdjust="spacing" textLength="40.0195" x="1652" y="420.418">draft</text><text fill="#000000" font-family="sans-serif" font-size="20" lengthAdjust="spacing" textLength="80.0586" x="1652" y="445.5742">validated</text></g><!--class FuelQuantity--><g class="entity" data-qualified-name="Flight_Aggregate.FuelQuantity" data-source-line="135" id="ent0085"><rect fill="#F1F1F1" height="118.625" rx="2.5" ry="2.5" style="stroke:#181818;stroke-width:0.5;" width="158.9844" x="1656.5" y="201.5"/><ellipse cx="1672.5" cy="231.6563" fill="#ADD1B2" rx="12" ry="12" style="stroke:#181818;stroke-width:1;"/><path d="M1674.6406,226.5781 Q1674.8281,226.3281 1675.0469,226.2031 Q1675.2656,226.0625 1675.5156,226.0625 Q1675.9531,226.0625 1676.2344,226.375 Q1676.5156,226.6719 1676.5156,227.3906 L1676.5156,229.0938 Q1676.5156,229.8125 1676.2344,230.125 Q1675.9531,230.4375 1675.5156,230.4375 Q1675.125,230.4375 1674.875,230.2031 Q1674.625,229.9844 1674.5156,229.375 Q1674.4531,228.9531 1674.2344,228.7344 Q1673.8438,228.2969 1673.125,228.0313 Q1672.4063,227.7656 1671.6875,227.7656 Q1670.7813,227.7656 1670.0313,228.1563 Q1669.2813,228.5469 1668.7031,229.4375 Q1668.125,230.3125 1668.125,231.5156 L1668.125,232.8125 Q1668.125,234.2656 1669.1719,235.2344 Q1670.2344,236.2031 1672.0938,236.2031 Q1673.2031,236.2031 1673.9844,235.8906 Q1674.4219,235.7188 1674.9375,235.2031 Q1675.25,234.8906 1675.4219,234.7969 Q1675.5938,234.7031 1675.8281,234.7031 Q1676.2188,234.7031 1676.5156,235.0156 Q1676.8281,235.3125 1676.8281,235.7188 Q1676.8281,236.125 1676.4219,236.5938 Q1675.8281,237.2813 1674.8906,237.6719 Q1673.625,238.2031 1672.1094,238.2031 Q1670.3281,238.2031 1668.9063,237.4688 Q1667.75,236.875 1666.9375,235.6094 Q1666.125,234.3438 1666.125,232.8594 L1666.125,231.5 Q1666.125,229.9375 1666.8438,228.5938 Q1667.5781,227.2344 1668.8594,226.5 Q1670.1563,225.7656 1671.6094,225.7656 Q1672.4688,225.7656 1673.2188,225.9688 Q1673.9844,226.1719 1674.6406,226.5781 Z " fill="#000000"/><text fill="#000000" font-family="sans-serif" font-size="20" font-style="italic" lengthAdjust="spacing" textLength="128.9844" x="1685.5" y="227.2617">&#171;value object&#187;</text><text fill="#000000" font-family="sans-serif" font-size="20" lengthAdjust="spacing" textLength="113.3887" x="1693.2979" y="252.418">FuelQuantity</text><line style="stroke:#181818;stroke-width:0.5;" x1="1657.5" x2="1814.4844" y1="261.8125" y2="261.8125"/><text fill="#000000" font-family="sans-serif" font-size="20" lengthAdjust="spacing" textLength="47.8125" x="1662.5" y="286.5742">value</text><text fill="#000000" font-family="sans-serif" font-size="20" lengthAdjust="spacing" textLength="32.2461" x="1662.5" y="311.7305">unit</text></g><g class="entity" data-qualified-name="Flight_Aggregate.GMN86" data-source-line="139" id="ent0087"><path d="M1989.5,243.5 L1989.5,257 L1815.51,261 L1989.5,265 L1989.5,278.6563 A0,0 0 0 0 1989.5,278.6563 L2235.041,278.6563 A0,0 0 0 0 2235.041,278.6563 L2235.041,253.5 L2225.041,243.5 L1989.5,243.5 A0,0 0 0 0 1989.5,243.5" fill="#FEFFDD" style="stroke:#181818;stroke-width:0.5;"/><path d="M2225.041,243.5 L2225.041,253.5 L2235.041,253.5 L2225.041,243.5" fill="#FEFFDD" style="stroke:#181818;stroke-width:0.5;"/><text fill="#000000" font-family="sans-serif" font-size="20" lengthAdjust="spacing" textLength="224.541" x="1995.5" y="269.2617">must be positive (US080)</text></g><!--reverse link AircraftModel to ModelID--><g class="link" data-entity-1="ent0003" data-entity-2="ent0004" data-link-type="composition" data-source-line="43" id="lnk25"><path codeLine="43" d="M1201.7233,2234.7691 C1385.7833,2261.7291 1845.06,2328.98 2032.68,2356.46" fill="none" id="AircraftModel-backto-ModelID" style="stroke:#181818;stroke-width:1;"/><polygon fill="#181818" points="1189.85,2233.03,1195.2069,2237.8573,1201.7233,2234.7691,1196.3664,2229.9418,1189.85,2233.03" style="stroke:#181818;stroke-width:1;"/><text fill="#000000" font-family="sans-serif" font-size="20" lengthAdjust="spacing" textLength="103.3984" x="1684.5" y="2285.7617">identifiedBy</text></g><!--link AircraftModel to AircraftType--><g class="link" data-entity-1="ent0003" data-entity-2="ent0008" data-link-type="dependency" data-source-line="44" id="lnk26"><path codeLine="44" d="M1189.85,2222 C1376.86,2222 1854.23,2222 2035.48,2222" fill="none" id="AircraftModel-to-AircraftType" style="stroke:#181818;stroke-width:1;"/><polygon fill="#181818" points="2041.48,2222,2032.48,2218,2036.48,2222,2032.48,2226,2041.48,2222" style="stroke:#181818;stroke-width:1;"/><text fill="#000000" font-family="sans-serif" font-size="20" lengthAdjust="spacing" textLength="61.1426" x="1705.5" y="2216.7617">ofType</text></g><!--reverse link AircraftModel to AircraftWeights--><g class="link" data-entity-1="ent0003" data-entity-2="ent0009" data-link-type="composition" data-source-line="45" id="lnk27"><path codeLine="45" d="M1201.6508,2205.9125 C1384.0108,2172.2625 1836.38,2088.77 2027.41,2053.52" fill="none" id="AircraftModel-backto-AircraftWeights" style="stroke:#181818;stroke-width:1;"/><polygon fill="#181818" points="1189.85,2208.09,1196.4762,2210.9348,1201.6508,2205.9125,1195.0245,2203.0676,1189.85,2208.09" style="stroke:#181818;stroke-width:1;"/><text fill="#000000" font-family="sans-serif" font-size="20" lengthAdjust="spacing" textLength="67.8125" x="1702.5" y="2073.7617">weights</text></g><!--reverse link AircraftModel to AircraftPerformance--><g class="link" data-entity-1="ent0003" data-entity-2="ent0013" data-link-type="composition" data-source-line="46" id="lnk28"><path codeLine="46" d="M1200.6955,2188.0033 C1291.9155,2152.0833 1439.46,2094.25 1576,2042 C1725.2,1984.9 1898.35,1920.19 2006.44,1879.98" fill="none" id="AircraftModel-backto-AircraftPerformance" style="stroke:#181818;stroke-width:1;"/><polygon fill="#181818" points="1189.53,2192.4,1196.5783,2193.9235,1200.6955,2188.0033,1193.6472,2186.4798,1189.53,2192.4" style="stroke:#181818;stroke-width:1;"/><text fill="#000000" font-family="sans-serif" font-size="20" lengthAdjust="spacing" textLength="78.9063" x="1697" y="1916.7617">performs</text></g><!--reverse link AircraftModel to AerodynamicCoefficients--><g class="link" data-entity-1="ent0003" data-entity-2="ent0017" data-link-type="composition" data-source-line="47" id="lnk29"><path codeLine="47" d="M1187.6573,2271.1267 C1274.2073,2327.8367 1426.08,2421.6 1576,2483 C1711.31,2538.41 1874.54,2578.76 1984.95,2602.41" fill="none" id="AircraftModel-backto-AerodynamicCoefficients" style="stroke:#181818;stroke-width:1;"/><polygon fill="#181818" points="1177.62,2264.55,1180.4464,2271.1841,1187.6573,2271.1267,1184.8309,2264.4926,1177.62,2264.55" style="stroke:#181818;stroke-width:1;"/><text fill="#000000" font-family="sans-serif" font-size="20" lengthAdjust="spacing" textLength="143.3984" x="1664.5" y="2477.7617">characterisedBy</text></g><!--reverse link AircraftModel to AircraftVariant--><g class="link" data-entity-1="ent0003" data-entity-2="ent0021" data-link-type="composition" data-source-line="48" id="lnk30"><path codeLine="48" d="M1200.9793,2253.4705 C1291.6993,2285.9105 1437.96,2336.1 1576,2373 C1736.12,2415.8 1926.76,2452.29 2031.92,2471.19" fill="none" id="AircraftModel-backto-AircraftVariant" style="stroke:#181818;stroke-width:1;"/><polygon fill="#181818" points="1189.68,2249.43,1193.9828,2255.2167,1200.9793,2253.4705,1196.6765,2247.6838,1189.68,2249.43" style="stroke:#181818;stroke-width:1;"/><text fill="#000000" font-family="sans-serif" font-size="20" lengthAdjust="spacing" textLength="91.1328" x="1690.5" y="2367.7617">comprises</text></g><!--reverse link Collaborator to ATCCollaborator--><g class="link" data-entity-1="ent0032" data-entity-2="ent0033" data-link-type="extension" data-source-line="74" id="lnk48"><path codeLine="74" d="M1824.5103,1467.4429 C1867.1603,1485.0329 1906.22,1499.74 1957,1515 C2107.54,1560.23 2287.24,1595.62 2393,1614.61" fill="none" id="Collaborator-backto-ATCCollaborator" style="stroke:#181818;stroke-width:1;"/><polygon fill="none" points="1807.87,1460.58,1822.2227,1472.9897,1826.798,1461.8961,1807.87,1460.58" style="stroke:#181818;stroke-width:1;"/></g><!--reverse link Collaborator to FlightControlOperator--><g class="link" data-entity-1="ent0032" data-entity-2="ent0034" data-link-type="extension" data-source-line="75" id="lnk49"><path codeLine="75" d="M1825.4106,1441.8405 C1955.3406,1459.2505 2215.53,1494.1 2371.49,1515" fill="none" id="Collaborator-backto-FlightControlOperator" style="stroke:#181818;stroke-width:1;"/><polygon fill="none" points="1807.57,1439.45,1824.6137,1447.7874,1826.2074,1435.8937,1807.57,1439.45" style="stroke:#181818;stroke-width:1;"/></g><!--reverse link Collaborator to WeatherPerson--><g class="link" data-entity-1="ent0032" data-entity-2="ent0035" data-link-type="extension" data-source-line="76" id="lnk50"><path codeLine="76" d="M1825.57,1430 C1963.22,1430 2249.1,1430 2397.95,1430" fill="none" id="Collaborator-backto-WeatherPerson" style="stroke:#181818;stroke-width:1;"/><polygon fill="none" points="1807.57,1430,1825.57,1436,1825.57,1424,1807.57,1430" style="stroke:#181818;stroke-width:1;"/></g><!--reverse link Collaborator to SecurityClearance--><g class="link" data-entity-1="ent0032" data-entity-2="ent0036" data-link-type="composition" data-source-line="77" id="lnk51"><path codeLine="77" d="M1819.4252,1417.0815 C1953.4452,1396.0715 2233.17,1352.23 2385.85,1328.31" fill="none" id="Collaborator-backto-SecurityClearance" style="stroke:#181818;stroke-width:1;"/><polygon fill="#181818" points="1807.57,1418.94,1814.1171,1421.9625,1819.4252,1417.0815,1812.8781,1414.059,1807.57,1418.94" style="stroke:#181818;stroke-width:1;"/><text fill="#000000" font-family="sans-serif" font-size="20" lengthAdjust="spacing" textLength="86.709" x="2069.5" y="1338.7617">hasActive</text></g><!--reverse link Collaborator to SkillsAssessment--><g class="link" data-entity-1="ent0032" data-entity-2="ent0040" data-link-type="composition" data-source-line="78" id="lnk52"><path codeLine="78" d="M1818.1192,1377.5623 C1860.0892,1351.9123 1904.85,1327.42 1957,1307 C2103,1249.83 2282.18,1213.25 2389.38,1194.7" fill="none" id="Collaborator-backto-SkillsAssessment" style="stroke:#181818;stroke-width:1;"/><polygon fill="#181818" points="1807.88,1383.82,1815.0855,1384.1042,1818.1192,1377.5623,1810.9137,1377.2781,1807.88,1383.82" style="stroke:#181818;stroke-width:1;"/><text fill="#000000" font-family="sans-serif" font-size="20" lengthAdjust="spacing" textLength="84.4922" x="2070.5" y="1208.7617">assessed</text></g><!--link Collaborator to SystemUser--><g class="link" data-entity-1="ent0032" data-entity-2="ent0044" data-link-type="dependency" data-source-line="79" id="lnk53"><path codeLine="79" d="M1736,1502.08 C1736,1525.48 1736,1544.18 1736,1562.79" fill="none" id="Collaborator-to-SystemUser" style="stroke:#181818;stroke-width:1;"/><polygon fill="#181818" points="1736,1568.79,1740,1559.79,1736,1563.79,1732,1559.79,1736,1568.79" style="stroke:#181818;stroke-width:1;"/><text fill="#000000" font-family="sans-serif" font-size="20" lengthAdjust="spacing" textLength="75.5957" x="1682" y="1543.7617">linkedTo</text></g><!--link Pilot to Collaborator--><g class="link" data-entity-1="ent0055" data-entity-2="ent0032" data-link-type="extension" data-source-line="86" id="lnk56"><path codeLine="86" d="M574.31,1430 C763.32,1430 1424.08,1430 1646.14,1430" fill="none" id="Pilot-to-Collaborator" style="stroke:#181818;stroke-width:1;"/><polygon fill="none" points="1664.14,1430,1646.14,1424,1646.14,1436,1664.14,1430" style="stroke:#181818;stroke-width:1;"/><text fill="#000000" font-family="sans-serif" font-size="20" lengthAdjust="spacing" textLength="70.0488" x="1078.5" y="1424.7617">extends</text></g><!--reverse link Flight to FlightDesignator--><g class="link" data-entity-1="ent0058" data-entity-2="ent0059" data-link-type="composition" data-source-line="141" id="lnk89"><path codeLine="141" d="M210.2122,519.6835 C233.3322,499.9235 250.98,486.36 277,469 C326.66,435.87 385.93,404.8 433.85,381.57" fill="none" id="Flight-backto-FlightDesignator" style="stroke:#181818;stroke-width:1;"/><polygon fill="#181818" points="201.09,527.48,208.2499,526.6225,210.2122,519.6835,203.0523,520.541,201.09,527.48" style="stroke:#181818;stroke-width:1;"/><text fill="#000000" font-family="sans-serif" font-size="20" lengthAdjust="spacing" textLength="103.3984" x="288" y="392.7617">identifiedBy</text></g><!--link Flight to FlightType--><g class="link" data-entity-1="ent0058" data-entity-2="ent0063" data-link-type="dependency" data-source-line="142" id="lnk90"><path codeLine="142" d="M237.01,561.4 C363.29,529.41 586.09,473.02 777,425 C872.06,401.09 976.4888,374.964 1043.9088,358.124" fill="none" id="Flight-to-FlightType" style="stroke:#181818;stroke-width:1;"/><polygon fill="#181818" points="1049.73,356.67,1040.0289,354.9702,1044.879,357.8817,1041.9676,362.7318,1049.73,356.67" style="stroke:#181818;stroke-width:1;"/><text fill="#000000" font-family="sans-serif" font-size="20" lengthAdjust="spacing" textLength="61.1426" x="493.5" y="461.7617">ofType</text></g><!--reverse link Flight to DepartureSchedule--><g class="link" data-entity-1="ent0058" data-entity-2="ent0067" data-link-type="composition" data-source-line="143" id="lnk91"><path codeLine="143" d="M248.9136,615.5627 C436.0236,662.8927 822.23,760.58 1010.14,808.11" fill="none" id="Flight-backto-DepartureSchedule" style="stroke:#181818;stroke-width:1;"/><polygon fill="#181818" points="237.28,612.62,242.1159,617.9692,248.9136,615.5627,244.0777,610.2135,237.28,612.62" style="stroke:#181818;stroke-width:1;"/><text fill="#000000" font-family="sans-serif" font-size="20" lengthAdjust="spacing" textLength="110.0781" x="469" y="657.7617">scheduledAt</text></g><!--reverse link DepartureSchedule to RegularSchedule--><g class="link" data-entity-1="ent0067" data-entity-2="ent0068" data-link-type="extension" data-source-line="144" id="lnk92"><path codeLine="144" d="M1234.62,834 C1352.96,834 1528.28,834 1642.41,834" fill="none" id="DepartureSchedule-backto-RegularSchedule" style="stroke:#181818;stroke-width:1;"/><polygon fill="none" points="1216.62,834,1234.62,840,1234.62,828,1216.62,834" style="stroke:#181818;stroke-width:1;"/></g><!--reverse link DepartureSchedule to CharterSchedule--><g class="link" data-entity-1="ent0067" data-entity-2="ent0076" data-link-type="extension" data-source-line="145" id="lnk93"><path codeLine="145" d="M1234.2372,859.0824 C1353.0872,883.9924 1529.97,921.04 1643.9,944.91" fill="none" id="DepartureSchedule-backto-CharterSchedule" style="stroke:#181818;stroke-width:1;"/><polygon fill="none" points="1216.62,855.39,1233.0064,864.9548,1235.468,853.21,1216.62,855.39" style="stroke:#181818;stroke-width:1;"/></g><!--reverse link RegularSchedule to ScheduleEntry--><g class="link" data-entity-1="ent0068" data-entity-2="ent0072" data-link-type="composition" data-source-line="146" id="lnk94"><path codeLine="146" d="M1736,791.92 C1736,773.15 1736,760.34 1736,737.7" fill="none" id="RegularSchedule-backto-ScheduleEntry" style="stroke:#181818;stroke-width:1;"/><polygon fill="#181818" points="1736,803.92,1740,797.92,1736,791.92,1732,797.92,1736,803.92" style="stroke:#181818;stroke-width:1;"/><text fill="#000000" font-family="sans-serif" font-size="20" lengthAdjust="spacing" textLength="113.3887" x="1663" y="779.0117">composedOf</text><text fill="#000000" font-family="sans-serif" font-size="20" lengthAdjust="spacing" textLength="30.0195" x="1704.4501" y="765.9347">1..*</text></g><!--reverse link Flight to FlightPlan--><g class="link" data-entity-1="ent0058" data-entity-2="ent0080" data-link-type="composition" data-source-line="147" id="lnk95"><path codeLine="147" d="M249.1304,583.2005 C346.6504,579.3005 486.27,571.85 617,557 C774.68,539.08 958.6,505.2 1051.75,487.1" fill="none" id="Flight-backto-FlightPlan" style="stroke:#181818;stroke-width:1;"/><polygon fill="#181818" points="237.14,583.68,243.295,587.437,249.1304,583.2005,242.9754,579.4434,237.14,583.68" style="stroke:#181818;stroke-width:1;"/><text fill="#000000" font-family="sans-serif" font-size="20" lengthAdjust="spacing" textLength="72.2754" x="488" y="551.7617">hasPlan</text><text fill="#000000" font-family="sans-serif" font-size="20" lengthAdjust="spacing" textLength="30.0195" x="1013.8395" y="510.3905">1..*</text></g><!--link FlightPlan to FlightPlanStatus--><g class="link" data-entity-1="ent0080" data-entity-2="ent0084" data-link-type="dependency" data-source-line="148" id="lnk96"><path codeLine="148" d="M1175.13,468.36 C1285.06,456.31 1511.7857,431.4638 1639.8657,417.4238" fill="none" id="FlightPlan-to-FlightPlanStatus" style="stroke:#181818;stroke-width:1;"/><polygon fill="#181818" points="1645.83,416.77,1636.4477,413.7745,1640.8598,417.3148,1637.3195,421.7269,1645.83,416.77" style="stroke:#181818;stroke-width:1;"/><text fill="#000000" font-family="sans-serif" font-size="20" lengthAdjust="spacing" textLength="88.9453" x="1457" y="423.7617">hasStatus</text></g><!--reverse link FlightPlan to FuelQuantity--><g class="link" data-entity-1="ent0080" data-entity-2="ent0085" data-link-type="composition" data-source-line="149" id="lnk97"><path codeLine="149" d="M1187.0107,464.463 C1250.6907,454.323 1341.31,436.89 1426,407 C1440.06,402.04 1442.59,398.5 1456,392 C1523.29,359.38 1600.26,323.34 1656.28,297.33" fill="none" id="FlightPlan-backto-FuelQuantity" style="stroke:#181818;stroke-width:1;"/><polygon fill="#181818" points="1175.16,466.35,1181.7144,469.3567,1187.0107,464.463,1180.4563,461.4563,1175.16,466.35" style="stroke:#181818;stroke-width:1;"/><text fill="#000000" font-family="sans-serif" font-size="20" lengthAdjust="spacing" textLength="60.0098" x="1471" y="346.7617">carries</text></g><!--link Flight to Pilot--><g class="link" data-entity-1="ent0058" data-entity-2="ent0055" data-link-type="dependency" data-source-line="152" id="lnk98"><path codeLine="152" d="M163.37,646.61 C237.23,807.5 436.8466,1242.3372 500.8166,1381.6772" fill="none" id="Flight-to-Pilot" style="stroke:#181818;stroke-width:1;"/><polygon fill="#181818" points="503.32,1387.13,503.2002,1377.2819,501.2339,1382.586,495.9298,1380.6197,503.32,1387.13" style="stroke:#181818;stroke-width:1;"/><polygon fill="#000000" points="288.3377,902.8486,286.5733,887.7343,278.0263,891.658,288.3377,902.8486" style="stroke:#000000;stroke-width:1;"/><text fill="#000000" font-family="sans-serif" font-size="20" lengthAdjust="spacing" textLength="103.3984" x="298" y="903.7617">assignedTo</text><text fill="#000000" font-family="sans-serif" font-size="20" lengthAdjust="spacing" textLength="7.7832" x="158.9599" y="674.8355">*</text><text fill="#000000" font-family="sans-serif" font-size="20" lengthAdjust="spacing" textLength="11.123" x="488.6437" y="1375.0833">1</text></g><!--link Pilot to AircraftModel--><g class="link" data-entity-1="ent0055" data-entity-2="ent0003" data-link-type="dependency" data-source-line="154" id="lnk99"><path codeLine="154" d="M556.59,1472.58 C658.6,1610.1 974.9554,2036.571 1077.1854,2174.391" fill="none" id="Pilot-to-AircraftModel" style="stroke:#181818;stroke-width:1;"/><polygon fill="#181818" points="1080.76,2179.21,1078.6108,2169.5985,1077.7812,2175.1942,1072.1855,2174.3646,1080.76,2179.21" style="stroke:#181818;stroke-width:1;"/><polygon fill="#000000" points="659.7662,1595.0034,654.9207,1580.5785,647.3674,1586.1815,659.7662,1595.0034" style="stroke:#000000;stroke-width:1;"/><text fill="#000000" font-family="sans-serif" font-size="20" lengthAdjust="spacing" textLength="100.0293" x="668" y="1596.7617">certifiedFor</text><text fill="#000000" font-family="sans-serif" font-size="20" lengthAdjust="spacing" textLength="7.7832" x="554.1006" y="1501.7519">*</text><text fill="#000000" font-family="sans-serif" font-size="20" lengthAdjust="spacing" textLength="30.0195" x="1044.0611" y="2167.1746">1..*</text></g><?plantuml-src ZLTjRzis4FxkNt7mfoPBN2TTjaBD0hZE0WHebwns5s0mCD3IoUPCaHf99TRQ_lSTATbwiUGL212IFjuTdxjxxcGsNAPCiqIeS8CHH1YpJDWx9UsC_ujmEHu8Z2rO1PglrXOYhZ6qNCc1sLs5b8KRjiAPpGM2-vd9bS2QW5GH6apXnt7jK3EvSOS_ZGTh7Y5WajeS4aoMgCrWC2Yrmd32TQXPR3-I5l7NPBNIk68MXt1zpNQRcnluCW081JC66XT82gNbDYUHwskjb2rbl-tblTpzBVtyp4I6e9P_qoDACG0UbT9IMInXKF7-LW2I9GW_GC9a5hFGPXhrGYQPiR14o2J_XtI--ZmRNrsTa1QKMR9tSPwdM9f9oHMKAzH-5pAzKdwLy2r63Nztbv_G-MBw_FQ05Z9-_t7-y5Gi_hmh5WdRtcKefeom9eGwdzas5i2zV6QQCsc3XNGwuSPhf7yrYmiv4GAyNmPIPRZbpuI2mN04RqQN9mUFUKGTAqqOXjZt88FwcOSuHIwuN1KmwOmRdANe8V8luacMVA8CnCFd1F0h2zU5Lx1c1ZWzIBr85oJoc9AVIoe2Pe4dgS244eUvN0VB4nnKBgDMKKvHv-5KOHppa9DaRnnUoDc9HkOtaMQhsYL_9dXicsSTOUYn6S1dGovpwRMyTkeNqW6PaQjxlDySulr74SDwUNmvcW2x2sIHKldd08QXIfPS5WYfc5BUrnkJ4UNuYf24KCcOhpBjHOQakLcPf-VdvxKo8X8WJsAEqVlyG9P4RvfL4v1Dj-XMUvYsByNgk7Wz2mD8YrtVdTwGX6jYkD2YfjpiUap3P8KhuPcwAsRmhKP_KoK4Moe2KUdZxCUMnZgxPQJh5tjP43nx5GJagvIOtML1bI_pQP-Y9elU2OVlb3g7LkA1e3ik_eJChb4Ju8RIfrTiXc6cwOUfGCBq23dWDkKwloKqEhFuK4y0BBFgtDz3Crh8psd4B5jI3rlcC8aIBb-_fo0e5zcAkYv65rKnpJPS23CXuZR6iKMVSsmlqUzWMvLFFwuY7fu1FgFEuGfoSjxqk98RYmcHWUujQT_9dQbAb1XnylZX7cBgoFYYz0QMAfCHqpa1CgC0eWc8rXaNyAheP6TGitxci-SCqhMI-5lcMdV3Er9oBwaE91CqMbXIOroRfBoE7CYK09Nb4RdPpBIllaoQ-TSjr9bxtQADl6kB-CBiIXLg5fFGjR3k6uUnAoBkkr93dbYi0JzrCfgxvgfHyezSAFizauuNF3BXV1iK4kJarvkc8nJMhKKPcPhT0iPZXblLVeHMJBZ6A1COJRJcL1Hpdc2JMGeLjsZuIfPSqLqyN1DAM0dwqzZVBdBE7oWVTk8l9cOPrUosA_KFR0Pmv_ZU1h3TobVofFnZ9mkvczogcMKtlHLQQhCR8KJzjfpSYFojz-cmo6iNwtCKy7YdmjM4NCXRf27PJPAp4aOevyc5_5G8xduuymtNpKL0967OQ73O2GwrTK9TYqtBI9zy-ttjQ-Lqya9lgh_zbprW5NsLLtwb4ixxCY5Y-KFyXBWfThjNxLFhW5CRIWEO2jUXQNBvg8ZZShYu3CRZTmivfo6rtByPluFvEjF5_eBsmyh9QH7QuwZK72l9_djSRQlkHQvCBsBM_MiCTzzRD0CQw-XgD6pNsADWyly7lPfi01zuZ64U2WpSo4h5GyH5Z-NK8Z6YNZaRlntJz4raYkRCJOHlBu55aLd8bu9WYyEh_IKpQfMFCpIZ-JepEzYS7R_Q6seH1dsh_9un_ue-xFsXNxcPllkTTJN1hh1g7od-SRxQIvOxtRUO1dEq1jPIs4-gZKBVpwcLklEEcWngdEayxwXQwc3j6kiNRAKK2RRBy_GSXXUZqUdme5BSAAee0H_YbjkbV2DNg3cwrLxI7rSer0BjPOjrKzeZt8mBVG5hJhCmDR7IWI4PTcg75yEoy_a-Im5n7HHk1cMtg-IyhytPcnIZBg96pEyk_GS0?></g></svg>