<?plantuml 1.2026.2?><svg xmlns="http://www.w3.org/2000/svg" xmlns:xlink="http://www.w3.org/1999/xlink" contentStyleType="text/css" data-diagram-type="CLASS" height="2308px" preserveAspectRatio="none" style="width:2584px;height:2308px;background:#FFFFFF;" version="1.1" viewBox="0 0 2584 2308" width="2584px" zoomAndPan="magnify"><defs/><g><!--cluster AirControlArea_Aggregate--><g class="cluster" data-qualified-name="AirControlArea_Aggregate" data-source-line="7" id="ent0002"><rect fill="none" height="388" rx="2.5" ry="2.5" style="stroke:#000000;stroke-width:1.5;" width="1805.5" x="772.5" y="1914"/><text fill="#000000" font-family="sans-serif" font-size="20" font-style="italic" lengthAdjust="spacing" textLength="112.3242" x="1619.0879" y="1936.7617">&#171;aggregate&#187;</text><text fill="#000000" font-family="sans-serif" font-size="20" font-weight="bold" lengthAdjust="spacing" textLength="253.3789" x="1548.5605" y="1961.918">AirControlArea_Aggregate</text></g><!--cluster Flight_Aggregate--><g class="cluster" data-qualified-name="Flight_Aggregate" data-source-line="26" id="ent0014"><rect fill="none" height="1033" rx="2.5" ry="2.5" style="stroke:#000000;stroke-width:1.5;" width="1918.5" x="320.5" y="528"/><text fill="#000000" font-family="sans-serif" font-size="20" font-style="italic" lengthAdjust="spacing" textLength="112.3242" x="1223.5879" y="550.7617">&#171;aggregate&#187;</text><text fill="#000000" font-family="sans-serif" font-size="20" font-weight="bold" lengthAdjust="spacing" textLength="164.4531" x="1197.5234" y="575.918">Flight_Aggregate</text></g><!--cluster WeatherData_Aggregate--><g class="cluster" data-qualified-name="WeatherData_Aggregate" data-source-line="92" id="ent0055"><rect fill="none" height="305" rx="2.5" ry="2.5" style="stroke:#000000;stroke-width:1.5;" width="1506.5" x="343.5" y="1585"/><text fill="#000000" font-family="sans-serif" font-size="20" font-style="italic" lengthAdjust="spacing" textLength="112.3242" x="1040.5879" y="1607.7617">&#171;aggregate&#187;</text><text fill="#000000" font-family="sans-serif" font-size="20" font-weight="bold" lengthAdjust="spacing" textLength="232.2852" x="980.6074" y="1632.918">WeatherData_Aggregate</text></g><!--cluster Simulation_Aggregate--><g class="cluster" data-qualified-name="Simulation_Aggregate" data-source-line="111" id="ent0067"><rect fill="none" height="497" rx="2.5" ry="2.5" style="stroke:#000000;stroke-width:1.5;" width="1022" x="7" y="7"/><text fill="#000000" font-family="sans-serif" font-size="20" font-style="italic" lengthAdjust="spacing" textLength="112.3242" x="461.8379" y="29.7617">&#171;aggregate&#187;</text><text fill="#000000" font-family="sans-serif" font-size="20" font-weight="bold" lengthAdjust="spacing" textLength="212.2559" x="411.8721" y="54.918">Simulation_Aggregate</text></g><!--class AirControlArea--><g class="entity" data-qualified-name="AirControlArea_Aggregate.AirControlArea" data-source-line="8" id="ent0003"><rect fill="#F1F1F1" height="85.4688" rx="2.5" ry="2.5" style="stroke:#181818;stroke-width:0.5;" width="165.1621" x="788.5" y="2025.5"/><ellipse cx="804.5" cy="2068.2344" fill="#ADD1B2" rx="12" ry="12" style="stroke:#181818;stroke-width:1;"/><path d="M806.6406,2063.1563 Q806.8281,2062.9063 807.0469,2062.7813 Q807.2656,2062.6406 807.5156,2062.6406 Q807.9531,2062.6406 808.2344,2062.9531 Q808.5156,2063.25 808.5156,2063.9688 L808.5156,2065.6719 Q808.5156,2066.3906 808.2344,2066.7031 Q807.9531,2067.0156 807.5156,2067.0156 Q807.125,2067.0156 806.875,2066.7813 Q806.625,2066.5625 806.5156,2065.9531 Q806.4531,2065.5313 806.2344,2065.3125 Q805.8438,2064.875 805.125,2064.6094 Q804.4063,2064.3438 803.6875,2064.3438 Q802.7813,2064.3438 802.0313,2064.7344 Q801.2813,2065.125 800.7031,2066.0156 Q800.125,2066.8906 800.125,2068.0938 L800.125,2069.3906 Q800.125,2070.8438 801.1719,2071.8125 Q802.2344,2072.7813 804.0938,2072.7813 Q805.2031,2072.7813 805.9844,2072.4688 Q806.4219,2072.2969 806.9375,2071.7813 Q807.25,2071.4688 807.4219,2071.375 Q807.5938,2071.2813 807.8281,2071.2813 Q808.2188,2071.2813 808.5156,2071.5938 Q808.8281,2071.8906 808.8281,2072.2969 Q808.8281,2072.7031 808.4219,2073.1719 Q807.8281,2073.8594 806.8906,2074.25 Q805.625,2074.7813 804.1094,2074.7813 Q802.3281,2074.7813 800.9063,2074.0469 Q799.75,2073.4531 798.9375,2072.1875 Q798.125,2070.9219 798.125,2069.4375 L798.125,2068.0781 Q798.125,2066.5156 798.8438,2065.1719 Q799.5781,2063.8125 800.8594,2063.0781 Q802.1563,2062.3438 803.6094,2062.3438 Q804.4688,2062.3438 805.2188,2062.5469 Q805.9844,2062.75 806.6406,2063.1563 Z " fill="#000000"/><text fill="#000000" font-family="sans-serif" font-size="20" font-style="italic" lengthAdjust="spacing" textLength="70.0488" x="850.0566" y="2051.2617">&#171;entity&#187;</text><text fill="#000000" font-family="sans-serif" font-size="20" font-style="italic" lengthAdjust="spacing" textLength="56.709" x="856.7266" y="2076.418">&#171;root&#187;</text><text fill="#000000" font-family="sans-serif" font-size="20" lengthAdjust="spacing" textLength="131.1621" x="819.5" y="2101.5742">AirControlArea</text></g><!--class AreaCode--><g class="entity" data-qualified-name="AirControlArea_Aggregate.AreaCode" data-source-line="10" id="ent0004"><rect fill="#F1F1F1" height="93.4688" rx="2.5" ry="2.5" style="stroke:#181818;stroke-width:0.5;" width="158.9844" x="1988" y="2192.5"/><ellipse cx="2004" cy="2222.6563" fill="#ADD1B2" rx="12" ry="12" style="stroke:#181818;stroke-width:1;"/><path d="M2006.1406,2217.5781 Q2006.3281,2217.3281 2006.5469,2217.2031 Q2006.7656,2217.0625 2007.0156,2217.0625 Q2007.4531,2217.0625 2007.7344,2217.375 Q2008.0156,2217.6719 2008.0156,2218.3906 L2008.0156,2220.0938 Q2008.0156,2220.8125 2007.7344,2221.125 Q2007.4531,2221.4375 2007.0156,2221.4375 Q2006.625,2221.4375 2006.375,2221.2031 Q2006.125,2220.9844 2006.0156,2220.375 Q2005.9531,2219.9531 2005.7344,2219.7344 Q2005.3438,2219.2969 2004.625,2219.0313 Q2003.9063,2218.7656 2003.1875,2218.7656 Q2002.2813,2218.7656 2001.5313,2219.1563 Q2000.7813,2219.5469 2000.2031,2220.4375 Q1999.625,2221.3125 1999.625,2222.5156 L1999.625,2223.8125 Q1999.625,2225.2656 2000.6719,2226.2344 Q2001.7344,2227.2031 2003.5938,2227.2031 Q2004.7031,2227.2031 2005.4844,2226.8906 Q2005.9219,2226.7188 2006.4375,2226.2031 Q2006.75,2225.8906 2006.9219,2225.7969 Q2007.0938,2225.7031 2007.3281,2225.7031 Q2007.7188,2225.7031 2008.0156,2226.0156 Q2008.3281,2226.3125 2008.3281,2226.7188 Q2008.3281,2227.125 2007.9219,2227.5938 Q2007.3281,2228.2813 2006.3906,2228.6719 Q2005.125,2229.2031 2003.6094,2229.2031 Q2001.8281,2229.2031 2000.4063,2228.4688 Q1999.25,2227.875 1998.4375,2226.6094 Q1997.625,2225.3438 1997.625,2223.8594 L1997.625,2222.5 Q1997.625,2220.9375 1998.3438,2219.5938 Q1999.0781,2218.2344 2000.3594,2217.5 Q2001.6563,2216.7656 2003.1094,2216.7656 Q2003.9688,2216.7656 2004.7188,2216.9688 Q2005.4844,2217.1719 2006.1406,2217.5781 Z " fill="#000000"/><text fill="#000000" font-family="sans-serif" font-size="20" font-style="italic" lengthAdjust="spacing" textLength="128.9844" x="2017" y="2218.2617">&#171;value object&#187;</text><text fill="#000000" font-family="sans-serif" font-size="20" lengthAdjust="spacing" textLength="90.0586" x="2036.4629" y="2243.418">AreaCode</text><line style="stroke:#181818;stroke-width:0.5;" x1="1989" x2="2145.9844" y1="2252.8125" y2="2252.8125"/><text fill="#000000" font-family="sans-serif" font-size="20" lengthAdjust="spacing" textLength="43.3691" x="1994" y="2277.5742">code</text></g><g class="entity" data-qualified-name="AirControlArea_Aggregate.GMN5" data-source-line="13" id="ent0006"><path d="M2298.5,2221.5 L2298.5,2235 L2147.18,2239 L2298.5,2243 L2298.5,2256.6563 A0,0 0 0 0 2298.5,2256.6563 L2549.6074,2256.6563 A0,0 0 0 0 2549.6074,2256.6563 L2549.6074,2231.5 L2539.6074,2221.5 L2298.5,2221.5 A0,0 0 0 0 2298.5,2221.5" fill="#FEFFDD" style="stroke:#181818;stroke-width:0.5;"/><path d="M2539.6074,2221.5 L2539.6074,2231.5 L2549.6074,2231.5 L2539.6074,2221.5" fill="#FEFFDD" style="stroke:#181818;stroke-width:0.5;"/><text fill="#000000" font-family="sans-serif" font-size="20" lengthAdjust="spacing" textLength="230.1074" x="2304.5" y="2247.2617">unique in system (US050)</text></g><!--class Coordinates_ACA--><g class="entity" data-qualified-name="AirControlArea_Aggregate.Coordinates_ACA" data-source-line="14" id="ent0008"><rect fill="#F1F1F1" height="168.9375" rx="2.5" ry="2.5" style="stroke:#181818;stroke-width:0.5;" width="194.0879" x="1970.5" y="1983.5"/><ellipse cx="1986.5" cy="2013.6563" fill="#ADD1B2" rx="12" ry="12" style="stroke:#181818;stroke-width:1;"/><path d="M1988.6406,2008.5781 Q1988.8281,2008.3281 1989.0469,2008.2031 Q1989.2656,2008.0625 1989.5156,2008.0625 Q1989.9531,2008.0625 1990.2344,2008.375 Q1990.5156,2008.6719 1990.5156,2009.3906 L1990.5156,2011.0938 Q1990.5156,2011.8125 1990.2344,2012.125 Q1989.9531,2012.4375 1989.5156,2012.4375 Q1989.125,2012.4375 1988.875,2012.2031 Q1988.625,2011.9844 1988.5156,2011.375 Q1988.4531,2010.9531 1988.2344,2010.7344 Q1987.8438,2010.2969 1987.125,2010.0313 Q1986.4063,2009.7656 1985.6875,2009.7656 Q1984.7813,2009.7656 1984.0313,2010.1563 Q1983.2813,2010.5469 1982.7031,2011.4375 Q1982.125,2012.3125 1982.125,2013.5156 L1982.125,2014.8125 Q1982.125,2016.2656 1983.1719,2017.2344 Q1984.2344,2018.2031 1986.0938,2018.2031 Q1987.2031,2018.2031 1987.9844,2017.8906 Q1988.4219,2017.7188 1988.9375,2017.2031 Q1989.25,2016.8906 1989.4219,2016.7969 Q1989.5938,2016.7031 1989.8281,2016.7031 Q1990.2188,2016.7031 1990.5156,2017.0156 Q1990.8281,2017.3125 1990.8281,2017.7188 Q1990.8281,2018.125 1990.4219,2018.5938 Q1989.8281,2019.2813 1988.8906,2019.6719 Q1987.625,2020.2031 1986.1094,2020.2031 Q1984.3281,2020.2031 1982.9063,2019.4688 Q1981.75,2018.875 1980.9375,2017.6094 Q1980.125,2016.3438 1980.125,2014.8594 L1980.125,2013.5 Q1980.125,2011.9375 1980.8438,2010.5938 Q1981.5781,2009.2344 1982.8594,2008.5 Q1984.1563,2007.7656 1985.6094,2007.7656 Q1986.4688,2007.7656 1987.2188,2007.9688 Q1987.9844,2008.1719 1988.6406,2008.5781 Z " fill="#000000"/><text fill="#000000" font-family="sans-serif" font-size="20" font-style="italic" lengthAdjust="spacing" textLength="128.9844" x="2017.0518" y="2009.2617">&#171;value object&#187;</text><text fill="#000000" font-family="sans-serif" font-size="20" lengthAdjust="spacing" textLength="160.0879" x="2001.5" y="2034.418">Coordinates_ACA</text><line style="stroke:#181818;stroke-width:0.5;" x1="1971.5" x2="2163.5879" y1="2043.8125" y2="2043.8125"/><text fill="#000000" font-family="sans-serif" font-size="20" lengthAdjust="spacing" textLength="103.3984" x="1976.5" y="2068.5742">minLatitude</text><text fill="#000000" font-family="sans-serif" font-size="20" lengthAdjust="spacing" textLength="108.9551" x="1976.5" y="2093.7305">maxLatitude</text><text fill="#000000" font-family="sans-serif" font-size="20" lengthAdjust="spacing" textLength="120.0879" x="1976.5" y="2118.8867">minLongitude</text><text fill="#000000" font-family="sans-serif" font-size="20" lengthAdjust="spacing" textLength="125.6445" x="1976.5" y="2144.043">maxLongitude</text></g><g class="entity" data-qualified-name="AirControlArea_Aggregate.GMN9" data-source-line="20" id="ent0010"><path d="M2286,2025.5 L2286,2064 L2164.9,2068 L2286,2072 L2286,2110.9688 A0,0 0 0 0 2286,2110.9688 L2561.9512,2110.9688 A0,0 0 0 0 2561.9512,2110.9688 L2561.9512,2035.5 L2551.9512,2025.5 L2286,2025.5 A0,0 0 0 0 2286,2025.5" fill="#FEFFDD" style="stroke:#181818;stroke-width:0.5;"/><path d="M2551.9512,2025.5 L2551.9512,2035.5 L2561.9512,2035.5 L2551.9512,2025.5" fill="#FEFFDD" style="stroke:#181818;stroke-width:0.5;"/><text fill="#000000" font-family="sans-serif" font-size="20" lengthAdjust="spacing" textLength="184.5703" x="2292" y="2051.2617">Rectangle boundary.</text><text fill="#000000" font-family="sans-serif" font-size="20" lengthAdjust="spacing" textLength="254.9512" x="2292" y="2076.418">Client: "for sake of simplicity,</text><text fill="#000000" font-family="sans-serif" font-size="20" lengthAdjust="spacing" textLength="106.0547" x="2292" y="2101.5742">a rectangle"</text></g><!--class Flight--><g class="entity" data-qualified-name="Flight_Aggregate.Flight" data-source-line="28" id="ent0015"><rect fill="#F1F1F1" height="118.625" rx="2.5" ry="2.5" style="stroke:#181818;stroke-width:0.5;" width="204.2949" x="346.5" y="802.5"/><ellipse cx="411.123" cy="845.2344" fill="#ADD1B2" rx="12" ry="12" style="stroke:#181818;stroke-width:1;"/><path d="M413.2637,840.1563 Q413.4512,839.9063 413.6699,839.7813 Q413.8887,839.6406 414.1387,839.6406 Q414.5762,839.6406 414.8574,839.9531 Q415.1387,840.25 415.1387,840.9688 L415.1387,842.6719 Q415.1387,843.3906 414.8574,843.7031 Q414.5762,844.0156 414.1387,844.0156 Q413.748,844.0156 413.498,843.7813 Q413.248,843.5625 413.1387,842.9531 Q413.0762,842.5313 412.8574,842.3125 Q412.4668,841.875 411.748,841.6094 Q411.0293,841.3438 410.3105,841.3438 Q409.4043,841.3438 408.6543,841.7344 Q407.9043,842.125 407.3262,843.0156 Q406.748,843.8906 406.748,845.0938 L406.748,846.3906 Q406.748,847.8438 407.7949,848.8125 Q408.8574,849.7813 410.7168,849.7813 Q411.8262,849.7813 412.6074,849.4688 Q413.0449,849.2969 413.5605,848.7813 Q413.873,848.4688 414.0449,848.375 Q414.2168,848.2813 414.4512,848.2813 Q414.8418,848.2813 415.1387,848.5938 Q415.4512,848.8906 415.4512,849.2969 Q415.4512,849.7031 415.0449,850.1719 Q414.4512,850.8594 413.5137,851.25 Q412.248,851.7813 410.7324,851.7813 Q408.9512,851.7813 407.5293,851.0469 Q406.373,850.4531 405.5605,849.1875 Q404.748,847.9219 404.748,846.4375 L404.748,845.0781 Q404.748,843.5156 405.4668,842.1719 Q406.2012,840.8125 407.4824,840.0781 Q408.7793,839.3438 410.2324,839.3438 Q411.0918,839.3438 411.8418,839.5469 Q412.6074,839.75 413.2637,840.1563 Z " fill="#000000"/><text fill="#000000" font-family="sans-serif" font-size="20" font-style="italic" lengthAdjust="spacing" textLength="70.0488" x="431.123" y="828.2617">&#171;entity&#187;</text><text fill="#000000" font-family="sans-serif" font-size="20" font-style="italic" lengthAdjust="spacing" textLength="56.709" x="437.793" y="853.418">&#171;root&#187;</text><text fill="#000000" font-family="sans-serif" font-size="20" lengthAdjust="spacing" textLength="48.9063" x="441.6943" y="878.5742">Flight</text><line style="stroke:#181818;stroke-width:0.5;" x1="347.5" x2="549.7949" y1="887.9688" y2="887.9688"/><text fill="#000000" font-family="sans-serif" font-size="20" lengthAdjust="spacing" textLength="192.2949" x="352.5" y="912.7305">scheduledArrivalTime</text></g><!--class FlightDesignator--><g class="entity" data-qualified-name="Flight_Aggregate.FlightDesignator" data-source-line="32" id="ent0016"><rect fill="#F1F1F1" height="143.7813" rx="2.5" ry="2.5" style="stroke:#181818;stroke-width:0.5;" width="179.625" x="781" y="1049"/><ellipse cx="797" cy="1079.1563" fill="#ADD1B2" rx="12" ry="12" style="stroke:#181818;stroke-width:1;"/><path d="M799.1406,1074.0781 Q799.3281,1073.8281 799.5469,1073.7031 Q799.7656,1073.5625 800.0156,1073.5625 Q800.4531,1073.5625 800.7344,1073.875 Q801.0156,1074.1719 801.0156,1074.8906 L801.0156,1076.5938 Q801.0156,1077.3125 800.7344,1077.625 Q800.4531,1077.9375 800.0156,1077.9375 Q799.625,1077.9375 799.375,1077.7031 Q799.125,1077.4844 799.0156,1076.875 Q798.9531,1076.4531 798.7344,1076.2344 Q798.3438,1075.7969 797.625,1075.5313 Q796.9063,1075.2656 796.1875,1075.2656 Q795.2813,1075.2656 794.5313,1075.6563 Q793.7813,1076.0469 793.2031,1076.9375 Q792.625,1077.8125 792.625,1079.0156 L792.625,1080.3125 Q792.625,1081.7656 793.6719,1082.7344 Q794.7344,1083.7031 796.5938,1083.7031 Q797.7031,1083.7031 798.4844,1083.3906 Q798.9219,1083.2188 799.4375,1082.7031 Q799.75,1082.3906 799.9219,1082.2969 Q800.0938,1082.2031 800.3281,1082.2031 Q800.7188,1082.2031 801.0156,1082.5156 Q801.3281,1082.8125 801.3281,1083.2188 Q801.3281,1083.625 800.9219,1084.0938 Q800.3281,1084.7813 799.3906,1085.1719 Q798.125,1085.7031 796.6094,1085.7031 Q794.8281,1085.7031 793.4063,1084.9688 Q792.25,1084.375 791.4375,1083.1094 Q790.625,1081.8438 790.625,1080.3594 L790.625,1079 Q790.625,1077.4375 791.3438,1076.0938 Q792.0781,1074.7344 793.3594,1074 Q794.6563,1073.2656 796.1094,1073.2656 Q796.9688,1073.2656 797.7188,1073.4688 Q798.4844,1073.6719 799.1406,1074.0781 Z " fill="#000000"/><text fill="#000000" font-family="sans-serif" font-size="20" font-style="italic" lengthAdjust="spacing" textLength="128.9844" x="820.3203" y="1074.7617">&#171;value object&#187;</text><text fill="#000000" font-family="sans-serif" font-size="20" lengthAdjust="spacing" textLength="145.625" x="812" y="1099.918">FlightDesignator</text><line style="stroke:#181818;stroke-width:0.5;" x1="782" x2="959.625" y1="1109.3125" y2="1109.3125"/><text fill="#000000" font-family="sans-serif" font-size="20" lengthAdjust="spacing" textLength="150.0781" x="787" y="1134.0742">airlineDesignator</text><text fill="#000000" font-family="sans-serif" font-size="20" lengthAdjust="spacing" textLength="113.3789" x="787" y="1159.2305">flightNumber</text><text fill="#000000" font-family="sans-serif" font-size="20" lengthAdjust="spacing" textLength="148.9844" x="787" y="1184.3867">operationalSuffix</text></g><g class="entity" data-qualified-name="Flight_Aggregate.GMN17" data-source-line="37" id="ent0018"><path d="M336.5,1091 L336.5,1151.3125 A0,0 0 0 0 336.5,1151.3125 L560.8496,1151.3125 A0,0 0 0 0 560.8496,1151.3125 L560.8496,1125 L780.98,1121 L560.8496,1117 L560.8496,1101 L550.8496,1091 L336.5,1091 A0,0 0 0 0 336.5,1091" fill="#FEFFDD" style="stroke:#181818;stroke-width:0.5;"/><path d="M550.8496,1091 L550.8496,1101 L560.8496,1101 L550.8496,1091" fill="#FEFFDD" style="stroke:#181818;stroke-width:0.5;"/><text fill="#000000" font-family="sans-serif" font-size="20" lengthAdjust="spacing" textLength="203.3496" x="342.5" y="1116.7617">Format: xxn(n)(n)(n)(a)</text><text fill="#000000" font-family="sans-serif" font-size="20" lengthAdjust="spacing" textLength="148.9746" x="342.5" y="1141.918">unique (sec. 3.2)</text></g><!--class FlightType--><g class="entity" data-qualified-name="Flight_Aggregate.FlightType" data-source-line="39" id="ent0020"><rect fill="#F1F1F1" height="93.4688" rx="2.5" ry="2.5" style="stroke:#181818;stroke-width:0.5;" width="127.3691" x="1199.5" y="678.5"/><ellipse cx="1215.5" cy="696.0781" fill="#EB937F" rx="12" ry="12" style="stroke:#181818;stroke-width:1;"/><path d="M1213.4531,697.1406 L1213.4531,700.0781 L1218.5469,700.0781 L1218.5469,698.9844 Q1218.5469,698.2656 1218.8281,697.9688 Q1219.1094,697.6563 1219.5625,697.6563 Q1220,697.6563 1220.2813,697.9688 Q1220.5625,698.2656 1220.5625,698.9844 L1220.5625,702.0781 L1211.125,702.0781 Q1210.4063,702.0781 1210.0938,701.7969 Q1209.7969,701.5156 1209.7969,701.0781 Q1209.7969,700.625 1210.1094,700.3594 Q1210.4219,700.0781 1211.125,700.0781 L1211.4375,700.0781 L1211.4375,692.25 L1211.125,692.25 Q1210.4063,692.25 1210.0938,691.9688 Q1209.7969,691.6875 1209.7969,691.2344 Q1209.7969,690.7813 1210.0938,690.5156 Q1210.4063,690.2344 1211.125,690.2344 L1220.1094,690.2344 L1220.1094,693.2813 Q1220.1094,694 1219.8281,694.3125 Q1219.5625,694.6094 1219.125,694.6094 Q1218.6719,694.6094 1218.3906,694.3125 Q1218.1094,694.0156 1218.1094,693.2813 L1218.1094,692.25 L1213.4531,692.25 L1213.4531,695.1406 L1215.2031,695.1406 Q1215.2031,694.3594 1215.3438,694.125 Q1215.6563,693.6563 1216.2031,693.6563 Q1216.6563,693.6563 1216.9219,693.9688 Q1217.2031,694.2656 1217.2031,694.9844 L1217.2031,697.2969 Q1217.2031,697.9531 1217.0469,698.1719 Q1216.7344,698.625 1216.2031,698.625 Q1215.6563,698.625 1215.3438,698.1563 Q1215.2031,697.9219 1215.2031,697.1406 L1213.4531,697.1406 Z " fill="#000000"/><text fill="#000000" font-family="sans-serif" font-size="20" lengthAdjust="spacing" textLength="93.3691" x="1230.5" y="704.2617">FlightType</text><line style="stroke:#181818;stroke-width:0.5;" x1="1200.5" x2="1325.8691" y1="713.6563" y2="713.6563"/><text fill="#000000" font-family="sans-serif" font-size="20" lengthAdjust="spacing" textLength="62.2559" x="1205.5" y="738.418">regular</text><text fill="#000000" font-family="sans-serif" font-size="20" lengthAdjust="spacing" textLength="62.2461" x="1205.5" y="763.5742">charter</text></g><g class="entity" data-qualified-name="Flight_Aggregate.GMN21" data-source-line="43" id="ent0022"><path d="M1531,597.5 L1531,667.79 L1326.86,712.46 L1531,675.79 L1531,682.9688 A0,0 0 0 0 1531,682.9688 L1851.0625,682.9688 A0,0 0 0 0 1851.0625,682.9688 L1851.0625,607.5 L1841.0625,597.5 L1531,597.5 A0,0 0 0 0 1531,597.5" fill="#FEFFDD" style="stroke:#181818;stroke-width:0.5;"/><path d="M1841.0625,597.5 L1841.0625,607.5 L1851.0625,607.5 L1841.0625,597.5" fill="#FEFFDD" style="stroke:#181818;stroke-width:0.5;"/><text fill="#000000" font-family="sans-serif" font-size="20" lengthAdjust="spacing" textLength="210.1172" x="1537" y="623.2617">Invariant: if regular then</text><text fill="#000000" font-family="sans-serif" font-size="20" lengthAdjust="spacing" textLength="249.0332" x="1537" y="648.418">DepartureSchedule must be</text><text fill="#000000" font-family="sans-serif" font-size="20" lengthAdjust="spacing" textLength="299.0625" x="1537" y="673.5742">RegularSchedule, and vice versa.</text></g><!--class DepartureSchedule--><g class="entity" data-qualified-name="Flight_Aggregate.DepartureSchedule" data-source-line="45" id="ent0024"><rect fill="#F1F1F1" height="60.3125" rx="2.5" ry="2.5" style="stroke:#181818;stroke-width:0.5;" width="206.334" x="1160" y="1325"/><ellipse cx="1176" cy="1355.1563" fill="#A9DCDF" rx="12" ry="12" style="stroke:#181818;stroke-width:1;"/><path d="M1178.4531,1357.1875 L1173.5781,1357.1875 L1173.0938,1358.4063 L1173.5781,1358.4063 Q1174.3125,1358.4063 1174.6094,1358.6875 Q1174.9219,1358.9531 1174.9219,1359.4063 Q1174.9219,1359.8438 1174.6094,1360.125 Q1174.3125,1360.4063 1173.5781,1360.4063 L1170.8906,1360.4063 Q1170.1719,1360.4063 1169.8594,1360.125 Q1169.5469,1359.8438 1169.5469,1359.4063 Q1169.5469,1358.9531 1169.875,1358.6719 Q1170.2031,1358.3906 1170.9375,1358.4063 L1174.0781,1350.5781 L1172.7813,1350.5781 Q1172.0469,1350.5781 1171.7344,1350.2969 Q1171.4375,1350.0156 1171.4375,1349.5625 Q1171.4375,1349.1094 1171.7344,1348.8438 Q1172.0469,1348.5625 1172.7813,1348.5625 L1177.0938,1348.5625 L1181.0781,1358.4063 Q1181.7813,1358.4063 1182.0156,1358.5625 Q1182.4688,1358.875 1182.4688,1359.4063 Q1182.4688,1359.8438 1182.1563,1360.125 Q1181.8594,1360.4063 1181.1406,1360.4063 L1178.4375,1360.4063 Q1177.7188,1360.4063 1177.4063,1360.125 Q1177.0938,1359.8438 1177.0938,1359.4063 Q1177.0938,1358.9531 1177.4063,1358.6875 Q1177.7188,1358.4063 1178.4375,1358.4063 L1178.9219,1358.4063 L1178.4531,1357.1875 Z M1177.625,1355.1875 L1176,1351.2188 L1174.3906,1355.1875 L1177.625,1355.1875 Z " fill="#000000"/><text fill="#000000" font-family="sans-serif" font-size="20" font-style="italic" lengthAdjust="spacing" textLength="128.9844" x="1212.6748" y="1350.7617">&#171;value object&#187;</text><text fill="#000000" font-family="sans-serif" font-size="20" font-style="italic" lengthAdjust="spacing" textLength="172.334" x="1191" y="1375.918">DepartureSchedule</text></g><!--class RegularSchedule--><g class="entity" data-qualified-name="Flight_Aggregate.RegularSchedule" data-source-line="48" id="ent0025"><rect fill="#F1F1F1" height="60.3125" rx="2.5" ry="2.5" style="stroke:#181818;stroke-width:0.5;" width="187.4375" x="1597.5" y="1325"/><ellipse cx="1613.5" cy="1355.1563" fill="#ADD1B2" rx="12" ry="12" style="stroke:#181818;stroke-width:1;"/><path d="M1615.6406,1350.0781 Q1615.8281,1349.8281 1616.0469,1349.7031 Q1616.2656,1349.5625 1616.5156,1349.5625 Q1616.9531,1349.5625 1617.2344,1349.875 Q1617.5156,1350.1719 1617.5156,1350.8906 L1617.5156,1352.5938 Q1617.5156,1353.3125 1617.2344,1353.625 Q1616.9531,1353.9375 1616.5156,1353.9375 Q1616.125,1353.9375 1615.875,1353.7031 Q1615.625,1353.4844 1615.5156,1352.875 Q1615.4531,1352.4531 1615.2344,1352.2344 Q1614.8438,1351.7969 1614.125,1351.5313 Q1613.4063,1351.2656 1612.6875,1351.2656 Q1611.7813,1351.2656 1611.0313,1351.6563 Q1610.2813,1352.0469 1609.7031,1352.9375 Q1609.125,1353.8125 1609.125,1355.0156 L1609.125,1356.3125 Q1609.125,1357.7656 1610.1719,1358.7344 Q1611.2344,1359.7031 1613.0938,1359.7031 Q1614.2031,1359.7031 1614.9844,1359.3906 Q1615.4219,1359.2188 1615.9375,1358.7031 Q1616.25,1358.3906 1616.4219,1358.2969 Q1616.5938,1358.2031 1616.8281,1358.2031 Q1617.2188,1358.2031 1617.5156,1358.5156 Q1617.8281,1358.8125 1617.8281,1359.2188 Q1617.8281,1359.625 1617.4219,1360.0938 Q1616.8281,1360.7813 1615.8906,1361.1719 Q1614.625,1361.7031 1613.1094,1361.7031 Q1611.3281,1361.7031 1609.9063,1360.9688 Q1608.75,1360.375 1607.9375,1359.1094 Q1607.125,1357.8438 1607.125,1356.3594 L1607.125,1355 Q1607.125,1353.4375 1607.8438,1352.0938 Q1608.5781,1350.7344 1609.8594,1350 Q1611.1563,1349.2656 1612.6094,1349.2656 Q1613.4688,1349.2656 1614.2188,1349.4688 Q1614.9844,1349.6719 1615.6406,1350.0781 Z " fill="#000000"/><text fill="#000000" font-family="sans-serif" font-size="20" font-style="italic" lengthAdjust="spacing" textLength="128.9844" x="1640.7266" y="1350.7617">&#171;value object&#187;</text><text fill="#000000" font-family="sans-serif" font-size="20" lengthAdjust="spacing" textLength="153.4375" x="1628.5" y="1375.918">RegularSchedule</text></g><g class="entity" data-qualified-name="Flight_Aggregate.GMN26" data-source-line="50" id="ent0027"><path d="M1915,1337.5 L1915,1351 L1784.57,1355 L1915,1359 L1915,1372.6563 A0,0 0 0 0 1915,1372.6563 L2220.0332,1372.6563 A0,0 0 0 0 2220.0332,1372.6563 L2220.0332,1347.5 L2210.0332,1337.5 L1915,1337.5 A0,0 0 0 0 1915,1337.5" fill="#FEFFDD" style="stroke:#181818;stroke-width:0.5;"/><path d="M2210.0332,1337.5 L2210.0332,1347.5 L2220.0332,1347.5 L2210.0332,1337.5" fill="#FEFFDD" style="stroke:#181818;stroke-width:0.5;"/><text fill="#000000" font-family="sans-serif" font-size="20" lengthAdjust="spacing" textLength="284.0332" x="1921" y="1363.2617">Used when FlightType = regular</text></g><!--class ScheduleEntry--><g class="entity" data-qualified-name="Flight_Aggregate.ScheduleEntry" data-source-line="52" id="ent0029"><rect fill="#F1F1F1" height="118.625" rx="2.5" ry="2.5" style="stroke:#181818;stroke-width:0.5;" width="164.0781" x="1609" y="1139.5"/><ellipse cx="1625" cy="1169.6563" fill="#ADD1B2" rx="12" ry="12" style="stroke:#181818;stroke-width:1;"/><path d="M1627.1406,1164.5781 Q1627.3281,1164.3281 1627.5469,1164.2031 Q1627.7656,1164.0625 1628.0156,1164.0625 Q1628.4531,1164.0625 1628.7344,1164.375 Q1629.0156,1164.6719 1629.0156,1165.3906 L1629.0156,1167.0938 Q1629.0156,1167.8125 1628.7344,1168.125 Q1628.4531,1168.4375 1628.0156,1168.4375 Q1627.625,1168.4375 1627.375,1168.2031 Q1627.125,1167.9844 1627.0156,1167.375 Q1626.9531,1166.9531 1626.7344,1166.7344 Q1626.3438,1166.2969 1625.625,1166.0313 Q1624.9063,1165.7656 1624.1875,1165.7656 Q1623.2813,1165.7656 1622.5313,1166.1563 Q1621.7813,1166.5469 1621.2031,1167.4375 Q1620.625,1168.3125 1620.625,1169.5156 L1620.625,1170.8125 Q1620.625,1172.2656 1621.6719,1173.2344 Q1622.7344,1174.2031 1624.5938,1174.2031 Q1625.7031,1174.2031 1626.4844,1173.8906 Q1626.9219,1173.7188 1627.4375,1173.2031 Q1627.75,1172.8906 1627.9219,1172.7969 Q1628.0938,1172.7031 1628.3281,1172.7031 Q1628.7188,1172.7031 1629.0156,1173.0156 Q1629.3281,1173.3125 1629.3281,1173.7188 Q1629.3281,1174.125 1628.9219,1174.5938 Q1628.3281,1175.2813 1627.3906,1175.6719 Q1626.125,1176.2031 1624.6094,1176.2031 Q1622.8281,1176.2031 1621.4063,1175.4688 Q1620.25,1174.875 1619.4375,1173.6094 Q1618.625,1172.3438 1618.625,1170.8594 L1618.625,1169.5 Q1618.625,1167.9375 1619.3438,1166.5938 Q1620.0781,1165.2344 1621.3594,1164.5 Q1622.6563,1163.7656 1624.1094,1163.7656 Q1624.9688,1163.7656 1625.7188,1163.9688 Q1626.4844,1164.1719 1627.1406,1164.5781 Z " fill="#000000"/><text fill="#000000" font-family="sans-serif" font-size="20" font-style="italic" lengthAdjust="spacing" textLength="128.9844" x="1640.5469" y="1165.2617">&#171;value object&#187;</text><text fill="#000000" font-family="sans-serif" font-size="20" lengthAdjust="spacing" textLength="130.0781" x="1640" y="1190.418">ScheduleEntry</text><line style="stroke:#181818;stroke-width:0.5;" x1="1610" x2="1772.0781" y1="1199.8125" y2="1199.8125"/><text fill="#000000" font-family="sans-serif" font-size="20" lengthAdjust="spacing" textLength="104.4824" x="1615" y="1224.5742">dayOfWeek</text><text fill="#000000" font-family="sans-serif" font-size="20" lengthAdjust="spacing" textLength="130.0586" x="1615" y="1249.7305">departureTime</text></g><g class="entity" data-qualified-name="Flight_Aggregate.GMN30" data-source-line="56" id="ent0031"><path d="M1912,1169 L1912,1195 L1773.26,1199 L1912,1203 L1912,1229.3125 A0,0 0 0 0 1912,1229.3125 L2222.502,1229.3125 A0,0 0 0 0 2222.502,1229.3125 L2222.502,1179 L2212.502,1169 L1912,1169 A0,0 0 0 0 1912,1169" fill="#FEFFDD" style="stroke:#181818;stroke-width:0.5;"/><path d="M2212.502,1169 L2212.502,1179 L2222.502,1179 L2212.502,1169" fill="#FEFFDD" style="stroke:#181818;stroke-width:0.5;"/><text fill="#000000" font-family="sans-serif" font-size="20" lengthAdjust="spacing" textLength="201.6602" x="1918" y="1194.7617">Client: "Monday 12:00;</text><text fill="#000000" font-family="sans-serif" font-size="20" lengthAdjust="spacing" textLength="289.502" x="1918" y="1219.918">Tuesday 12:30; Thursday 11:30"</text></g><!--class CharterSchedule--><g class="entity" data-qualified-name="Flight_Aggregate.CharterSchedule" data-source-line="58" id="ent0033"><rect fill="#F1F1F1" height="118.625" rx="2.5" ry="2.5" style="stroke:#181818;stroke-width:0.5;" width="184.0879" x="1599" y="1425.5"/><ellipse cx="1615" cy="1455.6563" fill="#ADD1B2" rx="12" ry="12" style="stroke:#181818;stroke-width:1;"/><path d="M1617.1406,1450.5781 Q1617.3281,1450.3281 1617.5469,1450.2031 Q1617.7656,1450.0625 1618.0156,1450.0625 Q1618.4531,1450.0625 1618.7344,1450.375 Q1619.0156,1450.6719 1619.0156,1451.3906 L1619.0156,1453.0938 Q1619.0156,1453.8125 1618.7344,1454.125 Q1618.4531,1454.4375 1618.0156,1454.4375 Q1617.625,1454.4375 1617.375,1454.2031 Q1617.125,1453.9844 1617.0156,1453.375 Q1616.9531,1452.9531 1616.7344,1452.7344 Q1616.3438,1452.2969 1615.625,1452.0313 Q1614.9063,1451.7656 1614.1875,1451.7656 Q1613.2813,1451.7656 1612.5313,1452.1563 Q1611.7813,1452.5469 1611.2031,1453.4375 Q1610.625,1454.3125 1610.625,1455.5156 L1610.625,1456.8125 Q1610.625,1458.2656 1611.6719,1459.2344 Q1612.7344,1460.2031 1614.5938,1460.2031 Q1615.7031,1460.2031 1616.4844,1459.8906 Q1616.9219,1459.7188 1617.4375,1459.2031 Q1617.75,1458.8906 1617.9219,1458.7969 Q1618.0938,1458.7031 1618.3281,1458.7031 Q1618.7188,1458.7031 1619.0156,1459.0156 Q1619.3281,1459.3125 1619.3281,1459.7188 Q1619.3281,1460.125 1618.9219,1460.5938 Q1618.3281,1461.2813 1617.3906,1461.6719 Q1616.125,1462.2031 1614.6094,1462.2031 Q1612.8281,1462.2031 1611.4063,1461.4688 Q1610.25,1460.875 1609.4375,1459.6094 Q1608.625,1458.3438 1608.625,1456.8594 L1608.625,1455.5 Q1608.625,1453.9375 1609.3438,1452.5938 Q1610.0781,1451.2344 1611.3594,1450.5 Q1612.6563,1449.7656 1614.1094,1449.7656 Q1614.9688,1449.7656 1615.7188,1449.9688 Q1616.4844,1450.1719 1617.1406,1450.5781 Z " fill="#000000"/><text fill="#000000" font-family="sans-serif" font-size="20" font-style="italic" lengthAdjust="spacing" textLength="128.9844" x="1640.5518" y="1451.2617">&#171;value object&#187;</text><text fill="#000000" font-family="sans-serif" font-size="20" lengthAdjust="spacing" textLength="150.0879" x="1630" y="1476.418">CharterSchedule</text><line style="stroke:#181818;stroke-width:0.5;" x1="1600" x2="1782.0879" y1="1485.8125" y2="1485.8125"/><text fill="#000000" font-family="sans-serif" font-size="20" lengthAdjust="spacing" textLength="127.8613" x="1605" y="1510.5742">departureDate</text><text fill="#000000" font-family="sans-serif" font-size="20" lengthAdjust="spacing" textLength="130.0586" x="1605" y="1535.7305">departureTime</text></g><g class="entity" data-qualified-name="Flight_Aggregate.GMN34" data-source-line="62" id="ent0035"><path d="M1912,1455 L1912,1481 L1783.13,1485 L1912,1489 L1912,1515.3125 A0,0 0 0 0 1912,1515.3125 L2222.5801,1515.3125 A0,0 0 0 0 2222.5801,1515.3125 L2222.5801,1465 L2212.5801,1455 L1912,1455 A0,0 0 0 0 1912,1455" fill="#FEFFDD" style="stroke:#181818;stroke-width:0.5;"/><path d="M2212.5801,1455 L2212.5801,1465 L2222.5801,1465 L2212.5801,1455" fill="#FEFFDD" style="stroke:#181818;stroke-width:0.5;"/><text fill="#000000" font-family="sans-serif" font-size="20" lengthAdjust="spacing" textLength="289.5801" x="1918" y="1480.7617">Used when FlightType = charter.</text><text fill="#000000" font-family="sans-serif" font-size="20" lengthAdjust="spacing" textLength="214.3066" x="1918" y="1505.918">Client: "single instance."</text></g><!--class FlightPlan--><g class="entity" data-qualified-name="Flight_Aggregate.FlightPlan" data-source-line="64" id="ent0037"><rect fill="#F1F1F1" height="60.3125" rx="2.5" ry="2.5" style="stroke:#181818;stroke-width:0.5;" width="122.9355" x="1201.5" y="834"/><ellipse cx="1217.5" cy="864.1563" fill="#ADD1B2" rx="12" ry="12" style="stroke:#181818;stroke-width:1;"/><path d="M1219.6406,859.0781 Q1219.8281,858.8281 1220.0469,858.7031 Q1220.2656,858.5625 1220.5156,858.5625 Q1220.9531,858.5625 1221.2344,858.875 Q1221.5156,859.1719 1221.5156,859.8906 L1221.5156,861.5938 Q1221.5156,862.3125 1221.2344,862.625 Q1220.9531,862.9375 1220.5156,862.9375 Q1220.125,862.9375 1219.875,862.7031 Q1219.625,862.4844 1219.5156,861.875 Q1219.4531,861.4531 1219.2344,861.2344 Q1218.8438,860.7969 1218.125,860.5313 Q1217.4063,860.2656 1216.6875,860.2656 Q1215.7813,860.2656 1215.0313,860.6563 Q1214.2813,861.0469 1213.7031,861.9375 Q1213.125,862.8125 1213.125,864.0156 L1213.125,865.3125 Q1213.125,866.7656 1214.1719,867.7344 Q1215.2344,868.7031 1217.0938,868.7031 Q1218.2031,868.7031 1218.9844,868.3906 Q1219.4219,868.2188 1219.9375,867.7031 Q1220.25,867.3906 1220.4219,867.2969 Q1220.5938,867.2031 1220.8281,867.2031 Q1221.2188,867.2031 1221.5156,867.5156 Q1221.8281,867.8125 1221.8281,868.2188 Q1221.8281,868.625 1221.4219,869.0938 Q1220.8281,869.7813 1219.8906,870.1719 Q1218.625,870.7031 1217.1094,870.7031 Q1215.3281,870.7031 1213.9063,869.9688 Q1212.75,869.375 1211.9375,868.1094 Q1211.125,866.8438 1211.125,865.3594 L1211.125,864 Q1211.125,862.4375 1211.8438,861.0938 Q1212.5781,859.7344 1213.8594,859 Q1215.1563,858.2656 1216.6094,858.2656 Q1217.4688,858.2656 1218.2188,858.4688 Q1218.9844,858.6719 1219.6406,859.0781 Z " fill="#000000"/><text fill="#000000" font-family="sans-serif" font-size="20" font-style="italic" lengthAdjust="spacing" textLength="70.0488" x="1241.9434" y="859.7617">&#171;entity&#187;</text><text fill="#000000" font-family="sans-serif" font-size="20" lengthAdjust="spacing" textLength="88.9355" x="1232.5" y="884.918">FlightPlan</text></g><g class="entity" data-qualified-name="Flight_Aggregate.GMN38" data-source-line="66" id="ent0039"><path d="M1554,855.5 L1554,883.12 L1324.58,868.84 L1554,891.12 L1554,940.9688 A0,0 0 0 0 1554,940.9688 L1828.4863,940.9688 A0,0 0 0 0 1828.4863,940.9688 L1828.4863,865.5 L1818.4863,855.5 L1554,855.5 A0,0 0 0 0 1554,855.5" fill="#FEFFDD" style="stroke:#181818;stroke-width:0.5;"/><path d="M1818.4863,855.5 L1818.4863,865.5 L1828.4863,865.5 L1818.4863,855.5" fill="#FEFFDD" style="stroke:#181818;stroke-width:0.5;"/><text fill="#000000" font-family="sans-serif" font-size="20" lengthAdjust="spacing" textLength="238.457" x="1560" y="881.2617">Lifecycle: draft -&gt; validated</text><text fill="#000000" font-family="sans-serif" font-size="20" lengthAdjust="spacing" textLength="253.4863" x="1560" y="906.418">US080 creates, US082 adds</text><text fill="#000000" font-family="sans-serif" font-size="20" lengthAdjust="spacing" textLength="233.4668" x="1560" y="931.5742">weather, US085 validates.</text></g><!--class FlightPlanStatus--><g class="entity" data-qualified-name="Flight_Aggregate.FlightPlanStatus" data-source-line="68" id="ent0041"><rect fill="#F1F1F1" height="93.4688" rx="2.5" ry="2.5" style="stroke:#181818;stroke-width:0.5;" width="179.6348" x="1601" y="722.5"/><ellipse cx="1617" cy="740.0781" fill="#EB937F" rx="12" ry="12" style="stroke:#181818;stroke-width:1;"/><path d="M1614.9531,741.1406 L1614.9531,744.0781 L1620.0469,744.0781 L1620.0469,742.9844 Q1620.0469,742.2656 1620.3281,741.9688 Q1620.6094,741.6563 1621.0625,741.6563 Q1621.5,741.6563 1621.7813,741.9688 Q1622.0625,742.2656 1622.0625,742.9844 L1622.0625,746.0781 L1612.625,746.0781 Q1611.9063,746.0781 1611.5938,745.7969 Q1611.2969,745.5156 1611.2969,745.0781 Q1611.2969,744.625 1611.6094,744.3594 Q1611.9219,744.0781 1612.625,744.0781 L1612.9375,744.0781 L1612.9375,736.25 L1612.625,736.25 Q1611.9063,736.25 1611.5938,735.9688 Q1611.2969,735.6875 1611.2969,735.2344 Q1611.2969,734.7813 1611.5938,734.5156 Q1611.9063,734.2344 1612.625,734.2344 L1621.6094,734.2344 L1621.6094,737.2813 Q1621.6094,738 1621.3281,738.3125 Q1621.0625,738.6094 1620.625,738.6094 Q1620.1719,738.6094 1619.8906,738.3125 Q1619.6094,738.0156 1619.6094,737.2813 L1619.6094,736.25 L1614.9531,736.25 L1614.9531,739.1406 L1616.7031,739.1406 Q1616.7031,738.3594 1616.8438,738.125 Q1617.1563,737.6563 1617.7031,737.6563 Q1618.1563,737.6563 1618.4219,737.9688 Q1618.7031,738.2656 1618.7031,738.9844 L1618.7031,741.2969 Q1618.7031,741.9531 1618.5469,742.1719 Q1618.2344,742.625 1617.7031,742.625 Q1617.1563,742.625 1616.8438,742.1563 Q1616.7031,741.9219 1616.7031,741.1406 L1614.9531,741.1406 Z " fill="#000000"/><text fill="#000000" font-family="sans-serif" font-size="20" lengthAdjust="spacing" textLength="145.6348" x="1632" y="748.2617">FlightPlanStatus</text><line style="stroke:#181818;stroke-width:0.5;" x1="1602" x2="1779.6348" y1="757.6563" y2="757.6563"/><text fill="#000000" font-family="sans-serif" font-size="20" lengthAdjust="spacing" textLength="40.0195" x="1607" y="782.418">draft</text><text fill="#000000" font-family="sans-serif" font-size="20" lengthAdjust="spacing" textLength="80.0586" x="1607" y="807.5742">validated</text></g><!--class FuelQuantity--><g class="entity" data-qualified-name="Flight_Aggregate.FuelQuantity" data-source-line="73" id="ent0042"><rect fill="#F1F1F1" height="118.625" rx="2.5" ry="2.5" style="stroke:#181818;stroke-width:0.5;" width="158.9844" x="1611.5" y="980.5"/><ellipse cx="1627.5" cy="1010.6563" fill="#ADD1B2" rx="12" ry="12" style="stroke:#181818;stroke-width:1;"/><path d="M1629.6406,1005.5781 Q1629.8281,1005.3281 1630.0469,1005.2031 Q1630.2656,1005.0625 1630.5156,1005.0625 Q1630.9531,1005.0625 1631.2344,1005.375 Q1631.5156,1005.6719 1631.5156,1006.3906 L1631.5156,1008.0938 Q1631.5156,1008.8125 1631.2344,1009.125 Q1630.9531,1009.4375 1630.5156,1009.4375 Q1630.125,1009.4375 1629.875,1009.2031 Q1629.625,1008.9844 1629.5156,1008.375 Q1629.4531,1007.9531 1629.2344,1007.7344 Q1628.8438,1007.2969 1628.125,1007.0313 Q1627.4063,1006.7656 1626.6875,1006.7656 Q1625.7813,1006.7656 1625.0313,1007.1563 Q1624.2813,1007.5469 1623.7031,1008.4375 Q1623.125,1009.3125 1623.125,1010.5156 L1623.125,1011.8125 Q1623.125,1013.2656 1624.1719,1014.2344 Q1625.2344,1015.2031 1627.0938,1015.2031 Q1628.2031,1015.2031 1628.9844,1014.8906 Q1629.4219,1014.7188 1629.9375,1014.2031 Q1630.25,1013.8906 1630.4219,1013.7969 Q1630.5938,1013.7031 1630.8281,1013.7031 Q1631.2188,1013.7031 1631.5156,1014.0156 Q1631.8281,1014.3125 1631.8281,1014.7188 Q1631.8281,1015.125 1631.4219,1015.5938 Q1630.8281,1016.2813 1629.8906,1016.6719 Q1628.625,1017.2031 1627.1094,1017.2031 Q1625.3281,1017.2031 1623.9063,1016.4688 Q1622.75,1015.875 1621.9375,1014.6094 Q1621.125,1013.3438 1621.125,1011.8594 L1621.125,1010.5 Q1621.125,1008.9375 1621.8438,1007.5938 Q1622.5781,1006.2344 1623.8594,1005.5 Q1625.1563,1004.7656 1626.6094,1004.7656 Q1627.4688,1004.7656 1628.2188,1004.9688 Q1628.9844,1005.1719 1629.6406,1005.5781 Z " fill="#000000"/><text fill="#000000" font-family="sans-serif" font-size="20" font-style="italic" lengthAdjust="spacing" textLength="128.9844" x="1640.5" y="1006.2617">&#171;value object&#187;</text><text fill="#000000" font-family="sans-serif" font-size="20" lengthAdjust="spacing" textLength="113.3887" x="1648.2979" y="1031.418">FuelQuantity</text><line style="stroke:#181818;stroke-width:0.5;" x1="1612.5" x2="1769.4844" y1="1040.8125" y2="1040.8125"/><text fill="#000000" font-family="sans-serif" font-size="20" lengthAdjust="spacing" textLength="47.8125" x="1617.5" y="1065.5742">value</text><text fill="#000000" font-family="sans-serif" font-size="20" lengthAdjust="spacing" textLength="32.2461" x="1617.5" y="1090.7305">unit</text></g><g class="entity" data-qualified-name="Flight_Aggregate.GMN43" data-source-line="77" id="ent0044"><path d="M1944.5,1022.5 L1944.5,1036 L1770.51,1040 L1944.5,1044 L1944.5,1057.6563 A0,0 0 0 0 1944.5,1057.6563 L2190.041,1057.6563 A0,0 0 0 0 2190.041,1057.6563 L2190.041,1032.5 L2180.041,1022.5 L1944.5,1022.5 A0,0 0 0 0 1944.5,1022.5" fill="#FEFFDD" style="stroke:#181818;stroke-width:0.5;"/><path d="M2180.041,1022.5 L2180.041,1032.5 L2190.041,1032.5 L2180.041,1022.5" fill="#FEFFDD" style="stroke:#181818;stroke-width:0.5;"/><text fill="#000000" font-family="sans-serif" font-size="20" lengthAdjust="spacing" textLength="224.541" x="1950.5" y="1048.2617">must be positive (US080)</text></g><!--class WeatherData--><g class="entity" data-qualified-name="WeatherData_Aggregate.WeatherData" data-source-line="93" id="ent0056"><rect fill="#F1F1F1" height="143.7813" rx="2.5" ry="2.5" style="stroke:#181818;stroke-width:0.5;" width="177.625" x="359.5" y="1654"/><ellipse cx="387.1068" cy="1696.7344" fill="#ADD1B2" rx="12" ry="12" style="stroke:#181818;stroke-width:1;"/><path d="M389.2475,1691.6563 Q389.435,1691.4063 389.6537,1691.2813 Q389.8725,1691.1406 390.1225,1691.1406 Q390.56,1691.1406 390.8412,1691.4531 Q391.1225,1691.75 391.1225,1692.4688 L391.1225,1694.1719 Q391.1225,1694.8906 390.8412,1695.2031 Q390.56,1695.5156 390.1225,1695.5156 Q389.7318,1695.5156 389.4818,1695.2813 Q389.2318,1695.0625 389.1225,1694.4531 Q389.06,1694.0313 388.8412,1693.8125 Q388.4506,1693.375 387.7318,1693.1094 Q387.0131,1692.8438 386.2943,1692.8438 Q385.3881,1692.8438 384.6381,1693.2344 Q383.8881,1693.625 383.31,1694.5156 Q382.7318,1695.3906 382.7318,1696.5938 L382.7318,1697.8906 Q382.7318,1699.3438 383.7787,1700.3125 Q384.8412,1701.2813 386.7006,1701.2813 Q387.81,1701.2813 388.5912,1700.9688 Q389.0287,1700.7969 389.5443,1700.2813 Q389.8568,1699.9688 390.0287,1699.875 Q390.2006,1699.7813 390.435,1699.7813 Q390.8256,1699.7813 391.1225,1700.0938 Q391.435,1700.3906 391.435,1700.7969 Q391.435,1701.2031 391.0287,1701.6719 Q390.435,1702.3594 389.4975,1702.75 Q388.2318,1703.2813 386.7162,1703.2813 Q384.935,1703.2813 383.5131,1702.5469 Q382.3568,1701.9531 381.5443,1700.6875 Q380.7318,1699.4219 380.7318,1697.9375 L380.7318,1696.5781 Q380.7318,1695.0156 381.4506,1693.6719 Q382.185,1692.3125 383.4662,1691.5781 Q384.7631,1690.8438 386.2162,1690.8438 Q387.0756,1690.8438 387.8256,1691.0469 Q388.5912,1691.25 389.2475,1691.6563 Z " fill="#000000"/><text fill="#000000" font-family="sans-serif" font-size="20" font-style="italic" lengthAdjust="spacing" textLength="70.0488" x="428.5777" y="1679.7617">&#171;entity&#187;</text><text fill="#000000" font-family="sans-serif" font-size="20" font-style="italic" lengthAdjust="spacing" textLength="56.709" x="435.2477" y="1704.918">&#171;root&#187;</text><text fill="#000000" font-family="sans-serif" font-size="20" lengthAdjust="spacing" textLength="117.832" x="404.6861" y="1730.0742">WeatherData</text><line style="stroke:#181818;stroke-width:0.5;" x1="360.5" x2="536.125" y1="1739.4688" y2="1739.4688"/><text fill="#000000" font-family="sans-serif" font-size="20" lengthAdjust="spacing" textLength="165.625" x="365.5" y="1764.2305">recordedDateTime</text><text fill="#000000" font-family="sans-serif" font-size="20" lengthAdjust="spacing" textLength="134.502" x="365.5" y="1789.3867">sourceProvider</text></g><g class="entity" data-qualified-name="WeatherData_Aggregate.GMN57" data-source-line="97" id="ent0058"><path d="M737.5,1814 L737.5,1874.3125 A0,0 0 0 0 737.5,1874.3125 L1004.6133,1874.3125 A0,0 0 0 0 1004.6133,1874.3125 L1004.6133,1824 L994.6133,1814 L766.95,1814 L537.65,1750.74 L758.95,1814 L737.5,1814 A0,0 0 0 0 737.5,1814" fill="#FEFFDD" style="stroke:#181818;stroke-width:0.5;"/><path d="M994.6133,1814 L994.6133,1824 L1004.6133,1824 L994.6133,1814" fill="#FEFFDD" style="stroke:#181818;stroke-width:0.5;"/><text fill="#000000" font-family="sans-serif" font-size="20" lengthAdjust="spacing" textLength="246.1133" x="743.5" y="1839.7617">US042: "data might be from</text><text fill="#000000" font-family="sans-serif" font-size="20" lengthAdjust="spacing" textLength="240.5371" x="743.5" y="1864.918">multiple external providers"</text></g><!--class WindCondition--><g class="entity" data-qualified-name="WeatherData_Aggregate.WindCondition" data-source-line="98" id="ent0060"><rect fill="#F1F1F1" height="118.625" rx="2.5" ry="2.5" style="stroke:#181818;stroke-width:0.5;" width="164.0684" x="789" y="1654.5"/><ellipse cx="805" cy="1684.6563" fill="#ADD1B2" rx="12" ry="12" style="stroke:#181818;stroke-width:1;"/><path d="M807.1406,1679.5781 Q807.3281,1679.3281 807.5469,1679.2031 Q807.7656,1679.0625 808.0156,1679.0625 Q808.4531,1679.0625 808.7344,1679.375 Q809.0156,1679.6719 809.0156,1680.3906 L809.0156,1682.0938 Q809.0156,1682.8125 808.7344,1683.125 Q808.4531,1683.4375 808.0156,1683.4375 Q807.625,1683.4375 807.375,1683.2031 Q807.125,1682.9844 807.0156,1682.375 Q806.9531,1681.9531 806.7344,1681.7344 Q806.3438,1681.2969 805.625,1681.0313 Q804.9063,1680.7656 804.1875,1680.7656 Q803.2813,1680.7656 802.5313,1681.1563 Q801.7813,1681.5469 801.2031,1682.4375 Q800.625,1683.3125 800.625,1684.5156 L800.625,1685.8125 Q800.625,1687.2656 801.6719,1688.2344 Q802.7344,1689.2031 804.5938,1689.2031 Q805.7031,1689.2031 806.4844,1688.8906 Q806.9219,1688.7188 807.4375,1688.2031 Q807.75,1687.8906 807.9219,1687.7969 Q808.0938,1687.7031 808.3281,1687.7031 Q808.7188,1687.7031 809.0156,1688.0156 Q809.3281,1688.3125 809.3281,1688.7188 Q809.3281,1689.125 808.9219,1689.5938 Q808.3281,1690.2813 807.3906,1690.6719 Q806.125,1691.2031 804.6094,1691.2031 Q802.8281,1691.2031 801.4063,1690.4688 Q800.25,1689.875 799.4375,1688.6094 Q798.625,1687.3438 798.625,1685.8594 L798.625,1684.5 Q798.625,1682.9375 799.3438,1681.5938 Q800.0781,1680.2344 801.3594,1679.5 Q802.6563,1678.7656 804.1094,1678.7656 Q804.9688,1678.7656 805.7188,1678.9688 Q806.4844,1679.1719 807.1406,1679.5781 Z " fill="#000000"/><text fill="#000000" font-family="sans-serif" font-size="20" font-style="italic" lengthAdjust="spacing" textLength="128.9844" x="820.542" y="1680.2617">&#171;value object&#187;</text><text fill="#000000" font-family="sans-serif" font-size="20" lengthAdjust="spacing" textLength="130.0684" x="820" y="1705.418">WindCondition</text><line style="stroke:#181818;stroke-width:0.5;" x1="790" x2="952.0684" y1="1714.8125" y2="1714.8125"/><text fill="#000000" font-family="sans-serif" font-size="20" lengthAdjust="spacing" textLength="126.748" x="795" y="1739.5742">directionAngle</text><text fill="#000000" font-family="sans-serif" font-size="20" lengthAdjust="spacing" textLength="54.4922" x="795" y="1764.7305">speed</text></g><!--class Coordinates_WD--><g class="entity" data-qualified-name="WeatherData_Aggregate.Coordinates_WD" data-source-line="102" id="ent0061"><rect fill="#F1F1F1" height="118.625" rx="2.5" ry="2.5" style="stroke:#181818;stroke-width:0.5;" width="186.2852" x="1170" y="1654.5"/><ellipse cx="1186" cy="1684.6563" fill="#ADD1B2" rx="12" ry="12" style="stroke:#181818;stroke-width:1;"/><path d="M1188.1406,1679.5781 Q1188.3281,1679.3281 1188.5469,1679.2031 Q1188.7656,1679.0625 1189.0156,1679.0625 Q1189.4531,1679.0625 1189.7344,1679.375 Q1190.0156,1679.6719 1190.0156,1680.3906 L1190.0156,1682.0938 Q1190.0156,1682.8125 1189.7344,1683.125 Q1189.4531,1683.4375 1189.0156,1683.4375 Q1188.625,1683.4375 1188.375,1683.2031 Q1188.125,1682.9844 1188.0156,1682.375 Q1187.9531,1681.9531 1187.7344,1681.7344 Q1187.3438,1681.2969 1186.625,1681.0313 Q1185.9063,1680.7656 1185.1875,1680.7656 Q1184.2813,1680.7656 1183.5313,1681.1563 Q1182.7813,1681.5469 1182.2031,1682.4375 Q1181.625,1683.3125 1181.625,1684.5156 L1181.625,1685.8125 Q1181.625,1687.2656 1182.6719,1688.2344 Q1183.7344,1689.2031 1185.5938,1689.2031 Q1186.7031,1689.2031 1187.4844,1688.8906 Q1187.9219,1688.7188 1188.4375,1688.2031 Q1188.75,1687.8906 1188.9219,1687.7969 Q1189.0938,1687.7031 1189.3281,1687.7031 Q1189.7188,1687.7031 1190.0156,1688.0156 Q1190.3281,1688.3125 1190.3281,1688.7188 Q1190.3281,1689.125 1189.9219,1689.5938 Q1189.3281,1690.2813 1188.3906,1690.6719 Q1187.125,1691.2031 1185.6094,1691.2031 Q1183.8281,1691.2031 1182.4063,1690.4688 Q1181.25,1689.875 1180.4375,1688.6094 Q1179.625,1687.3438 1179.625,1685.8594 L1179.625,1684.5 Q1179.625,1682.9375 1180.3438,1681.5938 Q1181.0781,1680.2344 1182.3594,1679.5 Q1183.6563,1678.7656 1185.1094,1678.7656 Q1185.9688,1678.7656 1186.7188,1678.9688 Q1187.4844,1679.1719 1188.1406,1679.5781 Z " fill="#000000"/><text fill="#000000" font-family="sans-serif" font-size="20" font-style="italic" lengthAdjust="spacing" textLength="128.9844" x="1212.6504" y="1680.2617">&#171;value object&#187;</text><text fill="#000000" font-family="sans-serif" font-size="20" lengthAdjust="spacing" textLength="152.2852" x="1201" y="1705.418">Coordinates_WD</text><line style="stroke:#181818;stroke-width:0.5;" x1="1171" x2="1355.2852" y1="1714.8125" y2="1714.8125"/><text fill="#000000" font-family="sans-serif" font-size="20" lengthAdjust="spacing" textLength="64.4922" x="1176" y="1739.5742">latitude</text><text fill="#000000" font-family="sans-serif" font-size="20" lengthAdjust="spacing" textLength="81.1816" x="1176" y="1764.7305">longitude</text></g><g class="entity" data-qualified-name="WeatherData_Aggregate.GMN62" data-source-line="106" id="ent0063"><path d="M1548,1658.5 L1548,1710 L1356.17,1714 L1548,1718 L1548,1769.125 A0,0 0 0 0 1548,1769.125 L1834.0098,1769.125 A0,0 0 0 0 1834.0098,1769.125 L1834.0098,1668.5 L1824.0098,1658.5 L1548,1658.5 A0,0 0 0 0 1548,1658.5" fill="#FEFFDD" style="stroke:#181818;stroke-width:0.5;"/><path d="M1824.0098,1658.5 L1824.0098,1668.5 L1834.0098,1668.5 L1824.0098,1658.5" fill="#FEFFDD" style="stroke:#181818;stroke-width:0.5;"/><text fill="#000000" font-family="sans-serif" font-size="20" lengthAdjust="spacing" textLength="246.7676" x="1554" y="1684.2617">Coordinates (same class as</text><text fill="#000000" font-family="sans-serif" font-size="20" lengthAdjust="spacing" textLength="230.1074" x="1554" y="1709.418">in Airport and Simulation).</text><text fill="#000000" font-family="sans-serif" font-size="20" lengthAdjust="spacing" textLength="228.3105" x="1554" y="1734.5742">Carries location: "weather</text><text fill="#000000" font-family="sans-serif" font-size="20" lengthAdjust="spacing" textLength="265.0098" x="1554" y="1759.7305">not same everywhere in area"</text></g><!--class Simulation--><g class="entity" data-qualified-name="Simulation_Aggregate.Simulation" data-source-line="112" id="ent0068"><rect fill="#F1F1F1" height="85.4688" rx="2.5" ry="2.5" style="stroke:#181818;stroke-width:0.5;" width="127.3789" x="23" y="394.5"/><ellipse cx="39" cy="437.2344" fill="#ADD1B2" rx="12" ry="12" style="stroke:#181818;stroke-width:1;"/><path d="M41.1406,432.1563 Q41.3281,431.9063 41.5469,431.7813 Q41.7656,431.6406 42.0156,431.6406 Q42.4531,431.6406 42.7344,431.9531 Q43.0156,432.25 43.0156,432.9688 L43.0156,434.6719 Q43.0156,435.3906 42.7344,435.7031 Q42.4531,436.0156 42.0156,436.0156 Q41.625,436.0156 41.375,435.7813 Q41.125,435.5625 41.0156,434.9531 Q40.9531,434.5313 40.7344,434.3125 Q40.3438,433.875 39.625,433.6094 Q38.9063,433.3438 38.1875,433.3438 Q37.2813,433.3438 36.5313,433.7344 Q35.7813,434.125 35.2031,435.0156 Q34.625,435.8906 34.625,437.0938 L34.625,438.3906 Q34.625,439.8438 35.6719,440.8125 Q36.7344,441.7813 38.5938,441.7813 Q39.7031,441.7813 40.4844,441.4688 Q40.9219,441.2969 41.4375,440.7813 Q41.75,440.4688 41.9219,440.375 Q42.0938,440.2813 42.3281,440.2813 Q42.7188,440.2813 43.0156,440.5938 Q43.3281,440.8906 43.3281,441.2969 Q43.3281,441.7031 42.9219,442.1719 Q42.3281,442.8594 41.3906,443.25 Q40.125,443.7813 38.6094,443.7813 Q36.8281,443.7813 35.4063,443.0469 Q34.25,442.4531 33.4375,441.1875 Q32.625,439.9219 32.625,438.4375 L32.625,437.0781 Q32.625,435.5156 33.3438,434.1719 Q34.0781,432.8125 35.3594,432.0781 Q36.6563,431.3438 38.1094,431.3438 Q38.9688,431.3438 39.7188,431.5469 Q40.4844,431.75 41.1406,432.1563 Z " fill="#000000"/><text fill="#000000" font-family="sans-serif" font-size="20" font-style="italic" lengthAdjust="spacing" textLength="70.0488" x="65.665" y="420.2617">&#171;entity&#187;</text><text fill="#000000" font-family="sans-serif" font-size="20" font-style="italic" lengthAdjust="spacing" textLength="56.709" x="72.335" y="445.418">&#171;root&#187;</text><text fill="#000000" font-family="sans-serif" font-size="20" lengthAdjust="spacing" textLength="93.3789" x="54" y="470.5742">Simulation</text></g><!--class SimulationTimeRange--><g class="entity" data-qualified-name="Simulation_Aggregate.SimulationTimeRange" data-source-line="114" id="ent0069"><rect fill="#F1F1F1" height="118.625" rx="2.5" ry="2.5" style="stroke:#181818;stroke-width:0.5;" width="230.7578" x="333" y="368.5"/><ellipse cx="349" cy="398.6563" fill="#ADD1B2" rx="12" ry="12" style="stroke:#181818;stroke-width:1;"/><path d="M351.1406,393.5781 Q351.3281,393.3281 351.5469,393.2031 Q351.7656,393.0625 352.0156,393.0625 Q352.4531,393.0625 352.7344,393.375 Q353.0156,393.6719 353.0156,394.3906 L353.0156,396.0938 Q353.0156,396.8125 352.7344,397.125 Q352.4531,397.4375 352.0156,397.4375 Q351.625,397.4375 351.375,397.2031 Q351.125,396.9844 351.0156,396.375 Q350.9531,395.9531 350.7344,395.7344 Q350.3438,395.2969 349.625,395.0313 Q348.9063,394.7656 348.1875,394.7656 Q347.2813,394.7656 346.5313,395.1563 Q345.7813,395.5469 345.2031,396.4375 Q344.625,397.3125 344.625,398.5156 L344.625,399.8125 Q344.625,401.2656 345.6719,402.2344 Q346.7344,403.2031 348.5938,403.2031 Q349.7031,403.2031 350.4844,402.8906 Q350.9219,402.7188 351.4375,402.2031 Q351.75,401.8906 351.9219,401.7969 Q352.0938,401.7031 352.3281,401.7031 Q352.7188,401.7031 353.0156,402.0156 Q353.3281,402.3125 353.3281,402.7188 Q353.3281,403.125 352.9219,403.5938 Q352.3281,404.2813 351.3906,404.6719 Q350.125,405.2031 348.6094,405.2031 Q346.8281,405.2031 345.4063,404.4688 Q344.25,403.875 343.4375,402.6094 Q342.625,401.3438 342.625,399.8594 L342.625,398.5 Q342.625,396.9375 343.3438,395.5938 Q344.0781,394.2344 345.3594,393.5 Q346.6563,392.7656 348.1094,392.7656 Q348.9688,392.7656 349.7188,392.9688 Q350.4844,393.1719 351.1406,393.5781 Z " fill="#000000"/><text fill="#000000" font-family="sans-serif" font-size="20" font-style="italic" lengthAdjust="spacing" textLength="128.9844" x="397.8867" y="394.2617">&#171;value object&#187;</text><text fill="#000000" font-family="sans-serif" font-size="20" lengthAdjust="spacing" textLength="196.7578" x="364" y="419.418">SimulationTimeRange</text><line style="stroke:#181818;stroke-width:0.5;" x1="334" x2="562.7578" y1="428.8125" y2="428.8125"/><text fill="#000000" font-family="sans-serif" font-size="20" lengthAdjust="spacing" textLength="125.5859" x="339" y="453.5742">startDateTime</text><text fill="#000000" font-family="sans-serif" font-size="20" lengthAdjust="spacing" textLength="120.0586" x="339" y="478.7305">endDateTime</text></g><g class="entity" data-qualified-name="Simulation_Aggregate.GMN70" data-source-line="118" id="ent0071"><path d="M729,410.5 L729,424 L564.13,428 L729,432 L729,445.6563 A0,0 0 0 0 729,445.6563 L1012.9102,445.6563 A0,0 0 0 0 1012.9102,445.6563 L1012.9102,420.5 L1002.9102,410.5 L729,410.5 A0,0 0 0 0 729,410.5" fill="#FEFFDD" style="stroke:#181818;stroke-width:0.5;"/><path d="M1002.9102,410.5 L1002.9102,420.5 L1012.9102,420.5 L1002.9102,410.5" fill="#FEFFDD" style="stroke:#181818;stroke-width:0.5;"/><text fill="#000000" font-family="sans-serif" font-size="20" lengthAdjust="spacing" textLength="262.9102" x="735" y="436.2617">Invariant: start &lt; end (US100)</text></g><!--class SafetyThreshold--><g class="entity" data-qualified-name="Simulation_Aggregate.SafetyThreshold" data-source-line="119" id="ent0073"><rect fill="#F1F1F1" height="118.625" rx="2.5" ry="2.5" style="stroke:#181818;stroke-width:0.5;" width="179.6348" x="358.5" y="209.5"/><ellipse cx="374.5" cy="239.6563" fill="#ADD1B2" rx="12" ry="12" style="stroke:#181818;stroke-width:1;"/><path d="M376.6406,234.5781 Q376.8281,234.3281 377.0469,234.2031 Q377.2656,234.0625 377.5156,234.0625 Q377.9531,234.0625 378.2344,234.375 Q378.5156,234.6719 378.5156,235.3906 L378.5156,237.0938 Q378.5156,237.8125 378.2344,238.125 Q377.9531,238.4375 377.5156,238.4375 Q377.125,238.4375 376.875,238.2031 Q376.625,237.9844 376.5156,237.375 Q376.4531,236.9531 376.2344,236.7344 Q375.8438,236.2969 375.125,236.0313 Q374.4063,235.7656 373.6875,235.7656 Q372.7813,235.7656 372.0313,236.1563 Q371.2813,236.5469 370.7031,237.4375 Q370.125,238.3125 370.125,239.5156 L370.125,240.8125 Q370.125,242.2656 371.1719,243.2344 Q372.2344,244.2031 374.0938,244.2031 Q375.2031,244.2031 375.9844,243.8906 Q376.4219,243.7188 376.9375,243.2031 Q377.25,242.8906 377.4219,242.7969 Q377.5938,242.7031 377.8281,242.7031 Q378.2188,242.7031 378.5156,243.0156 Q378.8281,243.3125 378.8281,243.7188 Q378.8281,244.125 378.4219,244.5938 Q377.8281,245.2813 376.8906,245.6719 Q375.625,246.2031 374.1094,246.2031 Q372.3281,246.2031 370.9063,245.4688 Q369.75,244.875 368.9375,243.6094 Q368.125,242.3438 368.125,240.8594 L368.125,239.5 Q368.125,237.9375 368.8438,236.5938 Q369.5781,235.2344 370.8594,234.5 Q372.1563,233.7656 373.6094,233.7656 Q374.4688,233.7656 375.2188,233.9688 Q375.9844,234.1719 376.6406,234.5781 Z " fill="#000000"/><text fill="#000000" font-family="sans-serif" font-size="20" font-style="italic" lengthAdjust="spacing" textLength="128.9844" x="397.8252" y="235.2617">&#171;value object&#187;</text><text fill="#000000" font-family="sans-serif" font-size="20" lengthAdjust="spacing" textLength="145.6348" x="389.5" y="260.418">SafetyThreshold</text><line style="stroke:#181818;stroke-width:0.5;" x1="359.5" x2="537.1348" y1="269.8125" y2="269.8125"/><text fill="#000000" font-family="sans-serif" font-size="20" lengthAdjust="spacing" textLength="47.8125" x="364.5" y="294.5742">value</text><text fill="#000000" font-family="sans-serif" font-size="20" lengthAdjust="spacing" textLength="32.2461" x="364.5" y="319.7305">unit</text></g><!--class SimulationReport--><g class="entity" data-qualified-name="Simulation_Aggregate.SimulationReport" data-source-line="123" id="ent0074"><rect fill="#F1F1F1" height="93.4688" rx="2.5" ry="2.5" style="stroke:#181818;stroke-width:0.5;" width="187.4082" x="355" y="76.5"/><ellipse cx="371" cy="106.6563" fill="#ADD1B2" rx="12" ry="12" style="stroke:#181818;stroke-width:1;"/><path d="M373.1406,101.5781 Q373.3281,101.3281 373.5469,101.2031 Q373.7656,101.0625 374.0156,101.0625 Q374.4531,101.0625 374.7344,101.375 Q375.0156,101.6719 375.0156,102.3906 L375.0156,104.0938 Q375.0156,104.8125 374.7344,105.125 Q374.4531,105.4375 374.0156,105.4375 Q373.625,105.4375 373.375,105.2031 Q373.125,104.9844 373.0156,104.375 Q372.9531,103.9531 372.7344,103.7344 Q372.3438,103.2969 371.625,103.0313 Q370.9063,102.7656 370.1875,102.7656 Q369.2813,102.7656 368.5313,103.1563 Q367.7813,103.5469 367.2031,104.4375 Q366.625,105.3125 366.625,106.5156 L366.625,107.8125 Q366.625,109.2656 367.6719,110.2344 Q368.7344,111.2031 370.5938,111.2031 Q371.7031,111.2031 372.4844,110.8906 Q372.9219,110.7188 373.4375,110.2031 Q373.75,109.8906 373.9219,109.7969 Q374.0938,109.7031 374.3281,109.7031 Q374.7188,109.7031 375.0156,110.0156 Q375.3281,110.3125 375.3281,110.7188 Q375.3281,111.125 374.9219,111.5938 Q374.3281,112.2813 373.3906,112.6719 Q372.125,113.2031 370.6094,113.2031 Q368.8281,113.2031 367.4063,112.4688 Q366.25,111.875 365.4375,110.6094 Q364.625,109.3438 364.625,107.8594 L364.625,106.5 Q364.625,104.9375 365.3438,103.5938 Q366.0781,102.2344 367.3594,101.5 Q368.6563,100.7656 370.1094,100.7656 Q370.9688,100.7656 371.7188,100.9688 Q372.4844,101.1719 373.1406,101.5781 Z " fill="#000000"/><text fill="#000000" font-family="sans-serif" font-size="20" font-style="italic" lengthAdjust="spacing" textLength="128.9844" x="398.2119" y="102.2617">&#171;value object&#187;</text><text fill="#000000" font-family="sans-serif" font-size="20" lengthAdjust="spacing" textLength="153.4082" x="386" y="127.418">SimulationReport</text><line style="stroke:#181818;stroke-width:0.5;" x1="356" x2="541.4082" y1="136.8125" y2="136.8125"/><text fill="#000000" font-family="sans-serif" font-size="20" lengthAdjust="spacing" textLength="96.709" x="361" y="161.5742">totalFlights</text></g><g class="entity" data-qualified-name="Simulation_Aggregate.GMN75" data-source-line="126" id="ent0076"><path d="M740,209.5 L740,209.5 L542.04,151.39 L740,217.5 L740,294.9688 A0,0 0 0 0 740,294.9688 L1002.1914,294.9688 A0,0 0 0 0 1002.1914,294.9688 L1002.1914,219.5 L992.1914,209.5 L740,209.5 A0,0 0 0 0 740,209.5" fill="#FEFFDD" style="stroke:#181818;stroke-width:0.5;"/><path d="M992.1914,209.5 L992.1914,219.5 L1002.1914,219.5 L992.1914,209.5" fill="#FEFFDD" style="stroke:#181818;stroke-width:0.5;"/><text fill="#000000" font-family="sans-serif" font-size="20" lengthAdjust="spacing" textLength="217.8906" x="746" y="235.2617">Final document received</text><text fill="#000000" font-family="sans-serif" font-size="20" lengthAdjust="spacing" textLength="241.1914" x="746" y="260.418">from C module. Immutable.</text><text fill="#000000" font-family="sans-serif" font-size="20" lengthAdjust="spacing" textLength="127.8613" x="746" y="285.5742">US109/US111</text></g><!--class ValidationResult--><g class="entity" data-qualified-name="Simulation_Aggregate.ValidationResult" data-source-line="127" id="ent0078"><rect fill="#F1F1F1" height="93.4688" rx="2.5" ry="2.5" style="stroke:#181818;stroke-width:0.5;" width="178.5313" x="781.5" y="76.5"/><ellipse cx="797.5" cy="94.0781" fill="#EB937F" rx="12" ry="12" style="stroke:#181818;stroke-width:1;"/><path d="M795.4531,95.1406 L795.4531,98.0781 L800.5469,98.0781 L800.5469,96.9844 Q800.5469,96.2656 800.8281,95.9688 Q801.1094,95.6563 801.5625,95.6563 Q802,95.6563 802.2813,95.9688 Q802.5625,96.2656 802.5625,96.9844 L802.5625,100.0781 L793.125,100.0781 Q792.4063,100.0781 792.0938,99.7969 Q791.7969,99.5156 791.7969,99.0781 Q791.7969,98.625 792.1094,98.3594 Q792.4219,98.0781 793.125,98.0781 L793.4375,98.0781 L793.4375,90.25 L793.125,90.25 Q792.4063,90.25 792.0938,89.9688 Q791.7969,89.6875 791.7969,89.2344 Q791.7969,88.7813 792.0938,88.5156 Q792.4063,88.2344 793.125,88.2344 L802.1094,88.2344 L802.1094,91.2813 Q802.1094,92 801.8281,92.3125 Q801.5625,92.6094 801.125,92.6094 Q800.6719,92.6094 800.3906,92.3125 Q800.1094,92.0156 800.1094,91.2813 L800.1094,90.25 L795.4531,90.25 L795.4531,93.1406 L797.2031,93.1406 Q797.2031,92.3594 797.3438,92.125 Q797.6563,91.6563 798.2031,91.6563 Q798.6563,91.6563 798.9219,91.9688 Q799.2031,92.2656 799.2031,92.9844 L799.2031,95.2969 Q799.2031,95.9531 799.0469,96.1719 Q798.7344,96.625 798.2031,96.625 Q797.6563,96.625 797.3438,96.1563 Q797.2031,95.9219 797.2031,95.1406 L795.4531,95.1406 Z " fill="#000000"/><text fill="#000000" font-family="sans-serif" font-size="20" lengthAdjust="spacing" textLength="144.5313" x="812.5" y="102.2617">ValidationResult</text><line style="stroke:#181818;stroke-width:0.5;" x1="782.5" x2="959.0313" y1="111.6563" y2="111.6563"/><text fill="#000000" font-family="sans-serif" font-size="20" lengthAdjust="spacing" textLength="64.4922" x="787.5" y="136.418">passed</text><text fill="#000000" font-family="sans-serif" font-size="20" lengthAdjust="spacing" textLength="47.8125" x="787.5" y="161.5742">failed</text></g><!--reverse link AirControlArea to AreaCode--><g class="link" data-entity-1="ent0003" data-entity-2="ent0004" data-link-type="composition" data-source-line="22" id="lnk12"><path codeLine="22" d="M965.509,2081.3901 C1184.629,2112.7501 1771.81,2196.81 1987.66,2227.71" fill="none" id="AirControlArea-backto-AreaCode" style="stroke:#181818;stroke-width:1;"/><polygon fill="#181818" points="953.63,2079.69,959.0028,2084.4997,965.509,2081.3901,960.1362,2076.5804,953.63,2079.69" style="stroke:#181818;stroke-width:1;"/><text fill="#000000" font-family="sans-serif" font-size="20" lengthAdjust="spacing" textLength="103.3984" x="1397" y="2138.7617">identifiedBy</text></g><!--reverse link AirControlArea to Coordinates_ACA--><g class="link" data-entity-1="ent0003" data-entity-2="ent0008" data-link-type="composition" data-source-line="23" id="lnk13"><path codeLine="23" d="M965.63,2068 C1179.1,2068 1741.14,2068 1970.19,2068" fill="none" id="AirControlArea-backto-Coordinates_ACA" style="stroke:#181818;stroke-width:1;"/><polygon fill="#181818" points="953.63,2068,959.63,2072,965.63,2068,959.63,2064,953.63,2068" style="stroke:#181818;stroke-width:1;"/><text fill="#000000" font-family="sans-serif" font-size="20" lengthAdjust="spacing" textLength="101.2012" x="1398" y="2062.7617">boundedBy</text></g><!--reverse link Flight to FlightDesignator--><g class="link" data-entity-1="ent0015" data-entity-2="ent0016" data-link-type="composition" data-source-line="79" id="lnk46"><path codeLine="79" d="M506.9011,930.4601 C532.9411,959.1101 558.7,983.39 594,1007 C651.64,1045.54 724.39,1074.93 780.73,1094.21" fill="none" id="Flight-backto-FlightDesignator" style="stroke:#181818;stroke-width:1;"/><polygon fill="#181818" points="498.83,921.58,499.9055,928.7104,506.9011,930.4601,505.8256,923.3297,498.83,921.58" style="stroke:#181818;stroke-width:1;"/><text fill="#000000" font-family="sans-serif" font-size="20" lengthAdjust="spacing" textLength="103.3984" x="595" y="1001.7617">identifiedBy</text></g><!--link Flight to FlightType--><g class="link" data-entity-1="ent0015" data-entity-2="ent0020" data-link-type="dependency" data-source-line="80" id="lnk47"><path codeLine="80" d="M550.76,844.93 C721.03,816.22 1053.8136,760.1079 1193.5636,736.5379" fill="none" id="Flight-to-FlightType" style="stroke:#181818;stroke-width:1;"/><polygon fill="#181818" points="1199.48,735.54,1189.9401,733.0925,1194.5496,736.3715,1191.2706,740.9811,1199.48,735.54" style="stroke:#181818;stroke-width:1;"/><text fill="#000000" font-family="sans-serif" font-size="20" lengthAdjust="spacing" textLength="61.1426" x="840.5" y="759.7617">ofType</text></g><!--reverse link Flight to DepartureSchedule--><g class="link" data-entity-1="ent0015" data-entity-2="ent0024" data-link-type="composition" data-source-line="81" id="lnk48"><path codeLine="81" d="M562.2873,884.5298 C708.6373,915.0498 958.89,973.02 1037,1029 C1147.68,1108.32 1221.75,1259.96 1249.63,1324.6" fill="none" id="Flight-backto-DepartureSchedule" style="stroke:#181818;stroke-width:1;"/><polygon fill="#181818" points="550.54,882.08,555.597,887.2207,562.2873,884.5298,557.2302,879.3891,550.54,882.08" style="stroke:#181818;stroke-width:1;"/><text fill="#000000" font-family="sans-serif" font-size="20" lengthAdjust="spacing" textLength="110.0781" x="816" y="919.7617">scheduledAt</text></g><!--reverse link DepartureSchedule to RegularSchedule--><g class="link" data-entity-1="ent0024" data-entity-2="ent0025" data-link-type="extension" data-source-line="82" id="lnk49"><path codeLine="82" d="M1384.04,1355 C1454.31,1355 1528.95,1355 1597.15,1355" fill="none" id="DepartureSchedule-backto-RegularSchedule" style="stroke:#181818;stroke-width:1;"/><polygon fill="none" points="1366.04,1355,1384.04,1361,1384.04,1349,1366.04,1355" style="stroke:#181818;stroke-width:1;"/></g><!--reverse link DepartureSchedule to CharterSchedule--><g class="link" data-entity-1="ent0024" data-entity-2="ent0033" data-link-type="extension" data-source-line="83" id="lnk50"><path codeLine="83" d="M1379.7559,1390.3247 C1451.0159,1412.0747 1529.4,1435.99 1598.89,1457.2" fill="none" id="DepartureSchedule-backto-CharterSchedule" style="stroke:#181818;stroke-width:1;"/><polygon fill="none" points="1362.54,1385.07,1378.0044,1396.0633,1381.5075,1384.586,1362.54,1385.07" style="stroke:#181818;stroke-width:1;"/></g><!--reverse link RegularSchedule to ScheduleEntry--><g class="link" data-entity-1="ent0025" data-entity-2="ent0029" data-link-type="composition" data-source-line="84" id="lnk51"><path codeLine="84" d="M1691,1312.92 C1691,1294.15 1691,1281.34 1691,1258.7" fill="none" id="RegularSchedule-backto-ScheduleEntry" style="stroke:#181818;stroke-width:1;"/><polygon fill="#181818" points="1691,1324.92,1695,1318.92,1691,1312.92,1687,1318.92,1691,1324.92" style="stroke:#181818;stroke-width:1;"/><text fill="#000000" font-family="sans-serif" font-size="20" lengthAdjust="spacing" textLength="113.3887" x="1618" y="1300.0117">composedOf</text><text fill="#000000" font-family="sans-serif" font-size="20" lengthAdjust="spacing" textLength="30.0195" x="1659.4501" y="1286.9347">1..*</text></g><!--reverse link Flight to FlightPlan--><g class="link" data-entity-1="ent0015" data-entity-2="ent0037" data-link-type="composition" data-source-line="85" id="lnk52"><path codeLine="85" d="M562.76,862.2795 C733.77,862.6995 1062.7,863.51 1201.3,863.85" fill="none" id="Flight-backto-FlightPlan" style="stroke:#181818;stroke-width:1;"/><polygon fill="#181818" points="550.76,862.25,556.7502,866.2647,562.76,862.2795,556.7698,858.2647,550.76,862.25" style="stroke:#181818;stroke-width:1;"/><text fill="#000000" font-family="sans-serif" font-size="20" lengthAdjust="spacing" textLength="72.2754" x="835" y="857.7617">hasPlan</text><text fill="#000000" font-family="sans-serif" font-size="20" lengthAdjust="spacing" textLength="30.0195" x="1163.3946" y="885.8773">1..*</text></g><!--link FlightPlan to FlightPlanStatus--><g class="link" data-entity-1="ent0037" data-entity-2="ent0041" data-link-type="dependency" data-source-line="86" id="lnk53"><path codeLine="86" d="M1324.58,850.49 C1396.71,834.4 1511.9538,808.7059 1594.8238,790.2259" fill="none" id="FlightPlan-to-FlightPlanStatus" style="stroke:#181818;stroke-width:1;"/><polygon fill="#181818" points="1600.68,788.92,1591.0252,786.9748,1595.7999,790.0083,1592.7664,794.783,1600.68,788.92" style="stroke:#181818;stroke-width:1;"/><text fill="#000000" font-family="sans-serif" font-size="20" lengthAdjust="spacing" textLength="88.9453" x="1404.5" y="808.7617">hasStatus</text></g><!--reverse link FlightPlan to FuelQuantity--><g class="link" data-entity-1="ent0037" data-entity-2="ent0042" data-link-type="composition" data-source-line="87" id="lnk54"><path codeLine="87" d="M1335.7525,894.6572 C1358.1325,904.1772 1372.67,910.29 1396,920 C1468.78,950.29 1551.99,984.18 1611.26,1008.2" fill="none" id="FlightPlan-backto-FuelQuantity" style="stroke:#181818;stroke-width:1;"/><polygon fill="#181818" points="1324.71,889.96,1328.6655,895.9894,1335.7525,894.6572,1331.797,888.6278,1324.71,889.96" style="stroke:#181818;stroke-width:1;"/><text fill="#000000" font-family="sans-serif" font-size="20" lengthAdjust="spacing" textLength="60.0098" x="1418.5" y="914.7617">carries</text></g><!--reverse link WeatherData to WindCondition--><g class="link" data-entity-1="ent0056" data-entity-2="ent0060" data-link-type="composition" data-source-line="107" id="lnk65"><path codeLine="107" d="M549.6451,1723.1383 C623.7051,1721.0283 716.69,1718.38 788.74,1716.32" fill="none" id="WeatherData-backto-WindCondition" style="stroke:#181818;stroke-width:1;"/><polygon fill="#181818" points="537.65,1723.48,543.7615,1727.3075,549.6451,1723.1383,543.5337,1719.3107,537.65,1723.48" style="stroke:#181818;stroke-width:1;"/><text fill="#000000" font-family="sans-serif" font-size="20" lengthAdjust="spacing" textLength="66.6895" x="613.5" y="1713.7617">records</text><text fill="#000000" font-family="sans-serif" font-size="20" lengthAdjust="spacing" textLength="30.0195" x="750.9876" y="1738.2839">1..*</text></g><!--reverse link WindCondition to Coordinates_WD--><g class="link" data-entity-1="ent0060" data-entity-2="ent0061" data-link-type="composition" data-source-line="108" id="lnk66"><path codeLine="108" d="M965.28,1714 C1028.46,1714 1104.11,1714 1169.89,1714" fill="none" id="WindCondition-backto-Coordinates_WD" style="stroke:#181818;stroke-width:1;"/><polygon fill="#181818" points="953.28,1714,959.28,1718,965.28,1714,959.28,1710,953.28,1714" style="stroke:#181818;stroke-width:1;"/><text fill="#000000" font-family="sans-serif" font-size="20" lengthAdjust="spacing" textLength="83.3887" x="1046" y="1708.7617">locatedAt</text></g><!--reverse link Simulation to SimulationTimeRange--><g class="link" data-entity-1="ent0068" data-entity-2="ent0069" data-link-type="composition" data-source-line="132" id="lnk79"><path codeLine="132" d="M162.2063,435.1316 C212.4663,433.8816 272.34,432.38 332.83,430.87" fill="none" id="Simulation-backto-SimulationTimeRange" style="stroke:#181818;stroke-width:1;"/><polygon fill="#181818" points="150.21,435.43,156.3076,439.2796,162.2063,435.1316,156.1087,431.2821,150.21,435.43" style="stroke:#181818;stroke-width:1;"/><text fill="#000000" font-family="sans-serif" font-size="20" lengthAdjust="spacing" textLength="121.1816" x="181" y="426.7617">scheduledFor</text></g><!--reverse link Simulation to SafetyThreshold--><g class="link" data-entity-1="ent0068" data-entity-2="ent0073" data-link-type="composition" data-source-line="133" id="lnk80"><path codeLine="133" d="M161.0841,402.6651 C218.5941,375.8251 293.53,340.85 358.2,310.67" fill="none" id="Simulation-backto-SafetyThreshold" style="stroke:#181818;stroke-width:1;"/><polygon fill="#181818" points="150.21,407.74,157.3387,408.8272,161.0841,402.6651,153.9554,401.5778,150.21,407.74" style="stroke:#181818;stroke-width:1;"/><text fill="#000000" font-family="sans-serif" font-size="20" lengthAdjust="spacing" textLength="101.2012" x="191" y="332.7617">boundedBy</text></g><!--reverse link Simulation to SimulationReport--><g class="link" data-entity-1="ent0068" data-entity-2="ent0074" data-link-type="composition" data-source-line="134" id="lnk81"><path codeLine="134" d="M118.5898,384.1766 C135.8298,356.2266 154.01,329.86 180,301 C231.6,243.7 247.93,231.14 312.5,189 C325.72,180.37 340.23,172.14 354.68,164.59" fill="none" id="Simulation-backto-SimulationReport" style="stroke:#181818;stroke-width:1;"/><polygon fill="#181818" points="112.29,394.39,118.8443,391.3832,118.5898,384.1766,112.0354,387.1834,112.29,394.39" style="stroke:#181818;stroke-width:1;"/><text fill="#000000" font-family="sans-serif" font-size="20" lengthAdjust="spacing" textLength="82.2754" x="200.5" y="191.7617">produces</text></g><!--link SimulationReport to ValidationResult--><g class="link" data-entity-1="ent0074" data-entity-2="ent0078" data-link-type="dependency" data-source-line="135" id="lnk82"><path codeLine="135" d="M542.04,123 C613.25,123 705.05,123 775.29,123" fill="none" id="SimulationReport-to-ValidationResult" style="stroke:#181818;stroke-width:1;"/><polygon fill="#181818" points="781.29,123,772.29,119,776.29,123,772.29,127,781.29,123" style="stroke:#181818;stroke-width:1;"/><text fill="#000000" font-family="sans-serif" font-size="20" lengthAdjust="spacing" textLength="90.0586" x="601.5" y="117.7617">concludes</text></g><!--link Simulation to AirControlArea--><g class="link" data-entity-1="ent0068" data-entity-2="ent0003" data-link-type="dependency" data-source-line="138" id="lnk83"><path codeLine="138" d="M87.16,479.82 C86.35,701.68 94.72,1718.02 312.5,1919 C445.57,2041.81 662.6523,2065.3146 782.3023,2068.6146" fill="none" id="Simulation-to-AirControlArea" style="stroke:#181818;stroke-width:1;"/><polygon fill="#181818" points="788.3,2068.78,779.4137,2064.5334,783.3019,2068.6422,779.1931,2072.5303,788.3,2068.78" style="stroke:#181818;stroke-width:1;"/><polygon fill="#000000" points="419.7067,1912.9073,418.2137,1897.7638,409.5977,1901.5336,419.7067,1912.9073" style="stroke:#000000;stroke-width:1;"/><text fill="#000000" font-family="sans-serif" font-size="20" lengthAdjust="spacing" textLength="58.9063" x="429.5" y="1913.7617">covers</text><text fill="#000000" font-family="sans-serif" font-size="20" lengthAdjust="spacing" textLength="7.7832" x="79.7726" y="508.6839">*</text><text fill="#000000" font-family="sans-serif" font-size="20" lengthAdjust="spacing" textLength="11.123" x="769.4429" y="2090.7106">1</text></g><!--link Simulation to Flight--><g class="link" data-entity-1="ent0068" data-entity-2="ent0015" data-link-type="dependency" data-source-line="139" id="lnk84"><path codeLine="139" d="M123.67,479.7 C188.21,555.9 319.492,710.8817 393.142,797.8317" fill="none" id="Simulation-to-Flight" style="stroke:#181818;stroke-width:1;"/><polygon fill="#181818" points="397.02,802.41,394.2552,792.9572,393.7883,798.5947,388.1508,798.1279,397.02,802.41" style="stroke:#181818;stroke-width:1;"/><polygon fill="#000000" points="207.1707,543.6825,201.4049,529.6003,194.2287,535.6788,207.1707,543.6825" style="stroke:#000000;stroke-width:1;"/><text fill="#000000" font-family="sans-serif" font-size="20" lengthAdjust="spacing" textLength="73.3789" x="215" y="545.7617">includes</text><text fill="#000000" font-family="sans-serif" font-size="20" lengthAdjust="spacing" textLength="7.7832" x="121.8567" y="508.8903">*</text><text fill="#000000" font-family="sans-serif" font-size="20" lengthAdjust="spacing" textLength="30.0195" x="359.7337" y="790.3159">1..*</text></g><!--link Simulation to WeatherData--><g class="link" data-entity-1="ent0068" data-entity-2="ent0056" data-link-type="dependency" data-source-line="140" id="lnk85"><path codeLine="140" d="M88.6,479.71 C94.09,633.71 126.28,1171.99 312.5,1563 C328.06,1595.68 347.6931,1622.8122 370.8131,1649.4022" fill="none" id="Simulation-to-WeatherData" style="stroke:#181818;stroke-width:1;"/><polygon fill="#181818" points="374.75,1653.93,371.8632,1644.5137,371.4692,1650.1569,365.8261,1649.7629,374.75,1653.93" style="stroke:#181818;stroke-width:1;"/><polygon fill="#000000" points="219.3763,1172.355,220.5531,1157.1836,211.4109,1159.3894,219.3763,1172.355" style="stroke:#000000;stroke-width:1;"/><text fill="#000000" font-family="sans-serif" font-size="20" lengthAdjust="spacing" textLength="42.2461" x="230.5" y="1172.7617">uses</text><text fill="#000000" font-family="sans-serif" font-size="20" lengthAdjust="spacing" textLength="7.7832" x="89.4885" y="508.9018">*</text><text fill="#000000" font-family="sans-serif" font-size="20" lengthAdjust="spacing" textLength="7.7832" x="360.4423" y="1641.649">*</text></g><?plantuml-src bLTVRzis47_tfpZuAGaQpqxReLEp09wp00NQjOlJvSL0mOWdcuj4QYILHklwtNUaQ8kIhImBWa0ax__Tx-vYxeKicMP5hj9xvC0nOrLkhvIqI_4tmjbqb6DcmIhGOhsnm8N6r0ebHsRB2YLBxzaQbxRE4Tmpa-iS8mAfE1eiuTKqkjHCthlB7wUZZU08M9IsXWABEzHcD0f2OJmNUa7cQ9NFDR8ly_LQuvfP7CFvETiUBYxWsmWWpPanqEKWCfHMs9fepi-rKZOGVsyPY6n1DjBx0yih17Nt9xaHw8YAtWA3L1P3A5JMCYPGIV4NSGe9fZOM2pZwl9o-dXxlb2oKqbn8CjPycI_cGxeA8TypChVoAkdC7hjdUbTotIM8BlQDx2jEu7gR8xXJbUHCrvELNEI2ufJ0E5CQ3Bj7nsj4KUOYfUYzM4dM9dSy8ZMzE9-SqayS4ieg1JuJo7-fXyZtZVCcUPRlKHLSvSwTfxA_2tH3EfXs09Dka5SvyhdMWf9m8uecSZqHbsZ4caoZU0maYmcT2uajeR_DFFTlbQjaVw5ArCo1XkNBAil4OvmdZoyAzPxE1AwKBXYbvF5H7idZyCkELp8Ksv71T08l9sV7pdIKLH6atDGb1XCfGbNE6ZlI3TFMsxHV9H5Z0k_a0zE2kN8GsLO4s0tAbRn4mg-jD2v36A6eZ8KxNCdhXd3xy0AOvF0WKeG7mZIRE2lPdR6QfJP4Ub_QmL17kUaf6QBl-zTdI-2peORtbNoAVVzv5x2TmYtBhrIxzL0bS5P_p6uHxvlJrgjTQVNDwGfDO8U-3ue0MSFiB9bEtwxaJOKcd5zEtyBDfjBDUKRdSMlaeadjqr693Bias3pJrBxemSY5yefxYH6-pGXfg6-aE1dtCVOfPpA6whSdYjFJ9l1UP9ZMQOu9SCq8FASNGCuAJYxnbQIs-sOAARKOwYalm1tFW75kLl8htMrGDvUlTqncqeEFKxIqp5Pc6pQdnt_j5FKQHeNvxnNpNWp5tb_wBuAlFUndB2RP0WjAPOGL3-XdofkfHtleSjH53tMENkiDnDHmBxf0Lvdxw8WxFO399EgPpl83gFs767iO6oRibHGHzk5vSWhZsMHoCjv3IgeAYWVoZrdFx43VgPKDC-vhH-clsoX4YVQqpNUNsaUucvUKqU10MbAe0jeHTTjK5o7hMLjAHFx4hAA9ImCIkSDhG2WDC5Nf53zfzK1vFjpEO-c9g_TNPmH7xew5fw6oohGgLhAWVK-K579yf9JGY88o23RZrbWXEGrlBjmK6smkszrmxlS_Rsc90Ig7rg3Roo5HURpovCzURqXW4b_GX6G51isCEW2jPxI6b4fRFvkMWhpta_dOTQqchQGlzNSKiD0nLf9qWfU5DCfgwdtQxtgCseoBKXpkaxOMks5BGZPTWNLVJdgRaFV3c-415oz2hSdFARAM-XbhS4liAksQ5ht1EKBjNDjEJQACQ_J0m3iWlBDeU95mxWIvFZURHhlpacLewvkDHhDHEVzV7RRlspNwz0-8iCgol46_-Gy_WY1QquH33LTfLL28NPAHcZMD8WSmM42XNF-QmBkYg2oxeqytfMRJdtwWlxFPTlRyqOmMBzaGA8D59PdlCKIB9HDvEtcYtBhwEHpWNT--yijfdwSNrtZxVaB1pdFg5BnAqNI8mwlhidikkVOjqvomR5nLHnh611S_dyQpSVzV1SVbDaYusEUuwFPzD_k2WW5g1yjESwoCf_qN?></g></svg>