<?plantuml 1.2026.2?><svg xmlns="http://www.w3.org/2000/svg" xmlns:xlink="http://www.w3.org/1999/xlink" contentStyleType="text/css" data-diagram-type="CLASS" height="1979px" preserveAspectRatio="none" style="width:3148px;height:1979px;background:#FFFFFF;" version="1.1" viewBox="0 0 3148 1979" width="3148px" zoomAndPan="magnify"><defs/><g><!--cluster AirControlArea_Aggregate--><g class="cluster" data-qualified-name="AirControlArea_Aggregate" data-source-line="7" id="ent0002"><rect fill="none" height="388" rx="2.5" ry="2.5" style="stroke:#000000;stroke-width:1.5;" width="1379" x="1763" y="1393"/><text fill="#000000" font-family="sans-serif" font-size="20" font-style="italic" lengthAdjust="spacing" textLength="112.3242" x="2396.3379" y="1415.7617">&#171;aggregate&#187;</text><text fill="#000000" font-family="sans-serif" font-size="20" font-weight="bold" lengthAdjust="spacing" textLength="253.3789" x="2325.8105" y="1440.918">AirControlArea_Aggregate</text></g><!--cluster Flight_Aggregate--><g class="cluster" data-qualified-name="Flight_Aggregate" data-source-line="27" id="ent0014"><rect fill="none" height="1033" rx="2.5" ry="2.5" style="stroke:#000000;stroke-width:1.5;" width="2026" x="7" y="7"/><text fill="#000000" font-family="sans-serif" font-size="20" font-style="italic" lengthAdjust="spacing" textLength="112.3242" x="963.8379" y="29.7617">&#171;aggregate&#187;</text><text fill="#000000" font-family="sans-serif" font-size="20" font-weight="bold" lengthAdjust="spacing" textLength="164.4531" x="937.7734" y="54.918">Flight_Aggregate</text></g><!--cluster WeatherData_Aggregate--><g class="cluster" data-qualified-name="WeatherData_Aggregate" data-source-line="92" id="ent0055"><rect fill="none" height="305" rx="2.5" ry="2.5" style="stroke:#000000;stroke-width:1.5;" width="1513.5" x="868.5" y="1064"/><text fill="#000000" font-family="sans-serif" font-size="20" font-style="italic" lengthAdjust="spacing" textLength="112.3242" x="1569.0879" y="1086.7617">&#171;aggregate&#187;</text><text fill="#000000" font-family="sans-serif" font-size="20" font-weight="bold" lengthAdjust="spacing" textLength="232.2852" x="1509.1074" y="1111.918">WeatherData_Aggregate</text></g><!--cluster Simulation_Aggregate--><g class="cluster" data-qualified-name="Simulation_Aggregate" data-source-line="114" id="ent0068"><rect fill="none" height="497" rx="2.5" ry="2.5" style="stroke:#000000;stroke-width:1.5;" width="1095" x="464" y="1476"/><text fill="#000000" font-family="sans-serif" font-size="20" font-style="italic" lengthAdjust="spacing" textLength="112.3242" x="955.3379" y="1498.7617">&#171;aggregate&#187;</text><text fill="#000000" font-family="sans-serif" font-size="20" font-weight="bold" lengthAdjust="spacing" textLength="212.2559" x="905.3721" y="1523.918">Simulation_Aggregate</text></g><!--class AirControlArea--><g class="entity" data-qualified-name="AirControlArea_Aggregate.AirControlArea" data-source-line="8" id="ent0003"><rect fill="#F1F1F1" height="85.4688" rx="2.5" ry="2.5" style="stroke:#181818;stroke-width:0.5;" width="165.1621" x="1779" y="1504.5"/><ellipse cx="1795" cy="1547.2344" fill="#ADD1B2" rx="12" ry="12" style="stroke:#181818;stroke-width:1;"/><path d="M1797.1406,1542.1563 Q1797.3281,1541.9063 1797.5469,1541.7813 Q1797.7656,1541.6406 1798.0156,1541.6406 Q1798.4531,1541.6406 1798.7344,1541.9531 Q1799.0156,1542.25 1799.0156,1542.9688 L1799.0156,1544.6719 Q1799.0156,1545.3906 1798.7344,1545.7031 Q1798.4531,1546.0156 1798.0156,1546.0156 Q1797.625,1546.0156 1797.375,1545.7813 Q1797.125,1545.5625 1797.0156,1544.9531 Q1796.9531,1544.5313 1796.7344,1544.3125 Q1796.3438,1543.875 1795.625,1543.6094 Q1794.9063,1543.3438 1794.1875,1543.3438 Q1793.2813,1543.3438 1792.5313,1543.7344 Q1791.7813,1544.125 1791.2031,1545.0156 Q1790.625,1545.8906 1790.625,1547.0938 L1790.625,1548.3906 Q1790.625,1549.8438 1791.6719,1550.8125 Q1792.7344,1551.7813 1794.5938,1551.7813 Q1795.7031,1551.7813 1796.4844,1551.4688 Q1796.9219,1551.2969 1797.4375,1550.7813 Q1797.75,1550.4688 1797.9219,1550.375 Q1798.0938,1550.2813 1798.3281,1550.2813 Q1798.7188,1550.2813 1799.0156,1550.5938 Q1799.3281,1550.8906 1799.3281,1551.2969 Q1799.3281,1551.7031 1798.9219,1552.1719 Q1798.3281,1552.8594 1797.3906,1553.25 Q1796.125,1553.7813 1794.6094,1553.7813 Q1792.8281,1553.7813 1791.4063,1553.0469 Q1790.25,1552.4531 1789.4375,1551.1875 Q1788.625,1549.9219 1788.625,1548.4375 L1788.625,1547.0781 Q1788.625,1545.5156 1789.3438,1544.1719 Q1790.0781,1542.8125 1791.3594,1542.0781 Q1792.6563,1541.3438 1794.1094,1541.3438 Q1794.9688,1541.3438 1795.7188,1541.5469 Q1796.4844,1541.75 1797.1406,1542.1563 Z " fill="#000000"/><text fill="#000000" font-family="sans-serif" font-size="20" font-style="italic" lengthAdjust="spacing" textLength="70.0488" x="1840.5566" y="1530.2617">&#171;entity&#187;</text><text fill="#000000" font-family="sans-serif" font-size="20" font-style="italic" lengthAdjust="spacing" textLength="56.709" x="1847.2266" y="1555.418">&#171;root&#187;</text><text fill="#000000" font-family="sans-serif" font-size="20" lengthAdjust="spacing" textLength="131.1621" x="1810" y="1580.5742">AirControlArea</text></g><!--class AreaCode--><g class="entity" data-qualified-name="AirControlArea_Aggregate.AreaCode" data-source-line="10" id="ent0004"><rect fill="#F1F1F1" height="93.4688" rx="2.5" ry="2.5" style="stroke:#181818;stroke-width:0.5;" width="158.9844" x="2612.5" y="1671.5"/><ellipse cx="2628.5" cy="1701.6563" fill="#ADD1B2" rx="12" ry="12" style="stroke:#181818;stroke-width:1;"/><path d="M2630.6406,1696.5781 Q2630.8281,1696.3281 2631.0469,1696.2031 Q2631.2656,1696.0625 2631.5156,1696.0625 Q2631.9531,1696.0625 2632.2344,1696.375 Q2632.5156,1696.6719 2632.5156,1697.3906 L2632.5156,1699.0938 Q2632.5156,1699.8125 2632.2344,1700.125 Q2631.9531,1700.4375 2631.5156,1700.4375 Q2631.125,1700.4375 2630.875,1700.2031 Q2630.625,1699.9844 2630.5156,1699.375 Q2630.4531,1698.9531 2630.2344,1698.7344 Q2629.8438,1698.2969 2629.125,1698.0313 Q2628.4063,1697.7656 2627.6875,1697.7656 Q2626.7813,1697.7656 2626.0313,1698.1563 Q2625.2813,1698.5469 2624.7031,1699.4375 Q2624.125,1700.3125 2624.125,1701.5156 L2624.125,1702.8125 Q2624.125,1704.2656 2625.1719,1705.2344 Q2626.2344,1706.2031 2628.0938,1706.2031 Q2629.2031,1706.2031 2629.9844,1705.8906 Q2630.4219,1705.7188 2630.9375,1705.2031 Q2631.25,1704.8906 2631.4219,1704.7969 Q2631.5938,1704.7031 2631.8281,1704.7031 Q2632.2188,1704.7031 2632.5156,1705.0156 Q2632.8281,1705.3125 2632.8281,1705.7188 Q2632.8281,1706.125 2632.4219,1706.5938 Q2631.8281,1707.2813 2630.8906,1707.6719 Q2629.625,1708.2031 2628.1094,1708.2031 Q2626.3281,1708.2031 2624.9063,1707.4688 Q2623.75,1706.875 2622.9375,1705.6094 Q2622.125,1704.3438 2622.125,1702.8594 L2622.125,1701.5 Q2622.125,1699.9375 2622.8438,1698.5938 Q2623.5781,1697.2344 2624.8594,1696.5 Q2626.1563,1695.7656 2627.6094,1695.7656 Q2628.4688,1695.7656 2629.2188,1695.9688 Q2629.9844,1696.1719 2630.6406,1696.5781 Z " fill="#000000"/><text fill="#000000" font-family="sans-serif" font-size="20" font-style="italic" lengthAdjust="spacing" textLength="128.9844" x="2641.5" y="1697.2617">&#171;value object&#187;</text><text fill="#000000" font-family="sans-serif" font-size="20" lengthAdjust="spacing" textLength="90.0586" x="2660.9629" y="1722.418">AreaCode</text><line style="stroke:#181818;stroke-width:0.5;" x1="2613.5" x2="2770.4844" y1="1731.8125" y2="1731.8125"/><text fill="#000000" font-family="sans-serif" font-size="20" lengthAdjust="spacing" textLength="43.3691" x="2618.5" y="1756.5742">code</text></g><g class="entity" data-qualified-name="AirControlArea_Aggregate.GMN5" data-source-line="13" id="ent0006"><path d="M2862.5,1700.5 L2862.5,1714 L2771.79,1718 L2862.5,1722 L2862.5,1735.6563 A0,0 0 0 0 2862.5,1735.6563 L3113.6074,1735.6563 A0,0 0 0 0 3113.6074,1735.6563 L3113.6074,1710.5 L3103.6074,1700.5 L2862.5,1700.5 A0,0 0 0 0 2862.5,1700.5" fill="#FEFFDD" style="stroke:#181818;stroke-width:0.5;"/><path d="M3103.6074,1700.5 L3103.6074,1710.5 L3113.6074,1710.5 L3103.6074,1700.5" fill="#FEFFDD" style="stroke:#181818;stroke-width:0.5;"/><text fill="#000000" font-family="sans-serif" font-size="20" lengthAdjust="spacing" textLength="230.1074" x="2868.5" y="1726.2617">unique in system (US050)</text></g><!--class Coordinates_ACA--><g class="entity" data-qualified-name="AirControlArea_Aggregate.Coordinates_ACA" data-source-line="14" id="ent0008"><rect fill="#F1F1F1" height="168.9375" rx="2.5" ry="2.5" style="stroke:#181818;stroke-width:0.5;" width="194.0879" x="2595" y="1462.5"/><ellipse cx="2611" cy="1492.6563" fill="#ADD1B2" rx="12" ry="12" style="stroke:#181818;stroke-width:1;"/><path d="M2613.1406,1487.5781 Q2613.3281,1487.3281 2613.5469,1487.2031 Q2613.7656,1487.0625 2614.0156,1487.0625 Q2614.4531,1487.0625 2614.7344,1487.375 Q2615.0156,1487.6719 2615.0156,1488.3906 L2615.0156,1490.0938 Q2615.0156,1490.8125 2614.7344,1491.125 Q2614.4531,1491.4375 2614.0156,1491.4375 Q2613.625,1491.4375 2613.375,1491.2031 Q2613.125,1490.9844 2613.0156,1490.375 Q2612.9531,1489.9531 2612.7344,1489.7344 Q2612.3438,1489.2969 2611.625,1489.0313 Q2610.9063,1488.7656 2610.1875,1488.7656 Q2609.2813,1488.7656 2608.5313,1489.1563 Q2607.7813,1489.5469 2607.2031,1490.4375 Q2606.625,1491.3125 2606.625,1492.5156 L2606.625,1493.8125 Q2606.625,1495.2656 2607.6719,1496.2344 Q2608.7344,1497.2031 2610.5938,1497.2031 Q2611.7031,1497.2031 2612.4844,1496.8906 Q2612.9219,1496.7188 2613.4375,1496.2031 Q2613.75,1495.8906 2613.9219,1495.7969 Q2614.0938,1495.7031 2614.3281,1495.7031 Q2614.7188,1495.7031 2615.0156,1496.0156 Q2615.3281,1496.3125 2615.3281,1496.7188 Q2615.3281,1497.125 2614.9219,1497.5938 Q2614.3281,1498.2813 2613.3906,1498.6719 Q2612.125,1499.2031 2610.6094,1499.2031 Q2608.8281,1499.2031 2607.4063,1498.4688 Q2606.25,1497.875 2605.4375,1496.6094 Q2604.625,1495.3438 2604.625,1493.8594 L2604.625,1492.5 Q2604.625,1490.9375 2605.3438,1489.5938 Q2606.0781,1488.2344 2607.3594,1487.5 Q2608.6563,1486.7656 2610.1094,1486.7656 Q2610.9688,1486.7656 2611.7188,1486.9688 Q2612.4844,1487.1719 2613.1406,1487.5781 Z " fill="#000000"/><text fill="#000000" font-family="sans-serif" font-size="20" font-style="italic" lengthAdjust="spacing" textLength="128.9844" x="2641.5518" y="1488.2617">&#171;value object&#187;</text><text fill="#000000" font-family="sans-serif" font-size="20" lengthAdjust="spacing" textLength="160.0879" x="2626" y="1513.418">Coordinates_ACA</text><line style="stroke:#181818;stroke-width:0.5;" x1="2596" x2="2788.0879" y1="1522.8125" y2="1522.8125"/><text fill="#000000" font-family="sans-serif" font-size="20" lengthAdjust="spacing" textLength="103.3984" x="2601" y="1547.5742">minLatitude</text><text fill="#000000" font-family="sans-serif" font-size="20" lengthAdjust="spacing" textLength="108.9551" x="2601" y="1572.7305">maxLatitude</text><text fill="#000000" font-family="sans-serif" font-size="20" lengthAdjust="spacing" textLength="120.0879" x="2601" y="1597.8867">minLongitude</text><text fill="#000000" font-family="sans-serif" font-size="20" lengthAdjust="spacing" textLength="125.6445" x="2601" y="1623.043">maxLongitude</text></g><g class="entity" data-qualified-name="AirControlArea_Aggregate.GMN9" data-source-line="20" id="ent0010"><path d="M2850,1504.5 L2850,1543 L2789.27,1547 L2850,1551 L2850,1589.9688 A0,0 0 0 0 2850,1589.9688 L3125.9512,1589.9688 A0,0 0 0 0 3125.9512,1589.9688 L3125.9512,1514.5 L3115.9512,1504.5 L2850,1504.5 A0,0 0 0 0 2850,1504.5" fill="#FEFFDD" style="stroke:#181818;stroke-width:0.5;"/><path d="M3115.9512,1504.5 L3115.9512,1514.5 L3125.9512,1514.5 L3115.9512,1504.5" fill="#FEFFDD" style="stroke:#181818;stroke-width:0.5;"/><text fill="#000000" font-family="sans-serif" font-size="20" lengthAdjust="spacing" textLength="184.5703" x="2856" y="1530.2617">Rectangle boundary.</text><text fill="#000000" font-family="sans-serif" font-size="20" lengthAdjust="spacing" textLength="254.9512" x="2856" y="1555.418">Client: "for sake of simplicity,</text><text fill="#000000" font-family="sans-serif" font-size="20" lengthAdjust="spacing" textLength="106.0547" x="2856" y="1580.5742">a rectangle"</text></g><!--class Flight--><g class="entity" data-qualified-name="Flight_Aggregate.Flight" data-source-line="29" id="ent0015"><rect fill="#F1F1F1" height="118.625" rx="2.5" ry="2.5" style="stroke:#181818;stroke-width:0.5;" width="204.2949" x="33" y="803.5"/><ellipse cx="97.623" cy="846.2344" fill="#ADD1B2" rx="12" ry="12" style="stroke:#181818;stroke-width:1;"/><path d="M99.7637,841.1563 Q99.9512,840.9063 100.1699,840.7813 Q100.3887,840.6406 100.6387,840.6406 Q101.0762,840.6406 101.3574,840.9531 Q101.6387,841.25 101.6387,841.9688 L101.6387,843.6719 Q101.6387,844.3906 101.3574,844.7031 Q101.0762,845.0156 100.6387,845.0156 Q100.248,845.0156 99.998,844.7813 Q99.748,844.5625 99.6387,843.9531 Q99.5762,843.5313 99.3574,843.3125 Q98.9668,842.875 98.248,842.6094 Q97.5293,842.3438 96.8105,842.3438 Q95.9043,842.3438 95.1543,842.7344 Q94.4043,843.125 93.8262,844.0156 Q93.248,844.8906 93.248,846.0938 L93.248,847.3906 Q93.248,848.8438 94.2949,849.8125 Q95.3574,850.7813 97.2168,850.7813 Q98.3262,850.7813 99.1074,850.4688 Q99.5449,850.2969 100.0605,849.7813 Q100.373,849.4688 100.5449,849.375 Q100.7168,849.2813 100.9512,849.2813 Q101.3418,849.2813 101.6387,849.5938 Q101.9512,849.8906 101.9512,850.2969 Q101.9512,850.7031 101.5449,851.1719 Q100.9512,851.8594 100.0137,852.25 Q98.748,852.7813 97.2324,852.7813 Q95.4512,852.7813 94.0293,852.0469 Q92.873,851.4531 92.0605,850.1875 Q91.248,848.9219 91.248,847.4375 L91.248,846.0781 Q91.248,844.5156 91.9668,843.1719 Q92.7012,841.8125 93.9824,841.0781 Q95.2793,840.3438 96.7324,840.3438 Q97.5918,840.3438 98.3418,840.5469 Q99.1074,840.75 99.7637,841.1563 Z " fill="#000000"/><text fill="#000000" font-family="sans-serif" font-size="20" font-style="italic" lengthAdjust="spacing" textLength="70.0488" x="117.623" y="829.2617">&#171;entity&#187;</text><text fill="#000000" font-family="sans-serif" font-size="20" font-style="italic" lengthAdjust="spacing" textLength="56.709" x="124.293" y="854.418">&#171;root&#187;</text><text fill="#000000" font-family="sans-serif" font-size="20" lengthAdjust="spacing" textLength="48.9063" x="128.1943" y="879.5742">Flight</text><line style="stroke:#181818;stroke-width:0.5;" x1="34" x2="236.2949" y1="888.9688" y2="888.9688"/><text fill="#000000" font-family="sans-serif" font-size="20" lengthAdjust="spacing" textLength="192.2949" x="39" y="913.7305">scheduledArrivalTime</text></g><!--class FlightDesignator--><g class="entity" data-qualified-name="Flight_Aggregate.FlightDesignator" data-source-line="33" id="ent0016"><rect fill="#F1F1F1" height="143.7813" rx="2.5" ry="2.5" style="stroke:#181818;stroke-width:0.5;" width="179.625" x="453.5" y="545"/><ellipse cx="469.5" cy="575.1563" fill="#ADD1B2" rx="12" ry="12" style="stroke:#181818;stroke-width:1;"/><path d="M471.6406,570.0781 Q471.8281,569.8281 472.0469,569.7031 Q472.2656,569.5625 472.5156,569.5625 Q472.9531,569.5625 473.2344,569.875 Q473.5156,570.1719 473.5156,570.8906 L473.5156,572.5938 Q473.5156,573.3125 473.2344,573.625 Q472.9531,573.9375 472.5156,573.9375 Q472.125,573.9375 471.875,573.7031 Q471.625,573.4844 471.5156,572.875 Q471.4531,572.4531 471.2344,572.2344 Q470.8438,571.7969 470.125,571.5313 Q469.4063,571.2656 468.6875,571.2656 Q467.7813,571.2656 467.0313,571.6563 Q466.2813,572.0469 465.7031,572.9375 Q465.125,573.8125 465.125,575.0156 L465.125,576.3125 Q465.125,577.7656 466.1719,578.7344 Q467.2344,579.7031 469.0938,579.7031 Q470.2031,579.7031 470.9844,579.3906 Q471.4219,579.2188 471.9375,578.7031 Q472.25,578.3906 472.4219,578.2969 Q472.5938,578.2031 472.8281,578.2031 Q473.2188,578.2031 473.5156,578.5156 Q473.8281,578.8125 473.8281,579.2188 Q473.8281,579.625 473.4219,580.0938 Q472.8281,580.7813 471.8906,581.1719 Q470.625,581.7031 469.1094,581.7031 Q467.3281,581.7031 465.9063,580.9688 Q464.75,580.375 463.9375,579.1094 Q463.125,577.8438 463.125,576.3594 L463.125,575 Q463.125,573.4375 463.8438,572.0938 Q464.5781,570.7344 465.8594,570 Q467.1563,569.2656 468.6094,569.2656 Q469.4688,569.2656 470.2188,569.4688 Q470.9844,569.6719 471.6406,570.0781 Z " fill="#000000"/><text fill="#000000" font-family="sans-serif" font-size="20" font-style="italic" lengthAdjust="spacing" textLength="128.9844" x="492.8203" y="570.7617">&#171;value object&#187;</text><text fill="#000000" font-family="sans-serif" font-size="20" lengthAdjust="spacing" textLength="145.625" x="484.5" y="595.918">FlightDesignator</text><line style="stroke:#181818;stroke-width:0.5;" x1="454.5" x2="632.125" y1="605.3125" y2="605.3125"/><text fill="#000000" font-family="sans-serif" font-size="20" lengthAdjust="spacing" textLength="150.0781" x="459.5" y="630.0742">airlineDesignator</text><text fill="#000000" font-family="sans-serif" font-size="20" lengthAdjust="spacing" textLength="113.3789" x="459.5" y="655.2305">flightNumber</text><text fill="#000000" font-family="sans-serif" font-size="20" lengthAdjust="spacing" textLength="148.9844" x="459.5" y="680.3867">operationalSuffix</text></g><g class="entity" data-qualified-name="Flight_Aggregate.GMN17" data-source-line="38" id="ent0018"><path d="M23,587 L23,647.3125 A0,0 0 0 0 23,647.3125 L247.3496,647.3125 A0,0 0 0 0 247.3496,647.3125 L247.3496,621 L453.42,617 L247.3496,613 L247.3496,597 L237.3496,587 L23,587 A0,0 0 0 0 23,587" fill="#FEFFDD" style="stroke:#181818;stroke-width:0.5;"/><path d="M237.3496,587 L237.3496,597 L247.3496,597 L237.3496,587" fill="#FEFFDD" style="stroke:#181818;stroke-width:0.5;"/><text fill="#000000" font-family="sans-serif" font-size="20" lengthAdjust="spacing" textLength="203.3496" x="29" y="612.7617">Format: xxn(n)(n)(n)(a)</text><text fill="#000000" font-family="sans-serif" font-size="20" lengthAdjust="spacing" textLength="148.9746" x="29" y="637.918">unique (sec. 3.2)</text></g><!--class FlightType--><g class="entity" data-qualified-name="Flight_Aggregate.FlightType" data-source-line="40" id="ent0020"><rect fill="#F1F1F1" height="93.4688" rx="2.5" ry="2.5" style="stroke:#181818;stroke-width:0.5;" width="127.3691" x="910" y="930.5"/><ellipse cx="926" cy="948.0781" fill="#EB937F" rx="12" ry="12" style="stroke:#181818;stroke-width:1;"/><path d="M923.9531,949.1406 L923.9531,952.0781 L929.0469,952.0781 L929.0469,950.9844 Q929.0469,950.2656 929.3281,949.9688 Q929.6094,949.6563 930.0625,949.6563 Q930.5,949.6563 930.7813,949.9688 Q931.0625,950.2656 931.0625,950.9844 L931.0625,954.0781 L921.625,954.0781 Q920.9063,954.0781 920.5938,953.7969 Q920.2969,953.5156 920.2969,953.0781 Q920.2969,952.625 920.6094,952.3594 Q920.9219,952.0781 921.625,952.0781 L921.9375,952.0781 L921.9375,944.25 L921.625,944.25 Q920.9063,944.25 920.5938,943.9688 Q920.2969,943.6875 920.2969,943.2344 Q920.2969,942.7813 920.5938,942.5156 Q920.9063,942.2344 921.625,942.2344 L930.6094,942.2344 L930.6094,945.2813 Q930.6094,946 930.3281,946.3125 Q930.0625,946.6094 929.625,946.6094 Q929.1719,946.6094 928.8906,946.3125 Q928.6094,946.0156 928.6094,945.2813 L928.6094,944.25 L923.9531,944.25 L923.9531,947.1406 L925.7031,947.1406 Q925.7031,946.3594 925.8438,946.125 Q926.1563,945.6563 926.7031,945.6563 Q927.1563,945.6563 927.4219,945.9688 Q927.7031,946.2656 927.7031,946.9844 L927.7031,949.2969 Q927.7031,949.9531 927.5469,950.1719 Q927.2344,950.625 926.7031,950.625 Q926.1563,950.625 925.8438,950.1563 Q925.7031,949.9219 925.7031,949.1406 L923.9531,949.1406 Z " fill="#000000"/><text fill="#000000" font-family="sans-serif" font-size="20" lengthAdjust="spacing" textLength="93.3691" x="941" y="956.2617">FlightType</text><line style="stroke:#181818;stroke-width:0.5;" x1="911" x2="1036.3691" y1="965.6563" y2="965.6563"/><text fill="#000000" font-family="sans-serif" font-size="20" lengthAdjust="spacing" textLength="62.2559" x="916" y="990.418">regular</text><text fill="#000000" font-family="sans-serif" font-size="20" lengthAdjust="spacing" textLength="62.2461" x="916" y="1015.5742">charter</text></g><g class="entity" data-qualified-name="Flight_Aggregate.GMN21" data-source-line="44" id="ent0022"><path d="M1241,938.5 L1241,975.5 L1037.28,977.59 L1241,983.5 L1241,1023.9688 A0,0 0 0 0 1241,1023.9688 L1561.0625,1023.9688 A0,0 0 0 0 1561.0625,1023.9688 L1561.0625,948.5 L1551.0625,938.5 L1241,938.5 A0,0 0 0 0 1241,938.5" fill="#FEFFDD" style="stroke:#181818;stroke-width:0.5;"/><path d="M1551.0625,938.5 L1551.0625,948.5 L1561.0625,948.5 L1551.0625,938.5" fill="#FEFFDD" style="stroke:#181818;stroke-width:0.5;"/><text fill="#000000" font-family="sans-serif" font-size="20" lengthAdjust="spacing" textLength="210.1172" x="1247" y="964.2617">Invariant: if regular then</text><text fill="#000000" font-family="sans-serif" font-size="20" lengthAdjust="spacing" textLength="249.0332" x="1247" y="989.418">DepartureSchedule must be</text><text fill="#000000" font-family="sans-serif" font-size="20" lengthAdjust="spacing" textLength="299.0625" x="1247" y="1014.5742">RegularSchedule, and vice versa.</text></g><!--class DepartureSchedule--><g class="entity" data-qualified-name="Flight_Aggregate.DepartureSchedule" data-source-line="46" id="ent0024"><rect fill="#F1F1F1" height="60.3125" rx="2.5" ry="2.5" style="stroke:#181818;stroke-width:0.5;" width="206.334" x="870.5" y="830"/><ellipse cx="886.5" cy="860.1563" fill="#A9DCDF" rx="12" ry="12" style="stroke:#181818;stroke-width:1;"/><path d="M888.9531,862.1875 L884.0781,862.1875 L883.5938,863.4063 L884.0781,863.4063 Q884.8125,863.4063 885.1094,863.6875 Q885.4219,863.9531 885.4219,864.4063 Q885.4219,864.8438 885.1094,865.125 Q884.8125,865.4063 884.0781,865.4063 L881.3906,865.4063 Q880.6719,865.4063 880.3594,865.125 Q880.0469,864.8438 880.0469,864.4063 Q880.0469,863.9531 880.375,863.6719 Q880.7031,863.3906 881.4375,863.4063 L884.5781,855.5781 L883.2813,855.5781 Q882.5469,855.5781 882.2344,855.2969 Q881.9375,855.0156 881.9375,854.5625 Q881.9375,854.1094 882.2344,853.8438 Q882.5469,853.5625 883.2813,853.5625 L887.5938,853.5625 L891.5781,863.4063 Q892.2813,863.4063 892.5156,863.5625 Q892.9688,863.875 892.9688,864.4063 Q892.9688,864.8438 892.6563,865.125 Q892.3594,865.4063 891.6406,865.4063 L888.9375,865.4063 Q888.2188,865.4063 887.9063,865.125 Q887.5938,864.8438 887.5938,864.4063 Q887.5938,863.9531 887.9063,863.6875 Q888.2188,863.4063 888.9375,863.4063 L889.4219,863.4063 L888.9531,862.1875 Z M888.125,860.1875 L886.5,856.2188 L884.8906,860.1875 L888.125,860.1875 Z " fill="#000000"/><text fill="#000000" font-family="sans-serif" font-size="20" font-style="italic" lengthAdjust="spacing" textLength="128.9844" x="923.1748" y="855.7617">&#171;value object&#187;</text><text fill="#000000" font-family="sans-serif" font-size="20" font-style="italic" lengthAdjust="spacing" textLength="172.334" x="901.5" y="880.918">DepartureSchedule</text></g><!--class RegularSchedule--><g class="entity" data-qualified-name="Flight_Aggregate.RegularSchedule" data-source-line="49" id="ent0025"><rect fill="#F1F1F1" height="60.3125" rx="2.5" ry="2.5" style="stroke:#181818;stroke-width:0.5;" width="187.4375" x="1307.5" y="838"/><ellipse cx="1323.5" cy="868.1563" fill="#ADD1B2" rx="12" ry="12" style="stroke:#181818;stroke-width:1;"/><path d="M1325.6406,863.0781 Q1325.8281,862.8281 1326.0469,862.7031 Q1326.2656,862.5625 1326.5156,862.5625 Q1326.9531,862.5625 1327.2344,862.875 Q1327.5156,863.1719 1327.5156,863.8906 L1327.5156,865.5938 Q1327.5156,866.3125 1327.2344,866.625 Q1326.9531,866.9375 1326.5156,866.9375 Q1326.125,866.9375 1325.875,866.7031 Q1325.625,866.4844 1325.5156,865.875 Q1325.4531,865.4531 1325.2344,865.2344 Q1324.8438,864.7969 1324.125,864.5313 Q1323.4063,864.2656 1322.6875,864.2656 Q1321.7813,864.2656 1321.0313,864.6563 Q1320.2813,865.0469 1319.7031,865.9375 Q1319.125,866.8125 1319.125,868.0156 L1319.125,869.3125 Q1319.125,870.7656 1320.1719,871.7344 Q1321.2344,872.7031 1323.0938,872.7031 Q1324.2031,872.7031 1324.9844,872.3906 Q1325.4219,872.2188 1325.9375,871.7031 Q1326.25,871.3906 1326.4219,871.2969 Q1326.5938,871.2031 1326.8281,871.2031 Q1327.2188,871.2031 1327.5156,871.5156 Q1327.8281,871.8125 1327.8281,872.2188 Q1327.8281,872.625 1327.4219,873.0938 Q1326.8281,873.7813 1325.8906,874.1719 Q1324.625,874.7031 1323.1094,874.7031 Q1321.3281,874.7031 1319.9063,873.9688 Q1318.75,873.375 1317.9375,872.1094 Q1317.125,870.8438 1317.125,869.3594 L1317.125,868 Q1317.125,866.4375 1317.8438,865.0938 Q1318.5781,863.7344 1319.8594,863 Q1321.1563,862.2656 1322.6094,862.2656 Q1323.4688,862.2656 1324.2188,862.4688 Q1324.9844,862.6719 1325.6406,863.0781 Z " fill="#000000"/><text fill="#000000" font-family="sans-serif" font-size="20" font-style="italic" lengthAdjust="spacing" textLength="128.9844" x="1350.7266" y="863.7617">&#171;value object&#187;</text><text fill="#000000" font-family="sans-serif" font-size="20" lengthAdjust="spacing" textLength="153.4375" x="1338.5" y="888.918">RegularSchedule</text></g><g class="entity" data-qualified-name="Flight_Aggregate.GMN26" data-source-line="51" id="ent0027"><path d="M1709,850.5 L1709,864 L1494.51,868 L1709,872 L1709,885.6563 A0,0 0 0 0 1709,885.6563 L2014.0332,885.6563 A0,0 0 0 0 2014.0332,885.6563 L2014.0332,860.5 L2004.0332,850.5 L1709,850.5 A0,0 0 0 0 1709,850.5" fill="#FEFFDD" style="stroke:#181818;stroke-width:0.5;"/><path d="M2004.0332,850.5 L2004.0332,860.5 L2014.0332,860.5 L2004.0332,850.5" fill="#FEFFDD" style="stroke:#181818;stroke-width:0.5;"/><text fill="#000000" font-family="sans-serif" font-size="20" lengthAdjust="spacing" textLength="284.0332" x="1715" y="876.2617">Used when FlightType = regular</text></g><!--class ScheduleEntry--><g class="entity" data-qualified-name="Flight_Aggregate.ScheduleEntry" data-source-line="53" id="ent0029"><rect fill="#F1F1F1" height="118.625" rx="2.5" ry="2.5" style="stroke:#181818;stroke-width:0.5;" width="164.0781" x="1319" y="652.5"/><ellipse cx="1335" cy="682.6563" fill="#ADD1B2" rx="12" ry="12" style="stroke:#181818;stroke-width:1;"/><path d="M1337.1406,677.5781 Q1337.3281,677.3281 1337.5469,677.2031 Q1337.7656,677.0625 1338.0156,677.0625 Q1338.4531,677.0625 1338.7344,677.375 Q1339.0156,677.6719 1339.0156,678.3906 L1339.0156,680.0938 Q1339.0156,680.8125 1338.7344,681.125 Q1338.4531,681.4375 1338.0156,681.4375 Q1337.625,681.4375 1337.375,681.2031 Q1337.125,680.9844 1337.0156,680.375 Q1336.9531,679.9531 1336.7344,679.7344 Q1336.3438,679.2969 1335.625,679.0313 Q1334.9063,678.7656 1334.1875,678.7656 Q1333.2813,678.7656 1332.5313,679.1563 Q1331.7813,679.5469 1331.2031,680.4375 Q1330.625,681.3125 1330.625,682.5156 L1330.625,683.8125 Q1330.625,685.2656 1331.6719,686.2344 Q1332.7344,687.2031 1334.5938,687.2031 Q1335.7031,687.2031 1336.4844,686.8906 Q1336.9219,686.7188 1337.4375,686.2031 Q1337.75,685.8906 1337.9219,685.7969 Q1338.0938,685.7031 1338.3281,685.7031 Q1338.7188,685.7031 1339.0156,686.0156 Q1339.3281,686.3125 1339.3281,686.7188 Q1339.3281,687.125 1338.9219,687.5938 Q1338.3281,688.2813 1337.3906,688.6719 Q1336.125,689.2031 1334.6094,689.2031 Q1332.8281,689.2031 1331.4063,688.4688 Q1330.25,687.875 1329.4375,686.6094 Q1328.625,685.3438 1328.625,683.8594 L1328.625,682.5 Q1328.625,680.9375 1329.3438,679.5938 Q1330.0781,678.2344 1331.3594,677.5 Q1332.6563,676.7656 1334.1094,676.7656 Q1334.9688,676.7656 1335.7188,676.9688 Q1336.4844,677.1719 1337.1406,677.5781 Z " fill="#000000"/><text fill="#000000" font-family="sans-serif" font-size="20" font-style="italic" lengthAdjust="spacing" textLength="128.9844" x="1350.5469" y="678.2617">&#171;value object&#187;</text><text fill="#000000" font-family="sans-serif" font-size="20" lengthAdjust="spacing" textLength="130.0781" x="1350" y="703.418">ScheduleEntry</text><line style="stroke:#181818;stroke-width:0.5;" x1="1320" x2="1482.0781" y1="712.8125" y2="712.8125"/><text fill="#000000" font-family="sans-serif" font-size="20" lengthAdjust="spacing" textLength="104.4824" x="1325" y="737.5742">dayOfWeek</text><text fill="#000000" font-family="sans-serif" font-size="20" lengthAdjust="spacing" textLength="130.0586" x="1325" y="762.7305">departureTime</text></g><g class="entity" data-qualified-name="Flight_Aggregate.GMN30" data-source-line="57" id="ent0031"><path d="M1706,682 L1706,708 L1483.18,712 L1706,716 L1706,742.3125 A0,0 0 0 0 1706,742.3125 L2016.502,742.3125 A0,0 0 0 0 2016.502,742.3125 L2016.502,692 L2006.502,682 L1706,682 A0,0 0 0 0 1706,682" fill="#FEFFDD" style="stroke:#181818;stroke-width:0.5;"/><path d="M2006.502,682 L2006.502,692 L2016.502,692 L2006.502,682" fill="#FEFFDD" style="stroke:#181818;stroke-width:0.5;"/><text fill="#000000" font-family="sans-serif" font-size="20" lengthAdjust="spacing" textLength="201.6602" x="1712" y="707.7617">Client: "Monday 12:00;</text><text fill="#000000" font-family="sans-serif" font-size="20" lengthAdjust="spacing" textLength="289.502" x="1712" y="732.918">Tuesday 12:30; Thursday 11:30"</text></g><!--class CharterSchedule--><g class="entity" data-qualified-name="Flight_Aggregate.CharterSchedule" data-source-line="59" id="ent0033"><rect fill="#F1F1F1" height="118.625" rx="2.5" ry="2.5" style="stroke:#181818;stroke-width:0.5;" width="184.0879" x="1309" y="493.5"/><ellipse cx="1325" cy="523.6563" fill="#ADD1B2" rx="12" ry="12" style="stroke:#181818;stroke-width:1;"/><path d="M1327.1406,518.5781 Q1327.3281,518.3281 1327.5469,518.2031 Q1327.7656,518.0625 1328.0156,518.0625 Q1328.4531,518.0625 1328.7344,518.375 Q1329.0156,518.6719 1329.0156,519.3906 L1329.0156,521.0938 Q1329.0156,521.8125 1328.7344,522.125 Q1328.4531,522.4375 1328.0156,522.4375 Q1327.625,522.4375 1327.375,522.2031 Q1327.125,521.9844 1327.0156,521.375 Q1326.9531,520.9531 1326.7344,520.7344 Q1326.3438,520.2969 1325.625,520.0313 Q1324.9063,519.7656 1324.1875,519.7656 Q1323.2813,519.7656 1322.5313,520.1563 Q1321.7813,520.5469 1321.2031,521.4375 Q1320.625,522.3125 1320.625,523.5156 L1320.625,524.8125 Q1320.625,526.2656 1321.6719,527.2344 Q1322.7344,528.2031 1324.5938,528.2031 Q1325.7031,528.2031 1326.4844,527.8906 Q1326.9219,527.7188 1327.4375,527.2031 Q1327.75,526.8906 1327.9219,526.7969 Q1328.0938,526.7031 1328.3281,526.7031 Q1328.7188,526.7031 1329.0156,527.0156 Q1329.3281,527.3125 1329.3281,527.7188 Q1329.3281,528.125 1328.9219,528.5938 Q1328.3281,529.2813 1327.3906,529.6719 Q1326.125,530.2031 1324.6094,530.2031 Q1322.8281,530.2031 1321.4063,529.4688 Q1320.25,528.875 1319.4375,527.6094 Q1318.625,526.3438 1318.625,524.8594 L1318.625,523.5 Q1318.625,521.9375 1319.3438,520.5938 Q1320.0781,519.2344 1321.3594,518.5 Q1322.6563,517.7656 1324.1094,517.7656 Q1324.9688,517.7656 1325.7188,517.9688 Q1326.4844,518.1719 1327.1406,518.5781 Z " fill="#000000"/><text fill="#000000" font-family="sans-serif" font-size="20" font-style="italic" lengthAdjust="spacing" textLength="128.9844" x="1350.5518" y="519.2617">&#171;value object&#187;</text><text fill="#000000" font-family="sans-serif" font-size="20" lengthAdjust="spacing" textLength="150.0879" x="1340" y="544.418">CharterSchedule</text><line style="stroke:#181818;stroke-width:0.5;" x1="1310" x2="1492.0879" y1="553.8125" y2="553.8125"/><text fill="#000000" font-family="sans-serif" font-size="20" lengthAdjust="spacing" textLength="127.8613" x="1315" y="578.5742">departureDate</text><text fill="#000000" font-family="sans-serif" font-size="20" lengthAdjust="spacing" textLength="130.0586" x="1315" y="603.7305">departureTime</text></g><g class="entity" data-qualified-name="Flight_Aggregate.GMN34" data-source-line="63" id="ent0035"><path d="M1706,523 L1706,549 L1493.13,553 L1706,557 L1706,583.3125 A0,0 0 0 0 1706,583.3125 L2016.5801,583.3125 A0,0 0 0 0 2016.5801,583.3125 L2016.5801,533 L2006.5801,523 L1706,523 A0,0 0 0 0 1706,523" fill="#FEFFDD" style="stroke:#181818;stroke-width:0.5;"/><path d="M2006.5801,523 L2006.5801,533 L2016.5801,533 L2006.5801,523" fill="#FEFFDD" style="stroke:#181818;stroke-width:0.5;"/><text fill="#000000" font-family="sans-serif" font-size="20" lengthAdjust="spacing" textLength="289.5801" x="1712" y="548.7617">Used when FlightType = charter.</text><text fill="#000000" font-family="sans-serif" font-size="20" lengthAdjust="spacing" textLength="214.3066" x="1712" y="573.918">Client: "single instance."</text></g><!--class FlightPlan--><g class="entity" data-qualified-name="Flight_Aggregate.FlightPlan" data-source-line="65" id="ent0037"><rect fill="#F1F1F1" height="60.3125" rx="2.5" ry="2.5" style="stroke:#181818;stroke-width:0.5;" width="122.9355" x="912" y="316"/><ellipse cx="928" cy="346.1563" fill="#ADD1B2" rx="12" ry="12" style="stroke:#181818;stroke-width:1;"/><path d="M930.1406,341.0781 Q930.3281,340.8281 930.5469,340.7031 Q930.7656,340.5625 931.0156,340.5625 Q931.4531,340.5625 931.7344,340.875 Q932.0156,341.1719 932.0156,341.8906 L932.0156,343.5938 Q932.0156,344.3125 931.7344,344.625 Q931.4531,344.9375 931.0156,344.9375 Q930.625,344.9375 930.375,344.7031 Q930.125,344.4844 930.0156,343.875 Q929.9531,343.4531 929.7344,343.2344 Q929.3438,342.7969 928.625,342.5313 Q927.9063,342.2656 927.1875,342.2656 Q926.2813,342.2656 925.5313,342.6563 Q924.7813,343.0469 924.2031,343.9375 Q923.625,344.8125 923.625,346.0156 L923.625,347.3125 Q923.625,348.7656 924.6719,349.7344 Q925.7344,350.7031 927.5938,350.7031 Q928.7031,350.7031 929.4844,350.3906 Q929.9219,350.2188 930.4375,349.7031 Q930.75,349.3906 930.9219,349.2969 Q931.0938,349.2031 931.3281,349.2031 Q931.7188,349.2031 932.0156,349.5156 Q932.3281,349.8125 932.3281,350.2188 Q932.3281,350.625 931.9219,351.0938 Q931.3281,351.7813 930.3906,352.1719 Q929.125,352.7031 927.6094,352.7031 Q925.8281,352.7031 924.4063,351.9688 Q923.25,351.375 922.4375,350.1094 Q921.625,348.8438 921.625,347.3594 L921.625,346 Q921.625,344.4375 922.3438,343.0938 Q923.0781,341.7344 924.3594,341 Q925.6563,340.2656 927.1094,340.2656 Q927.9688,340.2656 928.7188,340.4688 Q929.4844,340.6719 930.1406,341.0781 Z " fill="#000000"/><text fill="#000000" font-family="sans-serif" font-size="20" font-style="italic" lengthAdjust="spacing" textLength="70.0488" x="952.4434" y="341.7617">&#171;entity&#187;</text><text fill="#000000" font-family="sans-serif" font-size="20" lengthAdjust="spacing" textLength="88.9355" x="943" y="366.918">FlightPlan</text></g><g class="entity" data-qualified-name="Flight_Aggregate.GMN38" data-source-line="67" id="ent0039"><path d="M1264,368.5 L1264,386.19 L1035.01,355.24 L1264,394.19 L1264,453.9688 A0,0 0 0 0 1264,453.9688 L1538.4863,453.9688 A0,0 0 0 0 1538.4863,453.9688 L1538.4863,378.5 L1528.4863,368.5 L1264,368.5 A0,0 0 0 0 1264,368.5" fill="#FEFFDD" style="stroke:#181818;stroke-width:0.5;"/><path d="M1528.4863,368.5 L1528.4863,378.5 L1538.4863,378.5 L1528.4863,368.5" fill="#FEFFDD" style="stroke:#181818;stroke-width:0.5;"/><text fill="#000000" font-family="sans-serif" font-size="20" lengthAdjust="spacing" textLength="238.457" x="1270" y="394.2617">Lifecycle: draft -&gt; validated</text><text fill="#000000" font-family="sans-serif" font-size="20" lengthAdjust="spacing" textLength="253.4863" x="1270" y="419.418">US080 creates, US082 adds</text><text fill="#000000" font-family="sans-serif" font-size="20" lengthAdjust="spacing" textLength="233.4668" x="1270" y="444.5742">weather, US085 validates.</text></g><!--class FlightPlanStatus--><g class="entity" data-qualified-name="Flight_Aggregate.FlightPlanStatus" data-source-line="69" id="ent0041"><rect fill="#F1F1F1" height="93.4688" rx="2.5" ry="2.5" style="stroke:#181818;stroke-width:0.5;" width="179.6348" x="1311" y="235.5"/><ellipse cx="1327" cy="253.0781" fill="#EB937F" rx="12" ry="12" style="stroke:#181818;stroke-width:1;"/><path d="M1324.9531,254.1406 L1324.9531,257.0781 L1330.0469,257.0781 L1330.0469,255.9844 Q1330.0469,255.2656 1330.3281,254.9688 Q1330.6094,254.6563 1331.0625,254.6563 Q1331.5,254.6563 1331.7813,254.9688 Q1332.0625,255.2656 1332.0625,255.9844 L1332.0625,259.0781 L1322.625,259.0781 Q1321.9063,259.0781 1321.5938,258.7969 Q1321.2969,258.5156 1321.2969,258.0781 Q1321.2969,257.625 1321.6094,257.3594 Q1321.9219,257.0781 1322.625,257.0781 L1322.9375,257.0781 L1322.9375,249.25 L1322.625,249.25 Q1321.9063,249.25 1321.5938,248.9688 Q1321.2969,248.6875 1321.2969,248.2344 Q1321.2969,247.7813 1321.5938,247.5156 Q1321.9063,247.2344 1322.625,247.2344 L1331.6094,247.2344 L1331.6094,250.2813 Q1331.6094,251 1331.3281,251.3125 Q1331.0625,251.6094 1330.625,251.6094 Q1330.1719,251.6094 1329.8906,251.3125 Q1329.6094,251.0156 1329.6094,250.2813 L1329.6094,249.25 L1324.9531,249.25 L1324.9531,252.1406 L1326.7031,252.1406 Q1326.7031,251.3594 1326.8438,251.125 Q1327.1563,250.6563 1327.7031,250.6563 Q1328.1563,250.6563 1328.4219,250.9688 Q1328.7031,251.2656 1328.7031,251.9844 L1328.7031,254.2969 Q1328.7031,254.9531 1328.5469,255.1719 Q1328.2344,255.625 1327.7031,255.625 Q1327.1563,255.625 1326.8438,255.1563 Q1326.7031,254.9219 1326.7031,254.1406 L1324.9531,254.1406 Z " fill="#000000"/><text fill="#000000" font-family="sans-serif" font-size="20" lengthAdjust="spacing" textLength="145.6348" x="1342" y="261.2617">FlightPlanStatus</text><line style="stroke:#181818;stroke-width:0.5;" x1="1312" x2="1489.6348" y1="270.6563" y2="270.6563"/><text fill="#000000" font-family="sans-serif" font-size="20" lengthAdjust="spacing" textLength="40.0195" x="1317" y="295.418">draft</text><text fill="#000000" font-family="sans-serif" font-size="20" lengthAdjust="spacing" textLength="80.0586" x="1317" y="320.5742">validated</text></g><!--class FuelQuantity--><g class="entity" data-qualified-name="Flight_Aggregate.FuelQuantity" data-source-line="74" id="ent0042"><rect fill="#F1F1F1" height="118.625" rx="2.5" ry="2.5" style="stroke:#181818;stroke-width:0.5;" width="158.9844" x="1321.5" y="76.5"/><ellipse cx="1337.5" cy="106.6563" fill="#ADD1B2" rx="12" ry="12" style="stroke:#181818;stroke-width:1;"/><path d="M1339.6406,101.5781 Q1339.8281,101.3281 1340.0469,101.2031 Q1340.2656,101.0625 1340.5156,101.0625 Q1340.9531,101.0625 1341.2344,101.375 Q1341.5156,101.6719 1341.5156,102.3906 L1341.5156,104.0938 Q1341.5156,104.8125 1341.2344,105.125 Q1340.9531,105.4375 1340.5156,105.4375 Q1340.125,105.4375 1339.875,105.2031 Q1339.625,104.9844 1339.5156,104.375 Q1339.4531,103.9531 1339.2344,103.7344 Q1338.8438,103.2969 1338.125,103.0313 Q1337.4063,102.7656 1336.6875,102.7656 Q1335.7813,102.7656 1335.0313,103.1563 Q1334.2813,103.5469 1333.7031,104.4375 Q1333.125,105.3125 1333.125,106.5156 L1333.125,107.8125 Q1333.125,109.2656 1334.1719,110.2344 Q1335.2344,111.2031 1337.0938,111.2031 Q1338.2031,111.2031 1338.9844,110.8906 Q1339.4219,110.7188 1339.9375,110.2031 Q1340.25,109.8906 1340.4219,109.7969 Q1340.5938,109.7031 1340.8281,109.7031 Q1341.2188,109.7031 1341.5156,110.0156 Q1341.8281,110.3125 1341.8281,110.7188 Q1341.8281,111.125 1341.4219,111.5938 Q1340.8281,112.2813 1339.8906,112.6719 Q1338.625,113.2031 1337.1094,113.2031 Q1335.3281,113.2031 1333.9063,112.4688 Q1332.75,111.875 1331.9375,110.6094 Q1331.125,109.3438 1331.125,107.8594 L1331.125,106.5 Q1331.125,104.9375 1331.8438,103.5938 Q1332.5781,102.2344 1333.8594,101.5 Q1335.1563,100.7656 1336.6094,100.7656 Q1337.4688,100.7656 1338.2188,100.9688 Q1338.9844,101.1719 1339.6406,101.5781 Z " fill="#000000"/><text fill="#000000" font-family="sans-serif" font-size="20" font-style="italic" lengthAdjust="spacing" textLength="128.9844" x="1350.5" y="102.2617">&#171;value object&#187;</text><text fill="#000000" font-family="sans-serif" font-size="20" lengthAdjust="spacing" textLength="113.3887" x="1358.2979" y="127.418">FuelQuantity</text><line style="stroke:#181818;stroke-width:0.5;" x1="1322.5" x2="1479.4844" y1="136.8125" y2="136.8125"/><text fill="#000000" font-family="sans-serif" font-size="20" lengthAdjust="spacing" textLength="47.8125" x="1327.5" y="161.5742">value</text><text fill="#000000" font-family="sans-serif" font-size="20" lengthAdjust="spacing" textLength="32.2461" x="1327.5" y="186.7305">unit</text></g><g class="entity" data-qualified-name="Flight_Aggregate.GMN43" data-source-line="78" id="ent0044"><path d="M1738.5,118.5 L1738.5,132 L1480.56,136 L1738.5,140 L1738.5,153.6563 A0,0 0 0 0 1738.5,153.6563 L1984.041,153.6563 A0,0 0 0 0 1984.041,153.6563 L1984.041,128.5 L1974.041,118.5 L1738.5,118.5 A0,0 0 0 0 1738.5,118.5" fill="#FEFFDD" style="stroke:#181818;stroke-width:0.5;"/><path d="M1974.041,118.5 L1974.041,128.5 L1984.041,128.5 L1974.041,118.5" fill="#FEFFDD" style="stroke:#181818;stroke-width:0.5;"/><text fill="#000000" font-family="sans-serif" font-size="20" lengthAdjust="spacing" textLength="224.541" x="1744.5" y="144.2617">must be positive (US080)</text></g><!--class WeatherData--><g class="entity" data-qualified-name="WeatherData_Aggregate.WeatherData" data-source-line="93" id="ent0056"><rect fill="#F1F1F1" height="143.7813" rx="2.5" ry="2.5" style="stroke:#181818;stroke-width:0.5;" width="177.625" x="884.5" y="1209"/><ellipse cx="912.1068" cy="1251.7344" fill="#ADD1B2" rx="12" ry="12" style="stroke:#181818;stroke-width:1;"/><path d="M914.2475,1246.6563 Q914.435,1246.4063 914.6537,1246.2813 Q914.8725,1246.1406 915.1225,1246.1406 Q915.56,1246.1406 915.8412,1246.4531 Q916.1225,1246.75 916.1225,1247.4688 L916.1225,1249.1719 Q916.1225,1249.8906 915.8412,1250.2031 Q915.56,1250.5156 915.1225,1250.5156 Q914.7318,1250.5156 914.4818,1250.2813 Q914.2318,1250.0625 914.1225,1249.4531 Q914.06,1249.0313 913.8412,1248.8125 Q913.4506,1248.375 912.7318,1248.1094 Q912.0131,1247.8438 911.2943,1247.8438 Q910.3881,1247.8438 909.6381,1248.2344 Q908.8881,1248.625 908.31,1249.5156 Q907.7318,1250.3906 907.7318,1251.5938 L907.7318,1252.8906 Q907.7318,1254.3438 908.7787,1255.3125 Q909.8412,1256.2813 911.7006,1256.2813 Q912.81,1256.2813 913.5912,1255.9688 Q914.0287,1255.7969 914.5443,1255.2813 Q914.8568,1254.9688 915.0287,1254.875 Q915.2006,1254.7813 915.435,1254.7813 Q915.8256,1254.7813 916.1225,1255.0938 Q916.435,1255.3906 916.435,1255.7969 Q916.435,1256.2031 916.0287,1256.6719 Q915.435,1257.3594 914.4975,1257.75 Q913.2318,1258.2813 911.7162,1258.2813 Q909.935,1258.2813 908.5131,1257.5469 Q907.3568,1256.9531 906.5443,1255.6875 Q905.7318,1254.4219 905.7318,1252.9375 L905.7318,1251.5781 Q905.7318,1250.0156 906.4506,1248.6719 Q907.185,1247.3125 908.4662,1246.5781 Q909.7631,1245.8438 911.2162,1245.8438 Q912.0756,1245.8438 912.8256,1246.0469 Q913.5912,1246.25 914.2475,1246.6563 Z " fill="#000000"/><text fill="#000000" font-family="sans-serif" font-size="20" font-style="italic" lengthAdjust="spacing" textLength="70.0488" x="953.5777" y="1234.7617">&#171;entity&#187;</text><text fill="#000000" font-family="sans-serif" font-size="20" font-style="italic" lengthAdjust="spacing" textLength="56.709" x="960.2477" y="1259.918">&#171;root&#187;</text><text fill="#000000" font-family="sans-serif" font-size="20" lengthAdjust="spacing" textLength="117.832" x="929.6861" y="1285.0742">WeatherData</text><line style="stroke:#181818;stroke-width:0.5;" x1="885.5" x2="1061.125" y1="1294.4688" y2="1294.4688"/><text fill="#000000" font-family="sans-serif" font-size="20" lengthAdjust="spacing" textLength="165.625" x="890.5" y="1319.2305">recordedDateTime</text><text fill="#000000" font-family="sans-serif" font-size="20" lengthAdjust="spacing" textLength="134.502" x="890.5" y="1344.3867">sourceProvider</text></g><g class="entity" data-qualified-name="WeatherData_Aggregate.GMN57" data-source-line="97" id="ent0058"><path d="M1267.5,1293 L1267.5,1305.92 L1062.66,1289.7 L1267.5,1313.92 L1267.5,1353.3125 A0,0 0 0 0 1267.5,1353.3125 L1534.6133,1353.3125 A0,0 0 0 0 1534.6133,1353.3125 L1534.6133,1303 L1524.6133,1293 L1267.5,1293 A0,0 0 0 0 1267.5,1293" fill="#FEFFDD" style="stroke:#181818;stroke-width:0.5;"/><path d="M1524.6133,1293 L1524.6133,1303 L1534.6133,1303 L1524.6133,1293" fill="#FEFFDD" style="stroke:#181818;stroke-width:0.5;"/><text fill="#000000" font-family="sans-serif" font-size="20" lengthAdjust="spacing" textLength="246.1133" x="1273.5" y="1318.7617">US042: "data might be from</text><text fill="#000000" font-family="sans-serif" font-size="20" lengthAdjust="spacing" textLength="240.5371" x="1273.5" y="1343.918">multiple external providers"</text></g><!--class WindCondition--><g class="entity" data-qualified-name="WeatherData_Aggregate.WindCondition" data-source-line="98" id="ent0060"><rect fill="#F1F1F1" height="118.625" rx="2.5" ry="2.5" style="stroke:#181818;stroke-width:0.5;" width="164.0684" x="1319" y="1133.5"/><ellipse cx="1335" cy="1163.6563" fill="#ADD1B2" rx="12" ry="12" style="stroke:#181818;stroke-width:1;"/><path d="M1337.1406,1158.5781 Q1337.3281,1158.3281 1337.5469,1158.2031 Q1337.7656,1158.0625 1338.0156,1158.0625 Q1338.4531,1158.0625 1338.7344,1158.375 Q1339.0156,1158.6719 1339.0156,1159.3906 L1339.0156,1161.0938 Q1339.0156,1161.8125 1338.7344,1162.125 Q1338.4531,1162.4375 1338.0156,1162.4375 Q1337.625,1162.4375 1337.375,1162.2031 Q1337.125,1161.9844 1337.0156,1161.375 Q1336.9531,1160.9531 1336.7344,1160.7344 Q1336.3438,1160.2969 1335.625,1160.0313 Q1334.9063,1159.7656 1334.1875,1159.7656 Q1333.2813,1159.7656 1332.5313,1160.1563 Q1331.7813,1160.5469 1331.2031,1161.4375 Q1330.625,1162.3125 1330.625,1163.5156 L1330.625,1164.8125 Q1330.625,1166.2656 1331.6719,1167.2344 Q1332.7344,1168.2031 1334.5938,1168.2031 Q1335.7031,1168.2031 1336.4844,1167.8906 Q1336.9219,1167.7188 1337.4375,1167.2031 Q1337.75,1166.8906 1337.9219,1166.7969 Q1338.0938,1166.7031 1338.3281,1166.7031 Q1338.7188,1166.7031 1339.0156,1167.0156 Q1339.3281,1167.3125 1339.3281,1167.7188 Q1339.3281,1168.125 1338.9219,1168.5938 Q1338.3281,1169.2813 1337.3906,1169.6719 Q1336.125,1170.2031 1334.6094,1170.2031 Q1332.8281,1170.2031 1331.4063,1169.4688 Q1330.25,1168.875 1329.4375,1167.6094 Q1328.625,1166.3438 1328.625,1164.8594 L1328.625,1163.5 Q1328.625,1161.9375 1329.3438,1160.5938 Q1330.0781,1159.2344 1331.3594,1158.5 Q1332.6563,1157.7656 1334.1094,1157.7656 Q1334.9688,1157.7656 1335.7188,1157.9688 Q1336.4844,1158.1719 1337.1406,1158.5781 Z " fill="#000000"/><text fill="#000000" font-family="sans-serif" font-size="20" font-style="italic" lengthAdjust="spacing" textLength="128.9844" x="1350.542" y="1159.2617">&#171;value object&#187;</text><text fill="#000000" font-family="sans-serif" font-size="20" lengthAdjust="spacing" textLength="130.0684" x="1350" y="1184.418">WindCondition</text><line style="stroke:#181818;stroke-width:0.5;" x1="1320" x2="1482.0684" y1="1193.8125" y2="1193.8125"/><text fill="#000000" font-family="sans-serif" font-size="20" lengthAdjust="spacing" textLength="126.748" x="1325" y="1218.5742">directionAngle</text><text fill="#000000" font-family="sans-serif" font-size="20" lengthAdjust="spacing" textLength="54.4922" x="1325" y="1243.7305">speed</text></g><!--class Coordinates_WD--><g class="entity" data-qualified-name="WeatherData_Aggregate.Coordinates_WD" data-source-line="102" id="ent0061"><rect fill="#F1F1F1" height="118.625" rx="2.5" ry="2.5" style="stroke:#181818;stroke-width:0.5;" width="186.2852" x="1768.5" y="1133.5"/><ellipse cx="1784.5" cy="1163.6563" fill="#ADD1B2" rx="12" ry="12" style="stroke:#181818;stroke-width:1;"/><path d="M1786.6406,1158.5781 Q1786.8281,1158.3281 1787.0469,1158.2031 Q1787.2656,1158.0625 1787.5156,1158.0625 Q1787.9531,1158.0625 1788.2344,1158.375 Q1788.5156,1158.6719 1788.5156,1159.3906 L1788.5156,1161.0938 Q1788.5156,1161.8125 1788.2344,1162.125 Q1787.9531,1162.4375 1787.5156,1162.4375 Q1787.125,1162.4375 1786.875,1162.2031 Q1786.625,1161.9844 1786.5156,1161.375 Q1786.4531,1160.9531 1786.2344,1160.7344 Q1785.8438,1160.2969 1785.125,1160.0313 Q1784.4063,1159.7656 1783.6875,1159.7656 Q1782.7813,1159.7656 1782.0313,1160.1563 Q1781.2813,1160.5469 1780.7031,1161.4375 Q1780.125,1162.3125 1780.125,1163.5156 L1780.125,1164.8125 Q1780.125,1166.2656 1781.1719,1167.2344 Q1782.2344,1168.2031 1784.0938,1168.2031 Q1785.2031,1168.2031 1785.9844,1167.8906 Q1786.4219,1167.7188 1786.9375,1167.2031 Q1787.25,1166.8906 1787.4219,1166.7969 Q1787.5938,1166.7031 1787.8281,1166.7031 Q1788.2188,1166.7031 1788.5156,1167.0156 Q1788.8281,1167.3125 1788.8281,1167.7188 Q1788.8281,1168.125 1788.4219,1168.5938 Q1787.8281,1169.2813 1786.8906,1169.6719 Q1785.625,1170.2031 1784.1094,1170.2031 Q1782.3281,1170.2031 1780.9063,1169.4688 Q1779.75,1168.875 1778.9375,1167.6094 Q1778.125,1166.3438 1778.125,1164.8594 L1778.125,1163.5 Q1778.125,1161.9375 1778.8438,1160.5938 Q1779.5781,1159.2344 1780.8594,1158.5 Q1782.1563,1157.7656 1783.6094,1157.7656 Q1784.4688,1157.7656 1785.2188,1157.9688 Q1785.9844,1158.1719 1786.6406,1158.5781 Z " fill="#000000"/><text fill="#000000" font-family="sans-serif" font-size="20" font-style="italic" lengthAdjust="spacing" textLength="128.9844" x="1811.1504" y="1159.2617">&#171;value object&#187;</text><text fill="#000000" font-family="sans-serif" font-size="20" lengthAdjust="spacing" textLength="152.2852" x="1799.5" y="1184.418">Coordinates_WD</text><line style="stroke:#181818;stroke-width:0.5;" x1="1769.5" x2="1953.7852" y1="1193.8125" y2="1193.8125"/><text fill="#000000" font-family="sans-serif" font-size="20" lengthAdjust="spacing" textLength="64.4922" x="1774.5" y="1218.5742">latitude</text><text fill="#000000" font-family="sans-serif" font-size="20" lengthAdjust="spacing" textLength="81.1816" x="1774.5" y="1243.7305">longitude</text></g><g class="entity" data-qualified-name="WeatherData_Aggregate.GMN62" data-source-line="106" id="ent0063"><path d="M2080,1137.5 L2080,1189 L1954.61,1193 L2080,1197 L2080,1248.125 A0,0 0 0 0 2080,1248.125 L2366.0098,1248.125 A0,0 0 0 0 2366.0098,1248.125 L2366.0098,1147.5 L2356.0098,1137.5 L2080,1137.5 A0,0 0 0 0 2080,1137.5" fill="#FEFFDD" style="stroke:#181818;stroke-width:0.5;"/><path d="M2356.0098,1137.5 L2356.0098,1147.5 L2366.0098,1147.5 L2356.0098,1137.5" fill="#FEFFDD" style="stroke:#181818;stroke-width:0.5;"/><text fill="#000000" font-family="sans-serif" font-size="20" lengthAdjust="spacing" textLength="246.7676" x="2086" y="1163.2617">Coordinates (same class as</text><text fill="#000000" font-family="sans-serif" font-size="20" lengthAdjust="spacing" textLength="230.1074" x="2086" y="1188.418">in Airport and Simulation).</text><text fill="#000000" font-family="sans-serif" font-size="20" lengthAdjust="spacing" textLength="228.3105" x="2086" y="1213.5742">Carries location: "weather</text><text fill="#000000" font-family="sans-serif" font-size="20" lengthAdjust="spacing" textLength="265.0098" x="2086" y="1238.7305">not same everywhere in area"</text></g><!--class Simulation--><g class="entity" data-qualified-name="Simulation_Aggregate.Simulation" data-source-line="115" id="ent0069"><rect fill="#F1F1F1" height="85.4688" rx="2.5" ry="2.5" style="stroke:#181818;stroke-width:0.5;" width="127.3789" x="480" y="1623.5"/><ellipse cx="496" cy="1666.2344" fill="#ADD1B2" rx="12" ry="12" style="stroke:#181818;stroke-width:1;"/><path d="M498.1406,1661.1563 Q498.3281,1660.9063 498.5469,1660.7813 Q498.7656,1660.6406 499.0156,1660.6406 Q499.4531,1660.6406 499.7344,1660.9531 Q500.0156,1661.25 500.0156,1661.9688 L500.0156,1663.6719 Q500.0156,1664.3906 499.7344,1664.7031 Q499.4531,1665.0156 499.0156,1665.0156 Q498.625,1665.0156 498.375,1664.7813 Q498.125,1664.5625 498.0156,1663.9531 Q497.9531,1663.5313 497.7344,1663.3125 Q497.3438,1662.875 496.625,1662.6094 Q495.9063,1662.3438 495.1875,1662.3438 Q494.2813,1662.3438 493.5313,1662.7344 Q492.7813,1663.125 492.2031,1664.0156 Q491.625,1664.8906 491.625,1666.0938 L491.625,1667.3906 Q491.625,1668.8438 492.6719,1669.8125 Q493.7344,1670.7813 495.5938,1670.7813 Q496.7031,1670.7813 497.4844,1670.4688 Q497.9219,1670.2969 498.4375,1669.7813 Q498.75,1669.4688 498.9219,1669.375 Q499.0938,1669.2813 499.3281,1669.2813 Q499.7188,1669.2813 500.0156,1669.5938 Q500.3281,1669.8906 500.3281,1670.2969 Q500.3281,1670.7031 499.9219,1671.1719 Q499.3281,1671.8594 498.3906,1672.25 Q497.125,1672.7813 495.6094,1672.7813 Q493.8281,1672.7813 492.4063,1672.0469 Q491.25,1671.4531 490.4375,1670.1875 Q489.625,1668.9219 489.625,1667.4375 L489.625,1666.0781 Q489.625,1664.5156 490.3438,1663.1719 Q491.0781,1661.8125 492.3594,1661.0781 Q493.6563,1660.3438 495.1094,1660.3438 Q495.9688,1660.3438 496.7188,1660.5469 Q497.4844,1660.75 498.1406,1661.1563 Z " fill="#000000"/><text fill="#000000" font-family="sans-serif" font-size="20" font-style="italic" lengthAdjust="spacing" textLength="70.0488" x="522.665" y="1649.2617">&#171;entity&#187;</text><text fill="#000000" font-family="sans-serif" font-size="20" font-style="italic" lengthAdjust="spacing" textLength="56.709" x="529.335" y="1674.418">&#171;root&#187;</text><text fill="#000000" font-family="sans-serif" font-size="20" lengthAdjust="spacing" textLength="93.3789" x="511" y="1699.5742">Simulation</text></g><!--class SimulationTimeRange--><g class="entity" data-qualified-name="Simulation_Aggregate.SimulationTimeRange" data-source-line="117" id="ent0070"><rect fill="#F1F1F1" height="118.625" rx="2.5" ry="2.5" style="stroke:#181818;stroke-width:0.5;" width="230.7578" x="858" y="1837.5"/><ellipse cx="874" cy="1867.6563" fill="#ADD1B2" rx="12" ry="12" style="stroke:#181818;stroke-width:1;"/><path d="M876.1406,1862.5781 Q876.3281,1862.3281 876.5469,1862.2031 Q876.7656,1862.0625 877.0156,1862.0625 Q877.4531,1862.0625 877.7344,1862.375 Q878.0156,1862.6719 878.0156,1863.3906 L878.0156,1865.0938 Q878.0156,1865.8125 877.7344,1866.125 Q877.4531,1866.4375 877.0156,1866.4375 Q876.625,1866.4375 876.375,1866.2031 Q876.125,1865.9844 876.0156,1865.375 Q875.9531,1864.9531 875.7344,1864.7344 Q875.3438,1864.2969 874.625,1864.0313 Q873.9063,1863.7656 873.1875,1863.7656 Q872.2813,1863.7656 871.5313,1864.1563 Q870.7813,1864.5469 870.2031,1865.4375 Q869.625,1866.3125 869.625,1867.5156 L869.625,1868.8125 Q869.625,1870.2656 870.6719,1871.2344 Q871.7344,1872.2031 873.5938,1872.2031 Q874.7031,1872.2031 875.4844,1871.8906 Q875.9219,1871.7188 876.4375,1871.2031 Q876.75,1870.8906 876.9219,1870.7969 Q877.0938,1870.7031 877.3281,1870.7031 Q877.7188,1870.7031 878.0156,1871.0156 Q878.3281,1871.3125 878.3281,1871.7188 Q878.3281,1872.125 877.9219,1872.5938 Q877.3281,1873.2813 876.3906,1873.6719 Q875.125,1874.2031 873.6094,1874.2031 Q871.8281,1874.2031 870.4063,1873.4688 Q869.25,1872.875 868.4375,1871.6094 Q867.625,1870.3438 867.625,1868.8594 L867.625,1867.5 Q867.625,1865.9375 868.3438,1864.5938 Q869.0781,1863.2344 870.3594,1862.5 Q871.6563,1861.7656 873.1094,1861.7656 Q873.9688,1861.7656 874.7188,1861.9688 Q875.4844,1862.1719 876.1406,1862.5781 Z " fill="#000000"/><text fill="#000000" font-family="sans-serif" font-size="20" font-style="italic" lengthAdjust="spacing" textLength="128.9844" x="922.8867" y="1863.2617">&#171;value object&#187;</text><text fill="#000000" font-family="sans-serif" font-size="20" lengthAdjust="spacing" textLength="196.7578" x="889" y="1888.418">SimulationTimeRange</text><line style="stroke:#181818;stroke-width:0.5;" x1="859" x2="1087.7578" y1="1897.8125" y2="1897.8125"/><text fill="#000000" font-family="sans-serif" font-size="20" lengthAdjust="spacing" textLength="125.5859" x="864" y="1922.5742">startDateTime</text><text fill="#000000" font-family="sans-serif" font-size="20" lengthAdjust="spacing" textLength="120.0586" x="864" y="1947.7305">endDateTime</text></g><g class="entity" data-qualified-name="Simulation_Aggregate.GMN71" data-source-line="121" id="ent0072"><path d="M1259,1879.5 L1259,1893 L1089.09,1897 L1259,1901 L1259,1914.6563 A0,0 0 0 0 1259,1914.6563 L1542.9102,1914.6563 A0,0 0 0 0 1542.9102,1914.6563 L1542.9102,1889.5 L1532.9102,1879.5 L1259,1879.5 A0,0 0 0 0 1259,1879.5" fill="#FEFFDD" style="stroke:#181818;stroke-width:0.5;"/><path d="M1532.9102,1879.5 L1532.9102,1889.5 L1542.9102,1889.5 L1532.9102,1879.5" fill="#FEFFDD" style="stroke:#181818;stroke-width:0.5;"/><text fill="#000000" font-family="sans-serif" font-size="20" lengthAdjust="spacing" textLength="262.9102" x="1265" y="1905.2617">Invariant: start &lt; end (US100)</text></g><!--class SafetyThreshold--><g class="entity" data-qualified-name="Simulation_Aggregate.SafetyThreshold" data-source-line="122" id="ent0074"><rect fill="#F1F1F1" height="118.625" rx="2.5" ry="2.5" style="stroke:#181818;stroke-width:0.5;" width="179.6348" x="883.5" y="1678.5"/><ellipse cx="899.5" cy="1708.6563" fill="#ADD1B2" rx="12" ry="12" style="stroke:#181818;stroke-width:1;"/><path d="M901.6406,1703.5781 Q901.8281,1703.3281 902.0469,1703.2031 Q902.2656,1703.0625 902.5156,1703.0625 Q902.9531,1703.0625 903.2344,1703.375 Q903.5156,1703.6719 903.5156,1704.3906 L903.5156,1706.0938 Q903.5156,1706.8125 903.2344,1707.125 Q902.9531,1707.4375 902.5156,1707.4375 Q902.125,1707.4375 901.875,1707.2031 Q901.625,1706.9844 901.5156,1706.375 Q901.4531,1705.9531 901.2344,1705.7344 Q900.8438,1705.2969 900.125,1705.0313 Q899.4063,1704.7656 898.6875,1704.7656 Q897.7813,1704.7656 897.0313,1705.1563 Q896.2813,1705.5469 895.7031,1706.4375 Q895.125,1707.3125 895.125,1708.5156 L895.125,1709.8125 Q895.125,1711.2656 896.1719,1712.2344 Q897.2344,1713.2031 899.0938,1713.2031 Q900.2031,1713.2031 900.9844,1712.8906 Q901.4219,1712.7188 901.9375,1712.2031 Q902.25,1711.8906 902.4219,1711.7969 Q902.5938,1711.7031 902.8281,1711.7031 Q903.2188,1711.7031 903.5156,1712.0156 Q903.8281,1712.3125 903.8281,1712.7188 Q903.8281,1713.125 903.4219,1713.5938 Q902.8281,1714.2813 901.8906,1714.6719 Q900.625,1715.2031 899.1094,1715.2031 Q897.3281,1715.2031 895.9063,1714.4688 Q894.75,1713.875 893.9375,1712.6094 Q893.125,1711.3438 893.125,1709.8594 L893.125,1708.5 Q893.125,1706.9375 893.8438,1705.5938 Q894.5781,1704.2344 895.8594,1703.5 Q897.1563,1702.7656 898.6094,1702.7656 Q899.4688,1702.7656 900.2188,1702.9688 Q900.9844,1703.1719 901.6406,1703.5781 Z " fill="#000000"/><text fill="#000000" font-family="sans-serif" font-size="20" font-style="italic" lengthAdjust="spacing" textLength="128.9844" x="922.8252" y="1704.2617">&#171;value object&#187;</text><text fill="#000000" font-family="sans-serif" font-size="20" lengthAdjust="spacing" textLength="145.6348" x="914.5" y="1729.418">SafetyThreshold</text><line style="stroke:#181818;stroke-width:0.5;" x1="884.5" x2="1062.1348" y1="1738.8125" y2="1738.8125"/><text fill="#000000" font-family="sans-serif" font-size="20" lengthAdjust="spacing" textLength="47.8125" x="889.5" y="1763.5742">value</text><text fill="#000000" font-family="sans-serif" font-size="20" lengthAdjust="spacing" textLength="32.2461" x="889.5" y="1788.7305">unit</text></g><!--class SimulationReport--><g class="entity" data-qualified-name="Simulation_Aggregate.SimulationReport" data-source-line="126" id="ent0075"><rect fill="#F1F1F1" height="93.4688" rx="2.5" ry="2.5" style="stroke:#181818;stroke-width:0.5;" width="187.4082" x="880" y="1545.5"/><ellipse cx="896" cy="1575.6563" fill="#ADD1B2" rx="12" ry="12" style="stroke:#181818;stroke-width:1;"/><path d="M898.1406,1570.5781 Q898.3281,1570.3281 898.5469,1570.2031 Q898.7656,1570.0625 899.0156,1570.0625 Q899.4531,1570.0625 899.7344,1570.375 Q900.0156,1570.6719 900.0156,1571.3906 L900.0156,1573.0938 Q900.0156,1573.8125 899.7344,1574.125 Q899.4531,1574.4375 899.0156,1574.4375 Q898.625,1574.4375 898.375,1574.2031 Q898.125,1573.9844 898.0156,1573.375 Q897.9531,1572.9531 897.7344,1572.7344 Q897.3438,1572.2969 896.625,1572.0313 Q895.9063,1571.7656 895.1875,1571.7656 Q894.2813,1571.7656 893.5313,1572.1563 Q892.7813,1572.5469 892.2031,1573.4375 Q891.625,1574.3125 891.625,1575.5156 L891.625,1576.8125 Q891.625,1578.2656 892.6719,1579.2344 Q893.7344,1580.2031 895.5938,1580.2031 Q896.7031,1580.2031 897.4844,1579.8906 Q897.9219,1579.7188 898.4375,1579.2031 Q898.75,1578.8906 898.9219,1578.7969 Q899.0938,1578.7031 899.3281,1578.7031 Q899.7188,1578.7031 900.0156,1579.0156 Q900.3281,1579.3125 900.3281,1579.7188 Q900.3281,1580.125 899.9219,1580.5938 Q899.3281,1581.2813 898.3906,1581.6719 Q897.125,1582.2031 895.6094,1582.2031 Q893.8281,1582.2031 892.4063,1581.4688 Q891.25,1580.875 890.4375,1579.6094 Q889.625,1578.3438 889.625,1576.8594 L889.625,1575.5 Q889.625,1573.9375 890.3438,1572.5938 Q891.0781,1571.2344 892.3594,1570.5 Q893.6563,1569.7656 895.1094,1569.7656 Q895.9688,1569.7656 896.7188,1569.9688 Q897.4844,1570.1719 898.1406,1570.5781 Z " fill="#000000"/><text fill="#000000" font-family="sans-serif" font-size="20" font-style="italic" lengthAdjust="spacing" textLength="128.9844" x="923.2119" y="1571.2617">&#171;value object&#187;</text><text fill="#000000" font-family="sans-serif" font-size="20" lengthAdjust="spacing" textLength="153.4082" x="911" y="1596.418">SimulationReport</text><line style="stroke:#181818;stroke-width:0.5;" x1="881" x2="1066.4082" y1="1605.8125" y2="1605.8125"/><text fill="#000000" font-family="sans-serif" font-size="20" lengthAdjust="spacing" textLength="96.709" x="886" y="1630.5742">totalFlights</text></g><g class="entity" data-qualified-name="Simulation_Aggregate.GMN76" data-source-line="129" id="ent0077"><path d="M1270,1678.5 L1270,1678.5 L1067.09,1620.07 L1270,1686.5 L1270,1763.9688 A0,0 0 0 0 1270,1763.9688 L1532.1914,1763.9688 A0,0 0 0 0 1532.1914,1763.9688 L1532.1914,1688.5 L1522.1914,1678.5 L1270,1678.5 A0,0 0 0 0 1270,1678.5" fill="#FEFFDD" style="stroke:#181818;stroke-width:0.5;"/><path d="M1522.1914,1678.5 L1522.1914,1688.5 L1532.1914,1688.5 L1522.1914,1678.5" fill="#FEFFDD" style="stroke:#181818;stroke-width:0.5;"/><text fill="#000000" font-family="sans-serif" font-size="20" lengthAdjust="spacing" textLength="217.8906" x="1276" y="1704.2617">Final document received</text><text fill="#000000" font-family="sans-serif" font-size="20" lengthAdjust="spacing" textLength="241.1914" x="1276" y="1729.418">from C module. Immutable.</text><text fill="#000000" font-family="sans-serif" font-size="20" lengthAdjust="spacing" textLength="127.8613" x="1276" y="1754.5742">US109/US111</text></g><!--class ValidationResult--><g class="entity" data-qualified-name="Simulation_Aggregate.ValidationResult" data-source-line="130" id="ent0079"><rect fill="#F1F1F1" height="93.4688" rx="2.5" ry="2.5" style="stroke:#181818;stroke-width:0.5;" width="178.5313" x="1311.5" y="1545.5"/><ellipse cx="1327.5" cy="1563.0781" fill="#EB937F" rx="12" ry="12" style="stroke:#181818;stroke-width:1;"/><path d="M1325.4531,1564.1406 L1325.4531,1567.0781 L1330.5469,1567.0781 L1330.5469,1565.9844 Q1330.5469,1565.2656 1330.8281,1564.9688 Q1331.1094,1564.6563 1331.5625,1564.6563 Q1332,1564.6563 1332.2813,1564.9688 Q1332.5625,1565.2656 1332.5625,1565.9844 L1332.5625,1569.0781 L1323.125,1569.0781 Q1322.4063,1569.0781 1322.0938,1568.7969 Q1321.7969,1568.5156 1321.7969,1568.0781 Q1321.7969,1567.625 1322.1094,1567.3594 Q1322.4219,1567.0781 1323.125,1567.0781 L1323.4375,1567.0781 L1323.4375,1559.25 L1323.125,1559.25 Q1322.4063,1559.25 1322.0938,1558.9688 Q1321.7969,1558.6875 1321.7969,1558.2344 Q1321.7969,1557.7813 1322.0938,1557.5156 Q1322.4063,1557.2344 1323.125,1557.2344 L1332.1094,1557.2344 L1332.1094,1560.2813 Q1332.1094,1561 1331.8281,1561.3125 Q1331.5625,1561.6094 1331.125,1561.6094 Q1330.6719,1561.6094 1330.3906,1561.3125 Q1330.1094,1561.0156 1330.1094,1560.2813 L1330.1094,1559.25 L1325.4531,1559.25 L1325.4531,1562.1406 L1327.2031,1562.1406 Q1327.2031,1561.3594 1327.3438,1561.125 Q1327.6563,1560.6563 1328.2031,1560.6563 Q1328.6563,1560.6563 1328.9219,1560.9688 Q1329.2031,1561.2656 1329.2031,1561.9844 L1329.2031,1564.2969 Q1329.2031,1564.9531 1329.0469,1565.1719 Q1328.7344,1565.625 1328.2031,1565.625 Q1327.6563,1565.625 1327.3438,1565.1563 Q1327.2031,1564.9219 1327.2031,1564.1406 L1325.4531,1564.1406 Z " fill="#000000"/><text fill="#000000" font-family="sans-serif" font-size="20" lengthAdjust="spacing" textLength="144.5313" x="1342.5" y="1571.2617">ValidationResult</text><line style="stroke:#181818;stroke-width:0.5;" x1="1312.5" x2="1489.0313" y1="1580.6563" y2="1580.6563"/><text fill="#000000" font-family="sans-serif" font-size="20" lengthAdjust="spacing" textLength="64.4922" x="1317.5" y="1605.418">passed</text><text fill="#000000" font-family="sans-serif" font-size="20" lengthAdjust="spacing" textLength="47.8125" x="1317.5" y="1630.5742">failed</text></g><!--reverse link AirControlArea to AreaCode--><g class="link" data-entity-1="ent0003" data-entity-2="ent0004" data-link-type="composition" data-source-line="22" id="lnk12"><path codeLine="22" d="M1955.9622,1566.286 C2115.5822,1599.236 2455.18,1669.33 2612.33,1701.76" fill="none" id="AirControlArea-backto-AreaCode" style="stroke:#181818;stroke-width:1;"/><polygon fill="#181818" points="1944.21,1563.86,1949.2774,1568.9904,1955.9622,1566.286,1950.8948,1561.1556,1944.21,1563.86" style="stroke:#181818;stroke-width:1;"/><text fill="#000000" font-family="sans-serif" font-size="20" lengthAdjust="spacing" textLength="103.3984" x="2399" y="1652.7617">identifiedBy</text></g><!--reverse link AirControlArea to Coordinates_ACA--><g class="link" data-entity-1="ent0003" data-entity-2="ent0008" data-link-type="composition" data-source-line="23" id="lnk13"><path codeLine="23" d="M1956.21,1547 C2110.11,1547 2430.26,1547 2594.72,1547" fill="none" id="AirControlArea-backto-Coordinates_ACA" style="stroke:#181818;stroke-width:1;"/><polygon fill="#181818" points="1944.21,1547,1950.21,1551,1956.21,1547,1950.21,1543,1944.21,1547" style="stroke:#181818;stroke-width:1;"/><text fill="#000000" font-family="sans-serif" font-size="20" lengthAdjust="spacing" textLength="101.2012" x="2400" y="1541.7617">boundedBy</text></g><!--reverse link Flight to FlightDesignator--><g class="link" data-entity-1="ent0015" data-entity-2="ent0016" data-link-type="composition" data-source-line="80" id="lnk46"><path codeLine="80" d="M209.5508,795.5102 C232.7308,775.6402 250.58,762.05 277,745 C332.9,708.93 400.49,676.49 453.48,653.29" fill="none" id="Flight-backto-FlightDesignator" style="stroke:#181818;stroke-width:1;"/><polygon fill="#181818" points="200.44,803.32,207.5987,802.452,209.5508,795.5102,202.3921,796.3782,200.44,803.32" style="stroke:#181818;stroke-width:1;"/><text fill="#000000" font-family="sans-serif" font-size="20" lengthAdjust="spacing" textLength="103.3984" x="278" y="684.7617">identifiedBy</text></g><!--link Flight to FlightType--><g class="link" data-entity-1="ent0015" data-entity-2="ent0020" data-link-type="dependency" data-source-line="81" id="lnk47"><path codeLine="81" d="M237.32,876.81 C412.29,900.65 760.165,948.0597 903.815,967.6397" fill="none" id="Flight-to-FlightType" style="stroke:#181818;stroke-width:1;"/><polygon fill="#181818" points="909.76,968.45,901.3827,963.2712,904.8058,967.7747,900.3022,971.1979,909.76,968.45" style="stroke:#181818;stroke-width:1;"/><text fill="#000000" font-family="sans-serif" font-size="20" lengthAdjust="spacing" textLength="61.1426" x="513" y="896.7617">ofType</text></g><!--reverse link Flight to DepartureSchedule--><g class="link" data-entity-1="ent0015" data-entity-2="ent0024" data-link-type="composition" data-source-line="82" id="lnk48"><path codeLine="82" d="M249.3199,862.5967 C409.9299,862.0167 709.26,860.94 870.38,860.37" fill="none" id="Flight-backto-DepartureSchedule" style="stroke:#181818;stroke-width:1;"/><polygon fill="#181818" points="237.32,862.64,243.3344,866.6183,249.3199,862.5967,243.3055,858.6184,237.32,862.64" style="stroke:#181818;stroke-width:1;"/><text fill="#000000" font-family="sans-serif" font-size="20" lengthAdjust="spacing" textLength="110.0781" x="488.5" y="856.7617">scheduledAt</text></g><!--reverse link DepartureSchedule to RegularSchedule--><g class="link" data-entity-1="ent0024" data-entity-2="ent0025" data-link-type="extension" data-source-line="83" id="lnk49"><path codeLine="83" d="M1094.6868,862.2584 C1164.8868,863.5784 1239.33,864.98 1307.38,866.26" fill="none" id="DepartureSchedule-backto-RegularSchedule" style="stroke:#181818;stroke-width:1;"/><polygon fill="none" points="1076.69,861.92,1094.574,868.2573,1094.7996,856.2595,1076.69,861.92" style="stroke:#181818;stroke-width:1;"/></g><!--reverse link DepartureSchedule to CharterSchedule--><g class="link" data-entity-1="ent0024" data-entity-2="ent0033" data-link-type="extension" data-source-line="84" id="lnk50"><path codeLine="84" d="M1017.3376,817.3531 C1064.6776,770.9731 1148.07,693.48 1241,632 C1262.08,618.06 1285.97,604.94 1308.71,593.55" fill="none" id="DepartureSchedule-backto-CharterSchedule" style="stroke:#181818;stroke-width:1;"/><polygon fill="none" points="1004.48,829.95,1021.5366,821.639,1013.1387,813.0672,1004.48,829.95" style="stroke:#181818;stroke-width:1;"/></g><!--reverse link RegularSchedule to ScheduleEntry--><g class="link" data-entity-1="ent0025" data-entity-2="ent0029" data-link-type="composition" data-source-line="85" id="lnk51"><path codeLine="85" d="M1401,825.92 C1401,807.15 1401,794.34 1401,771.7" fill="none" id="RegularSchedule-backto-ScheduleEntry" style="stroke:#181818;stroke-width:1;"/><polygon fill="#181818" points="1401,837.92,1405,831.92,1401,825.92,1397,831.92,1401,837.92" style="stroke:#181818;stroke-width:1;"/><text fill="#000000" font-family="sans-serif" font-size="20" lengthAdjust="spacing" textLength="113.3887" x="1328" y="813.0117">composedOf</text><text fill="#000000" font-family="sans-serif" font-size="20" lengthAdjust="spacing" textLength="30.0195" x="1369.4501" y="799.9347">1..*</text></g><!--reverse link Flight to FlightPlan--><g class="link" data-entity-1="ent0015" data-entity-2="ent0037" data-link-type="composition" data-source-line="86" id="lnk52"><path codeLine="86" d="M248.8931,845.6157 C384.1431,823.5257 603.46,782.39 675,736 C820.76,641.48 923.13,449.95 958.7,376.04" fill="none" id="Flight-backto-FlightPlan" style="stroke:#181818;stroke-width:1;"/><polygon fill="#181818" points="237.05,847.55,243.6163,850.5305,248.8931,845.6157,242.3268,842.6352,237.05,847.55" style="stroke:#181818;stroke-width:1;"/><text fill="#000000" font-family="sans-serif" font-size="20" lengthAdjust="spacing" textLength="72.2754" x="507.5" y="730.7617">hasPlan</text><text fill="#000000" font-family="sans-serif" font-size="20" lengthAdjust="spacing" textLength="30.0195" x="922.8414" y="405.1614">1..*</text></g><!--link FlightPlan to FlightPlanStatus--><g class="link" data-entity-1="ent0037" data-entity-2="ent0041" data-link-type="dependency" data-source-line="87" id="lnk53"><path codeLine="87" d="M1035.01,336.9 C1107.06,326.06 1222.0767,308.7624 1304.8567,296.3124" fill="none" id="FlightPlan-to-FlightPlanStatus" style="stroke:#181818;stroke-width:1;"/><polygon fill="#181818" points="1310.79,295.42,1301.2952,292.803,1305.8456,296.1636,1302.485,300.714,1310.79,295.42" style="stroke:#181818;stroke-width:1;"/><text fill="#000000" font-family="sans-serif" font-size="20" lengthAdjust="spacing" textLength="88.9453" x="1121" y="307.7617">hasStatus</text></g><!--reverse link FlightPlan to FuelQuantity--><g class="link" data-entity-1="ent0037" data-entity-2="ent0042" data-link-type="composition" data-source-line="88" id="lnk54"><path codeLine="88" d="M1045.7705,310.8285 C1120.9105,273.7385 1238.5,215.71 1321.25,174.87" fill="none" id="FlightPlan-backto-FuelQuantity" style="stroke:#181818;stroke-width:1;"/><polygon fill="#181818" points="1035.01,316.14,1042.1607,317.0711,1045.7705,310.8285,1038.6197,309.8974,1035.01,316.14" style="stroke:#181818;stroke-width:1;"/><text fill="#000000" font-family="sans-serif" font-size="20" lengthAdjust="spacing" textLength="60.0098" x="1135" y="229.7617">carries</text></g><!--reverse link WeatherData to WindCondition--><g class="link" data-entity-1="ent0056" data-entity-2="ent0060" data-link-type="composition" data-source-line="107" id="lnk65"><path codeLine="107" d="M1074.4114,1260.3399 C1149.7514,1244.7599 1245.52,1224.95 1318.79,1209.8" fill="none" id="WeatherData-backto-WindCondition" style="stroke:#181818;stroke-width:1;"/><polygon fill="#181818" points="1062.66,1262.77,1069.3457,1265.4721,1074.4114,1260.3399,1067.7256,1257.6378,1062.66,1262.77" style="stroke:#181818;stroke-width:1;"/><text fill="#000000" font-family="sans-serif" font-size="20" lengthAdjust="spacing" textLength="66.6895" x="1132" y="1229.7617">records</text><text fill="#000000" font-family="sans-serif" font-size="20" lengthAdjust="spacing" textLength="30.0195" x="1281.0416" y="1232.9177">1..*</text></g><!--reverse link WindCondition to Coordinates_WD--><g class="link" data-entity-1="ent0060" data-entity-2="ent0061" data-link-type="composition" data-source-line="108" id="lnk66"><path codeLine="108" d="M1495.18,1193 C1575.04,1193 1684.81,1193 1768.28,1193" fill="none" id="WindCondition-backto-Coordinates_WD" style="stroke:#181818;stroke-width:1;"/><polygon fill="#181818" points="1483.18,1193,1489.18,1197,1495.18,1193,1489.18,1189,1483.18,1193" style="stroke:#181818;stroke-width:1;"/><text fill="#000000" font-family="sans-serif" font-size="20" lengthAdjust="spacing" textLength="83.3887" x="1592" y="1187.7617">locatedAt</text></g><!--link Flight to WeatherData--><g class="link" data-entity-1="ent0015" data-entity-2="ent0056" data-link-type="dependency" data-source-line="111" id="lnk67"><path codeLine="111" d="M194.14,922.65 C246.9,973.89 328.95,1046.63 412,1093 C567.71,1179.93 764.408,1234.0921 878.478,1260.8021" fill="none" id="Flight-to-WeatherData" style="stroke:#181818;stroke-width:1;"/><polygon fill="#181818" points="884.32,1262.17,876.469,1256.2235,879.4517,1261.0301,874.6451,1264.0128,884.32,1262.17" style="stroke:#181818;stroke-width:1;"/><polygon fill="#000000" points="488.9134,963.1221,478.0219,952.4953,473.8557,960.9267,488.9134,963.1221" style="stroke:#000000;stroke-width:1;"/><text fill="#000000" font-family="sans-serif" font-size="20" lengthAdjust="spacing" textLength="117.832" x="494.7412" y="967.7617">usesWeather</text><path d="M417,978.1563 L417,1088.1563 L670,1088.1563 L670,988.1563 L660,978.1563 L417,978.1563" fill="#FEFFDD" style="stroke:#181818;stroke-width:0.5;"/><path d="M660,978.1563 L660,988.1563 L670,988.1563 L660,978.1563" fill="#FEFFDD" style="stroke:#181818;stroke-width:0.5;"/><text fill="#000000" font-family="sans-serif" font-size="20" lengthAdjust="spacing" textLength="204.5898" x="423" y="1003.918">US082: weather added</text><text fill="#000000" font-family="sans-serif" font-size="20" lengthAdjust="spacing" textLength="113.4082" x="423" y="1029.0742">to flight plan.</text><text fill="#000000" font-family="sans-serif" font-size="20" lengthAdjust="spacing" textLength="232.3145" x="423" y="1054.2305">Rises to root &#8212; FlightPlan</text><text fill="#000000" font-family="sans-serif" font-size="20" lengthAdjust="spacing" textLength="144.5117" x="423" y="1079.3867">is internal entity.</text><text fill="#000000" font-family="sans-serif" font-size="20" lengthAdjust="spacing" textLength="7.7832" x="192.9031" y="950.8796">*</text><text fill="#000000" font-family="sans-serif" font-size="20" lengthAdjust="spacing" textLength="33.3594" x="843.257" y="1282.4614">0..1</text></g><!--reverse link Simulation to SimulationTimeRange--><g class="link" data-entity-1="ent0069" data-entity-2="ent0070" data-link-type="composition" data-source-line="135" id="lnk80"><path codeLine="135" d="M617.7502,1705.5393 C684.5102,1741.5693 780.92,1793.6 861.89,1837.3" fill="none" id="Simulation-backto-SimulationTimeRange" style="stroke:#181818;stroke-width:1;"/><polygon fill="#181818" points="607.19,1699.84,610.5703,1706.2097,617.7502,1705.5393,614.3699,1699.1696,607.19,1699.84" style="stroke:#181818;stroke-width:1;"/><text fill="#000000" font-family="sans-serif" font-size="20" lengthAdjust="spacing" textLength="121.1816" x="706" y="1748.7617">scheduledFor</text></g><!--reverse link Simulation to SafetyThreshold--><g class="link" data-entity-1="ent0069" data-entity-2="ent0074" data-link-type="composition" data-source-line="136" id="lnk81"><path codeLine="136" d="M619.0239,1678.5399 C691.8139,1690.7799 800.59,1709.08 883.17,1722.97" fill="none" id="Simulation-backto-SafetyThreshold" style="stroke:#181818;stroke-width:1;"/><polygon fill="#181818" points="607.19,1676.55,612.4436,1681.4896,619.0239,1678.5399,613.7702,1673.6003,607.19,1676.55" style="stroke:#181818;stroke-width:1;"/><text fill="#000000" font-family="sans-serif" font-size="20" lengthAdjust="spacing" textLength="101.2012" x="716" y="1688.7617">boundedBy</text></g><!--reverse link Simulation to SimulationReport--><g class="link" data-entity-1="ent0069" data-entity-2="ent0075" data-link-type="composition" data-source-line="137" id="lnk82"><path codeLine="137" d="M619.0147,1653.1165 C690.8847,1640.6965 797.52,1622.25 879.99,1607.99" fill="none" id="Simulation-backto-SimulationReport" style="stroke:#181818;stroke-width:1;"/><polygon fill="#181818" points="607.19,1655.16,613.7835,1658.0798,619.0147,1653.1165,612.4212,1650.1967,607.19,1655.16" style="stroke:#181818;stroke-width:1;"/><text fill="#000000" font-family="sans-serif" font-size="20" lengthAdjust="spacing" textLength="82.2754" x="725.5" y="1613.7617">produces</text></g><!--link SimulationReport to ValidationResult--><g class="link" data-entity-1="ent0075" data-entity-2="ent0079" data-link-type="dependency" data-source-line="138" id="lnk83"><path codeLine="138" d="M1067.09,1592 C1139.58,1592 1233.75,1592 1305.24,1592" fill="none" id="SimulationReport-to-ValidationResult" style="stroke:#181818;stroke-width:1;"/><polygon fill="#181818" points="1311.24,1592,1302.24,1588,1306.24,1592,1302.24,1596,1311.24,1592" style="stroke:#181818;stroke-width:1;"/><text fill="#000000" font-family="sans-serif" font-size="20" lengthAdjust="spacing" textLength="90.0586" x="1120" y="1586.7617">concludes</text></g><!--link WeatherData to AirControlArea--><g class="link" data-entity-1="ent0056" data-entity-2="ent0003" data-link-type="dependency" data-source-line="141" id="lnk84"><path codeLine="141" d="M1062.58,1325.33 C1113.72,1349.8 1179.93,1379.32 1241,1400 C1429.46,1463.81 1653.2699,1509.4694 1773.0499,1531.6094" fill="none" id="WeatherData-to-AirControlArea" style="stroke:#181818;stroke-width:1;"/><polygon fill="#181818" points="1778.95,1532.7,1770.827,1527.1308,1774.0333,1531.7912,1769.3729,1534.9975,1778.95,1532.7" style="stroke:#181818;stroke-width:1;"/><polygon fill="#000000" points="1346.6827,1388.8087,1334.0957,1380.2577,1331.4734,1389.2893,1346.6827,1388.8087" style="stroke:#000000;stroke-width:1;"/><text fill="#000000" font-family="sans-serif" font-size="20" lengthAdjust="spacing" textLength="118.9355" x="1352" y="1394.7617">registeredFor</text><text fill="#000000" font-family="sans-serif" font-size="20" lengthAdjust="spacing" textLength="7.7832" x="1070.0036" y="1350.6353">*</text><text fill="#000000" font-family="sans-serif" font-size="20" lengthAdjust="spacing" textLength="11.123" x="1759.8311" y="1553.2814">1</text></g><!--link Simulation to WeatherData--><g class="link" data-entity-1="ent0069" data-entity-2="ent0056" data-link-type="dependency" data-source-line="143" id="lnk85"><path codeLine="143" d="M591.94,1623.33 C664.52,1558.03 799.5493,1436.5728 887.9893,1357.0128" fill="none" id="Simulation-to-WeatherData" style="stroke:#181818;stroke-width:1;"/><polygon fill="#181818" points="892.45,1353,883.0838,1356.0454,888.7328,1356.344,888.4342,1361.993,892.45,1353" style="stroke:#181818;stroke-width:1;"/><polygon fill="#000000" points="748.4476,1398.2278,734.5434,1404.4107,740.8331,1411.4025,748.4476,1398.2278" style="stroke:#000000;stroke-width:1;"/><text fill="#000000" font-family="sans-serif" font-size="20" lengthAdjust="spacing" textLength="42.2461" x="755.5" y="1411.7617">uses</text><text fill="#000000" font-family="sans-serif" font-size="20" lengthAdjust="spacing" textLength="7.7832" x="591.5703" y="1610.9657">*</text><text fill="#000000" font-family="sans-serif" font-size="20" lengthAdjust="spacing" textLength="7.7832" x="877.7089" y="1381.5688">*</text></g><?plantuml-src bLVXRjis4FxlfpZuLnCadfosGwTc0Jnd0GfqQnUdony31IETRCuIgP5K6gqBi8VO4-v9TgHeYvAjB0k2HAIEnxllxhixwGqN9LEio6MomHHIp5YLcoifp8B_WN0MZNBC31W9Yg_M1bAkC35SYf7U7eMI9HksmeMfSmJxcebLZe60a2bgBE5L56mg9ZPsyzjejEOf0XQbgQ70uWwL7esyKXZFk9gJEKhcCuNiysorKhXY1iTmViwsYuiB-3e2I7AcDNHFa1WAmqrDCkVdIahZXH_R0oGs9nlf_JtBAmHvznkvuUL8Yjxv0q8Qz538h3qOGoNuxtII2z2rDbZ0Yq-Bw7LqjBjaBgLAkI1ZzUVPV3PqLy75UqRcLkvAMhE7xfhUIx7g2WGR-qRsBuxXUXiZk9ELI9cg9qinppdX5CCuameqsw0zgtbHvZmXz4wMWhN17O_ecXxEnwVq4q92KINWCuxf3_MG-BvnpYHtv74KfC5LRlrvAlmxf1lHmRW3w6IDQPLZEbEAKnHkUD50rrDnYPglo3O2P21QZAkS2sm5tMxcJlzSsLHs6x94nInhMBweiem_X85o12Eiz-wCuKggWb5C7Xx42t7aVzdHKlXiUw4ncS3BoTcHDHr5LNWjDtM9taH2gCfPOqUoPieuc_RJ93WOmpjnpnHdDXzujbK1PerYAIwH26mgXGiF8nILDd27It7T26vVd00JATpp1E6UICqcrafsfurYYV58xsix27KGczubG_9z__h7OlYagU9z8Pz2tx_V0RQxS7laHqhUUYWJKbP_o6uHDyrgwzKkjVhcT9N6iAFVJv8OMSFqB8wYjqjnKw7swvVHMxXPLwfPJsazResSDw5z6fN0i4kYpJDDxQiUHCwdLrXCD7TrXWjDXIF1oRZFiOyv4o5LlpwHd4usXlSymwHESemXLOp8Ste1v2nFoQLqAQZkleaWeHf3HUK4xF8CM9hgfVX2UsjKpURhtI4zwT77NhGmp5Hw2vkznptjBkeLZ0hpNohcl1Z2tcsw9wAlEUndg2RU4WjAgRdXz-YQofl8iTrNEIgZXof7h_PwOQgu5rsYoym-TDIT7k1a7DHCQ_a1rlv91tiS6nRifHG9zkbvV0hZwMHoFDvZIY8BmWFJ3rdFR2_VoPKrq_Pf9-csMnI2G3lPvhahxH3knYLXr3YGffJ7e4FTDib5n7hMb1A8Fz6ggEDIWyJKqjKJbFgNh5I27vMyfp0VhkQXzjYc-wipOcDgbuMJeQpAb2oMeg1vZvU4E3vGHAX3GUaLwt5hB1SfDU-KsoOsM5ksi-7CpN_EqX8zKmwDGRUNGwhoSEJ9dptUaC8utA06oGhqDpCg03IUqHXIIcLSQrfmyjurvYDRj9geqds9soF0VC5O2heJd2waJbPJwLDkrcDKPInA8Tp7RIfsOOjzD6r-TTySzoOXvuSpm_6Diipd-PYKEXAFeybaEkw5kTAe_GvSZ1nCf9m6b4sJ0sye1xn7jY3QOac3VJEjG4cvJY1SSrBYvdrAG_Zdhxy3AX1-chpsQTAax2HWG0ldSmZGIZzZH6-5BGkkQGWTR77KQPJfy0L5o9y3lVY0yiuCv5J2kLLaI_0q2kRw1SlGr3ThXNejy_H_5V--RzVeKdD0XP66vKqqz7_uuHNH1Cbjg5APL0L1R1CGgOzGu2tvOGw5jALr0k-AeZBiZXvj0vr6ttr3VwVJRLlyjUbwJhEcWk4jAibyns-QUHdFswOOnDRczc60TotboitD_JCzNCClWoSks7bELIoj4jGTOV_MCcZF9TjPH99JdT6MSI6rMjeHvthVCPRLAqwVVCevGiGR1SOr9o_S_tsoal2_?></g></svg>