<?xml version="1.0" encoding="UTF-8" standalone="no"?><svg xmlns="http://www.w3.org/2000/svg" xmlns:xlink="http://www.w3.org/1999/xlink" contentScriptType="application/ecmascript" contentStyleType="text/css" height="242px" preserveAspectRatio="none" style="width:344px;height:242px;" version="1.1" viewBox="0 0 344 242" width="344px" zoomAndPan="magnify"><defs><filter height="300%" id="f1nxhndxcxg4bi" width="300%" x="-1" y="-1"><feGaussianBlur result="blurOut" stdDeviation="2.0"/><feColorMatrix in="blurOut" result="blurOut2" type="matrix" values="0 0 0 0 0 0 0 0 0 0 0 0 0 0 0 0 0 0 .4 0"/><feOffset dx="4.0" dy="4.0" in="blurOut2" result="blurOut3"/><feBlend in="SourceGraphic" in2="blurOut3" mode="normal"/></filter></defs><g><!--MD5=[1d880572fd873429c1c3d7dbc8573f41]
class eapli.exemplo.usermanagement.application.eventhandlers.SignupAcceptedWatchDog--><a href="SignupAcceptedWatchDog.html" target="_top" title="SignupAcceptedWatchDog.html" xlink:actuate="onRequest" xlink:href="SignupAcceptedWatchDog.html" xlink:show="new" xlink:title="SignupAcceptedWatchDog.html" xlink:type="simple"><rect codeLine="5" fill="#FEFECE" filter="url(#f1nxhndxcxg4bi)" height="80.1758" id="eapli.exemplo.usermanagement.application.eventhandlers.SignupAcceptedWatchDog" style="stroke: #A80036; stroke-width: 1.5;" width="318" x="7" y="126.22"/><ellipse cx="22" cy="145.3528" fill="#ADD1B2" rx="11" ry="11" style="stroke: #A80036; stroke-width: 1.0;"/><path d="M24.4731,151.4959 Q23.8921,151.7947 23.2529,151.9441 Q22.6138,152.0935 21.9082,152.0935 Q19.4014,152.0935 18.0815,150.4417 Q16.7617,148.7898 16.7617,145.6687 Q16.7617,142.5393 18.0815,140.8875 Q19.4014,139.2356 21.9082,139.2356 Q22.6138,139.2356 23.2612,139.385 Q23.9087,139.5345 24.4731,139.8333 L24.4731,142.5559 Q23.8423,141.9749 23.2488,141.7051 Q22.6553,141.4353 22.0244,141.4353 Q20.6797,141.4353 19.9949,142.502 Q19.3101,143.5686 19.3101,145.6687 Q19.3101,147.7605 19.9949,148.8272 Q20.6797,149.8938 22.0244,149.8938 Q22.6553,149.8938 23.2488,149.6241 Q23.8423,149.3543 24.4731,148.7732 Z "/><text fill="#000000" font-family="sans-serif" font-size="14" lengthAdjust="spacingAndGlyphs" textLength="180" x="89" y="144.7552">SignupAcceptedWatchDog</text><text fill="#000000" font-family="sans-serif" font-size="10" lengthAdjust="spacingAndGlyphs" textLength="286" x="36" y="157.3763">eapli.exemplo.usermanagement.application.eventhandlers</text><line style="stroke: #A80036; stroke-width: 1.5;" x1="8" x2="324" y1="164.4856" y2="164.4856"/><rect fill="none" height="6" style="stroke: #C82930; stroke-width: 1.0;" width="6" x="15" y="172.4856"/><text fill="#000000" font-family="sans-serif" font-size="11" lengthAdjust="spacingAndGlyphs" text-decoration="underline" textLength="88" x="27" y="179.1204">LOGGER: Logger</text><line style="stroke: #A80036; stroke-width: 1.5;" x1="8" x2="324" y1="185.4407" y2="185.4407"/><ellipse cx="18" cy="196.4407" fill="#84BE84" rx="3" ry="3" style="stroke: #038048; stroke-width: 1.0;"/><text fill="#000000" font-family="sans-serif" font-size="11" lengthAdjust="spacingAndGlyphs" textLength="150" x="27" y="200.0755">onEvent(DomainEvent): void</text></a><!--MD5=[7e71f746b70209abe0a123331d2af484]
class eapli.framework.infrastructure.pubsub.EventHandler--><rect codeLine="10" fill="#FEFECE" filter="url(#f1nxhndxcxg4bi)" height="59.2207" id="eapli.framework.infrastructure.pubsub.EventHandler" style="stroke: #A80036; stroke-width: 1.5;" width="220" x="56" y="7"/><ellipse cx="71" cy="26.1328" fill="#B4A7E5" rx="11" ry="11" style="stroke: #A80036; stroke-width: 1.0;"/><path d="M67.4277,22.3979 L67.4277,20.2397 L74.8071,20.2397 L74.8071,22.3979 L72.3418,22.3979 L72.3418,30.4746 L74.8071,30.4746 L74.8071,32.6328 L67.4277,32.6328 L67.4277,30.4746 L69.8931,30.4746 L69.8931,22.3979 Z "/><text fill="#000000" font-family="sans-serif" font-size="14" font-style="italic" lengthAdjust="spacingAndGlyphs" textLength="91" x="133.5" y="25.5352">EventHandler</text><text fill="#000000" font-family="sans-serif" font-size="10" font-style="italic" lengthAdjust="spacingAndGlyphs" textLength="188" x="85" y="38.1563">eapli.framework.infrastructure.pubsub</text><line style="stroke: #A80036; stroke-width: 1.5;" x1="57" x2="275" y1="45.2656" y2="45.2656"/><ellipse cx="67" cy="56.2656" fill="#84BE84" rx="3" ry="3" style="stroke: #038048; stroke-width: 1.0;"/><text fill="#000000" font-family="sans-serif" font-size="11" font-style="italic" lengthAdjust="spacingAndGlyphs" textLength="150" x="76" y="59.9004">onEvent(DomainEvent): void</text><!--MD5=[4ed673bf5691b82fbd35333f2eaebb23]
reverse link eapli.framework.infrastructure.pubsub.EventHandler to eapli.exemplo.usermanagement.application.eventhandlers.SignupAcceptedWatchDog--><path codeLine="14" d="M166,87.98 C166,100.54 166,113.84 166,125.8 " fill="none" id="eapli.framework.infrastructure.pubsub.EventHandler-backto-eapli.exemplo.usermanagement.application.eventhandlers.SignupAcceptedWatchDog" style="stroke: #A80036; stroke-width: 1.0; stroke-dasharray: 7.0,7.0;"/><polygon fill="none" points="159,88.1,166,68.1,173,88.1,159,88.1" style="stroke: #A80036; stroke-width: 1.0;"/><text fill="#888888" font-family="sans-serif" font-size="10" lengthAdjust="spacingAndGlyphs" textLength="188" x="69" y="229.0638">UMLDoclet 2.0.12, PlantUML 1.2020.16</text><!--MD5=[f5498656ad28cf80a4b8c9558b98828b]
@startuml
    set namespaceSeparator none
    hide empty fields
    hide empty methods

    class "<size:14>SignupAcceptedWatchDog\n<size:10>eapli.exemplo.usermanagement.application.eventhandlers" as eapli.exemplo.usermanagement.application.eventhandlers.SignupAcceptedWatchDog [[SignupAcceptedWatchDog.html]] {
        {static} -LOGGER: Logger
        +onEvent(DomainEvent): void
    }

    interface "<size:14>EventHandler\n<size:10>eapli.framework.infrastructure.pubsub" as eapli.framework.infrastructure.pubsub.EventHandler {
        {abstract} +onEvent(DomainEvent): void
    }

    eapli.framework.infrastructure.pubsub.EventHandler <|.. eapli.exemplo.usermanagement.application.eventhandlers.SignupAcceptedWatchDog

    center footer UMLDoclet 2.0.12, PlantUML 1.2020.16
@enduml

PlantUML version 1.2020.16(Sun Aug 23 21:20:43 WEST 2020)
(APACHE source distribution)
Java Runtime: OpenJDK Runtime Environment
JVM: OpenJDK 64-Bit Server VM
Default Encoding: UTF-8
Language: en
Country: US
--></g></svg>