<?xml version="1.0" encoding="UTF-8" standalone="no"?><svg xmlns="http://www.w3.org/2000/svg" xmlns:xlink="http://www.w3.org/1999/xlink" contentScriptType="application/ecmascript" contentStyleType="text/css" height="297px" preserveAspectRatio="none" style="width:499px;height:297px;" version="1.1" viewBox="0 0 499 297" width="499px" zoomAndPan="magnify"><defs><filter height="300%" id="f1hlgq3iutkqwv" width="300%" x="-1" y="-1"><feGaussianBlur result="blurOut" stdDeviation="2.0"/><feColorMatrix in="blurOut" result="blurOut2" type="matrix" values="0 0 0 0 0 0 0 0 0 0 0 0 0 0 0 0 0 0 .4 0"/><feOffset dx="4.0" dy="4.0" in="blurOut2" result="blurOut3"/><feBlend in="SourceGraphic" in2="blurOut3" mode="normal"/></filter></defs><g><!--MD5=[f977ad0526a7e680170277c2f3e16161]
class eapli.exemplo.utentemanagement.domain.MecanographicNumber--><a href="MecanographicNumber.html" target="_top" title="MecanographicNumber.html" xlink:actuate="onRequest" xlink:href="MecanographicNumber.html" xlink:show="new" xlink:title="MecanographicNumber.html" xlink:type="simple"><rect codeLine="5" fill="#FEFECE" filter="url(#f1hlgq3iutkqwv)" height="131.9961" id="eapli.exemplo.utentemanagement.domain.MecanographicNumber" style="stroke: #A80036; stroke-width: 1.5;" width="240" x="106" y="129.22"/><ellipse cx="121.45" cy="148.3528" fill="#ADD1B2" rx="11" ry="11" style="stroke: #A80036; stroke-width: 1.0;"/><path d="M123.9231,154.4959 Q123.3421,154.7947 122.7029,154.9441 Q122.0638,155.0935 121.3582,155.0935 Q118.8514,155.0935 117.5315,153.4417 Q116.2117,151.7898 116.2117,148.6687 Q116.2117,145.5393 117.5315,143.8875 Q118.8514,142.2356 121.3582,142.2356 Q122.0638,142.2356 122.7112,142.385 Q123.3587,142.5345 123.9231,142.8333 L123.9231,145.5559 Q123.2923,144.9749 122.6988,144.7051 Q122.1053,144.4353 121.4744,144.4353 Q120.1297,144.4353 119.4449,145.502 Q118.7601,146.5686 118.7601,148.6687 Q118.7601,150.7605 119.4449,151.8272 Q120.1297,152.8938 121.4744,152.8938 Q122.1053,152.8938 122.6988,152.6241 Q123.2923,152.3543 123.9231,151.7732 Z "/><text fill="#000000" font-family="sans-serif" font-size="14" lengthAdjust="spacingAndGlyphs" textLength="160" x="159.05" y="147.7552">MecanographicNumber</text><text fill="#000000" font-family="sans-serif" font-size="10" lengthAdjust="spacingAndGlyphs" textLength="207" x="135.55" y="160.3763">eapli.exemplo.utentemanagement.domain</text><line style="stroke: #A80036; stroke-width: 1.5;" x1="107" x2="345" y1="167.4856" y2="167.4856"/><rect fill="none" height="6" style="stroke: #C82930; stroke-width: 1.0;" width="6" x="114" y="175.4856"/><text fill="#000000" font-family="sans-serif" font-size="11" lengthAdjust="spacingAndGlyphs" text-decoration="underline" textLength="119" x="126" y="182.1204">serialVersionUID: long</text><rect fill="none" height="6" style="stroke: #C82930; stroke-width: 1.0;" width="6" x="114" y="188.4407"/><text fill="#000000" font-family="sans-serif" font-size="11" lengthAdjust="spacingAndGlyphs" textLength="80" x="126" y="195.0755">number: String</text><line style="stroke: #A80036; stroke-width: 1.5;" x1="107" x2="345" y1="201.3958" y2="201.3958"/><ellipse cx="117" cy="212.3958" fill="#84BE84" rx="3" ry="3" style="stroke: #038048; stroke-width: 1.0;"/><text fill="#000000" font-family="sans-serif" font-size="11" lengthAdjust="spacingAndGlyphs" textLength="165" x="126" y="216.0305">MecanographicNumber(String)</text><polygon fill="#FFFF44" points="117,220.3509,121,224.3509,117,228.3509,113,224.3509" style="stroke: #B38D22; stroke-width: 1.0;"/><text fill="#000000" font-family="sans-serif" font-size="11" lengthAdjust="spacingAndGlyphs" textLength="133" x="126" y="228.9856">MecanographicNumber()</text><ellipse cx="117" cy="238.3059" fill="#84BE84" rx="3" ry="3" style="stroke: #038048; stroke-width: 1.0;"/><text fill="#000000" font-family="sans-serif" font-size="11" lengthAdjust="spacingAndGlyphs" text-decoration="underline" textLength="212" x="126" y="241.9407">valueOf(String): MecanographicNumber</text><ellipse cx="117" cy="251.261" fill="#84BE84" rx="3" ry="3" style="stroke: #038048; stroke-width: 1.0;"/><text fill="#000000" font-family="sans-serif" font-size="11" lengthAdjust="spacingAndGlyphs" textLength="214" x="126" y="254.8958">compareTo(MecanographicNumber): int</text></a><!--MD5=[ce0423b4918b6b29de95b9c9580cdd71]
class eapli.framework.domain.model.ValueObject--><rect codeLine="14" fill="#FEFECE" filter="url(#f1hlgq3iutkqwv)" height="38.2656" id="eapli.framework.domain.model.ValueObject" style="stroke: #A80036; stroke-width: 1.5;" width="184" x="7" y="20.48"/><ellipse cx="22" cy="39.6128" fill="#B4A7E5" rx="11" ry="11" style="stroke: #A80036; stroke-width: 1.0;"/><path d="M18.4277,35.8779 L18.4277,33.7197 L25.8071,33.7197 L25.8071,35.8779 L23.3418,35.8779 L23.3418,43.9546 L25.8071,43.9546 L25.8071,46.1128 L18.4277,46.1128 L18.4277,43.9546 L20.8931,43.9546 L20.8931,35.8779 Z "/><text fill="#000000" font-family="sans-serif" font-size="14" font-style="italic" lengthAdjust="spacingAndGlyphs" textLength="82" x="71" y="39.0152">ValueObject</text><text fill="#000000" font-family="sans-serif" font-size="10" font-style="italic" lengthAdjust="spacingAndGlyphs" textLength="152" x="36" y="51.6362">eapli.framework.domain.model</text><!--MD5=[008d82c49f85b4d489e041917c99c847]
class java.lang.Comparable--><rect codeLine="15" fill="#FEFECE" filter="url(#f1hlgq3iutkqwv)" height="59.2207" id="java.lang.Comparable" style="stroke: #A80036; stroke-width: 1.5;" width="254" x="226" y="10"/><ellipse cx="241" cy="29.1328" fill="#B4A7E5" rx="11" ry="11" style="stroke: #A80036; stroke-width: 1.0;"/><path d="M237.4277,25.3979 L237.4277,23.2397 L244.8071,23.2397 L244.8071,25.3979 L242.3418,25.3979 L242.3418,33.4746 L244.8071,33.4746 L244.8071,35.6328 L237.4277,35.6328 L237.4277,33.4746 L239.8931,33.4746 L239.8931,25.3979 Z "/><text fill="#000000" font-family="sans-serif" font-size="14" font-style="italic" lengthAdjust="spacingAndGlyphs" textLength="84" x="255" y="28.5352">Comparable</text><text fill="#000000" font-family="sans-serif" font-size="10" font-style="italic" lengthAdjust="spacingAndGlyphs" textLength="44" x="275" y="41.1563">java.lang</text><rect fill="#FFFFFF" height="16.1328" style="stroke: #000000; stroke-width: 1.0; stroke-dasharray: 2.0,2.0;" width="136" x="347" y="7"/><text fill="#000000" font-family="sans-serif" font-size="12" font-style="italic" lengthAdjust="spacingAndGlyphs" textLength="134" x="348" y="19.6016">MecanographicNumber</text><line style="stroke: #A80036; stroke-width: 1.5;" x1="227" x2="479" y1="48.2656" y2="48.2656"/><ellipse cx="237" cy="59.2656" fill="#84BE84" rx="3" ry="3" style="stroke: #038048; stroke-width: 1.0;"/><text fill="#000000" font-family="sans-serif" font-size="11" font-style="italic" lengthAdjust="spacingAndGlyphs" textLength="214" x="246" y="62.9004">compareTo(MecanographicNumber): int</text><!--MD5=[d7a948df78b46fe7498d65e9f5a47753]
reverse link eapli.framework.domain.model.ValueObject to eapli.exemplo.utentemanagement.domain.MecanographicNumber--><path codeLine="19" d="M127.93,75.61 C141.01,91.42 156.9,110.64 172.04,128.96 " fill="none" id="eapli.framework.domain.model.ValueObject-backto-eapli.exemplo.utentemanagement.domain.MecanographicNumber" style="stroke: #A80036; stroke-width: 1.0; stroke-dasharray: 7.0,7.0;"/><polygon fill="none" points="122.63,80.18,115.28,60.31,133.42,71.26,122.63,80.18" style="stroke: #A80036; stroke-width: 1.0;"/><!--MD5=[d35a196b10a7f76803f3811237347d32]
reverse link java.lang.Comparable to eapli.exemplo.utentemanagement.domain.MecanographicNumber--><path codeLine="20" d="M315.41,86.08 C304.32,99.49 291.96,114.44 280.05,128.84 " fill="none" id="java.lang.Comparable-backto-eapli.exemplo.utentemanagement.domain.MecanographicNumber" style="stroke: #A80036; stroke-width: 1.0; stroke-dasharray: 7.0,7.0;"/><polygon fill="none" points="310.01,81.63,328.15,70.67,320.8,90.55,310.01,81.63" style="stroke: #A80036; stroke-width: 1.0;"/><text fill="#888888" font-family="sans-serif" font-size="10" lengthAdjust="spacingAndGlyphs" textLength="188" x="146.5" y="283.8841">UMLDoclet 2.0.12, PlantUML 1.2020.16</text><!--MD5=[ce22de52c9039438bde3d14a73ab1484]
@startuml
    set namespaceSeparator none
    hide empty fields
    hide empty methods

    class "<size:14>MecanographicNumber\n<size:10>eapli.exemplo.utentemanagement.domain" as eapli.exemplo.utentemanagement.domain.MecanographicNumber [[MecanographicNumber.html]] {
        {static} -serialVersionUID: long
        -number: String
        +MecanographicNumber(String)
        #MecanographicNumber()
        {static} +valueOf(String): MecanographicNumber
        +compareTo(MecanographicNumber): int
    }

    interface "<size:14>ValueObject\n<size:10>eapli.framework.domain.model" as eapli.framework.domain.model.ValueObject
    interface "<size:14>Comparable\n<size:10>java.lang" as java.lang.Comparable<MecanographicNumber> {
        {abstract} +compareTo(MecanographicNumber): int
    }

    eapli.framework.domain.model.ValueObject <|.. eapli.exemplo.utentemanagement.domain.MecanographicNumber
    java.lang.Comparable <|.. eapli.exemplo.utentemanagement.domain.MecanographicNumber

    center footer UMLDoclet 2.0.12, PlantUML 1.2020.16
@enduml

PlantUML version 1.2020.16(Sun Aug 23 21:20:43 WEST 2020)
(APACHE source distribution)
Java Runtime: OpenJDK Runtime Environment
JVM: OpenJDK 64-Bit Server VM
Default Encoding: UTF-8
Language: en
Country: US
--></g></svg>