<?xml version="1.0" encoding="UTF-8" standalone="no"?><svg xmlns="http://www.w3.org/2000/svg" xmlns:xlink="http://www.w3.org/1999/xlink" contentScriptType="application/ecmascript" contentStyleType="text/css" height="727px" preserveAspectRatio="none" style="width:1952px;height:727px;" version="1.1" viewBox="0 0 1952 727" width="1952px" zoomAndPan="magnify"><defs><filter height="300%" id="f1qnxwn13fgvmc" width="300%" x="-1" y="-1"><feGaussianBlur result="blurOut" stdDeviation="2.0"/><feColorMatrix in="blurOut" result="blurOut2" type="matrix" values="0 0 0 0 0 0 0 0 0 0 0 0 0 0 0 0 0 0 .4 0"/><feOffset dx="4.0" dy="4.0" in="blurOut2" result="blurOut3"/><feBlend in="SourceGraphic" in2="blurOut3" mode="normal"/></filter></defs><g><!--MD5=[e67323fc442b17bd2120f2e4b06b283b]
cluster eapli.exemplo.utentemanagement.domain--><polygon fill="#FFFFFF" filter="url(#f1qnxwn13fgvmc)" points="16,150.95,320,150.95,327,173.4383,1702,173.4383,1702,698.83,16,698.83,16,150.95" style="stroke: #000000; stroke-width: 1.5;"/><line style="stroke: #000000; stroke-width: 1.5;" x1="16" x2="327" y1="173.4383" y2="173.4383"/><text fill="#000000" font-family="sans-serif" font-size="14" font-weight="bold" lengthAdjust="spacingAndGlyphs" textLength="298" x="20" y="166.4852">eapli.exemplo.utentemanagement.domain</text><!--MD5=[9924618b55dd3727aa6057b8427147b7]
cluster eapli.framework.domain.model--><polygon fill="#FFFFFF" filter="url(#f1qnxwn13fgvmc)" points="626,6,853,6,860,28.4883,1386,28.4883,1386,117.95,626,117.95,626,6" style="stroke: #000000; stroke-width: 1.5;"/><line style="stroke: #000000; stroke-width: 1.5;" x1="626" x2="860" y1="28.4883" y2="28.4883"/><text fill="#000000" font-family="sans-serif" font-size="14" font-weight="bold" lengthAdjust="spacingAndGlyphs" textLength="221" x="630" y="21.5352">eapli.framework.domain.model</text><!--MD5=[aa8f7b917213fcc1c2766e2d59b49067]
cluster java.lang--><polygon fill="#FFFFFF" filter="url(#f1qnxwn13fgvmc)" points="1776,267.55,1845,267.55,1852,290.0383,1930,290.0383,1930,379.5,1776,379.5,1776,267.55" style="stroke: #000000; stroke-width: 1.5;"/><line style="stroke: #000000; stroke-width: 1.5;" x1="1776" x2="1852" y1="290.0383" y2="290.0383"/><text fill="#000000" font-family="sans-serif" font-size="14" font-weight="bold" lengthAdjust="spacingAndGlyphs" textLength="63" x="1780" y="283.0852">java.lang</text><!--MD5=[da49268c34854870d8de748a79b7c013]
class eapli.exemplo.utentemanagement.domain.UtenteBuilder--><a href="UtenteBuilder.html" target="_top" title="UtenteBuilder.html" xlink:actuate="onRequest" xlink:href="UtenteBuilder.html" xlink:show="new" xlink:title="UtenteBuilder.html" xlink:type="simple"><rect codeLine="3" fill="#FEFECE" filter="url(#f1qnxwn13fgvmc)" height="112.7754" id="eapli.exemplo.utentemanagement.domain.UtenteBuilder" style="stroke: #A80036; stroke-width: 1.5;" width="384" x="415" y="276.64"/><ellipse cx="564.25" cy="292.64" fill="#ADD1B2" rx="11" ry="11" style="stroke: #A80036; stroke-width: 1.0;"/><path d="M566.7231,298.7831 Q566.1421,299.0819 565.5029,299.2313 Q564.8638,299.3807 564.1582,299.3807 Q561.6514,299.3807 560.3315,297.7289 Q559.0117,296.077 559.0117,292.9559 Q559.0117,289.8265 560.3315,288.1747 Q561.6514,286.5228 564.1582,286.5228 Q564.8638,286.5228 565.5112,286.6722 Q566.1587,286.8216 566.7231,287.1205 L566.7231,289.8431 Q566.0923,289.2621 565.4988,288.9923 Q564.9053,288.7225 564.2744,288.7225 Q562.9297,288.7225 562.2449,289.7892 Q561.5601,290.8558 561.5601,292.9559 Q561.5601,295.0477 562.2449,296.1144 Q562.9297,297.181 564.2744,297.181 Q564.9053,297.181 565.4988,296.9112 Q566.0923,296.6415 566.7231,296.0604 Z "/><text fill="#000000" font-family="sans-serif" font-size="12" lengthAdjust="spacingAndGlyphs" textLength="77" x="584.75" y="297.1752">UtenteBuilder</text><line style="stroke: #A80036; stroke-width: 1.5;" x1="416" x2="798" y1="308.64" y2="308.64"/><rect fill="none" height="6" style="stroke: #C82930; stroke-width: 1.0;" width="6" x="423" y="316.64"/><text fill="#000000" font-family="sans-serif" font-size="11" lengthAdjust="spacingAndGlyphs" textLength="132" x="435" y="323.2748">systemUser: SystemUser</text><line style="stroke: #A80036; stroke-width: 1.5;" x1="416" x2="798" y1="329.5951" y2="329.5951"/><ellipse cx="426" cy="340.5951" fill="#84BE84" rx="3" ry="3" style="stroke: #038048; stroke-width: 1.0;"/><text fill="#000000" font-family="sans-serif" font-size="11" lengthAdjust="spacingAndGlyphs" textLength="234" x="435" y="344.2298">withSystemUser(SystemUser): UtenteBuilder</text><ellipse cx="426" cy="353.5502" fill="#84BE84" rx="3" ry="3" style="stroke: #038048; stroke-width: 1.0;"/><text fill="#000000" font-family="sans-serif" font-size="11" lengthAdjust="spacingAndGlyphs" textLength="358" x="435" y="357.1849">withMecanographicNumber(MecanographicNumber): UtenteBuilder</text><ellipse cx="426" cy="366.5052" fill="#84BE84" rx="3" ry="3" style="stroke: #038048; stroke-width: 1.0;"/><text fill="#000000" font-family="sans-serif" font-size="11" lengthAdjust="spacingAndGlyphs" textLength="265" x="435" y="370.14">withMecanographicNumber(String): UtenteBuilder</text><ellipse cx="426" cy="379.4603" fill="#84BE84" rx="3" ry="3" style="stroke: #038048; stroke-width: 1.0;"/><text fill="#000000" font-family="sans-serif" font-size="11" lengthAdjust="spacingAndGlyphs" textLength="76" x="435" y="383.0951">build(): Utente</text></a><!--MD5=[89a84adc14f5c0eafc2545ec40b35035]
class eapli.exemplo.utentemanagement.domain.ApprovalStatus--><a href="ApprovalStatus.html" target="_top" title="ApprovalStatus.html" xlink:actuate="onRequest" xlink:href="ApprovalStatus.html" xlink:show="new" xlink:title="ApprovalStatus.html" xlink:type="simple"><rect codeLine="11" fill="#FEFECE" filter="url(#f1qnxwn13fgvmc)" height="86.8652" id="eapli.exemplo.utentemanagement.domain.ApprovalStatus" style="stroke: #A80036; stroke-width: 1.5;" width="118" x="1038" y="576.53"/><ellipse cx="1053" cy="592.53" fill="#EB937F" rx="11" ry="11" style="stroke: #A80036; stroke-width: 1.0;"/><path d="M1056.6143,599.03 L1048.8945,599.03 L1048.8945,586.6369 L1056.6143,586.6369 L1056.6143,588.7951 L1051.3433,588.7951 L1051.3433,591.468 L1056.1162,591.468 L1056.1162,593.6262 L1051.3433,593.6262 L1051.3433,596.8718 L1056.6143,596.8718 Z "/><text fill="#000000" font-family="sans-serif" font-size="12" lengthAdjust="spacingAndGlyphs" textLength="86" x="1067" y="597.0652">ApprovalStatus</text><line style="stroke: #A80036; stroke-width: 1.5;" x1="1039" x2="1155" y1="608.53" y2="608.53"/><ellipse cx="1049" cy="619.53" fill="none" rx="3" ry="3" style="stroke: #038048; stroke-width: 1.0;"/><text fill="#000000" font-family="sans-serif" font-size="11" lengthAdjust="spacingAndGlyphs" text-decoration="underline" textLength="47" x="1058" y="623.1648">PENDING</text><ellipse cx="1049" cy="632.4851" fill="none" rx="3" ry="3" style="stroke: #038048; stroke-width: 1.0;"/><text fill="#000000" font-family="sans-serif" font-size="11" lengthAdjust="spacingAndGlyphs" text-decoration="underline" textLength="57" x="1058" y="636.1198">ACCEPTED</text><ellipse cx="1049" cy="645.4402" fill="none" rx="3" ry="3" style="stroke: #038048; stroke-width: 1.0;"/><text fill="#000000" font-family="sans-serif" font-size="11" lengthAdjust="spacingAndGlyphs" text-decoration="underline" textLength="47" x="1058" y="649.0749">REFUSED</text><line style="stroke: #A80036; stroke-width: 1.5;" x1="1039" x2="1155" y1="655.3952" y2="655.3952"/></a><!--MD5=[0e20bfe39df597612a1991e1a27f037f]
class eapli.exemplo.utentemanagement.domain.Utente--><a href="Utente.html" target="_top" title="Utente.html" xlink:actuate="onRequest" xlink:href="Utente.html" xlink:show="new" xlink:title="Utente.html" xlink:type="simple"><rect codeLine="17" fill="#FEFECE" filter="url(#f1qnxwn13fgvmc)" height="164.5957" id="eapli.exemplo.utentemanagement.domain.Utente" style="stroke: #A80036; stroke-width: 1.5;" width="291" x="1394.5" y="250.73"/><ellipse cx="1517.25" cy="266.73" fill="#ADD1B2" rx="11" ry="11" style="stroke: #A80036; stroke-width: 1.0;"/><path d="M1519.7231,272.8731 Q1519.1421,273.1719 1518.5029,273.3213 Q1517.8638,273.4707 1517.1582,273.4707 Q1514.6514,273.4707 1513.3315,271.8189 Q1512.0117,270.167 1512.0117,267.0459 Q1512.0117,263.9165 1513.3315,262.2647 Q1514.6514,260.6128 1517.1582,260.6128 Q1517.8638,260.6128 1518.5112,260.7622 Q1519.1587,260.9116 1519.7231,261.2105 L1519.7231,263.9331 Q1519.0923,263.3521 1518.4988,263.0823 Q1517.9053,262.8125 1517.2744,262.8125 Q1515.9297,262.8125 1515.2449,263.8792 Q1514.5601,264.9458 1514.5601,267.0459 Q1514.5601,269.1377 1515.2449,270.2044 Q1515.9297,271.271 1517.2744,271.271 Q1517.9053,271.271 1518.4988,271.0012 Q1519.0923,270.7315 1519.7231,270.1504 Z "/><text fill="#000000" font-family="sans-serif" font-size="12" lengthAdjust="spacingAndGlyphs" textLength="37" x="1537.75" y="271.2652">Utente</text><line style="stroke: #A80036; stroke-width: 1.5;" x1="1395.5" x2="1684.5" y1="282.73" y2="282.73"/><rect fill="none" height="6" style="stroke: #C82930; stroke-width: 1.0;" width="6" x="1402.5" y="290.73"/><text fill="#000000" font-family="sans-serif" font-size="11" lengthAdjust="spacingAndGlyphs" text-decoration="underline" textLength="119" x="1414.5" y="297.3648">serialVersionUID: long</text><rect fill="none" height="6" style="stroke: #C82930; stroke-width: 1.0;" width="6" x="1402.5" y="303.6851"/><text fill="#000000" font-family="sans-serif" font-size="11" lengthAdjust="spacingAndGlyphs" textLength="73" x="1414.5" y="310.3198">version: Long</text><rect fill="none" height="6" style="stroke: #C82930; stroke-width: 1.0;" width="6" x="1402.5" y="316.6402"/><text fill="#000000" font-family="sans-serif" font-size="11" lengthAdjust="spacingAndGlyphs" textLength="132" x="1414.5" y="323.2749">systemUser: SystemUser</text><line style="stroke: #A80036; stroke-width: 1.5;" x1="1395.5" x2="1684.5" y1="329.5952" y2="329.5952"/><ellipse cx="1405.5" cy="340.5952" fill="#84BE84" rx="3" ry="3" style="stroke: #038048; stroke-width: 1.0;"/><text fill="#000000" font-family="sans-serif" font-size="11" lengthAdjust="spacingAndGlyphs" textLength="237" x="1414.5" y="344.23">Utente(SystemUser, MecanographicNumber)</text><polygon fill="#FFFF44" points="1405.5,348.5503,1409.5,352.5503,1405.5,356.5503,1401.5,352.5503" style="stroke: #B38D22; stroke-width: 1.0;"/><text fill="#000000" font-family="sans-serif" font-size="11" lengthAdjust="spacingAndGlyphs" textLength="43" x="1414.5" y="357.1851">Utente()</text><ellipse cx="1405.5" cy="366.5054" fill="#84BE84" rx="3" ry="3" style="stroke: #038048; stroke-width: 1.0;"/><text fill="#000000" font-family="sans-serif" font-size="11" lengthAdjust="spacingAndGlyphs" textLength="101" x="1414.5" y="370.1402">user(): SystemUser</text><ellipse cx="1405.5" cy="379.4605" fill="#84BE84" rx="3" ry="3" style="stroke: #038048; stroke-width: 1.0;"/><text fill="#000000" font-family="sans-serif" font-size="11" lengthAdjust="spacingAndGlyphs" textLength="134" x="1414.5" y="383.0952">sameAs(Object): boolean</text><ellipse cx="1405.5" cy="392.4155" fill="#84BE84" rx="3" ry="3" style="stroke: #038048; stroke-width: 1.0;"/><text fill="#000000" font-family="sans-serif" font-size="11" lengthAdjust="spacingAndGlyphs" textLength="265" x="1414.5" y="396.0503">mecanographicNumber(): MecanographicNumber</text><ellipse cx="1405.5" cy="405.3706" fill="#84BE84" rx="3" ry="3" style="stroke: #038048; stroke-width: 1.0;"/><text fill="#000000" font-family="sans-serif" font-size="11" lengthAdjust="spacingAndGlyphs" textLength="179" x="1414.5" y="409.0054">identity(): MecanographicNumber</text></a><!--MD5=[53c8339984e0786868bb577037abf5e5]
class eapli.exemplo.utentemanagement.domain.SignupRequest--><a href="SignupRequest.html" target="_top" title="SignupRequest.html" xlink:actuate="onRequest" xlink:href="SignupRequest.html" xlink:show="new" xlink:title="SignupRequest.html" xlink:type="simple"><rect codeLine="29" fill="#FEFECE" filter="url(#f1qnxwn13fgvmc)" height="294.1465" id="eapli.exemplo.utentemanagement.domain.SignupRequest" style="stroke: #A80036; stroke-width: 1.5;" width="525" x="834.5" y="185.95"/><ellipse cx="1050.25" cy="201.95" fill="#ADD1B2" rx="11" ry="11" style="stroke: #A80036; stroke-width: 1.0;"/><path d="M1052.7231,208.0931 Q1052.1421,208.3919 1051.5029,208.5413 Q1050.8638,208.6907 1050.1582,208.6907 Q1047.6514,208.6907 1046.3315,207.0389 Q1045.0117,205.387 1045.0117,202.2659 Q1045.0117,199.1365 1046.3315,197.4847 Q1047.6514,195.8328 1050.1582,195.8328 Q1050.8638,195.8328 1051.5112,195.9822 Q1052.1587,196.1316 1052.7231,196.4305 L1052.7231,199.1531 Q1052.0923,198.5721 1051.4988,198.3023 Q1050.9053,198.0325 1050.2744,198.0325 Q1048.9297,198.0325 1048.2449,199.0992 Q1047.5601,200.1658 1047.5601,202.2659 Q1047.5601,204.3577 1048.2449,205.4244 Q1048.9297,206.491 1050.2744,206.491 Q1050.9053,206.491 1051.4988,206.2212 Q1052.0923,205.9515 1052.7231,205.3704 Z "/><text fill="#000000" font-family="sans-serif" font-size="12" lengthAdjust="spacingAndGlyphs" textLength="85" x="1070.75" y="206.4852">SignupRequest</text><line style="stroke: #A80036; stroke-width: 1.5;" x1="835.5" x2="1358.5" y1="217.95" y2="217.95"/><rect fill="none" height="6" style="stroke: #C82930; stroke-width: 1.0;" width="6" x="842.5" y="225.95"/><text fill="#000000" font-family="sans-serif" font-size="11" lengthAdjust="spacingAndGlyphs" text-decoration="underline" textLength="119" x="854.5" y="232.5848">serialVersionUID: long</text><rect fill="none" height="6" style="stroke: #C82930; stroke-width: 1.0;" width="6" x="842.5" y="238.9051"/><text fill="#000000" font-family="sans-serif" font-size="11" lengthAdjust="spacingAndGlyphs" textLength="73" x="854.5" y="245.5398">version: Long</text><rect fill="none" height="6" style="stroke: #C82930; stroke-width: 1.0;" width="6" x="842.5" y="251.8602"/><text fill="#000000" font-family="sans-serif" font-size="11" lengthAdjust="spacingAndGlyphs" textLength="113" x="854.5" y="258.4949">username: Username</text><rect fill="none" height="6" style="stroke: #C82930; stroke-width: 1.0;" width="6" x="842.5" y="264.8152"/><text fill="#000000" font-family="sans-serif" font-size="11" lengthAdjust="spacingAndGlyphs" textLength="109" x="854.5" y="271.45">password: Password</text><rect fill="none" height="6" style="stroke: #C82930; stroke-width: 1.0;" width="6" x="842.5" y="277.7703"/><text fill="#000000" font-family="sans-serif" font-size="11" lengthAdjust="spacingAndGlyphs" textLength="65" x="854.5" y="284.4051">name: Name</text><rect fill="none" height="6" style="stroke: #C82930; stroke-width: 1.0;" width="6" x="842.5" y="290.7254"/><text fill="#000000" font-family="sans-serif" font-size="11" lengthAdjust="spacingAndGlyphs" textLength="107" x="854.5" y="297.3602">email: EmailAddress</text><rect fill="none" height="6" style="stroke: #C82930; stroke-width: 1.0;" width="6" x="842.5" y="303.6805"/><text fill="#000000" font-family="sans-serif" font-size="11" lengthAdjust="spacingAndGlyphs" textLength="110" x="854.5" y="310.3152">createdOn: Calendar</text><line style="stroke: #A80036; stroke-width: 1.5;" x1="835.5" x2="1358.5" y1="316.6355" y2="316.6355"/><polygon fill="#4177AF" points="845.5,323.6355,841.5,329.6355,849.5,329.6355" style="stroke: #1963A0; stroke-width: 1.0;"/><text fill="#000000" font-family="sans-serif" font-size="11" lengthAdjust="spacingAndGlyphs" textLength="499" x="854.5" y="331.2703">SignupRequest(Username, Password, Name, EmailAddress, MecanographicNumber, Calendar)</text><polygon fill="#FFFF44" points="845.5,335.5906,849.5,339.5906,845.5,343.5906,841.5,339.5906" style="stroke: #B38D22; stroke-width: 1.0;"/><text fill="#000000" font-family="sans-serif" font-size="11" lengthAdjust="spacingAndGlyphs" textLength="88" x="854.5" y="344.2254">SignupRequest()</text><ellipse cx="845.5" cy="353.5457" fill="#84BE84" rx="3" ry="3" style="stroke: #038048; stroke-width: 1.0;"/><text fill="#000000" font-family="sans-serif" font-size="11" lengthAdjust="spacingAndGlyphs" textLength="72" x="854.5" y="357.1805">accept(): void</text><ellipse cx="845.5" cy="366.5008" fill="#84BE84" rx="3" ry="3" style="stroke: #038048; stroke-width: 1.0;"/><text fill="#000000" font-family="sans-serif" font-size="11" lengthAdjust="spacingAndGlyphs" textLength="71" x="854.5" y="370.1355">refuse(): void</text><ellipse cx="845.5" cy="379.4559" fill="#84BE84" rx="3" ry="3" style="stroke: #038048; stroke-width: 1.0;"/><text fill="#000000" font-family="sans-serif" font-size="11" lengthAdjust="spacingAndGlyphs" textLength="134" x="854.5" y="383.0906">sameAs(Object): boolean</text><ellipse cx="845.5" cy="392.4109" fill="#84BE84" rx="3" ry="3" style="stroke: #038048; stroke-width: 1.0;"/><text fill="#000000" font-family="sans-serif" font-size="11" lengthAdjust="spacingAndGlyphs" textLength="265" x="854.5" y="396.0457">mecanographicNumber(): MecanographicNumber</text><ellipse cx="845.5" cy="405.366" fill="#84BE84" rx="3" ry="3" style="stroke: #038048; stroke-width: 1.0;"/><text fill="#000000" font-family="sans-serif" font-size="11" lengthAdjust="spacingAndGlyphs" textLength="108" x="854.5" y="409.0008">identity(): Username</text><ellipse cx="845.5" cy="418.3211" fill="#84BE84" rx="3" ry="3" style="stroke: #038048; stroke-width: 1.0;"/><text fill="#000000" font-family="sans-serif" font-size="11" lengthAdjust="spacingAndGlyphs" textLength="121" x="854.5" y="421.9559">username(): Username</text><ellipse cx="845.5" cy="431.2762" fill="#84BE84" rx="3" ry="3" style="stroke: #038048; stroke-width: 1.0;"/><text fill="#000000" font-family="sans-serif" font-size="11" lengthAdjust="spacingAndGlyphs" textLength="73" x="854.5" y="434.9109">name(): Name</text><ellipse cx="845.5" cy="444.2313" fill="#84BE84" rx="3" ry="3" style="stroke: #038048; stroke-width: 1.0;"/><text fill="#000000" font-family="sans-serif" font-size="11" lengthAdjust="spacingAndGlyphs" textLength="109" x="854.5" y="447.866">isPending(): boolean</text><ellipse cx="845.5" cy="457.1863" fill="#84BE84" rx="3" ry="3" style="stroke: #038048; stroke-width: 1.0;"/><text fill="#000000" font-family="sans-serif" font-size="11" lengthAdjust="spacingAndGlyphs" textLength="115" x="854.5" y="460.8211">email(): EmailAddress</text><ellipse cx="845.5" cy="470.1414" fill="#84BE84" rx="3" ry="3" style="stroke: #038048; stroke-width: 1.0;"/><text fill="#000000" font-family="sans-serif" font-size="11" lengthAdjust="spacingAndGlyphs" textLength="117" x="854.5" y="473.7762">password(): Password</text></a><!--MD5=[a8a9328639a7815b7fd42a5e3d19e50b]
class eapli.exemplo.utentemanagement.domain.SignupRequestBuilder--><a href="SignupRequestBuilder.html" target="_top" title="SignupRequestBuilder.html" xlink:actuate="onRequest" xlink:href="SignupRequestBuilder.html" xlink:show="new" xlink:title="SignupRequestBuilder.html" xlink:type="simple"><rect codeLine="51" fill="#FEFECE" filter="url(#f1qnxwn13fgvmc)" height="281.1914" id="eapli.exemplo.utentemanagement.domain.SignupRequestBuilder" style="stroke: #A80036; stroke-width: 1.5;" width="349" x="31.5" y="192.43"/><ellipse cx="139.25" cy="208.43" fill="#ADD1B2" rx="11" ry="11" style="stroke: #A80036; stroke-width: 1.0;"/><path d="M141.7231,214.5731 Q141.1421,214.8719 140.5029,215.0213 Q139.8638,215.1707 139.1582,215.1707 Q136.6514,215.1707 135.3315,213.5189 Q134.0117,211.867 134.0117,208.7459 Q134.0117,205.6165 135.3315,203.9647 Q136.6514,202.3128 139.1582,202.3128 Q139.8638,202.3128 140.5112,202.4622 Q141.1587,202.6116 141.7231,202.9105 L141.7231,205.6331 Q141.0923,205.0521 140.4988,204.7823 Q139.9053,204.5125 139.2744,204.5125 Q137.9297,204.5125 137.2449,205.5792 Q136.5601,206.6458 136.5601,208.7459 Q136.5601,210.8377 137.2449,211.9044 Q137.9297,212.971 139.2744,212.971 Q139.9053,212.971 140.4988,212.7012 Q141.0923,212.4315 141.7231,211.8504 Z "/><text fill="#000000" font-family="sans-serif" font-size="12" lengthAdjust="spacingAndGlyphs" textLength="125" x="159.75" y="212.9652">SignupRequestBuilder</text><line style="stroke: #A80036; stroke-width: 1.5;" x1="32.5" x2="379.5" y1="224.43" y2="224.43"/><rect fill="none" height="6" style="stroke: #C82930; stroke-width: 1.0;" width="6" x="39.5" y="232.43"/><text fill="#000000" font-family="sans-serif" font-size="11" lengthAdjust="spacingAndGlyphs" textLength="120" x="51.5" y="239.0648">policy: PasswordPolicy</text><rect fill="none" height="6" style="stroke: #C82930; stroke-width: 1.0;" width="6" x="39.5" y="245.3851"/><text fill="#000000" font-family="sans-serif" font-size="11" lengthAdjust="spacingAndGlyphs" textLength="145" x="51.5" y="252.0198">encoder: PasswordEncoder</text><rect fill="none" height="6" style="stroke: #C82930; stroke-width: 1.0;" width="6" x="39.5" y="258.3402"/><text fill="#000000" font-family="sans-serif" font-size="11" lengthAdjust="spacingAndGlyphs" textLength="91" x="51.5" y="264.9749">username: String</text><rect fill="none" height="6" style="stroke: #C82930; stroke-width: 1.0;" width="6" x="39.5" y="271.2952"/><text fill="#000000" font-family="sans-serif" font-size="11" lengthAdjust="spacingAndGlyphs" textLength="109" x="51.5" y="277.93">password: Password</text><rect fill="none" height="6" style="stroke: #C82930; stroke-width: 1.0;" width="6" x="39.5" y="284.2503"/><text fill="#000000" font-family="sans-serif" font-size="11" lengthAdjust="spacingAndGlyphs" textLength="90" x="51.5" y="290.8851">firstName: String</text><rect fill="none" height="6" style="stroke: #C82930; stroke-width: 1.0;" width="6" x="39.5" y="297.2054"/><text fill="#000000" font-family="sans-serif" font-size="11" lengthAdjust="spacingAndGlyphs" textLength="87" x="51.5" y="303.8402">lastName: String</text><rect fill="none" height="6" style="stroke: #C82930; stroke-width: 1.0;" width="6" x="39.5" y="310.1605"/><text fill="#000000" font-family="sans-serif" font-size="11" lengthAdjust="spacingAndGlyphs" textLength="66" x="51.5" y="316.7952">email: String</text><rect fill="none" height="6" style="stroke: #C82930; stroke-width: 1.0;" width="6" x="39.5" y="323.1155"/><text fill="#000000" font-family="sans-serif" font-size="11" lengthAdjust="spacingAndGlyphs" textLength="164" x="51.5" y="329.7503">mecanographicNumber: String</text><rect fill="none" height="6" style="stroke: #C82930; stroke-width: 1.0;" width="6" x="39.5" y="336.0706"/><text fill="#000000" font-family="sans-serif" font-size="11" lengthAdjust="spacingAndGlyphs" textLength="110" x="51.5" y="342.7054">createdOn: Calendar</text><line style="stroke: #A80036; stroke-width: 1.5;" x1="32.5" x2="379.5" y1="349.0257" y2="349.0257"/><ellipse cx="42.5" cy="360.0257" fill="#84BE84" rx="3" ry="3" style="stroke: #038048; stroke-width: 1.0;"/><text fill="#000000" font-family="sans-serif" font-size="11" lengthAdjust="spacingAndGlyphs" textLength="308" x="51.5" y="363.6605">SignupRequestBuilder(PasswordPolicy, PasswordEncoder)</text><ellipse cx="42.5" cy="372.9808" fill="#84BE84" rx="3" ry="3" style="stroke: #038048; stroke-width: 1.0;"/><text fill="#000000" font-family="sans-serif" font-size="11" lengthAdjust="spacingAndGlyphs" textLength="323" x="51.5" y="376.6155">withData(String, String, String, String): SignupRequestBuilder</text><ellipse cx="42.5" cy="385.9359" fill="#84BE84" rx="3" ry="3" style="stroke: #038048; stroke-width: 1.0;"/><text fill="#000000" font-family="sans-serif" font-size="11" lengthAdjust="spacingAndGlyphs" textLength="239" x="51.5" y="389.5706">withUsername(String): SignupRequestBuilder</text><ellipse cx="42.5" cy="398.8909" fill="#84BE84" rx="3" ry="3" style="stroke: #038048; stroke-width: 1.0;"/><text fill="#000000" font-family="sans-serif" font-size="11" lengthAdjust="spacingAndGlyphs" textLength="236" x="51.5" y="402.5257">withPassword(String): SignupRequestBuilder</text><ellipse cx="42.5" cy="411.846" fill="#84BE84" rx="3" ry="3" style="stroke: #038048; stroke-width: 1.0;"/><text fill="#000000" font-family="sans-serif" font-size="11" lengthAdjust="spacingAndGlyphs" textLength="253" x="51.5" y="415.4808">withName(String, String): SignupRequestBuilder</text><ellipse cx="42.5" cy="424.8011" fill="#84BE84" rx="3" ry="3" style="stroke: #038048; stroke-width: 1.0;"/><text fill="#000000" font-family="sans-serif" font-size="11" lengthAdjust="spacingAndGlyphs" textLength="213" x="51.5" y="428.4359">withEmail(String): SignupRequestBuilder</text><ellipse cx="42.5" cy="437.7562" fill="#84BE84" rx="3" ry="3" style="stroke: #038048; stroke-width: 1.0;"/><text fill="#000000" font-family="sans-serif" font-size="11" lengthAdjust="spacingAndGlyphs" textLength="310" x="51.5" y="441.3909">withMecanographicNumber(String): SignupRequestBuilder</text><ellipse cx="42.5" cy="450.7113" fill="#84BE84" rx="3" ry="3" style="stroke: #038048; stroke-width: 1.0;"/><text fill="#000000" font-family="sans-serif" font-size="11" lengthAdjust="spacingAndGlyphs" textLength="235" x="51.5" y="454.346">createdOn(Calendar): SignupRequestBuilder</text><ellipse cx="42.5" cy="463.6663" fill="#84BE84" rx="3" ry="3" style="stroke: #038048; stroke-width: 1.0;"/><text fill="#000000" font-family="sans-serif" font-size="11" lengthAdjust="spacingAndGlyphs" textLength="121" x="51.5" y="467.3011">build(): SignupRequest</text></a><!--MD5=[f977ad0526a7e680170277c2f3e16161]
class eapli.exemplo.utentemanagement.domain.MecanographicNumber--><a href="MecanographicNumber.html" target="_top" title="MecanographicNumber.html" xlink:actuate="onRequest" xlink:href="MecanographicNumber.html" xlink:show="new" xlink:title="MecanographicNumber.html" xlink:type="simple"><rect codeLine="72" fill="#FEFECE" filter="url(#f1qnxwn13fgvmc)" height="125.7305" id="eapli.exemplo.utentemanagement.domain.MecanographicNumber" style="stroke: #A80036; stroke-width: 1.5;" width="240" x="1418" y="557.1"/><ellipse cx="1466.75" cy="573.1" fill="#ADD1B2" rx="11" ry="11" style="stroke: #A80036; stroke-width: 1.0;"/><path d="M1469.2231,579.2431 Q1468.6421,579.5419 1468.0029,579.6913 Q1467.3638,579.8407 1466.6582,579.8407 Q1464.1514,579.8407 1462.8315,578.1889 Q1461.5117,576.537 1461.5117,573.4159 Q1461.5117,570.2865 1462.8315,568.6347 Q1464.1514,566.9828 1466.6582,566.9828 Q1467.3638,566.9828 1468.0112,567.1322 Q1468.6587,567.2816 1469.2231,567.5805 L1469.2231,570.3031 Q1468.5923,569.7221 1467.9988,569.4523 Q1467.4053,569.1825 1466.7744,569.1825 Q1465.4297,569.1825 1464.7449,570.2492 Q1464.0601,571.3158 1464.0601,573.4159 Q1464.0601,575.5077 1464.7449,576.5744 Q1465.4297,577.641 1466.7744,577.641 Q1467.4053,577.641 1467.9988,577.3712 Q1468.5923,577.1015 1469.2231,576.5204 Z "/><text fill="#000000" font-family="sans-serif" font-size="12" lengthAdjust="spacingAndGlyphs" textLength="134" x="1487.25" y="577.6352">MecanographicNumber</text><line style="stroke: #A80036; stroke-width: 1.5;" x1="1419" x2="1657" y1="589.1" y2="589.1"/><rect fill="none" height="6" style="stroke: #C82930; stroke-width: 1.0;" width="6" x="1426" y="597.1"/><text fill="#000000" font-family="sans-serif" font-size="11" lengthAdjust="spacingAndGlyphs" text-decoration="underline" textLength="119" x="1438" y="603.7348">serialVersionUID: long</text><rect fill="none" height="6" style="stroke: #C82930; stroke-width: 1.0;" width="6" x="1426" y="610.0551"/><text fill="#000000" font-family="sans-serif" font-size="11" lengthAdjust="spacingAndGlyphs" textLength="80" x="1438" y="616.6898">number: String</text><line style="stroke: #A80036; stroke-width: 1.5;" x1="1419" x2="1657" y1="623.0102" y2="623.0102"/><ellipse cx="1429" cy="634.0102" fill="#84BE84" rx="3" ry="3" style="stroke: #038048; stroke-width: 1.0;"/><text fill="#000000" font-family="sans-serif" font-size="11" lengthAdjust="spacingAndGlyphs" textLength="165" x="1438" y="637.6449">MecanographicNumber(String)</text><polygon fill="#FFFF44" points="1429,641.9652,1433,645.9652,1429,649.9652,1425,645.9652" style="stroke: #B38D22; stroke-width: 1.0;"/><text fill="#000000" font-family="sans-serif" font-size="11" lengthAdjust="spacingAndGlyphs" textLength="133" x="1438" y="650.6">MecanographicNumber()</text><ellipse cx="1429" cy="659.9203" fill="#84BE84" rx="3" ry="3" style="stroke: #038048; stroke-width: 1.0;"/><text fill="#000000" font-family="sans-serif" font-size="11" lengthAdjust="spacingAndGlyphs" text-decoration="underline" textLength="212" x="1438" y="663.5551">valueOf(String): MecanographicNumber</text><ellipse cx="1429" cy="672.8754" fill="#84BE84" rx="3" ry="3" style="stroke: #038048; stroke-width: 1.0;"/><text fill="#000000" font-family="sans-serif" font-size="11" lengthAdjust="spacingAndGlyphs" textLength="214" x="1438" y="676.5102">compareTo(MecanographicNumber): int</text></a><!--MD5=[e2d268cf9ed8c63b2fbfa9dd65f8d87c]
class eapli.framework.domain.model.DomainFactory--><rect codeLine="94" fill="#FEFECE" filter="url(#f1qnxwn13fgvmc)" height="60.9551" id="eapli.framework.domain.model.DomainFactory" style="stroke: #A80036; stroke-width: 1.5;" width="283" x="642.5" y="41"/><ellipse cx="657.5" cy="57" fill="#B4A7E5" rx="11" ry="11" style="stroke: #A80036; stroke-width: 1.0;"/><path d="M653.9277,53.2651 L653.9277,51.1069 L661.3071,51.1069 L661.3071,53.2651 L658.8418,53.2651 L658.8418,61.3418 L661.3071,61.3418 L661.3071,63.5 L653.9277,63.5 L653.9277,61.3418 L656.3931,61.3418 L656.3931,53.2651 Z "/><text fill="#000000" font-family="sans-serif" font-size="12" font-style="italic" lengthAdjust="spacingAndGlyphs" textLength="85" x="671.5" y="61.5352">DomainFactory</text><rect fill="#FFFFFF" height="16.1328" style="stroke: #000000; stroke-width: 1.0; stroke-dasharray: 2.0,2.0;" width="164" x="764.5" y="38"/><text fill="#000000" font-family="sans-serif" font-size="12" font-style="italic" lengthAdjust="spacingAndGlyphs" textLength="162" x="765.5" y="50.6016">T extends DomainEntity&lt;?&gt;</text><line style="stroke: #A80036; stroke-width: 1.5;" x1="643.5" x2="924.5" y1="73" y2="73"/><line style="stroke: #A80036; stroke-width: 1.5;" x1="643.5" x2="924.5" y1="81" y2="81"/><ellipse cx="653.5" cy="92" fill="#84BE84" rx="3" ry="3" style="stroke: #038048; stroke-width: 1.0;"/><text fill="#000000" font-family="sans-serif" font-size="11" font-style="italic" lengthAdjust="spacingAndGlyphs" textLength="191" x="662.5" y="95.6348">build(): T extends DomainEntity&lt;?&gt;</text><!--MD5=[aaa3afea0423f8bbe6dedd0d6399df18]
class eapli.framework.domain.model.AggregateRoot--><rect codeLine="97" fill="#FEFECE" filter="url(#f1qnxwn13fgvmc)" height="48" id="eapli.framework.domain.model.AggregateRoot" style="stroke: #A80036; stroke-width: 1.5;" width="272" x="961" y="47.48"/><ellipse cx="976" cy="63.48" fill="#B4A7E5" rx="11" ry="11" style="stroke: #A80036; stroke-width: 1.0;"/><path d="M972.4277,59.7451 L972.4277,57.5869 L979.8071,57.5869 L979.8071,59.7451 L977.3418,59.7451 L977.3418,67.8218 L979.8071,67.8218 L979.8071,69.98 L972.4277,69.98 L972.4277,67.8218 L974.8931,67.8218 L974.8931,59.7451 Z "/><text fill="#000000" font-family="sans-serif" font-size="12" font-style="italic" lengthAdjust="spacingAndGlyphs" textLength="85" x="990" y="68.0152">AggregateRoot</text><rect fill="#FFFFFF" height="16.1328" style="stroke: #000000; stroke-width: 1.0; stroke-dasharray: 2.0,2.0;" width="153" x="1083" y="44.48"/><text fill="#000000" font-family="sans-serif" font-size="12" font-style="italic" lengthAdjust="spacingAndGlyphs" textLength="151" x="1084" y="57.0816">I extends Comparable&lt;​I&gt;</text><line style="stroke: #A80036; stroke-width: 1.5;" x1="962" x2="1232" y1="79.48" y2="79.48"/><line style="stroke: #A80036; stroke-width: 1.5;" x1="962" x2="1232" y1="87.48" y2="87.48"/><!--MD5=[ce0423b4918b6b29de95b9c9580cdd71]
class eapli.framework.domain.model.ValueObject--><rect codeLine="98" fill="#FEFECE" filter="url(#f1qnxwn13fgvmc)" height="48" id="eapli.framework.domain.model.ValueObject" style="stroke: #A80036; stroke-width: 1.5;" width="102" x="1268" y="47.48"/><ellipse cx="1283" cy="63.48" fill="#B4A7E5" rx="11" ry="11" style="stroke: #A80036; stroke-width: 1.0;"/><path d="M1279.4277,59.7451 L1279.4277,57.5869 L1286.8071,57.5869 L1286.8071,59.7451 L1284.3418,59.7451 L1284.3418,67.8218 L1286.8071,67.8218 L1286.8071,69.98 L1279.4277,69.98 L1279.4277,67.8218 L1281.8931,67.8218 L1281.8931,59.7451 Z "/><text fill="#000000" font-family="sans-serif" font-size="12" font-style="italic" lengthAdjust="spacingAndGlyphs" textLength="70" x="1297" y="68.0152">ValueObject</text><line style="stroke: #A80036; stroke-width: 1.5;" x1="1269" x2="1369" y1="79.48" y2="79.48"/><line style="stroke: #A80036; stroke-width: 1.5;" x1="1269" x2="1369" y1="87.48" y2="87.48"/><!--MD5=[008d82c49f85b4d489e041917c99c847]
class java.lang.Comparable--><rect codeLine="102" fill="#FEFECE" filter="url(#f1qnxwn13fgvmc)" height="60.9551" id="java.lang.Comparable" style="stroke: #A80036; stroke-width: 1.5;" width="122" x="1792" y="302.55"/><ellipse cx="1810.15" cy="318.55" fill="#B4A7E5" rx="11" ry="11" style="stroke: #A80036; stroke-width: 1.0;"/><path d="M1806.5777,314.8151 L1806.5777,312.6569 L1813.9571,312.6569 L1813.9571,314.8151 L1811.4918,314.8151 L1811.4918,322.8918 L1813.9571,322.8918 L1813.9571,325.05 L1806.5777,325.05 L1806.5777,322.8918 L1809.0431,322.8918 L1809.0431,314.8151 Z "/><text fill="#000000" font-family="sans-serif" font-size="12" font-style="italic" lengthAdjust="spacingAndGlyphs" textLength="71" x="1824.85" y="323.0852">Comparable</text><rect fill="#FFFFFF" height="16.1328" style="stroke: #000000; stroke-width: 1.0; stroke-dasharray: 2.0,2.0;" width="10" x="1907" y="299.55"/><text fill="#000000" font-family="sans-serif" font-size="12" font-style="italic" lengthAdjust="spacingAndGlyphs" textLength="8" x="1908" y="312.1516">T</text><line style="stroke: #A80036; stroke-width: 1.5;" x1="1793" x2="1913" y1="334.55" y2="334.55"/><line style="stroke: #A80036; stroke-width: 1.5;" x1="1793" x2="1913" y1="342.55" y2="342.55"/><ellipse cx="1803" cy="353.55" fill="#84BE84" rx="3" ry="3" style="stroke: #038048; stroke-width: 1.0;"/><text fill="#000000" font-family="sans-serif" font-size="11" font-style="italic" lengthAdjust="spacingAndGlyphs" textLength="96" x="1812" y="357.1848">compareTo(T): int</text><!--MD5=[8e52344ec9b18090d85583cec2edcd7a]
reverse link eapli.framework.domain.model.DomainFactory to eapli.exemplo.utentemanagement.domain.UtenteBuilder--><path codeLine="81" d="M751.6,119.99 C721.52,164.09 676.75,229.75 645,276.3 " fill="none" id="eapli.framework.domain.model.DomainFactory-backto-eapli.exemplo.utentemanagement.domain.UtenteBuilder" style="stroke: #A80036; stroke-width: 1.0; stroke-dasharray: 7.0,7.0;"/><polygon fill="none" points="745.79,116.08,762.84,103.5,757.36,123.97,745.79,116.08" style="stroke: #A80036; stroke-width: 1.0;"/><!--MD5=[2bb4716c0e379a9ee4677ab57ddf44a2]
link eapli.exemplo.utentemanagement.domain.UtenteBuilder to eapli.exemplo.utentemanagement.domain.MecanographicNumber--><path codeLine="82" d="M677.59,389.65 C717.08,419.07 768.09,454.32 817,480.1 C869.14,507.58 883.83,512.79 941,527.1 C1042.29,552.44 1070.73,541.68 1174,557.1 C1253.08,568.91 1341.51,583.89 1411.41,596.16 " fill="none" id="eapli.exemplo.utentemanagement.domain.UtenteBuilder-to-eapli.exemplo.utentemanagement.domain.MecanographicNumber" style="stroke: #A80036; stroke-width: 1.0;"/><polygon fill="#A80036" points="1416.2,597,1408.0339,591.4941,1411.2764,596.1294,1406.641,599.3719,1416.2,597" style="stroke: #A80036; stroke-width: 1.0;"/><text fill="#000000" font-family="sans-serif" font-size="13" lengthAdjust="spacingAndGlyphs" textLength="146" x="942" y="523.6684">mecanographicNumber</text><!--MD5=[61c1ef07cb82e827897658377c8c8ee7]
reverse link eapli.framework.domain.model.AggregateRoot to eapli.exemplo.utentemanagement.domain.Utente--><path codeLine="83" d="M1175.11,103.21 C1198.86,111.62 1225.23,120.03 1250,125.95 C1305.39,139.19 1326.92,115.84 1377,142.95 C1423.12,167.92 1462.05,211.52 1490.29,250.57 " fill="none" id="eapli.framework.domain.model.AggregateRoot-backto-eapli.exemplo.utentemanagement.domain.Utente" style="stroke: #A80036; stroke-width: 1.0; stroke-dasharray: 7.0,7.0;"/><polygon fill="none" points="1172.83,109.83,1156.44,96.4,1177.63,96.67,1172.83,109.83" style="stroke: #A80036; stroke-width: 1.0;"/><!--MD5=[73f01689f85f2da80bdb077a080d8c88]
link eapli.exemplo.utentemanagement.domain.Utente to eapli.exemplo.utentemanagement.domain.MecanographicNumber--><path codeLine="84" d="M1539.43,415.68 C1539.13,458.29 1538.77,509.85 1538.48,550.37 " fill="none" id="eapli.exemplo.utentemanagement.domain.Utente-to-eapli.exemplo.utentemanagement.domain.MecanographicNumber" style="stroke: #A80036; stroke-width: 1.0;"/><polygon fill="#A80036" points="1538.45,555.27,1542.527,546.3046,1538.4929,550.2702,1534.5273,546.236,1538.45,555.27" style="stroke: #A80036; stroke-width: 1.0;"/><text fill="#000000" font-family="sans-serif" font-size="13" lengthAdjust="spacingAndGlyphs" textLength="146" x="1539.76" y="523.6684">mecanographicNumber</text><!--MD5=[375478147edf2ba8285bce3379f6a191]
reverse link eapli.framework.domain.model.AggregateRoot to eapli.exemplo.utentemanagement.domain.SignupRequest--><path codeLine="85" d="M1097,117.18 C1097,136.62 1097,160.62 1097,185.46 " fill="none" id="eapli.framework.domain.model.AggregateRoot-backto-eapli.exemplo.utentemanagement.domain.SignupRequest" style="stroke: #A80036; stroke-width: 1.0; stroke-dasharray: 7.0,7.0;"/><polygon fill="none" points="1090,117.48,1097,97.48,1104,117.48,1090,117.48" style="stroke: #A80036; stroke-width: 1.0;"/><!--MD5=[f50ab0b664b7987cc8628570a47ce7e3]
link eapli.exemplo.utentemanagement.domain.SignupRequest to eapli.exemplo.utentemanagement.domain.MecanographicNumber--><path codeLine="86" d="M1310.83,480.36 C1335.04,496.34 1359.46,512.2 1383,527.1 C1396.77,535.82 1411.36,544.79 1425.85,553.56 " fill="none" id="eapli.exemplo.utentemanagement.domain.SignupRequest-to-eapli.exemplo.utentemanagement.domain.MecanographicNumber" style="stroke: #A80036; stroke-width: 1.0;"/><polygon fill="#A80036" points="1429.89,555.99,1424.2503,547.9157,1425.6088,553.407,1420.1175,554.7656,1429.89,555.99" style="stroke: #A80036; stroke-width: 1.0;"/><text fill="#000000" font-family="sans-serif" font-size="13" lengthAdjust="spacingAndGlyphs" textLength="146" x="1384" y="523.6684">mecanographicNumber</text><!--MD5=[820d5845deb8523942922e105e96ace3]
link eapli.exemplo.utentemanagement.domain.SignupRequest to eapli.exemplo.utentemanagement.domain.ApprovalStatus--><path codeLine="87" d="M1097,480.25 C1097,512.63 1097,544.74 1097,569.9 " fill="none" id="eapli.exemplo.utentemanagement.domain.SignupRequest-to-eapli.exemplo.utentemanagement.domain.ApprovalStatus" style="stroke: #A80036; stroke-width: 1.0;"/><polygon fill="#A80036" points="1097,574.63,1101,565.63,1097,569.63,1093,565.63,1097,574.63" style="stroke: #A80036; stroke-width: 1.0;"/><text fill="#000000" font-family="sans-serif" font-size="13" lengthAdjust="spacingAndGlyphs" textLength="93" x="1098" y="523.6684">approvalStatus</text><!--MD5=[e7dc99da5f21c71e354b71819e642885]
reverse link eapli.framework.domain.model.DomainFactory to eapli.exemplo.utentemanagement.domain.SignupRequestBuilder--><path codeLine="88" d="M620.88,80.7 C549.29,89.62 466.21,107.51 398,142.95 C373.09,155.89 349.31,173.15 327.5,192 " fill="none" id="eapli.framework.domain.model.DomainFactory-backto-eapli.exemplo.utentemanagement.domain.SignupRequestBuilder" style="stroke: #A80036; stroke-width: 1.0; stroke-dasharray: 7.0,7.0;"/><polygon fill="none" points="620.03,73.75,640.7,78.43,621.62,87.66,620.03,73.75" style="stroke: #A80036; stroke-width: 1.0;"/><!--MD5=[d7a948df78b46fe7498d65e9f5a47753]
reverse link eapli.framework.domain.model.ValueObject to eapli.exemplo.utentemanagement.domain.MecanographicNumber--><path codeLine="89" d="M1391.84,75.12 C1491.97,80.47 1664.18,96.36 1703,142.95 C1757.66,208.55 1743.56,456.87 1695,527.1 C1685.21,541.26 1672.47,553.55 1658.49,564.13 " fill="none" id="eapli.framework.domain.model.ValueObject-backto-eapli.exemplo.utentemanagement.domain.MecanographicNumber" style="stroke: #A80036; stroke-width: 1.0; stroke-dasharray: 7.0,7.0;"/><polygon fill="none" points="1391.6,82.12,1371.96,74.16,1392.28,68.13,1391.6,82.12" style="stroke: #A80036; stroke-width: 1.0;"/><!--MD5=[d35a196b10a7f76803f3811237347d32]
reverse link java.lang.Comparable to eapli.exemplo.utentemanagement.domain.MecanographicNumber--><path codeLine="90" d="M1841.25,384.55 C1828.88,427.56 1805.44,488.37 1765,527.1 C1735.45,555.4 1696.03,575.41 1658.34,589.36 " fill="none" id="java.lang.Comparable-backto-eapli.exemplo.utentemanagement.domain.MecanographicNumber" style="stroke: #A80036; stroke-width: 1.0; stroke-dasharray: 7.0,7.0;"/><polygon fill="none" points="1834.45,382.88,1846.36,365.35,1847.98,386.48,1834.45,382.88" style="stroke: #A80036; stroke-width: 1.0;"/><text fill="#888888" font-family="sans-serif" font-size="10" lengthAdjust="spacingAndGlyphs" textLength="188" x="873" y="714.498">UMLDoclet 2.0.12, PlantUML 1.2020.16</text><!--MD5=[9c018b7b4270f0f0fb64fbea3d037bd6]
@startuml
    namespace eapli.exemplo.utentemanagement.domain {

        class UtenteBuilder [[UtenteBuilder.html]] {
            -systemUser: SystemUser
            +withSystemUser(SystemUser): UtenteBuilder
            +withMecanographicNumber(MecanographicNumber): UtenteBuilder
            +withMecanographicNumber(String): UtenteBuilder
            +build(): Utente
        }

        enum ApprovalStatus [[ApprovalStatus.html]] {
            {static} +PENDING
            {static} +ACCEPTED
            {static} +REFUSED
        }

        class Utente [[Utente.html]] {
            {static} -serialVersionUID: long
            -version: Long
            -systemUser: SystemUser
            +Utente(SystemUser, MecanographicNumber)
            #Utente()
            +user(): SystemUser
            +sameAs(Object): boolean
            +mecanographicNumber(): MecanographicNumber
            +identity(): MecanographicNumber
        }

        class SignupRequest [[SignupRequest.html]] {
            {static} -serialVersionUID: long
            -version: Long
            -username: Username
            -password: Password
            -name: Name
            -email: EmailAddress
            -createdOn: Calendar
            ~SignupRequest(Username, Password, Name, EmailAddress, MecanographicNumber, Calendar)
            #SignupRequest()
            +accept(): void
            +refuse(): void
            +sameAs(Object): boolean
            +mecanographicNumber(): MecanographicNumber
            +identity(): Username
            +username(): Username
            +name(): Name
            +isPending(): boolean
            +email(): EmailAddress
            +password(): Password
        }

        class SignupRequestBuilder [[SignupRequestBuilder.html]] {
            -policy: PasswordPolicy
            -encoder: PasswordEncoder
            -username: String
            -password: Password
            -firstName: String
            -lastName: String
            -email: String
            -mecanographicNumber: String
            -createdOn: Calendar
            +SignupRequestBuilder(PasswordPolicy, PasswordEncoder)
            +withData(String, String, String, String): SignupRequestBuilder
            +withUsername(String): SignupRequestBuilder
            +withPassword(String): SignupRequestBuilder
            +withName(String, String): SignupRequestBuilder
            +withEmail(String): SignupRequestBuilder
            +withMecanographicNumber(String): SignupRequestBuilder
            +createdOn(Calendar): SignupRequestBuilder
            +build(): SignupRequest
        }

        class MecanographicNumber [[MecanographicNumber.html]] {
            {static} -serialVersionUID: long
            -number: String
            +MecanographicNumber(String)
            #MecanographicNumber()
            {static} +valueOf(String): MecanographicNumber
            +compareTo(MecanographicNumber): int
        }

        eapli.framework.domain.model.DomainFactory <|.. UtenteBuilder
        UtenteBuilder - -> MecanographicNumber: mecanographicNumber
        eapli.framework.domain.model.AggregateRoot <|.. Utente
        Utente - -> MecanographicNumber: mecanographicNumber
        eapli.framework.domain.model.AggregateRoot <|.. SignupRequest
        SignupRequest - -> MecanographicNumber: mecanographicNumber
        SignupRequest - -> ApprovalStatus: approvalStatus
        eapli.framework.domain.model.DomainFactory <|.. SignupRequestBuilder
        eapli.framework.domain.model.ValueObject <|.. MecanographicNumber
        java.lang.Comparable <|.. MecanographicNumber
    }

    namespace eapli.framework.domain.model {
        interface DomainFactory<T extends DomainEntity<?>> {
            {abstract} +build(): T extends DomainEntity<?>
        }
        interface AggregateRoot<I extends Comparable<​I>>
        interface ValueObject
    }

    namespace java.lang {
        interface Comparable<T> {
            {abstract} +compareTo(T): int
        }
    }

    center footer UMLDoclet 2.0.12, PlantUML 1.2020.16
@enduml

PlantUML version 1.2020.16(Sun Aug 23 21:20:43 WEST 2020)
(APACHE source distribution)
Java Runtime: OpenJDK Runtime Environment
JVM: OpenJDK 64-Bit Server VM
Default Encoding: UTF-8
Language: en
Country: US
--></g></svg>