<?xml version="1.0" encoding="UTF-8" standalone="no"?><svg xmlns="http://www.w3.org/2000/svg" xmlns:xlink="http://www.w3.org/1999/xlink" contentScriptType="application/ecmascript" contentStyleType="text/css" height="297px" preserveAspectRatio="none" style="width:410px;height:297px;" version="1.1" viewBox="0 0 410 297" width="410px" zoomAndPan="magnify"><defs><filter height="300%" id="fwnhd5bdrtit1" width="300%" x="-1" y="-1"><feGaussianBlur result="blurOut" stdDeviation="2.0"/><feColorMatrix in="blurOut" result="blurOut2" type="matrix" values="0 0 0 0 0 0 0 0 0 0 0 0 0 0 0 0 0 0 .4 0"/><feOffset dx="4.0" dy="4.0" in="blurOut2" result="blurOut3"/><feBlend in="SourceGraphic" in2="blurOut3" mode="normal"/></filter></defs><g><!--MD5=[da49268c34854870d8de748a79b7c013]
class eapli.exemplo.utentemanagement.domain.UtenteBuilder--><a href="UtenteBuilder.html" target="_top" title="UtenteBuilder.html" xlink:actuate="onRequest" xlink:href="UtenteBuilder.html" xlink:show="new" xlink:title="UtenteBuilder.html" xlink:type="simple"><rect codeLine="5" fill="#FEFECE" filter="url(#fwnhd5bdrtit1)" height="131.9961" id="eapli.exemplo.utentemanagement.domain.UtenteBuilder" style="stroke: #A80036; stroke-width: 1.5;" width="384" x="7" y="129.22"/><ellipse cx="91.25" cy="148.3528" fill="#ADD1B2" rx="11" ry="11" style="stroke: #A80036; stroke-width: 1.0;"/><path d="M93.7231,154.4959 Q93.1421,154.7947 92.5029,154.9441 Q91.8638,155.0935 91.1582,155.0935 Q88.6514,155.0935 87.3315,153.4417 Q86.0117,151.7898 86.0117,148.6687 Q86.0117,145.5393 87.3315,143.8875 Q88.6514,142.2356 91.1582,142.2356 Q91.8638,142.2356 92.5112,142.385 Q93.1587,142.5345 93.7231,142.8333 L93.7231,145.5559 Q93.0923,144.9749 92.4988,144.7051 Q91.9053,144.4353 91.2744,144.4353 Q89.9297,144.4353 89.2449,145.502 Q88.5601,146.5686 88.5601,148.6687 Q88.5601,150.7605 89.2449,151.8272 Q89.9297,152.8938 91.2744,152.8938 Q91.9053,152.8938 92.4988,152.6241 Q93.0923,152.3543 93.7231,151.7732 Z "/><text fill="#000000" font-family="sans-serif" font-size="14" lengthAdjust="spacingAndGlyphs" textLength="93" x="168.75" y="147.7552">UtenteBuilder</text><text fill="#000000" font-family="sans-serif" font-size="10" lengthAdjust="spacingAndGlyphs" textLength="207" x="111.75" y="160.3763">eapli.exemplo.utentemanagement.domain</text><line style="stroke: #A80036; stroke-width: 1.5;" x1="8" x2="390" y1="167.4856" y2="167.4856"/><rect fill="none" height="6" style="stroke: #C82930; stroke-width: 1.0;" width="6" x="15" y="175.4856"/><text fill="#000000" font-family="sans-serif" font-size="11" lengthAdjust="spacingAndGlyphs" textLength="132" x="27" y="182.1204">systemUser: SystemUser</text><rect fill="none" height="6" style="stroke: #C82930; stroke-width: 1.0;" width="6" x="15" y="188.4407"/><text fill="#000000" font-family="sans-serif" font-size="11" lengthAdjust="spacingAndGlyphs" textLength="257" x="27" y="195.0755">mecanographicNumber: MecanographicNumber</text><line style="stroke: #A80036; stroke-width: 1.5;" x1="8" x2="390" y1="201.3958" y2="201.3958"/><ellipse cx="18" cy="212.3958" fill="#84BE84" rx="3" ry="3" style="stroke: #038048; stroke-width: 1.0;"/><text fill="#000000" font-family="sans-serif" font-size="11" lengthAdjust="spacingAndGlyphs" textLength="234" x="27" y="216.0305">withSystemUser(SystemUser): UtenteBuilder</text><ellipse cx="18" cy="225.3509" fill="#84BE84" rx="3" ry="3" style="stroke: #038048; stroke-width: 1.0;"/><text fill="#000000" font-family="sans-serif" font-size="11" lengthAdjust="spacingAndGlyphs" textLength="358" x="27" y="228.9856">withMecanographicNumber(MecanographicNumber): UtenteBuilder</text><ellipse cx="18" cy="238.3059" fill="#84BE84" rx="3" ry="3" style="stroke: #038048; stroke-width: 1.0;"/><text fill="#000000" font-family="sans-serif" font-size="11" lengthAdjust="spacingAndGlyphs" textLength="265" x="27" y="241.9407">withMecanographicNumber(String): UtenteBuilder</text><ellipse cx="18" cy="251.261" fill="#84BE84" rx="3" ry="3" style="stroke: #038048; stroke-width: 1.0;"/><text fill="#000000" font-family="sans-serif" font-size="11" lengthAdjust="spacingAndGlyphs" textLength="76" x="27" y="254.8958">build(): Utente</text></a><!--MD5=[e2d268cf9ed8c63b2fbfa9dd65f8d87c]
class eapli.framework.domain.model.DomainFactory--><rect codeLine="14" fill="#FEFECE" filter="url(#fwnhd5bdrtit1)" height="59.2207" id="eapli.framework.domain.model.DomainFactory" style="stroke: #A80036; stroke-width: 1.5;" width="225" x="86.5" y="10"/><ellipse cx="101.5" cy="29.1328" fill="#B4A7E5" rx="11" ry="11" style="stroke: #A80036; stroke-width: 1.0;"/><path d="M97.9277,25.3979 L97.9277,23.2397 L105.3071,23.2397 L105.3071,25.3979 L102.8418,25.3979 L102.8418,33.4746 L105.3071,33.4746 L105.3071,35.6328 L97.9277,35.6328 L97.9277,33.4746 L100.3931,33.4746 L100.3931,25.3979 Z "/><text fill="#000000" font-family="sans-serif" font-size="14" font-style="italic" lengthAdjust="spacingAndGlyphs" textLength="103" x="140" y="28.5352">DomainFactory</text><text fill="#000000" font-family="sans-serif" font-size="10" font-style="italic" lengthAdjust="spacingAndGlyphs" textLength="152" x="115.5" y="41.1563">eapli.framework.domain.model</text><rect fill="#FFFFFF" height="16.1328" style="stroke: #000000; stroke-width: 1.0; stroke-dasharray: 2.0,2.0;" width="39" x="275.5" y="7"/><text fill="#000000" font-family="sans-serif" font-size="12" font-style="italic" lengthAdjust="spacingAndGlyphs" textLength="37" x="276.5" y="19.6016">Utente</text><line style="stroke: #A80036; stroke-width: 1.5;" x1="87.5" x2="310.5" y1="48.2656" y2="48.2656"/><ellipse cx="97.5" cy="59.2656" fill="#84BE84" rx="3" ry="3" style="stroke: #038048; stroke-width: 1.0;"/><text fill="#000000" font-family="sans-serif" font-size="11" font-style="italic" lengthAdjust="spacingAndGlyphs" textLength="76" x="106.5" y="62.9004">build(): Utente</text><!--MD5=[8e52344ec9b18090d85583cec2edcd7a]
reverse link eapli.framework.domain.model.DomainFactory to eapli.exemplo.utentemanagement.domain.UtenteBuilder--><path codeLine="18" d="M199,90.65 C199,102.84 199,116.06 199,128.84 " fill="none" id="eapli.framework.domain.model.DomainFactory-backto-eapli.exemplo.utentemanagement.domain.UtenteBuilder" style="stroke: #A80036; stroke-width: 1.0; stroke-dasharray: 7.0,7.0;"/><polygon fill="none" points="192,91.02,199,71.02,206,91.02,192,91.02" style="stroke: #A80036; stroke-width: 1.0;"/><text fill="#888888" font-family="sans-serif" font-size="10" lengthAdjust="spacingAndGlyphs" textLength="188" x="102" y="283.8841">UMLDoclet 2.0.12, PlantUML 1.2020.16</text><!--MD5=[75e5eaefc02848f8cfdcc08028b4871b]
@startuml
    set namespaceSeparator none
    hide empty fields
    hide empty methods

    class "<size:14>UtenteBuilder\n<size:10>eapli.exemplo.utentemanagement.domain" as eapli.exemplo.utentemanagement.domain.UtenteBuilder [[UtenteBuilder.html]] {
        -systemUser: SystemUser
        -mecanographicNumber: MecanographicNumber
        +withSystemUser(SystemUser): UtenteBuilder
        +withMecanographicNumber(MecanographicNumber): UtenteBuilder
        +withMecanographicNumber(String): UtenteBuilder
        +build(): Utente
    }

    interface "<size:14>DomainFactory\n<size:10>eapli.framework.domain.model" as eapli.framework.domain.model.DomainFactory<Utente> {
        {abstract} +build(): Utente
    }

    eapli.framework.domain.model.DomainFactory <|.. eapli.exemplo.utentemanagement.domain.UtenteBuilder

    center footer UMLDoclet 2.0.12, PlantUML 1.2020.16
@enduml

PlantUML version 1.2020.16(Sun Aug 23 21:20:43 WEST 2020)
(APACHE source distribution)
Java Runtime: OpenJDK Runtime Environment
JVM: OpenJDK 64-Bit Server VM
Default Encoding: UTF-8
Language: en
Country: US
--></g></svg>