<?xml version="1.0" encoding="UTF-8" standalone="no"?><svg xmlns="http://www.w3.org/2000/svg" xmlns:xlink="http://www.w3.org/1999/xlink" contentScriptType="application/ecmascript" contentStyleType="text/css" height="328px" preserveAspectRatio="none" style="width:348px;height:328px;" version="1.1" viewBox="0 0 348 328" width="348px" zoomAndPan="magnify"><defs><filter height="300%" id="f1woz561p3y1me" width="300%" x="-1" y="-1"><feGaussianBlur result="blurOut" stdDeviation="2.0"/><feColorMatrix in="blurOut" result="blurOut2" type="matrix" values="0 0 0 0 0 0 0 0 0 0 0 0 0 0 0 0 0 0 .4 0"/><feOffset dx="4.0" dy="4.0" in="blurOut2" result="blurOut3"/><feBlend in="SourceGraphic" in2="blurOut3" mode="normal"/></filter></defs><g><!--MD5=[0e20bfe39df597612a1991e1a27f037f]
class eapli.exemplo.utentemanagement.domain.Utente--><a href="Utente.html" target="_top" title="Utente.html" xlink:actuate="onRequest" xlink:href="Utente.html" xlink:show="new" xlink:title="Utente.html" xlink:type="simple"><rect codeLine="5" fill="#FEFECE" filter="url(#f1woz561p3y1me)" height="183.8164" id="eapli.exemplo.utentemanagement.domain.Utente" style="stroke: #A80036; stroke-width: 1.5;" width="291" x="22.5" y="108.26"/><ellipse cx="60.9" cy="127.3928" fill="#ADD1B2" rx="11" ry="11" style="stroke: #A80036; stroke-width: 1.0;"/><path d="M63.3731,133.5359 Q62.7921,133.8347 62.1529,133.9841 Q61.5138,134.1335 60.8082,134.1335 Q58.3014,134.1335 56.9815,132.4817 Q55.6617,130.8298 55.6617,127.7087 Q55.6617,124.5793 56.9815,122.9275 Q58.3014,121.2756 60.8082,121.2756 Q61.5138,121.2756 62.1612,121.425 Q62.8087,121.5745 63.3731,121.8733 L63.3731,124.5959 Q62.7423,124.0149 62.1488,123.7451 Q61.5553,123.4753 60.9244,123.4753 Q59.5797,123.4753 58.8949,124.542 Q58.2101,125.6086 58.2101,127.7087 Q58.2101,129.8005 58.8949,130.8672 Q59.5797,131.9338 60.9244,131.9338 Q61.5553,131.9338 62.1488,131.6641 Q62.7423,131.3943 63.3731,130.8132 Z "/><text fill="#000000" font-family="sans-serif" font-size="14" lengthAdjust="spacingAndGlyphs" textLength="45" x="161.1" y="126.7952">Utente</text><text fill="#000000" font-family="sans-serif" font-size="10" lengthAdjust="spacingAndGlyphs" textLength="207" x="80.1" y="139.4163">eapli.exemplo.utentemanagement.domain</text><line style="stroke: #A80036; stroke-width: 1.5;" x1="23.5" x2="312.5" y1="146.5256" y2="146.5256"/><rect fill="none" height="6" style="stroke: #C82930; stroke-width: 1.0;" width="6" x="30.5" y="154.5256"/><text fill="#000000" font-family="sans-serif" font-size="11" lengthAdjust="spacingAndGlyphs" text-decoration="underline" textLength="119" x="42.5" y="161.1604">serialVersionUID: long</text><rect fill="none" height="6" style="stroke: #C82930; stroke-width: 1.0;" width="6" x="30.5" y="167.4807"/><text fill="#000000" font-family="sans-serif" font-size="11" lengthAdjust="spacingAndGlyphs" textLength="73" x="42.5" y="174.1155">version: Long</text><rect fill="none" height="6" style="stroke: #C82930; stroke-width: 1.0;" width="6" x="30.5" y="180.4358"/><text fill="#000000" font-family="sans-serif" font-size="11" lengthAdjust="spacingAndGlyphs" textLength="257" x="42.5" y="187.0705">mecanographicNumber: MecanographicNumber</text><rect fill="none" height="6" style="stroke: #C82930; stroke-width: 1.0;" width="6" x="30.5" y="193.3909"/><text fill="#000000" font-family="sans-serif" font-size="11" lengthAdjust="spacingAndGlyphs" textLength="132" x="42.5" y="200.0256">systemUser: SystemUser</text><line style="stroke: #A80036; stroke-width: 1.5;" x1="23.5" x2="312.5" y1="206.3459" y2="206.3459"/><ellipse cx="33.5" cy="217.3459" fill="#84BE84" rx="3" ry="3" style="stroke: #038048; stroke-width: 1.0;"/><text fill="#000000" font-family="sans-serif" font-size="11" lengthAdjust="spacingAndGlyphs" textLength="237" x="42.5" y="220.9807">Utente(SystemUser, MecanographicNumber)</text><polygon fill="#FFFF44" points="33.5,225.301,37.5,229.301,33.5,233.301,29.5,229.301" style="stroke: #B38D22; stroke-width: 1.0;"/><text fill="#000000" font-family="sans-serif" font-size="11" lengthAdjust="spacingAndGlyphs" textLength="43" x="42.5" y="233.9358">Utente()</text><ellipse cx="33.5" cy="243.2561" fill="#84BE84" rx="3" ry="3" style="stroke: #038048; stroke-width: 1.0;"/><text fill="#000000" font-family="sans-serif" font-size="11" lengthAdjust="spacingAndGlyphs" textLength="101" x="42.5" y="246.8909">user(): SystemUser</text><ellipse cx="33.5" cy="256.2112" fill="#84BE84" rx="3" ry="3" style="stroke: #038048; stroke-width: 1.0;"/><text fill="#000000" font-family="sans-serif" font-size="11" lengthAdjust="spacingAndGlyphs" textLength="134" x="42.5" y="259.8459">sameAs(Object): boolean</text><ellipse cx="33.5" cy="269.1663" fill="#84BE84" rx="3" ry="3" style="stroke: #038048; stroke-width: 1.0;"/><text fill="#000000" font-family="sans-serif" font-size="11" lengthAdjust="spacingAndGlyphs" textLength="265" x="42.5" y="272.801">mecanographicNumber(): MecanographicNumber</text><ellipse cx="33.5" cy="282.1213" fill="#84BE84" rx="3" ry="3" style="stroke: #038048; stroke-width: 1.0;"/><text fill="#000000" font-family="sans-serif" font-size="11" lengthAdjust="spacingAndGlyphs" textLength="179" x="42.5" y="285.7561">identity(): MecanographicNumber</text></a><!--MD5=[aaa3afea0423f8bbe6dedd0d6399df18]
class eapli.framework.domain.model.AggregateRoot--><rect codeLine="18" fill="#FEFECE" filter="url(#f1woz561p3y1me)" height="38.2656" id="eapli.framework.domain.model.AggregateRoot" style="stroke: #A80036; stroke-width: 1.5;" width="322" x="7" y="10"/><ellipse cx="22" cy="29.1328" fill="#B4A7E5" rx="11" ry="11" style="stroke: #A80036; stroke-width: 1.0;"/><path d="M18.4277,25.3979 L18.4277,23.2397 L25.8071,23.2397 L25.8071,25.3979 L23.3418,25.3979 L23.3418,33.4746 L25.8071,33.4746 L25.8071,35.6328 L18.4277,35.6328 L18.4277,33.4746 L20.8931,33.4746 L20.8931,25.3979 Z "/><text fill="#000000" font-family="sans-serif" font-size="14" font-style="italic" lengthAdjust="spacingAndGlyphs" textLength="104" x="60" y="28.5352">AggregateRoot</text><text fill="#000000" font-family="sans-serif" font-size="10" font-style="italic" lengthAdjust="spacingAndGlyphs" textLength="152" x="36" y="41.1563">eapli.framework.domain.model</text><rect fill="#FFFFFF" height="16.1328" style="stroke: #000000; stroke-width: 1.0; stroke-dasharray: 2.0,2.0;" width="136" x="196" y="7"/><text fill="#000000" font-family="sans-serif" font-size="12" font-style="italic" lengthAdjust="spacingAndGlyphs" textLength="134" x="197" y="19.6016">MecanographicNumber</text><!--MD5=[61c1ef07cb82e827897658377c8c8ee7]
reverse link eapli.framework.domain.model.AggregateRoot to eapli.exemplo.utentemanagement.domain.Utente--><path codeLine="20" d="M168,69.71 C168,81.32 168,94.54 168,107.98 " fill="none" id="eapli.framework.domain.model.AggregateRoot-backto-eapli.exemplo.utentemanagement.domain.Utente" style="stroke: #A80036; stroke-width: 1.0; stroke-dasharray: 7.0,7.0;"/><polygon fill="none" points="161,70.06,168,50.06,175,70.06,161,70.06" style="stroke: #A80036; stroke-width: 1.0;"/><text fill="#888888" font-family="sans-serif" font-size="10" lengthAdjust="spacingAndGlyphs" textLength="188" x="71" y="314.7444">UMLDoclet 2.0.12, PlantUML 1.2020.16</text><!--MD5=[0b56e9093af7de39a3a21664511855f0]
@startuml
    set namespaceSeparator none
    hide empty fields
    hide empty methods

    class "<size:14>Utente\n<size:10>eapli.exemplo.utentemanagement.domain" as eapli.exemplo.utentemanagement.domain.Utente [[Utente.html]] {
        {static} -serialVersionUID: long
        -version: Long
        -mecanographicNumber: MecanographicNumber
        -systemUser: SystemUser
        +Utente(SystemUser, MecanographicNumber)
        #Utente()
        +user(): SystemUser
        +sameAs(Object): boolean
        +mecanographicNumber(): MecanographicNumber
        +identity(): MecanographicNumber
    }

    interface "<size:14>AggregateRoot\n<size:10>eapli.framework.domain.model" as eapli.framework.domain.model.AggregateRoot<MecanographicNumber>

    eapli.framework.domain.model.AggregateRoot <|.. eapli.exemplo.utentemanagement.domain.Utente

    center footer UMLDoclet 2.0.12, PlantUML 1.2020.16
@enduml

PlantUML version 1.2020.16(Sun Aug 23 21:20:43 WEST 2020)
(APACHE source distribution)
Java Runtime: OpenJDK Runtime Environment
JVM: OpenJDK 64-Bit Server VM
Default Encoding: UTF-8
Language: en
Country: US
--></g></svg>