<svg xmlns="http://www.w3.org/2000/svg" xmlns:xlink="http://www.w3.org/1999/xlink" contentStyleType="text/css" height="1064px" preserveAspectRatio="none" style="width:1644px;height:1064px;background:#FFFFFF;" version="1.1" viewBox="0 0 1644 1064" width="1644px" zoomAndPan="magnify"><title>US082 &#8212; Insert Weather Data in a Flight</title><defs/><g><text fill="#000000" font-family="Arial" font-size="14" font-weight="bold" lengthAdjust="spacing" textLength="266.0615" x="698.094" y="27.6738">US082 &#8212; Insert Weather Data in a Flight</text><rect fill="#FFFFFF" height="827.6719" style="stroke:#181818;stroke-width:1.0;" width="10" x="225.5947" y="142.2188"/><rect fill="#FFFFFF" height="131.4453" style="stroke:#181818;stroke-width:1.0;" width="10" x="600.9966" y="168.5078"/><rect fill="#FFFFFF" height="249.3125" style="stroke:#181818;stroke-width:1.0;" width="10" x="600.9966" y="378.8203"/><rect fill="#FFFFFF" height="236.6016" style="stroke:#181818;stroke-width:1.0;" width="10" x="600.9966" y="707"/><rect fill="#FFFFFF" height="26.2891" style="stroke:#181818;stroke-width:1.0;" width="10" x="939.2192" y="194.7969"/><rect fill="#FFFFFF" height="26.2891" style="stroke:#181818;stroke-width:1.0;" width="10" x="1096.4561" y="247.375"/><rect fill="#FFFFFF" height="26.2891" style="stroke:#181818;stroke-width:1.0;" width="10" x="1096.4561" y="785.8672"/><rect fill="#FFFFFF" height="26.2891" style="stroke:#181818;stroke-width:1.0;" width="10" x="1096.4561" y="891.0234"/><rect fill="#FFFFFF" height="26.2891" style="stroke:#181818;stroke-width:1.0;" width="10" x="1265.6086" y="444.3984"/><rect fill="#FFFFFF" height="26.2891" style="stroke:#181818;stroke-width:1.0;" width="10" x="1453.7158" y="536.2656"/><rect fill="#FFFFFF" height="26.2891" style="stroke:#181818;stroke-width:1.0;" width="10" x="1453.7158" y="733.2891"/><rect fill="#FFFFFF" height="26.2891" style="stroke:#181818;stroke-width:1.0;" width="10" x="1602.093" y="838.4453"/><line style="stroke:#181818;stroke-width:0.5;stroke-dasharray:5.0,5.0;" x1="18" x2="18" y1="113.9297" y2="987.8906"/><line style="stroke:#181818;stroke-width:0.5;stroke-dasharray:5.0,5.0;" x1="230.1267" x2="230.1267" y1="113.9297" y2="987.8906"/><line style="stroke:#181818;stroke-width:0.5;stroke-dasharray:5.0,5.0;" x1="605.1863" x2="605.1863" y1="113.9297" y2="987.8906"/><line style="stroke:#181818;stroke-width:0.5;stroke-dasharray:5.0,5.0;" x1="943.2485" x2="943.2485" y1="113.9297" y2="987.8906"/><line style="stroke:#181818;stroke-width:0.5;stroke-dasharray:5.0,5.0;" x1="1101.1899" x2="1101.1899" y1="113.9297" y2="987.8906"/><line style="stroke:#181818;stroke-width:0.5;stroke-dasharray:5.0,5.0;" x1="1269.7222" x2="1269.7222" y1="113.9297" y2="987.8906"/><line style="stroke:#181818;stroke-width:0.5;stroke-dasharray:5.0,5.0;" x1="1458.4951" x2="1458.4951" y1="113.9297" y2="987.8906"/><line style="stroke:#181818;stroke-width:0.5;stroke-dasharray:5.0,5.0;" x1="1606.9365" x2="1606.9365" y1="113.9297" y2="987.8906"/><text fill="#000000" font-family="Arial" font-size="11" lengthAdjust="spacing" textLength="21.3984" x="5" y="111.5986">Pilot</text><ellipse cx="18.6992" cy="50.1406" fill="#E2E2F0" rx="8" ry="8" style="stroke:#181818;stroke-width:0.5;"/><path d="M18.6992,58.1406 L18.6992,85.1406 M5.6992,66.1406 L31.6992,66.1406 M18.6992,85.1406 L5.6992,100.1406 M18.6992,85.1406 L31.6992,100.1406 " fill="none" style="stroke:#181818;stroke-width:0.5;"/><text fill="#000000" font-family="Arial" font-size="11" lengthAdjust="spacing" textLength="21.3984" x="5" y="996.8486">Pilot</text><ellipse cx="18.6992" cy="1007.6797" fill="#E2E2F0" rx="8" ry="8" style="stroke:#181818;stroke-width:0.5;"/><path d="M18.6992,1015.6797 L18.6992,1042.6797 M5.6992,1023.6797 L31.6992,1023.6797 M18.6992,1042.6797 L5.6992,1057.6797 M18.6992,1042.6797 L31.6992,1057.6797 " fill="none" style="stroke:#181818;stroke-width:0.5;"/><rect fill="#E2E2F0" height="38.5781" rx="2.5" ry="2.5" style="stroke:#181818;stroke-width:0.5;" width="128.936" x="166.1267" y="74.3516"/><text fill="#000000" font-family="Arial" font-size="11" font-style="italic" lengthAdjust="spacing" textLength="72.7783" x="194.2056" y="91.3096">&#171;presentation&#187;</text><text fill="#000000" font-family="Arial" font-size="11" lengthAdjust="spacing" textLength="114.936" x="173.1267" y="103.5986">:AddWeatherToFlightUI</text><rect fill="#E2E2F0" height="38.5781" rx="2.5" ry="2.5" style="stroke:#181818;stroke-width:0.5;" width="128.936" x="166.1267" y="986.8906"/><text fill="#000000" font-family="Arial" font-size="11" font-style="italic" lengthAdjust="spacing" textLength="72.7783" x="194.2056" y="1003.8486">&#171;presentation&#187;</text><text fill="#000000" font-family="Arial" font-size="11" lengthAdjust="spacing" textLength="114.936" x="173.1267" y="1016.1377">:AddWeatherToFlightUI</text><rect fill="#E2E2F0" height="38.5781" rx="2.5" ry="2.5" style="stroke:#181818;stroke-width:0.5;" width="165.6206" x="523.1863" y="74.3516"/><text fill="#000000" font-family="Arial" font-size="11" font-style="italic" lengthAdjust="spacing" textLength="64.8291" x="573.582" y="91.3096">&#171;application&#187;</text><text fill="#000000" font-family="Arial" font-size="11" lengthAdjust="spacing" textLength="151.6206" x="530.1863" y="103.5986">:AddWeatherToFlightController</text><rect fill="#E2E2F0" height="38.5781" rx="2.5" ry="2.5" style="stroke:#181818;stroke-width:0.5;" width="165.6206" x="523.1863" y="986.8906"/><text fill="#000000" font-family="Arial" font-size="11" font-style="italic" lengthAdjust="spacing" textLength="64.8291" x="573.582" y="1003.8486">&#171;application&#187;</text><text fill="#000000" font-family="Arial" font-size="11" lengthAdjust="spacing" textLength="151.6206" x="530.1863" y="1016.1377">:AddWeatherToFlightController</text><rect fill="#E2E2F0" height="38.5781" rx="2.5" ry="2.5" style="stroke:#181818;stroke-width:0.5;" width="117.9414" x="885.2485" y="74.3516"/><text fill="#000000" font-family="Arial" font-size="11" font-style="italic" lengthAdjust="spacing" textLength="63.5776" x="912.4304" y="91.3096">&#171;framework&#187;</text><text fill="#000000" font-family="Arial" font-size="11" lengthAdjust="spacing" textLength="103.9414" x="892.2485" y="103.5986">:AuthorizationService</text><rect fill="#E2E2F0" height="38.5781" rx="2.5" ry="2.5" style="stroke:#181818;stroke-width:0.5;" width="117.9414" x="885.2485" y="986.8906"/><text fill="#000000" font-family="Arial" font-size="11" font-style="italic" lengthAdjust="spacing" textLength="63.5776" x="912.4304" y="1003.8486">&#171;framework&#187;</text><text fill="#000000" font-family="Arial" font-size="11" lengthAdjust="spacing" textLength="103.9414" x="892.2485" y="1016.1377">:AuthorizationService</text><rect fill="#E2E2F0" height="38.5781" rx="2.5" ry="2.5" style="stroke:#181818;stroke-width:0.5;" width="96.5322" x="1053.1899" y="74.3516"/><text fill="#000000" font-family="Arial" font-size="11" font-style="italic" lengthAdjust="spacing" textLength="68.4868" x="1067.2126" y="91.3096">&#171;persistence&#187;</text><text fill="#000000" font-family="Arial" font-size="11" lengthAdjust="spacing" textLength="82.5322" x="1060.1899" y="103.5986">:FlightRepository</text><rect fill="#E2E2F0" height="38.5781" rx="2.5" ry="2.5" style="stroke:#181818;stroke-width:0.5;" width="96.5322" x="1053.1899" y="986.8906"/><text fill="#000000" font-family="Arial" font-size="11" font-style="italic" lengthAdjust="spacing" textLength="68.4868" x="1067.2126" y="1003.8486">&#171;persistence&#187;</text><text fill="#000000" font-family="Arial" font-size="11" lengthAdjust="spacing" textLength="82.5322" x="1060.1899" y="1016.1377">:FlightRepository</text><rect fill="#E2E2F0" height="38.5781" rx="2.5" ry="2.5" style="stroke:#181818;stroke-width:0.5;" width="141.7729" x="1199.7222" y="74.3516"/><text fill="#000000" font-family="Arial" font-size="11" font-style="italic" lengthAdjust="spacing" textLength="68.4868" x="1236.3652" y="91.3096">&#171;persistence&#187;</text><text fill="#000000" font-family="Arial" font-size="11" lengthAdjust="spacing" textLength="127.7729" x="1206.7222" y="103.5986">:AirControlAreaRepository</text><rect fill="#E2E2F0" height="38.5781" rx="2.5" ry="2.5" style="stroke:#181818;stroke-width:0.5;" width="141.7729" x="1199.7222" y="986.8906"/><text fill="#000000" font-family="Arial" font-size="11" font-style="italic" lengthAdjust="spacing" textLength="68.4868" x="1236.3652" y="1003.8486">&#171;persistence&#187;</text><text fill="#000000" font-family="Arial" font-size="11" lengthAdjust="spacing" textLength="127.7729" x="1206.7222" y="1016.1377">:AirControlAreaRepository</text><rect fill="#E2E2F0" height="38.5781" rx="2.5" ry="2.5" style="stroke:#181818;stroke-width:0.5;" width="134.4414" x="1391.4951" y="74.3516"/><text fill="#000000" font-family="Arial" font-size="11" font-style="italic" lengthAdjust="spacing" textLength="68.4868" x="1424.4724" y="91.3096">&#171;persistence&#187;</text><text fill="#000000" font-family="Arial" font-size="11" lengthAdjust="spacing" textLength="120.4414" x="1398.4951" y="103.5986">:WeatherDataRepository</text><rect fill="#E2E2F0" height="38.5781" rx="2.5" ry="2.5" style="stroke:#181818;stroke-width:0.5;" width="134.4414" x="1391.4951" y="986.8906"/><text fill="#000000" font-family="Arial" font-size="11" font-style="italic" lengthAdjust="spacing" textLength="68.4868" x="1424.4724" y="1003.8486">&#171;persistence&#187;</text><text fill="#000000" font-family="Arial" font-size="11" lengthAdjust="spacing" textLength="120.4414" x="1398.4951" y="1016.1377">:WeatherDataRepository</text><rect fill="#E2E2F0" height="38.5781" rx="2.5" ry="2.5" style="stroke:#181818;stroke-width:0.5;" width="62.313" x="1575.9365" y="74.3516"/><text fill="#000000" font-family="Arial" font-size="11" font-style="italic" lengthAdjust="spacing" textLength="48.313" x="1582.9365" y="91.3096">&#171;domain&#187;</text><text fill="#000000" font-family="Arial" font-size="11" lengthAdjust="spacing" textLength="29.9546" x="1592.1157" y="103.5986">:Flight</text><rect fill="#E2E2F0" height="38.5781" rx="2.5" ry="2.5" style="stroke:#181818;stroke-width:0.5;" width="62.313" x="1575.9365" y="986.8906"/><text fill="#000000" font-family="Arial" font-size="11" font-style="italic" lengthAdjust="spacing" textLength="48.313" x="1582.9365" y="1003.8486">&#171;domain&#187;</text><text fill="#000000" font-family="Arial" font-size="11" lengthAdjust="spacing" textLength="29.9546" x="1592.1157" y="1016.1377">:Flight</text><rect fill="#FFFFFF" height="827.6719" style="stroke:#181818;stroke-width:1.0;" width="10" x="225.5947" y="142.2188"/><rect fill="#FFFFFF" height="131.4453" style="stroke:#181818;stroke-width:1.0;" width="10" x="600.9966" y="168.5078"/><rect fill="#FFFFFF" height="249.3125" style="stroke:#181818;stroke-width:1.0;" width="10" x="600.9966" y="378.8203"/><rect fill="#FFFFFF" height="236.6016" style="stroke:#181818;stroke-width:1.0;" width="10" x="600.9966" y="707"/><rect fill="#FFFFFF" height="26.2891" style="stroke:#181818;stroke-width:1.0;" width="10" x="939.2192" y="194.7969"/><rect fill="#FFFFFF" height="26.2891" style="stroke:#181818;stroke-width:1.0;" width="10" x="1096.4561" y="247.375"/><rect fill="#FFFFFF" height="26.2891" style="stroke:#181818;stroke-width:1.0;" width="10" x="1096.4561" y="785.8672"/><rect fill="#FFFFFF" height="26.2891" style="stroke:#181818;stroke-width:1.0;" width="10" x="1096.4561" y="891.0234"/><rect fill="#FFFFFF" height="26.2891" style="stroke:#181818;stroke-width:1.0;" width="10" x="1265.6086" y="444.3984"/><rect fill="#FFFFFF" height="26.2891" style="stroke:#181818;stroke-width:1.0;" width="10" x="1453.7158" y="536.2656"/><rect fill="#FFFFFF" height="26.2891" style="stroke:#181818;stroke-width:1.0;" width="10" x="1453.7158" y="733.2891"/><rect fill="#FFFFFF" height="26.2891" style="stroke:#181818;stroke-width:1.0;" width="10" x="1602.093" y="838.4453"/><polygon fill="#181818" points="213.5947,138.2188,223.5947,142.2188,213.5947,146.2188,217.5947,142.2188" style="stroke:#181818;stroke-width:1.0;"/><line style="stroke:#181818;stroke-width:1.0;" x1="18.6992" x2="219.5947" y1="142.2188" y2="142.2188"/><text fill="#000000" font-family="Arial" font-size="11" font-weight="bold" lengthAdjust="spacing" textLength="6.1177" x="28.1992" y="137.8877">1</text><text fill="#000000" font-family="Arial" font-size="11" lengthAdjust="spacing" textLength="177.7778" x="38.3169" y="137.8877">selects "Add Weather Data to Flight"</text><polygon fill="#181818" points="588.9966,164.5078,598.9966,168.5078,588.9966,172.5078,592.9966,168.5078" style="stroke:#181818;stroke-width:1.0;"/><line style="stroke:#181818;stroke-width:1.0;" x1="235.5947" x2="594.9966" y1="168.5078" y2="168.5078"/><text fill="#000000" font-family="Arial" font-size="11" font-weight="bold" lengthAdjust="spacing" textLength="6.1177" x="345.0696" y="164.1768">2</text><text fill="#000000" font-family="Arial" font-size="11" lengthAdjust="spacing" textLength="136.3345" x="355.1873" y="164.1768">allFlights() : Iterable&lt;Flight&gt;</text><polygon fill="#181818" points="927.2192,190.7969,937.2192,194.7969,927.2192,198.7969,931.2192,194.7969" style="stroke:#181818;stroke-width:1.0;"/><line style="stroke:#181818;stroke-width:1.0;" x1="610.9966" x2="933.2192" y1="194.7969" y2="194.7969"/><text fill="#000000" font-family="Arial" font-size="11" font-weight="bold" lengthAdjust="spacing" textLength="6.1177" x="648.6892" y="190.4658">3</text><text fill="#000000" font-family="Arial" font-size="11" lengthAdjust="spacing" textLength="242.7197" x="658.8069" y="190.4658">ensureAuthenticatedUserHasAnyOf(PILOT) : void</text><polygon fill="#181818" points="621.9966,217.0859,611.9966,221.0859,621.9966,225.0859,617.9966,221.0859" style="stroke:#181818;stroke-width:1.0;"/><line style="stroke:#181818;stroke-width:1.0;stroke-dasharray:2.0,2.0;" x1="615.9966" x2="943.2192" y1="221.0859" y2="221.0859"/><text fill="#000000" font-family="Arial" font-size="11" font-weight="bold" lengthAdjust="spacing" textLength="6.1177" x="771.021" y="216.7549">4</text><text fill="#000000" font-family="Arial" font-size="11" lengthAdjust="spacing" textLength="3.0562" x="781.1387" y="216.7549">&#160;</text><polygon fill="#181818" points="1084.4561,243.375,1094.4561,247.375,1084.4561,251.375,1088.4561,247.375" style="stroke:#181818;stroke-width:1.0;"/><line style="stroke:#181818;stroke-width:1.0;" x1="610.9966" x2="1090.4561" y1="247.375" y2="247.375"/><text fill="#000000" font-family="Arial" font-size="11" font-weight="bold" lengthAdjust="spacing" textLength="6.1177" x="787.2222" y="243.0439">5</text><text fill="#000000" font-family="Arial" font-size="11" lengthAdjust="spacing" textLength="122.8906" x="797.3398" y="243.0439">findAll() : Iterable&lt;Flight&gt;</text><polygon fill="#181818" points="621.9966,269.6641,611.9966,273.6641,621.9966,277.6641,617.9966,273.6641" style="stroke:#181818;stroke-width:1.0;"/><line style="stroke:#181818;stroke-width:1.0;stroke-dasharray:2.0,2.0;" x1="615.9966" x2="1100.4561" y1="273.6641" y2="273.6641"/><text fill="#000000" font-family="Arial" font-size="11" font-weight="bold" lengthAdjust="spacing" textLength="6.1177" x="836.7998" y="269.333">6</text><text fill="#000000" font-family="Arial" font-size="11" lengthAdjust="spacing" textLength="28.7354" x="846.9175" y="269.333">flights</text><polygon fill="#181818" points="246.5947,295.9531,236.5947,299.9531,246.5947,303.9531,242.5947,299.9531" style="stroke:#181818;stroke-width:1.0;"/><line style="stroke:#181818;stroke-width:1.0;stroke-dasharray:2.0,2.0;" x1="240.5947" x2="604.9966" y1="299.9531" y2="299.9531"/><text fill="#000000" font-family="Arial" font-size="11" font-weight="bold" lengthAdjust="spacing" textLength="6.1177" x="294.9866" y="295.6221">7</text><text fill="#000000" font-family="Arial" font-size="11" lengthAdjust="spacing" textLength="241.5005" x="305.1042" y="295.6221">flights (client-side filtered by matching designator)</text><polygon fill="#181818" points="29.6992,322.2422,19.6992,326.2422,29.6992,330.2422,25.6992,326.2422" style="stroke:#181818;stroke-width:1.0;"/><line style="stroke:#181818;stroke-width:1.0;" x1="23.6992" x2="224.5947" y1="326.2422" y2="326.2422"/><text fill="#000000" font-family="Arial" font-size="11" font-weight="bold" lengthAdjust="spacing" textLength="6.1177" x="75.822" y="321.9111">8</text><text fill="#000000" font-family="Arial" font-size="11" lengthAdjust="spacing" textLength="82.5322" x="85.9397" y="321.9111">displays flight list</text><polygon fill="#181818" points="213.5947,348.5313,223.5947,352.5313,213.5947,356.5313,217.5947,352.5313" style="stroke:#181818;stroke-width:1.0;"/><line style="stroke:#181818;stroke-width:1.0;" x1="18.6992" x2="219.5947" y1="352.5313" y2="352.5313"/><text fill="#000000" font-family="Arial" font-size="11" font-weight="bold" lengthAdjust="spacing" textLength="6.1177" x="86.8247" y="348.2002">9</text><text fill="#000000" font-family="Arial" font-size="11" lengthAdjust="spacing" textLength="60.5269" x="96.9424" y="348.2002">selects flight</text><polygon fill="#181818" points="588.9966,374.8203,598.9966,378.8203,588.9966,382.8203,592.9966,378.8203" style="stroke:#181818;stroke-width:1.0;"/><line style="stroke:#181818;stroke-width:1.0;" x1="235.5947" x2="594.9966" y1="378.8203" y2="378.8203"/><text fill="#000000" font-family="Arial" font-size="11" font-weight="bold" lengthAdjust="spacing" textLength="12.2354" x="288.2112" y="374.4893">10</text><text fill="#000000" font-family="Arial" font-size="11" lengthAdjust="spacing" textLength="243.9336" x="304.4465" y="374.4893">weatherDataForFlight(Flight) : List&lt;WeatherData&gt;</text><line style="stroke:#181818;stroke-width:1.0;" x1="610.9966" x2="652.9966" y1="405.1094" y2="405.1094"/><line style="stroke:#181818;stroke-width:1.0;" x1="652.9966" x2="652.9966" y1="405.1094" y2="418.1094"/><line style="stroke:#181818;stroke-width:1.0;" x1="611.9966" x2="652.9966" y1="418.1094" y2="418.1094"/><polygon fill="#181818" points="621.9966,414.1094,611.9966,418.1094,621.9966,422.1094,617.9966,418.1094" style="stroke:#181818;stroke-width:1.0;"/><text fill="#000000" font-family="Arial" font-size="11" font-weight="bold" lengthAdjust="spacing" textLength="12.2354" x="617.9966" y="400.7783">11</text><text fill="#000000" font-family="Arial" font-size="11" lengthAdjust="spacing" textLength="198.0913" x="634.2319" y="400.7783">computeMidpoint(Flight) : RouteMidpoint</text><polygon fill="#181818" points="1253.6086,440.3984,1263.6086,444.3984,1253.6086,448.3984,1257.6086,444.3984" style="stroke:#181818;stroke-width:1.0;"/><line style="stroke:#181818;stroke-width:1.0;" x1="610.9966" x2="1259.6086" y1="444.3984" y2="444.3984"/><text fill="#000000" font-family="Arial" font-size="11" font-weight="bold" lengthAdjust="spacing" textLength="12.2354" x="846.1193" y="440.0674">12</text><text fill="#000000" font-family="Arial" font-size="11" lengthAdjust="spacing" textLength="168.1313" x="862.3546" y="440.0674">findAll() : Iterable&lt;AirControlArea&gt;</text><polygon fill="#181818" points="621.9966,466.6875,611.9966,470.6875,621.9966,474.6875,617.9966,470.6875" style="stroke:#181818;stroke-width:1.0;"/><line style="stroke:#181818;stroke-width:1.0;stroke-dasharray:2.0,2.0;" x1="615.9966" x2="1269.6086" y1="470.6875" y2="470.6875"/><text fill="#000000" font-family="Arial" font-size="11" font-weight="bold" lengthAdjust="spacing" textLength="12.2354" x="911.5953" y="466.3564">13</text><text fill="#000000" font-family="Arial" font-size="11" lengthAdjust="spacing" textLength="42.1792" x="927.8307" y="466.3564">all ACAs</text><line style="stroke:#181818;stroke-width:1.0;" x1="610.9966" x2="652.9966" y1="496.9766" y2="496.9766"/><line style="stroke:#181818;stroke-width:1.0;" x1="652.9966" x2="652.9966" y1="496.9766" y2="509.9766"/><line style="stroke:#181818;stroke-width:1.0;" x1="611.9966" x2="652.9966" y1="509.9766" y2="509.9766"/><polygon fill="#181818" points="621.9966,505.9766,611.9966,509.9766,621.9966,513.9766,617.9966,509.9766" style="stroke:#181818;stroke-width:1.0;"/><text fill="#000000" font-family="Arial" font-size="11" font-weight="bold" lengthAdjust="spacing" textLength="12.2354" x="617.9966" y="492.6455">14</text><text fill="#000000" font-family="Arial" font-size="11" lengthAdjust="spacing" textLength="287.9873" x="634.2319" y="492.6455">findAcaForMidpoint(double lat, double lon) : AirControlArea</text><polygon fill="#181818" points="1441.7158,532.2656,1451.7158,536.2656,1441.7158,540.2656,1445.7158,536.2656" style="stroke:#181818;stroke-width:1.0;"/><line style="stroke:#181818;stroke-width:1.0;" x1="610.9966" x2="1447.7158" y1="536.2656" y2="536.2656"/><text fill="#000000" font-family="Arial" font-size="11" font-weight="bold" lengthAdjust="spacing" textLength="12.2354" x="943.8386" y="531.9346">15</text><text fill="#000000" font-family="Arial" font-size="11" lengthAdjust="spacing" textLength="160.7998" x="960.074" y="531.9346">findAll() : Iterable&lt;WeatherData&gt;</text><polygon fill="#181818" points="621.9966,558.5547,611.9966,562.5547,621.9966,566.5547,617.9966,562.5547" style="stroke:#181818;stroke-width:1.0;"/><line style="stroke:#181818;stroke-width:1.0;stroke-dasharray:2.0,2.0;" x1="615.9966" x2="1457.7158" y1="562.5547" y2="562.5547"/><text fill="#000000" font-family="Arial" font-size="11" font-weight="bold" lengthAdjust="spacing" textLength="12.2354" x="987.9082" y="558.2236">16</text><text fill="#000000" font-family="Arial" font-size="11" lengthAdjust="spacing" textLength="77.6606" x="1004.1436" y="558.2236">all weather data</text><line style="stroke:#181818;stroke-width:1.0;" x1="610.9966" x2="652.9966" y1="588.8438" y2="588.8438"/><line style="stroke:#181818;stroke-width:1.0;" x1="652.9966" x2="652.9966" y1="588.8438" y2="601.8438"/><line style="stroke:#181818;stroke-width:1.0;" x1="611.9966" x2="652.9966" y1="601.8438" y2="601.8438"/><polygon fill="#181818" points="621.9966,597.8438,611.9966,601.8438,621.9966,605.8438,617.9966,601.8438" style="stroke:#181818;stroke-width:1.0;"/><text fill="#000000" font-family="Arial" font-size="11" font-weight="bold" lengthAdjust="spacing" textLength="12.2354" x="617.9966" y="584.5127">17</text><text fill="#000000" font-family="Arial" font-size="11" lengthAdjust="spacing" textLength="205.439" x="634.2319" y="584.5127">filters weather data by matched ACA code</text><polygon fill="#181818" points="246.5947,624.1328,236.5947,628.1328,246.5947,632.1328,242.5947,628.1328" style="stroke:#181818;stroke-width:1.0;"/><line style="stroke:#181818;stroke-width:1.0;stroke-dasharray:2.0,2.0;" x1="240.5947" x2="604.9966" y1="628.1328" y2="628.1328"/><text fill="#000000" font-family="Arial" font-size="11" font-weight="bold" lengthAdjust="spacing" textLength="12.2354" x="349.7126" y="623.8018">18</text><text fill="#000000" font-family="Arial" font-size="11" lengthAdjust="spacing" textLength="125.9307" x="365.948" y="623.8018">weatherList (ACA-filtered)</text><polygon fill="#181818" points="29.6992,650.4219,19.6992,654.4219,29.6992,658.4219,25.6992,654.4219" style="stroke:#181818;stroke-width:1.0;"/><line style="stroke:#181818;stroke-width:1.0;" x1="23.6992" x2="224.5947" y1="654.4219" y2="654.4219"/><text fill="#000000" font-family="Arial" font-size="11" font-weight="bold" lengthAdjust="spacing" textLength="12.2354" x="52.5813" y="650.0908">19</text><text fill="#000000" font-family="Arial" font-size="11" lengthAdjust="spacing" textLength="122.896" x="68.8167" y="650.0908">displays weather data list</text><polygon fill="#181818" points="213.5947,676.7109,223.5947,680.7109,213.5947,684.7109,217.5947,680.7109" style="stroke:#181818;stroke-width:1.0;"/><line style="stroke:#181818;stroke-width:1.0;" x1="18.6992" x2="219.5947" y1="680.7109" y2="680.7109"/><text fill="#000000" font-family="Arial" font-size="11" font-weight="bold" lengthAdjust="spacing" textLength="12.2354" x="63.584" y="676.3799">20</text><text fill="#000000" font-family="Arial" font-size="11" lengthAdjust="spacing" textLength="100.8906" x="79.8193" y="676.3799">selects weather data</text><polygon fill="#181818" points="588.9966,703,598.9966,707,588.9966,711,592.9966,707" style="stroke:#181818;stroke-width:1.0;"/><line style="stroke:#181818;stroke-width:1.0;" x1="235.5947" x2="594.9966" y1="707" y2="707"/><text fill="#000000" font-family="Arial" font-size="11" font-weight="bold" lengthAdjust="spacing" textLength="12.2354" x="245.0947" y="702.6689">21</text><text fill="#000000" font-family="Arial" font-size="11" lengthAdjust="spacing" textLength="330.1665" x="261.3301" y="702.6689">assignWeather(String flightDesignator, Long weatherDataId) : Flight</text><polygon fill="#181818" points="1441.7158,729.2891,1451.7158,733.2891,1441.7158,737.2891,1445.7158,733.2891" style="stroke:#181818;stroke-width:1.0;"/><line style="stroke:#181818;stroke-width:1.0;" x1="610.9966" x2="1447.7158" y1="733.2891" y2="733.2891"/><text fill="#000000" font-family="Arial" font-size="11" font-weight="bold" lengthAdjust="spacing" textLength="12.2354" x="884.8237" y="728.958">22</text><text fill="#000000" font-family="Arial" font-size="11" lengthAdjust="spacing" textLength="278.8296" x="901.0591" y="728.958">ofIdentity(Long weatherDataId) : Optional&lt;WeatherData&gt;</text><polygon fill="#181818" points="621.9966,755.5781,611.9966,759.5781,621.9966,763.5781,617.9966,759.5781" style="stroke:#181818;stroke-width:1.0;"/><line style="stroke:#181818;stroke-width:1.0;stroke-dasharray:2.0,2.0;" x1="615.9966" x2="1457.7158" y1="759.5781" y2="759.5781"/><text fill="#000000" font-family="Arial" font-size="11" font-weight="bold" lengthAdjust="spacing" textLength="12.2354" x="967.7451" y="755.2471">23</text><text fill="#000000" font-family="Arial" font-size="11" lengthAdjust="spacing" textLength="117.9868" x="983.9805" y="755.2471">weatherData (or throws)</text><polygon fill="#181818" points="1084.4561,781.8672,1094.4561,785.8672,1084.4561,789.8672,1088.4561,785.8672" style="stroke:#181818;stroke-width:1.0;"/><line style="stroke:#181818;stroke-width:1.0;" x1="610.9966" x2="1090.4561" y1="785.8672" y2="785.8672"/><text fill="#000000" font-family="Arial" font-size="11" font-weight="bold" lengthAdjust="spacing" textLength="12.2354" x="734.6365" y="781.5361">24</text><text fill="#000000" font-family="Arial" font-size="11" lengthAdjust="spacing" textLength="221.9443" x="750.8718" y="781.5361">ofIdentity(FlightDesignator) : Optional&lt;Flight&gt;</text><polygon fill="#181818" points="621.9966,808.1563,611.9966,812.1563,621.9966,816.1563,617.9966,812.1563" style="stroke:#181818;stroke-width:1.0;"/><line style="stroke:#181818;stroke-width:1.0;stroke-dasharray:2.0,2.0;" x1="615.9966" x2="1100.4561" y1="812.1563" y2="812.1563"/><text fill="#000000" font-family="Arial" font-size="11" font-weight="bold" lengthAdjust="spacing" textLength="12.2354" x="836.491" y="807.8252">25</text><text fill="#000000" font-family="Arial" font-size="11" lengthAdjust="spacing" textLength="23.2354" x="852.7263" y="807.8252">flight</text><polygon fill="#181818" points="1590.093,834.4453,1600.093,838.4453,1590.093,842.4453,1594.093,838.4453" style="stroke:#181818;stroke-width:1.0;"/><line style="stroke:#181818;stroke-width:1.0;" x1="610.9966" x2="1596.093" y1="838.4453" y2="838.4453"/><text fill="#000000" font-family="Arial" font-size="11" font-weight="bold" lengthAdjust="spacing" textLength="12.2354" x="982.2531" y="834.1143">26</text><text fill="#000000" font-family="Arial" font-size="11" lengthAdjust="spacing" textLength="232.3481" x="998.4884" y="834.1143">assignWeatherData(Long weatherDataId) : void</text><polygon fill="#181818" points="621.9966,860.7344,611.9966,864.7344,621.9966,868.7344,617.9966,864.7344" style="stroke:#181818;stroke-width:1.0;"/><line style="stroke:#181818;stroke-width:1.0;stroke-dasharray:2.0,2.0;" x1="615.9966" x2="1606.093" y1="864.7344" y2="864.7344"/><text fill="#000000" font-family="Arial" font-size="11" font-weight="bold" lengthAdjust="spacing" textLength="12.2354" x="1099.399" y="860.4033">27</text><text fill="#000000" font-family="Arial" font-size="11" lengthAdjust="spacing" textLength="3.0562" x="1115.6344" y="860.4033">&#160;</text><polygon fill="#181818" points="1084.4561,887.0234,1094.4561,891.0234,1084.4561,895.0234,1088.4561,891.0234" style="stroke:#181818;stroke-width:1.0;"/><line style="stroke:#181818;stroke-width:1.0;" x1="610.9966" x2="1090.4561" y1="891.0234" y2="891.0234"/><text fill="#000000" font-family="Arial" font-size="11" font-weight="bold" lengthAdjust="spacing" textLength="12.2354" x="798.8452" y="886.6924">28</text><text fill="#000000" font-family="Arial" font-size="11" lengthAdjust="spacing" textLength="93.5269" x="815.0806" y="886.6924">save(Flight) : Flight</text><polygon fill="#181818" points="621.9966,913.3125,611.9966,917.3125,621.9966,921.3125,617.9966,917.3125" style="stroke:#181818;stroke-width:1.0;"/><line style="stroke:#181818;stroke-width:1.0;stroke-dasharray:2.0,2.0;" x1="615.9966" x2="1100.4561" y1="917.3125" y2="917.3125"/><text fill="#000000" font-family="Arial" font-size="11" font-weight="bold" lengthAdjust="spacing" textLength="12.2354" x="820.2864" y="912.9814">29</text><text fill="#000000" font-family="Arial" font-size="11" lengthAdjust="spacing" textLength="55.6445" x="836.5217" y="912.9814">saved flight</text><polygon fill="#181818" points="246.5947,939.6016,236.5947,943.6016,246.5947,947.6016,242.5947,943.6016" style="stroke:#181818;stroke-width:1.0;"/><line style="stroke:#181818;stroke-width:1.0;stroke-dasharray:2.0,2.0;" x1="240.5947" x2="604.9966" y1="943.6016" y2="943.6016"/><text fill="#000000" font-family="Arial" font-size="11" font-weight="bold" lengthAdjust="spacing" textLength="12.2354" x="379.6511" y="939.2705">30</text><text fill="#000000" font-family="Arial" font-size="11" lengthAdjust="spacing" textLength="66.0537" x="395.8865" y="939.2705">updated flight</text><polygon fill="#181818" points="29.6992,965.8906,19.6992,969.8906,29.6992,973.8906,25.6992,969.8906" style="stroke:#181818;stroke-width:1.0;"/><line style="stroke:#181818;stroke-width:1.0;stroke-dasharray:2.0,2.0;" x1="23.6992" x2="229.5947" y1="969.8906" y2="969.8906"/><text fill="#000000" font-family="Arial" font-size="11" font-weight="bold" lengthAdjust="spacing" textLength="12.2354" x="65.1736" y="965.5596">31</text><text fill="#000000" font-family="Arial" font-size="11" lengthAdjust="spacing" textLength="102.7114" x="81.4089" y="965.5596">displays confirmation</text><!--SRC=[dLR1Rk8m4BtdAqQSKgb8RKyhX91GAxH8xHQLhVRinaEnQkoixO3eQJzYlt2_PCU9IPmGIdUvG1s_D_FcFJjrmac4v-NLbnluy-itp9L5u-07ChT60tVCCH0A6CoaU5sx9B5lGkNCi0rO_5cWol01hMMlEAKD2Z9K3asqY-EA5TBDj7BVs0PXQWIJ_S-NuXtX-Zfwk636YKpaJBa5uroeLxYvIX9MEAsApGiLIbZcj871GaZj1i0ib0j9tY1XC9fo7XHzrvMGv_a0meSmXQX-ZiUvGKiIc1DQJIPdQMwfRQEbH5FMpfoH9GtBSoco4oo5MsiZtikdIpHRaM7S3AbRlvSiAve1xhHvE-AegZzXhgqWkViQ7pXMzNEl2OqLrdclZfiH9cYO6cGTmdAQx1CiOIe-BSSz4SkEboHdM2fHBIazeZmBrnic_6I3_SE9jt14aPIOEGi3SggTOQT3WWSU8hRC8K6IX604BdqR0PEoscJJ2_fpJabcBnB7rUAaGVhzILAY25qPDW9KjZ3exQK4UVUHFzDf-ihiLEqVL-bYVl_utHDljU0DMGbFAf9XQ2RXs7bULuki7S5AA3wLyaox3II9qCD6UBLguweH9fG-33biXZIJWeGEhU2qNKWgZnnUzh1XBblxiyhHqft0oA6BcBgQNZNvohyHS65poVQroP92SiBSLRY9MjRjcWJEjAaca5PVVZRtH3UEKdhIoq2NwKrUE7mGFDT2nKnFEbfl8X2EoGb7sgSiAXvmoG4_R8KHfhVJbYc7xTrsowAPLrvtp7L1bK4oTmc7trhvhjhDD5pXa9wGq3-y2fC4QAVxu0bmmiGg0kXOX8-GRS7gE56oQ1Za2yTE7CDsxp2aj6TuYEBdCzUg-47oMe8wLuVrKGz3IfVE-FnNIRshJy4bt6jQZh8wvtx8uTrw8fArBterv_vcSVkqd-SnzwyK9l_Lh8W8KjBjraRlxCL7dhLkeQYnMKTogwt_lPW-lfSEpNHTy79E3Afz0OSYWQNl2ZvSERtgBTjYT45qpJohqUFvfvGUybZatBzSUZ1DpFjodccr4cPJ_kCHe-X5-1S0]--></g></svg>