<svg xmlns="http://www.w3.org/2000/svg" xmlns:xlink="http://www.w3.org/1999/xlink" contentStyleType="text/css" height="944px" preserveAspectRatio="none" style="width:1482px;height:944px;background:#FFFFFF;" version="1.1" viewBox="0 0 1482 944" width="1482px" zoomAndPan="magnify"><title>US082 &#8212; Insert Weather Data in a Flight</title><defs/><g><text fill="#000000" font-family="Arial" font-size="14" font-weight="bold" lengthAdjust="spacing" textLength="266.0615" x="604.1709" y="27.6738">US082 &#8212; Insert Weather Data in a Flight</text><rect fill="#FFFFFF" height="704.5625" style="stroke:#181818;stroke-width:1.0;" width="10" x="243.2852" y="144.4531"/><rect fill="#FFFFFF" height="137.0313" style="stroke:#181818;stroke-width:1.0;" width="10" x="508.416" y="171.8594"/><rect fill="#FFFFFF" height="82.2188" style="stroke:#181818;stroke-width:1.0;" width="10" x="508.416" y="391.1094"/><rect fill="#FFFFFF" height="266.0625" style="stroke:#181818;stroke-width:1.0;" width="10" x="508.416" y="555.5469"/><rect fill="#FFFFFF" height="27.4063" style="stroke:#181818;stroke-width:1.0;" width="10" x="780.8594" y="199.2656"/><rect fill="#FFFFFF" height="27.4063" style="stroke:#181818;stroke-width:1.0;" width="10" x="946.5723" y="254.0781"/><rect fill="#FFFFFF" height="27.4063" style="stroke:#181818;stroke-width:1.0;" width="10" x="946.5723" y="582.9531"/><rect fill="#FFFFFF" height="27.4063" style="stroke:#181818;stroke-width:1.0;" width="10" x="946.5723" y="766.7969"/><rect fill="#FFFFFF" height="27.4063" style="stroke:#181818;stroke-width:1.0;" width="10" x="1121.2852" y="418.5156"/><rect fill="#FFFFFF" height="27.4063" style="stroke:#181818;stroke-width:1.0;" width="10" x="1121.2852" y="637.7656"/><rect fill="#FFFFFF" height="37.1094" style="stroke:#181818;stroke-width:1.0;" width="10" x="1277.333" y="702.2813"/><line style="stroke:#181818;stroke-width:0.5;stroke-dasharray:5.0,5.0;" x1="19" x2="19" y1="115.0469" y2="867.0156"/><line style="stroke:#181818;stroke-width:0.5;stroke-dasharray:5.0,5.0;" x1="247.9189" x2="247.9189" y1="115.0469" y2="867.0156"/><line style="stroke:#181818;stroke-width:0.5;stroke-dasharray:5.0,5.0;" x1="513.04" x2="513.04" y1="115.0469" y2="867.0156"/><line style="stroke:#181818;stroke-width:0.5;stroke-dasharray:5.0,5.0;" x1="785.1641" x2="785.1641" y1="115.0469" y2="867.0156"/><line style="stroke:#181818;stroke-width:0.5;stroke-dasharray:5.0,5.0;" x1="951.5547" x2="951.5547" y1="115.0469" y2="867.0156"/><line style="stroke:#181818;stroke-width:0.5;stroke-dasharray:5.0,5.0;" x1="1125.5898" x2="1125.5898" y1="115.0469" y2="867.0156"/><line style="stroke:#181818;stroke-width:0.5;stroke-dasharray:5.0,5.0;" x1="1281.9805" x2="1281.9805" y1="115.0469" y2="867.0156"/><text fill="#000000" font-family="Arial" font-size="12" lengthAdjust="spacing" textLength="23.3438" x="5" y="112.5039">Pilot</text><ellipse cx="19.6719" cy="50.1406" fill="#E2E2F0" rx="8" ry="8" style="stroke:#181818;stroke-width:0.5;"/><path d="M19.6719,58.1406 L19.6719,85.1406 M6.6719,66.1406 L32.6719,66.1406 M19.6719,85.1406 L6.6719,100.1406 M19.6719,85.1406 L32.6719,100.1406 " fill="none" style="stroke:#181818;stroke-width:0.5;"/><text fill="#000000" font-family="Arial" font-size="12" lengthAdjust="spacing" textLength="23.3438" x="5" y="876.8789">Pilot</text><ellipse cx="19.6719" cy="887.9219" fill="#E2E2F0" rx="8" ry="8" style="stroke:#181818;stroke-width:0.5;"/><path d="M19.6719,895.9219 L19.6719,922.9219 M6.6719,903.9219 L32.6719,903.9219 M19.6719,922.9219 L6.6719,937.9219 M19.6719,922.9219 L32.6719,937.9219 " fill="none" style="stroke:#181818;stroke-width:0.5;"/><rect fill="#E2E2F0" height="40.8125" rx="2.5" ry="2.5" style="stroke:#181818;stroke-width:0.5;" width="164.7324" x="165.9189" y="73.2344"/><text fill="#000000" font-family="Arial" font-size="12" font-style="italic" lengthAdjust="spacing" textLength="79.3945" x="208.5879" y="91.0977">&#171;presentation&#187;</text><text fill="#000000" font-family="Arial" font-size="12" lengthAdjust="spacing" textLength="150.7324" x="172.9189" y="104.5039">:AddWeatherDataToFlightUI</text><rect fill="#E2E2F0" height="40.8125" rx="2.5" ry="2.5" style="stroke:#181818;stroke-width:0.5;" width="164.7324" x="165.9189" y="866.0156"/><text fill="#000000" font-family="Arial" font-size="12" font-style="italic" lengthAdjust="spacing" textLength="79.3945" x="208.5879" y="883.8789">&#171;presentation&#187;</text><text fill="#000000" font-family="Arial" font-size="12" lengthAdjust="spacing" textLength="150.7324" x="172.9189" y="897.2852">:AddWeatherDataToFlightUI</text><rect fill="#E2E2F0" height="40.8125" rx="2.5" ry="2.5" style="stroke:#181818;stroke-width:0.5;" width="204.752" x="411.04" y="73.2344"/><text fill="#000000" font-family="Arial" font-size="12" font-style="italic" lengthAdjust="spacing" textLength="70.7227" x="478.0547" y="91.0977">&#171;application&#187;</text><text fill="#000000" font-family="Arial" font-size="12" lengthAdjust="spacing" textLength="190.752" x="418.04" y="104.5039">:AddWeatherDataToFlightController</text><rect fill="#E2E2F0" height="40.8125" rx="2.5" ry="2.5" style="stroke:#181818;stroke-width:0.5;" width="204.752" x="411.04" y="866.0156"/><text fill="#000000" font-family="Arial" font-size="12" font-style="italic" lengthAdjust="spacing" textLength="70.7227" x="478.0547" y="883.8789">&#171;application&#187;</text><text fill="#000000" font-family="Arial" font-size="12" lengthAdjust="spacing" textLength="190.752" x="418.04" y="897.2852">:AddWeatherDataToFlightController</text><rect fill="#E2E2F0" height="40.8125" rx="2.5" ry="2.5" style="stroke:#181818;stroke-width:0.5;" width="127.3906" x="722.1641" y="73.2344"/><text fill="#000000" font-family="Arial" font-size="12" font-style="italic" lengthAdjust="spacing" textLength="69.3574" x="751.1807" y="91.0977">&#171;framework&#187;</text><text fill="#000000" font-family="Arial" font-size="12" lengthAdjust="spacing" textLength="113.3906" x="729.1641" y="104.5039">:AuthorizationService</text><rect fill="#E2E2F0" height="40.8125" rx="2.5" ry="2.5" style="stroke:#181818;stroke-width:0.5;" width="127.3906" x="722.1641" y="866.0156"/><text fill="#000000" font-family="Arial" font-size="12" font-style="italic" lengthAdjust="spacing" textLength="69.3574" x="751.1807" y="883.8789">&#171;framework&#187;</text><text fill="#000000" font-family="Arial" font-size="12" lengthAdjust="spacing" textLength="113.3906" x="729.1641" y="897.2852">:AuthorizationService</text><rect fill="#E2E2F0" height="40.8125" rx="2.5" ry="2.5" style="stroke:#181818;stroke-width:0.5;" width="104.0352" x="899.5547" y="73.2344"/><text fill="#000000" font-family="Arial" font-size="12" font-style="italic" lengthAdjust="spacing" textLength="74.7129" x="914.2158" y="91.0977">&#171;persistence&#187;</text><text fill="#000000" font-family="Arial" font-size="12" lengthAdjust="spacing" textLength="90.0352" x="906.5547" y="104.5039">:FlightRepository</text><rect fill="#E2E2F0" height="40.8125" rx="2.5" ry="2.5" style="stroke:#181818;stroke-width:0.5;" width="104.0352" x="899.5547" y="866.0156"/><text fill="#000000" font-family="Arial" font-size="12" font-style="italic" lengthAdjust="spacing" textLength="74.7129" x="914.2158" y="883.8789">&#171;persistence&#187;</text><text fill="#000000" font-family="Arial" font-size="12" lengthAdjust="spacing" textLength="90.0352" x="906.5547" y="897.2852">:FlightRepository</text><rect fill="#E2E2F0" height="40.8125" rx="2.5" ry="2.5" style="stroke:#181818;stroke-width:0.5;" width="145.3906" x="1053.5898" y="73.2344"/><text fill="#000000" font-family="Arial" font-size="12" font-style="italic" lengthAdjust="spacing" textLength="74.7129" x="1088.9287" y="91.0977">&#171;persistence&#187;</text><text fill="#000000" font-family="Arial" font-size="12" lengthAdjust="spacing" textLength="131.3906" x="1060.5898" y="104.5039">:WeatherDataRepository</text><rect fill="#E2E2F0" height="40.8125" rx="2.5" ry="2.5" style="stroke:#181818;stroke-width:0.5;" width="145.3906" x="1053.5898" y="866.0156"/><text fill="#000000" font-family="Arial" font-size="12" font-style="italic" lengthAdjust="spacing" textLength="74.7129" x="1088.9287" y="883.8789">&#171;persistence&#187;</text><text fill="#000000" font-family="Arial" font-size="12" lengthAdjust="spacing" textLength="131.3906" x="1060.5898" y="897.2852">:WeatherDataRepository</text><rect fill="#E2E2F0" height="40.8125" rx="2.5" ry="2.5" style="stroke:#181818;stroke-width:0.5;" width="66.7051" x="1248.9805" y="73.2344"/><text fill="#000000" font-family="Arial" font-size="12" font-style="italic" lengthAdjust="spacing" textLength="52.7051" x="1255.9805" y="91.0977">&#171;domain&#187;</text><text fill="#000000" font-family="Arial" font-size="12" lengthAdjust="spacing" textLength="32.6777" x="1265.9941" y="104.5039">:Flight</text><rect fill="#E2E2F0" height="40.8125" rx="2.5" ry="2.5" style="stroke:#181818;stroke-width:0.5;" width="66.7051" x="1248.9805" y="866.0156"/><text fill="#000000" font-family="Arial" font-size="12" font-style="italic" lengthAdjust="spacing" textLength="52.7051" x="1255.9805" y="883.8789">&#171;domain&#187;</text><text fill="#000000" font-family="Arial" font-size="12" lengthAdjust="spacing" textLength="32.6777" x="1265.9941" y="897.2852">:Flight</text><rect fill="#FFFFFF" height="704.5625" style="stroke:#181818;stroke-width:1.0;" width="10" x="243.2852" y="144.4531"/><rect fill="#FFFFFF" height="137.0313" style="stroke:#181818;stroke-width:1.0;" width="10" x="508.416" y="171.8594"/><rect fill="#FFFFFF" height="82.2188" style="stroke:#181818;stroke-width:1.0;" width="10" x="508.416" y="391.1094"/><rect fill="#FFFFFF" height="266.0625" style="stroke:#181818;stroke-width:1.0;" width="10" x="508.416" y="555.5469"/><rect fill="#FFFFFF" height="27.4063" style="stroke:#181818;stroke-width:1.0;" width="10" x="780.8594" y="199.2656"/><rect fill="#FFFFFF" height="27.4063" style="stroke:#181818;stroke-width:1.0;" width="10" x="946.5723" y="254.0781"/><rect fill="#FFFFFF" height="27.4063" style="stroke:#181818;stroke-width:1.0;" width="10" x="946.5723" y="582.9531"/><rect fill="#FFFFFF" height="27.4063" style="stroke:#181818;stroke-width:1.0;" width="10" x="946.5723" y="766.7969"/><rect fill="#FFFFFF" height="27.4063" style="stroke:#181818;stroke-width:1.0;" width="10" x="1121.2852" y="418.5156"/><rect fill="#FFFFFF" height="27.4063" style="stroke:#181818;stroke-width:1.0;" width="10" x="1121.2852" y="637.7656"/><rect fill="#FFFFFF" height="37.1094" style="stroke:#181818;stroke-width:1.0;" width="10" x="1277.333" y="702.2813"/><polygon fill="#181818" points="231.2852,140.4531,241.2852,144.4531,231.2852,148.4531,235.2852,144.4531" style="stroke:#181818;stroke-width:1.0;"/><line style="stroke:#181818;stroke-width:1.0;" x1="19.6719" x2="237.2852" y1="144.4531" y2="144.4531"/><text fill="#000000" font-family="Arial" font-size="12" font-weight="bold" lengthAdjust="spacing" textLength="6.6738" x="29.1719" y="139.9102">1</text><text fill="#000000" font-family="Arial" font-size="12" lengthAdjust="spacing" textLength="193.9395" x="39.8457" y="139.9102">selects "Add Weather Data to Flight"</text><polygon fill="#181818" points="496.416,167.8594,506.416,171.8594,496.416,175.8594,500.416,171.8594" style="stroke:#181818;stroke-width:1.0;"/><line style="stroke:#181818;stroke-width:1.0;" x1="253.2852" x2="502.416" y1="171.8594" y2="171.8594"/><text fill="#000000" font-family="Arial" font-size="12" font-weight="bold" lengthAdjust="spacing" textLength="6.6738" x="345.8477" y="167.3164">2</text><text fill="#000000" font-family="Arial" font-size="12" lengthAdjust="spacing" textLength="59.332" x="356.5215" y="167.3164">myFlights()</text><polygon fill="#181818" points="768.8594,195.2656,778.8594,199.2656,768.8594,203.2656,772.8594,199.2656" style="stroke:#181818;stroke-width:1.0;"/><line style="stroke:#181818;stroke-width:1.0;" x1="518.416" x2="774.8594" y1="199.2656" y2="199.2656"/><text fill="#000000" font-family="Arial" font-size="12" font-weight="bold" lengthAdjust="spacing" textLength="6.6738" x="527.916" y="194.7227">3</text><text fill="#000000" font-family="Arial" font-size="12" lengthAdjust="spacing" textLength="232.7695" x="538.5898" y="194.7227">ensureAuthenticatedUserHasAnyOf(PILOT)</text><polygon fill="#181818" points="529.416,222.6719,519.416,226.6719,529.416,230.6719,525.416,226.6719" style="stroke:#181818;stroke-width:1.0;"/><line style="stroke:#181818;stroke-width:1.0;stroke-dasharray:2.0,2.0;" x1="523.416" x2="784.8594" y1="226.6719" y2="226.6719"/><text fill="#000000" font-family="Arial" font-size="12" font-weight="bold" lengthAdjust="spacing" textLength="6.6738" x="645.1338" y="222.1289">4</text><text fill="#000000" font-family="Arial" font-size="12" lengthAdjust="spacing" textLength="3.334" x="655.8076" y="222.1289">&#160;</text><polygon fill="#181818" points="934.5723,250.0781,944.5723,254.0781,934.5723,258.0781,938.5723,254.0781" style="stroke:#181818;stroke-width:1.0;"/><line style="stroke:#181818;stroke-width:1.0;" x1="518.416" x2="940.5723" y1="254.0781" y2="254.0781"/><text fill="#000000" font-family="Arial" font-size="12" font-weight="bold" lengthAdjust="spacing" textLength="6.6738" x="683.8066" y="249.5352">5</text><text fill="#000000" font-family="Arial" font-size="12" lengthAdjust="spacing" textLength="86.7012" x="694.4805" y="249.5352">findByPilot(pilot)</text><polygon fill="#181818" points="529.416,277.4844,519.416,281.4844,529.416,285.4844,525.416,281.4844" style="stroke:#181818;stroke-width:1.0;"/><line style="stroke:#181818;stroke-width:1.0;stroke-dasharray:2.0,2.0;" x1="523.416" x2="950.5723" y1="281.4844" y2="281.4844"/><text fill="#000000" font-family="Arial" font-size="12" font-weight="bold" lengthAdjust="spacing" textLength="6.6738" x="713.9834" y="276.9414">6</text><text fill="#000000" font-family="Arial" font-size="12" lengthAdjust="spacing" textLength="31.3477" x="724.6572" y="276.9414">flights</text><polygon fill="#181818" points="264.2852,304.8906,254.2852,308.8906,264.2852,312.8906,260.2852,308.8906" style="stroke:#181818;stroke-width:1.0;"/><line style="stroke:#181818;stroke-width:1.0;stroke-dasharray:2.0,2.0;" x1="258.2852" x2="512.416" y1="308.8906" y2="308.8906"/><text fill="#000000" font-family="Arial" font-size="12" font-weight="bold" lengthAdjust="spacing" textLength="6.6738" x="362.3398" y="304.3477">7</text><text fill="#000000" font-family="Arial" font-size="12" lengthAdjust="spacing" textLength="31.3477" x="373.0137" y="304.3477">flights</text><polygon fill="#181818" points="30.6719,332.2969,20.6719,336.2969,30.6719,340.2969,26.6719,336.2969" style="stroke:#181818;stroke-width:1.0;"/><line style="stroke:#181818;stroke-width:1.0;" x1="24.6719" x2="242.2852" y1="336.2969" y2="336.2969"/><text fill="#000000" font-family="Arial" font-size="12" font-weight="bold" lengthAdjust="spacing" textLength="6.6738" x="81.124" y="331.7539">8</text><text fill="#000000" font-family="Arial" font-size="12" lengthAdjust="spacing" textLength="90.0352" x="91.7979" y="331.7539">displays flight list</text><polygon fill="#181818" points="231.2852,359.7031,241.2852,363.7031,231.2852,367.7031,235.2852,363.7031" style="stroke:#181818;stroke-width:1.0;"/><line style="stroke:#181818;stroke-width:1.0;" x1="19.6719" x2="237.2852" y1="363.7031" y2="363.7031"/><text fill="#000000" font-family="Arial" font-size="12" font-weight="bold" lengthAdjust="spacing" textLength="6.6738" x="93.127" y="359.1602">9</text><text fill="#000000" font-family="Arial" font-size="12" lengthAdjust="spacing" textLength="66.0293" x="103.8008" y="359.1602">selects flight</text><polygon fill="#181818" points="496.416,387.1094,506.416,391.1094,496.416,395.1094,500.416,391.1094" style="stroke:#181818;stroke-width:1.0;"/><line style="stroke:#181818;stroke-width:1.0;" x1="253.2852" x2="502.416" y1="391.1094" y2="391.1094"/><text fill="#000000" font-family="Arial" font-size="12" font-weight="bold" lengthAdjust="spacing" textLength="13.3477" x="309.1475" y="386.5664">10</text><text fill="#000000" font-family="Arial" font-size="12" lengthAdjust="spacing" textLength="126.0586" x="326.4951" y="386.5664">availableWeatherData()</text><polygon fill="#181818" points="1109.2852,414.5156,1119.2852,418.5156,1109.2852,422.5156,1113.2852,418.5156" style="stroke:#181818;stroke-width:1.0;"/><line style="stroke:#181818;stroke-width:1.0;" x1="518.416" x2="1115.2852" y1="418.5156" y2="418.5156"/><text fill="#000000" font-family="Arial" font-size="12" font-weight="bold" lengthAdjust="spacing" textLength="13.3477" x="790.8389" y="413.9727">11</text><text fill="#000000" font-family="Arial" font-size="12" lengthAdjust="spacing" textLength="40.6758" x="808.1865" y="413.9727">findAll()</text><polygon fill="#181818" points="529.416,441.9219,519.416,445.9219,529.416,449.9219,525.416,445.9219" style="stroke:#181818;stroke-width:1.0;"/><line style="stroke:#181818;stroke-width:1.0;stroke-dasharray:2.0,2.0;" x1="523.416" x2="1125.2852" y1="445.9219" y2="445.9219"/><text fill="#000000" font-family="Arial" font-size="12" font-weight="bold" lengthAdjust="spacing" textLength="13.3477" x="770.3203" y="441.3789">12</text><text fill="#000000" font-family="Arial" font-size="12" lengthAdjust="spacing" textLength="86.7129" x="787.668" y="441.3789">weatherDataList</text><polygon fill="#181818" points="264.2852,469.3281,254.2852,473.3281,264.2852,477.3281,260.2852,473.3281" style="stroke:#181818;stroke-width:1.0;"/><line style="stroke:#181818;stroke-width:1.0;stroke-dasharray:2.0,2.0;" x1="258.2852" x2="512.416" y1="473.3281" y2="473.3281"/><text fill="#000000" font-family="Arial" font-size="12" font-weight="bold" lengthAdjust="spacing" textLength="13.3477" x="331.3203" y="468.7852">13</text><text fill="#000000" font-family="Arial" font-size="12" lengthAdjust="spacing" textLength="86.7129" x="348.668" y="468.7852">weatherDataList</text><polygon fill="#181818" points="30.6719,496.7344,20.6719,500.7344,30.6719,504.7344,26.6719,500.7344" style="stroke:#181818;stroke-width:1.0;"/><line style="stroke:#181818;stroke-width:1.0;" x1="24.6719" x2="242.2852" y1="500.7344" y2="500.7344"/><text fill="#000000" font-family="Arial" font-size="12" font-weight="bold" lengthAdjust="spacing" textLength="13.3477" x="55.7705" y="496.1914">14</text><text fill="#000000" font-family="Arial" font-size="12" lengthAdjust="spacing" textLength="134.0684" x="73.1182" y="496.1914">displays weather data list</text><polygon fill="#181818" points="231.2852,524.1406,241.2852,528.1406,231.2852,532.1406,235.2852,528.1406" style="stroke:#181818;stroke-width:1.0;"/><line style="stroke:#181818;stroke-width:1.0;" x1="19.6719" x2="237.2852" y1="528.1406" y2="528.1406"/><text fill="#000000" font-family="Arial" font-size="12" font-weight="bold" lengthAdjust="spacing" textLength="13.3477" x="68.4443" y="523.5977">15</text><text fill="#000000" font-family="Arial" font-size="12" lengthAdjust="spacing" textLength="108.7207" x="85.792" y="523.5977">selects weatherData</text><polygon fill="#181818" points="496.416,551.5469,506.416,555.5469,496.416,559.5469,500.416,555.5469" style="stroke:#181818;stroke-width:1.0;"/><line style="stroke:#181818;stroke-width:1.0;" x1="253.2852" x2="502.416" y1="555.5469" y2="555.5469"/><text fill="#000000" font-family="Arial" font-size="12" font-weight="bold" lengthAdjust="spacing" textLength="13.3477" x="262.7852" y="551.0039">16</text><text fill="#000000" font-family="Arial" font-size="12" lengthAdjust="spacing" textLength="218.7832" x="280.1328" y="551.0039">addWeatherData(flightId, weatherDataId)</text><polygon fill="#181818" points="934.5723,578.9531,944.5723,582.9531,934.5723,586.9531,938.5723,582.9531" style="stroke:#181818;stroke-width:1.0;"/><line style="stroke:#181818;stroke-width:1.0;" x1="518.416" x2="940.5723" y1="582.9531" y2="582.9531"/><text fill="#000000" font-family="Arial" font-size="12" font-weight="bold" lengthAdjust="spacing" textLength="13.3477" x="677.7979" y="578.4102">17</text><text fill="#000000" font-family="Arial" font-size="12" lengthAdjust="spacing" textLength="92.0449" x="695.1455" y="578.4102">ofIdentity(flightId)</text><polygon fill="#181818" points="529.416,606.3594,519.416,610.3594,529.416,614.3594,525.416,610.3594" style="stroke:#181818;stroke-width:1.0;"/><line style="stroke:#181818;stroke-width:1.0;stroke-dasharray:2.0,2.0;" x1="523.416" x2="950.5723" y1="610.3594" y2="610.3594"/><text fill="#000000" font-family="Arial" font-size="12" font-weight="bold" lengthAdjust="spacing" textLength="13.3477" x="713.6465" y="605.8164">18</text><text fill="#000000" font-family="Arial" font-size="12" lengthAdjust="spacing" textLength="25.3477" x="730.9941" y="605.8164">flight</text><polygon fill="#181818" points="1109.2852,633.7656,1119.2852,637.7656,1109.2852,641.7656,1113.2852,637.7656" style="stroke:#181818;stroke-width:1.0;"/><line style="stroke:#181818;stroke-width:1.0;" x1="518.416" x2="1115.2852" y1="637.7656" y2="637.7656"/><text fill="#000000" font-family="Arial" font-size="12" font-weight="bold" lengthAdjust="spacing" textLength="13.3477" x="743.8086" y="633.2227">19</text><text fill="#000000" font-family="Arial" font-size="12" lengthAdjust="spacing" textLength="134.7363" x="761.1563" y="633.2227">ofIdentity(weatherDataId)</text><polygon fill="#181818" points="529.416,661.1719,519.416,665.1719,529.416,669.1719,525.416,665.1719" style="stroke:#181818;stroke-width:1.0;"/><line style="stroke:#181818;stroke-width:1.0;stroke-dasharray:2.0,2.0;" x1="523.416" x2="1125.2852" y1="665.1719" y2="665.1719"/><text fill="#000000" font-family="Arial" font-size="12" font-weight="bold" lengthAdjust="spacing" textLength="13.3477" x="779.6572" y="660.6289">20</text><text fill="#000000" font-family="Arial" font-size="12" lengthAdjust="spacing" textLength="68.0391" x="797.0049" y="660.6289">weatherData</text><polygon fill="#181818" points="1265.333,698.2813,1275.333,702.2813,1265.333,706.2813,1269.333,702.2813" style="stroke:#181818;stroke-width:1.0;"/><line style="stroke:#181818;stroke-width:1.0;" x1="518.416" x2="1271.333" y1="702.2813" y2="702.2813"/><text fill="#000000" font-family="Arial" font-size="12" font-weight="bold" lengthAdjust="spacing" textLength="13.3477" x="805.8247" y="697.7383">21</text><text fill="#000000" font-family="Arial" font-size="12" lengthAdjust="spacing" textLength="166.752" x="823.1724" y="697.7383">addWeatherData(weatherData)</text><path d="M1292,678.1719 L1292,714.1719 L1475,714.1719 L1475,688.1719 L1465,678.1719 L1292,678.1719 " fill="#FEFFDD" style="stroke:#181818;stroke-width:0.5;"/><path d="M1465,678.1719 L1465,688.1719 L1475,688.1719 L1465,678.1719 " fill="#FEFFDD" style="stroke:#181818;stroke-width:0.5;"/><text fill="#000000" font-family="Arial" font-size="12" lengthAdjust="spacing" textLength="162.0703" x="1298" y="694.0352">if flightPlan.status == TESTED</text><text fill="#000000" font-family="Arial" font-size="12" lengthAdjust="spacing" textLength="83.3496" x="1298" y="707.4414">reset to DRAFT</text><polygon fill="#181818" points="529.416,735.3906,519.416,739.3906,529.416,743.3906,525.416,739.3906" style="stroke:#181818;stroke-width:1.0;"/><line style="stroke:#181818;stroke-width:1.0;stroke-dasharray:2.0,2.0;" x1="523.416" x2="1281.333" y1="739.3906" y2="739.3906"/><text fill="#000000" font-family="Arial" font-size="12" font-weight="bold" lengthAdjust="spacing" textLength="13.3477" x="890.0337" y="734.8477">22</text><text fill="#000000" font-family="Arial" font-size="12" lengthAdjust="spacing" textLength="3.334" x="907.3813" y="734.8477">&#160;</text><polygon fill="#181818" points="934.5723,762.7969,944.5723,766.7969,934.5723,770.7969,938.5723,766.7969" style="stroke:#181818;stroke-width:1.0;"/><line style="stroke:#181818;stroke-width:1.0;" x1="518.416" x2="940.5723" y1="766.7969" y2="766.7969"/><text fill="#000000" font-family="Arial" font-size="12" font-weight="bold" lengthAdjust="spacing" textLength="13.3477" x="694.4766" y="762.2539">23</text><text fill="#000000" font-family="Arial" font-size="12" lengthAdjust="spacing" textLength="58.6875" x="711.8242" y="762.2539">save(flight)</text><polygon fill="#181818" points="529.416,790.2031,519.416,794.2031,529.416,798.2031,525.416,794.2031" style="stroke:#181818;stroke-width:1.0;"/><line style="stroke:#181818;stroke-width:1.0;stroke-dasharray:2.0,2.0;" x1="523.416" x2="950.5723" y1="794.2031" y2="794.2031"/><text fill="#000000" font-family="Arial" font-size="12" font-weight="bold" lengthAdjust="spacing" textLength="13.3477" x="724.6533" y="789.6602">24</text><text fill="#000000" font-family="Arial" font-size="12" lengthAdjust="spacing" textLength="3.334" x="742.001" y="789.6602">&#160;</text><polygon fill="#181818" points="264.2852,817.6094,254.2852,821.6094,264.2852,825.6094,260.2852,821.6094" style="stroke:#181818;stroke-width:1.0;"/><line style="stroke:#181818;stroke-width:1.0;stroke-dasharray:2.0,2.0;" x1="258.2852" x2="512.416" y1="821.6094" y2="821.6094"/><text fill="#000000" font-family="Arial" font-size="12" font-weight="bold" lengthAdjust="spacing" textLength="13.3477" x="353.0029" y="817.0664">25</text><text fill="#000000" font-family="Arial" font-size="12" lengthAdjust="spacing" textLength="43.3477" x="370.3506" y="817.0664">success</text><polygon fill="#181818" points="30.6719,845.0156,20.6719,849.0156,30.6719,853.0156,26.6719,849.0156" style="stroke:#181818;stroke-width:1.0;"/><line style="stroke:#181818;stroke-width:1.0;stroke-dasharray:2.0,2.0;" x1="24.6719" x2="247.2852" y1="849.0156" y2="849.0156"/><text fill="#000000" font-family="Arial" font-size="12" font-weight="bold" lengthAdjust="spacing" textLength="13.3477" x="69.2803" y="844.4727">26</text><text fill="#000000" font-family="Arial" font-size="12" lengthAdjust="spacing" textLength="112.0488" x="86.6279" y="844.4727">displays confirmation</text><!--SRC=[bLN1RXen4BtxAqQSgDHKQKuLIYBH4bIaj461A9TU9kjPi6BihUqb8gT-HB-mNr9xRS30GbCEQ6NFUvxtvgtN2IS97YRddoxWpw_VC5AMZ8D7GZSd0mDq2481mb2AsTmnPf-5gj3W0Ypzh4aLz8sinHdrVO62WfGZarLnAh6MRgYL-uuBWhuHADlt9-ALuED5jZb6uqGXAbHkZ9mBDOEBSyQmTbhLYoT_4CF2QGETiP3QTG0jD0kisYAXq-jpdXG5GLCTnJoCEf1-7bUB-7XvMHcoNWOweTNrzPkellZsZPQIJDD3uOnigB2gf2YECDLkheruRNOdP9QYe4r3gIclTFxQC9NU3thHvlc09tPmJvMsmajVxN0add9J4_IHiSAwCBi3ianREwCdU-4DqJ-OObi7pRIq5PYuNg087gM1dbs7WVHyo2GLpaB7-xwRIgTJ9Zi18fReo4COyp0FRYRGWyKgrjZkksrLs6DDWI-C3lU0bAqDXPduqOUH4N_mhy9Nj7srkYkxuz7jtJGZQN0iei_IWOpJtlxwbCp_7fH2yS-h9h7TAlndjDj2bc7EjehYgisFoZ3nlBLvBRLDcycZw7GFkB2LnDLc7DAFzCWOodGBx9YCInGIdoHbuJdgTmfFTA4lPLuOzrWgoKI_R8blGtEPe8JP5NwY_gG12GSy1Eo43Hd_lXSxrqCt-ZNYxtF8YE-RqvuJNOvu2ADRRNZ-Fob7Wd8uZ-oqOxs-PJujizbJT-XI1ZyGo9JspoO1HPcMnnBL1-llwDh2rHLCRoRJcy4F5Mvk5ww6mNr_E4t6jBwVwoItEcznISdpDpj-skXDWkgYyD_BzaIsHRBGgXHcqNmaSfI_wlu2]--></g></svg>