<?xml version="1.0" encoding="UTF-8" standalone="no"?><svg xmlns="http://www.w3.org/2000/svg" xmlns:xlink="http://www.w3.org/1999/xlink" contentScriptType="application/ecmascript" contentStyleType="text/css" height="216px" preserveAspectRatio="none" style="width:350px;height:216px;" version="1.1" viewBox="0 0 350 216" width="350px" zoomAndPan="magnify"><defs><filter height="300%" id="f1294pwx4yk6w2" width="300%" x="-1" y="-1"><feGaussianBlur result="blurOut" stdDeviation="2.0"/><feColorMatrix in="blurOut" result="blurOut2" type="matrix" values="0 0 0 0 0 0 0 0 0 0 0 0 0 0 0 0 0 0 .4 0"/><feOffset dx="4.0" dy="4.0" in="blurOut2" result="blurOut3"/><feBlend in="SourceGraphic" in2="blurOut3" mode="normal"/></filter></defs><g><!--MD5=[bcaa665809f2a562e709fd434a25a82e]
class eapli.exemplo.persistence.impl.jpa.BaseJpaRepositoryBase--><a href="BaseJpaRepositoryBase.html" target="_top" title="BaseJpaRepositoryBase.html" xlink:actuate="onRequest" xlink:href="BaseJpaRepositoryBase.html" xlink:show="new" xlink:title="BaseJpaRepositoryBase.html" xlink:type="simple"><rect codeLine="5" fill="#FEFECE" filter="url(#f1294pwx4yk6w2)" height="72.1758" id="eapli.exemplo.persistence.impl.jpa.BaseJpaRepositoryBase" style="stroke: #A80036; stroke-width: 1.5;" width="241" x="48.5" y="108.26"/><ellipse cx="63.5" cy="127.3928" fill="#ADD1B2" rx="11" ry="11" style="stroke: #A80036; stroke-width: 1.0;"/><path d="M65.9731,133.5359 Q65.3921,133.8347 64.7529,133.9841 Q64.1138,134.1335 63.4082,134.1335 Q60.9014,134.1335 59.5815,132.4817 Q58.2617,130.8298 58.2617,127.7087 Q58.2617,124.5793 59.5815,122.9275 Q60.9014,121.2756 63.4082,121.2756 Q64.1138,121.2756 64.7612,121.425 Q65.4087,121.5745 65.9731,121.8733 L65.9731,124.5959 Q65.3423,124.0149 64.7488,123.7451 Q64.1553,123.4753 63.5244,123.4753 Q62.1797,123.4753 61.4949,124.542 Q60.8101,125.6086 60.8101,127.7087 Q60.8101,129.8005 61.4949,130.8672 Q62.1797,131.9338 63.5244,131.9338 Q64.1553,131.9338 64.7488,131.6641 Q65.3423,131.3943 65.9731,130.8132 Z "/><text fill="#000000" font-family="sans-serif" font-size="14" lengthAdjust="spacingAndGlyphs" textLength="156" x="84.5" y="126.7952">BaseJpaRepositoryBase</text><text fill="#000000" font-family="sans-serif" font-size="10" lengthAdjust="spacingAndGlyphs" textLength="170" x="77.5" y="139.4163">eapli.exemplo.persistence.impl.jpa</text><rect fill="#FFFFFF" height="16.1328" style="stroke: #000000; stroke-width: 1.0; stroke-dasharray: 2.0,2.0;" width="37" x="255.5" y="105.26"/><text fill="#000000" font-family="sans-serif" font-size="12" font-style="italic" lengthAdjust="spacingAndGlyphs" textLength="35" x="256.5" y="117.8616">T, K, I</text><line style="stroke: #A80036; stroke-width: 1.5;" x1="49.5" x2="288.5" y1="146.5256" y2="146.5256"/><polygon fill="#4177AF" points="59.5,153.5256,55.5,159.5256,63.5,159.5256" style="stroke: #1963A0; stroke-width: 1.0;"/><text fill="#000000" font-family="sans-serif" font-size="11" lengthAdjust="spacingAndGlyphs" textLength="200" x="68.5" y="161.1604">BaseJpaRepositoryBase(String, String)</text><polygon fill="#4177AF" points="59.5,166.4807,55.5,172.4807,63.5,172.4807" style="stroke: #1963A0; stroke-width: 1.0;"/><text fill="#000000" font-family="sans-serif" font-size="11" lengthAdjust="spacingAndGlyphs" textLength="162" x="68.5" y="174.1155">BaseJpaRepositoryBase(String)</text></a><!--MD5=[ef147dbb7d155170af33ffb89d1d61f1]
class eapli.framework.infrastructure.repositories.impl.jpa.JpaTransactionalRepository--><rect codeLine="10" fill="#FEFECE" filter="url(#f1294pwx4yk6w2)" height="38.2656" id="eapli.framework.infrastructure.repositories.impl.jpa.JpaTransactionalRepository" style="stroke: #A80036; stroke-width: 1.5;" width="324" x="7" y="10"/><ellipse cx="22" cy="29.1328" fill="#ADD1B2" rx="11" ry="11" style="stroke: #A80036; stroke-width: 1.0;"/><path d="M24.4731,35.2759 Q23.8921,35.5747 23.2529,35.7241 Q22.6138,35.8735 21.9082,35.8735 Q19.4014,35.8735 18.0815,34.2217 Q16.7617,32.5698 16.7617,29.4487 Q16.7617,26.3193 18.0815,24.6675 Q19.4014,23.0156 21.9082,23.0156 Q22.6138,23.0156 23.2612,23.165 Q23.9087,23.3145 24.4731,23.6133 L24.4731,26.3359 Q23.8423,25.7549 23.2488,25.4851 Q22.6553,25.2153 22.0244,25.2153 Q20.6797,25.2153 19.9949,26.282 Q19.3101,27.3486 19.3101,29.4487 Q19.3101,31.5405 19.9949,32.6072 Q20.6797,33.6738 22.0244,33.6738 Q22.6553,33.6738 23.2488,33.4041 Q23.8423,33.1343 24.4731,32.5532 Z "/><text fill="#000000" font-family="sans-serif" font-size="14" lengthAdjust="spacingAndGlyphs" textLength="187" x="69" y="28.5352">JpaTransactionalRepository</text><text fill="#000000" font-family="sans-serif" font-size="10" lengthAdjust="spacingAndGlyphs" textLength="253" x="36" y="41.1563">eapli.framework.infrastructure.repositories.impl.jpa</text><rect fill="#FFFFFF" height="16.1328" style="stroke: #000000; stroke-width: 1.0; stroke-dasharray: 2.0,2.0;" width="37" x="297" y="7"/><text fill="#000000" font-family="sans-serif" font-size="12" font-style="italic" lengthAdjust="spacingAndGlyphs" textLength="35" x="298" y="19.6016">T, K, I</text><!--MD5=[c3ead442af2c0fa53b4af230f872e1b0]
reverse link eapli.framework.infrastructure.repositories.impl.jpa.JpaTransactionalRepository to eapli.exemplo.persistence.impl.jpa.BaseJpaRepositoryBase--><path codeLine="12" d="M169,69.71 C169,82.17 169,95.85 169,107.99 " fill="none" id="eapli.framework.infrastructure.repositories.impl.jpa.JpaTransactionalRepository-backto-eapli.exemplo.persistence.impl.jpa.BaseJpaRepositoryBase" style="stroke: #A80036; stroke-width: 1.0;"/><polygon fill="none" points="162,70.09,169,50.09,176,70.09,162,70.09" style="stroke: #A80036; stroke-width: 1.0;"/><text fill="#888888" font-family="sans-serif" font-size="10" lengthAdjust="spacingAndGlyphs" textLength="188" x="72" y="203.1038">UMLDoclet 2.0.12, PlantUML 1.2020.16</text><!--MD5=[55be38038b06da2e1116de4d80a13352]
@startuml
    set namespaceSeparator none
    hide empty fields
    hide empty methods

    class "<size:14>BaseJpaRepositoryBase\n<size:10>eapli.exemplo.persistence.impl.jpa" as eapli.exemplo.persistence.impl.jpa.BaseJpaRepositoryBase<T, K, I> [[BaseJpaRepositoryBase.html]] {
        ~BaseJpaRepositoryBase(String, String)
        ~BaseJpaRepositoryBase(String)
    }

    class "<size:14>JpaTransactionalRepository\n<size:10>eapli.framework.infrastructure.repositories.impl.jpa" as eapli.framework.infrastructure.repositories.impl.jpa.JpaTransactionalRepository<T, K, I>

    eapli.framework.infrastructure.repositories.impl.jpa.JpaTransactionalRepository <|- - eapli.exemplo.persistence.impl.jpa.BaseJpaRepositoryBase

    center footer UMLDoclet 2.0.12, PlantUML 1.2020.16
@enduml

PlantUML version 1.2020.16(Sun Aug 23 21:20:43 WEST 2020)
(APACHE source distribution)
Java Runtime: OpenJDK Runtime Environment
JVM: OpenJDK 64-Bit Server VM
Default Encoding: UTF-8
Language: en
Country: US
--></g></svg>