<?xml version="1.0" encoding="UTF-8" standalone="no"?><svg xmlns="http://www.w3.org/2000/svg" xmlns:xlink="http://www.w3.org/1999/xlink" contentScriptType="application/ecmascript" contentStyleType="text/css" height="213px" preserveAspectRatio="none" style="width:313px;height:213px;" version="1.1" viewBox="0 0 313 213" width="313px" zoomAndPan="magnify"><defs><filter height="300%" id="f1n7u97jxgp67x" width="300%" x="-1" y="-1"><feGaussianBlur result="blurOut" stdDeviation="2.0"/><feColorMatrix in="blurOut" result="blurOut2" type="matrix" values="0 0 0 0 0 0 0 0 0 0 0 0 0 0 0 0 0 0 .4 0"/><feOffset dx="4.0" dy="4.0" in="blurOut2" result="blurOut3"/><feBlend in="SourceGraphic" in2="blurOut3" mode="normal"/></filter></defs><g><!--MD5=[64b60ebd110f29d8cf3808b165c463d3]
class eapli.exemplo.persistence.impl.jpa.ExemploJpaReportingRepositoryBase--><a href="ExemploJpaReportingRepositoryBase.html" target="_top" title="ExemploJpaReportingRepositoryBase.html" xlink:actuate="onRequest" xlink:href="ExemploJpaReportingRepositoryBase.html" xlink:show="new" xlink:title="ExemploJpaReportingRepositoryBase.html" xlink:type="simple"><rect codeLine="5" fill="#FEFECE" filter="url(#f1n7u97jxgp67x)" height="72.1758" id="eapli.exemplo.persistence.impl.jpa.ExemploJpaReportingRepositoryBase" style="stroke: #A80036; stroke-width: 1.5;" width="285" x="9" y="105.26"/><ellipse cx="24" cy="124.3928" fill="#ADD1B2" rx="11" ry="11" style="stroke: #A80036; stroke-width: 1.0;"/><path d="M26.4731,130.5359 Q25.8921,130.8347 25.2529,130.9841 Q24.6138,131.1335 23.9082,131.1335 Q21.4014,131.1335 20.0815,129.4817 Q18.7617,127.8298 18.7617,124.7087 Q18.7617,121.5793 20.0815,119.9275 Q21.4014,118.2756 23.9082,118.2756 Q24.6138,118.2756 25.2612,118.425 Q25.9087,118.5745 26.4731,118.8733 L26.4731,121.5959 Q25.8423,121.0149 25.2488,120.7451 Q24.6553,120.4753 24.0244,120.4753 Q22.6797,120.4753 21.9949,121.542 Q21.3101,122.6086 21.3101,124.7087 Q21.3101,126.8005 21.9949,127.8672 Q22.6797,128.9338 24.0244,128.9338 Q24.6553,128.9338 25.2488,128.6641 Q25.8423,128.3943 26.4731,127.8132 Z "/><text fill="#000000" font-family="sans-serif" font-size="14" lengthAdjust="spacingAndGlyphs" textLength="253" x="38" y="123.7952">ExemploJpaReportingRepositoryBase</text><text fill="#000000" font-family="sans-serif" font-size="10" lengthAdjust="spacingAndGlyphs" textLength="170" x="79.5" y="136.4163">eapli.exemplo.persistence.impl.jpa</text><line style="stroke: #A80036; stroke-width: 1.5;" x1="10" x2="293" y1="143.5256" y2="143.5256"/><polygon fill="#4177AF" points="20,150.5256,16,156.5256,24,156.5256" style="stroke: #1963A0; stroke-width: 1.0;"/><text fill="#000000" font-family="sans-serif" font-size="11" lengthAdjust="spacingAndGlyphs" textLength="205" x="29" y="158.1604">ExemploJpaReportingRepositoryBase()</text><polygon fill="#4177AF" points="20,163.4807,16,169.4807,24,169.4807" style="stroke: #1963A0; stroke-width: 1.0;"/><text fill="#000000" font-family="sans-serif" font-size="11" lengthAdjust="spacingAndGlyphs" textLength="237" x="29" y="171.1155">ExemploJpaReportingRepositoryBase(String)</text></a><!--MD5=[505300acf3517e872ec2c50c8bfb2cca]
class eapli.framework.infrastructure.repositories.impl.jpa.JpaTransactionalContext--><rect codeLine="10" fill="#FEFECE" filter="url(#f1n7u97jxgp67x)" height="38.2656" id="eapli.framework.infrastructure.repositories.impl.jpa.JpaTransactionalContext" style="stroke: #A80036; stroke-width: 1.5;" width="285" x="9" y="7"/><ellipse cx="24" cy="26.1328" fill="#ADD1B2" rx="11" ry="11" style="stroke: #A80036; stroke-width: 1.0;"/><path d="M26.4731,32.2759 Q25.8921,32.5747 25.2529,32.7241 Q24.6138,32.8735 23.9082,32.8735 Q21.4014,32.8735 20.0815,31.2217 Q18.7617,29.5698 18.7617,26.4487 Q18.7617,23.3193 20.0815,21.6675 Q21.4014,20.0156 23.9082,20.0156 Q24.6138,20.0156 25.2612,20.165 Q25.9087,20.3145 26.4731,20.6133 L26.4731,23.3359 Q25.8423,22.7549 25.2488,22.4851 Q24.6553,22.2153 24.0244,22.2153 Q22.6797,22.2153 21.9949,23.282 Q21.3101,24.3486 21.3101,26.4487 Q21.3101,28.5405 21.9949,29.6072 Q22.6797,30.6738 24.0244,30.6738 Q24.6553,30.6738 25.2488,30.4041 Q25.8423,30.1343 26.4731,29.5532 Z "/><text fill="#000000" font-family="sans-serif" font-size="14" lengthAdjust="spacingAndGlyphs" textLength="169" x="80" y="25.5352">JpaTransactionalContext</text><text fill="#000000" font-family="sans-serif" font-size="10" lengthAdjust="spacingAndGlyphs" textLength="253" x="38" y="38.1563">eapli.framework.infrastructure.repositories.impl.jpa</text><!--MD5=[3931bc724f864d9f8e06ffff4a4671a0]
reverse link eapli.framework.infrastructure.repositories.impl.jpa.JpaTransactionalContext to eapli.exemplo.persistence.impl.jpa.ExemploJpaReportingRepositoryBase--><path codeLine="12" d="M151.5,66.71 C151.5,79.17 151.5,92.85 151.5,104.99 " fill="none" id="eapli.framework.infrastructure.repositories.impl.jpa.JpaTransactionalContext-backto-eapli.exemplo.persistence.impl.jpa.ExemploJpaReportingRepositoryBase" style="stroke: #A80036; stroke-width: 1.0;"/><polygon fill="none" points="144.5,67.09,151.5,47.09,158.5,67.09,144.5,67.09" style="stroke: #A80036; stroke-width: 1.0;"/><text fill="#888888" font-family="sans-serif" font-size="10" lengthAdjust="spacingAndGlyphs" textLength="188" x="53.5" y="200.1038">UMLDoclet 2.0.12, PlantUML 1.2020.16</text><!--MD5=[1445e731b2db892167721ef012dc8639]
@startuml
    set namespaceSeparator none
    hide empty fields
    hide empty methods

    class "<size:14>ExemploJpaReportingRepositoryBase\n<size:10>eapli.exemplo.persistence.impl.jpa" as eapli.exemplo.persistence.impl.jpa.ExemploJpaReportingRepositoryBase [[ExemploJpaReportingRepositoryBase.html]] {
        ~ExemploJpaReportingRepositoryBase()
        ~ExemploJpaReportingRepositoryBase(String)
    }

    class "<size:14>JpaTransactionalContext\n<size:10>eapli.framework.infrastructure.repositories.impl.jpa" as eapli.framework.infrastructure.repositories.impl.jpa.JpaTransactionalContext

    eapli.framework.infrastructure.repositories.impl.jpa.JpaTransactionalContext <|- - eapli.exemplo.persistence.impl.jpa.ExemploJpaReportingRepositoryBase

    center footer UMLDoclet 2.0.12, PlantUML 1.2020.16
@enduml

PlantUML version 1.2020.16(Sun Aug 23 21:20:43 WEST 2020)
(APACHE source distribution)
Java Runtime: OpenJDK Runtime Environment
JVM: OpenJDK 64-Bit Server VM
Default Encoding: UTF-8
Language: en
Country: US
--></g></svg>