<?xml version="1.0" encoding="UTF-8" standalone="no"?><svg xmlns="http://www.w3.org/2000/svg" xmlns:xlink="http://www.w3.org/1999/xlink" contentScriptType="application/ecmascript" contentStyleType="text/css" height="286px" preserveAspectRatio="none" style="width:951px;height:286px;" version="1.1" viewBox="0 0 951 286" width="951px" zoomAndPan="magnify"><defs><filter height="300%" id="f9ppdqc95av7p" width="300%" x="-1" y="-1"><feGaussianBlur result="blurOut" stdDeviation="2.0"/><feColorMatrix in="blurOut" result="blurOut2" type="matrix" values="0 0 0 0 0 0 0 0 0 0 0 0 0 0 0 0 0 0 .4 0"/><feOffset dx="4.0" dy="4.0" in="blurOut2" result="blurOut3"/><feBlend in="SourceGraphic" in2="blurOut3" mode="normal"/></filter></defs><g><!--MD5=[a4584d35a0a124bf7599ff8ddc8c049e]
class eapli.exemplo.persistence.impl.jpa.JpaClientUserRepository--><a href="JpaClientUserRepository.html" target="_top" title="JpaClientUserRepository.html" xlink:actuate="onRequest" xlink:href="JpaClientUserRepository.html" xlink:show="new" xlink:title="JpaClientUserRepository.html" xlink:type="simple"><rect codeLine="5" fill="#FEFECE" filter="url(#f9ppdqc95av7p)" height="111.041" id="eapli.exemplo.persistence.impl.jpa.JpaClientUserRepository" style="stroke: #A80036; stroke-width: 1.5;" width="422" x="341" y="139.18"/><ellipse cx="462.75" cy="158.3128" fill="#ADD1B2" rx="11" ry="11" style="stroke: #A80036; stroke-width: 1.0;"/><path d="M465.2231,164.4559 Q464.6421,164.7547 464.0029,164.9041 Q463.3638,165.0535 462.6582,165.0535 Q460.1514,165.0535 458.8315,163.4017 Q457.5117,161.7498 457.5117,158.6287 Q457.5117,155.4993 458.8315,153.8475 Q460.1514,152.1956 462.6582,152.1956 Q463.3638,152.1956 464.0112,152.345 Q464.6587,152.4945 465.2231,152.7933 L465.2231,155.5159 Q464.5923,154.9349 463.9988,154.6651 Q463.4053,154.3953 462.7744,154.3953 Q461.4297,154.3953 460.7449,155.462 Q460.0601,156.5286 460.0601,158.6287 Q460.0601,160.7205 460.7449,161.7872 Q461.4297,162.8538 462.7744,162.8538 Q463.4053,162.8538 463.9988,162.5841 Q464.5923,162.3143 465.2231,161.7332 Z "/><text fill="#000000" font-family="sans-serif" font-size="14" lengthAdjust="spacingAndGlyphs" textLength="165" x="485.75" y="157.7152">JpaClientUserRepository</text><text fill="#000000" font-family="sans-serif" font-size="10" lengthAdjust="spacingAndGlyphs" textLength="170" x="483.25" y="170.3362">eapli.exemplo.persistence.impl.jpa</text><line style="stroke: #A80036; stroke-width: 1.5;" x1="342" x2="762" y1="177.4456" y2="177.4456"/><ellipse cx="352" cy="188.4456" fill="#84BE84" rx="3" ry="3" style="stroke: #038048; stroke-width: 1.0;"/><text fill="#000000" font-family="sans-serif" font-size="11" lengthAdjust="spacingAndGlyphs" textLength="254" x="361" y="192.0804">JpaClientUserRepository(TransactionalContext)</text><ellipse cx="352" cy="201.4007" fill="#84BE84" rx="3" ry="3" style="stroke: #038048; stroke-width: 1.0;"/><text fill="#000000" font-family="sans-serif" font-size="11" lengthAdjust="spacingAndGlyphs" textLength="170" x="361" y="205.0355">JpaClientUserRepository(String)</text><ellipse cx="352" cy="214.3558" fill="#84BE84" rx="3" ry="3" style="stroke: #038048; stroke-width: 1.0;"/><text fill="#000000" font-family="sans-serif" font-size="11" lengthAdjust="spacingAndGlyphs" textLength="254" x="361" y="217.9905">findByUsername(Username): Optional&lt;Utente&gt;</text><ellipse cx="352" cy="227.3109" fill="#84BE84" rx="3" ry="3" style="stroke: #038048; stroke-width: 1.0;"/><text fill="#000000" font-family="sans-serif" font-size="11" lengthAdjust="spacingAndGlyphs" textLength="396" x="361" y="230.9456">findByMecanographicNumber(MecanographicNumber): Optional&lt;Utente&gt;</text><ellipse cx="352" cy="240.2659" fill="#84BE84" rx="3" ry="3" style="stroke: #038048; stroke-width: 1.0;"/><text fill="#000000" font-family="sans-serif" font-size="11" lengthAdjust="spacingAndGlyphs" textLength="175" x="361" y="243.9007">findAllActive(): Iterable&lt;Utente&gt;</text></a><!--MD5=[6144c490ce61590973dce0b410447132]
class eapli.framework.infrastructure.repositories.impl.jpa.JpaAutoTxRepository--><rect codeLine="13" fill="#FEFECE" filter="url(#f9ppdqc95av7p)" height="38.2656" id="eapli.framework.infrastructure.repositories.impl.jpa.JpaAutoTxRepository" style="stroke: #A80036; stroke-width: 1.5;" width="610" x="7" y="23.96"/><ellipse cx="22" cy="43.0928" fill="#ADD1B2" rx="11" ry="11" style="stroke: #A80036; stroke-width: 1.0;"/><path d="M24.4731,49.2359 Q23.8921,49.5347 23.2529,49.6841 Q22.6138,49.8335 21.9082,49.8335 Q19.4014,49.8335 18.0815,48.1817 Q16.7617,46.5298 16.7617,43.4087 Q16.7617,40.2793 18.0815,38.6275 Q19.4014,36.9756 21.9082,36.9756 Q22.6138,36.9756 23.2612,37.125 Q23.9087,37.2745 24.4731,37.5733 L24.4731,40.2959 Q23.8423,39.7149 23.2488,39.4451 Q22.6553,39.1753 22.0244,39.1753 Q20.6797,39.1753 19.9949,40.242 Q19.3101,41.3086 19.3101,43.4087 Q19.3101,45.5005 19.9949,46.5672 Q20.6797,47.6338 22.0244,47.6338 Q22.6553,47.6338 23.2488,47.3641 Q23.8423,47.0943 24.4731,46.5132 Z "/><text fill="#000000" font-family="sans-serif" font-size="14" lengthAdjust="spacingAndGlyphs" textLength="145" x="90" y="42.4952">JpaAutoTxRepository</text><text fill="#000000" font-family="sans-serif" font-size="10" lengthAdjust="spacingAndGlyphs" textLength="253" x="36" y="55.1163">eapli.framework.infrastructure.repositories.impl.jpa</text><rect fill="#FFFFFF" height="16.1328" style="stroke: #000000; stroke-width: 1.0; stroke-dasharray: 2.0,2.0;" width="323" x="297" y="20.96"/><text fill="#000000" font-family="sans-serif" font-size="12" font-style="italic" lengthAdjust="spacingAndGlyphs" textLength="321" x="298" y="33.5616">Utente, MecanographicNumber, MecanographicNumber</text><!--MD5=[794edea7655e05ac69c4241c1c73c240]
class eapli.exemplo.utentemanagement.repositories.UtenteRepository--><rect codeLine="14" fill="#FEFECE" filter="url(#f9ppdqc95av7p)" height="72.1758" id="eapli.exemplo.utentemanagement.repositories.UtenteRepository" style="stroke: #A80036; stroke-width: 1.5;" width="280" x="652" y="7"/><ellipse cx="675.55" cy="26.1328" fill="#B4A7E5" rx="11" ry="11" style="stroke: #A80036; stroke-width: 1.0;"/><path d="M671.9777,22.3979 L671.9777,20.2397 L679.3571,20.2397 L679.3571,22.3979 L676.8918,22.3979 L676.8918,30.4746 L679.3571,30.4746 L679.3571,32.6328 L671.9777,32.6328 L671.9777,30.4746 L674.4431,30.4746 L674.4431,22.3979 Z "/><text fill="#000000" font-family="sans-serif" font-size="14" font-style="italic" lengthAdjust="spacingAndGlyphs" textLength="118" x="746.95" y="25.5352">UtenteRepository</text><text fill="#000000" font-family="sans-serif" font-size="10" font-style="italic" lengthAdjust="spacingAndGlyphs" textLength="229" x="691.45" y="38.1563">eapli.exemplo.utentemanagement.repositories</text><line style="stroke: #A80036; stroke-width: 1.5;" x1="653" x2="931" y1="45.2656" y2="45.2656"/><ellipse cx="663" cy="56.2656" fill="#84BE84" rx="3" ry="3" style="stroke: #038048; stroke-width: 1.0;"/><text fill="#000000" font-family="sans-serif" font-size="11" font-style="italic" lengthAdjust="spacingAndGlyphs" textLength="254" x="672" y="59.9004">findByUsername(Username): Optional&lt;Utente&gt;</text><ellipse cx="663" cy="69.2207" fill="#84BE84" rx="3" ry="3" style="stroke: #038048; stroke-width: 1.0;"/><text fill="#000000" font-family="sans-serif" font-size="11" font-style="italic" lengthAdjust="spacingAndGlyphs" textLength="175" x="672" y="72.8555">findAllActive(): Iterable&lt;Utente&gt;</text><!--MD5=[11d764e5b53583feb1189d426e3dbab7]
reverse link eapli.framework.infrastructure.repositories.impl.jpa.JpaAutoTxRepository to eapli.exemplo.persistence.impl.jpa.JpaClientUserRepository--><path codeLine="19" d="M359.48,73.69 C389.26,92.25 428.56,116.75 463.89,138.77 " fill="none" id="eapli.framework.infrastructure.repositories.impl.jpa.JpaAutoTxRepository-backto-eapli.exemplo.persistence.impl.jpa.JpaClientUserRepository" style="stroke: #A80036; stroke-width: 1.0;"/><polygon fill="none" points="355.98,79.76,342.71,63.24,363.39,67.88,355.98,79.76" style="stroke: #A80036; stroke-width: 1.0;"/><!--MD5=[d47f5d69fa80d519911e27715f2661ec]
reverse link eapli.exemplo.utentemanagement.repositories.UtenteRepository to eapli.exemplo.persistence.impl.jpa.JpaClientUserRepository--><path codeLine="20" d="M717.07,90.8 C692.61,106.04 665.23,123.11 639.91,138.9 " fill="none" id="eapli.exemplo.utentemanagement.repositories.UtenteRepository-backto-eapli.exemplo.persistence.impl.jpa.JpaClientUserRepository" style="stroke: #A80036; stroke-width: 1.0; stroke-dasharray: 7.0,7.0;"/><polygon fill="none" points="713.16,84.99,733.84,80.35,720.57,96.87,713.16,84.99" style="stroke: #A80036; stroke-width: 1.0;"/><text fill="#888888" font-family="sans-serif" font-size="10" lengthAdjust="spacingAndGlyphs" textLength="188" x="372.5" y="272.889">UMLDoclet 2.0.12, PlantUML 1.2020.16</text><!--MD5=[1b1cae284f3bf17afea3141e1714931c]
@startuml
    set namespaceSeparator none
    hide empty fields
    hide empty methods

    class "<size:14>JpaClientUserRepository\n<size:10>eapli.exemplo.persistence.impl.jpa" as eapli.exemplo.persistence.impl.jpa.JpaClientUserRepository [[JpaClientUserRepository.html]] {
        +JpaClientUserRepository(TransactionalContext)
        +JpaClientUserRepository(String)
        +findByUsername(Username): Optional<Utente>
        +findByMecanographicNumber(MecanographicNumber): Optional<Utente>
        +findAllActive(): Iterable<Utente>
    }

    class "<size:14>JpaAutoTxRepository\n<size:10>eapli.framework.infrastructure.repositories.impl.jpa" as eapli.framework.infrastructure.repositories.impl.jpa.JpaAutoTxRepository<Utente, MecanographicNumber, MecanographicNumber>
    interface "<size:14>UtenteRepository\n<size:10>eapli.exemplo.utentemanagement.repositories" as eapli.exemplo.utentemanagement.repositories.UtenteRepository {
        {abstract} +findByUsername(Username): Optional<Utente>
        {abstract} +findAllActive(): Iterable<Utente>
    }

    eapli.framework.infrastructure.repositories.impl.jpa.JpaAutoTxRepository <|- - eapli.exemplo.persistence.impl.jpa.JpaClientUserRepository
    eapli.exemplo.utentemanagement.repositories.UtenteRepository <|.. eapli.exemplo.persistence.impl.jpa.JpaClientUserRepository

    center footer UMLDoclet 2.0.12, PlantUML 1.2020.16
@enduml

PlantUML version 1.2020.16(Sun Aug 23 21:20:43 WEST 2020)
(APACHE source distribution)
Java Runtime: OpenJDK Runtime Environment
JVM: OpenJDK 64-Bit Server VM
Default Encoding: UTF-8
Language: en
Country: US
--></g></svg>