<?xml version="1.0" encoding="UTF-8" standalone="no"?><svg xmlns="http://www.w3.org/2000/svg" xmlns:xlink="http://www.w3.org/1999/xlink" contentScriptType="application/ecmascript" contentStyleType="text/css" height="247px" preserveAspectRatio="none" style="width:875px;height:247px;" version="1.1" viewBox="0 0 875 247" width="875px" zoomAndPan="magnify"><defs><filter height="300%" id="f19viv2v0qcz9u" width="300%" x="-1" y="-1"><feGaussianBlur result="blurOut" stdDeviation="2.0"/><feColorMatrix in="blurOut" result="blurOut2" type="matrix" values="0 0 0 0 0 0 0 0 0 0 0 0 0 0 0 0 0 0 .4 0"/><feOffset dx="4.0" dy="4.0" in="blurOut2" result="blurOut3"/><feBlend in="SourceGraphic" in2="blurOut3" mode="normal"/></filter></defs><g><!--MD5=[2f343656fdf26e7d108cfd8b53e83557]
class eapli.exemplo.persistence.impl.jpa.JpaSignupRequestRepository--><a href="JpaSignupRequestRepository.html" target="_top" title="JpaSignupRequestRepository.html" xlink:actuate="onRequest" xlink:href="JpaSignupRequestRepository.html" xlink:show="new" xlink:title="JpaSignupRequestRepository.html" xlink:type="simple"><rect codeLine="5" fill="#FEFECE" filter="url(#f19viv2v0qcz9u)" height="85.1309" id="eapli.exemplo.persistence.impl.jpa.JpaSignupRequestRepository" style="stroke: #A80036; stroke-width: 1.5;" width="308" x="327" y="126.22"/><ellipse cx="378.25" cy="145.3528" fill="#ADD1B2" rx="11" ry="11" style="stroke: #A80036; stroke-width: 1.0;"/><path d="M380.7231,151.4959 Q380.1421,151.7947 379.5029,151.9441 Q378.8638,152.0935 378.1582,152.0935 Q375.6514,152.0935 374.3315,150.4417 Q373.0117,148.7898 373.0117,145.6687 Q373.0117,142.5393 374.3315,140.8875 Q375.6514,139.2356 378.1582,139.2356 Q378.8638,139.2356 379.5112,139.385 Q380.1587,139.5345 380.7231,139.8333 L380.7231,142.5559 Q380.0923,141.9749 379.4988,141.7051 Q378.9053,141.4353 378.2744,141.4353 Q376.9297,141.4353 376.2449,142.502 Q375.5601,143.5686 375.5601,145.6687 Q375.5601,147.7605 376.2449,148.8272 Q376.9297,149.8938 378.2744,149.8938 Q378.9053,149.8938 379.4988,149.6241 Q380.0923,149.3543 380.7231,148.7732 Z "/><text fill="#000000" font-family="sans-serif" font-size="14" lengthAdjust="spacingAndGlyphs" textLength="197" x="398.75" y="144.7552">JpaSignupRequestRepository</text><text fill="#000000" font-family="sans-serif" font-size="10" lengthAdjust="spacingAndGlyphs" textLength="170" x="412.25" y="157.3763">eapli.exemplo.persistence.impl.jpa</text><line style="stroke: #A80036; stroke-width: 1.5;" x1="328" x2="634" y1="164.4856" y2="164.4856"/><ellipse cx="338" cy="175.4856" fill="#84BE84" rx="3" ry="3" style="stroke: #038048; stroke-width: 1.0;"/><text fill="#000000" font-family="sans-serif" font-size="11" lengthAdjust="spacingAndGlyphs" textLength="278" x="347" y="179.1204">JpaSignupRequestRepository(TransactionalContext)</text><ellipse cx="338" cy="188.4407" fill="#84BE84" rx="3" ry="3" style="stroke: #038048; stroke-width: 1.0;"/><text fill="#000000" font-family="sans-serif" font-size="11" lengthAdjust="spacingAndGlyphs" textLength="194" x="347" y="192.0755">JpaSignupRequestRepository(String)</text><ellipse cx="338" cy="201.3958" fill="#84BE84" rx="3" ry="3" style="stroke: #038048; stroke-width: 1.0;"/><text fill="#000000" font-family="sans-serif" font-size="11" lengthAdjust="spacingAndGlyphs" textLength="282" x="347" y="205.0305">pendingSignupRequests(): Iterable&lt;SignupRequest&gt;</text></a><!--MD5=[6144c490ce61590973dce0b410447132]
class eapli.framework.infrastructure.repositories.impl.jpa.JpaAutoTxRepository--><rect codeLine="11" fill="#FEFECE" filter="url(#f19viv2v0qcz9u)" height="38.2656" id="eapli.framework.infrastructure.repositories.impl.jpa.JpaAutoTxRepository" style="stroke: #A80036; stroke-width: 1.5;" width="506" x="7" y="17.48"/><ellipse cx="22" cy="36.6128" fill="#ADD1B2" rx="11" ry="11" style="stroke: #A80036; stroke-width: 1.0;"/><path d="M24.4731,42.7559 Q23.8921,43.0547 23.2529,43.2041 Q22.6138,43.3535 21.9082,43.3535 Q19.4014,43.3535 18.0815,41.7017 Q16.7617,40.0498 16.7617,36.9287 Q16.7617,33.7993 18.0815,32.1475 Q19.4014,30.4956 21.9082,30.4956 Q22.6138,30.4956 23.2612,30.645 Q23.9087,30.7945 24.4731,31.0933 L24.4731,33.8159 Q23.8423,33.2349 23.2488,32.9651 Q22.6553,32.6953 22.0244,32.6953 Q20.6797,32.6953 19.9949,33.762 Q19.3101,34.8286 19.3101,36.9287 Q19.3101,39.0205 19.9949,40.0872 Q20.6797,41.1538 22.0244,41.1538 Q22.6553,41.1538 23.2488,40.8841 Q23.8423,40.6143 24.4731,40.0332 Z "/><text fill="#000000" font-family="sans-serif" font-size="14" lengthAdjust="spacingAndGlyphs" textLength="145" x="90" y="36.0152">JpaAutoTxRepository</text><text fill="#000000" font-family="sans-serif" font-size="10" lengthAdjust="spacingAndGlyphs" textLength="253" x="36" y="48.6362">eapli.framework.infrastructure.repositories.impl.jpa</text><rect fill="#FFFFFF" height="16.1328" style="stroke: #000000; stroke-width: 1.0; stroke-dasharray: 2.0,2.0;" width="219" x="297" y="14.48"/><text fill="#000000" font-family="sans-serif" font-size="12" font-style="italic" lengthAdjust="spacingAndGlyphs" textLength="217" x="298" y="27.0816">SignupRequest, Username, Username</text><!--MD5=[396b46c1d4a3c126976427064cf287a0]
class eapli.exemplo.utentemanagement.repositories.SignupRequestRepository--><rect codeLine="12" fill="#FEFECE" filter="url(#f19viv2v0qcz9u)" height="59.2207" id="eapli.exemplo.utentemanagement.repositories.SignupRequestRepository" style="stroke: #A80036; stroke-width: 1.5;" width="308" x="548" y="7"/><ellipse cx="584.15" cy="26.1328" fill="#B4A7E5" rx="11" ry="11" style="stroke: #A80036; stroke-width: 1.0;"/><path d="M580.5777,22.3979 L580.5777,20.2397 L587.9571,20.2397 L587.9571,22.3979 L585.4918,22.3979 L585.4918,30.4746 L587.9571,30.4746 L587.9571,32.6328 L580.5777,32.6328 L580.5777,30.4746 L583.0431,30.4746 L583.0431,22.3979 Z "/><text fill="#000000" font-family="sans-serif" font-size="14" font-style="italic" lengthAdjust="spacingAndGlyphs" textLength="176" x="629.35" y="25.5352">SignupRequestRepository</text><text fill="#000000" font-family="sans-serif" font-size="10" font-style="italic" lengthAdjust="spacingAndGlyphs" textLength="229" x="602.85" y="38.1563">eapli.exemplo.utentemanagement.repositories</text><line style="stroke: #A80036; stroke-width: 1.5;" x1="549" x2="855" y1="45.2656" y2="45.2656"/><ellipse cx="559" cy="56.2656" fill="#84BE84" rx="3" ry="3" style="stroke: #038048; stroke-width: 1.0;"/><text fill="#000000" font-family="sans-serif" font-size="11" font-style="italic" lengthAdjust="spacingAndGlyphs" textLength="282" x="568" y="59.9004">pendingSignupRequests(): Iterable&lt;SignupRequest&gt;</text><!--MD5=[d29dfd3b49410b8e8200a8de58488cc9]
reverse link eapli.framework.infrastructure.repositories.impl.jpa.JpaAutoTxRepository to eapli.exemplo.persistence.impl.jpa.JpaSignupRequestRepository--><path codeLine="16" d="M309.69,66.88 C339.23,84.28 377.2,106.64 409.87,125.89 " fill="none" id="eapli.framework.infrastructure.repositories.impl.jpa.JpaAutoTxRepository-backto-eapli.exemplo.persistence.impl.jpa.JpaSignupRequestRepository" style="stroke: #A80036; stroke-width: 1.0;"/><polygon fill="none" points="306.18,72.93,292.5,56.75,313.28,60.87,306.18,72.93" style="stroke: #A80036; stroke-width: 1.0;"/><!--MD5=[ad46ee2fb3d14432cfb97309a910b75c]
reverse link eapli.exemplo.utentemanagement.repositories.SignupRequestRepository to eapli.exemplo.persistence.impl.jpa.JpaSignupRequestRepository--><path codeLine="17" d="M634.51,77.36 C608.52,92.67 578.75,110.21 552.39,125.73 " fill="none" id="eapli.exemplo.utentemanagement.repositories.SignupRequestRepository-backto-eapli.exemplo.persistence.impl.jpa.JpaSignupRequestRepository" style="stroke: #A80036; stroke-width: 1.0; stroke-dasharray: 7.0,7.0;"/><polygon fill="none" points="630.59,71.55,651.37,67.43,637.69,83.61,630.59,71.55" style="stroke: #A80036; stroke-width: 1.0;"/><text fill="#888888" font-family="sans-serif" font-size="10" lengthAdjust="spacingAndGlyphs" textLength="188" x="334.5" y="234.0188">UMLDoclet 2.0.12, PlantUML 1.2020.16</text><!--MD5=[672793de05182fe341345c45daf35393]
@startuml
    set namespaceSeparator none
    hide empty fields
    hide empty methods

    class "<size:14>JpaSignupRequestRepository\n<size:10>eapli.exemplo.persistence.impl.jpa" as eapli.exemplo.persistence.impl.jpa.JpaSignupRequestRepository [[JpaSignupRequestRepository.html]] {
        +JpaSignupRequestRepository(TransactionalContext)
        +JpaSignupRequestRepository(String)
        +pendingSignupRequests(): Iterable<SignupRequest>
    }

    class "<size:14>JpaAutoTxRepository\n<size:10>eapli.framework.infrastructure.repositories.impl.jpa" as eapli.framework.infrastructure.repositories.impl.jpa.JpaAutoTxRepository<SignupRequest, Username, Username>
    interface "<size:14>SignupRequestRepository\n<size:10>eapli.exemplo.utentemanagement.repositories" as eapli.exemplo.utentemanagement.repositories.SignupRequestRepository {
        {abstract} +pendingSignupRequests(): Iterable<SignupRequest>
    }

    eapli.framework.infrastructure.repositories.impl.jpa.JpaAutoTxRepository <|- - eapli.exemplo.persistence.impl.jpa.JpaSignupRequestRepository
    eapli.exemplo.utentemanagement.repositories.SignupRequestRepository <|.. eapli.exemplo.persistence.impl.jpa.JpaSignupRequestRepository

    center footer UMLDoclet 2.0.12, PlantUML 1.2020.16
@enduml

PlantUML version 1.2020.16(Sun Aug 23 21:20:43 WEST 2020)
(APACHE source distribution)
Java Runtime: OpenJDK Runtime Environment
JVM: OpenJDK 64-Bit Server VM
Default Encoding: UTF-8
Language: en
Country: US
--></g></svg>