<?xml version="1.0" encoding="UTF-8" standalone="no"?><svg xmlns="http://www.w3.org/2000/svg" xmlns:xlink="http://www.w3.org/1999/xlink" contentScriptType="application/ecmascript" contentStyleType="text/css" height="438px" preserveAspectRatio="none" style="width:2047px;height:438px;" version="1.1" viewBox="0 0 2047 438" width="2047px" zoomAndPan="magnify"><defs><filter height="300%" id="f1gw3aclnwxz64" width="300%" x="-1" y="-1"><feGaussianBlur result="blurOut" stdDeviation="2.0"/><feColorMatrix in="blurOut" result="blurOut2" type="matrix" values="0 0 0 0 0 0 0 0 0 0 0 0 0 0 0 0 0 0 .4 0"/><feOffset dx="4.0" dy="4.0" in="blurOut2" result="blurOut3"/><feBlend in="SourceGraphic" in2="blurOut3" mode="normal"/></filter></defs><g><!--MD5=[f6975707dc89b7f519b739e4bbe3f7ad]
cluster eapli.exemplo.persistence.impl.jpa--><polygon fill="#FFFFFF" filter="url(#f1gw3aclnwxz64)" points="16,219.68,267,219.68,274,242.1683,2025,242.1683,2025,409.37,16,409.37,16,219.68" style="stroke: #000000; stroke-width: 1.5;"/><line style="stroke: #000000; stroke-width: 1.5;" x1="16" x2="274" y1="242.1683" y2="242.1683"/><text fill="#000000" font-family="sans-serif" font-size="14" font-weight="bold" lengthAdjust="spacingAndGlyphs" textLength="245" x="20" y="235.2152">eapli.exemplo.persistence.impl.jpa</text><!--MD5=[3fc664a848a68c20de812d06f0d6bf0a]
cluster eapli.exemplo.infrastructure.persistence--><polygon fill="#FFFFFF" filter="url(#f1gw3aclnwxz64)" points="16,6,308,6,315,28.4883,428,28.4883,428,195.68,16,195.68,16,6" style="stroke: #000000; stroke-width: 1.5;"/><line style="stroke: #000000; stroke-width: 1.5;" x1="16" x2="315" y1="28.4883" y2="28.4883"/><text fill="#000000" font-family="sans-serif" font-size="14" font-weight="bold" lengthAdjust="spacingAndGlyphs" textLength="286" x="20" y="21.5352">eapli.exemplo.infrastructure.persistence</text><!--MD5=[49157ec4b4484082ebf3754a3455dc3f]
cluster eapli.framework.infrastructure.repositories.impl.jpa--><polygon fill="#FFFFFF" filter="url(#f1gw3aclnwxz64)" points="452,18.95,827,18.95,834,41.4383,1204,41.4383,1204,182.73,452,182.73,452,18.95" style="stroke: #000000; stroke-width: 1.5;"/><line style="stroke: #000000; stroke-width: 1.5;" x1="452" x2="834" y1="41.4383" y2="41.4383"/><text fill="#000000" font-family="sans-serif" font-size="14" font-weight="bold" lengthAdjust="spacingAndGlyphs" textLength="369" x="456" y="34.4852">eapli.framework.infrastructure.repositories.impl.jpa</text><!--MD5=[0dfced2ab0315277c9d0f55daf5ec84c]
cluster eapli.exemplo.utentemanagement.repositories--><polygon fill="#FFFFFF" filter="url(#f1gw3aclnwxz64)" points="1228,31.91,1565,31.91,1572,54.3983,2025,54.3983,2025,169.77,1228,169.77,1228,31.91" style="stroke: #000000; stroke-width: 1.5;"/><line style="stroke: #000000; stroke-width: 1.5;" x1="1228" x2="1572" y1="54.3983" y2="54.3983"/><text fill="#000000" font-family="sans-serif" font-size="14" font-weight="bold" lengthAdjust="spacingAndGlyphs" textLength="331" x="1232" y="47.4452">eapli.exemplo.utentemanagement.repositories</text><!--MD5=[bc686024ea1ffb11670703d6789a292f]
class eapli.exemplo.persistence.impl.jpa.JpaRepositoryFactory--><a href="JpaRepositoryFactory.html" target="_top" title="JpaRepositoryFactory.html" xlink:actuate="onRequest" xlink:href="JpaRepositoryFactory.html" xlink:show="new" xlink:title="JpaRepositoryFactory.html" xlink:type="simple"><rect codeLine="3" fill="#FEFECE" filter="url(#f1gw3aclnwxz64)" height="138.6855" id="eapli.exemplo.persistence.impl.jpa.JpaRepositoryFactory" style="stroke: #A80036; stroke-width: 1.5;" width="380" x="32" y="254.68"/><ellipse cx="157.25" cy="270.68" fill="#ADD1B2" rx="11" ry="11" style="stroke: #A80036; stroke-width: 1.0;"/><path d="M159.7231,276.8231 Q159.1421,277.1219 158.5029,277.2713 Q157.8638,277.4207 157.1582,277.4207 Q154.6514,277.4207 153.3315,275.7689 Q152.0117,274.117 152.0117,270.9959 Q152.0117,267.8665 153.3315,266.2147 Q154.6514,264.5628 157.1582,264.5628 Q157.8638,264.5628 158.5112,264.7122 Q159.1587,264.8616 159.7231,265.1605 L159.7231,267.8831 Q159.0923,267.3021 158.4988,267.0323 Q157.9053,266.7625 157.2744,266.7625 Q155.9297,266.7625 155.2449,267.8292 Q154.5601,268.8958 154.5601,270.9959 Q154.5601,273.0877 155.2449,274.1544 Q155.9297,275.221 157.2744,275.221 Q157.9053,275.221 158.4988,274.9512 Q159.0923,274.6815 159.7231,274.1004 Z "/><text fill="#000000" font-family="sans-serif" font-size="12" lengthAdjust="spacingAndGlyphs" textLength="121" x="177.75" y="275.2152">JpaRepositoryFactory</text><line style="stroke: #A80036; stroke-width: 1.5;" x1="33" x2="411" y1="286.68" y2="286.68"/><line style="stroke: #A80036; stroke-width: 1.5;" x1="33" x2="411" y1="294.68" y2="294.68"/><ellipse cx="43" cy="305.68" fill="#84BE84" rx="3" ry="3" style="stroke: #038048; stroke-width: 1.0;"/><text fill="#000000" font-family="sans-serif" font-size="11" lengthAdjust="spacingAndGlyphs" textLength="243" x="52" y="309.3148">users(TransactionalContext): UserRepository</text><ellipse cx="43" cy="318.6351" fill="#84BE84" rx="3" ry="3" style="stroke: #038048; stroke-width: 1.0;"/><text fill="#000000" font-family="sans-serif" font-size="11" lengthAdjust="spacingAndGlyphs" textLength="127" x="52" y="322.2698">users(): UserRepository</text><ellipse cx="43" cy="331.5902" fill="#84BE84" rx="3" ry="3" style="stroke: #038048; stroke-width: 1.0;"/><text fill="#000000" font-family="sans-serif" font-size="11" lengthAdjust="spacingAndGlyphs" textLength="300" x="52" y="335.2249">utentes(TransactionalContext): JpaClientUserRepository</text><ellipse cx="43" cy="344.5452" fill="#84BE84" rx="3" ry="3" style="stroke: #038048; stroke-width: 1.0;"/><text fill="#000000" font-family="sans-serif" font-size="11" lengthAdjust="spacingAndGlyphs" textLength="184" x="52" y="348.18">utentes(): JpaClientUserRepository</text><ellipse cx="43" cy="357.5003" fill="#84BE84" rx="3" ry="3" style="stroke: #038048; stroke-width: 1.0;"/><text fill="#000000" font-family="sans-serif" font-size="11" lengthAdjust="spacingAndGlyphs" textLength="354" x="52" y="361.1351">signupRequests(TransactionalContext): SignupRequestRepository</text><ellipse cx="43" cy="370.4554" fill="#84BE84" rx="3" ry="3" style="stroke: #038048; stroke-width: 1.0;"/><text fill="#000000" font-family="sans-serif" font-size="11" lengthAdjust="spacingAndGlyphs" textLength="238" x="52" y="374.0902">signupRequests(): SignupRequestRepository</text><ellipse cx="43" cy="383.4105" fill="#84BE84" rx="3" ry="3" style="stroke: #038048; stroke-width: 1.0;"/><text fill="#000000" font-family="sans-serif" font-size="11" lengthAdjust="spacingAndGlyphs" textLength="267" x="52" y="387.0452">newTransactionalContext(): TransactionalContext</text></a><!--MD5=[a4584d35a0a124bf7599ff8ddc8c049e]
class eapli.exemplo.persistence.impl.jpa.JpaClientUserRepository--><a href="JpaClientUserRepository.html" target="_top" title="JpaClientUserRepository.html" xlink:actuate="onRequest" xlink:href="JpaClientUserRepository.html" xlink:show="new" xlink:title="JpaClientUserRepository.html" xlink:type="simple"><rect codeLine="13" fill="#FEFECE" filter="url(#f1gw3aclnwxz64)" height="112.7754" id="eapli.exemplo.persistence.impl.jpa.JpaClientUserRepository" style="stroke: #A80036; stroke-width: 1.5;" width="422" x="1244" y="267.64"/><ellipse cx="1381.75" cy="283.64" fill="#ADD1B2" rx="11" ry="11" style="stroke: #A80036; stroke-width: 1.0;"/><path d="M1384.2231,289.7831 Q1383.6421,290.0819 1383.0029,290.2313 Q1382.3638,290.3807 1381.6582,290.3807 Q1379.1514,290.3807 1377.8315,288.7289 Q1376.5117,287.077 1376.5117,283.9559 Q1376.5117,280.8265 1377.8315,279.1747 Q1379.1514,277.5228 1381.6582,277.5228 Q1382.3638,277.5228 1383.0112,277.6722 Q1383.6587,277.8216 1384.2231,278.1205 L1384.2231,280.8431 Q1383.5923,280.2621 1382.9988,279.9923 Q1382.4053,279.7225 1381.7744,279.7225 Q1380.4297,279.7225 1379.7449,280.7892 Q1379.0601,281.8558 1379.0601,283.9559 Q1379.0601,286.0477 1379.7449,287.1144 Q1380.4297,288.181 1381.7744,288.181 Q1382.4053,288.181 1382.9988,287.9112 Q1383.5923,287.6415 1384.2231,287.0604 Z "/><text fill="#000000" font-family="sans-serif" font-size="12" lengthAdjust="spacingAndGlyphs" textLength="138" x="1402.25" y="288.1752">JpaClientUserRepository</text><line style="stroke: #A80036; stroke-width: 1.5;" x1="1245" x2="1665" y1="299.64" y2="299.64"/><line style="stroke: #A80036; stroke-width: 1.5;" x1="1245" x2="1665" y1="307.64" y2="307.64"/><ellipse cx="1255" cy="318.64" fill="#84BE84" rx="3" ry="3" style="stroke: #038048; stroke-width: 1.0;"/><text fill="#000000" font-family="sans-serif" font-size="11" lengthAdjust="spacingAndGlyphs" textLength="254" x="1264" y="322.2748">JpaClientUserRepository(TransactionalContext)</text><ellipse cx="1255" cy="331.5951" fill="#84BE84" rx="3" ry="3" style="stroke: #038048; stroke-width: 1.0;"/><text fill="#000000" font-family="sans-serif" font-size="11" lengthAdjust="spacingAndGlyphs" textLength="170" x="1264" y="335.2298">JpaClientUserRepository(String)</text><ellipse cx="1255" cy="344.5502" fill="#84BE84" rx="3" ry="3" style="stroke: #038048; stroke-width: 1.0;"/><text fill="#000000" font-family="sans-serif" font-size="11" lengthAdjust="spacingAndGlyphs" textLength="254" x="1264" y="348.1849">findByUsername(Username): Optional&lt;Utente&gt;</text><ellipse cx="1255" cy="357.5052" fill="#84BE84" rx="3" ry="3" style="stroke: #038048; stroke-width: 1.0;"/><text fill="#000000" font-family="sans-serif" font-size="11" lengthAdjust="spacingAndGlyphs" textLength="396" x="1264" y="361.14">findByMecanographicNumber(MecanographicNumber): Optional&lt;Utente&gt;</text><ellipse cx="1255" cy="370.4603" fill="#84BE84" rx="3" ry="3" style="stroke: #038048; stroke-width: 1.0;"/><text fill="#000000" font-family="sans-serif" font-size="11" lengthAdjust="spacingAndGlyphs" textLength="175" x="1264" y="374.0951">findAllActive(): Iterable&lt;Utente&gt;</text></a><!--MD5=[2f343656fdf26e7d108cfd8b53e83557]
class eapli.exemplo.persistence.impl.jpa.JpaSignupRequestRepository--><a href="JpaSignupRequestRepository.html" target="_top" title="JpaSignupRequestRepository.html" xlink:actuate="onRequest" xlink:href="JpaSignupRequestRepository.html" xlink:show="new" xlink:title="JpaSignupRequestRepository.html" xlink:type="simple"><rect codeLine="21" fill="#FEFECE" filter="url(#f1gw3aclnwxz64)" height="86.8652" id="eapli.exemplo.persistence.impl.jpa.JpaSignupRequestRepository" style="stroke: #A80036; stroke-width: 1.5;" width="308" x="1701" y="280.59"/><ellipse cx="1768.25" cy="296.59" fill="#ADD1B2" rx="11" ry="11" style="stroke: #A80036; stroke-width: 1.0;"/><path d="M1770.7231,302.7331 Q1770.1421,303.0319 1769.5029,303.1813 Q1768.8638,303.3307 1768.1582,303.3307 Q1765.6514,303.3307 1764.3315,301.6789 Q1763.0117,300.027 1763.0117,296.9059 Q1763.0117,293.7765 1764.3315,292.1247 Q1765.6514,290.4728 1768.1582,290.4728 Q1768.8638,290.4728 1769.5112,290.6222 Q1770.1587,290.7716 1770.7231,291.0705 L1770.7231,293.7931 Q1770.0923,293.2121 1769.4988,292.9423 Q1768.9053,292.6725 1768.2744,292.6725 Q1766.9297,292.6725 1766.2449,293.7392 Q1765.5601,294.8058 1765.5601,296.9059 Q1765.5601,298.9977 1766.2449,300.0644 Q1766.9297,301.131 1768.2744,301.131 Q1768.9053,301.131 1769.4988,300.8612 Q1770.0923,300.5915 1770.7231,300.0104 Z "/><text fill="#000000" font-family="sans-serif" font-size="12" lengthAdjust="spacingAndGlyphs" textLength="165" x="1788.75" y="301.1252">JpaSignupRequestRepository</text><line style="stroke: #A80036; stroke-width: 1.5;" x1="1702" x2="2008" y1="312.59" y2="312.59"/><line style="stroke: #A80036; stroke-width: 1.5;" x1="1702" x2="2008" y1="320.59" y2="320.59"/><ellipse cx="1712" cy="331.59" fill="#84BE84" rx="3" ry="3" style="stroke: #038048; stroke-width: 1.0;"/><text fill="#000000" font-family="sans-serif" font-size="11" lengthAdjust="spacingAndGlyphs" textLength="278" x="1721" y="335.2248">JpaSignupRequestRepository(TransactionalContext)</text><ellipse cx="1712" cy="344.5451" fill="#84BE84" rx="3" ry="3" style="stroke: #038048; stroke-width: 1.0;"/><text fill="#000000" font-family="sans-serif" font-size="11" lengthAdjust="spacingAndGlyphs" textLength="194" x="1721" y="348.1798">JpaSignupRequestRepository(String)</text><ellipse cx="1712" cy="357.5002" fill="#84BE84" rx="3" ry="3" style="stroke: #038048; stroke-width: 1.0;"/><text fill="#000000" font-family="sans-serif" font-size="11" lengthAdjust="spacingAndGlyphs" textLength="282" x="1721" y="361.1349">pendingSignupRequests(): Iterable&lt;SignupRequest&gt;</text></a><!--MD5=[1144ad760129b172af3fc3ebaca6b909]
class eapli.exemplo.persistence.impl.jpa.PersistenceSettings--><a href="PersistenceSettings.html" target="_top" title="PersistenceSettings.html" xlink:actuate="onRequest" xlink:href="PersistenceSettings.html" xlink:show="new" xlink:title="PersistenceSettings.html" xlink:type="simple"><rect codeLine="27" fill="#FEFECE" filter="url(#f1gw3aclnwxz64)" height="60.9551" id="eapli.exemplo.persistence.impl.jpa.PersistenceSettings" style="stroke: #A80036; stroke-width: 1.5;" width="202" x="1007" y="293.55"/><ellipse cx="1049.45" cy="309.55" fill="#ADD1B2" rx="11" ry="11" style="stroke: #A80036; stroke-width: 1.0;"/><path d="M1051.9231,315.6931 Q1051.3421,315.9919 1050.7029,316.1413 Q1050.0638,316.2907 1049.3582,316.2907 Q1046.8514,316.2907 1045.5315,314.6389 Q1044.2117,312.987 1044.2117,309.8659 Q1044.2117,306.7365 1045.5315,305.0847 Q1046.8514,303.4328 1049.3582,303.4328 Q1050.0638,303.4328 1050.7112,303.5822 Q1051.3587,303.7316 1051.9231,304.0305 L1051.9231,306.7531 Q1051.2923,306.1721 1050.6988,305.9023 Q1050.1053,305.6325 1049.4744,305.6325 Q1048.1297,305.6325 1047.4449,306.6992 Q1046.7601,307.7658 1046.7601,309.8659 Q1046.7601,311.9577 1047.4449,313.0244 Q1048.1297,314.091 1049.4744,314.091 Q1050.1053,314.091 1050.6988,313.8212 Q1051.2923,313.5515 1051.9231,312.9704 Z "/><text fill="#000000" font-family="sans-serif" font-size="12" lengthAdjust="spacingAndGlyphs" textLength="109" x="1069.55" y="314.0852">PersistenceSettings</text><line style="stroke: #A80036; stroke-width: 1.5;" x1="1008" x2="1208" y1="325.55" y2="325.55"/><ellipse cx="1018" cy="336.55" fill="none" rx="3" ry="3" style="stroke: #038048; stroke-width: 1.0;"/><text fill="#000000" font-family="sans-serif" font-size="11" lengthAdjust="spacingAndGlyphs" text-decoration="underline" textLength="176" x="1027" y="340.1848">PERSISTENCE_UNIT_NAME: String</text><line style="stroke: #A80036; stroke-width: 1.5;" x1="1008" x2="1208" y1="346.5051" y2="346.5051"/></a><!--MD5=[bcaa665809f2a562e709fd434a25a82e]
class eapli.exemplo.persistence.impl.jpa.BaseJpaRepositoryBase--><a href="BaseJpaRepositoryBase.html" target="_top" title="BaseJpaRepositoryBase.html" xlink:actuate="onRequest" xlink:href="BaseJpaRepositoryBase.html" xlink:show="new" xlink:title="BaseJpaRepositoryBase.html" xlink:type="simple"><rect codeLine="31" fill="#FEFECE" filter="url(#f1gw3aclnwxz64)" height="73.9102" id="eapli.exemplo.persistence.impl.jpa.BaseJpaRepositoryBase" style="stroke: #A80036; stroke-width: 1.5;" width="226" x="447" y="287.07"/><ellipse cx="471.45" cy="303.07" fill="#ADD1B2" rx="11" ry="11" style="stroke: #A80036; stroke-width: 1.0;"/><path d="M473.9231,309.2131 Q473.3421,309.5119 472.7029,309.6613 Q472.0638,309.8107 471.3582,309.8107 Q468.8514,309.8107 467.5315,308.1589 Q466.2117,306.507 466.2117,303.3859 Q466.2117,300.2565 467.5315,298.6047 Q468.8514,296.9528 471.3582,296.9528 Q472.0638,296.9528 472.7112,297.1022 Q473.3587,297.2516 473.9231,297.5505 L473.9231,300.2731 Q473.2923,299.6921 472.6988,299.4223 Q472.1053,299.1525 471.4744,299.1525 Q470.1297,299.1525 469.4449,300.2192 Q468.7601,301.2858 468.7601,303.3859 Q468.7601,305.4777 469.4449,306.5444 Q470.1297,307.611 471.4744,307.611 Q472.1053,307.611 472.6988,307.3412 Q473.2923,307.0715 473.9231,306.4904 Z "/><text fill="#000000" font-family="sans-serif" font-size="12" lengthAdjust="spacingAndGlyphs" textLength="134" x="487.55" y="307.6052">BaseJpaRepositoryBase</text><rect fill="#FFFFFF" height="16.1328" style="stroke: #000000; stroke-width: 1.0; stroke-dasharray: 2.0,2.0;" width="37" x="639" y="284.07"/><text fill="#000000" font-family="sans-serif" font-size="12" font-style="italic" lengthAdjust="spacingAndGlyphs" textLength="35" x="640" y="296.6716">T, K, I</text><line style="stroke: #A80036; stroke-width: 1.5;" x1="448" x2="672" y1="319.07" y2="319.07"/><line style="stroke: #A80036; stroke-width: 1.5;" x1="448" x2="672" y1="327.07" y2="327.07"/><polygon fill="#4177AF" points="458,334.07,454,340.07,462,340.07" style="stroke: #1963A0; stroke-width: 1.0;"/><text fill="#000000" font-family="sans-serif" font-size="11" lengthAdjust="spacingAndGlyphs" textLength="200" x="467" y="341.7048">BaseJpaRepositoryBase(String, String)</text><polygon fill="#4177AF" points="458,347.0251,454,353.0251,462,353.0251" style="stroke: #1963A0; stroke-width: 1.0;"/><text fill="#000000" font-family="sans-serif" font-size="11" lengthAdjust="spacingAndGlyphs" textLength="162" x="467" y="354.6598">BaseJpaRepositoryBase(String)</text></a><!--MD5=[64b60ebd110f29d8cf3808b165c463d3]
class eapli.exemplo.persistence.impl.jpa.ExemploJpaReportingRepositoryBase--><a href="ExemploJpaReportingRepositoryBase.html" target="_top" title="ExemploJpaReportingRepositoryBase.html" xlink:actuate="onRequest" xlink:href="ExemploJpaReportingRepositoryBase.html" xlink:show="new" xlink:title="ExemploJpaReportingRepositoryBase.html" xlink:type="simple"><rect codeLine="36" fill="#FEFECE" filter="url(#f1gw3aclnwxz64)" height="73.9102" id="eapli.exemplo.persistence.impl.jpa.ExemploJpaReportingRepositoryBase" style="stroke: #A80036; stroke-width: 1.5;" width="263" x="708.5" y="287.07"/><ellipse cx="731.6" cy="303.07" fill="#ADD1B2" rx="11" ry="11" style="stroke: #A80036; stroke-width: 1.0;"/><path d="M734.0731,309.2131 Q733.4921,309.5119 732.8529,309.6613 Q732.2138,309.8107 731.5082,309.8107 Q729.0014,309.8107 727.6815,308.1589 Q726.3617,306.507 726.3617,303.3859 Q726.3617,300.2565 727.6815,298.6047 Q729.0014,296.9528 731.5082,296.9528 Q732.2138,296.9528 732.8612,297.1022 Q733.5087,297.2516 734.0731,297.5505 L734.0731,300.2731 Q733.4423,299.6921 732.8488,299.4223 Q732.2553,299.1525 731.6244,299.1525 Q730.2797,299.1525 729.5949,300.2192 Q728.9101,301.2858 728.9101,303.3859 Q728.9101,305.4777 729.5949,306.5444 Q730.2797,307.611 731.6244,307.611 Q732.2553,307.611 732.8488,307.3412 Q733.4423,307.0715 734.0731,306.4904 Z "/><text fill="#000000" font-family="sans-serif" font-size="12" lengthAdjust="spacingAndGlyphs" textLength="213" x="747.4" y="307.6052">ExemploJpaReportingRepositoryBase</text><line style="stroke: #A80036; stroke-width: 1.5;" x1="709.5" x2="970.5" y1="319.07" y2="319.07"/><line style="stroke: #A80036; stroke-width: 1.5;" x1="709.5" x2="970.5" y1="327.07" y2="327.07"/><polygon fill="#4177AF" points="719.5,334.07,715.5,340.07,723.5,340.07" style="stroke: #1963A0; stroke-width: 1.0;"/><text fill="#000000" font-family="sans-serif" font-size="11" lengthAdjust="spacingAndGlyphs" textLength="205" x="728.5" y="341.7048">ExemploJpaReportingRepositoryBase()</text><polygon fill="#4177AF" points="719.5,347.0251,715.5,353.0251,723.5,353.0251" style="stroke: #1963A0; stroke-width: 1.0;"/><text fill="#000000" font-family="sans-serif" font-size="11" lengthAdjust="spacingAndGlyphs" textLength="237" x="728.5" y="354.6598">ExemploJpaReportingRepositoryBase(String)</text></a><!--MD5=[26465f502c9cbd15a915dfe67afb0530]
class eapli.exemplo.infrastructure.persistence.RepositoryFactory--><rect codeLine="51" fill="#FEFECE" filter="url(#f1gw3aclnwxz64)" height="138.6855" id="eapli.exemplo.infrastructure.persistence.RepositoryFactory" style="stroke: #A80036; stroke-width: 1.5;" width="380" x="32" y="41"/><ellipse cx="166.75" cy="57" fill="#B4A7E5" rx="11" ry="11" style="stroke: #A80036; stroke-width: 1.0;"/><path d="M163.1777,53.2651 L163.1777,51.1069 L170.5571,51.1069 L170.5571,53.2651 L168.0918,53.2651 L168.0918,61.3418 L170.5571,61.3418 L170.5571,63.5 L163.1777,63.5 L163.1777,61.3418 L165.6431,61.3418 L165.6431,53.2651 Z "/><text fill="#000000" font-family="sans-serif" font-size="12" font-style="italic" lengthAdjust="spacingAndGlyphs" textLength="102" x="187.25" y="61.5352">RepositoryFactory</text><line style="stroke: #A80036; stroke-width: 1.5;" x1="33" x2="411" y1="73" y2="73"/><line style="stroke: #A80036; stroke-width: 1.5;" x1="33" x2="411" y1="81" y2="81"/><ellipse cx="43" cy="92" fill="#84BE84" rx="3" ry="3" style="stroke: #038048; stroke-width: 1.0;"/><text fill="#000000" font-family="sans-serif" font-size="11" font-style="italic" lengthAdjust="spacingAndGlyphs" textLength="267" x="52" y="95.6348">newTransactionalContext(): TransactionalContext</text><ellipse cx="43" cy="104.9551" fill="#84BE84" rx="3" ry="3" style="stroke: #038048; stroke-width: 1.0;"/><text fill="#000000" font-family="sans-serif" font-size="11" font-style="italic" lengthAdjust="spacingAndGlyphs" textLength="243" x="52" y="108.5898">users(TransactionalContext): UserRepository</text><ellipse cx="43" cy="117.9102" fill="#84BE84" rx="3" ry="3" style="stroke: #038048; stroke-width: 1.0;"/><text fill="#000000" font-family="sans-serif" font-size="11" font-style="italic" lengthAdjust="spacingAndGlyphs" textLength="127" x="52" y="121.5449">users(): UserRepository</text><ellipse cx="43" cy="130.8652" fill="#84BE84" rx="3" ry="3" style="stroke: #038048; stroke-width: 1.0;"/><text fill="#000000" font-family="sans-serif" font-size="11" font-style="italic" lengthAdjust="spacingAndGlyphs" textLength="263" x="52" y="134.5">utentes(TransactionalContext): UtenteRepository</text><ellipse cx="43" cy="143.8203" fill="#84BE84" rx="3" ry="3" style="stroke: #038048; stroke-width: 1.0;"/><text fill="#000000" font-family="sans-serif" font-size="11" font-style="italic" lengthAdjust="spacingAndGlyphs" textLength="147" x="52" y="147.4551">utentes(): UtenteRepository</text><ellipse cx="43" cy="156.7754" fill="#84BE84" rx="3" ry="3" style="stroke: #038048; stroke-width: 1.0;"/><text fill="#000000" font-family="sans-serif" font-size="11" font-style="italic" lengthAdjust="spacingAndGlyphs" textLength="354" x="52" y="160.4102">signupRequests(TransactionalContext): SignupRequestRepository</text><ellipse cx="43" cy="169.7305" fill="#84BE84" rx="3" ry="3" style="stroke: #038048; stroke-width: 1.0;"/><text fill="#000000" font-family="sans-serif" font-size="11" font-style="italic" lengthAdjust="spacingAndGlyphs" textLength="238" x="52" y="173.3652">signupRequests(): SignupRequestRepository</text><!--MD5=[6144c490ce61590973dce0b410447132]
class eapli.framework.infrastructure.repositories.impl.jpa.JpaAutoTxRepository--><rect codeLine="63" fill="#FEFECE" filter="url(#f1gw3aclnwxz64)" height="73.9102" id="eapli.framework.infrastructure.repositories.impl.jpa.JpaAutoTxRepository" style="stroke: #A80036; stroke-width: 1.5;" width="202" x="986" y="73.39"/><ellipse cx="1005.5" cy="89.39" fill="#ADD1B2" rx="11" ry="11" style="stroke: #A80036; stroke-width: 1.0;"/><path d="M1007.9731,95.5331 Q1007.3921,95.8319 1006.7529,95.9813 Q1006.1138,96.1307 1005.4082,96.1307 Q1002.9014,96.1307 1001.5815,94.4789 Q1000.2617,92.827 1000.2617,89.7059 Q1000.2617,86.5765 1001.5815,84.9247 Q1002.9014,83.2728 1005.4082,83.2728 Q1006.1138,83.2728 1006.7612,83.4222 Q1007.4087,83.5716 1007.9731,83.8705 L1007.9731,86.5931 Q1007.3423,86.0121 1006.7488,85.7423 Q1006.1553,85.4725 1005.5244,85.4725 Q1004.1797,85.4725 1003.4949,86.5392 Q1002.8101,87.6058 1002.8101,89.7059 Q1002.8101,91.7977 1003.4949,92.8644 Q1004.1797,93.931 1005.5244,93.931 Q1006.1553,93.931 1006.7488,93.6612 Q1007.3423,93.3915 1007.9731,92.8104 Z "/><text fill="#000000" font-family="sans-serif" font-size="12" lengthAdjust="spacingAndGlyphs" textLength="121" x="1020.5" y="93.9252">JpaAutoTxRepository</text><rect fill="#FFFFFF" height="16.1328" style="stroke: #000000; stroke-width: 1.0; stroke-dasharray: 2.0,2.0;" width="37" x="1154" y="70.39"/><text fill="#000000" font-family="sans-serif" font-size="12" font-style="italic" lengthAdjust="spacingAndGlyphs" textLength="35" x="1155" y="82.9916">T, K, I</text><line style="stroke: #A80036; stroke-width: 1.5;" x1="987" x2="1187" y1="105.39" y2="105.39"/><polygon fill="none" points="997,111.39,1001,115.39,997,119.39,993,115.39" style="stroke: #B38D22; stroke-width: 1.0;"/><text fill="#000000" font-family="sans-serif" font-size="11" lengthAdjust="spacingAndGlyphs" textLength="176" x="1006" y="120.0248">repo: JpaBaseRepository&lt;T, K, I&gt;</text><rect fill="none" height="6" style="stroke: #C82930; stroke-width: 1.0;" width="6" x="994" y="126.3451"/><text fill="#000000" font-family="sans-serif" font-size="11" lengthAdjust="spacingAndGlyphs" textLength="160" x="1006" y="132.9798">autoTx: TransactionalContext</text><line style="stroke: #A80036; stroke-width: 1.5;" x1="987" x2="1187" y1="139.3002" y2="139.3002"/><!--MD5=[ef147dbb7d155170af33ffb89d1d61f1]
class eapli.framework.infrastructure.repositories.impl.jpa.JpaTransactionalRepository--><rect codeLine="67" fill="#FEFECE" filter="url(#f1gw3aclnwxz64)" height="48" id="eapli.framework.infrastructure.repositories.impl.jpa.JpaTransactionalRepository" style="stroke: #A80036; stroke-width: 1.5;" width="228" x="468" y="86.34"/><ellipse cx="483" cy="102.34" fill="#ADD1B2" rx="11" ry="11" style="stroke: #A80036; stroke-width: 1.0;"/><path d="M485.4731,108.4831 Q484.8921,108.7819 484.2529,108.9313 Q483.6138,109.0807 482.9082,109.0807 Q480.4014,109.0807 479.0815,107.4289 Q477.7617,105.777 477.7617,102.6559 Q477.7617,99.5265 479.0815,97.8747 Q480.4014,96.2228 482.9082,96.2228 Q483.6138,96.2228 484.2612,96.3722 Q484.9087,96.5216 485.4731,96.8205 L485.4731,99.5431 Q484.8423,98.9621 484.2488,98.6923 Q483.6553,98.4225 483.0244,98.4225 Q481.6797,98.4225 480.9949,99.4892 Q480.3101,100.5558 480.3101,102.6559 Q480.3101,104.7477 480.9949,105.8144 Q481.6797,106.881 483.0244,106.881 Q483.6553,106.881 484.2488,106.6112 Q484.8423,106.3415 485.4731,105.7604 Z "/><text fill="#000000" font-family="sans-serif" font-size="12" lengthAdjust="spacingAndGlyphs" textLength="157" x="497" y="106.8752">JpaTransactionalRepository</text><rect fill="#FFFFFF" height="16.1328" style="stroke: #000000; stroke-width: 1.0; stroke-dasharray: 2.0,2.0;" width="37" x="662" y="83.34"/><text fill="#000000" font-family="sans-serif" font-size="12" font-style="italic" lengthAdjust="spacingAndGlyphs" textLength="35" x="663" y="95.9416">T, K, I</text><line style="stroke: #A80036; stroke-width: 1.5;" x1="469" x2="695" y1="118.34" y2="118.34"/><line style="stroke: #A80036; stroke-width: 1.5;" x1="469" x2="695" y1="126.34" y2="126.34"/><!--MD5=[505300acf3517e872ec2c50c8bfb2cca]
class eapli.framework.infrastructure.repositories.impl.jpa.JpaTransactionalContext--><rect codeLine="68" fill="#FEFECE" filter="url(#f1gw3aclnwxz64)" height="112.7754" id="eapli.framework.infrastructure.repositories.impl.jpa.JpaTransactionalContext" style="stroke: #A80036; stroke-width: 1.5;" width="219" x="731.5" y="53.95"/><ellipse cx="767.65" cy="69.95" fill="#ADD1B2" rx="11" ry="11" style="stroke: #A80036; stroke-width: 1.0;"/><path d="M770.1231,76.0931 Q769.5421,76.3919 768.9029,76.5413 Q768.2638,76.6907 767.5582,76.6907 Q765.0514,76.6907 763.7315,75.0389 Q762.4117,73.387 762.4117,70.2659 Q762.4117,67.1365 763.7315,65.4847 Q765.0514,63.8328 767.5582,63.8328 Q768.2638,63.8328 768.9112,63.9822 Q769.5587,64.1316 770.1231,64.4305 L770.1231,67.1531 Q769.4923,66.5721 768.8988,66.3023 Q768.3053,66.0325 767.6744,66.0325 Q766.3297,66.0325 765.6449,67.0992 Q764.9601,68.1658 764.9601,70.2659 Q764.9601,72.3577 765.6449,73.4244 Q766.3297,74.491 767.6744,74.491 Q768.3053,74.491 768.8988,74.2212 Q769.4923,73.9515 770.1231,73.3704 Z "/><text fill="#000000" font-family="sans-serif" font-size="12" lengthAdjust="spacingAndGlyphs" textLength="140" x="786.35" y="74.4852">JpaTransactionalContext</text><line style="stroke: #A80036; stroke-width: 1.5;" x1="732.5" x2="949.5" y1="85.95" y2="85.95"/><rect fill="none" height="6" style="stroke: #C82930; stroke-width: 1.0;" width="6" x="739.5" y="93.95"/><text fill="#000000" font-family="sans-serif" font-size="11" lengthAdjust="spacingAndGlyphs" text-decoration="underline" textLength="88" x="751.5" y="100.5848">LOGGER: Logger</text><rect fill="none" height="6" style="stroke: #C82930; stroke-width: 1.0;" width="6" x="739.5" y="106.9051"/><text fill="#000000" font-family="sans-serif" font-size="11" lengthAdjust="spacingAndGlyphs" textLength="152" x="751.5" y="113.5398">persistenceUnitName: String</text><rect fill="none" height="6" style="stroke: #C82930; stroke-width: 1.0;" width="6" x="739.5" y="119.8602"/><text fill="#000000" font-family="sans-serif" font-size="11" lengthAdjust="spacingAndGlyphs" text-decoration="underline" textLength="193" x="751.5" y="126.4949">singletonEMF: EntityManagerFactory</text><rect fill="none" height="6" style="stroke: #C82930; stroke-width: 1.0;" width="6" x="739.5" y="132.8152"/><text fill="#000000" font-family="sans-serif" font-size="11" lengthAdjust="spacingAndGlyphs" textLength="158" x="751.5" y="139.45">entityManager: EntityManager</text><rect fill="none" height="6" style="stroke: #C82930; stroke-width: 1.0;" width="6" x="739.5" y="145.7703"/><text fill="#000000" font-family="sans-serif" font-size="11" lengthAdjust="spacingAndGlyphs" textLength="84" x="751.5" y="152.4051">properties: Map</text><line style="stroke: #A80036; stroke-width: 1.5;" x1="732.5" x2="949.5" y1="158.7254" y2="158.7254"/><!--MD5=[794edea7655e05ac69c4241c1c73c240]
class eapli.exemplo.utentemanagement.repositories.UtenteRepository--><rect codeLine="78" fill="#FEFECE" filter="url(#f1gw3aclnwxz64)" height="86.8652" id="eapli.exemplo.utentemanagement.repositories.UtenteRepository" style="stroke: #A80036; stroke-width: 1.5;" width="422" x="1244" y="66.91"/><ellipse cx="1401.75" cy="82.91" fill="#B4A7E5" rx="11" ry="11" style="stroke: #A80036; stroke-width: 1.0;"/><path d="M1398.1777,79.1751 L1398.1777,77.0169 L1405.5571,77.0169 L1405.5571,79.1751 L1403.0918,79.1751 L1403.0918,87.2518 L1405.5571,87.2518 L1405.5571,89.41 L1398.1777,89.41 L1398.1777,87.2518 L1400.6431,87.2518 L1400.6431,79.1751 Z "/><text fill="#000000" font-family="sans-serif" font-size="12" font-style="italic" lengthAdjust="spacingAndGlyphs" textLength="98" x="1422.25" y="87.4452">UtenteRepository</text><line style="stroke: #A80036; stroke-width: 1.5;" x1="1245" x2="1665" y1="98.91" y2="98.91"/><line style="stroke: #A80036; stroke-width: 1.5;" x1="1245" x2="1665" y1="106.91" y2="106.91"/><ellipse cx="1255" cy="117.91" fill="#84BE84" rx="3" ry="3" style="stroke: #038048; stroke-width: 1.0;"/><text fill="#000000" font-family="sans-serif" font-size="11" font-style="italic" lengthAdjust="spacingAndGlyphs" textLength="254" x="1264" y="121.5448">findByUsername(Username): Optional&lt;Utente&gt;</text><ellipse cx="1255" cy="130.8651" fill="#84BE84" rx="3" ry="3" style="stroke: #038048; stroke-width: 1.0;"/><text fill="#000000" font-family="sans-serif" font-size="11" lengthAdjust="spacingAndGlyphs" textLength="396" x="1264" y="134.4998">findByMecanographicNumber(MecanographicNumber): Optional&lt;Utente&gt;</text><ellipse cx="1255" cy="143.8202" fill="#84BE84" rx="3" ry="3" style="stroke: #038048; stroke-width: 1.0;"/><text fill="#000000" font-family="sans-serif" font-size="11" font-style="italic" lengthAdjust="spacingAndGlyphs" textLength="175" x="1264" y="147.4549">findAllActive(): Iterable&lt;Utente&gt;</text><!--MD5=[396b46c1d4a3c126976427064cf287a0]
class eapli.exemplo.utentemanagement.repositories.SignupRequestRepository--><rect codeLine="83" fill="#FEFECE" filter="url(#f1gw3aclnwxz64)" height="60.9551" id="eapli.exemplo.utentemanagement.repositories.SignupRequestRepository" style="stroke: #A80036; stroke-width: 1.5;" width="308" x="1701" y="79.86"/><ellipse cx="1777.75" cy="95.86" fill="#B4A7E5" rx="11" ry="11" style="stroke: #A80036; stroke-width: 1.0;"/><path d="M1774.1777,92.1251 L1774.1777,89.9669 L1781.5571,89.9669 L1781.5571,92.1251 L1779.0918,92.1251 L1779.0918,100.2018 L1781.5571,100.2018 L1781.5571,102.36 L1774.1777,102.36 L1774.1777,100.2018 L1776.6431,100.2018 L1776.6431,92.1251 Z "/><text fill="#000000" font-family="sans-serif" font-size="12" font-style="italic" lengthAdjust="spacingAndGlyphs" textLength="146" x="1798.25" y="100.3952">SignupRequestRepository</text><line style="stroke: #A80036; stroke-width: 1.5;" x1="1702" x2="2008" y1="111.86" y2="111.86"/><line style="stroke: #A80036; stroke-width: 1.5;" x1="1702" x2="2008" y1="119.86" y2="119.86"/><ellipse cx="1712" cy="130.86" fill="#84BE84" rx="3" ry="3" style="stroke: #038048; stroke-width: 1.0;"/><text fill="#000000" font-family="sans-serif" font-size="11" font-style="italic" lengthAdjust="spacingAndGlyphs" textLength="282" x="1721" y="134.4948">pendingSignupRequests(): Iterable&lt;SignupRequest&gt;</text><!--MD5=[bd469d31060a426cd09efae453023e5d]
reverse link eapli.exemplo.infrastructure.persistence.RepositoryFactory to eapli.exemplo.persistence.impl.jpa.JpaRepositoryFactory--><path codeLine="41" d="M222,201.57 C222,219.22 222,237.47 222,254.28 " fill="none" id="eapli.exemplo.infrastructure.persistence.RepositoryFactory-backto-eapli.exemplo.persistence.impl.jpa.JpaRepositoryFactory" style="stroke: #A80036; stroke-width: 1.0; stroke-dasharray: 7.0,7.0;"/><polygon fill="none" points="215,201.58,222,181.58,229,201.58,215,201.58" style="stroke: #A80036; stroke-width: 1.0;"/><!--MD5=[11d764e5b53583feb1189d426e3dbab7]
reverse link eapli.framework.infrastructure.repositories.impl.jpa.JpaAutoTxRepository to eapli.exemplo.persistence.impl.jpa.JpaClientUserRepository--><path codeLine="42" d="M1157.42,159.36 C1179.71,174.04 1204.64,189.93 1228,203.68 C1265.03,225.48 1306.4,247.8 1343.57,267.15 " fill="none" id="eapli.framework.infrastructure.repositories.impl.jpa.JpaAutoTxRepository-backto-eapli.exemplo.persistence.impl.jpa.JpaClientUserRepository" style="stroke: #A80036; stroke-width: 1.0;"/><polygon fill="none" points="1153.84,165.38,1141.06,148.48,1161.59,153.73,1153.84,165.38" style="stroke: #A80036; stroke-width: 1.0;"/><!--MD5=[d47f5d69fa80d519911e27715f2661ec]
reverse link eapli.exemplo.utentemanagement.repositories.UtenteRepository to eapli.exemplo.persistence.impl.jpa.JpaClientUserRepository--><path codeLine="43" d="M1455,175.42 C1455,204.75 1455,239.16 1455,267.38 " fill="none" id="eapli.exemplo.utentemanagement.repositories.UtenteRepository-backto-eapli.exemplo.persistence.impl.jpa.JpaClientUserRepository" style="stroke: #A80036; stroke-width: 1.0; stroke-dasharray: 7.0,7.0;"/><polygon fill="none" points="1448,175.69,1455,155.69,1462,175.69,1448,175.69" style="stroke: #A80036; stroke-width: 1.0;"/><!--MD5=[d29dfd3b49410b8e8200a8de58488cc9]
reverse link eapli.framework.infrastructure.repositories.impl.jpa.JpaAutoTxRepository to eapli.exemplo.persistence.impl.jpa.JpaSignupRequestRepository--><path codeLine="44" d="M1145.44,160.24 C1169.47,177.38 1198.55,194.62 1228,203.68 C1276.32,218.56 1634.64,196.93 1683,211.68 C1728.25,225.49 1772.91,255 1805.38,280.17 " fill="none" id="eapli.framework.infrastructure.repositories.impl.jpa.JpaAutoTxRepository-backto-eapli.exemplo.persistence.impl.jpa.JpaSignupRequestRepository" style="stroke: #A80036; stroke-width: 1.0;"/><polygon fill="none" points="1141.55,166.07,1129.73,148.49,1149.94,154.86,1141.55,166.07" style="stroke: #A80036; stroke-width: 1.0;"/><!--MD5=[ad46ee2fb3d14432cfb97309a910b75c]
reverse link eapli.exemplo.utentemanagement.repositories.SignupRequestRepository to eapli.exemplo.persistence.impl.jpa.JpaSignupRequestRepository--><path codeLine="45" d="M1855,162.67 C1855,198.64 1855,246.16 1855,280.11 " fill="none" id="eapli.exemplo.utentemanagement.repositories.SignupRequestRepository-backto-eapli.exemplo.persistence.impl.jpa.JpaSignupRequestRepository" style="stroke: #A80036; stroke-width: 1.0; stroke-dasharray: 7.0,7.0;"/><polygon fill="none" points="1848,162.74,1855,142.74,1862,162.74,1848,162.74" style="stroke: #A80036; stroke-width: 1.0;"/><!--MD5=[c3ead442af2c0fa53b4af230f872e1b0]
reverse link eapli.framework.infrastructure.repositories.impl.jpa.JpaTransactionalRepository to eapli.exemplo.persistence.impl.jpa.BaseJpaRepositoryBase--><path codeLine="46" d="M577.36,156 C573.32,194.88 567.53,250.54 563.77,286.73 " fill="none" id="eapli.framework.infrastructure.repositories.impl.jpa.JpaTransactionalRepository-backto-eapli.exemplo.persistence.impl.jpa.BaseJpaRepositoryBase" style="stroke: #A80036; stroke-width: 1.0;"/><polygon fill="none" points="570.38,155.48,579.41,136.31,584.3,156.93,570.38,155.48" style="stroke: #A80036; stroke-width: 1.0;"/><!--MD5=[3931bc724f864d9f8e06ffff4a4671a0]
reverse link eapli.framework.infrastructure.repositories.impl.jpa.JpaTransactionalContext to eapli.exemplo.persistence.impl.jpa.ExemploJpaReportingRepositoryBase--><path codeLine="47" d="M840.64,188.29 C840.48,221.9 840.3,259.73 840.17,286.73 " fill="none" id="eapli.framework.infrastructure.repositories.impl.jpa.JpaTransactionalContext-backto-eapli.exemplo.persistence.impl.jpa.ExemploJpaReportingRepositoryBase" style="stroke: #A80036; stroke-width: 1.0;"/><polygon fill="none" points="833.64,188.44,840.73,168.47,847.64,188.51,833.64,188.44" style="stroke: #A80036; stroke-width: 1.0;"/><text fill="#888888" font-family="sans-serif" font-size="10" lengthAdjust="spacingAndGlyphs" textLength="188" x="920.5" y="425.038">UMLDoclet 2.0.12, PlantUML 1.2020.16</text><!--MD5=[03999b669f33767bb430c5a62110bdf5]
@startuml
    namespace eapli.exemplo.persistence.impl.jpa {

        class JpaRepositoryFactory [[JpaRepositoryFactory.html]] {
            +users(TransactionalContext): UserRepository
            +users(): UserRepository
            +utentes(TransactionalContext): JpaClientUserRepository
            +utentes(): JpaClientUserRepository
            +signupRequests(TransactionalContext): SignupRequestRepository
            +signupRequests(): SignupRequestRepository
            +newTransactionalContext(): TransactionalContext
        }

        class JpaClientUserRepository [[JpaClientUserRepository.html]] {
            +JpaClientUserRepository(TransactionalContext)
            +JpaClientUserRepository(String)
            +findByUsername(Username): Optional<Utente>
            +findByMecanographicNumber(MecanographicNumber): Optional<Utente>
            +findAllActive(): Iterable<Utente>
        }

        class JpaSignupRequestRepository [[JpaSignupRequestRepository.html]] {
            +JpaSignupRequestRepository(TransactionalContext)
            +JpaSignupRequestRepository(String)
            +pendingSignupRequests(): Iterable<SignupRequest>
        }

        class PersistenceSettings [[PersistenceSettings.html]] {
            {static} +PERSISTENCE_UNIT_NAME: String
        }

        class BaseJpaRepositoryBase<T, K, I> [[BaseJpaRepositoryBase.html]] {
            ~BaseJpaRepositoryBase(String, String)
            ~BaseJpaRepositoryBase(String)
        }

        class ExemploJpaReportingRepositoryBase [[ExemploJpaReportingRepositoryBase.html]] {
            ~ExemploJpaReportingRepositoryBase()
            ~ExemploJpaReportingRepositoryBase(String)
        }

        eapli.exemplo.infrastructure.persistence.RepositoryFactory <|.. JpaRepositoryFactory
        eapli.framework.infrastructure.repositories.impl.jpa.JpaAutoTxRepository <|- - JpaClientUserRepository
        eapli.exemplo.utentemanagement.repositories.UtenteRepository <|.. JpaClientUserRepository
        eapli.framework.infrastructure.repositories.impl.jpa.JpaAutoTxRepository <|- - JpaSignupRequestRepository
        eapli.exemplo.utentemanagement.repositories.SignupRequestRepository <|.. JpaSignupRequestRepository
        eapli.framework.infrastructure.repositories.impl.jpa.JpaTransactionalRepository <|- - BaseJpaRepositoryBase
        eapli.framework.infrastructure.repositories.impl.jpa.JpaTransactionalContext <|- - ExemploJpaReportingRepositoryBase
    }

    namespace eapli.exemplo.infrastructure.persistence {
        interface RepositoryFactory {
            {abstract} +newTransactionalContext(): TransactionalContext
            {abstract} +users(TransactionalContext): UserRepository
            {abstract} +users(): UserRepository
            {abstract} +utentes(TransactionalContext): UtenteRepository
            {abstract} +utentes(): UtenteRepository
            {abstract} +signupRequests(TransactionalContext): SignupRequestRepository
            {abstract} +signupRequests(): SignupRequestRepository
        }
    }

    namespace eapli.framework.infrastructure.repositories.impl.jpa {
        class JpaAutoTxRepository<T, K, I> {
            #repo: JpaBaseRepository<T, K, I>
            -autoTx: TransactionalContext
        }
        class JpaTransactionalRepository<T, K, I>
        class JpaTransactionalContext {
            {static} -LOGGER: Logger
            -persistenceUnitName: String
            {static} -singletonEMF: EntityManagerFactory
            -entityManager: EntityManager
            -properties: Map
        }
    }

    namespace eapli.exemplo.utentemanagement.repositories {
        interface UtenteRepository {
            {abstract} +findByUsername(Username): Optional<Utente>
            +findByMecanographicNumber(MecanographicNumber): Optional<Utente>
            {abstract} +findAllActive(): Iterable<Utente>
        }
        interface SignupRequestRepository {
            {abstract} +pendingSignupRequests(): Iterable<SignupRequest>
        }
    }

    center footer UMLDoclet 2.0.12, PlantUML 1.2020.16
@enduml

PlantUML version 1.2020.16(Sun Aug 23 21:20:43 WEST 2020)
(APACHE source distribution)
Java Runtime: OpenJDK Runtime Environment
JVM: OpenJDK 64-Bit Server VM
Default Encoding: UTF-8
Language: en
Country: US
--></g></svg>