<?xml version="1.0" encoding="UTF-8" standalone="no"?><svg xmlns="http://www.w3.org/2000/svg" xmlns:xlink="http://www.w3.org/1999/xlink" contentScriptType="application/ecmascript" contentStyleType="text/css" height="332px" preserveAspectRatio="none" style="width:350px;height:332px;" version="1.1" viewBox="0 0 350 332" width="350px" zoomAndPan="magnify"><defs><filter height="300%" id="f1w7woekm73udn" width="300%" x="-1" y="-1"><feGaussianBlur result="blurOut" stdDeviation="2.0"/><feColorMatrix in="blurOut" result="blurOut2" type="matrix" values="0 0 0 0 0 0 0 0 0 0 0 0 0 0 0 0 0 0 .4 0"/><feOffset dx="4.0" dy="4.0" in="blurOut2" result="blurOut3"/><feBlend in="SourceGraphic" in2="blurOut3" mode="normal"/></filter></defs><g><!--MD5=[f2749a1fd3813be5d9a2b8ad140b9a4f]
class eapli.exemplo.usermanagement.domain.ExemploPasswordPolicy--><a href="ExemploPasswordPolicy.html" target="_top" title="ExemploPasswordPolicy.html" xlink:actuate="onRequest" xlink:href="ExemploPasswordPolicy.html" xlink:show="new" xlink:title="ExemploPasswordPolicy.html" xlink:type="simple"><rect codeLine="5" fill="#FEFECE" filter="url(#f1w7woekm73udn)" height="72.1758" id="eapli.exemplo.usermanagement.domain.ExemploPasswordPolicy" style="stroke: #A80036; stroke-width: 1.5;" width="228" x="55" y="126.22"/><ellipse cx="70" cy="145.3528" fill="#ADD1B2" rx="11" ry="11" style="stroke: #A80036; stroke-width: 1.0;"/><path d="M72.4731,151.4959 Q71.8921,151.7947 71.2529,151.9441 Q70.6138,152.0935 69.9082,152.0935 Q67.4014,152.0935 66.0815,150.4417 Q64.7617,148.7898 64.7617,145.6687 Q64.7617,142.5393 66.0815,140.8875 Q67.4014,139.2356 69.9082,139.2356 Q70.6138,139.2356 71.2612,139.385 Q71.9087,139.5345 72.4731,139.8333 L72.4731,142.5559 Q71.8423,141.9749 71.2488,141.7051 Q70.6553,141.4353 70.0244,141.4353 Q68.6797,141.4353 67.9949,142.502 Q67.3101,143.5686 67.3101,145.6687 Q67.3101,147.7605 67.9949,148.8272 Q68.6797,149.8938 70.0244,149.8938 Q70.6553,149.8938 71.2488,149.6241 Q71.8423,149.3543 72.4731,148.7732 Z "/><text fill="#000000" font-family="sans-serif" font-size="14" lengthAdjust="spacingAndGlyphs" textLength="164" x="100" y="144.7552">ExemploPasswordPolicy</text><text fill="#000000" font-family="sans-serif" font-size="10" lengthAdjust="spacingAndGlyphs" textLength="196" x="84" y="157.3763">eapli.exemplo.usermanagement.domain</text><line style="stroke: #A80036; stroke-width: 1.5;" x1="56" x2="282" y1="164.4856" y2="164.4856"/><ellipse cx="66" cy="175.4856" fill="#84BE84" rx="3" ry="3" style="stroke: #038048; stroke-width: 1.0;"/><text fill="#000000" font-family="sans-serif" font-size="11" lengthAdjust="spacingAndGlyphs" textLength="155" x="75" y="179.1204">isSatisfiedBy(String): boolean</text><ellipse cx="66" cy="188.4407" fill="#84BE84" rx="3" ry="3" style="stroke: #038048; stroke-width: 1.0;"/><text fill="#000000" font-family="sans-serif" font-size="11" lengthAdjust="spacingAndGlyphs" textLength="189" x="75" y="192.0755">strength(String): PasswordStrength</text></a><!--MD5=[23b0d82976490145b24e374b90d48b59]
class eapli.framework.infrastructure.authz.domain.model.PasswordPolicy--><rect codeLine="10" fill="#FEFECE" filter="url(#f1w7woekm73udn)" height="59.2207" id="eapli.framework.infrastructure.authz.domain.model.PasswordPolicy" style="stroke: #A80036; stroke-width: 1.5;" width="285" x="26.5" y="7"/><ellipse cx="41.5" cy="26.1328" fill="#B4A7E5" rx="11" ry="11" style="stroke: #A80036; stroke-width: 1.0;"/><path d="M37.9277,22.3979 L37.9277,20.2397 L45.3071,20.2397 L45.3071,22.3979 L42.8418,22.3979 L42.8418,30.4746 L45.3071,30.4746 L45.3071,32.6328 L37.9277,32.6328 L37.9277,30.4746 L40.3931,30.4746 L40.3931,22.3979 Z "/><text fill="#000000" font-family="sans-serif" font-size="14" font-style="italic" lengthAdjust="spacingAndGlyphs" textLength="104" x="130" y="25.5352">PasswordPolicy</text><text fill="#000000" font-family="sans-serif" font-size="10" font-style="italic" lengthAdjust="spacingAndGlyphs" textLength="253" x="55.5" y="38.1563">eapli.framework.infrastructure.authz.domain.model</text><line style="stroke: #A80036; stroke-width: 1.5;" x1="27.5" x2="310.5" y1="45.2656" y2="45.2656"/><ellipse cx="37.5" cy="56.2656" fill="#84BE84" rx="3" ry="3" style="stroke: #038048; stroke-width: 1.0;"/><text fill="#000000" font-family="sans-serif" font-size="11" font-style="italic" lengthAdjust="spacingAndGlyphs" textLength="155" x="46.5" y="59.9004">isSatisfiedBy(String): boolean</text><!--MD5=[b596c67365e8028098ac4e3792875582]
class eapli.exemplo.usermanagement.domain.ExemploPasswordPolicy.PasswordStrength--><a href="ExemploPasswordPolicy.PasswordStrength.html" target="_top" title="ExemploPasswordPolicy.PasswordStrength.html" xlink:actuate="onRequest" xlink:href="ExemploPasswordPolicy.PasswordStrength.html" xlink:show="new" xlink:title="ExemploPasswordPolicy.PasswordStrength.html" xlink:type="simple"><rect codeLine="13" fill="#FEFECE" filter="url(#f1w7woekm73udn)" height="38.2656" id="eapli.exemplo.usermanagement.domain.ExemploPasswordPolicy.PasswordStrength" style="stroke: #A80036; stroke-width: 1.5;" width="324" x="7" y="258.39"/><ellipse cx="22" cy="277.5228" fill="#EB937F" rx="11" ry="11" style="stroke: #A80036; stroke-width: 1.0;"/><path d="M25.6143,284.0228 L17.8945,284.0228 L17.8945,271.6297 L25.6143,271.6297 L25.6143,273.7879 L20.3433,273.7879 L20.3433,276.4608 L25.1162,276.4608 L25.1162,278.619 L20.3433,278.619 L20.3433,281.8646 L25.6143,281.8646 Z "/><text fill="#000000" font-family="sans-serif" font-size="14" lengthAdjust="spacingAndGlyphs" textLength="292" x="36" y="276.9252">ExemploPasswordPolicy.PasswordStrength</text><text fill="#000000" font-family="sans-serif" font-size="10" lengthAdjust="spacingAndGlyphs" textLength="196" x="84" y="289.5463">eapli.exemplo.usermanagement.domain</text></a><!--MD5=[3ce71ff8fa49254cf1c59563d3c79ed9]
reverse link eapli.framework.infrastructure.authz.domain.model.PasswordPolicy to eapli.exemplo.usermanagement.domain.ExemploPasswordPolicy--><path codeLine="15" d="M169,87.72 C169,100.5 169,113.98 169,125.86 " fill="none" id="eapli.framework.infrastructure.authz.domain.model.PasswordPolicy-backto-eapli.exemplo.usermanagement.domain.ExemploPasswordPolicy" style="stroke: #A80036; stroke-width: 1.0; stroke-dasharray: 7.0,7.0;"/><polygon fill="none" points="162,88.12,169,68.12,176,88.12,162,88.12" style="stroke: #A80036; stroke-width: 1.0;"/><!--MD5=[3d651178260917a7606d33a40eb0cffd]
reverse link eapli.exemplo.usermanagement.domain.ExemploPasswordPolicy to eapli.exemplo.usermanagement.domain.ExemploPasswordPolicy.PasswordStrength--><path codeLine="16" d="M169,215.04 C169,230.37 169,246.17 169,257.92 " fill="none" id="eapli.exemplo.usermanagement.domain.ExemploPasswordPolicy-backto-eapli.exemplo.usermanagement.domain.ExemploPasswordPolicy.PasswordStrength" style="stroke: #A80036; stroke-width: 1.0;"/><ellipse cx="169" cy="208.33" fill="#FFFFFF" rx="8" ry="8" style="stroke: #A80036; stroke-width: 1.0;"/><line style="stroke: #A80036; stroke-width: 1.0;" x1="169" x2="169" y1="216.33" y2="200.33"/><line style="stroke: #A80036; stroke-width: 1.0;" x1="161" x2="177" y1="208.33" y2="208.33"/><text fill="#888888" font-family="sans-serif" font-size="10" lengthAdjust="spacingAndGlyphs" textLength="188" x="72" y="319.3236">UMLDoclet 2.0.12, PlantUML 1.2020.16</text><!--MD5=[d43de75c2edb5dc400ba5854c1550ab2]
@startuml
    set namespaceSeparator none
    hide empty fields
    hide empty methods

    class "<size:14>ExemploPasswordPolicy\n<size:10>eapli.exemplo.usermanagement.domain" as eapli.exemplo.usermanagement.domain.ExemploPasswordPolicy [[ExemploPasswordPolicy.html]] {
        +isSatisfiedBy(String): boolean
        +strength(String): PasswordStrength
    }

    interface "<size:14>PasswordPolicy\n<size:10>eapli.framework.infrastructure.authz.domain.model" as eapli.framework.infrastructure.authz.domain.model.PasswordPolicy {
        {abstract} +isSatisfiedBy(String): boolean
    }
    enum "<size:14>ExemploPasswordPolicy.PasswordStrength\n<size:10>eapli.exemplo.usermanagement.domain" as eapli.exemplo.usermanagement.domain.ExemploPasswordPolicy.PasswordStrength [[ExemploPasswordPolicy.PasswordStrength.html]]

    eapli.framework.infrastructure.authz.domain.model.PasswordPolicy <|.. eapli.exemplo.usermanagement.domain.ExemploPasswordPolicy
    eapli.exemplo.usermanagement.domain.ExemploPasswordPolicy +- - eapli.exemplo.usermanagement.domain.ExemploPasswordPolicy.PasswordStrength

    center footer UMLDoclet 2.0.12, PlantUML 1.2020.16
@enduml

PlantUML version 1.2020.16(Sun Aug 23 21:20:43 WEST 2020)
(APACHE source distribution)
Java Runtime: OpenJDK Runtime Environment
JVM: OpenJDK 64-Bit Server VM
Default Encoding: UTF-8
Language: en
Country: US
--></g></svg>