<?xml version="1.0" encoding="UTF-8" standalone="no"?><svg xmlns="http://www.w3.org/2000/svg" xmlns:xlink="http://www.w3.org/1999/xlink" contentScriptType="application/ecmascript" contentStyleType="text/css" height="226px" preserveAspectRatio="none" style="width:350px;height:226px;" version="1.1" viewBox="0 0 350 226" width="350px" zoomAndPan="magnify"><defs><filter height="300%" id="f1mj27red3nsq1" width="300%" x="-1" y="-1"><feGaussianBlur result="blurOut" stdDeviation="2.0"/><feColorMatrix in="blurOut" result="blurOut2" type="matrix" values="0 0 0 0 0 0 0 0 0 0 0 0 0 0 0 0 0 0 .4 0"/><feOffset dx="4.0" dy="4.0" in="blurOut2" result="blurOut3"/><feBlend in="SourceGraphic" in2="blurOut3" mode="normal"/></filter></defs><g><!--MD5=[b596c67365e8028098ac4e3792875582]
class eapli.exemplo.usermanagement.domain.ExemploPasswordPolicy.PasswordStrength--><a href="ExemploPasswordPolicy.PasswordStrength.html" target="_top" title="ExemploPasswordPolicy.PasswordStrength.html" xlink:actuate="onRequest" xlink:href="ExemploPasswordPolicy.PasswordStrength.html" xlink:show="new" xlink:title="ExemploPasswordPolicy.PasswordStrength.html" xlink:type="simple"><rect codeLine="5" fill="#FEFECE" filter="url(#f1mj27red3nsq1)" height="85.1309" id="eapli.exemplo.usermanagement.domain.ExemploPasswordPolicy.PasswordStrength" style="stroke: #A80036; stroke-width: 1.5;" width="324" x="7" y="105.27"/><ellipse cx="22" cy="124.4028" fill="#EB937F" rx="11" ry="11" style="stroke: #A80036; stroke-width: 1.0;"/><path d="M25.6143,130.9028 L17.8945,130.9028 L17.8945,118.5097 L25.6143,118.5097 L25.6143,120.6679 L20.3433,120.6679 L20.3433,123.3408 L25.1162,123.3408 L25.1162,125.499 L20.3433,125.499 L20.3433,128.7446 L25.6143,128.7446 Z "/><text fill="#000000" font-family="sans-serif" font-size="14" lengthAdjust="spacingAndGlyphs" textLength="292" x="36" y="123.8052">ExemploPasswordPolicy.PasswordStrength</text><text fill="#000000" font-family="sans-serif" font-size="10" lengthAdjust="spacingAndGlyphs" textLength="196" x="84" y="136.4263">eapli.exemplo.usermanagement.domain</text><line style="stroke: #A80036; stroke-width: 1.5;" x1="8" x2="330" y1="143.5356" y2="143.5356"/><ellipse cx="18" cy="154.5356" fill="none" rx="3" ry="3" style="stroke: #038048; stroke-width: 1.0;"/><text fill="#000000" font-family="sans-serif" font-size="11" lengthAdjust="spacingAndGlyphs" text-decoration="underline" textLength="30" x="27" y="158.1704">WEAK</text><ellipse cx="18" cy="167.4907" fill="none" rx="3" ry="3" style="stroke: #038048; stroke-width: 1.0;"/><text fill="#000000" font-family="sans-serif" font-size="11" lengthAdjust="spacingAndGlyphs" text-decoration="underline" textLength="34" x="27" y="171.1255">GOOD</text><ellipse cx="18" cy="180.4458" fill="none" rx="3" ry="3" style="stroke: #038048; stroke-width: 1.0;"/><text fill="#000000" font-family="sans-serif" font-size="11" lengthAdjust="spacingAndGlyphs" text-decoration="underline" textLength="54" x="27" y="184.0805">EXCELENT</text></a><!--MD5=[f2749a1fd3813be5d9a2b8ad140b9a4f]
class eapli.exemplo.usermanagement.domain.ExemploPasswordPolicy--><a href="ExemploPasswordPolicy.html" target="_top" title="ExemploPasswordPolicy.html" xlink:actuate="onRequest" xlink:href="ExemploPasswordPolicy.html" xlink:show="new" xlink:title="ExemploPasswordPolicy.html" xlink:type="simple"><rect codeLine="11" fill="#FEFECE" filter="url(#f1mj27red3nsq1)" height="38.2656" id="eapli.exemplo.usermanagement.domain.ExemploPasswordPolicy" style="stroke: #A80036; stroke-width: 1.5;" width="228" x="55" y="7"/><ellipse cx="70" cy="26.1328" fill="#ADD1B2" rx="11" ry="11" style="stroke: #A80036; stroke-width: 1.0;"/><path d="M72.4731,32.2759 Q71.8921,32.5747 71.2529,32.7241 Q70.6138,32.8735 69.9082,32.8735 Q67.4014,32.8735 66.0815,31.2217 Q64.7617,29.5698 64.7617,26.4487 Q64.7617,23.3193 66.0815,21.6675 Q67.4014,20.0156 69.9082,20.0156 Q70.6138,20.0156 71.2612,20.165 Q71.9087,20.3145 72.4731,20.6133 L72.4731,23.3359 Q71.8423,22.7549 71.2488,22.4851 Q70.6553,22.2153 70.0244,22.2153 Q68.6797,22.2153 67.9949,23.282 Q67.3101,24.3486 67.3101,26.4487 Q67.3101,28.5405 67.9949,29.6072 Q68.6797,30.6738 70.0244,30.6738 Q70.6553,30.6738 71.2488,30.4041 Q71.8423,30.1343 72.4731,29.5532 Z "/><text fill="#000000" font-family="sans-serif" font-size="14" lengthAdjust="spacingAndGlyphs" textLength="164" x="100" y="25.5352">ExemploPasswordPolicy</text><text fill="#000000" font-family="sans-serif" font-size="10" lengthAdjust="spacingAndGlyphs" textLength="196" x="84" y="38.1563">eapli.exemplo.usermanagement.domain</text></a><!--MD5=[3d651178260917a7606d33a40eb0cffd]
reverse link eapli.exemplo.usermanagement.domain.ExemploPasswordPolicy to eapli.exemplo.usermanagement.domain.ExemploPasswordPolicy.PasswordStrength--><path codeLine="13" d="M169,61.75 C169,75.2 169,90.72 169,104.79 " fill="none" id="eapli.exemplo.usermanagement.domain.ExemploPasswordPolicy-backto-eapli.exemplo.usermanagement.domain.ExemploPasswordPolicy.PasswordStrength" style="stroke: #A80036; stroke-width: 1.0;"/><ellipse cx="169" cy="55.09" fill="#FFFFFF" rx="8" ry="8" style="stroke: #A80036; stroke-width: 1.0;"/><line style="stroke: #A80036; stroke-width: 1.0;" x1="169" x2="169" y1="63.09" y2="47.09"/><line style="stroke: #A80036; stroke-width: 1.0;" x1="161" x2="177" y1="55.09" y2="55.09"/><text fill="#888888" font-family="sans-serif" font-size="10" lengthAdjust="spacingAndGlyphs" textLength="188" x="72" y="213.0688">UMLDoclet 2.0.12, PlantUML 1.2020.16</text><!--MD5=[f834303207ce70327c4cad02259c832c]
@startuml
    set namespaceSeparator none
    hide empty fields
    hide empty methods

    enum "<size:14>ExemploPasswordPolicy.PasswordStrength\n<size:10>eapli.exemplo.usermanagement.domain" as eapli.exemplo.usermanagement.domain.ExemploPasswordPolicy.PasswordStrength [[ExemploPasswordPolicy.PasswordStrength.html]] {
        {static} +WEAK
        {static} +GOOD
        {static} +EXCELENT
    }

    class "<size:14>ExemploPasswordPolicy\n<size:10>eapli.exemplo.usermanagement.domain" as eapli.exemplo.usermanagement.domain.ExemploPasswordPolicy [[ExemploPasswordPolicy.html]]

    eapli.exemplo.usermanagement.domain.ExemploPasswordPolicy +- - eapli.exemplo.usermanagement.domain.ExemploPasswordPolicy.PasswordStrength

    center footer UMLDoclet 2.0.12, PlantUML 1.2020.16
@enduml

PlantUML version 1.2020.16(Sun Aug 23 21:20:43 WEST 2020)
(APACHE source distribution)
Java Runtime: OpenJDK Runtime Environment
JVM: OpenJDK 64-Bit Server VM
Default Encoding: UTF-8
Language: en
Country: US
--></g></svg>