<?xml version="1.0" encoding="UTF-8" standalone="no"?><svg xmlns="http://www.w3.org/2000/svg" xmlns:xlink="http://www.w3.org/1999/xlink" contentScriptType="application/ecmascript" contentStyleType="text/css" height="520px" preserveAspectRatio="none" style="width:807px;height:520px;" version="1.1" viewBox="0 0 807 520" width="807px" zoomAndPan="magnify"><defs><filter height="300%" id="fkyhq9nw8nkin" width="300%" x="-1" y="-1"><feGaussianBlur result="blurOut" stdDeviation="2.0"/><feColorMatrix in="blurOut" result="blurOut2" type="matrix" values="0 0 0 0 0 0 0 0 0 0 0 0 0 0 0 0 0 0 .4 0"/><feOffset dx="4.0" dy="4.0" in="blurOut2" result="blurOut3"/><feBlend in="SourceGraphic" in2="blurOut3" mode="normal"/></filter></defs><g><!--MD5=[6cba2d442fba530a178ce9764077994e]
cluster eapli.exemplo.usermanagement.domain--><polygon fill="#FFFFFF" filter="url(#fkyhq9nw8nkin)" points="16,141.95,305,141.95,312,164.4383,785,164.4383,785,491.46,16,491.46,16,141.95" style="stroke: #000000; stroke-width: 1.5;"/><line style="stroke: #000000; stroke-width: 1.5;" x1="16" x2="312" y1="164.4383" y2="164.4383"/><text fill="#000000" font-family="sans-serif" font-size="14" font-weight="bold" lengthAdjust="spacingAndGlyphs" textLength="283" x="20" y="157.4852">eapli.exemplo.usermanagement.domain</text><!--MD5=[06129cbc3ecb3683da61ed6aef9f042c]
cluster eapli.framework.infrastructure.authz.domain.model--><polygon fill="#FFFFFF" filter="url(#fkyhq9nw8nkin)" points="205,6,577,6,584,28.4883,587,28.4883,587,117.95,205,117.95,205,6" style="stroke: #000000; stroke-width: 1.5;"/><line style="stroke: #000000; stroke-width: 1.5;" x1="205" x2="584" y1="28.4883" y2="28.4883"/><text fill="#000000" font-family="sans-serif" font-size="14" font-weight="bold" lengthAdjust="spacingAndGlyphs" textLength="366" x="209" y="21.5352">eapli.framework.infrastructure.authz.domain.model</text><!--MD5=[302e732741fce45469dde512a8ee7ff6]
class eapli.exemplo.usermanagement.domain.ExemploRoles--><a href="ExemploRoles.html" target="_top" title="ExemploRoles.html" xlink:actuate="onRequest" xlink:href="ExemploRoles.html" xlink:show="new" xlink:title="ExemploRoles.html" xlink:type="simple"><rect codeLine="3" fill="#FEFECE" filter="url(#fkyhq9nw8nkin)" height="151.6406" id="eapli.exemplo.usermanagement.domain.ExemploRoles" style="stroke: #A80036; stroke-width: 1.5;" width="222" x="32" y="176.95"/><ellipse cx="98.25" cy="192.95" fill="#ADD1B2" rx="11" ry="11" style="stroke: #A80036; stroke-width: 1.0;"/><path d="M100.7231,199.0931 Q100.1421,199.3919 99.5029,199.5413 Q98.8638,199.6907 98.1582,199.6907 Q95.6514,199.6907 94.3315,198.0389 Q93.0117,196.387 93.0117,193.2659 Q93.0117,190.1365 94.3315,188.4847 Q95.6514,186.8328 98.1582,186.8328 Q98.8638,186.8328 99.5112,186.9822 Q100.1587,187.1316 100.7231,187.4305 L100.7231,190.1531 Q100.0923,189.5721 99.4988,189.3023 Q98.9053,189.0325 98.2744,189.0325 Q96.9297,189.0325 96.2449,190.0992 Q95.5601,191.1658 95.5601,193.2659 Q95.5601,195.3577 96.2449,196.4244 Q96.9297,197.491 98.2744,197.491 Q98.9053,197.491 99.4988,197.2212 Q100.0923,196.9515 100.7231,196.3704 Z "/><text fill="#000000" font-family="sans-serif" font-size="12" lengthAdjust="spacingAndGlyphs" textLength="81" x="118.75" y="197.4852">ExemploRoles</text><line style="stroke: #A80036; stroke-width: 1.5;" x1="33" x2="253" y1="208.95" y2="208.95"/><ellipse cx="43" cy="219.95" fill="none" rx="3" ry="3" style="stroke: #038048; stroke-width: 1.0;"/><text fill="#000000" font-family="sans-serif" font-size="11" lengthAdjust="spacingAndGlyphs" text-decoration="underline" textLength="99" x="52" y="223.5848">POWER_USER: Role</text><ellipse cx="43" cy="232.9051" fill="none" rx="3" ry="3" style="stroke: #038048; stroke-width: 1.0;"/><text fill="#000000" font-family="sans-serif" font-size="11" lengthAdjust="spacingAndGlyphs" text-decoration="underline" textLength="71" x="52" y="236.5398">UTENTE: Role</text><ellipse cx="43" cy="245.8602" fill="none" rx="3" ry="3" style="stroke: #038048; stroke-width: 1.0;"/><text fill="#000000" font-family="sans-serif" font-size="11" lengthAdjust="spacingAndGlyphs" text-decoration="underline" textLength="65" x="52" y="249.4949">ADMIN: Role</text><ellipse cx="43" cy="258.8152" fill="none" rx="3" ry="3" style="stroke: #038048; stroke-width: 1.0;"/><text fill="#000000" font-family="sans-serif" font-size="11" lengthAdjust="spacingAndGlyphs" text-decoration="underline" textLength="143" x="52" y="262.45">SAMPLE_1_MANAGER: Role</text><ellipse cx="43" cy="271.7703" fill="none" rx="3" ry="3" style="stroke: #038048; stroke-width: 1.0;"/><text fill="#000000" font-family="sans-serif" font-size="11" lengthAdjust="spacingAndGlyphs" text-decoration="underline" textLength="196" x="52" y="275.4051">ANOTHER_EXAMPLE_MANAGER: Role</text><ellipse cx="43" cy="284.7254" fill="none" rx="3" ry="3" style="stroke: #038048; stroke-width: 1.0;"/><text fill="#000000" font-family="sans-serif" font-size="11" lengthAdjust="spacingAndGlyphs" text-decoration="underline" textLength="120" x="52" y="288.3602">OTHER_EXAMPLE: Role</text><line style="stroke: #A80036; stroke-width: 1.5;" x1="33" x2="253" y1="294.6805" y2="294.6805"/><ellipse cx="43" cy="305.6805" fill="#84BE84" rx="3" ry="3" style="stroke: #038048; stroke-width: 1.0;"/><text fill="#000000" font-family="sans-serif" font-size="11" lengthAdjust="spacingAndGlyphs" text-decoration="underline" textLength="126" x="52" y="309.3152">nonUserValues(): Role[]</text><ellipse cx="43" cy="318.6355" fill="#84BE84" rx="3" ry="3" style="stroke: #038048; stroke-width: 1.0;"/><text fill="#000000" font-family="sans-serif" font-size="11" lengthAdjust="spacingAndGlyphs" textLength="157" x="52" y="322.2703">isCollaborator(Role): boolean</text></a><!--MD5=[f2749a1fd3813be5d9a2b8ad140b9a4f]
class eapli.exemplo.usermanagement.domain.ExemploPasswordPolicy--><a href="ExemploPasswordPolicy.html" target="_top" title="ExemploPasswordPolicy.html" xlink:actuate="onRequest" xlink:href="ExemploPasswordPolicy.html" xlink:show="new" xlink:title="ExemploPasswordPolicy.html" xlink:type="simple"><rect codeLine="14" fill="#FEFECE" filter="url(#fkyhq9nw8nkin)" height="73.9102" id="eapli.exemplo.usermanagement.domain.ExemploPasswordPolicy" style="stroke: #A80036; stroke-width: 1.5;" width="215" x="288.5" y="215.82"/><ellipse cx="324.2" cy="231.82" fill="#ADD1B2" rx="11" ry="11" style="stroke: #A80036; stroke-width: 1.0;"/><path d="M326.6731,237.9631 Q326.0921,238.2619 325.4529,238.4113 Q324.8138,238.5607 324.1082,238.5607 Q321.6014,238.5607 320.2815,236.9089 Q318.9617,235.257 318.9617,232.1359 Q318.9617,229.0065 320.2815,227.3547 Q321.6014,225.7028 324.1082,225.7028 Q324.8138,225.7028 325.4612,225.8522 Q326.1087,226.0016 326.6731,226.3005 L326.6731,229.0231 Q326.0423,228.4421 325.4488,228.1723 Q324.8553,227.9025 324.2244,227.9025 Q322.8797,227.9025 322.1949,228.9692 Q321.5101,230.0358 321.5101,232.1359 Q321.5101,234.2277 322.1949,235.2944 Q322.8797,236.361 324.2244,236.361 Q324.8553,236.361 325.4488,236.0912 Q326.0423,235.8215 326.6731,235.2404 Z "/><text fill="#000000" font-family="sans-serif" font-size="12" lengthAdjust="spacingAndGlyphs" textLength="137" x="342.8" y="236.3552">ExemploPasswordPolicy</text><line style="stroke: #A80036; stroke-width: 1.5;" x1="289.5" x2="502.5" y1="247.82" y2="247.82"/><line style="stroke: #A80036; stroke-width: 1.5;" x1="289.5" x2="502.5" y1="255.82" y2="255.82"/><ellipse cx="299.5" cy="266.82" fill="#84BE84" rx="3" ry="3" style="stroke: #038048; stroke-width: 1.0;"/><text fill="#000000" font-family="sans-serif" font-size="11" lengthAdjust="spacingAndGlyphs" textLength="155" x="308.5" y="270.4548">isSatisfiedBy(String): boolean</text><ellipse cx="299.5" cy="279.7751" fill="#84BE84" rx="3" ry="3" style="stroke: #038048; stroke-width: 1.0;"/><text fill="#000000" font-family="sans-serif" font-size="11" lengthAdjust="spacingAndGlyphs" textLength="189" x="308.5" y="283.4098">strength(String): PasswordStrength</text></a><!--MD5=[b596c67365e8028098ac4e3792875582]
class eapli.exemplo.usermanagement.domain.ExemploPasswordPolicy.PasswordStrength--><a href="ExemploPasswordPolicy.PasswordStrength.html" target="_top" title="ExemploPasswordPolicy.PasswordStrength.html" xlink:actuate="onRequest" xlink:href="ExemploPasswordPolicy.PasswordStrength.html" xlink:show="new" xlink:title="ExemploPasswordPolicy.PasswordStrength.html" xlink:type="simple"><rect codeLine="19" fill="#FEFECE" filter="url(#fkyhq9nw8nkin)" height="86.8652" id="eapli.exemplo.usermanagement.domain.ExemploPasswordPolicy.PasswordStrength" style="stroke: #A80036; stroke-width: 1.5;" width="275" x="258.5" y="388.59"/><ellipse cx="273.5" cy="404.59" fill="#EB937F" rx="11" ry="11" style="stroke: #A80036; stroke-width: 1.0;"/><path d="M277.1143,411.09 L269.3945,411.09 L269.3945,398.6969 L277.1143,398.6969 L277.1143,400.8551 L271.8433,400.8551 L271.8433,403.528 L276.6162,403.528 L276.6162,405.6862 L271.8433,405.6862 L271.8433,408.9318 L277.1143,408.9318 Z "/><text fill="#000000" font-family="sans-serif" font-size="12" lengthAdjust="spacingAndGlyphs" textLength="243" x="287.5" y="409.1252">ExemploPasswordPolicy.PasswordStrength</text><line style="stroke: #A80036; stroke-width: 1.5;" x1="259.5" x2="532.5" y1="420.59" y2="420.59"/><ellipse cx="269.5" cy="431.59" fill="none" rx="3" ry="3" style="stroke: #038048; stroke-width: 1.0;"/><text fill="#000000" font-family="sans-serif" font-size="11" lengthAdjust="spacingAndGlyphs" text-decoration="underline" textLength="30" x="278.5" y="435.2248">WEAK</text><ellipse cx="269.5" cy="444.5451" fill="none" rx="3" ry="3" style="stroke: #038048; stroke-width: 1.0;"/><text fill="#000000" font-family="sans-serif" font-size="11" lengthAdjust="spacingAndGlyphs" text-decoration="underline" textLength="34" x="278.5" y="448.1798">GOOD</text><ellipse cx="269.5" cy="457.5002" fill="none" rx="3" ry="3" style="stroke: #038048; stroke-width: 1.0;"/><text fill="#000000" font-family="sans-serif" font-size="11" lengthAdjust="spacingAndGlyphs" text-decoration="underline" textLength="54" x="278.5" y="461.1349">EXCELENT</text><line style="stroke: #A80036; stroke-width: 1.5;" x1="259.5" x2="532.5" y1="467.4552" y2="467.4552"/></a><!--MD5=[12f36d7b6b82d202947a38ed224d53f0]
class eapli.exemplo.usermanagement.domain.UserBuilderHelper--><a href="UserBuilderHelper.html" target="_top" title="UserBuilderHelper.html" xlink:actuate="onRequest" xlink:href="UserBuilderHelper.html" xlink:show="new" xlink:title="UserBuilderHelper.html" xlink:type="simple"><rect codeLine="25" fill="#FEFECE" filter="url(#fkyhq9nw8nkin)" height="73.9102" id="eapli.exemplo.usermanagement.domain.UserBuilderHelper" style="stroke: #A80036; stroke-width: 1.5;" width="231" x="538.5" y="215.82"/><ellipse cx="597.25" cy="231.82" fill="#ADD1B2" rx="11" ry="11" style="stroke: #A80036; stroke-width: 1.0;"/><path d="M599.7231,237.9631 Q599.1421,238.2619 598.5029,238.4113 Q597.8638,238.5607 597.1582,238.5607 Q594.6514,238.5607 593.3315,236.9089 Q592.0117,235.257 592.0117,232.1359 Q592.0117,229.0065 593.3315,227.3547 Q594.6514,225.7028 597.1582,225.7028 Q597.8638,225.7028 598.5112,225.8522 Q599.1587,226.0016 599.7231,226.3005 L599.7231,229.0231 Q599.0923,228.4421 598.4988,228.1723 Q597.9053,227.9025 597.2744,227.9025 Q595.9297,227.9025 595.2449,228.9692 Q594.5601,230.0358 594.5601,232.1359 Q594.5601,234.2277 595.2449,235.2944 Q595.9297,236.361 597.2744,236.361 Q597.9053,236.361 598.4988,236.0912 Q599.0923,235.8215 599.7231,235.2404 Z "/><text fill="#000000" font-family="sans-serif" font-size="12" lengthAdjust="spacingAndGlyphs" textLength="105" x="617.75" y="236.3552">UserBuilderHelper</text><line style="stroke: #A80036; stroke-width: 1.5;" x1="539.5" x2="768.5" y1="247.82" y2="247.82"/><line style="stroke: #A80036; stroke-width: 1.5;" x1="539.5" x2="768.5" y1="255.82" y2="255.82"/><ellipse cx="549.5" cy="266.82" fill="#84BE84" rx="3" ry="3" style="stroke: #038048; stroke-width: 1.0;"/><text fill="#000000" font-family="sans-serif" font-size="11" lengthAdjust="spacingAndGlyphs" text-decoration="underline" textLength="152" x="558.5" y="270.4548">builder(): SystemUserBuilder</text><ellipse cx="549.5" cy="279.7751" fill="#84BE84" rx="3" ry="3" style="stroke: #038048; stroke-width: 1.0;"/><text fill="#000000" font-family="sans-serif" font-size="11" lengthAdjust="spacingAndGlyphs" text-decoration="underline" textLength="205" x="558.5" y="283.4098">signupBuilder(): SignupRequestBuilder</text></a><!--MD5=[23b0d82976490145b24e374b90d48b59]
class eapli.framework.infrastructure.authz.domain.model.PasswordPolicy--><rect codeLine="35" fill="#FEFECE" filter="url(#fkyhq9nw8nkin)" height="60.9551" id="eapli.framework.infrastructure.authz.domain.model.PasswordPolicy" style="stroke: #A80036; stroke-width: 1.5;" width="181" x="305.5" y="41"/><ellipse cx="348.4" cy="57" fill="#B4A7E5" rx="11" ry="11" style="stroke: #A80036; stroke-width: 1.0;"/><path d="M344.8277,53.2651 L344.8277,51.1069 L352.2071,51.1069 L352.2071,53.2651 L349.7418,53.2651 L349.7418,61.3418 L352.2071,61.3418 L352.2071,63.5 L344.8277,63.5 L344.8277,61.3418 L347.2931,61.3418 L347.2931,53.2651 Z "/><text fill="#000000" font-family="sans-serif" font-size="12" font-style="italic" lengthAdjust="spacingAndGlyphs" textLength="87" x="368.6" y="61.5352">PasswordPolicy</text><line style="stroke: #A80036; stroke-width: 1.5;" x1="306.5" x2="485.5" y1="73" y2="73"/><line style="stroke: #A80036; stroke-width: 1.5;" x1="306.5" x2="485.5" y1="81" y2="81"/><ellipse cx="316.5" cy="92" fill="#84BE84" rx="3" ry="3" style="stroke: #038048; stroke-width: 1.0;"/><text fill="#000000" font-family="sans-serif" font-size="11" font-style="italic" lengthAdjust="spacingAndGlyphs" textLength="155" x="325.5" y="95.6348">isSatisfiedBy(String): boolean</text><!--MD5=[3ce71ff8fa49254cf1c59563d3c79ed9]
reverse link eapli.framework.infrastructure.authz.domain.model.PasswordPolicy to eapli.exemplo.usermanagement.domain.ExemploPasswordPolicy--><path codeLine="30" d="M396,123.42 C396,152.84 396,189.14 396,215.62 " fill="none" id="eapli.framework.infrastructure.authz.domain.model.PasswordPolicy-backto-eapli.exemplo.usermanagement.domain.ExemploPasswordPolicy" style="stroke: #A80036; stroke-width: 1.0; stroke-dasharray: 7.0,7.0;"/><polygon fill="none" points="389,123.6,396,103.6,403,123.6,389,123.6" style="stroke: #A80036; stroke-width: 1.0;"/><!--MD5=[3d651178260917a7606d33a40eb0cffd]
reverse link eapli.exemplo.usermanagement.domain.ExemploPasswordPolicy to eapli.exemplo.usermanagement.domain.ExemploPasswordPolicy.PasswordStrength--><path codeLine="31" d="M396,306.38 C396,332.48 396,363.6 396,388.22 " fill="none" id="eapli.exemplo.usermanagement.domain.ExemploPasswordPolicy-backto-eapli.exemplo.usermanagement.domain.ExemploPasswordPolicy.PasswordStrength" style="stroke: #A80036; stroke-width: 1.0;"/><ellipse cx="396" cy="299.59" fill="#FFFFFF" rx="8" ry="8" style="stroke: #A80036; stroke-width: 1.0;"/><line style="stroke: #A80036; stroke-width: 1.0;" x1="396" x2="396" y1="307.59" y2="291.59"/><line style="stroke: #A80036; stroke-width: 1.0;" x1="388" x2="404" y1="299.59" y2="299.59"/><text fill="#888888" font-family="sans-serif" font-size="10" lengthAdjust="spacingAndGlyphs" textLength="188" x="300.5" y="507.128">UMLDoclet 2.0.12, PlantUML 1.2020.16</text><!--MD5=[458696a92494f69f5e5876452b5b98ce]
@startuml
    namespace eapli.exemplo.usermanagement.domain {

        class ExemploRoles [[ExemploRoles.html]] {
            {static} +POWER_USER: Role
            {static} +UTENTE: Role
            {static} +ADMIN: Role
            {static} +SAMPLE_1_MANAGER: Role
            {static} +ANOTHER_EXAMPLE_MANAGER: Role
            {static} +OTHER_EXAMPLE: Role
            {static} +nonUserValues(): Role[]
            +isCollaborator(Role): boolean
        }

        class ExemploPasswordPolicy [[ExemploPasswordPolicy.html]] {
            +isSatisfiedBy(String): boolean
            +strength(String): PasswordStrength
        }

        enum eapli.exemplo.usermanagement.domain.ExemploPasswordPolicy.PasswordStrength [[ExemploPasswordPolicy.PasswordStrength.html]] {
            {static} +WEAK
            {static} +GOOD
            {static} +EXCELENT
        }

        class UserBuilderHelper [[UserBuilderHelper.html]] {
            {static} +builder(): SystemUserBuilder
            {static} +signupBuilder(): SignupRequestBuilder
        }

        eapli.framework.infrastructure.authz.domain.model.PasswordPolicy <|.. ExemploPasswordPolicy
        ExemploPasswordPolicy +- - eapli.exemplo.usermanagement.domain.ExemploPasswordPolicy.PasswordStrength
    }

    namespace eapli.framework.infrastructure.authz.domain.model {
        interface PasswordPolicy {
            {abstract} +isSatisfiedBy(String): boolean
        }
    }

    center footer UMLDoclet 2.0.12, PlantUML 1.2020.16
@enduml

PlantUML version 1.2020.16(Sun Aug 23 21:20:43 WEST 2020)
(APACHE source distribution)
Java Runtime: OpenJDK Runtime Environment
JVM: OpenJDK 64-Bit Server VM
Default Encoding: UTF-8
Language: en
Country: US
--></g></svg>