<?xml version="1.0" encoding="UTF-8" standalone="no"?><svg xmlns="http://www.w3.org/2000/svg" xmlns:xlink="http://www.w3.org/1999/xlink" contentScriptType="application/ecmascript" contentStyleType="text/css" height="109px" preserveAspectRatio="none" style="width:257px;height:109px;" version="1.1" viewBox="0 0 257 109" width="257px" zoomAndPan="magnify"><defs><filter height="300%" id="fc9pjcg4eztq0" width="300%" x="-1" y="-1"><feGaussianBlur result="blurOut" stdDeviation="2.0"/><feColorMatrix in="blurOut" result="blurOut2" type="matrix" values="0 0 0 0 0 0 0 0 0 0 0 0 0 0 0 0 0 0 .4 0"/><feOffset dx="4.0" dy="4.0" in="blurOut2" result="blurOut3"/><feBlend in="SourceGraphic" in2="blurOut3" mode="normal"/></filter></defs><g><!--MD5=[12f36d7b6b82d202947a38ed224d53f0]
class eapli.exemplo.usermanagement.domain.UserBuilderHelper--><a href="UserBuilderHelper.html" target="_top" title="UserBuilderHelper.html" xlink:actuate="onRequest" xlink:href="UserBuilderHelper.html" xlink:show="new" xlink:title="UserBuilderHelper.html" xlink:type="simple"><rect codeLine="5" fill="#FEFECE" filter="url(#fc9pjcg4eztq0)" height="72.1758" id="eapli.exemplo.usermanagement.domain.UserBuilderHelper" style="stroke: #A80036; stroke-width: 1.5;" width="231" x="7" y="7"/><ellipse cx="23.35" cy="26.1328" fill="#ADD1B2" rx="11" ry="11" style="stroke: #A80036; stroke-width: 1.0;"/><path d="M25.8231,32.2759 Q25.2421,32.5747 24.6029,32.7241 Q23.9638,32.8735 23.2582,32.8735 Q20.7514,32.8735 19.4315,31.2217 Q18.1117,29.5698 18.1117,26.4487 Q18.1117,23.3193 19.4315,21.6675 Q20.7514,20.0156 23.2582,20.0156 Q23.9638,20.0156 24.6112,20.165 Q25.2587,20.3145 25.8231,20.6133 L25.8231,23.3359 Q25.1923,22.7549 24.5988,22.4851 Q24.0053,22.2153 23.3744,22.2153 Q22.0297,22.2153 21.3449,23.282 Q20.6601,24.3486 20.6601,26.4487 Q20.6601,28.5405 21.3449,29.6072 Q22.0297,30.6738 23.3744,30.6738 Q24.0053,30.6738 24.5988,30.4041 Q25.1923,30.1343 25.8231,29.5532 Z "/><text fill="#000000" font-family="sans-serif" font-size="14" lengthAdjust="spacingAndGlyphs" textLength="124" x="73.65" y="25.5352">UserBuilderHelper</text><text fill="#000000" font-family="sans-serif" font-size="10" lengthAdjust="spacingAndGlyphs" textLength="196" x="37.65" y="38.1563">eapli.exemplo.usermanagement.domain</text><line style="stroke: #A80036; stroke-width: 1.5;" x1="8" x2="237" y1="45.2656" y2="45.2656"/><ellipse cx="18" cy="56.2656" fill="#84BE84" rx="3" ry="3" style="stroke: #038048; stroke-width: 1.0;"/><text fill="#000000" font-family="sans-serif" font-size="11" lengthAdjust="spacingAndGlyphs" text-decoration="underline" textLength="152" x="27" y="59.9004">builder(): SystemUserBuilder</text><ellipse cx="18" cy="69.2207" fill="#84BE84" rx="3" ry="3" style="stroke: #038048; stroke-width: 1.0;"/><text fill="#000000" font-family="sans-serif" font-size="11" lengthAdjust="spacingAndGlyphs" text-decoration="underline" textLength="205" x="27" y="72.8555">signupBuilder(): SignupRequestBuilder</text></a><text fill="#888888" font-family="sans-serif" font-size="10" lengthAdjust="spacingAndGlyphs" textLength="188" x="28.5" y="95.8438">UMLDoclet 2.0.12, PlantUML 1.2020.16</text><!--MD5=[66fda89d5e444b4444b2ac32959fd3dc]
@startuml
    set namespaceSeparator none
    hide empty fields
    hide empty methods

    class "<size:14>UserBuilderHelper\n<size:10>eapli.exemplo.usermanagement.domain" as eapli.exemplo.usermanagement.domain.UserBuilderHelper [[UserBuilderHelper.html]] {
        {static} +builder(): SystemUserBuilder
        {static} +signupBuilder(): SignupRequestBuilder
    }

    center footer UMLDoclet 2.0.12, PlantUML 1.2020.16
@enduml

PlantUML version 1.2020.16(Sun Aug 23 21:20:43 WEST 2020)
(APACHE source distribution)
Java Runtime: OpenJDK Runtime Environment
JVM: OpenJDK 64-Bit Server VM
Default Encoding: UTF-8
Language: en
Country: US
--></g></svg>