<?xml version="1.0" encoding="UTF-8" standalone="no"?><svg xmlns="http://www.w3.org/2000/svg" xmlns:xlink="http://www.w3.org/1999/xlink" contentScriptType="application/ecmascript" contentStyleType="text/css" height="375px" preserveAspectRatio="none" style="width:450px;height:375px;" version="1.1" viewBox="0 0 450 375" width="450px" zoomAndPan="magnify"><defs><filter height="300%" id="f38ogemrlxgbv" width="300%" x="-1" y="-1"><feGaussianBlur result="blurOut" stdDeviation="2.0"/><feColorMatrix in="blurOut" result="blurOut2" type="matrix" values="0 0 0 0 0 0 0 0 0 0 0 0 0 0 0 0 0 0 .4 0"/><feOffset dx="4.0" dy="4.0" in="blurOut2" result="blurOut3"/><feBlend in="SourceGraphic" in2="blurOut3" mode="normal"/></filter></defs><g><!--MD5=[3fc664a848a68c20de812d06f0d6bf0a]
cluster eapli.exemplo.infrastructure.persistence--><polygon fill="#FFFFFF" filter="url(#f38ogemrlxgbv)" points="16,6,308,6,315,28.4883,428,28.4883,428,346.6,16,346.6,16,6" style="stroke: #000000; stroke-width: 1.5;"/><line style="stroke: #000000; stroke-width: 1.5;" x1="16" x2="315" y1="28.4883" y2="28.4883"/><text fill="#000000" font-family="sans-serif" font-size="14" font-weight="bold" lengthAdjust="spacingAndGlyphs" textLength="286" x="20" y="21.5352">eapli.exemplo.infrastructure.persistence</text><!--MD5=[c0c769fa93d3681553995a2df28ddddd]
class eapli.exemplo.infrastructure.persistence.PersistenceContext--><a href="PersistenceContext.html" target="_top" title="PersistenceContext.html" xlink:actuate="onRequest" xlink:href="PersistenceContext.html" xlink:show="new" xlink:title="PersistenceContext.html" xlink:type="simple"><rect codeLine="3" fill="#FEFECE" filter="url(#f38ogemrlxgbv)" height="73.9102" id="eapli.exemplo.infrastructure.persistence.PersistenceContext" style="stroke: #A80036; stroke-width: 1.5;" width="203" x="120.5" y="41"/><ellipse cx="163.4" cy="57" fill="#ADD1B2" rx="11" ry="11" style="stroke: #A80036; stroke-width: 1.0;"/><path d="M165.8731,63.1431 Q165.2921,63.4419 164.6529,63.5913 Q164.0138,63.7407 163.3082,63.7407 Q160.8014,63.7407 159.4815,62.0889 Q158.1617,60.437 158.1617,57.3159 Q158.1617,54.1865 159.4815,52.5347 Q160.8014,50.8828 163.3082,50.8828 Q164.0138,50.8828 164.6612,51.0322 Q165.3087,51.1816 165.8731,51.4805 L165.8731,54.2031 Q165.2423,53.6221 164.6488,53.3523 Q164.0553,53.0825 163.4244,53.0825 Q162.0797,53.0825 161.3949,54.1492 Q160.7101,55.2158 160.7101,57.3159 Q160.7101,59.4077 161.3949,60.4744 Q162.0797,61.541 163.4244,61.541 Q164.0553,61.541 164.6488,61.2712 Q165.2423,61.0015 165.8731,60.4204 Z "/><text fill="#000000" font-family="sans-serif" font-size="12" lengthAdjust="spacingAndGlyphs" textLength="109" x="183.6" y="61.5352">PersistenceContext</text><line style="stroke: #A80036; stroke-width: 1.5;" x1="121.5" x2="322.5" y1="73" y2="73"/><rect fill="none" height="6" style="stroke: #C82930; stroke-width: 1.0;" width="6" x="128.5" y="81"/><text fill="#000000" font-family="sans-serif" font-size="11" lengthAdjust="spacingAndGlyphs" text-decoration="underline" textLength="88" x="140.5" y="87.6348">LOGGER: Logger</text><line style="stroke: #A80036; stroke-width: 1.5;" x1="121.5" x2="322.5" y1="93.9551" y2="93.9551"/><ellipse cx="131.5" cy="104.9551" fill="#84BE84" rx="3" ry="3" style="stroke: #038048; stroke-width: 1.0;"/><text fill="#000000" font-family="sans-serif" font-size="11" lengthAdjust="spacingAndGlyphs" text-decoration="underline" textLength="177" x="140.5" y="108.5898">repositories(): RepositoryFactory</text></a><!--MD5=[26465f502c9cbd15a915dfe67afb0530]
class eapli.exemplo.infrastructure.persistence.RepositoryFactory--><a href="RepositoryFactory.html" target="_top" title="RepositoryFactory.html" xlink:actuate="onRequest" xlink:href="RepositoryFactory.html" xlink:show="new" xlink:title="RepositoryFactory.html" xlink:type="simple"><rect codeLine="8" fill="#FEFECE" filter="url(#f38ogemrlxgbv)" height="138.6855" id="eapli.exemplo.infrastructure.persistence.RepositoryFactory" style="stroke: #A80036; stroke-width: 1.5;" width="380" x="32" y="191.91"/><ellipse cx="166.75" cy="207.91" fill="#B4A7E5" rx="11" ry="11" style="stroke: #A80036; stroke-width: 1.0;"/><path d="M163.1777,204.1751 L163.1777,202.0169 L170.5571,202.0169 L170.5571,204.1751 L168.0918,204.1751 L168.0918,212.2518 L170.5571,212.2518 L170.5571,214.41 L163.1777,214.41 L163.1777,212.2518 L165.6431,212.2518 L165.6431,204.1751 Z "/><text fill="#000000" font-family="sans-serif" font-size="12" font-style="italic" lengthAdjust="spacingAndGlyphs" textLength="102" x="187.25" y="212.4452">RepositoryFactory</text><line style="stroke: #A80036; stroke-width: 1.5;" x1="33" x2="411" y1="223.91" y2="223.91"/><line style="stroke: #A80036; stroke-width: 1.5;" x1="33" x2="411" y1="231.91" y2="231.91"/><ellipse cx="43" cy="242.91" fill="#84BE84" rx="3" ry="3" style="stroke: #038048; stroke-width: 1.0;"/><text fill="#000000" font-family="sans-serif" font-size="11" font-style="italic" lengthAdjust="spacingAndGlyphs" textLength="267" x="52" y="246.5448">newTransactionalContext(): TransactionalContext</text><ellipse cx="43" cy="255.8651" fill="#84BE84" rx="3" ry="3" style="stroke: #038048; stroke-width: 1.0;"/><text fill="#000000" font-family="sans-serif" font-size="11" font-style="italic" lengthAdjust="spacingAndGlyphs" textLength="243" x="52" y="259.4998">users(TransactionalContext): UserRepository</text><ellipse cx="43" cy="268.8202" fill="#84BE84" rx="3" ry="3" style="stroke: #038048; stroke-width: 1.0;"/><text fill="#000000" font-family="sans-serif" font-size="11" font-style="italic" lengthAdjust="spacingAndGlyphs" textLength="127" x="52" y="272.4549">users(): UserRepository</text><ellipse cx="43" cy="281.7752" fill="#84BE84" rx="3" ry="3" style="stroke: #038048; stroke-width: 1.0;"/><text fill="#000000" font-family="sans-serif" font-size="11" font-style="italic" lengthAdjust="spacingAndGlyphs" textLength="263" x="52" y="285.41">utentes(TransactionalContext): UtenteRepository</text><ellipse cx="43" cy="294.7303" fill="#84BE84" rx="3" ry="3" style="stroke: #038048; stroke-width: 1.0;"/><text fill="#000000" font-family="sans-serif" font-size="11" font-style="italic" lengthAdjust="spacingAndGlyphs" textLength="147" x="52" y="298.3651">utentes(): UtenteRepository</text><ellipse cx="43" cy="307.6854" fill="#84BE84" rx="3" ry="3" style="stroke: #038048; stroke-width: 1.0;"/><text fill="#000000" font-family="sans-serif" font-size="11" font-style="italic" lengthAdjust="spacingAndGlyphs" textLength="354" x="52" y="311.3202">signupRequests(TransactionalContext): SignupRequestRepository</text><ellipse cx="43" cy="320.6405" fill="#84BE84" rx="3" ry="3" style="stroke: #038048; stroke-width: 1.0;"/><text fill="#000000" font-family="sans-serif" font-size="11" font-style="italic" lengthAdjust="spacingAndGlyphs" textLength="238" x="52" y="324.2752">signupRequests(): SignupRequestRepository</text></a><!--MD5=[b957f670ac37f2ae5034ed28871cb1e3]
link eapli.exemplo.infrastructure.persistence.PersistenceContext to eapli.exemplo.infrastructure.persistence.RepositoryFactory--><path codeLine="18" d="M222,115.21 C222,135.23 222,160.86 222,184.99 " fill="none" id="eapli.exemplo.infrastructure.persistence.PersistenceContext-to-eapli.exemplo.infrastructure.persistence.RepositoryFactory" style="stroke: #A80036; stroke-width: 1.0;"/><polygon fill="#A80036" points="222,189.9,226,180.9,222,184.9,218,180.9,222,189.9" style="stroke: #A80036; stroke-width: 1.0;"/><text fill="#000000" font-family="sans-serif" font-size="13" lengthAdjust="spacingAndGlyphs" textLength="66" x="223" y="158.4784">theFactory</text><text fill="#888888" font-family="sans-serif" font-size="10" lengthAdjust="spacingAndGlyphs" textLength="188" x="122" y="362.268">UMLDoclet 2.0.12, PlantUML 1.2020.16</text><!--MD5=[c3c950b88acb517f0386a0a063560c22]
@startuml
    namespace eapli.exemplo.infrastructure.persistence {

        class PersistenceContext [[PersistenceContext.html]] {
            {static} -LOGGER: Logger
            {static} +repositories(): RepositoryFactory
        }

        interface RepositoryFactory [[RepositoryFactory.html]] {
            {abstract} +newTransactionalContext(): TransactionalContext
            {abstract} +users(TransactionalContext): UserRepository
            {abstract} +users(): UserRepository
            {abstract} +utentes(TransactionalContext): UtenteRepository
            {abstract} +utentes(): UtenteRepository
            {abstract} +signupRequests(TransactionalContext): SignupRequestRepository
            {abstract} +signupRequests(): SignupRequestRepository
        }

        PersistenceContext - -> RepositoryFactory: theFactory
    }

    center footer UMLDoclet 2.0.12, PlantUML 1.2020.16
@enduml

PlantUML version 1.2020.16(Sun Aug 23 21:20:43 WEST 2020)
(APACHE source distribution)
Java Runtime: OpenJDK Runtime Environment
JVM: OpenJDK 64-Bit Server VM
Default Encoding: UTF-8
Language: en
Country: US
--></g></svg>