<svg xmlns="http://www.w3.org/2000/svg" xmlns:xlink="http://www.w3.org/1999/xlink" contentStyleType="text/css" height="1467px" preserveAspectRatio="none" style="width:2081px;height:1467px;background:#FFFFFF;" version="1.1" viewBox="0 0 2081 1467" width="2081px" zoomAndPan="magnify"><title>US086</title><defs/><g><text fill="#000000" font-family="Arial" font-size="14" font-weight="bold" lengthAdjust="spacing" textLength="42.8066" x="1012.0967" y="23.1318">US086</text><!--cluster ws1--><g id="cluster_ws1"><polygon fill="none" points="638,53.0986,648,43.0986,786,43.0986,786,249.0986,776,259.0986,638,259.0986,638,53.0986" style="stroke:#181818;stroke-width:1.0;"/><line style="stroke:#181818;stroke-width:1.0;" x1="776" x2="786" y1="53.0986" y2="43.0986"/><line style="stroke:#181818;stroke-width:1.0;" x1="638" x2="776" y1="53.0986" y2="53.0986"/><line style="stroke:#181818;stroke-width:1.0;" x1="776" x2="776" y1="53.0986" y2="259.0986"/><text fill="#000000" font-family="Arial" font-size="12" font-weight="bold" lengthAdjust="spacing" textLength="69.334" x="673.333" y="67.3545">Workstation</text><text fill="#000000" font-family="Arial" font-size="12" font-weight="bold" lengthAdjust="spacing" textLength="68.6602" x="673.6699" y="81.1533">(TCP Client)</text></g><!--cluster cloud1--><g id="cluster_cloud1"><polygon fill="none" points="434,316.0986,444,306.0986,1860,306.0986,1860,1440.0986,1850,1450.0986,434,1450.0986,434,316.0986" style="stroke:#181818;stroke-width:1.0;"/><line style="stroke:#181818;stroke-width:1.0;" x1="1850" x2="1860" y1="316.0986" y2="306.0986"/><line style="stroke:#181818;stroke-width:1.0;" x1="434" x2="1850" y1="316.0986" y2="316.0986"/><line style="stroke:#181818;stroke-width:1.0;" x1="1850" x2="1850" y1="316.0986" y2="1450.0986"/><text fill="#000000" font-family="Arial" font-size="12" font-weight="bold" lengthAdjust="spacing" textLength="67.3242" x="1109.3379" y="330.3545">Cloud Node</text><text fill="#000000" font-family="Arial" font-size="12" font-weight="bold" lengthAdjust="spacing" textLength="96" x="1095" y="344.1533">Main Application</text></g><!--cluster tcpSrv--><g id="cluster_tcpSrv"><path d="M626.5,365.0986 L692.1992,365.0986 A3.75,3.75 0 0 1 694.6992,367.5986 L701.6992,384.8975 L797.5,384.8975 A2.5,2.5 0 0 1 800,387.3975 L800,559.5986 A2.5,2.5 0 0 1 797.5,562.0986 L626.5,562.0986 A2.5,2.5 0 0 1 624,559.5986 L624,367.5986 A2.5,2.5 0 0 1 626.5,365.0986 " fill="none" style="stroke:#000000;stroke-width:1.5;"/><line style="stroke:#000000;stroke-width:1.5;" x1="624" x2="701.6992" y1="384.8975" y2="384.8975"/><text fill="#000000" font-family="Arial" font-size="12" font-weight="bold" lengthAdjust="spacing" textLength="64.6992" x="628" y="378.3545">TCP Server</text></g><!--cluster srvPkg--><g id="cluster_srvPkg"><path d="M1108.5,690.0986 L1152.2031,690.0986 A3.75,3.75 0 0 1 1154.7031,692.5986 L1161.7031,709.8975 L1281.5,709.8975 A2.5,2.5 0 0 1 1284,712.3975 L1284,779.5986 A2.5,2.5 0 0 1 1281.5,782.0986 L1108.5,782.0986 A2.5,2.5 0 0 1 1106,779.5986 L1106,692.5986 A2.5,2.5 0 0 1 1108.5,690.0986 " fill="none" style="stroke:#000000;stroke-width:1.5;"/><line style="stroke:#000000;stroke-width:1.5;" x1="1106" x2="1161.7031" y1="709.8975" y2="709.8975"/><text fill="#000000" font-family="Arial" font-size="12" font-weight="bold" lengthAdjust="spacing" textLength="42.7031" x="1110" y="703.3545">Service</text></g><!--cluster ctrlPkg--><g id="cluster_ctrlPkg"><path d="M460.5,1046.0986 L518.834,1046.0986 A3.75,3.75 0 0 1 521.334,1048.5986 L528.334,1065.8975 L1833.5,1065.8975 A2.5,2.5 0 0 1 1836,1068.3975 L1836,1135.5986 A2.5,2.5 0 0 1 1833.5,1138.0986 L460.5,1138.0986 A2.5,2.5 0 0 1 458,1135.5986 L458,1048.5986 A2.5,2.5 0 0 1 460.5,1046.0986 " fill="none" style="stroke:#000000;stroke-width:1.5;"/><line style="stroke:#000000;stroke-width:1.5;" x1="458" x2="528.334" y1="1065.8975" y2="1065.8975"/><text fill="#000000" font-family="Arial" font-size="12" font-weight="bold" lengthAdjust="spacing" textLength="57.334" x="462" y="1059.3545">Controller</text></g><!--cluster domPkg--><g id="cluster_domPkg"><path d="M1196.5,1334.0986 L1241.5039,1334.0986 A3.75,3.75 0 0 1 1244.0039,1336.5986 L1251.0039,1353.8975 L1606.5,1353.8975 A2.5,2.5 0 0 1 1609,1356.3975 L1609,1423.5986 A2.5,2.5 0 0 1 1606.5,1426.0986 L1196.5,1426.0986 A2.5,2.5 0 0 1 1194,1423.5986 L1194,1336.5986 A2.5,2.5 0 0 1 1196.5,1334.0986 " fill="none" style="stroke:#000000;stroke-width:1.5;"/><line style="stroke:#000000;stroke-width:1.5;" x1="1194" x2="1251.0039" y1="1353.8975" y2="1353.8975"/><text fill="#000000" font-family="Arial" font-size="12" font-weight="bold" lengthAdjust="spacing" textLength="44.0039" x="1198" y="1347.3545">Domain</text></g><!--cluster udpPkg--><g id="cluster_udpPkg"><path d="M546.5,690.0986 L609.5039,690.0986 A3.75,3.75 0 0 1 612.0039,692.5986 L619.0039,709.8975 L703.5,709.8975 A2.5,2.5 0 0 1 706,712.3975 L706,779.5986 A2.5,2.5 0 0 1 703.5,782.0986 L546.5,782.0986 A2.5,2.5 0 0 1 544,779.5986 L544,692.5986 A2.5,2.5 0 0 1 546.5,690.0986 " fill="none" style="stroke:#000000;stroke-width:1.5;"/><line style="stroke:#000000;stroke-width:1.5;" x1="544" x2="619.0039" y1="709.8975" y2="709.8975"/><text fill="#000000" font-family="Arial" font-size="12" font-weight="bold" lengthAdjust="spacing" textLength="62.0039" x="548" y="703.3545">UDP Client</text></g><!--cluster dbNode--><g id="cluster_dbNode"><polygon fill="none" points="1884,681.0986,1894,671.0986,2064,671.0986,2064,772.0986,2054,782.0986,1884,782.0986,1884,681.0986" style="stroke:#181818;stroke-width:1.0;"/><line style="stroke:#181818;stroke-width:1.0;" x1="2054" x2="2064" y1="681.0986" y2="671.0986"/><line style="stroke:#181818;stroke-width:1.0;" x1="1884" x2="2054" y1="681.0986" y2="681.0986"/><line style="stroke:#181818;stroke-width:1.0;" x1="2054" x2="2054" y1="681.0986" y2="782.0986"/><text fill="#000000" font-family="Arial" font-size="12" font-weight="bold" lengthAdjust="spacing" textLength="67.3242" x="1936.3379" y="695.3545">Cloud Node</text><text fill="#000000" font-family="Arial" font-size="12" font-weight="bold" lengthAdjust="spacing" textLength="94.0605" x="1922.9697" y="709.1533">Database Server</text></g><!--cluster logNode--><g id="cluster_logNode"><polygon fill="none" points="200,839.0986,210,829.0986,410,829.0986,410,1291.0986,400,1301.0986,200,1301.0986,200,839.0986" style="stroke:#181818;stroke-width:1.0;"/><line style="stroke:#181818;stroke-width:1.0;" x1="400" x2="410" y1="839.0986" y2="829.0986"/><line style="stroke:#181818;stroke-width:1.0;" x1="200" x2="400" y1="839.0986" y2="839.0986"/><line style="stroke:#181818;stroke-width:1.0;" x1="400" x2="400" y1="839.0986" y2="1301.0986"/><text fill="#000000" font-family="Arial" font-size="12" font-weight="bold" lengthAdjust="spacing" textLength="67.3242" x="267.3379" y="853.3545">Cloud Node</text><text fill="#000000" font-family="Arial" font-size="12" font-weight="bold" lengthAdjust="spacing" textLength="89.3789" x="256.3105" y="867.1533">Remote Access</text><text fill="#000000" font-family="Arial" font-size="12" font-weight="bold" lengthAdjust="spacing" textLength="88.0137" x="256.9932" y="880.9521">Logging Server</text></g><!--cluster udpSrv--><g id="cluster_udpSrv"><path d="M226.5,902.0986 L293.5352,902.0986 A3.75,3.75 0 0 1 296.0352,904.5986 L303.0352,921.8975 L383.5,921.8975 A2.5,2.5 0 0 1 386,924.3975 L386,991.5986 A2.5,2.5 0 0 1 383.5,994.0986 L226.5,994.0986 A2.5,2.5 0 0 1 224,991.5986 L224,904.5986 A2.5,2.5 0 0 1 226.5,902.0986 " fill="none" style="stroke:#000000;stroke-width:1.5;"/><line style="stroke:#000000;stroke-width:1.5;" x1="224" x2="303.0352" y1="921.8975" y2="921.8975"/><text fill="#000000" font-family="Arial" font-size="12" font-weight="bold" lengthAdjust="spacing" textLength="66.0352" x="228" y="915.3545">UDP Server</text></g><!--cluster httpSrv--><g id="cluster_httpSrv"><path d="M227.5,1185.0986 L300.5293,1185.0986 A3.75,3.75 0 0 1 303.0293,1187.5986 L310.0293,1204.8975 L372.5,1204.8975 A2.5,2.5 0 0 1 375,1207.3975 L375,1274.5986 A2.5,2.5 0 0 1 372.5,1277.0986 L227.5,1277.0986 A2.5,2.5 0 0 1 225,1274.5986 L225,1187.5986 A2.5,2.5 0 0 1 227.5,1185.0986 " fill="none" style="stroke:#000000;stroke-width:1.5;"/><line style="stroke:#000000;stroke-width:1.5;" x1="225" x2="310.0293" y1="1204.8975" y2="1204.8975"/><text fill="#000000" font-family="Arial" font-size="12" font-weight="bold" lengthAdjust="spacing" textLength="72.0293" x="229" y="1198.3545">HTTP Server</text></g><!--cluster ws2--><g id="cluster_ws2"><polygon fill="none" points="16,1037.0986,26,1027.0986,176,1027.0986,176,1128.0986,166,1138.0986,16,1138.0986,16,1037.0986" style="stroke:#181818;stroke-width:1.0;"/><line style="stroke:#181818;stroke-width:1.0;" x1="166" x2="176" y1="1037.0986" y2="1027.0986"/><line style="stroke:#181818;stroke-width:1.0;" x1="16" x2="166" y1="1037.0986" y2="1037.0986"/><line style="stroke:#181818;stroke-width:1.0;" x1="166" x2="166" y1="1037.0986" y2="1138.0986"/><text fill="#000000" font-family="Arial" font-size="12" font-weight="bold" lengthAdjust="spacing" textLength="69.334" x="57.333" y="1051.3545">Workstation</text><text fill="#000000" font-family="Arial" font-size="12" font-weight="bold" lengthAdjust="spacing" textLength="84.6738" x="49.6631" y="1065.1533">(Web Browser)</text></g><!--entity PilotClientApp--><g id="elem_PilotClientApp"><rect fill="#F1F1F1" height="43.7988" rx="2.5" ry="2.5" style="stroke:#181818;stroke-width:0.5;" width="115.375" x="654.5" y="94.0986"/><rect fill="#F1F1F1" height="10" style="stroke:#181818;stroke-width:0.5;" width="15" x="749.875" y="99.0986"/><rect fill="#F1F1F1" height="2" style="stroke:#181818;stroke-width:0.5;" width="4" x="747.875" y="101.0986"/><rect fill="#F1F1F1" height="2" style="stroke:#181818;stroke-width:0.5;" width="4" x="747.875" y="105.0986"/><text fill="#000000" font-family="Arial" font-size="12" lengthAdjust="spacing" textLength="75.375" x="669.5" y="125.3545">PilotClientApp</text></g><!--entity TcpClient--><g id="elem_TcpClient"><rect fill="#F1F1F1" height="43.7988" rx="2.5" ry="2.5" style="stroke:#181818;stroke-width:0.5;" width="90.6836" x="666.5" y="199.0986"/><rect fill="#F1F1F1" height="10" style="stroke:#181818;stroke-width:0.5;" width="15" x="737.1836" y="204.0986"/><rect fill="#F1F1F1" height="2" style="stroke:#181818;stroke-width:0.5;" width="4" x="735.1836" y="206.0986"/><rect fill="#F1F1F1" height="2" style="stroke:#181818;stroke-width:0.5;" width="4" x="735.1836" y="210.0986"/><text fill="#000000" font-family="Arial" font-size="12" lengthAdjust="spacing" textLength="50.6836" x="681.5" y="230.3545">TcpClient</text></g><!--entity FlightPlan--><g id="elem_FlightPlan"><rect fill="#F1F1F1" height="43.7988" rx="2.5" ry="2.5" style="stroke:#181818;stroke-width:0.5;" width="93.3613" x="1605.5" y="1217.0986"/><rect fill="#F1F1F1" height="10" style="stroke:#181818;stroke-width:0.5;" width="15" x="1678.8613" y="1222.0986"/><rect fill="#F1F1F1" height="2" style="stroke:#181818;stroke-width:0.5;" width="4" x="1676.8613" y="1224.0986"/><rect fill="#F1F1F1" height="2" style="stroke:#181818;stroke-width:0.5;" width="4" x="1676.8613" y="1228.0986"/><text fill="#000000" font-family="Arial" font-size="12" lengthAdjust="spacing" textLength="53.3613" x="1620.5" y="1248.3545">FlightPlan</text></g><!--entity PilotServerDaemon--><g id="elem_PilotServerDaemon"><rect fill="#F1F1F1" height="43.7988" rx="2.5" ry="2.5" style="stroke:#181818;stroke-width:0.5;" width="144.0449" x="640" y="397.0986"/><rect fill="#F1F1F1" height="10" style="stroke:#181818;stroke-width:0.5;" width="15" x="764.0449" y="402.0986"/><rect fill="#F1F1F1" height="2" style="stroke:#181818;stroke-width:0.5;" width="4" x="762.0449" y="404.0986"/><rect fill="#F1F1F1" height="2" style="stroke:#181818;stroke-width:0.5;" width="4" x="762.0449" y="408.0986"/><text fill="#000000" font-family="Arial" font-size="12" lengthAdjust="spacing" textLength="104.0449" x="655" y="428.3545">PilotServerDaemon</text></g><!--entity PilotClientHandler--><g id="elem_PilotClientHandler"><rect fill="#F1F1F1" height="43.7988" rx="2.5" ry="2.5" style="stroke:#181818;stroke-width:0.5;" width="136.0469" x="644" y="502.0986"/><rect fill="#F1F1F1" height="10" style="stroke:#181818;stroke-width:0.5;" width="15" x="760.0469" y="507.0986"/><rect fill="#F1F1F1" height="2" style="stroke:#181818;stroke-width:0.5;" width="4" x="758.0469" y="509.0986"/><rect fill="#F1F1F1" height="2" style="stroke:#181818;stroke-width:0.5;" width="4" x="758.0469" y="513.0986"/><text fill="#000000" font-family="Arial" font-size="12" lengthAdjust="spacing" textLength="96.0469" x="659" y="533.3545">PilotClientHandler</text></g><!--entity RemotePilotService--><g id="elem_RemotePilotService"><rect fill="#F1F1F1" height="43.7988" rx="2.5" ry="2.5" style="stroke:#181818;stroke-width:0.5;" width="145.375" x="1122.5" y="722.0986"/><rect fill="#F1F1F1" height="10" style="stroke:#181818;stroke-width:0.5;" width="15" x="1247.875" y="727.0986"/><rect fill="#F1F1F1" height="2" style="stroke:#181818;stroke-width:0.5;" width="4" x="1245.875" y="729.0986"/><rect fill="#F1F1F1" height="2" style="stroke:#181818;stroke-width:0.5;" width="4" x="1245.875" y="733.0986"/><text fill="#000000" font-family="Arial" font-size="12" lengthAdjust="spacing" textLength="105.375" x="1137.5" y="753.3545">RemotePilotService</text></g><!--entity ImportFlightPlanController--><g id="elem_ImportFlightPlanController"><rect fill="#F1F1F1" height="43.7988" rx="2.5" ry="2.5" style="stroke:#181818;stroke-width:0.5;" width="179.3887" x="1436.5" y="1078.0986"/><rect fill="#F1F1F1" height="10" style="stroke:#181818;stroke-width:0.5;" width="15" x="1595.8887" y="1083.0986"/><rect fill="#F1F1F1" height="2" style="stroke:#181818;stroke-width:0.5;" width="4" x="1593.8887" y="1085.0986"/><rect fill="#F1F1F1" height="2" style="stroke:#181818;stroke-width:0.5;" width="4" x="1593.8887" y="1089.0986"/><text fill="#000000" font-family="Arial" font-size="12" lengthAdjust="spacing" textLength="139.3887" x="1451.5" y="1109.3545">ImportFlightPlanController</text></g><!--entity TestFlightPlanController--><g id="elem_TestFlightPlanController"><rect fill="#F1F1F1" height="43.7988" rx="2.5" ry="2.5" style="stroke:#181818;stroke-width:0.5;" width="168.7188" x="1650.5" y="1078.0986"/><rect fill="#F1F1F1" height="10" style="stroke:#181818;stroke-width:0.5;" width="15" x="1799.2188" y="1083.0986"/><rect fill="#F1F1F1" height="2" style="stroke:#181818;stroke-width:0.5;" width="4" x="1797.2188" y="1085.0986"/><rect fill="#F1F1F1" height="2" style="stroke:#181818;stroke-width:0.5;" width="4" x="1797.2188" y="1089.0986"/><text fill="#000000" font-family="Arial" font-size="12" lengthAdjust="spacing" textLength="128.7188" x="1665.5" y="1109.3545">TestFlightPlanController</text></g><!--entity ListCompanyFleetController--><g id="elem_ListCompanyFleetController"><rect fill="#F1F1F1" height="43.7988" rx="2.5" ry="2.5" style="stroke:#181818;stroke-width:0.5;" width="188.7285" x="474.5" y="1078.0986"/><rect fill="#F1F1F1" height="10" style="stroke:#181818;stroke-width:0.5;" width="15" x="643.2285" y="1083.0986"/><rect fill="#F1F1F1" height="2" style="stroke:#181818;stroke-width:0.5;" width="4" x="641.2285" y="1085.0986"/><rect fill="#F1F1F1" height="2" style="stroke:#181818;stroke-width:0.5;" width="4" x="641.2285" y="1089.0986"/><text fill="#000000" font-family="Arial" font-size="12" lengthAdjust="spacing" textLength="148.7285" x="489.5" y="1109.3545">ListCompanyFleetController</text></g><!--entity GenerateSimulationReportController--><g id="elem_GenerateSimulationReportController"><rect fill="#F1F1F1" height="43.7988" rx="2.5" ry="2.5" style="stroke:#181818;stroke-width:0.5;" width="234.0977" x="699" y="1078.0986"/><rect fill="#F1F1F1" height="10" style="stroke:#181818;stroke-width:0.5;" width="15" x="913.0977" y="1083.0986"/><rect fill="#F1F1F1" height="2" style="stroke:#181818;stroke-width:0.5;" width="4" x="911.0977" y="1085.0986"/><rect fill="#F1F1F1" height="2" style="stroke:#181818;stroke-width:0.5;" width="4" x="911.0977" y="1089.0986"/><text fill="#000000" font-family="Arial" font-size="12" lengthAdjust="spacing" textLength="194.0977" x="714" y="1109.3545">GenerateSimulationReportController</text></g><!--entity GenerateMonthlyReportController--><g id="elem_GenerateMonthlyReportController"><rect fill="#F1F1F1" height="43.7988" rx="2.5" ry="2.5" style="stroke:#181818;stroke-width:0.5;" width="220.0879" x="968" y="1078.0986"/><rect fill="#F1F1F1" height="10" style="stroke:#181818;stroke-width:0.5;" width="15" x="1168.0879" y="1083.0986"/><rect fill="#F1F1F1" height="2" style="stroke:#181818;stroke-width:0.5;" width="4" x="1166.0879" y="1085.0986"/><rect fill="#F1F1F1" height="2" style="stroke:#181818;stroke-width:0.5;" width="4" x="1166.0879" y="1089.0986"/><text fill="#000000" font-family="Arial" font-size="12" lengthAdjust="spacing" textLength="180.0879" x="983" y="1109.3545">GenerateMonthlyReportController</text></g><!--entity ListFlightRoutesController--><g id="elem_ListFlightRoutesController"><rect fill="#F1F1F1" height="43.7988" rx="2.5" ry="2.5" style="stroke:#181818;stroke-width:0.5;" width="178.0586" x="1223" y="1078.0986"/><rect fill="#F1F1F1" height="10" style="stroke:#181818;stroke-width:0.5;" width="15" x="1381.0586" y="1083.0986"/><rect fill="#F1F1F1" height="2" style="stroke:#181818;stroke-width:0.5;" width="4" x="1379.0586" y="1085.0986"/><rect fill="#F1F1F1" height="2" style="stroke:#181818;stroke-width:0.5;" width="4" x="1379.0586" y="1089.0986"/><text fill="#000000" font-family="Arial" font-size="12" lengthAdjust="spacing" textLength="138.0586" x="1238" y="1109.3545">ListFlightRoutesController</text></g><!--entity Flight / FlightPlan--><g id="elem_Flight / FlightPlan"><rect fill="#F1F1F1" height="43.7988" rx="2.5" ry="2.5" style="stroke:#181818;stroke-width:0.5;" width="132.707" x="1459.5" y="1366.0986"/><rect fill="#F1F1F1" height="10" style="stroke:#181818;stroke-width:0.5;" width="15" x="1572.207" y="1371.0986"/><rect fill="#F1F1F1" height="2" style="stroke:#181818;stroke-width:0.5;" width="4" x="1570.207" y="1373.0986"/><rect fill="#F1F1F1" height="2" style="stroke:#181818;stroke-width:0.5;" width="4" x="1570.207" y="1377.0986"/><text fill="#000000" font-family="Arial" font-size="12" lengthAdjust="spacing" textLength="92.707" x="1474.5" y="1397.3545">Flight / FlightPlan</text></g><!--entity Aircraft--><g id="elem_Aircraft"><rect fill="#F1F1F1" height="43.7988" rx="2.5" ry="2.5" style="stroke:#181818;stroke-width:0.5;" width="78.0039" x="1210" y="1366.0986"/><rect fill="#F1F1F1" height="10" style="stroke:#181818;stroke-width:0.5;" width="15" x="1268.0039" y="1371.0986"/><rect fill="#F1F1F1" height="2" style="stroke:#181818;stroke-width:0.5;" width="4" x="1266.0039" y="1373.0986"/><rect fill="#F1F1F1" height="2" style="stroke:#181818;stroke-width:0.5;" width="4" x="1266.0039" y="1377.0986"/><text fill="#000000" font-family="Arial" font-size="12" lengthAdjust="spacing" textLength="38.0039" x="1225" y="1397.3545">Aircraft</text></g><!--entity FlightRoute--><g id="elem_FlightRoute"><rect fill="#F1F1F1" height="43.7988" rx="2.5" ry="2.5" style="stroke:#181818;stroke-width:0.5;" width="101.3652" x="1323.5" y="1366.0986"/><rect fill="#F1F1F1" height="10" style="stroke:#181818;stroke-width:0.5;" width="15" x="1404.8652" y="1371.0986"/><rect fill="#F1F1F1" height="2" style="stroke:#181818;stroke-width:0.5;" width="4" x="1402.8652" y="1373.0986"/><rect fill="#F1F1F1" height="2" style="stroke:#181818;stroke-width:0.5;" width="4" x="1402.8652" y="1377.0986"/><text fill="#000000" font-family="Arial" font-size="12" lengthAdjust="spacing" textLength="61.3652" x="1338.5" y="1397.3545">FlightRoute</text></g><!--entity UdpLoggerClient--><g id="elem_UdpLoggerClient"><rect fill="#F1F1F1" height="43.7988" rx="2.5" ry="2.5" style="stroke:#181818;stroke-width:0.5;" width="130.0586" x="560" y="722.0986"/><rect fill="#F1F1F1" height="10" style="stroke:#181818;stroke-width:0.5;" width="15" x="670.0586" y="727.0986"/><rect fill="#F1F1F1" height="2" style="stroke:#181818;stroke-width:0.5;" width="4" x="668.0586" y="729.0986"/><rect fill="#F1F1F1" height="2" style="stroke:#181818;stroke-width:0.5;" width="4" x="668.0586" y="733.0986"/><text fill="#000000" font-family="Arial" font-size="12" lengthAdjust="spacing" textLength="90.0586" x="575" y="753.3545">UdpLoggerClient</text></g><!--entity Relational Database--><g id="elem_Relational Database"><rect fill="#F1F1F1" height="43.7988" rx="2.5" ry="2.5" style="stroke:#181818;stroke-width:0.5;" width="148.0703" x="1900" y="722.0986"/><rect fill="#F1F1F1" height="10" style="stroke:#181818;stroke-width:0.5;" width="15" x="2028.0703" y="727.0986"/><rect fill="#F1F1F1" height="2" style="stroke:#181818;stroke-width:0.5;" width="4" x="2026.0703" y="729.0986"/><rect fill="#F1F1F1" height="2" style="stroke:#181818;stroke-width:0.5;" width="4" x="2026.0703" y="733.0986"/><text fill="#000000" font-family="Arial" font-size="12" lengthAdjust="spacing" textLength="108.0703" x="1915" y="753.3545">Relational Database</text></g><!--entity LogStore--><g id="elem_LogStore"><rect fill="#F1F1F1" height="43.7988" rx="2.5" ry="2.5" style="stroke:#181818;stroke-width:0.5;" width="88.7031" x="259.5" y="1078.0986"/><rect fill="#F1F1F1" height="10" style="stroke:#181818;stroke-width:0.5;" width="15" x="328.2031" y="1083.0986"/><rect fill="#F1F1F1" height="2" style="stroke:#181818;stroke-width:0.5;" width="4" x="326.2031" y="1085.0986"/><rect fill="#F1F1F1" height="2" style="stroke:#181818;stroke-width:0.5;" width="4" x="326.2031" y="1089.0986"/><text fill="#000000" font-family="Arial" font-size="12" lengthAdjust="spacing" textLength="48.7031" x="274.5" y="1109.3545">LogStore</text></g><!--entity UdpLogReceiver--><g id="elem_UdpLogReceiver"><rect fill="#F1F1F1" height="43.7988" rx="2.5" ry="2.5" style="stroke:#181818;stroke-width:0.5;" width="129.3848" x="240.5" y="934.0986"/><rect fill="#F1F1F1" height="10" style="stroke:#181818;stroke-width:0.5;" width="15" x="349.8848" y="939.0986"/><rect fill="#F1F1F1" height="2" style="stroke:#181818;stroke-width:0.5;" width="4" x="347.8848" y="941.0986"/><rect fill="#F1F1F1" height="2" style="stroke:#181818;stroke-width:0.5;" width="4" x="347.8848" y="945.0986"/><text fill="#000000" font-family="Arial" font-size="12" lengthAdjust="spacing" textLength="89.3848" x="255.5" y="965.3545">UdpLogReceiver</text></g><!--entity HttpLogServer--><g id="elem_HttpLogServer"><rect fill="#F1F1F1" height="43.7988" rx="2.5" ry="2.5" style="stroke:#181818;stroke-width:0.5;" width="117.373" x="241.5" y="1217.0986"/><rect fill="#F1F1F1" height="10" style="stroke:#181818;stroke-width:0.5;" width="15" x="338.873" y="1222.0986"/><rect fill="#F1F1F1" height="2" style="stroke:#181818;stroke-width:0.5;" width="4" x="336.873" y="1224.0986"/><rect fill="#F1F1F1" height="2" style="stroke:#181818;stroke-width:0.5;" width="4" x="336.873" y="1228.0986"/><text fill="#000000" font-family="Arial" font-size="12" lengthAdjust="spacing" textLength="77.373" x="256.5" y="1248.3545">HttpLogServer</text></g><!--entity Browser--><g id="elem_Browser"><rect fill="#F1F1F1" height="43.7988" rx="2.5" ry="2.5" style="stroke:#181818;stroke-width:0.5;" width="84.0098" x="76" y="1078.0986"/><rect fill="#F1F1F1" height="10" style="stroke:#181818;stroke-width:0.5;" width="15" x="140.0098" y="1083.0986"/><rect fill="#F1F1F1" height="2" style="stroke:#181818;stroke-width:0.5;" width="4" x="138.0098" y="1085.0986"/><rect fill="#F1F1F1" height="2" style="stroke:#181818;stroke-width:0.5;" width="4" x="138.0098" y="1089.0986"/><text fill="#000000" font-family="Arial" font-size="12" lengthAdjust="spacing" textLength="44.0098" x="91" y="1109.3545">Browser</text></g><!--link PilotClientApp to TcpClient--><g id="link_PilotClientApp_TcpClient"><path d="M712,138.4386 C712,156.1186 712,175.1186 712,192.7886 " fill="none" id="PilotClientApp-to-TcpClient" style="stroke:#181818;stroke-width:1.0;"/><polygon fill="#181818" points="712,198.7886,716,189.7886,712,193.7886,708,189.7886,712,198.7886" style="stroke:#181818;stroke-width:1.0;"/></g><!--link PilotServerDaemon to PilotClientHandler--><g id="link_PilotServerDaemon_PilotClientHandler"><path d="M712,441.4386 C712,459.1186 712,478.1186 712,495.7886 " fill="none" id="PilotServerDaemon-to-PilotClientHandler" style="stroke:#181818;stroke-width:1.0;"/><polygon fill="#181818" points="712,501.7886,716,492.7886,712,496.7886,708,492.7886,712,501.7886" style="stroke:#181818;stroke-width:1.0;"/></g><!--link PilotClientHandler to RemotePilotService--><g id="link_PilotClientHandler_RemotePilotService"><path d="M758.75,546.1986 C851.08,587.8686 1050.4014,677.8299 1142.7514,719.5199 " fill="none" id="PilotClientHandler-to-RemotePilotService" style="stroke:#181818;stroke-width:1.0;"/><polygon fill="#181818" points="1148.22,721.9886,1141.6629,714.6398,1143.6628,719.9314,1138.3713,721.9313,1148.22,721.9886" style="stroke:#181818;stroke-width:1.0;"/></g><!--link RemotePilotService to ImportFlightPlanController--><g id="link_RemotePilotService_ImportFlightPlanController"><path d="M1214.71,766.1786 C1273.45,828.9986 1442.7321,1010.046 1501.8721,1073.296 " fill="none" id="RemotePilotService-to-ImportFlightPlanController" style="stroke:#181818;stroke-width:1.0;"/><polygon fill="#181818" points="1505.97,1077.6786,1502.745,1068.3728,1502.5551,1074.0264,1496.9015,1073.8366,1505.97,1077.6786" style="stroke:#181818;stroke-width:1.0;"/></g><!--link RemotePilotService to TestFlightPlanController--><g id="link_RemotePilotService_TestFlightPlanController"><path d="M1246.89,766.1086 C1279.81,780.1686 1322.85,799.9286 1359,821.0986 C1488.64,897.0386 1512.98,928.7186 1633,1019.0986 C1659.07,1038.7286 1683.6363,1058.0511 1704.1063,1074.3511 " fill="none" id="RemotePilotService-to-TestFlightPlanController" style="stroke:#181818;stroke-width:1.0;"/><polygon fill="#181818" points="1708.8,1078.0886,1704.2511,1069.3532,1704.8886,1074.974,1699.2678,1075.6115,1708.8,1078.0886" style="stroke:#181818;stroke-width:1.0;"/></g><!--link RemotePilotService to ListCompanyFleetController--><g id="link_RemotePilotService_ListCompanyFleetController"><path d="M1122.48,755.0086 C1061.62,765.3986 973.69,785.3386 904,821.0986 C766.83,891.4786 639.6017,1021.8125 591.9317,1073.6425 " fill="none" id="RemotePilotService-to-ListCompanyFleetController" style="stroke:#181818;stroke-width:1.0;"/><polygon fill="#181818" points="587.87,1078.0586,596.9067,1074.1422,591.2548,1074.3785,591.0185,1068.7266,587.87,1078.0586" style="stroke:#181818;stroke-width:1.0;"/></g><!--link RemotePilotService to GenerateSimulationReportController--><g id="link_RemotePilotService_GenerateSimulationReportController"><path d="M1168.04,766.1286 C1149.19,781.0586 1123.63,801.8086 1102,821.0986 C998.89,913.0386 886.9897,1026.2137 840.7697,1073.5937 " fill="none" id="RemotePilotService-to-GenerateSimulationReportController" style="stroke:#181818;stroke-width:1.0;"/><polygon fill="#181818" points="836.58,1077.8886,845.7279,1074.2395,840.0714,1074.3096,840.0013,1068.6531,836.58,1077.8886" style="stroke:#181818;stroke-width:1.0;"/></g><!--link RemotePilotService to GenerateMonthlyReportController--><g id="link_RemotePilotService_GenerateMonthlyReportController"><path d="M1188.03,766.1786 C1167.27,828.9986 1107.8625,1008.7316 1086.9625,1071.9816 " fill="none" id="RemotePilotService-to-GenerateMonthlyReportController" style="stroke:#181818;stroke-width:1.0;"/><polygon fill="#181818" points="1085.08,1077.6786,1091.7018,1070.3881,1086.6487,1072.9311,1084.1057,1067.8781,1085.08,1077.6786" style="stroke:#181818;stroke-width:1.0;"/></g><!--link RemotePilotService to ListFlightRoutesController--><g id="link_RemotePilotService_ListFlightRoutesController"><path d="M1201.97,766.1786 C1222.73,828.9986 1282.1375,1008.7316 1303.0375,1071.9816 " fill="none" id="RemotePilotService-to-ListFlightRoutesController" style="stroke:#181818;stroke-width:1.0;"/><polygon fill="#181818" points="1304.92,1077.6786,1305.8943,1067.8781,1303.3513,1072.9311,1298.2982,1070.3881,1304.92,1077.6786" style="stroke:#181818;stroke-width:1.0;"/></g><!--link ImportFlightPlanController to Flight / FlightPlan--><g id="link_ImportFlightPlanController_Flight / FlightPlan"><path d="M1526,1122.1286 C1526,1175.0186 1526,1307.1186 1526,1360.0386 " fill="none" id="ImportFlightPlanController-to-Flight / FlightPlan" style="stroke:#181818;stroke-width:1.0;"/><polygon fill="#181818" points="1526,1366.0386,1530,1357.0386,1526,1361.0386,1522,1357.0386,1526,1366.0386" style="stroke:#181818;stroke-width:1.0;"/></g><!--link ImportFlightPlanController to Aircraft--><g id="link_ImportFlightPlanController_Aircraft"><path d="M1504.91,1122.3486 C1465.53,1162.0886 1378.29,1250.4686 1306,1326.0986 C1293.38,1339.2986 1283.4634,1349.8925 1272.4934,1361.7025 " fill="none" id="ImportFlightPlanController-to-Aircraft" style="stroke:#181818;stroke-width:1.0;"/><polygon fill="#181818" points="1268.41,1366.0986,1277.4659,1362.2268,1271.8129,1362.4352,1271.6044,1356.7822,1268.41,1366.0986" style="stroke:#181818;stroke-width:1.0;"/></g><!--link TestFlightPlanController to Flight / FlightPlan--><g id="link_TestFlightPlanController_Flight / FlightPlan"><path d="M1741.55,1122.3386 C1752.63,1162.8486 1770.21,1252.1486 1730,1309.0986 C1698.94,1353.0786 1645.4759,1371.2103 1598.7659,1379.5803 " fill="none" id="TestFlightPlanController-to-Flight / FlightPlan" style="stroke:#181818;stroke-width:1.0;"/><polygon fill="#181818" points="1592.86,1380.6386,1602.4244,1382.9885,1597.7816,1379.7567,1601.0134,1375.1139,1592.86,1380.6386" style="stroke:#181818;stroke-width:1.0;"/></g><!--link TestFlightPlanController to FlightPlan--><g id="link_TestFlightPlanController_FlightPlan"><path d="M1722.21,1122.2086 C1706.66,1147.8786 1683.6692,1185.8271 1668.0492,1211.6071 " fill="none" id="TestFlightPlanController-to-FlightPlan" style="stroke:#181818;stroke-width:1.0;"/><polygon fill="#181818" points="1664.94,1216.7386,1673.0248,1211.1141,1667.531,1212.4623,1666.1827,1206.9685,1664.94,1216.7386" style="stroke:#181818;stroke-width:1.0;"/></g><!--link ListCompanyFleetController to Aircraft--><g id="link_ListCompanyFleetController_Aircraft"><path d="M619,1122.1286 C748.59,1176.6286 1087.7692,1319.2926 1204.3292,1368.3126 " fill="none" id="ListCompanyFleetController-to-Aircraft" style="stroke:#181818;stroke-width:1.0;"/><polygon fill="#181818" points="1209.86,1370.6386,1203.1145,1363.4624,1205.251,1368.7003,1200.0131,1370.8368,1209.86,1370.6386" style="stroke:#181818;stroke-width:1.0;"/></g><!--link ListFlightRoutesController to FlightRoute--><g id="link_ListFlightRoutesController_FlightRoute"><path d="M1316.56,1122.1286 C1328.02,1175.0186 1356.6891,1307.2548 1368.1591,1360.1748 " fill="none" id="ListFlightRoutesController-to-FlightRoute" style="stroke:#181818;stroke-width:1.0;"/><polygon fill="#181818" points="1369.43,1366.0386,1371.4328,1356.3956,1368.3709,1361.1521,1363.6144,1358.0902,1369.43,1366.0386" style="stroke:#181818;stroke-width:1.0;"/></g><!--link UdpLogReceiver to LogStore--><g id="link_UdpLogReceiver_LogStore"><path d="M304.85,978.3586 C304.66,1005.1286 304.3825,1044.8588 304.1925,1071.6988 " fill="none" id="UdpLogReceiver-to-LogStore" style="stroke:#181818;stroke-width:1.0;"/><polygon fill="#181818" points="304.15,1077.6986,308.2136,1068.7272,304.1854,1072.6988,300.2138,1068.6705,304.15,1077.6986" style="stroke:#181818;stroke-width:1.0;"/></g><!--link LogStore to HttpLogServer--><g id="link_LogStore_HttpLogServer"><path d="M303.38,1122.2086 C302.63,1147.8786 301.5568,1184.9612 300.7968,1210.7412 " fill="none" id="LogStore-to-HttpLogServer" style="stroke:#181818;stroke-width:1.0;"/><polygon fill="#181818" points="300.62,1216.7386,304.8835,1207.8604,300.7673,1211.7408,296.8869,1207.6247,300.62,1216.7386" style="stroke:#181818;stroke-width:1.0;"/></g><!--link TcpClient to PilotServerDaemon--><g id="link_TcpClient_PilotServerDaemon"><path d="M712,243.4486 C712,281.2486 712,353.4986 712,391.0686 " fill="none" id="TcpClient-to-PilotServerDaemon" style="stroke:#181818;stroke-width:1.0;"/><polygon fill="#181818" points="712,397.0686,716,388.0686,712,392.0686,708,388.0686,712,397.0686" style="stroke:#181818;stroke-width:1.0;"/><text fill="#000000" font-family="Arial" font-size="12" lengthAdjust="spacing" textLength="62.0215" x="713" y="287.3545">TCP (1086)</text></g><!--link PilotClientHandler to UdpLoggerClient--><g id="link_PilotClientHandler_UdpLoggerClient"><path d="M703.5,546.3986 C686.82,588.1786 652.2342,674.8661 635.6342,716.4561 " fill="none" id="PilotClientHandler-to-UdpLoggerClient" style="stroke:#181818;stroke-width:1.0;"/><polygon fill="#181818" points="633.41,722.0286,640.4613,715.1526,635.2635,717.3849,633.0313,712.1871,633.41,722.0286" style="stroke:#181818;stroke-width:1.0;"/><text fill="#000000" font-family="Arial" font-size="12" lengthAdjust="spacing" textLength="64.0254" x="679" y="621.3545">UDP events</text></g><!--link UdpLoggerClient to UdpLogReceiver--><g id="link_UdpLoggerClient_UdpLogReceiver"><path d="M592.85,766.1986 C531.52,806.4486 403.4663,890.4868 342.1463,930.7268 " fill="none" id="UdpLoggerClient-to-UdpLogReceiver" style="stroke:#181818;stroke-width:1.0;"/><polygon fill="#181818" points="337.13,934.0186,346.8491,932.4251,341.3103,931.2754,342.4599,925.7366,337.13,934.0186" style="stroke:#181818;stroke-width:1.0;"/><text fill="#000000" font-family="Arial" font-size="12" lengthAdjust="spacing" textLength="66.6797" x="540" y="810.3545">UDP (US90)</text></g><!--link RemotePilotService to Relational Database--><g id="link_RemotePilotService_Relational Database"><path d="M1267.59,744.0986 C1415.55,744.0986 1744.65,744.0986 1893.89,744.0986 " fill="none" id="RemotePilotService-to-Relational Database" style="stroke:#181818;stroke-width:1.0;"/><polygon fill="#181818" points="1899.89,744.0986,1890.89,740.0986,1894.89,744.0986,1890.89,748.0986,1899.89,744.0986" style="stroke:#181818;stroke-width:1.0;"/><text fill="#000000" font-family="Arial" font-size="12" lengthAdjust="spacing" textLength="57.3457" x="1555.25" y="738.3545">SQL (JPA)</text></g><!--link Browser to HttpLogServer--><g id="link_Browser_HttpLogServer"><path d="M115.19,1122.1986 C114.42,1136.7986 115.86,1155.8986 126,1169.0986 C153.52,1204.9186 196.5916,1220.9288 235.5616,1229.2288 " fill="none" id="Browser-to-HttpLogServer" style="stroke:#181818;stroke-width:1.0;"/><polygon fill="#181818" points="241.43,1230.4786,233.4607,1224.6916,236.5397,1229.4371,231.7942,1232.5161,241.43,1230.4786" style="stroke:#181818;stroke-width:1.0;"/><text fill="#000000" font-family="Arial" font-size="12" lengthAdjust="spacing" textLength="72.6738" x="127" y="1166.3545">HTTP (US91)</text></g><!--SRC=[ZLLDZzem4BtdLrXxWiEgonwgjWSa2gAqObUKWFQmS339RB1mxCWshBOL_xt-I8YpYTdUafdttendncD550MqZk- -V8uYUI2im0BdA8KNVAHgofbwn3cWaI2OTljZyWVGu3wA64y1tJnnSP0AAyBPXlLMumKQKm9CzMyGbkXL3j3V2A7d1Q5SES-eABR6j4eAPp1_JJ-wlHsYYpywLy76b1zJzAY_D-m14uOqbfB4HhVn4WDm8GkS772cIIQd6CG9X8Mef8Z5oKAgl9ntWY7dRElPNVWPPYa5OHndNzUmI09ML8hJuf1LeaijfE0YhK4jybXNKd1AowGI9QWdy3Clk51JIhAzMb3CQdIPtWhaDVUSI3NcUO7PsvG2g1RW1p0GM45CyYErvLk22Ha4FcZ7dhu5K2QUIsV9Zmfa4z0u-8Jdkd7sq2dFlJCxFlg4wdELwYCY4e5VrDO7sa0jzVMacZyRuPWMNeHrMinvbe6en-vSZPu_0dRwsWFGdDBIgB4Qt6wu1hUD3XnkReYaxqAWts56U0J2d8-ducDkO52k9zezEveJhfMhPMXghlA6pP4ArHPT2_0_f0eRRaKxcN0rVELo-3ltuWGhlCCI_9sNxepFRU8bkDPYYYfeGCar38sI1AJSC7Dt2CjyNSgpYt3Z3deOVGUzVUlku18I8AUExJ1RhHhalL8-UwP_DTq1AlApiIWkx3Pewhi1AzsckkMdjJV4wWeq7xGdsA7lWhzA4DMBTk_gM5fjxIvFLRqw6Wlb6pAFK6-WNzr-55eYxzQJ9fbAmab_o-YzioPSpkhmlNNyzQuVTLssONVpDJ7-FKUzNujHFofFrIwGHjdc6Fr1_ny0]--></g></svg>