<svg xmlns="http://www.w3.org/2000/svg" xmlns:xlink="http://www.w3.org/1999/xlink" contentStyleType="text/css" height="1304px" preserveAspectRatio="none" style="width:1070px;height:1304px;background:#FFFFFF;" version="1.1" viewBox="0 0 1070 1304" width="1070px" zoomAndPan="magnify"><title>sd_us086_pilot_remote_access</title><defs/><g><text fill="#000000" font-family="Arial" font-size="14" font-weight="bold" lengthAdjust="spacing" textLength="210.123" x="444.2104" y="28.1318">sd_us086_pilot_remote_access</text><rect fill="#FFFFFF" height="1145.752" style="stroke:#181818;stroke-width:1.0;" width="10" x="74.6875" y="100.6963"/><rect fill="#FFFFFF" height="83.3965" style="stroke:#181818;stroke-width:1.0;" width="10" x="249.4297" y="100.6963"/><rect fill="#FFFFFF" height="33.7988" style="stroke:#181818;stroke-width:1.0;" width="10" x="249.4297" y="1212.6494"/><rect fill="#FFFFFF" height="27.7988" style="stroke:#181818;stroke-width:1.0;" width="10" x="410.7939" y="128.4951"/><rect fill="#FFFFFF" height="1106.1543" style="stroke:#181818;stroke-width:1.0;" width="10" x="614.5361" y="156.2939"/><rect fill="#FFFFFF" height="972.959" style="stroke:#181818;stroke-width:1.0;" width="10" x="619.5361" y="211.8916"/><rect fill="#FFFFFF" height="27.7988" style="stroke:#181818;stroke-width:1.0;" width="10" x="826.4717" y="239.6904"/><rect fill="#FFFFFF" height="27.7988" style="stroke:#181818;stroke-width:1.0;" width="10" x="826.4717" y="378.6846"/><rect fill="#FFFFFF" height="27.7988" style="stroke:#181818;stroke-width:1.0;" width="10" x="826.4717" y="489.8799"/><rect fill="#FFFFFF" height="27.7988" style="stroke:#181818;stroke-width:1.0;" width="10" x="826.4717" y="601.0752"/><rect fill="#FFFFFF" height="27.7988" style="stroke:#181818;stroke-width:1.0;" width="10" x="826.4717" y="712.2705"/><rect fill="#FFFFFF" height="27.7988" style="stroke:#181818;stroke-width:1.0;" width="10" x="826.4717" y="823.4658"/><rect fill="#FFFFFF" height="27.7988" style="stroke:#181818;stroke-width:1.0;" width="10" x="826.4717" y="934.6611"/><rect fill="#FFFFFF" height="27.7988" style="stroke:#181818;stroke-width:1.0;" width="10" x="826.4717" y="1045.8564"/><rect fill="#FFFFFF" height="861.7637" style="stroke:#181818;stroke-width:1.0;" width="10" x="1007.8516" y="295.2881"/><line style="stroke:#181818;stroke-width:0.5;stroke-dasharray:5.0,5.0;" x1="79" x2="79" y1="70.8975" y2="1271.4482"/><line style="stroke:#181818;stroke-width:0.5;stroke-dasharray:5.0,5.0;" x1="254.0879" x2="254.0879" y1="70.8975" y2="1271.4482"/><line style="stroke:#181818;stroke-width:0.5;stroke-dasharray:5.0,5.0;" x1="415.7715" x2="415.7715" y1="70.8975" y2="1271.4482"/><line style="stroke:#181818;stroke-width:0.5;stroke-dasharray:5.0,5.0;" x1="619.5127" x2="619.5127" y1="70.8975" y2="1271.4482"/><line style="stroke:#181818;stroke-width:0.5;stroke-dasharray:5.0,5.0;" x1="830.7842" x2="830.7842" y1="70.8975" y2="1271.4482"/><line style="stroke:#181818;stroke-width:0.5;stroke-dasharray:5.0,5.0;" x1="1012.1592" x2="1012.1592" y1="70.8975" y2="1271.4482"/><rect fill="#E2E2F0" height="27.7988" rx="2.5" ry="2.5" style="stroke:#181818;stroke-width:0.5;" width="89.375" x="35" y="42.0986"/><text fill="#000000" font-family="Arial" font-size="12" lengthAdjust="spacing" textLength="75.375" x="42" y="60.3545">PilotClientApp</text><rect fill="#E2E2F0" height="27.7988" rx="2.5" ry="2.5" style="stroke:#181818;stroke-width:0.5;" width="89.375" x="35" y="1270.4482"/><text fill="#000000" font-family="Arial" font-size="12" lengthAdjust="spacing" textLength="75.375" x="42" y="1288.7041">PilotClientApp</text><rect fill="#E2E2F0" height="27.7988" rx="2.5" ry="2.5" style="stroke:#181818;stroke-width:0.5;" width="64.6836" x="222.0879" y="42.0986"/><text fill="#000000" font-family="Arial" font-size="12" lengthAdjust="spacing" textLength="50.6836" x="229.0879" y="60.3545">TcpClient</text><rect fill="#E2E2F0" height="27.7988" rx="2.5" ry="2.5" style="stroke:#181818;stroke-width:0.5;" width="64.6836" x="222.0879" y="1270.4482"/><text fill="#000000" font-family="Arial" font-size="12" lengthAdjust="spacing" textLength="50.6836" x="229.0879" y="1288.7041">TcpClient</text><rect fill="#E2E2F0" height="27.7988" rx="2.5" ry="2.5" style="stroke:#181818;stroke-width:0.5;" width="118.0449" x="356.7715" y="42.0986"/><text fill="#000000" font-family="Arial" font-size="12" lengthAdjust="spacing" textLength="104.0449" x="363.7715" y="60.3545">PilotServerDaemon</text><rect fill="#E2E2F0" height="27.7988" rx="2.5" ry="2.5" style="stroke:#181818;stroke-width:0.5;" width="118.0449" x="356.7715" y="1270.4482"/><text fill="#000000" font-family="Arial" font-size="12" lengthAdjust="spacing" textLength="104.0449" x="363.7715" y="1288.7041">PilotServerDaemon</text><rect fill="#E2E2F0" height="27.7988" rx="2.5" ry="2.5" style="stroke:#181818;stroke-width:0.5;" width="110.0469" x="564.5127" y="42.0986"/><text fill="#000000" font-family="Arial" font-size="12" lengthAdjust="spacing" textLength="96.0469" x="571.5127" y="60.3545">PilotClientHandler</text><rect fill="#E2E2F0" height="27.7988" rx="2.5" ry="2.5" style="stroke:#181818;stroke-width:0.5;" width="110.0469" x="564.5127" y="1270.4482"/><text fill="#000000" font-family="Arial" font-size="12" lengthAdjust="spacing" textLength="96.0469" x="571.5127" y="1288.7041">PilotClientHandler</text><rect fill="#E2E2F0" height="27.7988" rx="2.5" ry="2.5" style="stroke:#181818;stroke-width:0.5;" width="119.375" x="771.7842" y="42.0986"/><text fill="#000000" font-family="Arial" font-size="12" lengthAdjust="spacing" textLength="105.375" x="778.7842" y="60.3545">RemotePilotService</text><rect fill="#E2E2F0" height="27.7988" rx="2.5" ry="2.5" style="stroke:#181818;stroke-width:0.5;" width="119.375" x="771.7842" y="1270.4482"/><text fill="#000000" font-family="Arial" font-size="12" lengthAdjust="spacing" textLength="105.375" x="778.7842" y="1288.7041">RemotePilotService</text><rect fill="#E2E2F0" height="27.7988" rx="2.5" ry="2.5" style="stroke:#181818;stroke-width:0.5;" width="103.3848" x="961.1592" y="42.0986"/><text fill="#000000" font-family="Arial" font-size="12" lengthAdjust="spacing" textLength="89.3848" x="968.1592" y="60.3545">UdpLogReceiver</text><rect fill="#E2E2F0" height="27.7988" rx="2.5" ry="2.5" style="stroke:#181818;stroke-width:0.5;" width="103.3848" x="961.1592" y="1270.4482"/><text fill="#000000" font-family="Arial" font-size="12" lengthAdjust="spacing" textLength="89.3848" x="968.1592" y="1288.7041">UdpLogReceiver</text><rect fill="#FFFFFF" height="1145.752" style="stroke:#181818;stroke-width:1.0;" width="10" x="74.6875" y="100.6963"/><rect fill="#FFFFFF" height="83.3965" style="stroke:#181818;stroke-width:1.0;" width="10" x="249.4297" y="100.6963"/><rect fill="#FFFFFF" height="33.7988" style="stroke:#181818;stroke-width:1.0;" width="10" x="249.4297" y="1212.6494"/><rect fill="#FFFFFF" height="27.7988" style="stroke:#181818;stroke-width:1.0;" width="10" x="410.7939" y="128.4951"/><rect fill="#FFFFFF" height="1106.1543" style="stroke:#181818;stroke-width:1.0;" width="10" x="614.5361" y="156.2939"/><rect fill="#FFFFFF" height="972.959" style="stroke:#181818;stroke-width:1.0;" width="10" x="619.5361" y="211.8916"/><rect fill="#FFFFFF" height="27.7988" style="stroke:#181818;stroke-width:1.0;" width="10" x="826.4717" y="239.6904"/><rect fill="#FFFFFF" height="27.7988" style="stroke:#181818;stroke-width:1.0;" width="10" x="826.4717" y="378.6846"/><rect fill="#FFFFFF" height="27.7988" style="stroke:#181818;stroke-width:1.0;" width="10" x="826.4717" y="489.8799"/><rect fill="#FFFFFF" height="27.7988" style="stroke:#181818;stroke-width:1.0;" width="10" x="826.4717" y="601.0752"/><rect fill="#FFFFFF" height="27.7988" style="stroke:#181818;stroke-width:1.0;" width="10" x="826.4717" y="712.2705"/><rect fill="#FFFFFF" height="27.7988" style="stroke:#181818;stroke-width:1.0;" width="10" x="826.4717" y="823.4658"/><rect fill="#FFFFFF" height="27.7988" style="stroke:#181818;stroke-width:1.0;" width="10" x="826.4717" y="934.6611"/><rect fill="#FFFFFF" height="27.7988" style="stroke:#181818;stroke-width:1.0;" width="10" x="826.4717" y="1045.8564"/><rect fill="#FFFFFF" height="861.7637" style="stroke:#181818;stroke-width:1.0;" width="10" x="1007.8516" y="295.2881"/><polygon fill="#181818" points="237.4297,96.6963,247.4297,100.6963,237.4297,104.6963,241.4297,100.6963" style="stroke:#181818;stroke-width:1.0;"/><line style="stroke:#181818;stroke-width:1.0;" x1="84.6875" x2="243.4297" y1="100.6963" y2="100.6963"/><text fill="#000000" font-family="Arial" font-size="12" font-weight="bold" lengthAdjust="spacing" textLength="6.6738" x="91.6875" y="96.1533">1</text><text fill="#000000" font-family="Arial" font-size="12" lengthAdjust="spacing" textLength="140.0684" x="102.3613" y="96.1533">new TcpClient(host, 1086)</text><polygon fill="#181818" points="398.7939,124.4951,408.7939,128.4951,398.7939,132.4951,402.7939,128.4951" style="stroke:#181818;stroke-width:1.0;"/><line style="stroke:#181818;stroke-width:1.0;" x1="259.4297" x2="404.7939" y1="128.4951" y2="128.4951"/><text fill="#000000" font-family="Arial" font-size="12" font-weight="bold" lengthAdjust="spacing" textLength="6.6738" x="295.0933" y="123.9521">2</text><text fill="#000000" font-family="Arial" font-size="12" lengthAdjust="spacing" textLength="69.3633" x="305.7671" y="123.9521">TCP connect</text><polygon fill="#181818" points="602.5361,152.2939,612.5361,156.2939,602.5361,160.2939,606.5361,156.2939" style="stroke:#181818;stroke-width:1.0;"/><line style="stroke:#181818;stroke-width:1.0;" x1="415.7939" x2="608.5361" y1="156.2939" y2="156.2939"/><text fill="#000000" font-family="Arial" font-size="12" font-weight="bold" lengthAdjust="spacing" textLength="6.6738" x="427.7939" y="151.751">3</text><text fill="#000000" font-family="Arial" font-size="12" lengthAdjust="spacing" textLength="164.0684" x="438.4678" y="151.751">new PilotClientHandler(socket)</text><polygon fill="#181818" points="95.6875,180.0928,85.6875,184.0928,95.6875,188.0928,91.6875,184.0928" style="stroke:#181818;stroke-width:1.0;"/><line style="stroke:#181818;stroke-width:1.0;stroke-dasharray:2.0,2.0;" x1="89.6875" x2="253.4297" y1="184.0928" y2="184.0928"/><text fill="#000000" font-family="Arial" font-size="12" font-weight="bold" lengthAdjust="spacing" textLength="6.6738" x="136.5332" y="179.5498">4</text><text fill="#000000" font-family="Arial" font-size="12" lengthAdjust="spacing" textLength="55.377" x="147.207" y="179.5498">connected</text><polygon fill="#181818" points="607.5361,207.8916,617.5361,211.8916,607.5361,215.8916,611.5361,211.8916" style="stroke:#181818;stroke-width:1.0;"/><line style="stroke:#181818;stroke-width:1.0;" x1="84.6875" x2="613.5361" y1="211.8916" y2="211.8916"/><text fill="#000000" font-family="Arial" font-size="12" font-weight="bold" lengthAdjust="spacing" textLength="6.6738" x="286.3032" y="207.3486">5</text><text fill="#000000" font-family="Arial" font-size="12" lengthAdjust="spacing" textLength="120.9434" x="296.9771" y="207.3486">AUTH|fco1|Password1</text><polygon fill="#181818" points="814.4717,235.6904,824.4717,239.6904,814.4717,243.6904,818.4717,239.6904" style="stroke:#181818;stroke-width:1.0;"/><line style="stroke:#181818;stroke-width:1.0;" x1="629.5361" x2="820.4717" y1="239.6904" y2="239.6904"/><text fill="#000000" font-family="Arial" font-size="12" font-weight="bold" lengthAdjust="spacing" textLength="6.6738" x="641.623" y="235.1475">6</text><text fill="#000000" font-family="Arial" font-size="12" lengthAdjust="spacing" textLength="162.0879" x="652.2969" y="235.1475">authenticate(fco1, Password1)</text><polygon fill="#181818" points="640.5361,263.4893,630.5361,267.4893,640.5361,271.4893,636.5361,267.4893" style="stroke:#181818;stroke-width:1.0;"/><line style="stroke:#181818;stroke-width:1.0;stroke-dasharray:2.0,2.0;" x1="634.5361" x2="830.4717" y1="267.4893" y2="267.4893"/><text fill="#000000" font-family="Arial" font-size="12" font-weight="bold" lengthAdjust="spacing" textLength="6.6738" x="697.1504" y="262.9463">7</text><text fill="#000000" font-family="Arial" font-size="12" lengthAdjust="spacing" textLength="56.0332" x="707.8242" y="262.9463">auth result</text><polygon fill="#181818" points="995.8516,291.2881,1005.8516,295.2881,995.8516,299.2881,999.8516,295.2881" style="stroke:#181818;stroke-width:1.0;"/><line style="stroke:#181818;stroke-width:1.0;" x1="629.5361" x2="1001.8516" y1="295.2881" y2="295.2881"/><text fill="#000000" font-family="Arial" font-size="12" font-weight="bold" lengthAdjust="spacing" textLength="6.6738" x="768.3452" y="290.7451">8</text><text fill="#000000" font-family="Arial" font-size="12" lengthAdjust="spacing" textLength="90.0234" x="779.019" y="290.7451">UDP LOGIN_OK</text><polygon fill="#181818" points="95.6875,319.0869,85.6875,323.0869,95.6875,327.0869,91.6875,323.0869" style="stroke:#181818;stroke-width:1.0;"/><line style="stroke:#181818;stroke-width:1.0;stroke-dasharray:2.0,2.0;" x1="89.6875" x2="618.5361" y1="323.0869" y2="323.0869"/><text fill="#000000" font-family="Arial" font-size="12" font-weight="bold" lengthAdjust="spacing" textLength="6.6738" x="318.436" y="318.5439">9</text><text fill="#000000" font-family="Arial" font-size="12" lengthAdjust="spacing" textLength="56.6777" x="329.1099" y="318.5439">AUTH_OK</text><polygon fill="#181818" points="607.5361,346.8857,617.5361,350.8857,607.5361,354.8857,611.5361,350.8857" style="stroke:#181818;stroke-width:1.0;"/><line style="stroke:#181818;stroke-width:1.0;" x1="84.6875" x2="613.5361" y1="350.8857" y2="350.8857"/><text fill="#000000" font-family="Arial" font-size="12" font-weight="bold" lengthAdjust="spacing" textLength="13.3477" x="308.7593" y="346.3428">10</text><text fill="#000000" font-family="Arial" font-size="12" lengthAdjust="spacing" textLength="69.3574" x="326.1069" y="346.3428">LIST_FLEET</text><polygon fill="#181818" points="814.4717,374.6846,824.4717,378.6846,814.4717,382.6846,818.4717,378.6846" style="stroke:#181818;stroke-width:1.0;"/><line style="stroke:#181818;stroke-width:1.0;" x1="629.5361" x2="820.4717" y1="378.6846" y2="378.6846"/><text fill="#000000" font-family="Arial" font-size="12" font-weight="bold" lengthAdjust="spacing" textLength="13.3477" x="694.6621" y="374.1416">11</text><text fill="#000000" font-family="Arial" font-size="12" lengthAdjust="spacing" textLength="49.3359" x="712.0098" y="374.1416">listFleet()</text><polygon fill="#181818" points="640.5361,402.4834,630.5361,406.4834,640.5361,410.4834,636.5361,406.4834" style="stroke:#181818;stroke-width:1.0;"/><line style="stroke:#181818;stroke-width:1.0;stroke-dasharray:2.0,2.0;" x1="634.5361" x2="830.4717" y1="406.4834" y2="406.4834"/><text fill="#000000" font-family="Arial" font-size="12" font-weight="bold" lengthAdjust="spacing" textLength="13.3477" x="682.6016" y="401.9404">12</text><text fill="#000000" font-family="Arial" font-size="12" lengthAdjust="spacing" textLength="78.457" x="699.9492" y="401.9404">OK|CS-TRA,...</text><polygon fill="#181818" points="95.6875,430.2822,85.6875,434.2822,95.6875,438.2822,91.6875,434.2822" style="stroke:#181818;stroke-width:1.0;"/><line style="stroke:#181818;stroke-width:1.0;stroke-dasharray:2.0,2.0;" x1="89.6875" x2="618.5361" y1="434.2822" y2="434.2822"/><text fill="#000000" font-family="Arial" font-size="12" font-weight="bold" lengthAdjust="spacing" textLength="13.3477" x="304.2095" y="429.7393">13</text><text fill="#000000" font-family="Arial" font-size="12" lengthAdjust="spacing" textLength="78.457" x="321.5571" y="429.7393">OK|CS-TRA,...</text><polygon fill="#181818" points="607.5361,458.0811,617.5361,462.0811,607.5361,466.0811,611.5361,462.0811" style="stroke:#181818;stroke-width:1.0;"/><line style="stroke:#181818;stroke-width:1.0;" x1="84.6875" x2="613.5361" y1="462.0811" y2="462.0811"/><text fill="#000000" font-family="Arial" font-size="12" font-weight="bold" lengthAdjust="spacing" textLength="13.3477" x="249.6235" y="457.5381">14</text><text fill="#000000" font-family="Arial" font-size="12" lengthAdjust="spacing" textLength="187.6289" x="266.9712" y="457.5381">CREATE_FLIGHT_PLAN|FP001|...</text><polygon fill="#181818" points="814.4717,485.8799,824.4717,489.8799,814.4717,493.8799,818.4717,489.8799" style="stroke:#181818;stroke-width:1.0;"/><line style="stroke:#181818;stroke-width:1.0;" x1="629.5361" x2="820.4717" y1="489.8799" y2="489.8799"/><text fill="#000000" font-family="Arial" font-size="12" font-weight="bold" lengthAdjust="spacing" textLength="13.3477" x="639.0361" y="485.3369">15</text><text fill="#000000" font-family="Arial" font-size="12" lengthAdjust="spacing" textLength="160.5879" x="656.3838" y="485.3369">createFlightPlan("FP001", dsl)</text><polygon fill="#181818" points="640.5361,513.6787,630.5361,517.6787,640.5361,521.6787,636.5361,517.6787" style="stroke:#181818;stroke-width:1.0;"/><line style="stroke:#181818;stroke-width:1.0;stroke-dasharray:2.0,2.0;" x1="634.5361" x2="830.4717" y1="517.6787" y2="517.6787"/><text fill="#000000" font-family="Arial" font-size="12" font-weight="bold" lengthAdjust="spacing" textLength="13.3477" x="648.8633" y="513.1357">16</text><text fill="#000000" font-family="Arial" font-size="12" lengthAdjust="spacing" textLength="145.9336" x="666.2109" y="513.1357">"Flight plan FP001 created"</text><polygon fill="#181818" points="95.6875,541.4775,85.6875,545.4775,95.6875,549.4775,91.6875,545.4775" style="stroke:#181818;stroke-width:1.0;"/><line style="stroke:#181818;stroke-width:1.0;stroke-dasharray:2.0,2.0;" x1="89.6875" x2="618.5361" y1="545.4775" y2="545.4775"/><text fill="#000000" font-family="Arial" font-size="12" font-weight="bold" lengthAdjust="spacing" textLength="13.3477" x="264.5034" y="540.9346">17</text><text fill="#000000" font-family="Arial" font-size="12" lengthAdjust="spacing" textLength="157.8691" x="281.8511" y="540.9346">OK|Flight plan FP001 created</text><polygon fill="#181818" points="607.5361,569.2764,617.5361,573.2764,607.5361,577.2764,611.5361,573.2764" style="stroke:#181818;stroke-width:1.0;"/><line style="stroke:#181818;stroke-width:1.0;" x1="84.6875" x2="613.5361" y1="573.2764" y2="573.2764"/><text fill="#000000" font-family="Arial" font-size="12" font-weight="bold" lengthAdjust="spacing" textLength="13.3477" x="251.5103" y="568.7334">18</text><text fill="#000000" font-family="Arial" font-size="12" lengthAdjust="spacing" textLength="183.8555" x="268.8579" y="568.7334">VALIDATE_FLIGHT_PLAN|FP001</text><polygon fill="#181818" points="814.4717,597.0752,824.4717,601.0752,814.4717,605.0752,818.4717,601.0752" style="stroke:#181818;stroke-width:1.0;"/><line style="stroke:#181818;stroke-width:1.0;" x1="629.5361" x2="820.4717" y1="601.0752" y2="601.0752"/><text fill="#000000" font-family="Arial" font-size="12" font-weight="bold" lengthAdjust="spacing" textLength="13.3477" x="646.0352" y="596.5322">19</text><text fill="#000000" font-family="Arial" font-size="12" lengthAdjust="spacing" textLength="146.5898" x="663.3828" y="596.5322">validateFlightPlan("FP001")</text><polygon fill="#181818" points="640.5361,624.874,630.5361,628.874,640.5361,632.874,636.5361,628.874" style="stroke:#181818;stroke-width:1.0;"/><line style="stroke:#181818;stroke-width:1.0;stroke-dasharray:2.0,2.0;" x1="634.5361" x2="830.4717" y1="628.874" y2="628.874"/><text fill="#000000" font-family="Arial" font-size="12" font-weight="bold" lengthAdjust="spacing" textLength="13.3477" x="693.2275" y="624.3311">20</text><text fill="#000000" font-family="Arial" font-size="12" lengthAdjust="spacing" textLength="57.2051" x="710.5752" y="624.3311">"PASSED"</text><polygon fill="#181818" points="95.6875,652.6729,85.6875,656.6729,95.6875,660.6729,91.6875,656.6729" style="stroke:#181818;stroke-width:1.0;"/><line style="stroke:#181818;stroke-width:1.0;stroke-dasharray:2.0,2.0;" x1="89.6875" x2="618.5361" y1="656.6729" y2="656.6729"/><text fill="#000000" font-family="Arial" font-size="12" font-weight="bold" lengthAdjust="spacing" textLength="13.3477" x="308.8677" y="652.1299">21</text><text fill="#000000" font-family="Arial" font-size="12" lengthAdjust="spacing" textLength="69.1406" x="326.2153" y="652.1299">OK|PASSED</text><polygon fill="#181818" points="607.5361,680.4717,617.5361,684.4717,607.5361,688.4717,611.5361,684.4717" style="stroke:#181818;stroke-width:1.0;"/><line style="stroke:#181818;stroke-width:1.0;" x1="84.6875" x2="613.5361" y1="684.4717" y2="684.4717"/><text fill="#000000" font-family="Arial" font-size="12" font-weight="bold" lengthAdjust="spacing" textLength="13.3477" x="271.5288" y="679.9287">22</text><text fill="#000000" font-family="Arial" font-size="12" lengthAdjust="spacing" textLength="143.8184" x="288.8765" y="679.9287">GENERATE_REPORT|LIS</text><polygon fill="#181818" points="814.4717,708.2705,824.4717,712.2705,814.4717,716.2705,818.4717,712.2705" style="stroke:#181818;stroke-width:1.0;"/><line style="stroke:#181818;stroke-width:1.0;" x1="629.5361" x2="820.4717" y1="712.2705" y2="712.2705"/><text fill="#000000" font-family="Arial" font-size="12" font-weight="bold" lengthAdjust="spacing" textLength="13.3477" x="660.373" y="707.7275">23</text><text fill="#000000" font-family="Arial" font-size="12" lengthAdjust="spacing" textLength="117.9141" x="677.7207" y="707.7275">generateReport("LIS")</text><polygon fill="#181818" points="640.5361,736.0693,630.5361,740.0693,640.5361,744.0693,636.5361,740.0693" style="stroke:#181818;stroke-width:1.0;"/><line style="stroke:#181818;stroke-width:1.0;stroke-dasharray:2.0,2.0;" x1="634.5361" x2="830.4717" y1="740.0693" y2="740.0693"/><text fill="#000000" font-family="Arial" font-size="12" font-weight="bold" lengthAdjust="spacing" textLength="13.3477" x="679.2148" y="735.5264">24</text><text fill="#000000" font-family="Arial" font-size="12" lengthAdjust="spacing" textLength="85.2305" x="696.5625" y="735.5264">"report file path"</text><polygon fill="#181818" points="95.6875,763.8682,85.6875,767.8682,95.6875,771.8682,91.6875,767.8682" style="stroke:#181818;stroke-width:1.0;"/><line style="stroke:#181818;stroke-width:1.0;stroke-dasharray:2.0,2.0;" x1="89.6875" x2="618.5361" y1="767.8682" y2="767.8682"/><text fill="#000000" font-family="Arial" font-size="12" font-weight="bold" lengthAdjust="spacing" textLength="13.3477" x="297.5239" y="763.3252">25</text><text fill="#000000" font-family="Arial" font-size="12" lengthAdjust="spacing" textLength="91.8281" x="314.8716" y="763.3252">OK|Report saved</text><polygon fill="#181818" points="607.5361,791.667,617.5361,795.667,607.5361,799.667,611.5361,795.667" style="stroke:#181818;stroke-width:1.0;"/><line style="stroke:#181818;stroke-width:1.0;" x1="84.6875" x2="613.5361" y1="795.667" y2="795.667"/><text fill="#000000" font-family="Arial" font-size="12" font-weight="bold" lengthAdjust="spacing" textLength="13.3477" x="262.6255" y="791.124">26</text><text fill="#000000" font-family="Arial" font-size="12" lengthAdjust="spacing" textLength="161.625" x="279.9731" y="791.124">MONTHLY_REPORT|2026|06</text><polygon fill="#181818" points="814.4717,819.4658,824.4717,823.4658,814.4717,827.4658,818.4717,823.4658" style="stroke:#181818;stroke-width:1.0;"/><line style="stroke:#181818;stroke-width:1.0;" x1="629.5361" x2="820.4717" y1="823.4658" y2="823.4658"/><text fill="#000000" font-family="Arial" font-size="12" font-weight="bold" lengthAdjust="spacing" textLength="13.3477" x="644.4414" y="818.9229">27</text><text fill="#000000" font-family="Arial" font-size="12" lengthAdjust="spacing" textLength="149.7773" x="661.7891" y="818.9229">monthlyReport("2026", "06")</text><polygon fill="#181818" points="640.5361,847.2646,630.5361,851.2646,640.5361,855.2646,636.5361,851.2646" style="stroke:#181818;stroke-width:1.0;"/><line style="stroke:#181818;stroke-width:1.0;stroke-dasharray:2.0,2.0;" x1="634.5361" x2="830.4717" y1="851.2646" y2="851.2646"/><text fill="#000000" font-family="Arial" font-size="12" font-weight="bold" lengthAdjust="spacing" textLength="13.3477" x="692.8115" y="846.7217">28</text><text fill="#000000" font-family="Arial" font-size="12" lengthAdjust="spacing" textLength="58.0371" x="710.1592" y="846.7217">report data</text><polygon fill="#181818" points="95.6875,875.0635,85.6875,879.0635,95.6875,883.0635,91.6875,879.0635" style="stroke:#181818;stroke-width:1.0;"/><line style="stroke:#181818;stroke-width:1.0;stroke-dasharray:2.0,2.0;" x1="89.6875" x2="618.5361" y1="879.0635" y2="879.0635"/><text fill="#000000" font-family="Arial" font-size="12" font-weight="bold" lengthAdjust="spacing" textLength="13.3477" x="299.1909" y="874.5205">29</text><text fill="#000000" font-family="Arial" font-size="12" lengthAdjust="spacing" textLength="88.4941" x="316.5386" y="874.5205">OK|report data...</text><polygon fill="#181818" points="607.5361,902.8623,617.5361,906.8623,607.5361,910.8623,611.5361,906.8623" style="stroke:#181818;stroke-width:1.0;"/><line style="stroke:#181818;stroke-width:1.0;" x1="84.6875" x2="613.5361" y1="906.8623" y2="906.8623"/><text fill="#000000" font-family="Arial" font-size="12" font-weight="bold" lengthAdjust="spacing" textLength="13.3477" x="302.0942" y="902.3193">30</text><text fill="#000000" font-family="Arial" font-size="12" lengthAdjust="spacing" textLength="82.6875" x="319.4419" y="902.3193">LIST_FLIGHTS</text><polygon fill="#181818" points="814.4717,930.6611,824.4717,934.6611,814.4717,938.6611,818.4717,934.6611" style="stroke:#181818;stroke-width:1.0;"/><line style="stroke:#181818;stroke-width:1.0;" x1="629.5361" x2="820.4717" y1="934.6611" y2="934.6611"/><text fill="#000000" font-family="Arial" font-size="12" font-weight="bold" lengthAdjust="spacing" textLength="13.3477" x="690.3291" y="930.1182">31</text><text fill="#000000" font-family="Arial" font-size="12" lengthAdjust="spacing" textLength="58.002" x="707.6768" y="930.1182">listFlights()</text><polygon fill="#181818" points="640.5361,958.46,630.5361,962.46,640.5361,966.46,636.5361,962.46" style="stroke:#181818;stroke-width:1.0;"/><line style="stroke:#181818;stroke-width:1.0;stroke-dasharray:2.0,2.0;" x1="634.5361" x2="830.4717" y1="962.46" y2="962.46"/><text fill="#000000" font-family="Arial" font-size="12" font-weight="bold" lengthAdjust="spacing" textLength="13.3477" x="678.1484" y="957.917">32</text><text fill="#000000" font-family="Arial" font-size="12" lengthAdjust="spacing" textLength="87.3633" x="695.4961" y="957.917">List&lt;FlightDTO&gt;</text><polygon fill="#181818" points="95.6875,986.2588,85.6875,990.2588,95.6875,994.2588,91.6875,990.2588" style="stroke:#181818;stroke-width:1.0;"/><line style="stroke:#181818;stroke-width:1.0;stroke-dasharray:2.0,2.0;" x1="89.6875" x2="618.5361" y1="990.2588" y2="990.2588"/><text fill="#000000" font-family="Arial" font-size="12" font-weight="bold" lengthAdjust="spacing" textLength="13.3477" x="308.8647" y="985.7158">33</text><text fill="#000000" font-family="Arial" font-size="12" lengthAdjust="spacing" textLength="69.1465" x="326.2124" y="985.7158">OK|FP001,...</text><polygon fill="#181818" points="607.5361,1014.0576,617.5361,1018.0576,607.5361,1022.0576,611.5361,1018.0576" style="stroke:#181818;stroke-width:1.0;"/><line style="stroke:#181818;stroke-width:1.0;" x1="84.6875" x2="613.5361" y1="1018.0576" y2="1018.0576"/><text fill="#000000" font-family="Arial" font-size="12" font-weight="bold" lengthAdjust="spacing" textLength="13.3477" x="302.4282" y="1013.5146">34</text><text fill="#000000" font-family="Arial" font-size="12" lengthAdjust="spacing" textLength="82.0195" x="319.7759" y="1013.5146">LIST_ROUTES</text><polygon fill="#181818" points="814.4717,1041.8564,824.4717,1045.8564,814.4717,1049.8564,818.4717,1045.8564" style="stroke:#181818;stroke-width:1.0;"/><line style="stroke:#181818;stroke-width:1.0;" x1="629.5361" x2="820.4717" y1="1045.8564" y2="1045.8564"/><text fill="#000000" font-family="Arial" font-size="12" font-weight="bold" lengthAdjust="spacing" textLength="13.3477" x="688.9902" y="1041.3135">35</text><text fill="#000000" font-family="Arial" font-size="12" lengthAdjust="spacing" textLength="60.6797" x="706.3379" y="1041.3135">listRoutes()</text><polygon fill="#181818" points="640.5361,1069.6553,630.5361,1073.6553,640.5361,1077.6553,636.5361,1073.6553" style="stroke:#181818;stroke-width:1.0;"/><line style="stroke:#181818;stroke-width:1.0;stroke-dasharray:2.0,2.0;" x1="634.5361" x2="830.4717" y1="1073.6553" y2="1073.6553"/><text fill="#000000" font-family="Arial" font-size="12" font-weight="bold" lengthAdjust="spacing" textLength="13.3477" x="662.1377" y="1069.1123">36</text><text fill="#000000" font-family="Arial" font-size="12" lengthAdjust="spacing" textLength="119.3848" x="679.4854" y="1069.1123">List&lt;FlightRouteDTO&gt;</text><polygon fill="#181818" points="95.6875,1097.4541,85.6875,1101.4541,95.6875,1105.4541,91.6875,1101.4541" style="stroke:#181818;stroke-width:1.0;"/><line style="stroke:#181818;stroke-width:1.0;stroke-dasharray:2.0,2.0;" x1="89.6875" x2="618.5361" y1="1101.4541" y2="1101.4541"/><text fill="#000000" font-family="Arial" font-size="12" font-weight="bold" lengthAdjust="spacing" textLength="13.3477" x="302.2026" y="1096.9111">37</text><text fill="#000000" font-family="Arial" font-size="12" lengthAdjust="spacing" textLength="82.4707" x="319.5503" y="1096.9111">OK|LIS-OPO,...</text><polygon fill="#181818" points="607.5361,1125.2529,617.5361,1129.2529,607.5361,1133.2529,611.5361,1129.2529" style="stroke:#181818;stroke-width:1.0;"/><line style="stroke:#181818;stroke-width:1.0;" x1="84.6875" x2="613.5361" y1="1129.2529" y2="1129.2529"/><text fill="#000000" font-family="Arial" font-size="12" font-weight="bold" lengthAdjust="spacing" textLength="13.3477" x="329.106" y="1124.71">38</text><text fill="#000000" font-family="Arial" font-size="12" lengthAdjust="spacing" textLength="28.6641" x="346.4536" y="1124.71">QUIT</text><polygon fill="#181818" points="1000.8516,1153.0518,1010.8516,1157.0518,1000.8516,1161.0518,1004.8516,1157.0518" style="stroke:#181818;stroke-width:1.0;"/><line style="stroke:#181818;stroke-width:1.0;" x1="629.5361" x2="1006.8516" y1="1157.0518" y2="1157.0518"/><text fill="#000000" font-family="Arial" font-size="12" font-weight="bold" lengthAdjust="spacing" textLength="13.3477" x="772.8491" y="1152.5088">39</text><text fill="#000000" font-family="Arial" font-size="12" lengthAdjust="spacing" textLength="79.3418" x="790.1968" y="1152.5088">UDP LOGOUT</text><polygon fill="#181818" points="95.6875,1180.8506,85.6875,1184.8506,95.6875,1188.8506,91.6875,1184.8506" style="stroke:#181818;stroke-width:1.0;"/><line style="stroke:#181818;stroke-width:1.0;stroke-dasharray:2.0,2.0;" x1="89.6875" x2="613.5361" y1="1184.8506" y2="1184.8506"/><text fill="#000000" font-family="Arial" font-size="12" font-weight="bold" lengthAdjust="spacing" textLength="13.3477" x="328.9321" y="1180.3076">40</text><text fill="#000000" font-family="Arial" font-size="12" lengthAdjust="spacing" textLength="24.0117" x="346.2798" y="1180.3076">BYE</text><polygon fill="#181818" points="237.4297,1208.6494,247.4297,1212.6494,237.4297,1216.6494,241.4297,1212.6494" style="stroke:#181818;stroke-width:1.0;"/><line style="stroke:#181818;stroke-width:1.0;" x1="84.6875" x2="243.4297" y1="1212.6494" y2="1212.6494"/><text fill="#000000" font-family="Arial" font-size="12" font-weight="bold" lengthAdjust="spacing" textLength="13.3477" x="140.3818" y="1208.1064">41</text><text fill="#000000" font-family="Arial" font-size="12" lengthAdjust="spacing" textLength="36.0059" x="157.7295" y="1208.1064">close()</text><line style="stroke:#181818;stroke-width:1.0;" x1="259.4297" x2="301.4297" y1="1245.4482" y2="1245.4482"/><line style="stroke:#181818;stroke-width:1.0;" x1="301.4297" x2="301.4297" y1="1245.4482" y2="1258.4482"/><line style="stroke:#181818;stroke-width:1.0;" x1="254.4297" x2="301.4297" y1="1258.4482" y2="1258.4482"/><polygon fill="#181818" points="264.4297,1254.4482,254.4297,1258.4482,264.4297,1262.4482,260.4297,1258.4482" style="stroke:#181818;stroke-width:1.0;"/><text fill="#000000" font-family="Arial" font-size="12" font-weight="bold" lengthAdjust="spacing" textLength="13.3477" x="266.4297" y="1240.9053">42</text><text fill="#000000" font-family="Arial" font-size="12" lengthAdjust="spacing" textLength="74.0215" x="283.7773" y="1240.9053">socket.close()</text><!--SRC=[dLLTRzem57tdLrXveX8Ww2GqLLEb3491JKaMmgG-8S-v1QicoM93jIa_VjVveAOD2FPc9-USUyxrb-9A097HQYVxNuUhb8j4hJBO9WfMb36GijMIhpnEQKQtHCBl7SGCdl0xNOCj-3ec3685cO6Au8NkX9eaiPhJBH0xurGq_r_mlq06jyPFdsQACvxIMFaqYdYy9b_whLRw_fbOldOv4XmBssbg4Ie9AsR7i92b9QX0A9Osg2mWsqCsffWuBc1HCJnPRqhZI41MG3Vb-1WR5BqxQ7C61LQMusFiCahTP1q00xwlD4MoNgDaY-vK4k-sl_Iup4Qwzpe3kICnl953jlOcaQf31hXwDotA5DzJ1NKx3dCTNfDHemo8Ck789oo9Os06i8fVWH1UXQpAVkv4MoRi5THDAuAF8eTvtQZ20MfMWUxgyX2PREtLoFnkm5w6q_o59OFSfrA-9Laq-5oZXYEpwZaoiPiRbECCaMsjq2472QDhzIBLnEvHUIr2Cf2uTKsxDSaeN2uYKfPZdxZUmso-yXxVorHhV22O7T4PDRYn0Uvi4QuchkE4pJ45bseY05Jxub3UOpvQTCF0xlHwlREnJ9V7h4Qley2nGmVTpXwcuSftxNa-yVlzGQuPZUvP1bXuWdVAHlc2ncsh85WT4abnSI2h520fAf12e1AEh6lYdLHfJllJTcVZnhpDMVTKyAWnxUL1VNknSCPNfIefpH4UdBaJw0Y1utj1cEDcQ_Q-XXWoh1P0ccIgRI7m2jTPmI8l79-TbAhDLVxBaaJI_Qc5UFBcuTHzhaFSzc-7UN_O70JlABKHV-eS6ekRpUeFBuzJfS6bfDVaC6Wd3r1rsFLsMfmxxde3oSiFl8kaRoLh77htLvq9lK4xvmq7tZ9qplWDafs2_xDRKA_rZAQwdk-TTlrZEGlFtTsOnwntxkx-_koOqFf5-lH-Cv58C5jWlCubednJUpNmm-DeJ4lfVm00]--></g></svg>