<svg xmlns="http://www.w3.org/2000/svg" xmlns:xlink="http://www.w3.org/1999/xlink" contentStyleType="text/css" height="710px" preserveAspectRatio="none" style="width:967px;height:710px;background:#FFFFFF;" version="1.1" viewBox="0 0 967 710" width="967px" zoomAndPan="magnify"><title>US91 &#8212; Active Users Page (Initial Load + AJAX Polling)</title><defs/><g><text fill="#000000" font-family="Arial" font-size="14" font-weight="bold" lengthAdjust="spacing" textLength="369.9336" x="300.4883" y="27.6738">US91 &#8212; Active Users Page (Initial Load + AJAX Polling)</text><rect fill="#FFFFFF" height="82.2188" style="stroke:#181818;stroke-width:1.0;" width="10" x="247.7158" y="157.8594"/><rect fill="#FFFFFF" height="210.6563" style="stroke:#181818;stroke-width:1.0;" width="10" x="247.7158" y="336.7031"/><rect fill="#FFFFFF" height="27.4063" style="stroke:#181818;stroke-width:1.0;" width="10" x="453.1006" y="185.2656"/><rect fill="#FFFFFF" height="155.8438" style="stroke:#181818;stroke-width:1.0;" width="10" x="649.1563" y="364.1094"/><rect fill="#FFFFFF" height="27.4063" style="stroke:#181818;stroke-width:1.0;" width="10" x="848.2119" y="391.5156"/><rect fill="none" height="300.2813" style="stroke:#000000;stroke-width:1.5;" width="952.9102" x="9" y="301.8906"/><line style="stroke:#181818;stroke-width:0.5;stroke-dasharray:5.0,5.0;" x1="113" x2="113" y1="128.4531" y2="619.1719"/><line style="stroke:#181818;stroke-width:0.5;stroke-dasharray:5.0,5.0;" x1="252.6875" x2="252.6875" y1="128.4531" y2="619.1719"/><line style="stroke:#181818;stroke-width:0.5;stroke-dasharray:5.0,5.0;" x1="457.4023" x2="457.4023" y1="128.4531" y2="619.1719"/><line style="stroke:#181818;stroke-width:0.5;stroke-dasharray:5.0,5.0;" x1="653.7988" x2="653.7988" y1="128.4531" y2="619.1719"/><line style="stroke:#181818;stroke-width:0.5;stroke-dasharray:5.0,5.0;" x1="852.5137" x2="852.5137" y1="128.4531" y2="619.1719"/><text fill="#000000" font-family="Arial" font-size="12" lengthAdjust="spacing" textLength="70.6875" x="75" y="112.5039">Administrator</text><text fill="#000000" font-family="Arial" font-size="12" lengthAdjust="spacing" textLength="52.002" x="84.3428" y="125.9102">(Browser)</text><ellipse cx="113.3438" cy="50.1406" fill="#E2E2F0" rx="8" ry="8" style="stroke:#181818;stroke-width:0.5;"/><path d="M113.3438,58.1406 L113.3438,85.1406 M100.3438,66.1406 L126.3438,66.1406 M113.3438,85.1406 L100.3438,100.1406 M113.3438,85.1406 L126.3438,100.1406 " fill="none" style="stroke:#181818;stroke-width:0.5;"/><text fill="#000000" font-family="Arial" font-size="12" lengthAdjust="spacing" textLength="70.6875" x="75" y="629.0352">Administrator</text><text fill="#000000" font-family="Arial" font-size="12" lengthAdjust="spacing" textLength="52.002" x="84.3428" y="642.4414">(Browser)</text><ellipse cx="113.3438" cy="653.4844" fill="#E2E2F0" rx="8" ry="8" style="stroke:#181818;stroke-width:0.5;"/><path d="M113.3438,661.4844 L113.3438,688.4844 M100.3438,669.4844 L126.3438,669.4844 M113.3438,688.4844 L100.3438,703.4844 M113.3438,688.4844 L126.3438,703.4844 " fill="none" style="stroke:#181818;stroke-width:0.5;"/><rect fill="#E2E2F0" height="40.8125" rx="2.5" ry="2.5" style="stroke:#181818;stroke-width:0.5;" width="142.0566" x="181.6875" y="86.6406"/><text fill="#000000" font-family="Arial" font-size="12" font-style="italic" lengthAdjust="spacing" textLength="46.6875" x="229.3721" y="104.5039">&#171;server&#187;</text><text fill="#000000" font-family="Arial" font-size="12" lengthAdjust="spacing" textLength="128.0566" x="188.6875" y="117.9102">:HttpVisualizationServer</text><rect fill="#E2E2F0" height="40.8125" rx="2.5" ry="2.5" style="stroke:#181818;stroke-width:0.5;" width="142.0566" x="181.6875" y="618.1719"/><text fill="#000000" font-family="Arial" font-size="12" font-style="italic" lengthAdjust="spacing" textLength="46.6875" x="229.3721" y="636.0352">&#171;server&#187;</text><text fill="#000000" font-family="Arial" font-size="12" lengthAdjust="spacing" textLength="128.0566" x="188.6875" y="649.4414">:HttpVisualizationServer</text><rect fill="#E2E2F0" height="40.8125" rx="2.5" ry="2.5" style="stroke:#181818;stroke-width:0.5;" width="151.3965" x="382.4023" y="86.6406"/><text fill="#000000" font-family="Arial" font-size="12" font-style="italic" lengthAdjust="spacing" textLength="53.3789" x="431.4111" y="104.5039">&#171;handler&#187;</text><text fill="#000000" font-family="Arial" font-size="12" lengthAdjust="spacing" textLength="137.3965" x="389.4023" y="117.9102">:ActiveUsersPageHandler</text><rect fill="#E2E2F0" height="40.8125" rx="2.5" ry="2.5" style="stroke:#181818;stroke-width:0.5;" width="151.3965" x="382.4023" y="618.1719"/><text fill="#000000" font-family="Arial" font-size="12" font-style="italic" lengthAdjust="spacing" textLength="53.3789" x="431.4111" y="636.0352">&#171;handler&#187;</text><text fill="#000000" font-family="Arial" font-size="12" lengthAdjust="spacing" textLength="137.3965" x="389.4023" y="649.4414">:ActiveUsersPageHandler</text><rect fill="#E2E2F0" height="40.8125" rx="2.5" ry="2.5" style="stroke:#181818;stroke-width:0.5;" width="140.7148" x="583.7988" y="86.6406"/><text fill="#000000" font-family="Arial" font-size="12" font-style="italic" lengthAdjust="spacing" textLength="53.3789" x="627.4668" y="104.5039">&#171;handler&#187;</text><text fill="#000000" font-family="Arial" font-size="12" lengthAdjust="spacing" textLength="126.7148" x="590.7988" y="117.9102">:ActiveUsersApiHandler</text><rect fill="#E2E2F0" height="40.8125" rx="2.5" ry="2.5" style="stroke:#181818;stroke-width:0.5;" width="140.7148" x="583.7988" y="618.1719"/><text fill="#000000" font-family="Arial" font-size="12" font-style="italic" lengthAdjust="spacing" textLength="53.3789" x="627.4668" y="636.0352">&#171;handler&#187;</text><text fill="#000000" font-family="Arial" font-size="12" lengthAdjust="spacing" textLength="126.7148" x="590.7988" y="649.4414">:ActiveUsersApiHandler</text><rect fill="#E2E2F0" height="40.8125" rx="2.5" ry="2.5" style="stroke:#181818;stroke-width:0.5;" width="157.3965" x="774.5137" y="86.6406"/><text fill="#000000" font-family="Arial" font-size="12" font-style="italic" lengthAdjust="spacing" textLength="52.7051" x="826.8594" y="104.5039">&#171;domain&#187;</text><text fill="#000000" font-family="Arial" font-size="12" lengthAdjust="spacing" textLength="143.3965" x="781.5137" y="117.9102">:RemoteAccessEventStore</text><rect fill="#E2E2F0" height="40.8125" rx="2.5" ry="2.5" style="stroke:#181818;stroke-width:0.5;" width="157.3965" x="774.5137" y="618.1719"/><text fill="#000000" font-family="Arial" font-size="12" font-style="italic" lengthAdjust="spacing" textLength="52.7051" x="826.8594" y="636.0352">&#171;domain&#187;</text><text fill="#000000" font-family="Arial" font-size="12" lengthAdjust="spacing" textLength="143.3965" x="781.5137" y="649.4414">:RemoteAccessEventStore</text><rect fill="#FFFFFF" height="82.2188" style="stroke:#181818;stroke-width:1.0;" width="10" x="247.7158" y="157.8594"/><rect fill="#FFFFFF" height="210.6563" style="stroke:#181818;stroke-width:1.0;" width="10" x="247.7158" y="336.7031"/><rect fill="#FFFFFF" height="27.4063" style="stroke:#181818;stroke-width:1.0;" width="10" x="453.1006" y="185.2656"/><rect fill="#FFFFFF" height="155.8438" style="stroke:#181818;stroke-width:1.0;" width="10" x="649.1563" y="364.1094"/><rect fill="#FFFFFF" height="27.4063" style="stroke:#181818;stroke-width:1.0;" width="10" x="848.2119" y="391.5156"/><polygon fill="#181818" points="235.7158,153.8594,245.7158,157.8594,235.7158,161.8594,239.7158,157.8594" style="stroke:#181818;stroke-width:1.0;"/><line style="stroke:#181818;stroke-width:1.0;" x1="113.3438" x2="241.7158" y1="157.8594" y2="157.8594"/><text fill="#000000" font-family="Arial" font-size="12" font-weight="bold" lengthAdjust="spacing" textLength="6.6738" x="143.8511" y="153.3164">1</text><text fill="#000000" font-family="Arial" font-size="12" lengthAdjust="spacing" textLength="62.6836" x="154.5249" y="153.3164">GET /active</text><polygon fill="#181818" points="441.1006,181.2656,451.1006,185.2656,441.1006,189.2656,445.1006,185.2656" style="stroke:#181818;stroke-width:1.0;"/><line style="stroke:#181818;stroke-width:1.0;" x1="257.7158" x2="447.1006" y1="185.2656" y2="185.2656"/><text fill="#000000" font-family="Arial" font-size="12" font-weight="bold" lengthAdjust="spacing" textLength="6.6738" x="308.0449" y="180.7227">2</text><text fill="#000000" font-family="Arial" font-size="12" lengthAdjust="spacing" textLength="84.0527" x="318.7188" y="180.7227">handle(request)</text><polygon fill="#181818" points="268.7158,208.6719,258.7158,212.6719,268.7158,216.6719,264.7158,212.6719" style="stroke:#181818;stroke-width:1.0;"/><line style="stroke:#181818;stroke-width:1.0;stroke-dasharray:2.0,2.0;" x1="262.7158" x2="457.1006" y1="212.6719" y2="212.6719"/><text fill="#000000" font-family="Arial" font-size="12" font-weight="bold" lengthAdjust="spacing" textLength="6.6738" x="272.2158" y="208.1289">3</text><text fill="#000000" font-family="Arial" font-size="12" lengthAdjust="spacing" textLength="160.7109" x="282.8896" y="208.1289">HTML page (with AJAX script)</text><polygon fill="#181818" points="124.3438,236.0781,114.3438,240.0781,124.3438,244.0781,120.3438,240.0781" style="stroke:#181818;stroke-width:1.0;"/><line style="stroke:#181818;stroke-width:1.0;stroke-dasharray:2.0,2.0;" x1="118.3438" x2="251.7158" y1="240.0781" y2="240.0781"/><text fill="#000000" font-family="Arial" font-size="12" font-weight="bold" lengthAdjust="spacing" textLength="6.6738" x="131.6792" y="235.5352">4</text><text fill="#000000" font-family="Arial" font-size="12" lengthAdjust="spacing" textLength="92.0273" x="142.353" y="235.5352">200 OK &#8212; HTML</text><path d="M34,253.0781 L34,289.0781 L191,289.0781 L191,263.0781 L181,253.0781 L34,253.0781 " fill="#FEFFDD" style="stroke:#181818;stroke-width:0.5;"/><path d="M181,253.0781 L181,263.0781 L191,263.0781 L181,253.0781 " fill="#FEFFDD" style="stroke:#181818;stroke-width:0.5;"/><text fill="#000000" font-family="Arial" font-size="12" lengthAdjust="spacing" textLength="118.0605" x="40" y="268.9414">Browser renders page</text><text fill="#000000" font-family="Arial" font-size="12" lengthAdjust="spacing" textLength="136.7344" x="40" y="282.3477">and executes AJAX script</text><path d="M9,301.8906 L79.3242,301.8906 L79.3242,307.2969 L69.3242,317.2969 L9,317.2969 L9,301.8906 " fill="#EEEEEE" style="stroke:#000000;stroke-width:1.5;"/><rect fill="none" height="300.2813" style="stroke:#000000;stroke-width:1.5;" width="952.9102" x="9" y="301.8906"/><text fill="#000000" font-family="Arial" font-size="12" font-weight="bold" lengthAdjust="spacing" textLength="25.3242" x="24" y="313.7539">loop</text><text fill="#000000" font-family="Arial" font-size="12" font-weight="bold" lengthAdjust="spacing" textLength="284.0801" x="94.3242" y="314.7539">[every 5 seconds (and immediately on page load)]</text><polygon fill="#181818" points="235.7158,332.7031,245.7158,336.7031,235.7158,340.7031,239.7158,336.7031" style="stroke:#181818;stroke-width:1.0;"/><line style="stroke:#181818;stroke-width:1.0;" x1="113.3438" x2="241.7158" y1="336.7031" y2="336.7031"/><text fill="#000000" font-family="Arial" font-size="12" font-weight="bold" lengthAdjust="spacing" textLength="6.6738" x="134.1772" y="332.1602">5</text><text fill="#000000" font-family="Arial" font-size="12" lengthAdjust="spacing" textLength="82.0313" x="144.8511" y="332.1602">GET /api/active</text><polygon fill="#181818" points="637.1563,360.1094,647.1563,364.1094,637.1563,368.1094,641.1563,364.1094" style="stroke:#181818;stroke-width:1.0;"/><line style="stroke:#181818;stroke-width:1.0;" x1="257.7158" x2="643.1563" y1="364.1094" y2="364.1094"/><text fill="#000000" font-family="Arial" font-size="12" font-weight="bold" lengthAdjust="spacing" textLength="6.6738" x="406.0728" y="359.5664">6</text><text fill="#000000" font-family="Arial" font-size="12" lengthAdjust="spacing" textLength="84.0527" x="416.7466" y="359.5664">handle(request)</text><polygon fill="#181818" points="836.2119,387.5156,846.2119,391.5156,836.2119,395.5156,840.2119,391.5156" style="stroke:#181818;stroke-width:1.0;"/><line style="stroke:#181818;stroke-width:1.0;" x1="659.1563" x2="842.2119" y1="391.5156" y2="391.5156"/><text fill="#000000" font-family="Arial" font-size="12" font-weight="bold" lengthAdjust="spacing" textLength="6.6738" x="717.6675" y="386.9727">7</text><text fill="#000000" font-family="Arial" font-size="12" lengthAdjust="spacing" textLength="61.3594" x="728.3413" y="386.9727">getEvents()</text><polygon fill="#181818" points="670.1563,414.9219,660.1563,418.9219,670.1563,422.9219,666.1563,418.9219" style="stroke:#181818;stroke-width:1.0;"/><line style="stroke:#181818;stroke-width:1.0;stroke-dasharray:2.0,2.0;" x1="664.1563" x2="852.2119" y1="418.9219" y2="418.9219"/><text fill="#000000" font-family="Arial" font-size="12" font-weight="bold" lengthAdjust="spacing" textLength="6.6738" x="726.8325" y="414.3789">8</text><text fill="#000000" font-family="Arial" font-size="12" lengthAdjust="spacing" textLength="48.0293" x="737.5063" y="414.3789">eventList</text><path d="M516,431.9219 L516,494.9219 L791,494.9219 L791,441.9219 L781,431.9219 L516,431.9219 " fill="#FEFFDD" style="stroke:#181818;stroke-width:0.5;"/><path d="M781,431.9219 L781,441.9219 L791,441.9219 L781,431.9219 " fill="#FEFFDD" style="stroke:#181818;stroke-width:0.5;"/><text fill="#000000" font-family="Arial" font-size="12" lengthAdjust="spacing" textLength="105.3691" x="522" y="447.7852">Derive active users:</text><text fill="#000000" font-family="Arial" font-size="12" lengthAdjust="spacing" textLength="209.4375" x="522" y="461.1914">for each session (username + ip + port)</text><text fill="#000000" font-family="Arial" font-size="12" lengthAdjust="spacing" textLength="202.7461" x="522" y="474.5977">last event must be LOGIN_SUCCESS</text><text fill="#000000" font-family="Arial" font-size="12" lengthAdjust="spacing" textLength="254.0859" x="522" y="488.0039">with no subsequent LOGOUT or DISCONNECT</text><polygon fill="#181818" points="268.7158,515.9531,258.7158,519.9531,268.7158,523.9531,264.7158,519.9531" style="stroke:#181818;stroke-width:1.0;"/><line style="stroke:#181818;stroke-width:1.0;stroke-dasharray:2.0,2.0;" x1="262.7158" x2="653.1563" y1="519.9531" y2="519.9531"/><text fill="#000000" font-family="Arial" font-size="12" font-weight="bold" lengthAdjust="spacing" textLength="6.6738" x="364.9058" y="515.4102">9</text><text fill="#000000" font-family="Arial" font-size="12" lengthAdjust="spacing" textLength="171.3867" x="375.5796" y="515.4102">JSON response (activeUserList)</text><polygon fill="#181818" points="124.3438,543.3594,114.3438,547.3594,124.3438,551.3594,120.3438,547.3594" style="stroke:#181818;stroke-width:1.0;"/><line style="stroke:#181818;stroke-width:1.0;stroke-dasharray:2.0,2.0;" x1="118.3438" x2="251.7158" y1="547.3594" y2="547.3594"/><text fill="#000000" font-family="Arial" font-size="12" font-weight="bold" lengthAdjust="spacing" textLength="13.3477" x="128.6733" y="542.8164">10</text><text fill="#000000" font-family="Arial" font-size="12" lengthAdjust="spacing" textLength="91.3652" x="146.021" y="542.8164">200 OK &#8212; JSON</text><path d="M19,560.3594 L19,596.3594 L206,596.3594 L206,570.3594 L196,560.3594 L19,560.3594 " fill="#FEFFDD" style="stroke:#181818;stroke-width:0.5;"/><path d="M196,560.3594 L196,570.3594 L206,570.3594 L196,560.3594 " fill="#FEFFDD" style="stroke:#181818;stroke-width:0.5;"/><text fill="#000000" font-family="Arial" font-size="12" lengthAdjust="spacing" textLength="102.7383" x="25" y="576.2227">Replace table body</text><text fill="#000000" font-family="Arial" font-size="12" lengthAdjust="spacing" textLength="166.7578" x="25" y="589.6289">Update last-updated timestamp</text><!--SRC=[VLJDJXin4BxxAKOvROIY0b8FZH3IDgG46fA8JQeU8bNEUaYixjgkxON2gG_H9-oJT6n3iWIKowxNyttpyytCUkahX4NnwGJ-_VaBUUdbFNqxj0vcV8sGNIdf9QzWhBc08yYly-ymqrKbrRhBcFifbU6Mr-3mLuEgn1jqZeXv9TSAIbGURGiby8utbV-YbP_m6Y6tvFjzUo6V44vEMyOPjrwMqd3bPrm8oW1EZndZZTUggLSKYF7IQmkTNDHIIUSjfy-boZvR_K0rTJl07V1WP6Rd33hzaVVcctGDh-GJzrAh0kqzsWu4meQC06TdBjwTd-znasXHio3PY2jHHMhWcY0YSJVfzX0vDxB5ZPaQ2OV8jrXhZtbPakR3UzAwe7BnER8BPo8BNNEfYCjYuT0xJmNruN8uXmyy9i3YYtkCDXO118pPzo75psneiVFT7JZOMGJrTcv7yvjnOcOFqc_IoBZIIaDKWQ_9AHAHKt9zwkWnJB_6QGoEseIO6bDKCcXgn9Rot5smg4GOtE1ugIXdmDzODXvTEmV6AgqD87buX8yqjwLMma4MyBAkKKYALJs2Lgc8YWQ_os97tjNFo1SD8-PLik7cHSlGpBTIlk8G95qGb1YfWtrOeu_TTTaUFWBYLOBsjc4muCUq0T7Qqd17QUaOAHTem-wdMg094zbVgZjQ9s9lI2VdQ2yW2nOLTlS8fA67qTPtbwhYpgUmK3TqN26CfvTNan_5OZ0O5iLInM5G6bopIZyB7n3JnHmeniLLCPXE9iF1VAV0JkdhOZgXzZgZbQEnujkb2ILszsjyaV7GR0MF-xnjozwEs2sQYfS8dg_eVxdIud6f5aO4LYYyryIp02zhQYkl3QDPPFy1]--></g></svg>