<?xml version="1.0" encoding="UTF-8" standalone="no"?><svg xmlns="http://www.w3.org/2000/svg" xmlns:xlink="http://www.w3.org/1999/xlink" contentScriptType="application/ecmascript" contentStyleType="text/css" height="156px" preserveAspectRatio="none" style="width:475px;height:156px;" version="1.1" viewBox="0 0 475 156" width="475px" zoomAndPan="magnify"><defs><filter height="300%" id="f1wgmqmhaa3inp" width="300%" x="-1" y="-1"><feGaussianBlur result="blurOut" stdDeviation="2.0"/><feColorMatrix in="blurOut" result="blurOut2" type="matrix" values="0 0 0 0 0 0 0 0 0 0 0 0 0 0 0 0 0 0 .4 0"/><feOffset dx="4.0" dy="4.0" in="blurOut2" result="blurOut3"/><feBlend in="SourceGraphic" in2="blurOut3" mode="normal"/></filter></defs><g><!--MD5=[2f0d7088a6df0f8e5ebeb9ed92902adc]
class eapli.exemplo.usermanagement.application.AddUserController--><a href="AddUserController.html" target="_top" title="AddUserController.html" xlink:actuate="onRequest" xlink:href="AddUserController.html" xlink:show="new" xlink:title="AddUserController.html" xlink:type="simple"><rect codeLine="5" fill="#FEFECE" filter="url(#f1wgmqmhaa3inp)" height="119.041" id="eapli.exemplo.usermanagement.application.AddUserController" style="stroke: #A80036; stroke-width: 1.5;" width="449" x="7" y="7"/><ellipse cx="120.25" cy="26.1328" fill="#ADD1B2" rx="11" ry="11" style="stroke: #A80036; stroke-width: 1.0;"/><path d="M122.7231,32.2759 Q122.1421,32.5747 121.5029,32.7241 Q120.8638,32.8735 120.1582,32.8735 Q117.6514,32.8735 116.3315,31.2217 Q115.0117,29.5698 115.0117,26.4487 Q115.0117,23.3193 116.3315,21.6675 Q117.6514,20.0156 120.1582,20.0156 Q120.8638,20.0156 121.5112,20.165 Q122.1587,20.3145 122.7231,20.6133 L122.7231,23.3359 Q122.0923,22.7549 121.4988,22.4851 Q120.9053,22.2153 120.2744,22.2153 Q118.9297,22.2153 118.2449,23.282 Q117.5601,24.3486 117.5601,26.4487 Q117.5601,28.5405 118.2449,29.6072 Q118.9297,30.6738 120.2744,30.6738 Q120.9053,30.6738 121.4988,30.4041 Q122.0923,30.1343 122.7231,29.5532 Z "/><text fill="#000000" font-family="sans-serif" font-size="14" lengthAdjust="spacingAndGlyphs" textLength="129" x="183.25" y="25.5352">AddUserController</text><text fill="#000000" font-family="sans-serif" font-size="10" lengthAdjust="spacingAndGlyphs" textLength="214" x="140.75" y="38.1563">eapli.exemplo.usermanagement.application</text><line style="stroke: #A80036; stroke-width: 1.5;" x1="8" x2="455" y1="45.2656" y2="45.2656"/><rect fill="none" height="6" style="stroke: #C82930; stroke-width: 1.0;" width="6" x="15" y="53.2656"/><text fill="#000000" font-family="sans-serif" font-size="11" lengthAdjust="spacingAndGlyphs" textLength="148" x="27" y="59.9004">authz: AuthorizationService</text><rect fill="none" height="6" style="stroke: #C82930; stroke-width: 1.0;" width="6" x="15" y="66.2207"/><text fill="#000000" font-family="sans-serif" font-size="11" lengthAdjust="spacingAndGlyphs" textLength="179" x="27" y="72.8555">userSvc: UserManagementService</text><line style="stroke: #A80036; stroke-width: 1.5;" x1="8" x2="455" y1="79.1758" y2="79.1758"/><ellipse cx="18" cy="90.1758" fill="#84BE84" rx="3" ry="3" style="stroke: #038048; stroke-width: 1.0;"/><text fill="#000000" font-family="sans-serif" font-size="11" lengthAdjust="spacingAndGlyphs" textLength="117" x="27" y="93.8105">getRoleTypes(): Role[]</text><ellipse cx="18" cy="103.1309" fill="#84BE84" rx="3" ry="3" style="stroke: #038048; stroke-width: 1.0;"/><text fill="#000000" font-family="sans-serif" font-size="11" lengthAdjust="spacingAndGlyphs" textLength="423" x="27" y="106.7656">addUser(String, String, String, String, String, Set&lt;Role&gt;, Calendar): SystemUser</text><ellipse cx="18" cy="116.0859" fill="#84BE84" rx="3" ry="3" style="stroke: #038048; stroke-width: 1.0;"/><text fill="#000000" font-family="sans-serif" font-size="11" lengthAdjust="spacingAndGlyphs" textLength="369" x="27" y="119.7207">addUser(String, String, String, String, String, Set&lt;Role&gt;): SystemUser</text></a><text fill="#888888" font-family="sans-serif" font-size="10" lengthAdjust="spacingAndGlyphs" textLength="188" x="137.5" y="142.709">UMLDoclet 2.0.12, PlantUML 1.2020.16</text><!--MD5=[e34ee2db54d7fd1ab6accddaccca84ab]
@startuml
    set namespaceSeparator none
    hide empty fields
    hide empty methods

    class "<size:14>AddUserController\n<size:10>eapli.exemplo.usermanagement.application" as eapli.exemplo.usermanagement.application.AddUserController [[AddUserController.html]] {
        -authz: AuthorizationService
        -userSvc: UserManagementService
        +getRoleTypes(): Role[]
        +addUser(String, String, String, String, String, Set<Role>, Calendar): SystemUser
        +addUser(String, String, String, String, String, Set<Role>): SystemUser
    }

    center footer UMLDoclet 2.0.12, PlantUML 1.2020.16
@enduml

PlantUML version 1.2020.16(Sun Aug 23 21:20:43 WEST 2020)
(APACHE source distribution)
Java Runtime: OpenJDK Runtime Environment
JVM: OpenJDK 64-Bit Server VM
Default Encoding: UTF-8
Language: en
Country: US
--></g></svg>