<?xml version="1.0" encoding="UTF-8" standalone="no"?><svg xmlns="http://www.w3.org/2000/svg" xmlns:xlink="http://www.w3.org/1999/xlink" contentScriptType="application/ecmascript" contentStyleType="text/css" height="307px" preserveAspectRatio="none" style="width:443px;height:307px;" version="1.1" viewBox="0 0 443 307" width="443px" zoomAndPan="magnify"><defs><filter height="300%" id="f1g2bxpod7wygd" width="300%" x="-1" y="-1"><feGaussianBlur result="blurOut" stdDeviation="2.0"/><feColorMatrix in="blurOut" result="blurOut2" type="matrix" values="0 0 0 0 0 0 0 0 0 0 0 0 0 0 0 0 0 0 .4 0"/><feOffset dx="4.0" dy="4.0" in="blurOut2" result="blurOut3"/><feBlend in="SourceGraphic" in2="blurOut3" mode="normal"/></filter></defs><g><!--MD5=[6533c9a9ac49d188f403c81cac4b1f15]
class eapli.exemplo.utentemanagement.domain.events.NewUserRegisteredFromSignupEvent--><a href="NewUserRegisteredFromSignupEvent.html" target="_top" title="NewUserRegisteredFromSignupEvent.html" xlink:actuate="onRequest" xlink:href="NewUserRegisteredFromSignupEvent.html" xlink:show="new" xlink:title="NewUserRegisteredFromSignupEvent.html" xlink:type="simple"><rect codeLine="5" fill="#FEFECE" filter="url(#f1g2bxpod7wygd)" height="131.9961" id="eapli.exemplo.utentemanagement.domain.events.NewUserRegisteredFromSignupEvent" style="stroke: #A80036; stroke-width: 1.5;" width="417" x="7" y="139.17"/><ellipse cx="84.25" cy="158.3028" fill="#ADD1B2" rx="11" ry="11" style="stroke: #A80036; stroke-width: 1.0;"/><path d="M86.7231,164.4459 Q86.1421,164.7447 85.5029,164.8941 Q84.8638,165.0435 84.1582,165.0435 Q81.6514,165.0435 80.3315,163.3917 Q79.0117,161.7398 79.0117,158.6187 Q79.0117,155.4893 80.3315,153.8375 Q81.6514,152.1856 84.1582,152.1856 Q84.8638,152.1856 85.5112,152.335 Q86.1587,152.4845 86.7231,152.7833 L86.7231,155.5059 Q86.0923,154.9249 85.4988,154.6551 Q84.9053,154.3853 84.2744,154.3853 Q82.9297,154.3853 82.2449,155.452 Q81.5601,156.5186 81.5601,158.6187 Q81.5601,160.7105 82.2449,161.7772 Q82.9297,162.8438 84.2744,162.8438 Q84.9053,162.8438 85.4988,162.5741 Q86.0923,162.3043 86.7231,161.7232 Z "/><text fill="#000000" font-family="sans-serif" font-size="14" lengthAdjust="spacingAndGlyphs" textLength="254" x="104.75" y="157.7052">NewUserRegisteredFromSignupEvent</text><text fill="#000000" font-family="sans-serif" font-size="10" lengthAdjust="spacingAndGlyphs" textLength="242" x="110.75" y="170.3263">eapli.exemplo.utentemanagement.domain.events</text><line style="stroke: #A80036; stroke-width: 1.5;" x1="8" x2="423" y1="177.4356" y2="177.4356"/><rect fill="none" height="6" style="stroke: #C82930; stroke-width: 1.0;" width="6" x="15" y="185.4356"/><text fill="#000000" font-family="sans-serif" font-size="11" lengthAdjust="spacingAndGlyphs" text-decoration="underline" textLength="119" x="27" y="192.0704">serialVersionUID: long</text><rect fill="none" height="6" style="stroke: #C82930; stroke-width: 1.0;" width="6" x="15" y="198.3907"/><text fill="#000000" font-family="sans-serif" font-size="11" lengthAdjust="spacingAndGlyphs" textLength="257" x="27" y="205.0255">mecanographicNumber: MecanographicNumber</text><rect fill="none" height="6" style="stroke: #C82930; stroke-width: 1.0;" width="6" x="15" y="211.3458"/><text fill="#000000" font-family="sans-serif" font-size="11" lengthAdjust="spacingAndGlyphs" textLength="106" x="27" y="217.9805">newUser: Username</text><line style="stroke: #A80036; stroke-width: 1.5;" x1="8" x2="423" y1="224.3009" y2="224.3009"/><ellipse cx="18" cy="235.3009" fill="#84BE84" rx="3" ry="3" style="stroke: #038048; stroke-width: 1.0;"/><text fill="#000000" font-family="sans-serif" font-size="11" lengthAdjust="spacingAndGlyphs" textLength="391" x="27" y="238.9356">NewUserRegisteredFromSignupEvent(MecanographicNumber, Username)</text><ellipse cx="18" cy="248.2559" fill="#84BE84" rx="3" ry="3" style="stroke: #038048; stroke-width: 1.0;"/><text fill="#000000" font-family="sans-serif" font-size="11" lengthAdjust="spacingAndGlyphs" textLength="265" x="27" y="251.8907">mecanographicNumber(): MecanographicNumber</text><ellipse cx="18" cy="261.211" fill="#84BE84" rx="3" ry="3" style="stroke: #038048; stroke-width: 1.0;"/><text fill="#000000" font-family="sans-serif" font-size="11" lengthAdjust="spacingAndGlyphs" textLength="121" x="27" y="264.8458">username(): Username</text></a><!--MD5=[4beb70b4df165f82a4be1a581888c180]
class eapli.framework.domain.events.DomainEventBase--><rect codeLine="14" fill="#FEFECE" filter="url(#f1g2bxpod7wygd)" height="38.2656" id="eapli.framework.domain.events.DomainEventBase" style="stroke: #A80036; stroke-width: 1.5;" width="186" x="12.5" y="23.95"/><ellipse cx="27.5" cy="43.0828" fill="#A9DCDF" rx="11" ry="11" style="stroke: #A80036; stroke-width: 1.0;"/><path d="M27.3633,38.431 L26.2095,43.5027 L28.5254,43.5027 Z M25.8691,36.1897 L28.8657,36.1897 L32.2109,48.5828 L29.7622,48.5828 L28.9985,45.5198 L25.7197,45.5198 L24.9727,48.5828 L22.5239,48.5828 Z "/><text fill="#000000" font-family="sans-serif" font-size="14" font-style="italic" lengthAdjust="spacingAndGlyphs" textLength="121" x="58" y="42.4852">DomainEventBase</text><text fill="#000000" font-family="sans-serif" font-size="10" font-style="italic" lengthAdjust="spacingAndGlyphs" textLength="154" x="41.5" y="55.1063">eapli.framework.domain.events</text><!--MD5=[ea75adc6b2f7b75164bb2ec99f67a451]
class eapli.framework.domain.events.DomainEvent--><rect codeLine="15" fill="#FEFECE" filter="url(#f1g2bxpod7wygd)" height="72.1758" id="eapli.framework.domain.events.DomainEvent" style="stroke: #A80036; stroke-width: 1.5;" width="186" x="233.5" y="7"/><ellipse cx="248.5" cy="26.1328" fill="#B4A7E5" rx="11" ry="11" style="stroke: #A80036; stroke-width: 1.0;"/><path d="M244.9277,22.3979 L244.9277,20.2397 L252.3071,20.2397 L252.3071,22.3979 L249.8418,22.3979 L249.8418,30.4746 L252.3071,30.4746 L252.3071,32.6328 L244.9277,32.6328 L244.9277,30.4746 L247.3931,30.4746 L247.3931,22.3979 Z "/><text fill="#000000" font-family="sans-serif" font-size="14" font-style="italic" lengthAdjust="spacingAndGlyphs" textLength="90" x="294.5" y="25.5352">DomainEvent</text><text fill="#000000" font-family="sans-serif" font-size="10" font-style="italic" lengthAdjust="spacingAndGlyphs" textLength="154" x="262.5" y="38.1563">eapli.framework.domain.events</text><line style="stroke: #A80036; stroke-width: 1.5;" x1="234.5" x2="418.5" y1="45.2656" y2="45.2656"/><ellipse cx="244.5" cy="56.2656" fill="#84BE84" rx="3" ry="3" style="stroke: #038048; stroke-width: 1.0;"/><text fill="#000000" font-family="sans-serif" font-size="11" font-style="italic" lengthAdjust="spacingAndGlyphs" textLength="123" x="253.5" y="59.9004">occurredAt(): Calendar</text><ellipse cx="244.5" cy="69.2207" fill="#84BE84" rx="3" ry="3" style="stroke: #038048; stroke-width: 1.0;"/><text fill="#000000" font-family="sans-serif" font-size="11" font-style="italic" lengthAdjust="spacingAndGlyphs" textLength="129" x="253.5" y="72.8555">registeredAt(): Calendar</text><!--MD5=[4e2c7ed1b76e22e8321e15bde799b3ff]
reverse link eapli.framework.domain.events.DomainEventBase to eapli.exemplo.utentemanagement.domain.events.NewUserRegisteredFromSignupEvent--><path codeLine="20" d="M130.24,80.09 C142.19,97.48 156.91,118.9 170.73,139.02 " fill="none" id="eapli.framework.domain.events.DomainEventBase-backto-eapli.exemplo.utentemanagement.domain.events.NewUserRegisteredFromSignupEvent" style="stroke: #A80036; stroke-width: 1.0;"/><polygon fill="none" points="124.53,84.15,118.98,63.7,136.07,76.22,124.53,84.15" style="stroke: #A80036; stroke-width: 1.0;"/><!--MD5=[493ef8be4cdf1842831088a75dbfe504]
reverse link eapli.framework.domain.events.DomainEvent to eapli.exemplo.utentemanagement.domain.events.NewUserRegisteredFromSignupEvent--><path codeLine="21" d="M289.83,96.98 C280.55,110.35 270.48,124.88 260.84,138.79 " fill="none" id="eapli.framework.domain.events.DomainEvent-backto-eapli.exemplo.utentemanagement.domain.events.NewUserRegisteredFromSignupEvent" style="stroke: #A80036; stroke-width: 1.0; stroke-dasharray: 7.0,7.0;"/><polygon fill="none" points="283.85,93.31,301,80.86,295.36,101.28,283.85,93.31" style="stroke: #A80036; stroke-width: 1.0;"/><text fill="#888888" font-family="sans-serif" font-size="10" lengthAdjust="spacingAndGlyphs" textLength="188" x="118.5" y="293.8341">UMLDoclet 2.0.12, PlantUML 1.2020.16</text><!--MD5=[9b13e5a4faf686ea4898ddf6cb4d9dbb]
@startuml
    set namespaceSeparator none
    hide empty fields
    hide empty methods

    class "<size:14>NewUserRegisteredFromSignupEvent\n<size:10>eapli.exemplo.utentemanagement.domain.events" as eapli.exemplo.utentemanagement.domain.events.NewUserRegisteredFromSignupEvent [[NewUserRegisteredFromSignupEvent.html]] {
        {static} -serialVersionUID: long
        -mecanographicNumber: MecanographicNumber
        -newUser: Username
        +NewUserRegisteredFromSignupEvent(MecanographicNumber, Username)
        +mecanographicNumber(): MecanographicNumber
        +username(): Username
    }

    abstract class "<size:14>DomainEventBase\n<size:10>eapli.framework.domain.events" as eapli.framework.domain.events.DomainEventBase
    interface "<size:14>DomainEvent\n<size:10>eapli.framework.domain.events" as eapli.framework.domain.events.DomainEvent {
        {abstract} +occurredAt(): Calendar
        {abstract} +registeredAt(): Calendar
    }

    eapli.framework.domain.events.DomainEventBase <|- - eapli.exemplo.utentemanagement.domain.events.NewUserRegisteredFromSignupEvent
    eapli.framework.domain.events.DomainEvent <|.. eapli.exemplo.utentemanagement.domain.events.NewUserRegisteredFromSignupEvent

    center footer UMLDoclet 2.0.12, PlantUML 1.2020.16
@enduml

PlantUML version 1.2020.16(Sun Aug 23 21:20:43 WEST 2020)
(APACHE source distribution)
Java Runtime: OpenJDK Runtime Environment
JVM: OpenJDK 64-Bit Server VM
Default Encoding: UTF-8
Language: en
Country: US
--></g></svg>