<?xml version="1.0" encoding="UTF-8" standalone="no"?><svg xmlns="http://www.w3.org/2000/svg" xmlns:xlink="http://www.w3.org/1999/xlink" contentScriptType="application/ecmascript" contentStyleType="text/css" height="299px" preserveAspectRatio="none" style="width:317px;height:299px;" version="1.1" viewBox="0 0 317 299" width="317px" zoomAndPan="magnify"><defs><filter height="300%" id="fudtgmgdd1isj" width="300%" x="-1" y="-1"><feGaussianBlur result="blurOut" stdDeviation="2.0"/><feColorMatrix in="blurOut" result="blurOut2" type="matrix" values="0 0 0 0 0 0 0 0 0 0 0 0 0 0 0 0 0 0 .4 0"/><feOffset dx="4.0" dy="4.0" in="blurOut2" result="blurOut3"/><feBlend in="SourceGraphic" in2="blurOut3" mode="normal"/></filter></defs><g><!--MD5=[7069e131bd30d2a45aed6d2d86a7bc44]
class eapli.exemplo.utentemanagement.domain.events.SignupAcceptedEvent--><a href="SignupAcceptedEvent.html" target="_top" title="SignupAcceptedEvent.html" xlink:actuate="onRequest" xlink:href="SignupAcceptedEvent.html" xlink:show="new" xlink:title="SignupAcceptedEvent.html" xlink:type="simple"><rect codeLine="5" fill="#FEFECE" filter="url(#fudtgmgdd1isj)" height="157.9063" id="eapli.exemplo.utentemanagement.domain.events.SignupAcceptedEvent" style="stroke: #A80036; stroke-width: 1.5;" width="291" x="7" y="105.26"/><ellipse cx="29.65" cy="124.3928" fill="#ADD1B2" rx="11" ry="11" style="stroke: #A80036; stroke-width: 1.0;"/><path d="M32.1231,130.5359 Q31.5421,130.8347 30.9029,130.9841 Q30.2638,131.1335 29.5582,131.1335 Q27.0514,131.1335 25.7315,129.4817 Q24.4117,127.8298 24.4117,124.7087 Q24.4117,121.5793 25.7315,119.9275 Q27.0514,118.2756 29.5582,118.2756 Q30.2638,118.2756 30.9112,118.425 Q31.5587,118.5745 32.1231,118.8733 L32.1231,121.5959 Q31.4923,121.0149 30.8988,120.7451 Q30.3053,120.4753 29.6744,120.4753 Q28.3297,120.4753 27.6449,121.542 Q26.9601,122.6086 26.9601,124.7087 Q26.9601,126.8005 27.6449,127.8672 Q28.3297,128.9338 29.6744,128.9338 Q30.3053,128.9338 30.8988,128.6641 Q31.4923,128.3943 32.1231,127.8132 Z "/><text fill="#000000" font-family="sans-serif" font-size="14" lengthAdjust="spacingAndGlyphs" textLength="148" x="92.35" y="123.7952">SignupAcceptedEvent</text><text fill="#000000" font-family="sans-serif" font-size="10" lengthAdjust="spacingAndGlyphs" textLength="242" x="45.35" y="136.4163">eapli.exemplo.utentemanagement.domain.events</text><line style="stroke: #A80036; stroke-width: 1.5;" x1="8" x2="297" y1="143.5256" y2="143.5256"/><rect fill="none" height="6" style="stroke: #C82930; stroke-width: 1.0;" width="6" x="15" y="151.5256"/><text fill="#000000" font-family="sans-serif" font-size="11" lengthAdjust="spacingAndGlyphs" text-decoration="underline" textLength="119" x="27" y="158.1604">serialVersionUID: long</text><rect fill="none" height="6" style="stroke: #C82930; stroke-width: 1.0;" width="6" x="15" y="164.4807"/><text fill="#000000" font-family="sans-serif" font-size="11" lengthAdjust="spacingAndGlyphs" textLength="183" x="27" y="171.1155">theSignupRequest: SignupRequest</text><line style="stroke: #A80036; stroke-width: 1.5;" x1="8" x2="297" y1="177.4358" y2="177.4358"/><ellipse cx="18" cy="188.4358" fill="#84BE84" rx="3" ry="3" style="stroke: #038048; stroke-width: 1.0;"/><text fill="#000000" font-family="sans-serif" font-size="11" lengthAdjust="spacingAndGlyphs" textLength="204" x="27" y="192.0705">SignupAcceptedEvent(SignupRequest)</text><ellipse cx="18" cy="201.3909" fill="#84BE84" rx="3" ry="3" style="stroke: #038048; stroke-width: 1.0;"/><text fill="#000000" font-family="sans-serif" font-size="11" lengthAdjust="spacingAndGlyphs" textLength="121" x="27" y="205.0256">username(): Username</text><ellipse cx="18" cy="214.3459" fill="#84BE84" rx="3" ry="3" style="stroke: #038048; stroke-width: 1.0;"/><text fill="#000000" font-family="sans-serif" font-size="11" lengthAdjust="spacingAndGlyphs" textLength="117" x="27" y="217.9807">password(): Password</text><ellipse cx="18" cy="227.301" fill="#84BE84" rx="3" ry="3" style="stroke: #038048; stroke-width: 1.0;"/><text fill="#000000" font-family="sans-serif" font-size="11" lengthAdjust="spacingAndGlyphs" textLength="73" x="27" y="230.9358">name(): Name</text><ellipse cx="18" cy="240.2561" fill="#84BE84" rx="3" ry="3" style="stroke: #038048; stroke-width: 1.0;"/><text fill="#000000" font-family="sans-serif" font-size="11" lengthAdjust="spacingAndGlyphs" textLength="115" x="27" y="243.8909">email(): EmailAddress</text><ellipse cx="18" cy="253.2112" fill="#84BE84" rx="3" ry="3" style="stroke: #038048; stroke-width: 1.0;"/><text fill="#000000" font-family="sans-serif" font-size="11" lengthAdjust="spacingAndGlyphs" textLength="265" x="27" y="256.8459">mecanographicNumber(): MecanographicNumber</text></a><!--MD5=[4beb70b4df165f82a4be1a581888c180]
class eapli.framework.domain.events.DomainEventBase--><rect codeLine="16" fill="#FEFECE" filter="url(#fudtgmgdd1isj)" height="38.2656" id="eapli.framework.domain.events.DomainEventBase" style="stroke: #A80036; stroke-width: 1.5;" width="186" x="59.5" y="7"/><ellipse cx="74.5" cy="26.1328" fill="#A9DCDF" rx="11" ry="11" style="stroke: #A80036; stroke-width: 1.0;"/><path d="M74.3633,21.481 L73.2095,26.5527 L75.5254,26.5527 Z M72.8691,19.2397 L75.8657,19.2397 L79.2109,31.6328 L76.7622,31.6328 L75.9985,28.5698 L72.7197,28.5698 L71.9727,31.6328 L69.5239,31.6328 Z "/><text fill="#000000" font-family="sans-serif" font-size="14" font-style="italic" lengthAdjust="spacingAndGlyphs" textLength="121" x="105" y="25.5352">DomainEventBase</text><text fill="#000000" font-family="sans-serif" font-size="10" font-style="italic" lengthAdjust="spacingAndGlyphs" textLength="154" x="88.5" y="38.1563">eapli.framework.domain.events</text><!--MD5=[b51d4ce9d7192faebb3a702ce29efe87]
reverse link eapli.framework.domain.events.DomainEventBase to eapli.exemplo.utentemanagement.domain.events.SignupAcceptedEvent--><path codeLine="18" d="M152.5,66.93 C152.5,78.55 152.5,91.69 152.5,104.83 " fill="none" id="eapli.framework.domain.events.DomainEventBase-backto-eapli.exemplo.utentemanagement.domain.events.SignupAcceptedEvent" style="stroke: #A80036; stroke-width: 1.0;"/><polygon fill="none" points="145.5,67.16,152.5,47.16,159.5,67.16,145.5,67.16" style="stroke: #A80036; stroke-width: 1.0;"/><text fill="#888888" font-family="sans-serif" font-size="10" lengthAdjust="spacingAndGlyphs" textLength="188" x="55.5" y="285.8342">UMLDoclet 2.0.12, PlantUML 1.2020.16</text><!--MD5=[6aabffaaac258c5a3e42c0604c9b5a94]
@startuml
    set namespaceSeparator none
    hide empty fields
    hide empty methods

    class "<size:14>SignupAcceptedEvent\n<size:10>eapli.exemplo.utentemanagement.domain.events" as eapli.exemplo.utentemanagement.domain.events.SignupAcceptedEvent [[SignupAcceptedEvent.html]] {
        {static} -serialVersionUID: long
        -theSignupRequest: SignupRequest
        +SignupAcceptedEvent(SignupRequest)
        +username(): Username
        +password(): Password
        +name(): Name
        +email(): EmailAddress
        +mecanographicNumber(): MecanographicNumber
    }

    abstract class "<size:14>DomainEventBase\n<size:10>eapli.framework.domain.events" as eapli.framework.domain.events.DomainEventBase

    eapli.framework.domain.events.DomainEventBase <|- - eapli.exemplo.utentemanagement.domain.events.SignupAcceptedEvent

    center footer UMLDoclet 2.0.12, PlantUML 1.2020.16
@enduml

PlantUML version 1.2020.16(Sun Aug 23 21:20:43 WEST 2020)
(APACHE source distribution)
Java Runtime: OpenJDK Runtime Environment
JVM: OpenJDK 64-Bit Server VM
Default Encoding: UTF-8
Language: en
Country: US
--></g></svg>