<?xml version="1.0" encoding="UTF-8" standalone="no"?><svg xmlns="http://www.w3.org/2000/svg" xmlns:xlink="http://www.w3.org/1999/xlink" contentScriptType="application/ecmascript" contentStyleType="text/css" height="260px" preserveAspectRatio="none" style="width:841px;height:260px;" version="1.1" viewBox="0 0 841 260" width="841px" zoomAndPan="magnify"><defs><filter height="300%" id="f17qylx9ifu177" width="300%" x="-1" y="-1"><feGaussianBlur result="blurOut" stdDeviation="2.0"/><feColorMatrix in="blurOut" result="blurOut2" type="matrix" values="0 0 0 0 0 0 0 0 0 0 0 0 0 0 0 0 0 0 .4 0"/><feOffset dx="4.0" dy="4.0" in="blurOut2" result="blurOut3"/><feBlend in="SourceGraphic" in2="blurOut3" mode="normal"/></filter></defs><g><!--MD5=[1f674c73828c0399c754f826af708b9d]
class eapli.exemplo.persistence.impl.inmemory.InMemoryUtenteRepository--><a href="InMemoryUtenteRepository.html" target="_top" title="InMemoryUtenteRepository.html" xlink:actuate="onRequest" xlink:href="InMemoryUtenteRepository.html" xlink:show="new" xlink:title="InMemoryUtenteRepository.html" xlink:type="simple"><rect codeLine="5" fill="#FEFECE" filter="url(#f17qylx9ifu177)" height="85.1309" id="eapli.exemplo.persistence.impl.inmemory.InMemoryUtenteRepository" style="stroke: #A80036; stroke-width: 1.5;" width="422" x="258.5" y="139.18"/><ellipse cx="363.75" cy="158.3128" fill="#ADD1B2" rx="11" ry="11" style="stroke: #A80036; stroke-width: 1.0;"/><path d="M366.2231,164.4559 Q365.6421,164.7547 365.0029,164.9041 Q364.3638,165.0535 363.6582,165.0535 Q361.1514,165.0535 359.8315,163.4017 Q358.5117,161.7498 358.5117,158.6287 Q358.5117,155.4993 359.8315,153.8475 Q361.1514,152.1956 363.6582,152.1956 Q364.3638,152.1956 365.0112,152.345 Q365.6587,152.4945 366.2231,152.7933 L366.2231,155.5159 Q365.5923,154.9349 364.9988,154.6651 Q364.4053,154.3953 363.7744,154.3953 Q362.4297,154.3953 361.7449,155.462 Q361.0601,156.5286 361.0601,158.6287 Q361.0601,160.7205 361.7449,161.7872 Q362.4297,162.8538 363.7744,162.8538 Q364.4053,162.8538 364.9988,162.5841 Q365.5923,162.3143 366.2231,161.7332 Z "/><text fill="#000000" font-family="sans-serif" font-size="14" lengthAdjust="spacingAndGlyphs" textLength="186" x="392.75" y="157.7152">InMemoryUtenteRepository</text><text fill="#000000" font-family="sans-serif" font-size="10" lengthAdjust="spacingAndGlyphs" textLength="203" x="384.25" y="170.3363">eapli.exemplo.persistence.impl.inmemory</text><line style="stroke: #A80036; stroke-width: 1.5;" x1="259.5" x2="679.5" y1="177.4456" y2="177.4456"/><ellipse cx="269.5" cy="188.4456" fill="#84BE84" rx="3" ry="3" style="stroke: #038048; stroke-width: 1.0;"/><text fill="#000000" font-family="sans-serif" font-size="11" lengthAdjust="spacingAndGlyphs" textLength="254" x="278.5" y="192.0804">findByUsername(Username): Optional&lt;Utente&gt;</text><ellipse cx="269.5" cy="201.4007" fill="#84BE84" rx="3" ry="3" style="stroke: #038048; stroke-width: 1.0;"/><text fill="#000000" font-family="sans-serif" font-size="11" lengthAdjust="spacingAndGlyphs" textLength="396" x="278.5" y="205.0355">findByMecanographicNumber(MecanographicNumber): Optional&lt;Utente&gt;</text><ellipse cx="269.5" cy="214.3558" fill="#84BE84" rx="3" ry="3" style="stroke: #038048; stroke-width: 1.0;"/><text fill="#000000" font-family="sans-serif" font-size="11" lengthAdjust="spacingAndGlyphs" textLength="175" x="278.5" y="217.9905">findAllActive(): Iterable&lt;Utente&gt;</text></a><!--MD5=[e33e9c8a8faf20b8072deee35366ebac]
class eapli.framework.infrastructure.repositories.impl.inmemory.InMemoryDomainRepository--><rect codeLine="11" fill="#FEFECE" filter="url(#f17qylx9ifu177)" height="38.2656" id="eapli.framework.infrastructure.repositories.impl.inmemory.InMemoryDomainRepository" style="stroke: #A80036; stroke-width: 1.5;" width="501" x="7" y="23.96"/><ellipse cx="22" cy="43.0928" fill="#ADD1B2" rx="11" ry="11" style="stroke: #A80036; stroke-width: 1.0;"/><path d="M24.4731,49.2359 Q23.8921,49.5347 23.2529,49.6841 Q22.6138,49.8335 21.9082,49.8335 Q19.4014,49.8335 18.0815,48.1817 Q16.7617,46.5298 16.7617,43.4087 Q16.7617,40.2793 18.0815,38.6275 Q19.4014,36.9756 21.9082,36.9756 Q22.6138,36.9756 23.2612,37.125 Q23.9087,37.2745 24.4731,37.5733 L24.4731,40.2959 Q23.8423,39.7149 23.2488,39.4451 Q22.6553,39.1753 22.0244,39.1753 Q20.6797,39.1753 19.9949,40.242 Q19.3101,41.3086 19.3101,43.4087 Q19.3101,45.5005 19.9949,46.5672 Q20.6797,47.6338 22.0244,47.6338 Q22.6553,47.6338 23.2488,47.3641 Q23.8423,47.0943 24.4731,46.5132 Z "/><text fill="#000000" font-family="sans-serif" font-size="14" lengthAdjust="spacingAndGlyphs" textLength="194" x="82" y="42.4952">InMemoryDomainRepository</text><text fill="#000000" font-family="sans-serif" font-size="10" lengthAdjust="spacingAndGlyphs" textLength="286" x="36" y="55.1163">eapli.framework.infrastructure.repositories.impl.inmemory</text><rect fill="#FFFFFF" height="16.1328" style="stroke: #000000; stroke-width: 1.0; stroke-dasharray: 2.0,2.0;" width="181" x="330" y="20.96"/><text fill="#000000" font-family="sans-serif" font-size="12" font-style="italic" lengthAdjust="spacingAndGlyphs" textLength="179" x="331" y="33.5616">Utente, MecanographicNumber</text><!--MD5=[794edea7655e05ac69c4241c1c73c240]
class eapli.exemplo.utentemanagement.repositories.UtenteRepository--><rect codeLine="12" fill="#FEFECE" filter="url(#f17qylx9ifu177)" height="72.1758" id="eapli.exemplo.utentemanagement.repositories.UtenteRepository" style="stroke: #A80036; stroke-width: 1.5;" width="280" x="542.5" y="7"/><ellipse cx="566.05" cy="26.1328" fill="#B4A7E5" rx="11" ry="11" style="stroke: #A80036; stroke-width: 1.0;"/><path d="M562.4777,22.3979 L562.4777,20.2397 L569.8571,20.2397 L569.8571,22.3979 L567.3918,22.3979 L567.3918,30.4746 L569.8571,30.4746 L569.8571,32.6328 L562.4777,32.6328 L562.4777,30.4746 L564.9431,30.4746 L564.9431,22.3979 Z "/><text fill="#000000" font-family="sans-serif" font-size="14" font-style="italic" lengthAdjust="spacingAndGlyphs" textLength="118" x="637.45" y="25.5352">UtenteRepository</text><text fill="#000000" font-family="sans-serif" font-size="10" font-style="italic" lengthAdjust="spacingAndGlyphs" textLength="229" x="581.95" y="38.1563">eapli.exemplo.utentemanagement.repositories</text><line style="stroke: #A80036; stroke-width: 1.5;" x1="543.5" x2="821.5" y1="45.2656" y2="45.2656"/><ellipse cx="553.5" cy="56.2656" fill="#84BE84" rx="3" ry="3" style="stroke: #038048; stroke-width: 1.0;"/><text fill="#000000" font-family="sans-serif" font-size="11" font-style="italic" lengthAdjust="spacingAndGlyphs" textLength="254" x="562.5" y="59.9004">findByUsername(Username): Optional&lt;Utente&gt;</text><ellipse cx="553.5" cy="69.2207" fill="#84BE84" rx="3" ry="3" style="stroke: #038048; stroke-width: 1.0;"/><text fill="#000000" font-family="sans-serif" font-size="11" font-style="italic" lengthAdjust="spacingAndGlyphs" textLength="175" x="562.5" y="72.8555">findAllActive(): Iterable&lt;Utente&gt;</text><!--MD5=[c7f574505c5bdf8a1bb7fd031941fb1d]
reverse link eapli.framework.infrastructure.repositories.impl.inmemory.InMemoryDomainRepository to eapli.exemplo.persistence.impl.inmemory.InMemoryUtenteRepository--><path codeLine="17" d="M303.98,74.05 C333.44,93.04 371.96,117.87 404.43,138.8 " fill="none" id="eapli.framework.infrastructure.repositories.impl.inmemory.InMemoryDomainRepository-backto-eapli.exemplo.persistence.impl.inmemory.InMemoryUtenteRepository" style="stroke: #A80036; stroke-width: 1.0;"/><polygon fill="none" points="300.38,80.06,287.36,63.34,307.97,68.29,300.38,80.06" style="stroke: #A80036; stroke-width: 1.0;"/><!--MD5=[646299bf36d2e7531f5dced87a4d285b]
reverse link eapli.exemplo.utentemanagement.repositories.UtenteRepository to eapli.exemplo.persistence.impl.inmemory.InMemoryUtenteRepository--><path codeLine="18" d="M609.21,91.11 C585.05,106.61 558.37,123.73 534.84,138.82 " fill="none" id="eapli.exemplo.utentemanagement.repositories.UtenteRepository-backto-eapli.exemplo.persistence.impl.inmemory.InMemoryUtenteRepository" style="stroke: #A80036; stroke-width: 1.0; stroke-dasharray: 7.0,7.0;"/><polygon fill="none" points="605.21,85.36,625.82,80.46,612.77,97.15,605.21,85.36" style="stroke: #A80036; stroke-width: 1.0;"/><text fill="#888888" font-family="sans-serif" font-size="10" lengthAdjust="spacingAndGlyphs" textLength="188" x="317.75" y="246.9788">UMLDoclet 2.0.12, PlantUML 1.2020.16</text><!--MD5=[13f9c07c498dd2e5f4721e371f3acd98]
@startuml
    set namespaceSeparator none
    hide empty fields
    hide empty methods

    class "<size:14>InMemoryUtenteRepository\n<size:10>eapli.exemplo.persistence.impl.inmemory" as eapli.exemplo.persistence.impl.inmemory.InMemoryUtenteRepository [[InMemoryUtenteRepository.html]] {
        +findByUsername(Username): Optional<Utente>
        +findByMecanographicNumber(MecanographicNumber): Optional<Utente>
        +findAllActive(): Iterable<Utente>
    }

    class "<size:14>InMemoryDomainRepository\n<size:10>eapli.framework.infrastructure.repositories.impl.inmemory" as eapli.framework.infrastructure.repositories.impl.inmemory.InMemoryDomainRepository<Utente, MecanographicNumber>
    interface "<size:14>UtenteRepository\n<size:10>eapli.exemplo.utentemanagement.repositories" as eapli.exemplo.utentemanagement.repositories.UtenteRepository {
        {abstract} +findByUsername(Username): Optional<Utente>
        {abstract} +findAllActive(): Iterable<Utente>
    }

    eapli.framework.infrastructure.repositories.impl.inmemory.InMemoryDomainRepository <|- - eapli.exemplo.persistence.impl.inmemory.InMemoryUtenteRepository
    eapli.exemplo.utentemanagement.repositories.UtenteRepository <|.. eapli.exemplo.persistence.impl.inmemory.InMemoryUtenteRepository

    center footer UMLDoclet 2.0.12, PlantUML 1.2020.16
@enduml

PlantUML version 1.2020.16(Sun Aug 23 21:20:43 WEST 2020)
(APACHE source distribution)
Java Runtime: OpenJDK Runtime Environment
JVM: OpenJDK 64-Bit Server VM
Default Encoding: UTF-8
Language: en
Country: US
--></g></svg>