<?xml version="1.0" encoding="UTF-8" standalone="no"?><svg xmlns="http://www.w3.org/2000/svg" xmlns:xlink="http://www.w3.org/1999/xlink" contentScriptType="application/ecmascript" contentStyleType="text/css" height="234px" preserveAspectRatio="none" style="width:270px;height:234px;" version="1.1" viewBox="0 0 270 234" width="270px" zoomAndPan="magnify"><defs><filter height="300%" id="f1cakxy72165vw" width="300%" x="-1" y="-1"><feGaussianBlur result="blurOut" stdDeviation="2.0"/><feColorMatrix in="blurOut" result="blurOut2" type="matrix" values="0 0 0 0 0 0 0 0 0 0 0 0 0 0 0 0 0 0 .4 0"/><feOffset dx="4.0" dy="4.0" in="blurOut2" result="blurOut3"/><feBlend in="SourceGraphic" in2="blurOut3" mode="normal"/></filter></defs><g><!--MD5=[42ea2866ac8c86f8a06339b3b521c2f8]
class eapli.exemplo.persistence.impl.inmemory.InMemoryInitializer--><a href="InMemoryInitializer.html" target="_top" title="InMemoryInitializer.html" xlink:actuate="onRequest" xlink:href="InMemoryInitializer.html" xlink:show="new" xlink:title="InMemoryInitializer.html" xlink:type="simple"><rect codeLine="5" fill="#FEFECE" filter="url(#f1cakxy72165vw)" height="93.1309" id="eapli.exemplo.persistence.impl.inmemory.InMemoryInitializer" style="stroke: #A80036; stroke-width: 1.5;" width="235" x="11.5" y="7"/><ellipse cx="26.5" cy="26.1328" fill="#ADD1B2" rx="11" ry="11" style="stroke: #A80036; stroke-width: 1.0;"/><path d="M28.9731,32.2759 Q28.3921,32.5747 27.7529,32.7241 Q27.1138,32.8735 26.4082,32.8735 Q23.9014,32.8735 22.5815,31.2217 Q21.2617,29.5698 21.2617,26.4487 Q21.2617,23.3193 22.5815,21.6675 Q23.9014,20.0156 26.4082,20.0156 Q27.1138,20.0156 27.7612,20.165 Q28.4087,20.3145 28.9731,20.6133 L28.9731,23.3359 Q28.3423,22.7549 27.7488,22.4851 Q27.1553,22.2153 26.5244,22.2153 Q25.1797,22.2153 24.4949,23.282 Q23.8101,24.3486 23.8101,26.4487 Q23.8101,28.5405 24.4949,29.6072 Q25.1797,30.6738 26.5244,30.6738 Q27.1553,30.6738 27.7488,30.4041 Q28.3423,30.1343 28.9731,29.5532 Z "/><text fill="#000000" font-family="sans-serif" font-size="14" lengthAdjust="spacingAndGlyphs" textLength="132" x="76" y="25.5352">InMemoryInitializer</text><text fill="#000000" font-family="sans-serif" font-size="10" lengthAdjust="spacingAndGlyphs" textLength="203" x="40.5" y="38.1563">eapli.exemplo.persistence.impl.inmemory</text><line style="stroke: #A80036; stroke-width: 1.5;" x1="12.5" x2="245.5" y1="45.2656" y2="45.2656"/><rect fill="none" height="6" style="stroke: #C82930; stroke-width: 1.0;" width="6" x="19.5" y="53.2656"/><text fill="#000000" font-family="sans-serif" font-size="11" lengthAdjust="spacingAndGlyphs" textLength="100" x="31.5" y="59.9004">initialized: boolean</text><line style="stroke: #A80036; stroke-width: 1.5;" x1="12.5" x2="245.5" y1="66.2207" y2="66.2207"/><rect fill="#F24D5C" height="6" style="stroke: #C82930; stroke-width: 1.0;" width="6" x="19.5" y="74.2207"/><text fill="#000000" font-family="sans-serif" font-size="11" lengthAdjust="spacingAndGlyphs" textLength="81" x="31.5" y="80.8555">initialize(): void</text><ellipse cx="22.5" cy="90.1758" fill="#84BE84" rx="3" ry="3" style="stroke: #038048; stroke-width: 1.0;"/><text fill="#000000" font-family="sans-serif" font-size="11" lengthAdjust="spacingAndGlyphs" text-decoration="underline" textLength="54" x="31.5" y="93.8105">init(): void</text></a><!--MD5=[5fa96998db7f374e86dc75fcf6042684]
class eapli.exemplo.persistence.impl.inmemory.InMemoryInitializer.LazyHolder--><a href="InMemoryInitializer.LazyHolder.html" target="_top" title="InMemoryInitializer.LazyHolder.html" xlink:actuate="onRequest" xlink:href="InMemoryInitializer.LazyHolder.html" xlink:show="new" xlink:title="InMemoryInitializer.LazyHolder.html" xlink:type="simple"><rect codeLine="10" fill="#FEFECE" filter="url(#f1cakxy72165vw)" height="38.2656" id="eapli.exemplo.persistence.impl.inmemory.InMemoryInitializer.LazyHolder" style="stroke: #A80036; stroke-width: 1.5;" width="244" x="7" y="160.13"/><ellipse cx="22" cy="179.2628" fill="#ADD1B2" rx="11" ry="11" style="stroke: #A80036; stroke-width: 1.0;"/><path d="M24.4731,185.4059 Q23.8921,185.7047 23.2529,185.8541 Q22.6138,186.0035 21.9082,186.0035 Q19.4014,186.0035 18.0815,184.3517 Q16.7617,182.6998 16.7617,179.5787 Q16.7617,176.4493 18.0815,174.7975 Q19.4014,173.1456 21.9082,173.1456 Q22.6138,173.1456 23.2612,173.295 Q23.9087,173.4445 24.4731,173.7433 L24.4731,176.4659 Q23.8423,175.8849 23.2488,175.6151 Q22.6553,175.3453 22.0244,175.3453 Q20.6797,175.3453 19.9949,176.412 Q19.3101,177.4786 19.3101,179.5787 Q19.3101,181.6705 19.9949,182.7372 Q20.6797,183.8038 22.0244,183.8038 Q22.6553,183.8038 23.2488,183.5341 Q23.8423,183.2643 24.4731,182.6832 Z "/><text fill="#000000" font-family="sans-serif" font-size="14" lengthAdjust="spacingAndGlyphs" textLength="212" x="36" y="178.6652">InMemoryInitializer.LazyHolder</text><text fill="#000000" font-family="sans-serif" font-size="10" lengthAdjust="spacingAndGlyphs" textLength="203" x="40.5" y="191.2863">eapli.exemplo.persistence.impl.inmemory</text></a><!--MD5=[01c7eb223b972701354b449eb499ed5c]
reverse link eapli.exemplo.persistence.impl.inmemory.InMemoryInitializer to eapli.exemplo.persistence.impl.inmemory.InMemoryInitializer.LazyHolder--><path codeLine="12" d="M129,116.79 C129,132.44 129,148.06 129,159.64 " fill="none" id="eapli.exemplo.persistence.impl.inmemory.InMemoryInitializer-backto-eapli.exemplo.persistence.impl.inmemory.InMemoryInitializer.LazyHolder" style="stroke: #A80036; stroke-width: 1.0;"/><ellipse cx="129" cy="110.14" fill="#FFFFFF" rx="8" ry="8" style="stroke: #A80036; stroke-width: 1.0;"/><line style="stroke: #A80036; stroke-width: 1.0;" x1="129" x2="129" y1="118.14" y2="102.14"/><line style="stroke: #A80036; stroke-width: 1.0;" x1="121" x2="137" y1="110.14" y2="110.14"/><text fill="#888888" font-family="sans-serif" font-size="10" lengthAdjust="spacingAndGlyphs" textLength="188" x="32" y="221.0636">UMLDoclet 2.0.12, PlantUML 1.2020.16</text><!--MD5=[f543574ff884b9bf5c87038ab67b1738]
@startuml
    set namespaceSeparator none
    hide empty fields
    hide empty methods

    class "<size:14>InMemoryInitializer\n<size:10>eapli.exemplo.persistence.impl.inmemory" as eapli.exemplo.persistence.impl.inmemory.InMemoryInitializer [[InMemoryInitializer.html]] {
        -initialized: boolean
        -initialize(): void
        {static} +init(): void
    }
    class "<size:14>InMemoryInitializer.LazyHolder\n<size:10>eapli.exemplo.persistence.impl.inmemory" as eapli.exemplo.persistence.impl.inmemory.InMemoryInitializer.LazyHolder [[InMemoryInitializer.LazyHolder.html]]

    eapli.exemplo.persistence.impl.inmemory.InMemoryInitializer +- - eapli.exemplo.persistence.impl.inmemory.InMemoryInitializer.LazyHolder

    center footer UMLDoclet 2.0.12, PlantUML 1.2020.16
@enduml

PlantUML version 1.2020.16(Sun Aug 23 21:20:43 WEST 2020)
(APACHE source distribution)
Java Runtime: OpenJDK Runtime Environment
JVM: OpenJDK 64-Bit Server VM
Default Encoding: UTF-8
Language: en
Country: US
--></g></svg>