<?xml version="1.0" encoding="UTF-8" standalone="no"?><svg xmlns="http://www.w3.org/2000/svg" xmlns:xlink="http://www.w3.org/1999/xlink" contentScriptType="application/ecmascript" contentStyleType="text/css" height="200px" preserveAspectRatio="none" style="width:270px;height:200px;" version="1.1" viewBox="0 0 270 200" width="270px" zoomAndPan="magnify"><defs><filter height="300%" id="f10ril479mpn7q" width="300%" x="-1" y="-1"><feGaussianBlur result="blurOut" stdDeviation="2.0"/><feColorMatrix in="blurOut" result="blurOut2" type="matrix" values="0 0 0 0 0 0 0 0 0 0 0 0 0 0 0 0 0 0 .4 0"/><feOffset dx="4.0" dy="4.0" in="blurOut2" result="blurOut3"/><feBlend in="SourceGraphic" in2="blurOut3" mode="normal"/></filter></defs><g><!--MD5=[5fa96998db7f374e86dc75fcf6042684]
class eapli.exemplo.persistence.impl.inmemory.InMemoryInitializer.LazyHolder--><a href="InMemoryInitializer.LazyHolder.html" target="_top" title="InMemoryInitializer.LazyHolder.html" xlink:actuate="onRequest" xlink:href="InMemoryInitializer.LazyHolder.html" xlink:show="new" xlink:title="InMemoryInitializer.LazyHolder.html" xlink:type="simple"><rect codeLine="5" fill="#FEFECE" filter="url(#f10ril479mpn7q)" height="59.2207" id="eapli.exemplo.persistence.impl.inmemory.InMemoryInitializer.LazyHolder" style="stroke: #A80036; stroke-width: 1.5;" width="244" x="7" y="105.27"/><ellipse cx="22" cy="124.4028" fill="#ADD1B2" rx="11" ry="11" style="stroke: #A80036; stroke-width: 1.0;"/><path d="M24.4731,130.5459 Q23.8921,130.8447 23.2529,130.9941 Q22.6138,131.1435 21.9082,131.1435 Q19.4014,131.1435 18.0815,129.4917 Q16.7617,127.8398 16.7617,124.7187 Q16.7617,121.5893 18.0815,119.9375 Q19.4014,118.2856 21.9082,118.2856 Q22.6138,118.2856 23.2612,118.435 Q23.9087,118.5845 24.4731,118.8833 L24.4731,121.6059 Q23.8423,121.0249 23.2488,120.7551 Q22.6553,120.4853 22.0244,120.4853 Q20.6797,120.4853 19.9949,121.552 Q19.3101,122.6186 19.3101,124.7187 Q19.3101,126.8105 19.9949,127.8772 Q20.6797,128.9438 22.0244,128.9438 Q22.6553,128.9438 23.2488,128.6741 Q23.8423,128.4043 24.4731,127.8232 Z "/><text fill="#000000" font-family="sans-serif" font-size="14" lengthAdjust="spacingAndGlyphs" textLength="212" x="36" y="123.8052">InMemoryInitializer.LazyHolder</text><text fill="#000000" font-family="sans-serif" font-size="10" lengthAdjust="spacingAndGlyphs" textLength="203" x="40.5" y="136.4263">eapli.exemplo.persistence.impl.inmemory</text><line style="stroke: #A80036; stroke-width: 1.5;" x1="8" x2="250" y1="143.5356" y2="143.5356"/><rect fill="none" height="6" style="stroke: #C82930; stroke-width: 1.0;" width="6" x="15" y="151.5356"/><text fill="#000000" font-family="sans-serif" font-size="11" lengthAdjust="spacingAndGlyphs" text-decoration="underline" textLength="162" x="27" y="158.1704">INSTANCE: InMemoryInitializer</text></a><!--MD5=[42ea2866ac8c86f8a06339b3b521c2f8]
class eapli.exemplo.persistence.impl.inmemory.InMemoryInitializer--><a href="InMemoryInitializer.html" target="_top" title="InMemoryInitializer.html" xlink:actuate="onRequest" xlink:href="InMemoryInitializer.html" xlink:show="new" xlink:title="InMemoryInitializer.html" xlink:type="simple"><rect codeLine="9" fill="#FEFECE" filter="url(#f10ril479mpn7q)" height="38.2656" id="eapli.exemplo.persistence.impl.inmemory.InMemoryInitializer" style="stroke: #A80036; stroke-width: 1.5;" width="235" x="11.5" y="7"/><ellipse cx="26.5" cy="26.1328" fill="#ADD1B2" rx="11" ry="11" style="stroke: #A80036; stroke-width: 1.0;"/><path d="M28.9731,32.2759 Q28.3921,32.5747 27.7529,32.7241 Q27.1138,32.8735 26.4082,32.8735 Q23.9014,32.8735 22.5815,31.2217 Q21.2617,29.5698 21.2617,26.4487 Q21.2617,23.3193 22.5815,21.6675 Q23.9014,20.0156 26.4082,20.0156 Q27.1138,20.0156 27.7612,20.165 Q28.4087,20.3145 28.9731,20.6133 L28.9731,23.3359 Q28.3423,22.7549 27.7488,22.4851 Q27.1553,22.2153 26.5244,22.2153 Q25.1797,22.2153 24.4949,23.282 Q23.8101,24.3486 23.8101,26.4487 Q23.8101,28.5405 24.4949,29.6072 Q25.1797,30.6738 26.5244,30.6738 Q27.1553,30.6738 27.7488,30.4041 Q28.3423,30.1343 28.9731,29.5532 Z "/><text fill="#000000" font-family="sans-serif" font-size="14" lengthAdjust="spacingAndGlyphs" textLength="132" x="76" y="25.5352">InMemoryInitializer</text><text fill="#000000" font-family="sans-serif" font-size="10" lengthAdjust="spacingAndGlyphs" textLength="203" x="40.5" y="38.1563">eapli.exemplo.persistence.impl.inmemory</text></a><!--MD5=[01c7eb223b972701354b449eb499ed5c]
reverse link eapli.exemplo.persistence.impl.inmemory.InMemoryInitializer to eapli.exemplo.persistence.impl.inmemory.InMemoryInitializer.LazyHolder--><path codeLine="11" d="M129,62.01 C129,75.94 129,91.79 129,105.05 " fill="none" id="eapli.exemplo.persistence.impl.inmemory.InMemoryInitializer-backto-eapli.exemplo.persistence.impl.inmemory.InMemoryInitializer.LazyHolder" style="stroke: #A80036; stroke-width: 1.0;"/><ellipse cx="129" cy="55.24" fill="#FFFFFF" rx="8" ry="8" style="stroke: #A80036; stroke-width: 1.0;"/><line style="stroke: #A80036; stroke-width: 1.0;" x1="129" x2="129" y1="63.24" y2="47.24"/><line style="stroke: #A80036; stroke-width: 1.0;" x1="121" x2="137" y1="55.24" y2="55.24"/><text fill="#888888" font-family="sans-serif" font-size="10" lengthAdjust="spacingAndGlyphs" textLength="188" x="32" y="187.1587">UMLDoclet 2.0.12, PlantUML 1.2020.16</text><!--MD5=[284abb00c85931b6d088a263bc9cb724]
@startuml
    set namespaceSeparator none
    hide empty fields
    hide empty methods

    class "<size:14>InMemoryInitializer.LazyHolder\n<size:10>eapli.exemplo.persistence.impl.inmemory" as eapli.exemplo.persistence.impl.inmemory.InMemoryInitializer.LazyHolder [[InMemoryInitializer.LazyHolder.html]] {
        {static} -INSTANCE: InMemoryInitializer
    }

    class "<size:14>InMemoryInitializer\n<size:10>eapli.exemplo.persistence.impl.inmemory" as eapli.exemplo.persistence.impl.inmemory.InMemoryInitializer [[InMemoryInitializer.html]]

    eapli.exemplo.persistence.impl.inmemory.InMemoryInitializer +- - eapli.exemplo.persistence.impl.inmemory.InMemoryInitializer.LazyHolder

    center footer UMLDoclet 2.0.12, PlantUML 1.2020.16
@enduml

PlantUML version 1.2020.16(Sun Aug 23 21:20:43 WEST 2020)
(APACHE source distribution)
Java Runtime: OpenJDK Runtime Environment
JVM: OpenJDK 64-Bit Server VM
Default Encoding: UTF-8
Language: en
Country: US
--></g></svg>