<?xml version="1.0" encoding="UTF-8" standalone="no"?><svg xmlns="http://www.w3.org/2000/svg" xmlns:xlink="http://www.w3.org/1999/xlink" contentScriptType="application/ecmascript" contentStyleType="text/css" height="221px" preserveAspectRatio="none" style="width:841px;height:221px;" version="1.1" viewBox="0 0 841 221" width="841px" zoomAndPan="magnify"><defs><filter height="300%" id="fbr1en18mlhz" width="300%" x="-1" y="-1"><feGaussianBlur result="blurOut" stdDeviation="2.0"/><feColorMatrix in="blurOut" result="blurOut2" type="matrix" values="0 0 0 0 0 0 0 0 0 0 0 0 0 0 0 0 0 0 .4 0"/><feOffset dx="4.0" dy="4.0" in="blurOut2" result="blurOut3"/><feBlend in="SourceGraphic" in2="blurOut3" mode="normal"/></filter></defs><g><!--MD5=[6bba3f73eed683a53d1386e10d2c92a6]
class eapli.exemplo.persistence.impl.inmemory.InMemorySignupRequestRepository--><a href="InMemorySignupRequestRepository.html" target="_top" title="InMemorySignupRequestRepository.html" xlink:actuate="onRequest" xlink:href="InMemorySignupRequestRepository.html" xlink:show="new" xlink:title="InMemorySignupRequestRepository.html" xlink:type="simple"><rect codeLine="5" fill="#FEFECE" filter="url(#fbr1en18mlhz)" height="59.2207" id="eapli.exemplo.persistence.impl.inmemory.InMemorySignupRequestRepository" style="stroke: #A80036; stroke-width: 1.5;" width="308" x="301.5" y="126.22"/><ellipse cx="330.9" cy="145.3528" fill="#ADD1B2" rx="11" ry="11" style="stroke: #A80036; stroke-width: 1.0;"/><path d="M333.3731,151.4959 Q332.7921,151.7947 332.1529,151.9441 Q331.5138,152.0935 330.8082,152.0935 Q328.3014,152.0935 326.9815,150.4417 Q325.6617,148.7898 325.6617,145.6687 Q325.6617,142.5393 326.9815,140.8875 Q328.3014,139.2356 330.8082,139.2356 Q331.5138,139.2356 332.1612,139.385 Q332.8087,139.5345 333.3731,139.8333 L333.3731,142.5559 Q332.7423,141.9749 332.1488,141.7051 Q331.5553,141.4353 330.9244,141.4353 Q329.5797,141.4353 328.8949,142.502 Q328.2101,143.5686 328.2101,145.6687 Q328.2101,147.7605 328.8949,148.8272 Q329.5797,149.8938 330.9244,149.8938 Q331.5553,149.8938 332.1488,149.6241 Q332.7423,149.3543 333.3731,148.7732 Z "/><text fill="#000000" font-family="sans-serif" font-size="14" lengthAdjust="spacingAndGlyphs" textLength="244" x="348.1" y="144.7552">InMemorySignupRequestRepository</text><text fill="#000000" font-family="sans-serif" font-size="10" lengthAdjust="spacingAndGlyphs" textLength="203" x="368.6" y="157.3763">eapli.exemplo.persistence.impl.inmemory</text><line style="stroke: #A80036; stroke-width: 1.5;" x1="302.5" x2="608.5" y1="164.4856" y2="164.4856"/><ellipse cx="312.5" cy="175.4856" fill="#84BE84" rx="3" ry="3" style="stroke: #038048; stroke-width: 1.0;"/><text fill="#000000" font-family="sans-serif" font-size="11" lengthAdjust="spacingAndGlyphs" textLength="282" x="321.5" y="179.1204">pendingSignupRequests(): Iterable&lt;SignupRequest&gt;</text></a><!--MD5=[e33e9c8a8faf20b8072deee35366ebac]
class eapli.framework.infrastructure.repositories.impl.inmemory.InMemoryDomainRepository--><rect codeLine="9" fill="#FEFECE" filter="url(#fbr1en18mlhz)" height="38.2656" id="eapli.framework.infrastructure.repositories.impl.inmemory.InMemoryDomainRepository" style="stroke: #A80036; stroke-width: 1.5;" width="473" x="7" y="17.48"/><ellipse cx="22" cy="36.6128" fill="#ADD1B2" rx="11" ry="11" style="stroke: #A80036; stroke-width: 1.0;"/><path d="M24.4731,42.7559 Q23.8921,43.0547 23.2529,43.2041 Q22.6138,43.3535 21.9082,43.3535 Q19.4014,43.3535 18.0815,41.7017 Q16.7617,40.0498 16.7617,36.9287 Q16.7617,33.7993 18.0815,32.1475 Q19.4014,30.4956 21.9082,30.4956 Q22.6138,30.4956 23.2612,30.645 Q23.9087,30.7945 24.4731,31.0933 L24.4731,33.8159 Q23.8423,33.2349 23.2488,32.9651 Q22.6553,32.6953 22.0244,32.6953 Q20.6797,32.6953 19.9949,33.762 Q19.3101,34.8286 19.3101,36.9287 Q19.3101,39.0205 19.9949,40.0872 Q20.6797,41.1538 22.0244,41.1538 Q22.6553,41.1538 23.2488,40.8841 Q23.8423,40.6143 24.4731,40.0332 Z "/><text fill="#000000" font-family="sans-serif" font-size="14" lengthAdjust="spacingAndGlyphs" textLength="194" x="82" y="36.0152">InMemoryDomainRepository</text><text fill="#000000" font-family="sans-serif" font-size="10" lengthAdjust="spacingAndGlyphs" textLength="286" x="36" y="48.6362">eapli.framework.infrastructure.repositories.impl.inmemory</text><rect fill="#FFFFFF" height="16.1328" style="stroke: #000000; stroke-width: 1.0; stroke-dasharray: 2.0,2.0;" width="153" x="330" y="14.48"/><text fill="#000000" font-family="sans-serif" font-size="12" font-style="italic" lengthAdjust="spacingAndGlyphs" textLength="151" x="331" y="27.0816">SignupRequest, Username</text><!--MD5=[396b46c1d4a3c126976427064cf287a0]
class eapli.exemplo.utentemanagement.repositories.SignupRequestRepository--><rect codeLine="10" fill="#FEFECE" filter="url(#fbr1en18mlhz)" height="59.2207" id="eapli.exemplo.utentemanagement.repositories.SignupRequestRepository" style="stroke: #A80036; stroke-width: 1.5;" width="308" x="514.5" y="7"/><ellipse cx="550.65" cy="26.1328" fill="#B4A7E5" rx="11" ry="11" style="stroke: #A80036; stroke-width: 1.0;"/><path d="M547.0777,22.3979 L547.0777,20.2397 L554.4571,20.2397 L554.4571,22.3979 L551.9918,22.3979 L551.9918,30.4746 L554.4571,30.4746 L554.4571,32.6328 L547.0777,32.6328 L547.0777,30.4746 L549.5431,30.4746 L549.5431,22.3979 Z "/><text fill="#000000" font-family="sans-serif" font-size="14" font-style="italic" lengthAdjust="spacingAndGlyphs" textLength="176" x="595.85" y="25.5352">SignupRequestRepository</text><text fill="#000000" font-family="sans-serif" font-size="10" font-style="italic" lengthAdjust="spacingAndGlyphs" textLength="229" x="569.35" y="38.1563">eapli.exemplo.utentemanagement.repositories</text><line style="stroke: #A80036; stroke-width: 1.5;" x1="515.5" x2="821.5" y1="45.2656" y2="45.2656"/><ellipse cx="525.5" cy="56.2656" fill="#84BE84" rx="3" ry="3" style="stroke: #038048; stroke-width: 1.0;"/><text fill="#000000" font-family="sans-serif" font-size="11" font-style="italic" lengthAdjust="spacingAndGlyphs" textLength="282" x="534.5" y="59.9004">pendingSignupRequests(): Iterable&lt;SignupRequest&gt;</text><!--MD5=[d6762e027b098ab4f13100fb5cfce6d9]
reverse link eapli.framework.infrastructure.repositories.impl.inmemory.InMemoryDomainRepository to eapli.exemplo.persistence.impl.inmemory.InMemorySignupRequestRepository--><path codeLine="14" d="M295.6,66.42 C328.29,84.49 370.3,107.72 403.06,125.83 " fill="none" id="eapli.framework.infrastructure.repositories.impl.inmemory.InMemoryDomainRepository-backto-eapli.exemplo.persistence.impl.inmemory.InMemorySignupRequestRepository" style="stroke: #A80036; stroke-width: 1.0;"/><polygon fill="none" points="292.53,72.72,278.42,56.92,299.31,60.47,292.53,72.72" style="stroke: #A80036; stroke-width: 1.0;"/><!--MD5=[61e1384c9d932eb6b8ece168a0b50da9]
reverse link eapli.exemplo.utentemanagement.repositories.SignupRequestRepository to eapli.exemplo.persistence.impl.inmemory.InMemorySignupRequestRepository--><path codeLine="15" d="M597.4,76.74 C568.28,92.76 535.19,110.98 508.28,125.78 " fill="none" id="eapli.exemplo.utentemanagement.repositories.SignupRequestRepository-backto-eapli.exemplo.persistence.impl.inmemory.InMemorySignupRequestRepository" style="stroke: #A80036; stroke-width: 1.0; stroke-dasharray: 7.0,7.0;"/><polygon fill="none" points="593.63,70.82,614.52,67.31,600.38,83.09,593.63,70.82" style="stroke: #A80036; stroke-width: 1.0;"/><text fill="#888888" font-family="sans-serif" font-size="10" lengthAdjust="spacingAndGlyphs" textLength="188" x="317.75" y="208.1087">UMLDoclet 2.0.12, PlantUML 1.2020.16</text><!--MD5=[5b1a7a727f5dadb615487dd08de05df5]
@startuml
    set namespaceSeparator none
    hide empty fields
    hide empty methods

    class "<size:14>InMemorySignupRequestRepository\n<size:10>eapli.exemplo.persistence.impl.inmemory" as eapli.exemplo.persistence.impl.inmemory.InMemorySignupRequestRepository [[InMemorySignupRequestRepository.html]] {
        +pendingSignupRequests(): Iterable<SignupRequest>
    }

    class "<size:14>InMemoryDomainRepository\n<size:10>eapli.framework.infrastructure.repositories.impl.inmemory" as eapli.framework.infrastructure.repositories.impl.inmemory.InMemoryDomainRepository<SignupRequest, Username>
    interface "<size:14>SignupRequestRepository\n<size:10>eapli.exemplo.utentemanagement.repositories" as eapli.exemplo.utentemanagement.repositories.SignupRequestRepository {
        {abstract} +pendingSignupRequests(): Iterable<SignupRequest>
    }

    eapli.framework.infrastructure.repositories.impl.inmemory.InMemoryDomainRepository <|- - eapli.exemplo.persistence.impl.inmemory.InMemorySignupRequestRepository
    eapli.exemplo.utentemanagement.repositories.SignupRequestRepository <|.. eapli.exemplo.persistence.impl.inmemory.InMemorySignupRequestRepository

    center footer UMLDoclet 2.0.12, PlantUML 1.2020.16
@enduml

PlantUML version 1.2020.16(Sun Aug 23 21:20:43 WEST 2020)
(APACHE source distribution)
Java Runtime: OpenJDK Runtime Environment
JVM: OpenJDK 64-Bit Server VM
Default Encoding: UTF-8
Language: en
Country: US
--></g></svg>