<?xml version="1.0" encoding="UTF-8" standalone="no"?><svg xmlns="http://www.w3.org/2000/svg" xmlns:xlink="http://www.w3.org/1999/xlink" contentScriptType="application/ecmascript" contentStyleType="text/css" height="572px" preserveAspectRatio="none" style="width:2155px;height:572px;" version="1.1" viewBox="0 0 2155 572" width="2155px" zoomAndPan="magnify"><defs><filter height="300%" id="fwyxev7p18o7s" width="300%" x="-1" y="-1"><feGaussianBlur result="blurOut" stdDeviation="2.0"/><feColorMatrix in="blurOut" result="blurOut2" type="matrix" values="0 0 0 0 0 0 0 0 0 0 0 0 0 0 0 0 0 0 .4 0"/><feOffset dx="4.0" dy="4.0" in="blurOut2" result="blurOut3"/><feBlend in="SourceGraphic" in2="blurOut3" mode="normal"/></filter></defs><g><!--MD5=[ff9b9a9423067840081792bc07875e80]
cluster eapli.exemplo.persistence.impl.inmemory--><polygon fill="#FFFFFF" filter="url(#fwyxev7p18o7s)" points="746,228.68,1048,228.68,1055,251.1683,2133,251.1683,2133,543.37,746,543.37,746,228.68" style="stroke: #000000; stroke-width: 1.5;"/><line style="stroke: #000000; stroke-width: 1.5;" x1="746" x2="1055" y1="251.1683" y2="251.1683"/><text fill="#000000" font-family="sans-serif" font-size="14" font-weight="bold" lengthAdjust="spacingAndGlyphs" textLength="296" x="750" y="244.2152">eapli.exemplo.persistence.impl.inmemory</text><!--MD5=[ac887de8245f80760d465cd3ca9fa7bc]
cluster eapli.framework.infrastructure.repositories.impl.inmemory--><polygon fill="#FFFFFF" filter="url(#fwyxev7p18o7s)" points="16,51.34,442,51.34,449,73.8283,722,73.8283,722,150.34,16,150.34,16,51.34" style="stroke: #000000; stroke-width: 1.5;"/><line style="stroke: #000000; stroke-width: 1.5;" x1="16" x2="449" y1="73.8283" y2="73.8283"/><text fill="#000000" font-family="sans-serif" font-size="14" font-weight="bold" lengthAdjust="spacingAndGlyphs" textLength="420" x="20" y="66.8752">eapli.framework.infrastructure.repositories.impl.inmemory</text><!--MD5=[0dfced2ab0315277c9d0f55daf5ec84c]
cluster eapli.exemplo.utentemanagement.repositories--><polygon fill="#FFFFFF" filter="url(#fwyxev7p18o7s)" points="746,31.91,1083,31.91,1090,54.3983,1543,54.3983,1543,169.77,746,169.77,746,31.91" style="stroke: #000000; stroke-width: 1.5;"/><line style="stroke: #000000; stroke-width: 1.5;" x1="746" x2="1090" y1="54.3983" y2="54.3983"/><text fill="#000000" font-family="sans-serif" font-size="14" font-weight="bold" lengthAdjust="spacingAndGlyphs" textLength="331" x="750" y="47.4452">eapli.exemplo.utentemanagement.repositories</text><!--MD5=[3fc664a848a68c20de812d06f0d6bf0a]
cluster eapli.exemplo.infrastructure.persistence--><polygon fill="#FFFFFF" filter="url(#fwyxev7p18o7s)" points="1567,6,1859,6,1866,28.4883,1979,28.4883,1979,195.68,1567,195.68,1567,6" style="stroke: #000000; stroke-width: 1.5;"/><line style="stroke: #000000; stroke-width: 1.5;" x1="1567" x2="1866" y1="28.4883" y2="28.4883"/><text fill="#000000" font-family="sans-serif" font-size="14" font-weight="bold" lengthAdjust="spacingAndGlyphs" textLength="286" x="1571" y="21.5352">eapli.exemplo.infrastructure.persistence</text><!--MD5=[1f674c73828c0399c754f826af708b9d]
class eapli.exemplo.persistence.impl.inmemory.InMemoryUtenteRepository--><a href="InMemoryUtenteRepository.html" target="_top" title="InMemoryUtenteRepository.html" xlink:actuate="onRequest" xlink:href="InMemoryUtenteRepository.html" xlink:show="new" xlink:title="InMemoryUtenteRepository.html" xlink:type="simple"><rect codeLine="3" fill="#FEFECE" filter="url(#fwyxev7p18o7s)" height="86.8652" id="eapli.exemplo.persistence.impl.inmemory.InMemoryUtenteRepository" style="stroke: #A80036; stroke-width: 1.5;" width="422" x="762" y="289.59"/><ellipse cx="891.75" cy="305.59" fill="#ADD1B2" rx="11" ry="11" style="stroke: #A80036; stroke-width: 1.0;"/><path d="M894.2231,311.7331 Q893.6421,312.0319 893.0029,312.1813 Q892.3638,312.3307 891.6582,312.3307 Q889.1514,312.3307 887.8315,310.6789 Q886.5117,309.027 886.5117,305.9059 Q886.5117,302.7765 887.8315,301.1247 Q889.1514,299.4728 891.6582,299.4728 Q892.3638,299.4728 893.0112,299.6222 Q893.6587,299.7716 894.2231,300.0705 L894.2231,302.7931 Q893.5923,302.2121 892.9988,301.9423 Q892.4053,301.6725 891.7744,301.6725 Q890.4297,301.6725 889.7449,302.7392 Q889.0601,303.8058 889.0601,305.9059 Q889.0601,307.9977 889.7449,309.0644 Q890.4297,310.131 891.7744,310.131 Q892.4053,310.131 892.9988,309.8612 Q893.5923,309.5915 894.2231,309.0104 Z "/><text fill="#000000" font-family="sans-serif" font-size="12" lengthAdjust="spacingAndGlyphs" textLength="154" x="912.25" y="310.1252">InMemoryUtenteRepository</text><line style="stroke: #A80036; stroke-width: 1.5;" x1="763" x2="1183" y1="321.59" y2="321.59"/><line style="stroke: #A80036; stroke-width: 1.5;" x1="763" x2="1183" y1="329.59" y2="329.59"/><ellipse cx="773" cy="340.59" fill="#84BE84" rx="3" ry="3" style="stroke: #038048; stroke-width: 1.0;"/><text fill="#000000" font-family="sans-serif" font-size="11" lengthAdjust="spacingAndGlyphs" textLength="254" x="782" y="344.2248">findByUsername(Username): Optional&lt;Utente&gt;</text><ellipse cx="773" cy="353.5451" fill="#84BE84" rx="3" ry="3" style="stroke: #038048; stroke-width: 1.0;"/><text fill="#000000" font-family="sans-serif" font-size="11" lengthAdjust="spacingAndGlyphs" textLength="396" x="782" y="357.1798">findByMecanographicNumber(MecanographicNumber): Optional&lt;Utente&gt;</text><ellipse cx="773" cy="366.5002" fill="#84BE84" rx="3" ry="3" style="stroke: #038048; stroke-width: 1.0;"/><text fill="#000000" font-family="sans-serif" font-size="11" lengthAdjust="spacingAndGlyphs" textLength="175" x="782" y="370.1349">findAllActive(): Iterable&lt;Utente&gt;</text></a><!--MD5=[41029915b77c11ae7b50926ef4736bf2]
class eapli.exemplo.persistence.impl.inmemory.InMemoryRepositoryFactory--><a href="InMemoryRepositoryFactory.html" target="_top" title="InMemoryRepositoryFactory.html" xlink:actuate="onRequest" xlink:href="InMemoryRepositoryFactory.html" xlink:show="new" xlink:title="InMemoryRepositoryFactory.html" xlink:type="simple"><rect codeLine="9" fill="#FEFECE" filter="url(#fwyxev7p18o7s)" height="138.6855" id="eapli.exemplo.persistence.impl.inmemory.InMemoryRepositoryFactory" style="stroke: #A80036; stroke-width: 1.5;" width="380" x="1562" y="263.68"/><ellipse cx="1668.75" cy="279.68" fill="#ADD1B2" rx="11" ry="11" style="stroke: #A80036; stroke-width: 1.0;"/><path d="M1671.2231,285.8231 Q1670.6421,286.1219 1670.0029,286.2713 Q1669.3638,286.4207 1668.6582,286.4207 Q1666.1514,286.4207 1664.8315,284.7689 Q1663.5117,283.117 1663.5117,279.9959 Q1663.5117,276.8665 1664.8315,275.2147 Q1666.1514,273.5628 1668.6582,273.5628 Q1669.3638,273.5628 1670.0112,273.7122 Q1670.6587,273.8616 1671.2231,274.1605 L1671.2231,276.8831 Q1670.5923,276.3021 1669.9988,276.0323 Q1669.4053,275.7625 1668.7744,275.7625 Q1667.4297,275.7625 1666.7449,276.8292 Q1666.0601,277.8958 1666.0601,279.9959 Q1666.0601,282.0877 1666.7449,283.1544 Q1667.4297,284.221 1668.7744,284.221 Q1669.4053,284.221 1669.9988,283.9512 Q1670.5923,283.6815 1671.2231,283.1004 Z "/><text fill="#000000" font-family="sans-serif" font-size="12" lengthAdjust="spacingAndGlyphs" textLength="158" x="1689.25" y="284.2152">InMemoryRepositoryFactory</text><line style="stroke: #A80036; stroke-width: 1.5;" x1="1563" x2="1941" y1="295.68" y2="295.68"/><line style="stroke: #A80036; stroke-width: 1.5;" x1="1563" x2="1941" y1="303.68" y2="303.68"/><ellipse cx="1573" cy="314.68" fill="#84BE84" rx="3" ry="3" style="stroke: #038048; stroke-width: 1.0;"/><text fill="#000000" font-family="sans-serif" font-size="11" lengthAdjust="spacingAndGlyphs" textLength="243" x="1582" y="318.3148">users(TransactionalContext): UserRepository</text><ellipse cx="1573" cy="327.6351" fill="#84BE84" rx="3" ry="3" style="stroke: #038048; stroke-width: 1.0;"/><text fill="#000000" font-family="sans-serif" font-size="11" lengthAdjust="spacingAndGlyphs" textLength="127" x="1582" y="331.2698">users(): UserRepository</text><ellipse cx="1573" cy="340.5902" fill="#84BE84" rx="3" ry="3" style="stroke: #038048; stroke-width: 1.0;"/><text fill="#000000" font-family="sans-serif" font-size="11" lengthAdjust="spacingAndGlyphs" textLength="263" x="1582" y="344.2249">utentes(TransactionalContext): UtenteRepository</text><ellipse cx="1573" cy="353.5452" fill="#84BE84" rx="3" ry="3" style="stroke: #038048; stroke-width: 1.0;"/><text fill="#000000" font-family="sans-serif" font-size="11" lengthAdjust="spacingAndGlyphs" textLength="147" x="1582" y="357.18">utentes(): UtenteRepository</text><ellipse cx="1573" cy="366.5003" fill="#84BE84" rx="3" ry="3" style="stroke: #038048; stroke-width: 1.0;"/><text fill="#000000" font-family="sans-serif" font-size="11" lengthAdjust="spacingAndGlyphs" textLength="238" x="1582" y="370.1351">signupRequests(): SignupRequestRepository</text><ellipse cx="1573" cy="379.4554" fill="#84BE84" rx="3" ry="3" style="stroke: #038048; stroke-width: 1.0;"/><text fill="#000000" font-family="sans-serif" font-size="11" lengthAdjust="spacingAndGlyphs" textLength="354" x="1582" y="383.0902">signupRequests(TransactionalContext): SignupRequestRepository</text><ellipse cx="1573" cy="392.4105" fill="#84BE84" rx="3" ry="3" style="stroke: #038048; stroke-width: 1.0;"/><text fill="#000000" font-family="sans-serif" font-size="11" lengthAdjust="spacingAndGlyphs" textLength="267" x="1582" y="396.0452">newTransactionalContext(): TransactionalContext</text></a><!--MD5=[6bba3f73eed683a53d1386e10d2c92a6]
class eapli.exemplo.persistence.impl.inmemory.InMemorySignupRequestRepository--><a href="InMemorySignupRequestRepository.html" target="_top" title="InMemorySignupRequestRepository.html" xlink:actuate="onRequest" xlink:href="InMemorySignupRequestRepository.html" xlink:show="new" xlink:title="InMemorySignupRequestRepository.html" xlink:type="simple"><rect codeLine="19" fill="#FEFECE" filter="url(#fwyxev7p18o7s)" height="60.9551" id="eapli.exemplo.persistence.impl.inmemory.InMemorySignupRequestRepository" style="stroke: #A80036; stroke-width: 1.5;" width="308" x="1219" y="302.55"/><ellipse cx="1267.75" cy="318.55" fill="#ADD1B2" rx="11" ry="11" style="stroke: #A80036; stroke-width: 1.0;"/><path d="M1270.2231,324.6931 Q1269.6421,324.9919 1269.0029,325.1413 Q1268.3638,325.2907 1267.6582,325.2907 Q1265.1514,325.2907 1263.8315,323.6389 Q1262.5117,321.987 1262.5117,318.8659 Q1262.5117,315.7365 1263.8315,314.0847 Q1265.1514,312.4328 1267.6582,312.4328 Q1268.3638,312.4328 1269.0112,312.5822 Q1269.6587,312.7316 1270.2231,313.0305 L1270.2231,315.7531 Q1269.5923,315.1721 1268.9988,314.9023 Q1268.4053,314.6325 1267.7744,314.6325 Q1266.4297,314.6325 1265.7449,315.6992 Q1265.0601,316.7658 1265.0601,318.8659 Q1265.0601,320.9577 1265.7449,322.0244 Q1266.4297,323.091 1267.7744,323.091 Q1268.4053,323.091 1268.9988,322.8212 Q1269.5923,322.5515 1270.2231,321.9704 Z "/><text fill="#000000" font-family="sans-serif" font-size="12" lengthAdjust="spacingAndGlyphs" textLength="202" x="1288.25" y="323.0852">InMemorySignupRequestRepository</text><line style="stroke: #A80036; stroke-width: 1.5;" x1="1220" x2="1526" y1="334.55" y2="334.55"/><line style="stroke: #A80036; stroke-width: 1.5;" x1="1220" x2="1526" y1="342.55" y2="342.55"/><ellipse cx="1230" cy="353.55" fill="#84BE84" rx="3" ry="3" style="stroke: #038048; stroke-width: 1.0;"/><text fill="#000000" font-family="sans-serif" font-size="11" lengthAdjust="spacingAndGlyphs" textLength="282" x="1239" y="357.1848">pendingSignupRequests(): Iterable&lt;SignupRequest&gt;</text></a><!--MD5=[42ea2866ac8c86f8a06339b3b521c2f8]
class eapli.exemplo.persistence.impl.inmemory.InMemoryInitializer--><a href="InMemoryInitializer.html" target="_top" title="InMemoryInitializer.html" xlink:actuate="onRequest" xlink:href="InMemoryInitializer.html" xlink:show="new" xlink:title="InMemoryInitializer.html" xlink:type="simple"><rect codeLine="23" fill="#FEFECE" filter="url(#fwyxev7p18o7s)" height="86.8652" id="eapli.exemplo.persistence.impl.inmemory.InMemoryInitializer" style="stroke: #A80036; stroke-width: 1.5;" width="140" x="1977" y="289.59"/><ellipse cx="1992" cy="305.59" fill="#ADD1B2" rx="11" ry="11" style="stroke: #A80036; stroke-width: 1.0;"/><path d="M1994.4731,311.7331 Q1993.8921,312.0319 1993.2529,312.1813 Q1992.6138,312.3307 1991.9082,312.3307 Q1989.4014,312.3307 1988.0815,310.6789 Q1986.7617,309.027 1986.7617,305.9059 Q1986.7617,302.7765 1988.0815,301.1247 Q1989.4014,299.4728 1991.9082,299.4728 Q1992.6138,299.4728 1993.2612,299.6222 Q1993.9087,299.7716 1994.4731,300.0705 L1994.4731,302.7931 Q1993.8423,302.2121 1993.2488,301.9423 Q1992.6553,301.6725 1992.0244,301.6725 Q1990.6797,301.6725 1989.9949,302.7392 Q1989.3101,303.8058 1989.3101,305.9059 Q1989.3101,307.9977 1989.9949,309.0644 Q1990.6797,310.131 1992.0244,310.131 Q1992.6553,310.131 1993.2488,309.8612 Q1993.8423,309.5915 1994.4731,309.0104 Z "/><text fill="#000000" font-family="sans-serif" font-size="12" lengthAdjust="spacingAndGlyphs" textLength="108" x="2006" y="310.1252">InMemoryInitializer</text><line style="stroke: #A80036; stroke-width: 1.5;" x1="1978" x2="2116" y1="321.59" y2="321.59"/><rect fill="none" height="6" style="stroke: #C82930; stroke-width: 1.0;" width="6" x="1985" y="329.59"/><text fill="#000000" font-family="sans-serif" font-size="11" lengthAdjust="spacingAndGlyphs" textLength="100" x="1997" y="336.2248">initialized: boolean</text><line style="stroke: #A80036; stroke-width: 1.5;" x1="1978" x2="2116" y1="342.5451" y2="342.5451"/><rect fill="#F24D5C" height="6" style="stroke: #C82930; stroke-width: 1.0;" width="6" x="1985" y="350.5451"/><text fill="#000000" font-family="sans-serif" font-size="11" lengthAdjust="spacingAndGlyphs" textLength="81" x="1997" y="357.1798">initialize(): void</text><ellipse cx="1988" cy="366.5002" fill="#84BE84" rx="3" ry="3" style="stroke: #038048; stroke-width: 1.0;"/><text fill="#000000" font-family="sans-serif" font-size="11" lengthAdjust="spacingAndGlyphs" text-decoration="underline" textLength="54" x="1997" y="370.1349">init(): void</text></a><!--MD5=[5fa96998db7f374e86dc75fcf6042684]
class eapli.exemplo.persistence.impl.inmemory.InMemoryInitializer.LazyHolder--><a href="InMemoryInitializer.LazyHolder.html" target="_top" title="InMemoryInitializer.LazyHolder.html" xlink:actuate="onRequest" xlink:href="InMemoryInitializer.LazyHolder.html" xlink:show="new" xlink:title="InMemoryInitializer.LazyHolder.html" xlink:type="simple"><rect codeLine="29" fill="#FEFECE" filter="url(#fwyxev7p18o7s)" height="48" id="eapli.exemplo.persistence.impl.inmemory.InMemoryInitializer.LazyHolder" style="stroke: #A80036; stroke-width: 1.5;" width="209" x="1904.5" y="479.37"/><ellipse cx="1919.5" cy="495.37" fill="#ADD1B2" rx="11" ry="11" style="stroke: #A80036; stroke-width: 1.0;"/><path d="M1921.9731,501.5131 Q1921.3921,501.8119 1920.7529,501.9613 Q1920.1138,502.1107 1919.4082,502.1107 Q1916.9014,502.1107 1915.5815,500.4589 Q1914.2617,498.807 1914.2617,495.6859 Q1914.2617,492.5565 1915.5815,490.9047 Q1916.9014,489.2528 1919.4082,489.2528 Q1920.1138,489.2528 1920.7612,489.4022 Q1921.4087,489.5516 1921.9731,489.8505 L1921.9731,492.5731 Q1921.3423,491.9921 1920.7488,491.7223 Q1920.1553,491.4525 1919.5244,491.4525 Q1918.1797,491.4525 1917.4949,492.5192 Q1916.8101,493.5858 1916.8101,495.6859 Q1916.8101,497.7777 1917.4949,498.8444 Q1918.1797,499.911 1919.5244,499.911 Q1920.1553,499.911 1920.7488,499.6412 Q1921.3423,499.3715 1921.9731,498.7904 Z "/><text fill="#000000" font-family="sans-serif" font-size="12" lengthAdjust="spacingAndGlyphs" textLength="177" x="1933.5" y="499.9052">InMemoryInitializer.LazyHolder</text><line style="stroke: #A80036; stroke-width: 1.5;" x1="1905.5" x2="2112.5" y1="511.37" y2="511.37"/><line style="stroke: #A80036; stroke-width: 1.5;" x1="1905.5" x2="2112.5" y1="519.37" y2="519.37"/></a><!--MD5=[e33e9c8a8faf20b8072deee35366ebac]
class eapli.framework.infrastructure.repositories.impl.inmemory.InMemoryDomainRepository--><rect codeLine="41" fill="#FEFECE" filter="url(#fwyxev7p18o7s)" height="48" id="eapli.framework.infrastructure.repositories.impl.inmemory.InMemoryDomainRepository" style="stroke: #A80036; stroke-width: 1.5;" width="674" x="32" y="86.34"/><ellipse cx="47" cy="102.34" fill="#ADD1B2" rx="11" ry="11" style="stroke: #A80036; stroke-width: 1.0;"/><path d="M49.4731,108.4831 Q48.8921,108.7819 48.2529,108.9313 Q47.6138,109.0807 46.9082,109.0807 Q44.4014,109.0807 43.0815,107.4289 Q41.7617,105.777 41.7617,102.6559 Q41.7617,99.5265 43.0815,97.8747 Q44.4014,96.2228 46.9082,96.2228 Q47.6138,96.2228 48.2612,96.3722 Q48.9087,96.5216 49.4731,96.8205 L49.4731,99.5431 Q48.8423,98.9621 48.2488,98.6923 Q47.6553,98.4225 47.0244,98.4225 Q45.6797,98.4225 44.9949,99.4892 Q44.3101,100.5558 44.3101,102.6559 Q44.3101,104.7477 44.9949,105.8144 Q45.6797,106.881 47.0244,106.881 Q47.6553,106.881 48.2488,106.6112 Q48.8423,106.3415 49.4731,105.7604 Z "/><text fill="#000000" font-family="sans-serif" font-size="12" lengthAdjust="spacingAndGlyphs" textLength="161" x="61" y="106.8752">InMemoryDomainRepository</text><rect fill="#FFFFFF" height="16.1328" style="stroke: #000000; stroke-width: 1.0; stroke-dasharray: 2.0,2.0;" width="479" x="230" y="83.34"/><text fill="#000000" font-family="sans-serif" font-size="12" font-style="italic" lengthAdjust="spacingAndGlyphs" textLength="477" x="231" y="95.9416">T extends AggregateRoot&lt;I extends Comparable&lt;​I&gt;&gt;, I extends Comparable&lt;​I&gt;</text><line style="stroke: #A80036; stroke-width: 1.5;" x1="33" x2="705" y1="118.34" y2="118.34"/><line style="stroke: #A80036; stroke-width: 1.5;" x1="33" x2="705" y1="126.34" y2="126.34"/><!--MD5=[794edea7655e05ac69c4241c1c73c240]
class eapli.exemplo.utentemanagement.repositories.UtenteRepository--><rect codeLine="45" fill="#FEFECE" filter="url(#fwyxev7p18o7s)" height="86.8652" id="eapli.exemplo.utentemanagement.repositories.UtenteRepository" style="stroke: #A80036; stroke-width: 1.5;" width="422" x="762" y="66.91"/><ellipse cx="919.75" cy="82.91" fill="#B4A7E5" rx="11" ry="11" style="stroke: #A80036; stroke-width: 1.0;"/><path d="M916.1777,79.1751 L916.1777,77.0169 L923.5571,77.0169 L923.5571,79.1751 L921.0918,79.1751 L921.0918,87.2518 L923.5571,87.2518 L923.5571,89.41 L916.1777,89.41 L916.1777,87.2518 L918.6431,87.2518 L918.6431,79.1751 Z "/><text fill="#000000" font-family="sans-serif" font-size="12" font-style="italic" lengthAdjust="spacingAndGlyphs" textLength="98" x="940.25" y="87.4452">UtenteRepository</text><line style="stroke: #A80036; stroke-width: 1.5;" x1="763" x2="1183" y1="98.91" y2="98.91"/><line style="stroke: #A80036; stroke-width: 1.5;" x1="763" x2="1183" y1="106.91" y2="106.91"/><ellipse cx="773" cy="117.91" fill="#84BE84" rx="3" ry="3" style="stroke: #038048; stroke-width: 1.0;"/><text fill="#000000" font-family="sans-serif" font-size="11" font-style="italic" lengthAdjust="spacingAndGlyphs" textLength="254" x="782" y="121.5448">findByUsername(Username): Optional&lt;Utente&gt;</text><ellipse cx="773" cy="130.8651" fill="#84BE84" rx="3" ry="3" style="stroke: #038048; stroke-width: 1.0;"/><text fill="#000000" font-family="sans-serif" font-size="11" lengthAdjust="spacingAndGlyphs" textLength="396" x="782" y="134.4998">findByMecanographicNumber(MecanographicNumber): Optional&lt;Utente&gt;</text><ellipse cx="773" cy="143.8202" fill="#84BE84" rx="3" ry="3" style="stroke: #038048; stroke-width: 1.0;"/><text fill="#000000" font-family="sans-serif" font-size="11" font-style="italic" lengthAdjust="spacingAndGlyphs" textLength="175" x="782" y="147.4549">findAllActive(): Iterable&lt;Utente&gt;</text><!--MD5=[396b46c1d4a3c126976427064cf287a0]
class eapli.exemplo.utentemanagement.repositories.SignupRequestRepository--><rect codeLine="50" fill="#FEFECE" filter="url(#fwyxev7p18o7s)" height="60.9551" id="eapli.exemplo.utentemanagement.repositories.SignupRequestRepository" style="stroke: #A80036; stroke-width: 1.5;" width="308" x="1219" y="79.86"/><ellipse cx="1295.75" cy="95.86" fill="#B4A7E5" rx="11" ry="11" style="stroke: #A80036; stroke-width: 1.0;"/><path d="M1292.1777,92.1251 L1292.1777,89.9669 L1299.5571,89.9669 L1299.5571,92.1251 L1297.0918,92.1251 L1297.0918,100.2018 L1299.5571,100.2018 L1299.5571,102.36 L1292.1777,102.36 L1292.1777,100.2018 L1294.6431,100.2018 L1294.6431,92.1251 Z "/><text fill="#000000" font-family="sans-serif" font-size="12" font-style="italic" lengthAdjust="spacingAndGlyphs" textLength="146" x="1316.25" y="100.3952">SignupRequestRepository</text><line style="stroke: #A80036; stroke-width: 1.5;" x1="1220" x2="1526" y1="111.86" y2="111.86"/><line style="stroke: #A80036; stroke-width: 1.5;" x1="1220" x2="1526" y1="119.86" y2="119.86"/><ellipse cx="1230" cy="130.86" fill="#84BE84" rx="3" ry="3" style="stroke: #038048; stroke-width: 1.0;"/><text fill="#000000" font-family="sans-serif" font-size="11" font-style="italic" lengthAdjust="spacingAndGlyphs" textLength="282" x="1239" y="134.4948">pendingSignupRequests(): Iterable&lt;SignupRequest&gt;</text><!--MD5=[26465f502c9cbd15a915dfe67afb0530]
class eapli.exemplo.infrastructure.persistence.RepositoryFactory--><rect codeLine="56" fill="#FEFECE" filter="url(#fwyxev7p18o7s)" height="138.6855" id="eapli.exemplo.infrastructure.persistence.RepositoryFactory" style="stroke: #A80036; stroke-width: 1.5;" width="380" x="1583" y="41"/><ellipse cx="1717.75" cy="57" fill="#B4A7E5" rx="11" ry="11" style="stroke: #A80036; stroke-width: 1.0;"/><path d="M1714.1777,53.2651 L1714.1777,51.1069 L1721.5571,51.1069 L1721.5571,53.2651 L1719.0918,53.2651 L1719.0918,61.3418 L1721.5571,61.3418 L1721.5571,63.5 L1714.1777,63.5 L1714.1777,61.3418 L1716.6431,61.3418 L1716.6431,53.2651 Z "/><text fill="#000000" font-family="sans-serif" font-size="12" font-style="italic" lengthAdjust="spacingAndGlyphs" textLength="102" x="1738.25" y="61.5352">RepositoryFactory</text><line style="stroke: #A80036; stroke-width: 1.5;" x1="1584" x2="1962" y1="73" y2="73"/><line style="stroke: #A80036; stroke-width: 1.5;" x1="1584" x2="1962" y1="81" y2="81"/><ellipse cx="1594" cy="92" fill="#84BE84" rx="3" ry="3" style="stroke: #038048; stroke-width: 1.0;"/><text fill="#000000" font-family="sans-serif" font-size="11" font-style="italic" lengthAdjust="spacingAndGlyphs" textLength="267" x="1603" y="95.6348">newTransactionalContext(): TransactionalContext</text><ellipse cx="1594" cy="104.9551" fill="#84BE84" rx="3" ry="3" style="stroke: #038048; stroke-width: 1.0;"/><text fill="#000000" font-family="sans-serif" font-size="11" font-style="italic" lengthAdjust="spacingAndGlyphs" textLength="243" x="1603" y="108.5898">users(TransactionalContext): UserRepository</text><ellipse cx="1594" cy="117.9102" fill="#84BE84" rx="3" ry="3" style="stroke: #038048; stroke-width: 1.0;"/><text fill="#000000" font-family="sans-serif" font-size="11" font-style="italic" lengthAdjust="spacingAndGlyphs" textLength="127" x="1603" y="121.5449">users(): UserRepository</text><ellipse cx="1594" cy="130.8652" fill="#84BE84" rx="3" ry="3" style="stroke: #038048; stroke-width: 1.0;"/><text fill="#000000" font-family="sans-serif" font-size="11" font-style="italic" lengthAdjust="spacingAndGlyphs" textLength="263" x="1603" y="134.5">utentes(TransactionalContext): UtenteRepository</text><ellipse cx="1594" cy="143.8203" fill="#84BE84" rx="3" ry="3" style="stroke: #038048; stroke-width: 1.0;"/><text fill="#000000" font-family="sans-serif" font-size="11" font-style="italic" lengthAdjust="spacingAndGlyphs" textLength="147" x="1603" y="147.4551">utentes(): UtenteRepository</text><ellipse cx="1594" cy="156.7754" fill="#84BE84" rx="3" ry="3" style="stroke: #038048; stroke-width: 1.0;"/><text fill="#000000" font-family="sans-serif" font-size="11" font-style="italic" lengthAdjust="spacingAndGlyphs" textLength="354" x="1603" y="160.4102">signupRequests(TransactionalContext): SignupRequestRepository</text><ellipse cx="1594" cy="169.7305" fill="#84BE84" rx="3" ry="3" style="stroke: #038048; stroke-width: 1.0;"/><text fill="#000000" font-family="sans-serif" font-size="11" font-style="italic" lengthAdjust="spacingAndGlyphs" textLength="238" x="1603" y="173.3652">signupRequests(): SignupRequestRepository</text><!--MD5=[c7f574505c5bdf8a1bb7fd031941fb1d]
reverse link eapli.framework.infrastructure.repositories.impl.inmemory.InMemoryDomainRepository to eapli.exemplo.persistence.impl.inmemory.InMemoryUtenteRepository--><path codeLine="31" d="M452.58,142.1 C507.3,162.23 580.38,189.07 645,212.68 C714.58,238.12 792.5,266.47 854.93,289.16 " fill="none" id="eapli.framework.infrastructure.repositories.impl.inmemory.InMemoryDomainRepository-backto-eapli.exemplo.persistence.impl.inmemory.InMemoryUtenteRepository" style="stroke: #A80036; stroke-width: 1.0;"/><polygon fill="none" points="450.34,148.74,433.98,135.26,455.17,135.6,450.34,148.74" style="stroke: #A80036; stroke-width: 1.0;"/><!--MD5=[646299bf36d2e7531f5dced87a4d285b]
reverse link eapli.exemplo.utentemanagement.repositories.UtenteRepository to eapli.exemplo.persistence.impl.inmemory.InMemoryUtenteRepository--><path codeLine="32" d="M973,175.43 C973,212.06 973,257.01 973,289.33 " fill="none" id="eapli.exemplo.utentemanagement.repositories.UtenteRepository-backto-eapli.exemplo.persistence.impl.inmemory.InMemoryUtenteRepository" style="stroke: #A80036; stroke-width: 1.0; stroke-dasharray: 7.0,7.0;"/><polygon fill="none" points="966,175.67,973,155.67,980,175.67,966,175.67" style="stroke: #A80036; stroke-width: 1.0;"/><!--MD5=[d6e05d7d0e811875ef5b234540f0f722]
reverse link eapli.exemplo.infrastructure.persistence.RepositoryFactory to eapli.exemplo.persistence.impl.inmemory.InMemoryRepositoryFactory--><path codeLine="33" d="M1764.46,201.13 C1762.48,221.93 1760.4,243.74 1758.53,263.45 " fill="none" id="eapli.exemplo.infrastructure.persistence.RepositoryFactory-backto-eapli.exemplo.persistence.impl.inmemory.InMemoryRepositoryFactory" style="stroke: #A80036; stroke-width: 1.0; stroke-dasharray: 7.0,7.0;"/><polygon fill="none" points="1757.46,200.71,1766.33,181.46,1771.4,202.04,1757.46,200.71" style="stroke: #A80036; stroke-width: 1.0;"/><!--MD5=[d6762e027b098ab4f13100fb5cfce6d9]
reverse link eapli.framework.infrastructure.repositories.impl.inmemory.InMemoryDomainRepository to eapli.exemplo.persistence.impl.inmemory.InMemorySignupRequestRepository--><path codeLine="34" d="M465.42,140.7 C540.97,162.3 649.16,190.16 746,203.68 C846.21,217.68 1104.52,190.21 1201,220.68 C1254.08,237.45 1306.55,275.33 1339.31,302.24 " fill="none" id="eapli.framework.infrastructure.repositories.impl.inmemory.InMemoryDomainRepository-backto-eapli.exemplo.persistence.impl.inmemory.InMemorySignupRequestRepository" style="stroke: #A80036; stroke-width: 1.0;"/><polygon fill="none" points="463.73,147.5,446.47,135.21,467.62,134.05,463.73,147.5" style="stroke: #A80036; stroke-width: 1.0;"/><!--MD5=[61e1384c9d932eb6b8ece168a0b50da9]
reverse link eapli.exemplo.utentemanagement.repositories.SignupRequestRepository to eapli.exemplo.persistence.impl.inmemory.InMemorySignupRequestRepository--><path codeLine="35" d="M1373,162.57 C1373,205.96 1373,266.64 1373,302.38 " fill="none" id="eapli.exemplo.utentemanagement.repositories.SignupRequestRepository-backto-eapli.exemplo.persistence.impl.inmemory.InMemorySignupRequestRepository" style="stroke: #A80036; stroke-width: 1.0; stroke-dasharray: 7.0,7.0;"/><polygon fill="none" points="1366,162.62,1373,142.62,1380,162.62,1366,162.62" style="stroke: #A80036; stroke-width: 1.0;"/><!--MD5=[01c7eb223b972701354b449eb499ed5c]
reverse link eapli.exemplo.persistence.impl.inmemory.InMemoryInitializer to eapli.exemplo.persistence.impl.inmemory.InMemoryInitializer.LazyHolder--><path codeLine="36" d="M2023.09,392.17 C2018.64,405.19 2014.59,419.09 2012,432.37 C2009,447.77 2008.26,465.43 2008.27,479.15 " fill="none" id="eapli.exemplo.persistence.impl.inmemory.InMemoryInitializer-backto-eapli.exemplo.persistence.impl.inmemory.InMemoryInitializer.LazyHolder" style="stroke: #A80036; stroke-width: 1.0;"/><ellipse cx="2025.4013" cy="385.7639" fill="#FFFFFF" rx="8" ry="8" style="stroke: #A80036; stroke-width: 1.0;"/><line style="stroke: #A80036; stroke-width: 1.0;" x1="2022.6827" x2="2028.12" y1="393.2878" y2="378.24"/><line style="stroke: #A80036; stroke-width: 1.0;" x1="2017.8775" x2="2032.9252" y1="383.0452" y2="388.4825"/><!--MD5=[8f9363c0cd01eacca7d1a254bd210580]
link eapli.exemplo.persistence.impl.inmemory.InMemoryInitializer.LazyHolder to eapli.exemplo.persistence.impl.inmemory.InMemoryInitializer--><path codeLine="37" d="M2014.22,479.23 C2019.79,454.58 2028.76,414.84 2035.91,383.16 " fill="none" id="eapli.exemplo.persistence.impl.inmemory.InMemoryInitializer.LazyHolder-to-eapli.exemplo.persistence.impl.inmemory.InMemoryInitializer" style="stroke: #A80036; stroke-width: 1.0;"/><polygon fill="#A80036" points="2036.98,378.42,2031.1009,386.3216,2035.8818,383.2979,2038.9055,388.0788,2036.98,378.42" style="stroke: #A80036; stroke-width: 1.0;"/><text fill="#000000" font-family="sans-serif" font-size="13" lengthAdjust="spacingAndGlyphs" textLength="64" x="2025.6" y="445.9384">INSTANCE</text><text fill="#888888" font-family="sans-serif" font-size="10" lengthAdjust="spacingAndGlyphs" textLength="188" x="974.5" y="559.038">UMLDoclet 2.0.12, PlantUML 1.2020.16</text><!--MD5=[d33bb017ac3f02161c910df01e4af53e]
@startuml
    namespace eapli.exemplo.persistence.impl.inmemory {

        class InMemoryUtenteRepository [[InMemoryUtenteRepository.html]] {
            +findByUsername(Username): Optional<Utente>
            +findByMecanographicNumber(MecanographicNumber): Optional<Utente>
            +findAllActive(): Iterable<Utente>
        }

        class InMemoryRepositoryFactory [[InMemoryRepositoryFactory.html]] {
            +users(TransactionalContext): UserRepository
            +users(): UserRepository
            +utentes(TransactionalContext): UtenteRepository
            +utentes(): UtenteRepository
            +signupRequests(): SignupRequestRepository
            +signupRequests(TransactionalContext): SignupRequestRepository
            +newTransactionalContext(): TransactionalContext
        }

        class InMemorySignupRequestRepository [[InMemorySignupRequestRepository.html]] {
            +pendingSignupRequests(): Iterable<SignupRequest>
        }

        class InMemoryInitializer [[InMemoryInitializer.html]] {
            -initialized: boolean
            -initialize(): void
            {static} +init(): void
        }

        class eapli.exemplo.persistence.impl.inmemory.InMemoryInitializer.LazyHolder [[InMemoryInitializer.LazyHolder.html]]

        eapli.framework.infrastructure.repositories.impl.inmemory.InMemoryDomainRepository <|- - InMemoryUtenteRepository
        eapli.exemplo.utentemanagement.repositories.UtenteRepository <|.. InMemoryUtenteRepository
        eapli.exemplo.infrastructure.persistence.RepositoryFactory <|.. InMemoryRepositoryFactory
        eapli.framework.infrastructure.repositories.impl.inmemory.InMemoryDomainRepository <|- - InMemorySignupRequestRepository
        eapli.exemplo.utentemanagement.repositories.SignupRequestRepository <|.. InMemorySignupRequestRepository
        InMemoryInitializer +- - eapli.exemplo.persistence.impl.inmemory.InMemoryInitializer.LazyHolder
        eapli.exemplo.persistence.impl.inmemory.InMemoryInitializer.LazyHolder - -> InMemoryInitializer: INSTANCE
    }

    namespace eapli.framework.infrastructure.repositories.impl.inmemory {
        class InMemoryDomainRepository<T extends AggregateRoot<I extends Comparable<​I>>, I extends Comparable<​I>>
    }

    namespace eapli.exemplo.utentemanagement.repositories {
        interface UtenteRepository {
            {abstract} +findByUsername(Username): Optional<Utente>
            +findByMecanographicNumber(MecanographicNumber): Optional<Utente>
            {abstract} +findAllActive(): Iterable<Utente>
        }
        interface SignupRequestRepository {
            {abstract} +pendingSignupRequests(): Iterable<SignupRequest>
        }
    }

    namespace eapli.exemplo.infrastructure.persistence {
        interface RepositoryFactory {
            {abstract} +newTransactionalContext(): TransactionalContext
            {abstract} +users(TransactionalContext): UserRepository
            {abstract} +users(): UserRepository
            {abstract} +utentes(TransactionalContext): UtenteRepository
            {abstract} +utentes(): UtenteRepository
            {abstract} +signupRequests(TransactionalContext): SignupRequestRepository
            {abstract} +signupRequests(): SignupRequestRepository
        }
    }

    center footer UMLDoclet 2.0.12, PlantUML 1.2020.16
@enduml

PlantUML version 1.2020.16(Sun Aug 23 21:20:43 WEST 2020)
(APACHE source distribution)
Java Runtime: OpenJDK Runtime Environment
JVM: OpenJDK 64-Bit Server VM
Default Encoding: UTF-8
Language: en
Country: US
--></g></svg>