<svg xmlns="http://www.w3.org/2000/svg" xmlns:xlink="http://www.w3.org/1999/xlink" contentStyleType="text/css" height="801px" preserveAspectRatio="none" style="width:432px;height:801px;background:#FFFFFF;" version="1.1" viewBox="0 0 432 801" width="432px" zoomAndPan="magnify"><title>US090 &#8212; Component Diagram (Deployment View)</title><defs/><g><text fill="#000000" font-family="Arial" font-size="14" font-weight="bold" lengthAdjust="spacing" textLength="331.3926" x="43.3037" y="23.1318">US090 &#8212; Component Diagram (Deployment View)</text><!--cluster cloud1--><g id="cluster_cloud1"><polygon fill="none" points="16,53.0986,26,43.0986,415,43.0986,415,285.0986,405,295.0986,16,295.0986,16,53.0986" style="stroke:#181818;stroke-width:1.0;"/><line style="stroke:#181818;stroke-width:1.0;" x1="405" x2="415" y1="53.0986" y2="43.0986"/><line style="stroke:#181818;stroke-width:1.0;" x1="16" x2="405" y1="53.0986" y2="53.0986"/><line style="stroke:#181818;stroke-width:1.0;" x1="405" x2="405" y1="53.0986" y2="295.0986"/><text fill="#000000" font-family="Arial" font-size="12" font-weight="bold" lengthAdjust="spacing" textLength="67.3242" x="177.8379" y="67.3545">Cloud Node</text><text fill="#000000" font-family="Arial" font-size="12" font-weight="bold" lengthAdjust="spacing" textLength="96" x="163.5" y="81.1533">Main Application</text></g><!--cluster tcpSrv--><g id="cluster_tcpSrv"><path d="M42.5,102.0986 L108.1992,102.0986 A3.75,3.75 0 0 1 110.6992,104.5986 L117.6992,121.8975 L388.5,121.8975 A2.5,2.5 0 0 1 391,124.3975 L391,181.5986 A2.5,2.5 0 0 1 388.5,184.0986 L42.5,184.0986 A2.5,2.5 0 0 1 40,181.5986 L40,104.5986 A2.5,2.5 0 0 1 42.5,102.0986 " fill="none" style="stroke:#000000;stroke-width:1.5;"/><line style="stroke:#000000;stroke-width:1.5;" x1="40" x2="117.6992" y1="121.8975" y2="121.8975"/><text fill="#000000" font-family="Arial" font-size="12" font-weight="bold" lengthAdjust="spacing" textLength="64.6992" x="44" y="115.3545">TCP Server</text></g><!--cluster logNode--><g id="cluster_logNode"><polygon fill="none" points="202,352.0986,212,342.0986,392,342.0986,392,774.0986,382,784.0986,202,784.0986,202,352.0986" style="stroke:#181818;stroke-width:1.0;"/><line style="stroke:#181818;stroke-width:1.0;" x1="382" x2="392" y1="352.0986" y2="342.0986"/><line style="stroke:#181818;stroke-width:1.0;" x1="202" x2="382" y1="352.0986" y2="352.0986"/><line style="stroke:#181818;stroke-width:1.0;" x1="382" x2="382" y1="352.0986" y2="784.0986"/><text fill="#000000" font-family="Arial" font-size="12" font-weight="bold" lengthAdjust="spacing" textLength="67.3242" x="259.3379" y="366.3545">Cloud Node</text><text fill="#000000" font-family="Arial" font-size="12" font-weight="bold" lengthAdjust="spacing" textLength="89.3789" x="248.3105" y="380.1533">Remote Access</text><text fill="#000000" font-family="Arial" font-size="12" font-weight="bold" lengthAdjust="spacing" textLength="88.0137" x="248.9932" y="393.9521">Logging Server</text></g><!--cluster udpSrv--><g id="cluster_udpSrv"><path d="M228.5,415.0986 L295.5352,415.0986 A3.75,3.75 0 0 1 298.0352,417.5986 L305.0352,434.8975 L365.5,434.8975 A2.5,2.5 0 0 1 368,437.3975 L368,494.5986 A2.5,2.5 0 0 1 365.5,497.0986 L228.5,497.0986 A2.5,2.5 0 0 1 226,494.5986 L226,417.5986 A2.5,2.5 0 0 1 228.5,415.0986 " fill="none" style="stroke:#000000;stroke-width:1.5;"/><line style="stroke:#000000;stroke-width:1.5;" x1="226" x2="305.0352" y1="434.8975" y2="434.8975"/><text fill="#000000" font-family="Arial" font-size="12" font-weight="bold" lengthAdjust="spacing" textLength="66.0352" x="230" y="428.3545">UDP Server</text></g><!--cluster httpSrv--><g id="cluster_httpSrv"><path d="M229.5,678.0986 L302.5293,678.0986 A3.75,3.75 0 0 1 305.0293,680.5986 L312.0293,697.8975 L354.5,697.8975 A2.5,2.5 0 0 1 357,700.3975 L357,757.5986 A2.5,2.5 0 0 1 354.5,760.0986 L229.5,760.0986 A2.5,2.5 0 0 1 227,757.5986 L227,680.5986 A2.5,2.5 0 0 1 229.5,678.0986 " fill="none" style="stroke:#000000;stroke-width:1.5;"/><line style="stroke:#000000;stroke-width:1.5;" x1="227" x2="312.0293" y1="697.8975" y2="697.8975"/><text fill="#000000" font-family="Arial" font-size="12" font-weight="bold" lengthAdjust="spacing" textLength="72.0293" x="231" y="691.3545">HTTP Server</text></g><!--cluster ws--><g id="cluster_ws"><polygon fill="none" points="18,540.0986,28,530.0986,178,530.0986,178,621.0986,168,631.0986,18,631.0986,18,540.0986" style="stroke:#181818;stroke-width:1.0;"/><line style="stroke:#181818;stroke-width:1.0;" x1="168" x2="178" y1="540.0986" y2="530.0986"/><line style="stroke:#181818;stroke-width:1.0;" x1="18" x2="168" y1="540.0986" y2="540.0986"/><line style="stroke:#181818;stroke-width:1.0;" x1="168" x2="168" y1="540.0986" y2="631.0986"/><text fill="#000000" font-family="Arial" font-size="12" font-weight="bold" lengthAdjust="spacing" textLength="69.334" x="59.333" y="554.3545">Workstation</text><text fill="#000000" font-family="Arial" font-size="12" font-weight="bold" lengthAdjust="spacing" textLength="84.6738" x="51.6631" y="568.1533">(Web Browser)</text></g><!--entity UdpAccessLogger--><g id="elem_UdpAccessLogger"><rect fill="#F1F1F1" height="33.7988" rx="2.5" ry="2.5" style="stroke:#181818;stroke-width:0.5;" width="118.0566" x="238" y="245.0986"/><text fill="#000000" font-family="Arial" font-size="12" lengthAdjust="spacing" textLength="98.0566" x="248" y="266.3545">UdpAccessLogger</text></g><!--entity AbstractClientHandler--><g id="elem_AbstractClientHandler"><rect fill="#F1F1F1" height="33.7988" rx="2.5" ry="2.5" style="stroke:#181818;stroke-width:0.5;" width="136.7188" x="237.5" y="134.0986"/><text fill="#000000" font-family="Arial" font-size="12" lengthAdjust="spacing" textLength="116.7188" x="247.5" y="155.3545">AbstractClientHandler</text></g><g id="elem_US44 / US78 / US86"><ellipse cx="129.1035" cy="151.1193" fill="#F1F1F1" rx="73.1035" ry="17.0207" style="stroke:#181818;stroke-width:0.5;"/><text fill="#000000" font-family="Arial" font-size="12" lengthAdjust="spacing" textLength="110.0566" x="74.0752" y="153.4758">US44 / US78 / US86</text></g><!--entity LogStore--><g id="elem_LogStore"><rect fill="#F1F1F1" height="33.7988" rx="2.5" ry="2.5" style="stroke:#181818;stroke-width:0.5;" width="68.7031" x="261.5" y="581.0986"/><text fill="#000000" font-family="Arial" font-size="12" lengthAdjust="spacing" textLength="48.7031" x="271.5" y="602.3545">LogStore</text></g><!--entity UdpLogReceiver--><g id="elem_UdpLogReceiver"><rect fill="#F1F1F1" height="33.7988" rx="2.5" ry="2.5" style="stroke:#181818;stroke-width:0.5;" width="109.3848" x="242.5" y="447.0986"/><text fill="#000000" font-family="Arial" font-size="12" lengthAdjust="spacing" textLength="89.3848" x="252.5" y="468.3545">UdpLogReceiver</text></g><!--entity HttpLogServer--><g id="elem_HttpLogServer"><rect fill="#F1F1F1" height="33.7988" rx="2.5" ry="2.5" style="stroke:#181818;stroke-width:0.5;" width="97.373" x="243.5" y="710.0986"/><text fill="#000000" font-family="Arial" font-size="12" lengthAdjust="spacing" textLength="77.373" x="253.5" y="731.3545">HttpLogServer</text></g><!--entity Browser--><g id="elem_Browser"><rect fill="#F1F1F1" height="33.7988" rx="2.5" ry="2.5" style="stroke:#181818;stroke-width:0.5;" width="64.0098" x="98" y="581.0986"/><text fill="#000000" font-family="Arial" font-size="12" lengthAdjust="spacing" textLength="44.0098" x="108" y="602.3545">Browser</text></g><!--link AbstractClientHandler to UdpAccessLogger--><g id="link_AbstractClientHandler_UdpAccessLogger"><path d="M304.67,168.1786 C302.97,188.7886 300.5354,218.3291 298.8254,238.9691 " fill="none" id="AbstractClientHandler-to-UdpAccessLogger" style="stroke:#181818;stroke-width:1.0;"/><polygon fill="#181818" points="298.33,244.9486,303.0594,236.3096,298.7428,239.9657,295.0868,235.6491,298.33,244.9486" style="stroke:#181818;stroke-width:1.0;"/><text fill="#000000" font-family="Arial" font-size="12" lengthAdjust="spacing" textLength="100.0723" x="302" y="212.3545">login/logout events</text></g><!--link UdpLogReceiver to LogStore--><g id="link_UdpLogReceiver_LogStore"><path d="M296.88,481.2886 C296.69,506.6186 296.3672,549.3688 296.1672,574.7788 " fill="none" id="UdpLogReceiver-to-LogStore" style="stroke:#181818;stroke-width:1.0;"/><polygon fill="#181818" points="296.12,580.7786,300.1907,571.8104,296.1594,575.7788,292.191,571.7474,296.12,580.7786" style="stroke:#181818;stroke-width:1.0;"/></g><!--link LogStore to HttpLogServer--><g id="link_LogStore_HttpLogServer"><path d="M295.49,615.1786 C294.73,639.4786 293.4789,679.2916 292.7089,703.7416 " fill="none" id="LogStore-to-HttpLogServer" style="stroke:#181818;stroke-width:1.0;"/><polygon fill="#181818" points="292.52,709.7386,296.8013,700.869,292.6774,704.7411,288.8053,700.6172,292.52,709.7386" style="stroke:#181818;stroke-width:1.0;"/></g><!--link UdpAccessLogger to UdpLogReceiver--><g id="link_UdpAccessLogger_UdpLogReceiver"><path d="M297,279.1286 C297,316.5786 297,403.4686 297,440.9886 " fill="none" id="UdpAccessLogger-to-UdpLogReceiver" style="stroke:#181818;stroke-width:1.0;"/><polygon fill="#181818" points="297,446.9886,301,437.9886,297,441.9886,293,437.9886,297,446.9886" style="stroke:#181818;stroke-width:1.0;"/><text fill="#000000" font-family="Arial" font-size="12" lengthAdjust="spacing" textLength="87.3691" x="298" y="323.3545">UDP (port 9090)</text></g><!--link Browser to HttpLogServer--><g id="link_Browser_HttpLogServer"><path d="M116.22,615.2386 C106.51,628.6886 96.87,647.8686 107,662.0986 C137.76,705.2786 193.7629,718.9708 237.4829,723.5708 " fill="none" id="Browser-to-HttpLogServer" style="stroke:#181818;stroke-width:1.0;"/><polygon fill="#181818" points="243.45,724.1986,234.918,719.2789,238.4774,723.6754,234.0809,727.2349,243.45,724.1986" style="stroke:#181818;stroke-width:1.0;"/><text fill="#000000" font-family="Arial" font-size="12" lengthAdjust="spacing" textLength="93.3633" x="108" y="659.3545">HTTP (port 8080)</text></g><!--SRC=[RLBBJkD04BpxArgSuWCYh10RSa0AYL0EW5OuWKEImp1klAECPqOpdKJi2ecFu0lv4decYTREvk1NLtMvgcnIf16cHVUg2ryVdp2qjRC63S58YSgB6ZeZTDg-rN7sf72JPrbOAkD414jy5IjDjzRGWwWH1bu9VHmlr1-4ynyDKExVLT0Rc_0eIPXAOuDYR8c7Q1Q7S3BKTbN20z_FpRrG1WREQIK5AMjEG0IGaN0EVpC09-HILBmq6Vw20lqQVQAGT8LV9mh0RF0Io0j9GwtOr5YOKgDV9AmpBIuku8oB-jbBbzvbpi0x7xDfwGPIOWXtjggs2qULuFJq6Wx8q0TjAsNE-6nN1BXcViZUZuLynDeILvpMvoOAA5Crux18fBOZJqUjoAko6PdjiCuZIbJhhVKKYMS5MO-Bfj1uCcaf_IPgIetvCUubmbwfhPyQs6ipkhzDyzR-lmQUhLy6IbzrRZhF-08ttcu2-ZoPs8Jq_jbkk8YBXntlUcyQwKEifUEi9xZYVp_FTWB_Ms5kIhubzxgzRluD]--></g></svg>