<svg xmlns="http://www.w3.org/2000/svg" xmlns:xlink="http://www.w3.org/1999/xlink" contentStyleType="text/css" height="515px" preserveAspectRatio="none" style="width:797px;height:515px;background:#FFFFFF;" version="1.1" viewBox="0 0 797 515" width="797px" zoomAndPan="magnify"><title>US90 &#8212; Remote Access Logging (Logout / Disconnect Event)</title><defs/><g><text fill="#000000" font-family="Arial" font-size="14" font-weight="bold" lengthAdjust="spacing" textLength="409.9443" x="198.667" y="28.1318">US90 &#8212; Remote Access Logging (Logout / Disconnect Event)</text><rect fill="#FFFFFF" height="265.9883" style="stroke:#181818;stroke-width:1.0;" width="10" x="234.4082" y="139.6963"/><rect fill="#FFFFFF" height="117.1953" style="stroke:#181818;stroke-width:1.0;" width="10" x="456.1621" y="260.6904"/><rect fill="#FFFFFF" height="27.7988" style="stroke:#181818;stroke-width:1.0;" width="10" x="613.8828" y="322.2881"/><rect fill="none" height="87.1953" style="stroke:#000000;stroke-width:1.5;" width="324.7676" x="10" y="146.6963"/><line style="stroke:#181818;stroke-width:0.5;stroke-dasharray:5.0,5.0;" x1="82" x2="82" y1="129.6963" y2="423.6846"/><line style="stroke:#181818;stroke-width:0.5;stroke-dasharray:5.0,5.0;" x1="239.0488" x2="239.0488" y1="129.6963" y2="423.6846"/><line style="stroke:#181818;stroke-width:0.5;stroke-dasharray:5.0,5.0;" x1="461.1338" x2="461.1338" y1="129.6963" y2="423.6846"/><line style="stroke:#181818;stroke-width:0.5;stroke-dasharray:5.0,5.0;" x1="618.1904" x2="618.1904" y1="129.6963" y2="423.6846"/><line style="stroke:#181818;stroke-width:0.5;stroke-dasharray:5.0,5.0;" x1="751.5752" x2="751.5752" y1="129.6963" y2="423.6846"/><text fill="#000000" font-family="Arial" font-size="12" lengthAdjust="spacing" textLength="70.6875" x="43.6807" y="113.3545">Remote User</text><text fill="#000000" font-family="Arial" font-size="12" lengthAdjust="spacing" textLength="118.0488" x="20" y="127.1533">(US44 / US78 / US86)</text><ellipse cx="82.0244" cy="50.5986" fill="#E2E2F0" rx="8" ry="8" style="stroke:#181818;stroke-width:0.5;"/><path d="M82.0244,58.5986 L82.0244,85.5986 M69.0244,66.5986 L95.0244,66.5986 M82.0244,85.5986 L69.0244,100.5986 M82.0244,85.5986 L95.0244,100.5986 " fill="none" style="stroke:#181818;stroke-width:0.5;"/><text fill="#000000" font-family="Arial" font-size="12" lengthAdjust="spacing" textLength="70.6875" x="43.6807" y="433.9404">Remote User</text><text fill="#000000" font-family="Arial" font-size="12" lengthAdjust="spacing" textLength="118.0488" x="20" y="447.7393">(US44 / US78 / US86)</text><ellipse cx="82.0244" cy="458.7822" fill="#E2E2F0" rx="8" ry="8" style="stroke:#181818;stroke-width:0.5;"/><path d="M82.0244,466.7822 L82.0244,493.7822 M69.0244,474.7822 L95.0244,474.7822 M82.0244,493.7822 L69.0244,508.7822 M82.0244,493.7822 L95.0244,508.7822 " fill="none" style="stroke:#181818;stroke-width:0.5;"/><rect fill="#E2E2F0" height="27.7988" rx="2.5" ry="2.5" style="stroke:#181818;stroke-width:0.5;" width="130.7188" x="174.0488" y="100.8975"/><text fill="#000000" font-family="Arial" font-size="12" lengthAdjust="spacing" textLength="116.7188" x="181.0488" y="119.1533">AbstractClientHandler</text><rect fill="#E2E2F0" height="27.7988" rx="2.5" ry="2.5" style="stroke:#181818;stroke-width:0.5;" width="130.7188" x="174.0488" y="422.6846"/><text fill="#000000" font-family="Arial" font-size="12" lengthAdjust="spacing" textLength="116.7188" x="181.0488" y="440.9404">AbstractClientHandler</text><rect fill="#E2E2F0" height="27.7988" rx="2.5" ry="2.5" style="stroke:#181818;stroke-width:0.5;" width="112.0566" x="405.1338" y="100.8975"/><text fill="#000000" font-family="Arial" font-size="12" lengthAdjust="spacing" textLength="98.0566" x="412.1338" y="119.1533">UdpAccessLogger</text><rect fill="#E2E2F0" height="27.7988" rx="2.5" ry="2.5" style="stroke:#181818;stroke-width:0.5;" width="112.0566" x="405.1338" y="422.6846"/><text fill="#000000" font-family="Arial" font-size="12" lengthAdjust="spacing" textLength="98.0566" x="412.1338" y="440.9404">UdpAccessLogger</text><rect fill="#E2E2F0" height="27.7988" rx="2.5" ry="2.5" style="stroke:#181818;stroke-width:0.5;" width="103.3848" x="567.1904" y="100.8975"/><text fill="#000000" font-family="Arial" font-size="12" lengthAdjust="spacing" textLength="89.3848" x="574.1904" y="119.1533">UdpLogReceiver</text><rect fill="#E2E2F0" height="27.7988" rx="2.5" ry="2.5" style="stroke:#181818;stroke-width:0.5;" width="103.3848" x="567.1904" y="422.6846"/><text fill="#000000" font-family="Arial" font-size="12" lengthAdjust="spacing" textLength="89.3848" x="574.1904" y="440.9404">UdpLogReceiver</text><rect fill="#E2E2F0" height="27.7988" rx="2.5" ry="2.5" style="stroke:#181818;stroke-width:0.5;" width="62.7031" x="720.5752" y="100.8975"/><text fill="#000000" font-family="Arial" font-size="12" lengthAdjust="spacing" textLength="48.7031" x="727.5752" y="119.1533">LogStore</text><rect fill="#E2E2F0" height="27.7988" rx="2.5" ry="2.5" style="stroke:#181818;stroke-width:0.5;" width="62.7031" x="720.5752" y="422.6846"/><text fill="#000000" font-family="Arial" font-size="12" lengthAdjust="spacing" textLength="48.7031" x="727.5752" y="440.9404">LogStore</text><rect fill="#FFFFFF" height="265.9883" style="stroke:#181818;stroke-width:1.0;" width="10" x="234.4082" y="139.6963"/><rect fill="#FFFFFF" height="117.1953" style="stroke:#181818;stroke-width:1.0;" width="10" x="456.1621" y="260.6904"/><rect fill="#FFFFFF" height="27.7988" style="stroke:#181818;stroke-width:1.0;" width="10" x="613.8828" y="322.2881"/><path d="M10,146.6963 L69.0039,146.6963 L69.0039,152.4951 L59.0039,162.4951 L10,162.4951 L10,146.6963 " fill="#EEEEEE" style="stroke:#000000;stroke-width:1.5;"/><rect fill="none" height="87.1953" style="stroke:#000000;stroke-width:1.5;" width="324.7676" x="10" y="146.6963"/><text fill="#000000" font-family="Arial" font-size="12" font-weight="bold" lengthAdjust="spacing" textLength="14.0039" x="25" y="158.9521">alt</text><text fill="#000000" font-family="Arial" font-size="12" font-weight="bold" lengthAdjust="spacing" textLength="48.6387" x="84.0039" y="159.9521">[Logout]</text><polygon fill="#181818" points="222.4082,178.2939,232.4082,182.2939,222.4082,186.2939,226.4082,182.2939" style="stroke:#181818;stroke-width:1.0;"/><line style="stroke:#181818;stroke-width:1.0;" x1="82.0244" x2="228.4082" y1="182.2939" y2="182.2939"/><text fill="#000000" font-family="Arial" font-size="12" font-weight="bold" lengthAdjust="spacing" textLength="6.6738" x="138.5474" y="177.751">1</text><text fill="#000000" font-family="Arial" font-size="12" lengthAdjust="spacing" textLength="28.6641" x="149.2212" y="177.751">QUIT</text><line style="stroke:#000000;stroke-width:1.0;stroke-dasharray:2.0,2.0;" x1="10" x2="334.7676" y1="191.2939" y2="191.2939"/><text fill="#000000" font-family="Arial" font-size="12" font-weight="bold" lengthAdjust="spacing" textLength="72.6738" x="15" y="202.5498">[Disconnect]</text><line style="stroke:#181818;stroke-width:1.0;" x1="232.4082" x2="222.4082" y1="225.8916" y2="221.8916"/><line style="stroke:#181818;stroke-width:1.0;" x1="232.4082" x2="222.4082" y1="225.8916" y2="229.8916"/><line style="stroke:#181818;stroke-width:1.0;" x1="82.0244" x2="233.4082" y1="225.8916" y2="225.8916"/><text fill="#000000" font-family="Arial" font-size="12" font-weight="bold" lengthAdjust="spacing" textLength="6.6738" x="98.1792" y="221.3486">2</text><text fill="#000000" font-family="Arial" font-size="12" lengthAdjust="spacing" textLength="109.4004" x="108.853" y="221.3486">IOException on read</text><polygon fill="#181818" points="444.1621,256.6904,454.1621,260.6904,444.1621,264.6904,448.1621,260.6904" style="stroke:#181818;stroke-width:1.0;"/><line style="stroke:#181818;stroke-width:1.0;" x1="244.4082" x2="450.1621" y1="260.6904" y2="260.6904"/><text fill="#000000" font-family="Arial" font-size="12" font-weight="bold" lengthAdjust="spacing" textLength="6.6738" x="253.9082" y="256.1475">3</text><text fill="#000000" font-family="Arial" font-size="12" lengthAdjust="spacing" textLength="182.0801" x="264.582" y="256.1475">logout(username, ip, port, service)</text><path d="M471,273.6904 L471,296.6904 L790,296.6904 L790,283.6904 L780,273.6904 L471,273.6904 " fill="#FEFFDD" style="stroke:#181818;stroke-width:0.5;"/><path d="M780,273.6904 L780,283.6904 L790,283.6904 L780,273.6904 " fill="#FEFFDD" style="stroke:#181818;stroke-width:0.5;"/><text fill="#000000" font-family="Arial" font-size="12" lengthAdjust="spacing" textLength="298.1484" x="477" y="289.9463">payload: EVENT|epochMs|user|ip|port|service|LOGOUT</text><polygon fill="#181818" points="601.8828,318.2881,611.8828,322.2881,601.8828,326.2881,605.8828,322.2881" style="stroke:#181818;stroke-width:1.0;"/><line style="stroke:#181818;stroke-width:1.0;" x1="466.1621" x2="607.8828" y1="322.2881" y2="322.2881"/><text fill="#000000" font-family="Arial" font-size="12" font-weight="bold" lengthAdjust="spacing" textLength="6.6738" x="495.0029" y="317.7451">4</text><text fill="#000000" font-family="Arial" font-size="12" lengthAdjust="spacing" textLength="79.3652" x="505.6768" y="317.7451">UDP datagram</text><polygon fill="#181818" points="739.9268,346.0869,749.9268,350.0869,739.9268,354.0869,743.9268,350.0869" style="stroke:#181818;stroke-width:1.0;"/><line style="stroke:#181818;stroke-width:1.0;" x1="618.8828" x2="745.9268" y1="350.0869" y2="350.0869"/><text fill="#000000" font-family="Arial" font-size="12" font-weight="bold" lengthAdjust="spacing" textLength="6.6738" x="652.7222" y="345.5439">5</text><text fill="#000000" font-family="Arial" font-size="12" lengthAdjust="spacing" textLength="54.6914" x="663.396" y="345.5439">add(entry)</text><polygon fill="#181818" points="255.4082,373.8857,245.4082,377.8857,255.4082,381.8857,251.4082,377.8857" style="stroke:#181818;stroke-width:1.0;"/><line style="stroke:#181818;stroke-width:1.0;stroke-dasharray:2.0,2.0;" x1="249.4082" x2="460.1621" y1="377.8857" y2="377.8857"/><text fill="#000000" font-family="Arial" font-size="12" font-weight="bold" lengthAdjust="spacing" textLength="6.6738" x="345.7813" y="373.3428">6</text><text fill="#000000" font-family="Arial" font-size="12" lengthAdjust="spacing" textLength="3.334" x="356.4551" y="373.3428">&#160;</text><polygon fill="#181818" points="93.0244,401.6846,83.0244,405.6846,93.0244,409.6846,89.0244,405.6846" style="stroke:#181818;stroke-width:1.0;"/><line style="stroke:#181818;stroke-width:1.0;stroke-dasharray:2.0,2.0;" x1="87.0244" x2="238.4082" y1="405.6846" y2="405.6846"/><text fill="#000000" font-family="Arial" font-size="12" font-weight="bold" lengthAdjust="spacing" textLength="6.6738" x="143.3735" y="401.1416">7</text><text fill="#000000" font-family="Arial" font-size="12" lengthAdjust="spacing" textLength="24.0117" x="154.0474" y="401.1416">BYE</text><!--SRC=[RPB1Rjim38RlUWeYfmJ8iBOejYw70TdgRWNQ9glZ0GDwKINM4QP8cYG7Q-737c9Fk2SPRSkrWpOm4DhwIFxygQYYHYZo3qVmxyzVkCMTZGXB8J04kB9bgKm9Kmfi5U4jdAiWh34e8cHxD776MFYfZEEUxo3WhmgDm6lAvIKkjIeD2ABGZoY93xpIySAQUCDtrCihhby_pzKJml79w73DVLH2EMxYcalPY3ivOenNqPfgTq-D61VHUfYaIOg0_ivCY_pqbEGN-Vkpzk_itMm2F83GYlGnDvI5oV8-H4zLFhTdNxcH6drBRxlu42-aw-ngt4gWRiCN716tA53j4-RJoo58L4uZO8k49gAXT8Hk2Gperyc6DnzxIR20RyNbXg4EE5hI8JocBrVPRu4kAck07ezSCZIojK_jEJdN3zldKBDkBChMhPHfHUOQsk4Sb9k3ipxEwHBulH8u6mebCqop3g_ARGJxq7y4SFnHMouNa7tFRZOrEYksrw5kIjVArKtHEjMihrPVLiMcqGbDDSQI89BMMqdYYlCrI1vvIHTcKF7izJD9MQsxb49NQKeU-SSPa_WofMyp-3t6qYY3KOGbpnVmwKSsPXFp7m00]--></g></svg>