<svg xmlns="http://www.w3.org/2000/svg" xmlns:xlink="http://www.w3.org/1999/xlink" contentStyleType="text/css" height="639px" preserveAspectRatio="none" style="width:873px;height:639px;background:#FFFFFF;" version="1.1" viewBox="0 0 873 639" width="873px" zoomAndPan="magnify"><title>US90 &#8212; Remote Access Logging (Login Event)</title><defs/><g><text fill="#000000" font-family="Arial" font-size="14" font-weight="bold" lengthAdjust="spacing" textLength="313.4893" x="281.0952" y="28.1318">US90 &#8212; Remote Access Logging (Login Event)</text><rect fill="#FFFFFF" height="378.3848" style="stroke:#181818;stroke-width:1.0;" width="10" x="254.79" y="159.4951"/><rect fill="#FFFFFF" height="117.1953" style="stroke:#181818;stroke-width:1.0;" width="10" x="509.5635" y="228.0928"/><rect fill="#FFFFFF" height="55.5977" style="stroke:#181818;stroke-width:1.0;" width="10" x="509.5635" y="439.4834"/><rect fill="#FFFFFF" height="27.7988" style="stroke:#181818;stroke-width:1.0;" width="10" x="667.2842" y="289.6904"/><rect fill="#FFFFFF" height="27.7988" style="stroke:#181818;stroke-width:1.0;" width="10" x="667.2842" y="467.2822"/><rect fill="none" height="170.5918" style="stroke:#000000;stroke-width:1.5;" width="856.6797" x="10" y="360.2881"/><line style="stroke:#181818;stroke-width:0.5;stroke-dasharray:5.0,5.0;" x1="82" x2="82" y1="129.6963" y2="547.8799"/><line style="stroke:#181818;stroke-width:0.5;stroke-dasharray:5.0,5.0;" x1="259.4307" x2="259.4307" y1="129.6963" y2="547.8799"/><line style="stroke:#181818;stroke-width:0.5;stroke-dasharray:5.0,5.0;" x1="514.5352" x2="514.5352" y1="129.6963" y2="547.8799"/><line style="stroke:#181818;stroke-width:0.5;stroke-dasharray:5.0,5.0;" x1="671.5918" x2="671.5918" y1="129.6963" y2="547.8799"/><line style="stroke:#181818;stroke-width:0.5;stroke-dasharray:5.0,5.0;" x1="804.9766" x2="804.9766" y1="129.6963" y2="547.8799"/><text fill="#000000" font-family="Arial" font-size="12" lengthAdjust="spacing" textLength="70.6875" x="43.6807" y="113.3545">Remote User</text><text fill="#000000" font-family="Arial" font-size="12" lengthAdjust="spacing" textLength="118.0488" x="20" y="127.1533">(US44 / US78 / US86)</text><ellipse cx="82.0244" cy="50.5986" fill="#E2E2F0" rx="8" ry="8" style="stroke:#181818;stroke-width:0.5;"/><path d="M82.0244,58.5986 L82.0244,85.5986 M69.0244,66.5986 L95.0244,66.5986 M82.0244,85.5986 L69.0244,100.5986 M82.0244,85.5986 L95.0244,100.5986 " fill="none" style="stroke:#181818;stroke-width:0.5;"/><text fill="#000000" font-family="Arial" font-size="12" lengthAdjust="spacing" textLength="70.6875" x="43.6807" y="558.1357">Remote User</text><text fill="#000000" font-family="Arial" font-size="12" lengthAdjust="spacing" textLength="118.0488" x="20" y="571.9346">(US44 / US78 / US86)</text><ellipse cx="82.0244" cy="582.9775" fill="#E2E2F0" rx="8" ry="8" style="stroke:#181818;stroke-width:0.5;"/><path d="M82.0244,590.9775 L82.0244,617.9775 M69.0244,598.9775 L95.0244,598.9775 M82.0244,617.9775 L69.0244,632.9775 M82.0244,617.9775 L95.0244,632.9775 " fill="none" style="stroke:#181818;stroke-width:0.5;"/><rect fill="#E2E2F0" height="27.7988" rx="2.5" ry="2.5" style="stroke:#181818;stroke-width:0.5;" width="130.7188" x="194.4307" y="100.8975"/><text fill="#000000" font-family="Arial" font-size="12" lengthAdjust="spacing" textLength="116.7188" x="201.4307" y="119.1533">AbstractClientHandler</text><rect fill="#E2E2F0" height="27.7988" rx="2.5" ry="2.5" style="stroke:#181818;stroke-width:0.5;" width="130.7188" x="194.4307" y="546.8799"/><text fill="#000000" font-family="Arial" font-size="12" lengthAdjust="spacing" textLength="116.7188" x="201.4307" y="565.1357">AbstractClientHandler</text><rect fill="#E2E2F0" height="27.7988" rx="2.5" ry="2.5" style="stroke:#181818;stroke-width:0.5;" width="112.0566" x="458.5352" y="100.8975"/><text fill="#000000" font-family="Arial" font-size="12" lengthAdjust="spacing" textLength="98.0566" x="465.5352" y="119.1533">UdpAccessLogger</text><rect fill="#E2E2F0" height="27.7988" rx="2.5" ry="2.5" style="stroke:#181818;stroke-width:0.5;" width="112.0566" x="458.5352" y="546.8799"/><text fill="#000000" font-family="Arial" font-size="12" lengthAdjust="spacing" textLength="98.0566" x="465.5352" y="565.1357">UdpAccessLogger</text><rect fill="#E2E2F0" height="27.7988" rx="2.5" ry="2.5" style="stroke:#181818;stroke-width:0.5;" width="103.3848" x="620.5918" y="100.8975"/><text fill="#000000" font-family="Arial" font-size="12" lengthAdjust="spacing" textLength="89.3848" x="627.5918" y="119.1533">UdpLogReceiver</text><rect fill="#E2E2F0" height="27.7988" rx="2.5" ry="2.5" style="stroke:#181818;stroke-width:0.5;" width="103.3848" x="620.5918" y="546.8799"/><text fill="#000000" font-family="Arial" font-size="12" lengthAdjust="spacing" textLength="89.3848" x="627.5918" y="565.1357">UdpLogReceiver</text><rect fill="#E2E2F0" height="27.7988" rx="2.5" ry="2.5" style="stroke:#181818;stroke-width:0.5;" width="62.7031" x="773.9766" y="100.8975"/><text fill="#000000" font-family="Arial" font-size="12" lengthAdjust="spacing" textLength="48.7031" x="780.9766" y="119.1533">LogStore</text><rect fill="#E2E2F0" height="27.7988" rx="2.5" ry="2.5" style="stroke:#181818;stroke-width:0.5;" width="62.7031" x="773.9766" y="546.8799"/><text fill="#000000" font-family="Arial" font-size="12" lengthAdjust="spacing" textLength="48.7031" x="780.9766" y="565.1357">LogStore</text><rect fill="#FFFFFF" height="378.3848" style="stroke:#181818;stroke-width:1.0;" width="10" x="254.79" y="159.4951"/><rect fill="#FFFFFF" height="117.1953" style="stroke:#181818;stroke-width:1.0;" width="10" x="509.5635" y="228.0928"/><rect fill="#FFFFFF" height="55.5977" style="stroke:#181818;stroke-width:1.0;" width="10" x="509.5635" y="439.4834"/><rect fill="#FFFFFF" height="27.7988" style="stroke:#181818;stroke-width:1.0;" width="10" x="667.2842" y="289.6904"/><rect fill="#FFFFFF" height="27.7988" style="stroke:#181818;stroke-width:1.0;" width="10" x="667.2842" y="467.2822"/><polygon fill="#181818" points="242.79,155.4951,252.79,159.4951,242.79,163.4951,246.79,159.4951" style="stroke:#181818;stroke-width:1.0;"/><line style="stroke:#181818;stroke-width:1.0;" x1="82.0244" x2="248.79" y1="159.4951" y2="159.4951"/><text fill="#000000" font-family="Arial" font-size="12" font-weight="bold" lengthAdjust="spacing" textLength="6.6738" x="91.5244" y="154.9521">1</text><text fill="#000000" font-family="Arial" font-size="12" lengthAdjust="spacing" textLength="143.0918" x="102.1982" y="154.9521">connect + send credentials</text><line style="stroke:#181818;stroke-width:1.0;" x1="264.79" x2="306.79" y1="187.2939" y2="187.2939"/><line style="stroke:#181818;stroke-width:1.0;" x1="306.79" x2="306.79" y1="187.2939" y2="200.2939"/><line style="stroke:#181818;stroke-width:1.0;" x1="265.79" x2="306.79" y1="200.2939" y2="200.2939"/><polygon fill="#181818" points="275.79,196.2939,265.79,200.2939,275.79,204.2939,271.79,200.2939" style="stroke:#181818;stroke-width:1.0;"/><text fill="#000000" font-family="Arial" font-size="12" font-weight="bold" lengthAdjust="spacing" textLength="6.6738" x="271.79" y="182.751">2</text><text fill="#000000" font-family="Arial" font-size="12" lengthAdjust="spacing" textLength="210.0996" x="282.4639" y="182.751">authenticateUser(username, password)</text><polygon fill="#181818" points="497.5635,224.0928,507.5635,228.0928,497.5635,232.0928,501.5635,228.0928" style="stroke:#181818;stroke-width:1.0;"/><line style="stroke:#181818;stroke-width:1.0;" x1="264.79" x2="503.5635" y1="228.0928" y2="228.0928"/><text fill="#000000" font-family="Arial" font-size="12" font-weight="bold" lengthAdjust="spacing" textLength="6.6738" x="286.8037" y="223.5498">3</text><text fill="#000000" font-family="Arial" font-size="12" lengthAdjust="spacing" textLength="190.0723" x="297.4775" y="223.5498">loginOk(username, ip, port, service)</text><path d="M524,241.0928 L524,264.0928 L853,264.0928 L853,251.0928 L843,241.0928 L524,241.0928 " fill="#FEFFDD" style="stroke:#181818;stroke-width:0.5;"/><path d="M843,241.0928 L843,251.0928 L853,251.0928 L843,241.0928 " fill="#FEFFDD" style="stroke:#181818;stroke-width:0.5;"/><text fill="#000000" font-family="Arial" font-size="12" lengthAdjust="spacing" textLength="308.8301" x="530" y="257.3486">payload: EVENT|epochMs|user|ip|port|service|LOGIN_OK</text><polygon fill="#181818" points="655.2842,285.6904,665.2842,289.6904,655.2842,293.6904,659.2842,289.6904" style="stroke:#181818;stroke-width:1.0;"/><line style="stroke:#181818;stroke-width:1.0;" x1="519.5635" x2="661.2842" y1="289.6904" y2="289.6904"/><text fill="#000000" font-family="Arial" font-size="12" font-weight="bold" lengthAdjust="spacing" textLength="6.6738" x="548.4043" y="285.1475">4</text><text fill="#000000" font-family="Arial" font-size="12" lengthAdjust="spacing" textLength="79.3652" x="559.0781" y="285.1475">UDP datagram</text><polygon fill="#181818" points="793.3281,313.4893,803.3281,317.4893,793.3281,321.4893,797.3281,317.4893" style="stroke:#181818;stroke-width:1.0;"/><line style="stroke:#181818;stroke-width:1.0;" x1="672.2842" x2="799.3281" y1="317.4893" y2="317.4893"/><text fill="#000000" font-family="Arial" font-size="12" font-weight="bold" lengthAdjust="spacing" textLength="6.6738" x="706.1235" y="312.9463">5</text><text fill="#000000" font-family="Arial" font-size="12" lengthAdjust="spacing" textLength="54.6914" x="716.7974" y="312.9463">add(entry)</text><polygon fill="#181818" points="275.79,341.2881,265.79,345.2881,275.79,349.2881,271.79,345.2881" style="stroke:#181818;stroke-width:1.0;"/><line style="stroke:#181818;stroke-width:1.0;stroke-dasharray:2.0,2.0;" x1="269.79" x2="513.5635" y1="345.2881" y2="345.2881"/><text fill="#000000" font-family="Arial" font-size="12" font-weight="bold" lengthAdjust="spacing" textLength="6.6738" x="382.6729" y="340.7451">6</text><text fill="#000000" font-family="Arial" font-size="12" lengthAdjust="spacing" textLength="3.334" x="393.3467" y="340.7451">&#160;</text><path d="M10,360.2881 L69.0039,360.2881 L69.0039,366.0869 L59.0039,376.0869 L10,376.0869 L10,360.2881 " fill="#EEEEEE" style="stroke:#000000;stroke-width:1.5;"/><rect fill="none" height="170.5918" style="stroke:#000000;stroke-width:1.5;" width="856.6797" x="10" y="360.2881"/><text fill="#000000" font-family="Arial" font-size="12" font-weight="bold" lengthAdjust="spacing" textLength="14.0039" x="25" y="372.5439">alt</text><text fill="#000000" font-family="Arial" font-size="12" font-weight="bold" lengthAdjust="spacing" textLength="55.3652" x="84.0039" y="373.5439">[success]</text><polygon fill="#181818" points="93.0244,391.8857,83.0244,395.8857,93.0244,399.8857,89.0244,395.8857" style="stroke:#181818;stroke-width:1.0;"/><line style="stroke:#181818;stroke-width:1.0;stroke-dasharray:2.0,2.0;" x1="87.0244" x2="253.79" y1="395.8857" y2="395.8857"/><text fill="#000000" font-family="Arial" font-size="12" font-weight="bold" lengthAdjust="spacing" textLength="6.6738" x="134.7314" y="391.3428">7</text><text fill="#000000" font-family="Arial" font-size="12" lengthAdjust="spacing" textLength="56.6777" x="145.4053" y="391.3428">AUTH_OK</text><line style="stroke:#000000;stroke-width:1.0;stroke-dasharray:2.0,2.0;" x1="10" x2="866.6797" y1="404.8857" y2="404.8857"/><text fill="#000000" font-family="Arial" font-size="12" font-weight="bold" lengthAdjust="spacing" textLength="44.0039" x="15" y="416.1416">[failure]</text><polygon fill="#181818" points="497.5635,435.4834,507.5635,439.4834,497.5635,443.4834,501.5635,439.4834" style="stroke:#181818;stroke-width:1.0;"/><line style="stroke:#181818;stroke-width:1.0;" x1="264.79" x2="503.5635" y1="439.4834" y2="439.4834"/><text fill="#000000" font-family="Arial" font-size="12" font-weight="bold" lengthAdjust="spacing" textLength="6.6738" x="284.8027" y="434.9404">8</text><text fill="#000000" font-family="Arial" font-size="12" lengthAdjust="spacing" textLength="194.0742" x="295.4766" y="434.9404">loginFail(username, ip, port, service)</text><polygon fill="#181818" points="655.2842,463.2822,665.2842,467.2822,655.2842,471.2822,659.2842,467.2822" style="stroke:#181818;stroke-width:1.0;"/><line style="stroke:#181818;stroke-width:1.0;" x1="519.5635" x2="661.2842" y1="467.2822" y2="467.2822"/><text fill="#000000" font-family="Arial" font-size="12" font-weight="bold" lengthAdjust="spacing" textLength="6.6738" x="548.4043" y="462.7393">9</text><text fill="#000000" font-family="Arial" font-size="12" lengthAdjust="spacing" textLength="79.3652" x="559.0781" y="462.7393">UDP datagram</text><polygon fill="#181818" points="793.3281,491.0811,803.3281,495.0811,793.3281,499.0811,797.3281,495.0811" style="stroke:#181818;stroke-width:1.0;"/><line style="stroke:#181818;stroke-width:1.0;" x1="672.2842" x2="799.3281" y1="495.0811" y2="495.0811"/><text fill="#000000" font-family="Arial" font-size="12" font-weight="bold" lengthAdjust="spacing" textLength="13.3477" x="702.7866" y="490.5381">10</text><text fill="#000000" font-family="Arial" font-size="12" lengthAdjust="spacing" textLength="54.6914" x="720.1343" y="490.5381">add(entry)</text><polygon fill="#181818" points="93.0244,518.8799,83.0244,522.8799,93.0244,526.8799,89.0244,522.8799" style="stroke:#181818;stroke-width:1.0;"/><line style="stroke:#181818;stroke-width:1.0;stroke-dasharray:2.0,2.0;" x1="87.0244" x2="253.79" y1="522.8799" y2="522.8799"/><text fill="#000000" font-family="Arial" font-size="12" font-weight="bold" lengthAdjust="spacing" textLength="13.3477" x="127.3926" y="518.3369">11</text><text fill="#000000" font-family="Arial" font-size="12" lengthAdjust="spacing" textLength="64.6816" x="144.7402" y="518.3369">AUTH_FAIL</text><!--SRC=[XPBHRjCm58Rl_HH7lMh446EQOFG2AOAMJNHjjIvS8I7FFasjkNQmdQAXNF0GF25Fmd6Qj4ats4thsFz__9_lEAYW4RBbkrFuy-ittE361eHK2FGUfZRFbSbXI0jbOBn54nB6_Bqo1NTy0nw_bsW4NfEQvvXgbHiGf4BNKKbSyLA7YJLXnZTKtIckdpvVgfy8hyywXmlkWXAgu2Oik9GnpjafOxmCrfIRExg8SH6iWq6JFVFelffXjZm_XrVKsTkB-k_YJJ80xa5eHVbOSIWBW_JE1qTLFjHdbzn8ZQvMhtVhlZoJnGvGvDC8TRryf2F53GfKsqRcce- -a5HBQW5hYOyhndOvuUNxDWECG5XZK0HuGU2D1E5GaePW-iX0RJcrtoPchQrNWR2jeqMGD88QblHZQ2WdK73lVrWdawvprnOPTNm1y_kENXNaiIwSK1YtLGAJGuY6XedpS2fV1x2hTXFefWTjkHp1-CjuTbjXOSNwsbUnTAMAAXQjcfhLTFxfQlPj_fd5XcCznffCbAwbIVcoZmkGFF2StimXnnxtNack6d1a8UMGMBY7X4byR6clEV3hoffc6DS1V5c_1keCzgYZhHdX2DBizhBkGNk45LUwf0dtrCUa9oJwF-jeFquJzvwdqtFksusxpr2AagT87UrtmloRnYIzciQPiYxKHluN]--></g></svg>