<?plantuml 1.2026.2?><svg xmlns="http://www.w3.org/2000/svg" xmlns:xlink="http://www.w3.org/1999/xlink" contentStyleType="text/css" data-diagram-type="DESCRIPTION" height="1543px" preserveAspectRatio="none" style="width:590px;height:1543px;background:#FFFFFF;" version="1.1" viewBox="0 0 590 1543" width="590px" zoomAndPan="magnify"><defs/><g><!--cluster bConfig--><g class="cluster" data-qualified-name="bConfig" data-source-line="11" id="ent0008"><path d="M259.5,900.8945 L430.5195,900.8945 A3.75,3.75 0 0 1 433.0195,903.3945 L440.0195,932.0508 L580.5,932.0508 A2.5,2.5 0 0 1 583,934.5508 L583,1534.3945 A2.5,2.5 0 0 1 580.5,1536.8945 L259.5,1536.8945 A2.5,2.5 0 0 1 257,1534.3945 L257,903.3945 A2.5,2.5 0 0 1 259.5,900.8945" fill="none" style="stroke:#000000;stroke-width:1.5;"/><line style="stroke:#000000;stroke-width:1.5;" x1="257" x2="440.0195" y1="932.0508" y2="932.0508"/><text fill="#000000" font-family="sans-serif" font-size="20" font-weight="bold" lengthAdjust="spacing" textLength="170.0195" x="261" y="923.6563">Backoffice Config</text></g><!--cluster acConfig--><g class="cluster" data-qualified-name="acConfig" data-source-line="21" id="ent0016"><path d="M276,614.8945 L554.7832,614.8945 A3.75,3.75 0 0 1 557.2832,617.3945 L564.2832,646.0508 L564,646.0508 A2.5,2.5 0 0 1 566.5,648.5508 L566.5,874.3945 A2.5,2.5 0 0 1 564,876.8945 L276,876.8945 A2.5,2.5 0 0 1 273.5,874.3945 L273.5,617.3945 A2.5,2.5 0 0 1 276,614.8945" fill="none" style="stroke:#000000;stroke-width:1.5;"/><line style="stroke:#000000;stroke-width:1.5;" x1="273.5" x2="564.2832" y1="646.0508" y2="646.0508"/><text fill="#000000" font-family="sans-serif" font-size="20" font-weight="bold" lengthAdjust="spacing" textLength="277.7832" x="277.5" y="637.6563">Air Companies Configuration</text></g><!--cluster flightMng--><g class="cluster" data-qualified-name="flightMng" data-source-line="27" id="ent0020"><path d="M297.5,6.8945 L480.7266,6.8945 A3.75,3.75 0 0 1 483.2266,9.3945 L490.2266,38.0508 L542.5,38.0508 A2.5,2.5 0 0 1 545,40.5508 L545,272.3945 A2.5,2.5 0 0 1 542.5,274.8945 L297.5,274.8945 A2.5,2.5 0 0 1 295,272.3945 L295,9.3945 A2.5,2.5 0 0 1 297.5,6.8945" fill="none" style="stroke:#000000;stroke-width:1.5;"/><line style="stroke:#000000;stroke-width:1.5;" x1="295" x2="490.2266" y1="38.0508" y2="38.0508"/><text fill="#000000" font-family="sans-serif" font-size="20" font-weight="bold" lengthAdjust="spacing" textLength="182.2266" x="299" y="29.6563">Flight Management</text></g><!--cluster wService--><g class="cluster" data-qualified-name="wService" data-source-line="33" id="ent0024"><path d="M276.5,298.8945 L433.1348,298.8945 A3.75,3.75 0 0 1 435.6348,301.3945 L442.6348,330.0508 L563.5,330.0508 A2.5,2.5 0 0 1 566,332.5508 L566,588.3945 A2.5,2.5 0 0 1 563.5,590.8945 L276.5,590.8945 A2.5,2.5 0 0 1 274,588.3945 L274,301.3945 A2.5,2.5 0 0 1 276.5,298.8945" fill="none" style="stroke:#000000;stroke-width:1.5;"/><line style="stroke:#000000;stroke-width:1.5;" x1="274" x2="442.6348" y1="330.0508" y2="330.0508"/><text fill="#000000" font-family="sans-serif" font-size="20" font-weight="bold" lengthAdjust="spacing" textLength="155.6348" x="278" y="321.6563">Weather Service</text></g><!--entity UC07--><g class="entity" data-qualified-name="bConfig.UC07" data-source-line="12" id="ent0009"><ellipse cx="419.7798" cy="965.7505" fill="#F1F1F1" rx="92.2798" ry="20.856" style="stroke:#181818;stroke-width:0.5;"/><text fill="#000000" font-family="sans-serif" font-size="20" lengthAdjust="spacing" textLength="126.7383" x="356.4106" y="974.8286">Manage users</text></g><!--entity UC01--><g class="entity" data-qualified-name="bConfig.UC01" data-source-line="13" id="ent0010"><ellipse cx="420.0366" cy="1418.0019" fill="#F1F1F1" rx="116.0366" ry="25.6073" style="stroke:#181818;stroke-width:0.5;"/><text fill="#000000" font-family="sans-serif" font-size="20" lengthAdjust="spacing" textLength="187.8516" x="326.1109" y="1427.08">Create air traffic area</text></g><!--entity UC02--><g class="entity" data-qualified-name="bConfig.UC02" data-source-line="14" id="ent0011"><ellipse cx="419.9618" cy="1499.6827" fill="#F1F1F1" rx="89.4618" ry="20.7882" style="stroke:#181818;stroke-width:0.5;"/><text fill="#000000" font-family="sans-serif" font-size="20" lengthAdjust="spacing" textLength="122.2754" x="358.8241" y="1508.7608">Create airport</text></g><!--entity UC03--><g class="entity" data-qualified-name="bConfig.UC03" data-source-line="15" id="ent0012"><ellipse cx="419.9712" cy="1053.6888" fill="#F1F1F1" rx="144.4712" ry="31.2942" style="stroke:#181818;stroke-width:0.5;"/><text fill="#000000" font-family="sans-serif" font-size="20" lengthAdjust="spacing" textLength="253.4473" x="293.2476" y="1062.7669">Create aircraft/engine maker</text></g><!--entity UC04--><g class="entity" data-qualified-name="bConfig.UC04" data-source-line="16" id="ent0013"><ellipse cx="420.0745" cy="1145.9094" fill="#F1F1F1" rx="115.5745" ry="25.5149" style="stroke:#181818;stroke-width:0.5;"/><text fill="#000000" font-family="sans-serif" font-size="20" lengthAdjust="spacing" textLength="186.7383" x="326.7054" y="1154.9876">Create aircraft model</text></g><!--entity UC05--><g class="entity" data-qualified-name="bConfig.UC05" data-source-line="17" id="ent0014"><ellipse cx="420.1335" cy="1231.8212" fill="#F1F1F1" rx="115.1335" ry="25.4267" style="stroke:#181818;stroke-width:0.5;"/><text fill="#000000" font-family="sans-serif" font-size="20" lengthAdjust="spacing" textLength="185.6738" x="327.2966" y="1240.8994">Create engine model</text></g><!--entity UC06--><g class="entity" data-qualified-name="bConfig.UC06" data-source-line="18" id="ent0015"><ellipse cx="419.9652" cy="1324.6876" fill="#F1F1F1" rx="146.9652" ry="31.793" style="stroke:#181818;stroke-width:0.5;"/><text fill="#000000" font-family="sans-serif" font-size="20" lengthAdjust="spacing" textLength="259.0039" x="290.4633" y="1333.7657">Create air transport company</text></g><!--entity UC21--><g class="entity" data-qualified-name="acConfig.UC21" data-source-line="22" id="ent0017"><ellipse cx="419.7694" cy="839.7484" fill="#F1F1F1" rx="92.2694" ry="20.8539" style="stroke:#181818;stroke-width:0.5;"/><text fill="#000000" font-family="sans-serif" font-size="20" lengthAdjust="spacing" textLength="126.709" x="356.4149" y="848.8265">Create aircraft</text></g><!--entity UC22--><g class="entity" data-qualified-name="acConfig.UC22" data-source-line="23" id="ent0018"><ellipse cx="419.8581" cy="682.6661" fill="#F1F1F1" rx="104.3581" ry="23.2716" style="stroke:#181818;stroke-width:0.5;"/><text fill="#000000" font-family="sans-serif" font-size="20" lengthAdjust="spacing" textLength="158.9746" x="340.3708" y="691.7443">Create flight route</text></g><!--entity UC23--><g class="entity" data-qualified-name="acConfig.UC23" data-source-line="24" id="ent0019"><ellipse cx="420.05" cy="762.6827" fill="#F1F1F1" rx="91.05" ry="20.7882" style="stroke:#181818;stroke-width:0.5;"/><text fill="#000000" font-family="sans-serif" font-size="20" lengthAdjust="spacing" textLength="124.5215" x="357.7892" y="771.7608">Manage pilots</text></g><!--entity UC41--><g class="entity" data-qualified-name="flightMng.UC41" data-source-line="28" id="ent0021"><ellipse cx="419.994" cy="234.6933" fill="#F1F1F1" rx="106.994" ry="23.7988" style="stroke:#181818;stroke-width:0.5;"/><text fill="#000000" font-family="sans-serif" font-size="20" lengthAdjust="spacing" textLength="165.6445" x="337.1718" y="243.7715">Register flight plan</text></g><!--entity UC42--><g class="entity" data-qualified-name="flightMng.UC42" data-source-line="29" id="ent0022"><ellipse cx="419.9692" cy="154.9884" fill="#F1F1F1" rx="93.4692" ry="21.0938" style="stroke:#181818;stroke-width:0.5;"/><text fill="#000000" font-family="sans-serif" font-size="20" lengthAdjust="spacing" textLength="130.0684" x="354.935" y="164.0665">Test flight plan</text></g><!--entity UC43--><g class="entity" data-qualified-name="flightMng.UC43" data-source-line="30" id="ent0023"><ellipse cx="420.2121" cy="75.137" fill="#F1F1F1" rx="109.2121" ry="24.2424" style="stroke:#181818;stroke-width:0.5;"/><text fill="#000000" font-family="sans-serif" font-size="20" lengthAdjust="spacing" textLength="171.1816" x="334.6213" y="84.2151">Simulate air control</text></g><!--entity UC30--><g class="entity" data-qualified-name="wService.UC30" data-source-line="34" id="ent0025"><ellipse cx="419.8028" cy="455.6551" fill="#F1F1F1" rx="119.3028" ry="26.2606" style="stroke:#181818;stroke-width:0.5;"/><text fill="#000000" font-family="sans-serif" font-size="20" lengthAdjust="spacing" textLength="195.6641" x="321.9708" y="464.7332">Register weather data</text></g><!--entity UC31--><g class="entity" data-qualified-name="wService.UC31" data-source-line="35" id="ent0026"><ellipse cx="419.7601" cy="545.7466" fill="#F1F1F1" rx="129.7601" ry="28.352" style="stroke:#181818;stroke-width:0.5;"/><text fill="#000000" font-family="sans-serif" font-size="20" lengthAdjust="spacing" textLength="220.1172" x="309.7015" y="554.8247">Import bulk weather data</text></g><!--entity UC32--><g class="entity" data-qualified-name="wService.UC32" data-source-line="36" id="ent0027"><ellipse cx="420.0159" cy="369.0977" fill="#F1F1F1" rx="116.5159" ry="25.7032" style="stroke:#181818;stroke-width:0.5;"/><text fill="#000000" font-family="sans-serif" font-size="20" lengthAdjust="spacing" textLength="189.0039" x="325.5139" y="378.1758">Consult weather data</text></g><!--entity Admin--><g class="entity" data-qualified-name="Admin" data-source-line="4" id="ent0002"><ellipse cx="109.3447" cy="939.3945" fill="#F1F1F1" rx="16" ry="16" style="stroke:#181818;stroke-width:0.5;"/><path d="M109.3447,959.3945 C113.3447,959.3945 116.3447,959.3945 120.3447,955.3945 C128.3447,955.3945 136.3447,963.3945 136.3447,971.3945 L136.3447,975.3945 C136.3447,979.3945 132.3447,983.3945 128.3447,983.3945 L90.3447,983.3945 C86.3447,983.3945 82.3447,979.3945 82.3447,975.3945 L82.3447,971.3945 C82.3447,963.3945 90.3447,955.3945 98.3447,955.3945 C102.3447,959.3945 105.3447,959.3945 109.3447,959.3945" fill="#F1F1F1" style="stroke:#181818;stroke-width:0.5;"/><text fill="#000000" font-family="sans-serif" font-size="20" lengthAdjust="spacing" textLength="56.6895" x="81" y="1004.6563">Admin</text></g><!--entity BO--><g class="entity" data-qualified-name="BO" data-source-line="5" id="ent0003"><ellipse cx="109.374" cy="1205.3945" fill="#F1F1F1" rx="16" ry="16" style="stroke:#181818;stroke-width:0.5;"/><path d="M109.374,1225.3945 C113.374,1225.3945 116.374,1225.3945 120.374,1221.3945 C128.374,1221.3945 136.374,1229.3945 136.374,1237.3945 L136.374,1241.3945 C136.374,1245.3945 132.374,1249.3945 128.374,1249.3945 L90.374,1249.3945 C86.374,1249.3945 82.374,1245.3945 82.374,1241.3945 L82.374,1237.3945 C82.374,1229.3945 90.374,1221.3945 98.374,1221.3945 C102.374,1225.3945 105.374,1225.3945 109.374,1225.3945" fill="#F1F1F1" style="stroke:#181818;stroke-width:0.5;"/><text fill="#000000" font-family="sans-serif" font-size="20" lengthAdjust="spacing" textLength="176.748" x="21" y="1270.6563">Backoffice Operator</text></g><!--entity ATCC--><g class="entity" data-qualified-name="ATCC" data-source-line="6" id="ent0004"><ellipse cx="109.3691" cy="723.8945" fill="#F1F1F1" rx="16" ry="16" style="stroke:#181818;stroke-width:0.5;"/><path d="M109.3691,743.8945 C113.3691,743.8945 116.3691,743.8945 120.3691,739.8945 C128.3691,739.8945 136.3691,747.8945 136.3691,755.8945 L136.3691,759.8945 C136.3691,763.8945 132.3691,767.8945 128.3691,767.8945 L90.3691,767.8945 C86.3691,767.8945 82.3691,763.8945 82.3691,759.8945 L82.3691,755.8945 C82.3691,747.8945 90.3691,739.8945 98.3691,739.8945 C102.3691,743.8945 105.3691,743.8945 109.3691,743.8945" fill="#F1F1F1" style="stroke:#181818;stroke-width:0.5;"/><text fill="#000000" font-family="sans-serif" font-size="20" lengthAdjust="spacing" textLength="206.7383" x="6" y="789.1563">Air Transport Company</text><text fill="#000000" font-family="sans-serif" font-size="20" lengthAdjust="spacing" textLength="108.9453" x="11.5566" y="814.3125">Collaborator</text></g><!--entity Pilot--><g class="entity" data-qualified-name="Pilot" data-source-line="7" id="ent0005"><ellipse cx="109.5" cy="229.3945" fill="#F1F1F1" rx="16" ry="16" style="stroke:#181818;stroke-width:0.5;"/><path d="M109.5,249.3945 C113.5,249.3945 116.5,249.3945 120.5,245.3945 C128.5,245.3945 136.5,253.3945 136.5,261.3945 L136.5,265.3945 C136.5,269.3945 132.5,273.3945 128.5,273.3945 L90.5,273.3945 C86.5,273.3945 82.5,269.3945 82.5,265.3945 L82.5,261.3945 C82.5,253.3945 90.5,245.3945 98.5,245.3945 C102.5,249.3945 105.5,249.3945 109.5,249.3945" fill="#F1F1F1" style="stroke:#181818;stroke-width:0.5;"/><text fill="#000000" font-family="sans-serif" font-size="20" lengthAdjust="spacing" textLength="38.9063" x="90.0469" y="294.6563">Pilot</text></g><!--entity FCO--><g class="entity" data-qualified-name="FCO" data-source-line="8" id="ent0006"><ellipse cx="109.709" cy="108.3945" fill="#F1F1F1" rx="16" ry="16" style="stroke:#181818;stroke-width:0.5;"/><path d="M109.709,128.3945 C113.709,128.3945 116.709,128.3945 120.709,124.3945 C128.709,124.3945 136.709,132.3945 136.709,140.3945 L136.709,144.3945 C136.709,148.3945 132.709,152.3945 128.709,152.3945 L90.709,152.3945 C86.709,152.3945 82.709,148.3945 82.709,144.3945 L82.709,140.3945 C82.709,132.3945 90.709,124.3945 98.709,124.3945 C102.709,128.3945 105.709,128.3945 109.709,128.3945" fill="#F1F1F1" style="stroke:#181818;stroke-width:0.5;"/><text fill="#000000" font-family="sans-serif" font-size="20" lengthAdjust="spacing" textLength="203.418" x="8" y="173.6563">Flight Control Operator</text></g><!--entity WP--><g class="entity" data-qualified-name="WP" data-source-line="9" id="ent0007"><ellipse cx="109.2559" cy="474.3945" fill="#F1F1F1" rx="16" ry="16" style="stroke:#181818;stroke-width:0.5;"/><path d="M109.2559,494.3945 C113.2559,494.3945 116.2559,494.3945 120.2559,490.3945 C128.2559,490.3945 136.2559,498.3945 136.2559,506.3945 L136.2559,510.3945 C136.2559,514.3945 132.2559,518.3945 128.2559,518.3945 L90.2559,518.3945 C86.2559,518.3945 82.2559,514.3945 82.2559,510.3945 L82.2559,506.3945 C82.2559,498.3945 90.2559,490.3945 98.2559,490.3945 C102.2559,494.3945 105.2559,494.3945 109.2559,494.3945" fill="#F1F1F1" style="stroke:#181818;stroke-width:0.5;"/><text fill="#000000" font-family="sans-serif" font-size="20" lengthAdjust="spacing" textLength="144.5117" x="37" y="539.6563">Weather Person</text></g><!--link Admin to UC07--><g class="link" data-entity-1="ent0002" data-entity-2="ent0009" data-link-type="dependency" data-source-line="39" id="lnk28"><path d="M138.15,965.8945 C180.3,965.8945 256.55,965.8945 321.19,965.8945" fill="none" id="Admin-to-UC07" style="stroke:#181818;stroke-width:1;"/><polygon fill="#181818" points="327.19,965.8945,318.19,961.8945,322.19,965.8945,318.19,969.8945,327.19,965.8945" style="stroke:#181818;stroke-width:1;"/></g><!--link BO to UC01--><g class="link" data-entity-1="ent0003" data-entity-2="ent0010" data-link-type="dependency" data-source-line="40" id="lnk29"><path d="M141.57,1275.0745 C166.95,1307.2545 205.62,1349.7945 249,1374.8945 C271.66,1388.0045 292.4608,1395.7028 317.8208,1402.0728" fill="none" id="BO-to-UC01" style="stroke:#181818;stroke-width:1;"/><polygon fill="#181818" points="323.64,1403.5345,315.8856,1397.4625,318.7906,1402.3165,313.9367,1405.2215,323.64,1403.5345" style="stroke:#181818;stroke-width:1;"/></g><!--link BO to UC02--><g class="link" data-entity-1="ent0003" data-entity-2="ent0011" data-link-type="dependency" data-source-line="41" id="lnk30"><path d="M124.7,1275.0145 C144.22,1327.2945 184.43,1414.1945 249,1460.8945 C273.54,1478.6445 298.9407,1487.38 327.9907,1492.77" fill="none" id="BO-to-UC02" style="stroke:#181818;stroke-width:1;"/><polygon fill="#181818" points="333.89,1493.8645,325.7707,1488.2898,328.9739,1492.9524,324.3113,1496.1556,333.89,1493.8645" style="stroke:#181818;stroke-width:1;"/></g><!--link BO to UC03--><g class="link" data-entity-1="ent0003" data-entity-2="ent0012" data-link-type="dependency" data-source-line="42" id="lnk31"><path d="M146.78,1188.8745 C172.65,1160.7245 209.68,1125.1545 249,1102.8945 C269.18,1091.4645 286.506,1084.2814 308.996,1077.3514" fill="none" id="BO-to-UC03" style="stroke:#181818;stroke-width:1;"/><polygon fill="#181818" points="314.73,1075.5845,304.9512,1074.4122,309.9517,1077.0569,307.307,1082.0574,314.73,1075.5845" style="stroke:#181818;stroke-width:1;"/></g><!--link BO to UC04--><g class="link" data-entity-1="ent0003" data-entity-2="ent0013" data-link-type="dependency" data-source-line="43" id="lnk32"><path d="M198.21,1203.8945 C215.02,1198.7445 232.52,1193.5345 249,1188.8945 C279.04,1180.4345 306.4484,1173.3169 335.5084,1166.0669" fill="none" id="BO-to-UC04" style="stroke:#181818;stroke-width:1;"/><polygon fill="#181818" points="341.33,1164.6145,331.6294,1162.9121,336.4787,1165.8249,333.5659,1170.6742,341.33,1164.6145" style="stroke:#181818;stroke-width:1;"/></g><!--link BO to UC05--><g class="link" data-entity-1="ent0003" data-entity-2="ent0014" data-link-type="dependency" data-source-line="44" id="lnk33"><path d="M198.08,1231.8945 C231.3,1231.8945 263.63,1231.8945 298.94,1231.8945" fill="none" id="BO-to-UC05" style="stroke:#181818;stroke-width:1;"/><polygon fill="#181818" points="304.94,1231.8945,295.94,1227.8945,299.94,1231.8945,295.94,1235.8945,304.94,1231.8945" style="stroke:#181818;stroke-width:1;"/></g><!--link BO to UC06--><g class="link" data-entity-1="ent0003" data-entity-2="ent0015" data-link-type="dependency" data-source-line="45" id="lnk34"><path d="M198.36,1259.3945 C215.16,1264.5845 232.61,1269.9445 249,1274.8945 C275.65,1282.9545 298.9436,1289.8622 325.3736,1297.6322" fill="none" id="BO-to-UC06" style="stroke:#181818;stroke-width:1;"/><polygon fill="#181818" points="331.13,1299.3245,323.6236,1292.9485,326.333,1297.9143,321.3672,1300.6237,331.13,1299.3245" style="stroke:#181818;stroke-width:1;"/></g><!--link BO to UC07--><g class="link" data-entity-1="ent0003" data-entity-2="ent0009" data-link-type="dependency" data-source-line="46" id="lnk35"><path d="M124.98,1188.6945 C144.67,1136.8145 184.94,1051.0345 249,1004.8945 C272.96,987.6345 297.4289,979.0125 325.8489,973.5225" fill="none" id="BO-to-UC07" style="stroke:#181818;stroke-width:1;"/><polygon fill="#181818" points="331.74,972.3845,322.1447,970.1641,326.8308,973.3329,323.662,978.0189,331.74,972.3845" style="stroke:#181818;stroke-width:1;"/></g><!--link ATCC to UC21--><g class="link" data-entity-1="ent0004" data-entity-2="ent0017" data-link-type="dependency" data-source-line="47" id="lnk36"><path d="M213.23,791.6045 C225.27,794.8145 237.39,797.9745 249,800.8945 C283.06,809.4745 315.3058,816.9698 346.7858,824.0398" fill="none" id="ATCC-to-UC21" style="stroke:#181818;stroke-width:1;"/><polygon fill="#181818" points="352.64,825.3545,344.7353,819.4796,347.7615,824.2589,342.9822,827.2852,352.64,825.3545" style="stroke:#181818;stroke-width:1;"/></g><!--link ATCC to UC22--><g class="link" data-entity-1="ent0004" data-entity-2="ent0018" data-link-type="dependency" data-source-line="48" id="lnk37"><path d="M213.24,733.4945 C225.28,730.1945 237.4,726.9245 249,723.8945 C280.87,715.5645 310.4226,708.3219 340.6326,701.1419" fill="none" id="ATCC-to-UC22" style="stroke:#181818;stroke-width:1;"/><polygon fill="#181818" points="346.47,699.7545,336.789,697.944,341.6055,700.9107,338.6388,705.7272,346.47,699.7545" style="stroke:#181818;stroke-width:1;"/></g><!--link ATCC to UC23--><g class="link" data-entity-1="ent0004" data-entity-2="ent0019" data-link-type="dependency" data-source-line="49" id="lnk38"><path d="M213.23,762.8945 C250.65,762.8945 286.64,762.8945 322.89,762.8945" fill="none" id="ATCC-to-UC23" style="stroke:#181818;stroke-width:1;"/><polygon fill="#181818" points="328.89,762.8945,319.89,758.8945,323.89,762.8945,319.89,766.8945,328.89,762.8945" style="stroke:#181818;stroke-width:1;"/></g><!--link Pilot to UC41--><g class="link" data-entity-1="ent0005" data-entity-2="ent0021" data-link-type="dependency" data-source-line="50" id="lnk39"><path d="M137.07,254.0845 C176.82,251.3845 247.9239,246.5425 311.4539,242.2125" fill="none" id="Pilot-to-UC41" style="stroke:#181818;stroke-width:1;"/><polygon fill="#181818" points="317.44,241.8045,308.1888,238.4258,312.4516,242.1445,308.7328,246.4073,317.44,241.8045" style="stroke:#181818;stroke-width:1;"/></g><!--link Pilot to UC42--><g class="link" data-entity-1="ent0005" data-entity-2="ent0022" data-link-type="dependency" data-source-line="51" id="lnk40"><path d="M137.16,241.7545 C164.57,227.7145 208.8,206.3645 249,192.8945 C280.11,182.4645 309.5132,175.264 339.8332,169.024" fill="none" id="Pilot-to-UC42" style="stroke:#181818;stroke-width:1;"/><polygon fill="#181818" points="345.71,167.8145,336.0884,165.7109,340.8126,168.8224,337.7011,173.5466,345.71,167.8145" style="stroke:#181818;stroke-width:1;"/></g><!--link Pilot to UC32--><g class="link" data-entity-1="ent0005" data-entity-2="ent0027" data-link-type="dependency" data-source-line="52" id="lnk41"><path d="M137.07,265.6245 C186.18,283.6145 286.6162,320.4005 353.7362,344.9905" fill="none" id="Pilot-to-UC32" style="stroke:#181818;stroke-width:1;"/><polygon fill="#181818" points="359.37,347.0545,352.2953,340.2027,354.6752,345.3345,349.5433,347.7144,359.37,347.0545" style="stroke:#181818;stroke-width:1;"/></g><!--link FCO to UC42--><g class="link" data-entity-1="ent0006" data-entity-2="ent0022" data-link-type="dependency" data-source-line="53" id="lnk42"><path d="M211.09,141.4145 C249.42,143.9045 286.8126,146.3264 323.9926,148.7364" fill="none" id="FCO-to-UC42" style="stroke:#181818;stroke-width:1;"/><polygon fill="#181818" points="329.98,149.1245,321.2576,144.5508,324.9905,148.8011,320.7401,152.534,329.98,149.1245" style="stroke:#181818;stroke-width:1;"/></g><!--link FCO to UC43--><g class="link" data-entity-1="ent0006" data-entity-2="ent0023" data-link-type="dependency" data-source-line="54" id="lnk43"><path d="M211.09,115.3345 C252.06,107.3645 292.9103,99.42 331.6803,91.88" fill="none" id="FCO-to-UC43" style="stroke:#181818;stroke-width:1;"/><polygon fill="#181818" points="337.57,90.7345,327.9719,88.5262,332.662,91.689,329.4991,96.3791,337.57,90.7345" style="stroke:#181818;stroke-width:1;"/></g><!--link WP to UC30--><g class="link" data-entity-1="ent0007" data-entity-2="ent0025" data-link-type="dependency" data-source-line="55" id="lnk44"><path d="M182.05,490.4545 C222.99,484.4845 269.0228,477.7705 313.8628,471.2305" fill="none" id="WP-to-UC30" style="stroke:#181818;stroke-width:1;"/><polygon fill="#181818" points="319.8,470.3645,310.3169,467.7053,314.8523,471.0862,311.4715,475.6216,319.8,470.3645" style="stroke:#181818;stroke-width:1;"/></g><!--link WP to UC31--><g class="link" data-entity-1="ent0007" data-entity-2="ent0026" data-link-type="dependency" data-source-line="56" id="lnk45"><path d="M182.05,511.3345 C220.41,516.9245 262.5128,523.0687 305.3028,529.3087" fill="none" id="WP-to-UC31" style="stroke:#181818;stroke-width:1;"/><polygon fill="#181818" points="311.24,530.1745,302.9114,524.9177,306.2923,529.453,301.757,532.8339,311.24,530.1745" style="stroke:#181818;stroke-width:1;"/></g><!--link FCO to UC32--><g class="link" data-entity-1="ent0006" data-entity-2="ent0027" data-link-type="dependency" data-source-line="57" id="lnk46"><path d="M195,178.2445 C201.51,183.3645 207.63,188.9145 213,194.8945 C239.06,223.8945 222.59,246.2145 249,274.8945 C279.04,307.5145 317.5781,329.0309 353.2981,344.5709" fill="none" id="FCO-to-UC32" style="stroke:#181818;stroke-width:1;"/><polygon fill="#181818" points="358.8,346.9645,352.1429,339.7062,354.2151,344.9699,348.9514,347.0421,358.8,346.9645" style="stroke:#181818;stroke-width:1;"/></g><?plantuml-src VLHDRzim3BtxLn2z5qlijBqDQ0m4wA58i6J8PHV5fbCXicH8ye9ks7yVhOzMJfpU7kdtg2UIbZbnsJ7DMg6g4zPGOyDwOLTAsYt_Wv3FCe6D1Qj0y-ERXPfhh2nNCZDH2gooIc_jkq1WPpIgnInpERXxhbikxu0PS2YcbwmwgQRX5SAwGyqewKZBzOUGQzXf9asdj8LIjHsJxxya8I7OGNrAddTb6KKRBfHrMOTYUYMSzP8kfPKOdxWgFuxS8xDlg663sYXlUh_9Ce2EtB8ZZcnJiOOV7UdWCVmbAa1li6A6oAzC3YAAjN6yd-NiQKmfDHr9JQExMis6mi0e5TdpM-oX9v6Kto9LLD5-Gtda4g5b9zHHKdmfWLRLA29tCScDLLFcmrTt2tEi_1oZv94a_qOT7iRkXytHX2RtD2qU1iAgwMPVt24Sa4ztiF7xe5LlCJBpoU5rmnh5wUN5bTsmMPxTelG7-_glyihb3pnoOsd5WeDEC1cABowixj3OATg5porlUn7xNFa5ZzHhkt73jwX_qn8xuZa4DxsUWwXcDcvcCHjpNrettKClJfFqop4eQUYHcQJcthHxBU3-_hl_QvRhYES9pXDS97YHu8S4FoRuAHiUZX3HdgHHFegAp3qc8QGvZS9y599zUb0-loL1aUqtaJLBy3mXaVm_?></g></svg>